<svg width="30" height="30" viewBox="0 0 30 30" fill="none" xmlns="http://www.w3.org/2000/svg">
<path d="M15.5192 21.8383C15.1314 22.226 15.1314 22.8547 15.5192 23.2425C15.907 23.6303 16.5357 23.6303 16.9235 23.2425L15.5192 21.8383ZM24.2597 13.0978L15.5192 21.8383L16.9235 23.2425L25.6639 14.5021L24.2597 13.0978ZM8.65969 13.1064L16.464 5.30212L15.0597 3.89787L7.25544 11.7021L8.65969 13.1064ZM24.2597 5.30212C26.4124 7.45484 26.4124 10.9451 24.2597 13.0978L25.6639 14.5021C28.5922 11.5738 28.5922 6.82614 25.6639 3.89786L24.2597 5.30212ZM25.6639 3.89786C22.7356 0.969591 17.988 0.969595 15.0597 3.89787L16.464 5.30212C18.6167 3.1494 22.1069 3.1494 24.2597 5.30212L25.6639 3.89786Z" fill="#818181"/>
<path d="M9.49157 10.8703L3.33681 17.025C1.49401 18.8678 1.49401 21.8556 3.33681 23.6984V23.6984C5.17961 25.5412 8.16738 25.5412 10.0102 23.6984L16.1649 17.5436" stroke="#818181" stroke-width="1.98592"/>
<path d="M8.86811 15.149C8.48034 15.5368 8.48034 16.1655 8.86811 16.5532C9.25588 16.941 9.88459 16.941 10.2724 16.5532L8.86811 15.149ZM19.6491 12.6552L13.0117 19.2926L14.416 20.6968L21.0533 14.0595L19.6491 12.6552ZM10.2724 16.5532L16.9098 9.91586L15.5055 8.51161L8.86811 15.149L10.2724 16.5532ZM19.6491 9.91586C20.4055 10.6723 20.4055 11.8988 19.6491 12.6552L21.0533 14.0595C22.5853 12.5275 22.5853 10.0436 21.0533 8.51161L19.6491 9.91586ZM21.0533 8.51161C19.5213 6.97961 17.0375 6.97961 15.5055 8.51161L16.9098 9.91586C17.6662 9.15941 18.8926 9.15941 19.6491 9.91586L21.0533 8.51161Z" fill="#818181"/>
</svg>
