<svg width="80" height="20" viewBox="0 0 80 20" fill="none" xmlns="http://www.w3.org/2000/svg">
<path d="M1.24325 7.55881C-0.414418 8.75527 -0.414417 11.2447 1.24325 12.4412L9.61932 18.4868C10.9823 19.4706 12.6204 20 14.3013 20H76.0415C78.2277 20 80 18.2091 80 16V4C80 1.79086 78.2277 0 76.0415 0H14.3013C12.6204 0 10.9823 0.529445 9.61931 1.51319L1.24325 7.55881Z" fill="#707070"/>
<path d="M17.9937 15V5.04688H20.9331C21.8127 5.04688 22.592 5.24284 23.271 5.63477C23.9546 6.02669 24.4832 6.58268 24.8569 7.30273C25.2306 8.02279 25.4175 8.84766 25.4175 9.77734V10.2764C25.4175 11.2197 25.2284 12.0492 24.8501 12.7646C24.4764 13.4801 23.9409 14.0316 23.2437 14.4189C22.5509 14.8063 21.7557 15 20.8579 15H17.9937ZM19.7231 6.44141V13.6191H20.8511C21.758 13.6191 22.453 13.3366 22.936 12.7715C23.4237 12.2018 23.672 11.3861 23.6812 10.3242V9.77051C23.6812 8.69043 23.4465 7.86556 22.9771 7.2959C22.5076 6.72624 21.8263 6.44141 20.9331 6.44141H19.7231ZM28.7466 15H27.0854V7.60352H28.7466V15ZM26.9829 5.68262C26.9829 5.42741 27.0627 5.21549 27.2222 5.04688C27.3862 4.87826 27.6187 4.79395 27.9194 4.79395C28.2202 4.79395 28.4526 4.87826 28.6167 5.04688C28.7808 5.21549 28.8628 5.42741 28.8628 5.68262C28.8628 5.93327 28.7808 6.1429 28.6167 6.31152C28.4526 6.47559 28.2202 6.55762 27.9194 6.55762C27.6187 6.55762 27.3862 6.47559 27.2222 6.31152C27.0627 6.1429 26.9829 5.93327 26.9829 5.68262ZM34.7075 12.9902C34.7075 12.694 34.5845 12.4684 34.3384 12.3135C34.0968 12.1585 33.6935 12.0218 33.1284 11.9033C32.5633 11.7848 32.0916 11.6344 31.7134 11.4521C30.884 11.0511 30.4692 10.4701 30.4692 9.70898C30.4692 9.07096 30.7381 8.53776 31.2759 8.10938C31.8136 7.68099 32.4972 7.4668 33.3267 7.4668C34.2108 7.4668 34.924 7.68555 35.4663 8.12305C36.0132 8.56055 36.2866 9.12793 36.2866 9.8252H34.6255C34.6255 9.50618 34.507 9.24186 34.27 9.03223C34.033 8.81803 33.7186 8.71094 33.3267 8.71094C32.9621 8.71094 32.6636 8.79525 32.4312 8.96387C32.2033 9.13249 32.0894 9.35807 32.0894 9.64062C32.0894 9.89583 32.1965 10.0941 32.4106 10.2354C32.6248 10.3766 33.0578 10.5202 33.7095 10.666C34.3612 10.8073 34.8716 10.9782 35.2407 11.1787C35.6144 11.3747 35.8901 11.6117 36.0679 11.8896C36.2502 12.1676 36.3413 12.5049 36.3413 12.9014C36.3413 13.5667 36.0656 14.1068 35.5142 14.5215C34.9627 14.9316 34.2404 15.1367 33.3472 15.1367C32.741 15.1367 32.201 15.0273 31.7271 14.8086C31.2531 14.5898 30.884 14.2891 30.6196 13.9062C30.3553 13.5234 30.2231 13.111 30.2231 12.6689H31.8364C31.8592 13.0609 32.0073 13.3639 32.2808 13.5781C32.5542 13.7878 32.9165 13.8926 33.3677 13.8926C33.8052 13.8926 34.1379 13.8105 34.3657 13.6465C34.5936 13.4779 34.7075 13.2591 34.7075 12.9902ZM44.271 11.377C44.271 12.5208 44.0112 13.4346 43.4917 14.1182C42.9722 14.7972 42.2749 15.1367 41.3999 15.1367C40.5887 15.1367 39.9393 14.8701 39.4517 14.3369V17.8438H37.7905V7.60352H39.3218L39.3901 8.35547C39.8778 7.76302 40.5409 7.4668 41.3794 7.4668C42.2817 7.4668 42.9881 7.80404 43.4985 8.47852C44.0135 9.14844 44.271 10.0804 44.271 11.2744V11.377ZM42.6167 11.2334C42.6167 10.4951 42.4686 9.90951 42.1724 9.47656C41.8807 9.04362 41.4614 8.82715 40.9146 8.82715C40.2355 8.82715 39.7479 9.10742 39.4517 9.66797V12.9492C39.7524 13.5234 40.2446 13.8105 40.9282 13.8105C41.4569 13.8105 41.8693 13.5986 42.1655 13.1748C42.4663 12.7464 42.6167 12.0993 42.6167 11.2334ZM50.1636 14.2754C49.6759 14.8496 48.9832 15.1367 48.0854 15.1367C47.2834 15.1367 46.675 14.902 46.2603 14.4326C45.8501 13.9632 45.645 13.2842 45.645 12.3955V7.60352H47.3062V12.375C47.3062 13.3138 47.6958 13.7832 48.4751 13.7832C49.2817 13.7832 49.8263 13.4938 50.1089 12.915V7.60352H51.77V15H50.2046L50.1636 14.2754ZM55.5435 5.80566V7.60352H56.8491V8.83398H55.5435V12.9629C55.5435 13.2454 55.5981 13.4505 55.7075 13.5781C55.8215 13.7012 56.022 13.7627 56.3091 13.7627C56.5005 13.7627 56.6942 13.7399 56.8901 13.6943V14.9795C56.5119 15.0843 56.1473 15.1367 55.7964 15.1367C54.5203 15.1367 53.8823 14.4326 53.8823 13.0244V8.83398H52.6655V7.60352H53.8823V5.80566H55.5435ZM61.3813 15.1367C60.3286 15.1367 59.4741 14.8063 58.8179 14.1455C58.1662 13.4801 57.8403 12.596 57.8403 11.4932V11.2881C57.8403 10.5498 57.9816 9.89128 58.2642 9.3125C58.5513 8.72917 58.9523 8.27572 59.4673 7.95215C59.9823 7.62858 60.5565 7.4668 61.1899 7.4668C62.1971 7.4668 62.9741 7.78809 63.521 8.43066C64.0724 9.07324 64.3481 9.98242 64.3481 11.1582V11.8281H59.5151C59.5653 12.4388 59.7681 12.9219 60.1235 13.2773C60.4836 13.6328 60.9347 13.8105 61.4771 13.8105C62.2381 13.8105 62.8579 13.5029 63.3364 12.8877L64.2319 13.7422C63.9357 14.1842 63.5392 14.5283 63.0425 14.7744C62.5503 15.016 61.9966 15.1367 61.3813 15.1367ZM61.1831 8.7998C60.7274 8.7998 60.3582 8.95931 60.0757 9.27832C59.7977 9.59733 59.62 10.0417 59.5425 10.6113H62.7075V10.4883C62.6711 9.93229 62.5229 9.51302 62.2632 9.23047C62.0034 8.94336 61.6434 8.7998 61.1831 8.7998ZM65.3325 11.2471C65.3325 10.1077 65.5968 9.19401 66.1255 8.50586C66.6541 7.81315 67.3628 7.4668 68.2515 7.4668C69.0353 7.4668 69.6688 7.74023 70.1519 8.28711V4.5H71.813V15H70.3091L70.2271 14.2344C69.7303 14.8359 69.0672 15.1367 68.2378 15.1367C67.3719 15.1367 66.6701 14.7881 66.1323 14.0908C65.5991 13.3936 65.3325 12.4456 65.3325 11.2471ZM66.9937 11.3906C66.9937 12.1426 67.1372 12.7305 67.4243 13.1543C67.716 13.5736 68.1284 13.7832 68.6616 13.7832C69.3407 13.7832 69.8374 13.4801 70.1519 12.874V9.71582C69.8465 9.12337 69.3543 8.82715 68.6753 8.82715C68.1375 8.82715 67.7228 9.04134 67.4312 9.46973C67.1395 9.89355 66.9937 10.5339 66.9937 11.3906Z" fill="white"/>
<circle cx="4.33838" cy="10" r="1.5" fill="white"/>
<circle cx="4.33838" cy="10" r="2" fill="url(#paint0_radial)"/>
<defs>
<radialGradient id="paint0_radial" cx="0" cy="0" r="1" gradientUnits="userSpaceOnUse" gradientTransform="translate(4.33838 10) rotate(90) scale(2)">
<stop offset="0.604167" stop-color="white" stop-opacity="0.5"/>
<stop offset="1" stop-opacity="0.3"/>
</radialGradient>
</defs>
</svg>
