<svg width="18" height="14" viewBox="0 0 18 14" fill="none" xmlns="http://www.w3.org/2000/svg">
<path fill-rule="evenodd" clip-rule="evenodd" d="M6.0667 6.97166C7.59744 6.97166 8.83836 5.73075 8.83836 4.2C8.83836 2.66925 7.59744 1.42834 6.0667 1.42834C4.53595 1.42834 3.29504 2.66925 3.29504 4.2C3.29504 5.73075 4.53595 6.97166 6.0667 6.97166ZM6.0667 8.4C8.3863 8.4 10.2667 6.5196 10.2667 4.2C10.2667 1.8804 8.3863 0 6.0667 0C3.7471 0 1.8667 1.8804 1.8667 4.2C1.8667 6.5196 3.7471 8.4 6.0667 8.4Z" fill="#15BD3A"/>
<path fill-rule="evenodd" clip-rule="evenodd" d="M5.42085 8.6403C5.76607 8.72749 6.12705 8.73297 6.47647 8.66453C8.23485 8.32015 9.65101 8.70123 10.2667 9.03107L9.5728 10.2887C9.21363 10.0962 7.87593 9.6943 6.14752 10.2217C6.0006 10.2666 5.84327 10.2643 5.69769 10.2153C4.85037 9.92983 4.04029 9.7928 3.36549 9.84075C2.69896 9.88812 2.21881 10.1086 1.90932 10.4886C1.66807 10.7848 1.53065 11.2639 1.47826 11.836C1.4548 12.0921 1.45011 12.3413 1.45347 12.5685H8.06528V13.9999H0.0633455L0.0301533 13.3185C0.0285703 13.286 0.0266167 13.2495 0.0244708 13.2095C0.00685367 12.8807 -0.0237191 12.31 0.0314819 11.7073C0.0918966 11.0477 0.263551 10.2223 0.776443 9.59257C1.40963 8.81519 2.32033 8.47986 3.261 8.41301C3.95445 8.36373 4.69274 8.45641 5.42085 8.6403Z" fill="#15BD3A"/>
<path d="M14.9834 6.36147C15.2541 6.08539 15.6974 6.08107 15.9735 6.35184L16.9733 7.33238C17.2494 7.60315 17.2537 8.04647 16.983 8.32256L15.8898 9.43716L13.8902 7.47608L14.9834 6.36147Z" fill="#15BD3A"/>
<path fill-rule="evenodd" clip-rule="evenodd" d="M11.4191 13.7827L14.9335 10.2234L13.0615 8.3999L9.54678 11.9595L9.33682 13.5497C9.3034 13.8097 9.52683 14.0307 9.78844 13.9964L11.4191 13.7827Z" fill="#15BD3A"/>
</svg>
