<svg width="39" height="36" viewBox="0 0 39 36" fill="none" xmlns="http://www.w3.org/2000/svg">
<path d="M19.0266 0.945298C19.1803 0.493253 19.8197 0.493252 19.9734 0.945299L23.8476 12.339C24.0544 12.9472 24.6254 13.3561 25.2678 13.3561H37.7049C38.1947 13.3561 38.3924 13.9875 37.99 14.2669L28.0076 21.1972C27.4578 21.5789 27.2274 22.2786 27.4429 22.9123L31.2741 34.1795C31.4294 34.6361 30.9118 35.0262 30.5155 34.7511L20.3554 27.6975C19.841 27.3404 19.1589 27.3404 18.6446 27.6975L8.48446 34.7511C8.08823 35.0262 7.57065 34.6361 7.72593 34.1795L11.5571 22.9123C11.7726 22.2786 11.5422 21.5789 10.9924 21.1972L1.00998 14.2669C0.607599 13.9875 0.805273 13.3561 1.29513 13.3561H13.7322C14.3746 13.3561 14.9456 12.9472 15.1524 12.339L19.0266 0.945298Z" stroke="#D4D4D4"/>
</svg>
