<svg width="38" height="36" viewBox="0 0 38 36" fill="none" xmlns="http://www.w3.org/2000/svg">
<path d="M18.0511 0.85412C18.3545 -0.0585526 19.6455 -0.0585505 19.9489 0.854122L23.7117 12.1716C23.8476 12.5803 24.2299 12.8561 24.6607 12.8561H36.7876C37.7618 12.8561 38.1609 14.1075 37.3665 14.6715L27.5955 21.6092C27.2369 21.8638 27.0867 22.3228 27.2255 22.7401L30.967 33.9935C31.2719 34.9108 30.2273 35.684 29.4391 35.1243L19.5789 28.1233C19.2322 27.8772 18.7678 27.8772 18.4211 28.1233L8.5609 35.1243C7.77272 35.684 6.72806 34.9108 7.03303 33.9935L10.7745 22.7401C10.9133 22.3228 10.7631 21.8638 10.4045 21.6092L0.633509 14.6715C-0.160892 14.1075 0.238166 12.8561 1.21245 12.8561H13.3393C13.7701 12.8561 14.1524 12.5803 14.2883 12.1716L18.0511 0.85412Z" fill="#E7C200"/>
</svg>
