<svg width="17" height="19" viewBox="0 0 17 19" fill="none" xmlns="http://www.w3.org/2000/svg">
<path d="M0.0432129 11.05L2.97505 9.77505L4.2505 6.84276L5.52505 9.77505L8.45778 11.05L5.52505 12.325L4.2505 15.2573L2.97505 12.325L0.0432129 11.05Z" fill="#FFA539"/>
<g style="mix-blend-mode:screen">
<path d="M5.1 10.2L4.25 6.80005L5.525 9.77505L8.5 11.05L5.1 10.2Z" fill="#FFA539"/>
</g>
<path d="M5.1 11.9L8.5 11.05L5.525 12.325L4.25 15.3L5.1 11.9Z" fill="#FFDF65"/>
<g style="mix-blend-mode:screen">
<path d="M3.4 10.2L4.25 6.80005L2.975 9.77505L0 11.05L3.4 10.2Z" fill="#FFA539"/>
</g>
<path d="M3.4 11.9L0 11.05L2.975 12.325L4.25 15.3L3.4 11.9Z" fill="#FFDF65"/>
<path d="M8.54321 13.8833L11.475 12.6083L12.7505 9.67602L14.025 12.6083L16.9578 13.8833L14.025 15.1583L12.7505 18.0906L11.475 15.1583L8.54321 13.8833Z" fill="#FFA539"/>
<g style="mix-blend-mode:screen">
<path d="M13.6 13.0333L12.75 9.6333L14.025 12.6083L17 13.8833L13.6 13.0333Z" fill="#FFA539"/>
</g>
<path d="M13.6 14.7333L17 13.8833L14.025 15.1583L12.75 18.1333L13.6 14.7333Z" fill="#FFDF65"/>
<g style="mix-blend-mode:screen">
<path d="M11.9 13.0333L12.75 9.6333L11.475 12.6083L8.5 13.8833L11.9 13.0333Z" fill="#FFA539"/>
</g>
<path d="M11.9 14.7333L8.5 13.8833L11.475 15.1583L12.75 18.1333L11.9 14.7333Z" fill="#FFDF65"/>
<path d="M4.57666 4.25L7.5085 2.975L8.78395 0.0427149L10.0585 2.975L12.9912 4.25L10.0585 5.525L8.78395 8.45729L7.5085 5.525L4.57666 4.25Z" fill="#FFA539"/>
<g style="mix-blend-mode:screen">
<path d="M9.63345 3.4L8.78345 0L10.0584 2.975L13.0334 4.25L9.63345 3.4Z" fill="#FFA539"/>
</g>
<path d="M9.63345 5.1L13.0334 4.25L10.0584 5.525L8.78345 8.5L9.63345 5.1Z" fill="#FFDF65"/>
<g style="mix-blend-mode:screen">
<path d="M7.93345 3.4L8.78345 0L7.50845 2.975L4.53345 4.25L7.93345 3.4Z" fill="#FFA539"/>
</g>
<path d="M7.93345 5.1L4.53345 4.25L7.50845 5.525L8.78345 8.5L7.93345 5.1Z" fill="#FFDF65"/>
</svg>
