<svg width="80" height="20" viewBox="0 0 80 20" fill="none" xmlns="http://www.w3.org/2000/svg">
<path d="M1.24325 7.55881C-0.414418 8.75527 -0.414417 11.2447 1.24325 12.4412L9.61932 18.4868C10.9823 19.4706 12.6204 20 14.3013 20H76.0415C78.2277 20 80 18.2091 80 16V4C80 1.79086 78.2277 0 76.0415 0H14.3013C12.6204 0 10.9823 0.529445 9.61931 1.51319L1.24325 7.55881Z" fill="#157FB3"/>
<path d="M27.2427 15H25.5132L21.0767 7.93848V15H19.3472V5.04688H21.0767L25.5269 12.1357V5.04688H27.2427V15ZM28.8149 11.2334C28.8149 10.5088 28.9585 9.8571 29.2456 9.27832C29.5327 8.69499 29.936 8.24837 30.4556 7.93848C30.9751 7.62402 31.5721 7.4668 32.2466 7.4668C33.2446 7.4668 34.0535 7.78809 34.6733 8.43066C35.2977 9.07324 35.6349 9.92546 35.6851 10.9873L35.6919 11.377C35.6919 12.1061 35.5506 12.7578 35.2681 13.332C34.9901 13.9062 34.589 14.3506 34.0649 14.665C33.5454 14.9795 32.9438 15.1367 32.2603 15.1367C31.2166 15.1367 30.3804 14.7904 29.7515 14.0977C29.1271 13.4004 28.8149 12.473 28.8149 11.3154V11.2334ZM30.4761 11.377C30.4761 12.138 30.6333 12.735 30.9478 13.168C31.2622 13.5964 31.6997 13.8105 32.2603 13.8105C32.8208 13.8105 33.256 13.5918 33.5659 13.1543C33.8804 12.7168 34.0376 12.0765 34.0376 11.2334C34.0376 10.486 33.8758 9.89355 33.5522 9.45605C33.2332 9.01855 32.798 8.7998 32.2466 8.7998C31.7043 8.7998 31.2736 9.01628 30.9546 9.44922C30.6356 9.8776 30.4761 10.5202 30.4761 11.377ZM39.1782 5.80566V7.60352H40.4839V8.83398H39.1782V12.9629C39.1782 13.2454 39.2329 13.4505 39.3423 13.5781C39.4562 13.7012 39.6567 13.7627 39.9438 13.7627C40.1353 13.7627 40.3289 13.7399 40.5249 13.6943V14.9795C40.1466 15.0843 39.7821 15.1367 39.4312 15.1367C38.1551 15.1367 37.5171 14.4326 37.5171 13.0244V8.83398H36.3003V7.60352H37.5171V5.80566H39.1782ZM51.7222 11.377C51.7222 12.5208 51.4624 13.4346 50.9429 14.1182C50.4233 14.7972 49.7261 15.1367 48.8511 15.1367C48.0399 15.1367 47.3905 14.8701 46.9028 14.3369V17.8438H45.2417V7.60352H46.7729L46.8413 8.35547C47.3289 7.76302 47.992 7.4668 48.8306 7.4668C49.7329 7.4668 50.4393 7.80404 50.9497 8.47852C51.4647 9.14844 51.7222 10.0804 51.7222 11.2744V11.377ZM50.0679 11.2334C50.0679 10.4951 49.9198 9.90951 49.6235 9.47656C49.3319 9.04362 48.9126 8.82715 48.3657 8.82715C47.6867 8.82715 47.1991 9.10742 46.9028 9.66797V12.9492C47.2036 13.5234 47.6958 13.8105 48.3794 13.8105C48.908 13.8105 49.3205 13.5986 49.6167 13.1748C49.9175 12.7464 50.0679 12.0993 50.0679 11.2334ZM57.5532 15C57.4803 14.8587 57.4165 14.6286 57.3618 14.3096C56.8332 14.861 56.186 15.1367 55.4204 15.1367C54.6776 15.1367 54.0715 14.9248 53.6021 14.501C53.1326 14.0771 52.8979 13.5531 52.8979 12.9287C52.8979 12.1403 53.1896 11.5365 53.7729 11.1172C54.3608 10.6934 55.1994 10.4814 56.2886 10.4814H57.3071V9.99609C57.3071 9.61328 57.2 9.30794 56.9858 9.08008C56.7716 8.84766 56.4458 8.73145 56.0083 8.73145C55.63 8.73145 55.3201 8.82715 55.0786 9.01855C54.8371 9.2054 54.7163 9.44466 54.7163 9.73633H53.0552C53.0552 9.33073 53.1896 8.95247 53.4585 8.60156C53.7274 8.24609 54.092 7.9681 54.5522 7.76758C55.0171 7.56706 55.5343 7.4668 56.104 7.4668C56.9699 7.4668 57.6603 7.68555 58.1753 8.12305C58.6903 8.55599 58.9546 9.16667 58.9683 9.95508V13.291C58.9683 13.9564 59.0617 14.4873 59.2485 14.8838V15H57.5532ZM55.728 13.8037C56.0562 13.8037 56.3638 13.724 56.6509 13.5645C56.9425 13.4049 57.1613 13.1908 57.3071 12.9219V11.5273H56.4116C55.7964 11.5273 55.3338 11.6344 55.0239 11.8486C54.714 12.0628 54.5591 12.3659 54.5591 12.7578C54.5591 13.0768 54.6639 13.332 54.8735 13.5234C55.0877 13.7103 55.3726 13.8037 55.728 13.8037ZM62.4751 15H60.814V7.60352H62.4751V15ZM60.7114 5.68262C60.7114 5.42741 60.7912 5.21549 60.9507 5.04688C61.1147 4.87826 61.3472 4.79395 61.6479 4.79395C61.9487 4.79395 62.1812 4.87826 62.3452 5.04688C62.5093 5.21549 62.5913 5.42741 62.5913 5.68262C62.5913 5.93327 62.5093 6.1429 62.3452 6.31152C62.1812 6.47559 61.9487 6.55762 61.6479 6.55762C61.3472 6.55762 61.1147 6.47559 60.9507 6.31152C60.7912 6.1429 60.7114 5.93327 60.7114 5.68262ZM63.979 11.2471C63.979 10.1077 64.2433 9.19401 64.772 8.50586C65.3006 7.81315 66.0093 7.4668 66.8979 7.4668C67.6818 7.4668 68.3153 7.74023 68.7983 8.28711V4.5H70.4595V15H68.9556L68.8735 14.2344C68.3768 14.8359 67.7137 15.1367 66.8843 15.1367C66.0184 15.1367 65.3166 14.7881 64.7788 14.0908C64.2456 13.3936 63.979 12.4456 63.979 11.2471ZM65.6401 11.3906C65.6401 12.1426 65.7837 12.7305 66.0708 13.1543C66.3625 13.5736 66.7749 13.7832 67.3081 13.7832C67.9871 13.7832 68.4839 13.4801 68.7983 12.874V9.71582C68.493 9.12337 68.0008 8.82715 67.3218 8.82715C66.784 8.82715 66.3693 9.04134 66.0776 9.46973C65.786 9.89355 65.6401 10.5339 65.6401 11.3906Z" fill="white"/>
<circle cx="4.33838" cy="10" r="1.5" fill="white"/>
<circle cx="4.33838" cy="10" r="2" fill="url(#paint0_radial)"/>
<defs>
<radialGradient id="paint0_radial" cx="0" cy="0" r="1" gradientUnits="userSpaceOnUse" gradientTransform="translate(4.33838 10) rotate(90) scale(2)">
<stop offset="0.604167" stop-color="white" stop-opacity="0.5"/>
<stop offset="1" stop-opacity="0.3"/>
</radialGradient>
</defs>
</svg>
