<svg width="25" height="16" viewBox="0 0 25 16" fill="none" xmlns="http://www.w3.org/2000/svg">
<path fill-rule="evenodd" clip-rule="evenodd" d="M0.00012207 6.49976C0.00012207 6.22361 0.348345 5.99976 0.7779 5.99976H13.2223C13.6519 5.99976 14.0001 6.22361 14.0001 6.49976C14.0001 6.7759 13.6519 6.99976 13.2223 6.99976H0.7779C0.348345 6.99976 0.00012207 6.7759 0.00012207 6.49976Z" fill="white"/>
<path fill-rule="evenodd" clip-rule="evenodd" d="M4.00012 9.49976C4.00012 9.22361 4.28666 8.99976 4.64012 8.99976H11.3601C11.7136 8.99976 12.0001 9.22361 12.0001 9.49976C12.0001 9.7759 11.7136 9.99976 11.3601 9.99976H4.64012C4.28666 9.99976 4.00012 9.7759 4.00012 9.49976Z" fill="white"/>
<path fill-rule="evenodd" clip-rule="evenodd" d="M4.00012 12.4998C4.00012 12.2236 4.27264 11.9998 4.60882 11.9998H10.3914C10.7276 11.9998 11.0001 12.2236 11.0001 12.4998C11.0001 12.7759 10.7276 12.9998 10.3914 12.9998H4.60882C4.27264 12.9998 4.00012 12.7759 4.00012 12.4998Z" fill="white"/>
<path fill-rule="evenodd" clip-rule="evenodd" d="M14.2445 11.5851L15.9958 10.6827L20.2349 5.58148L19.0017 4.34827L14.8538 9.33971L14.2445 11.5851ZM19.9329 3.2277L21.1661 4.46092L21.6317 3.90063C21.8889 3.5912 21.8765 3.1195 21.604 2.84707L21.3574 2.60042C21.085 2.32799 20.6556 2.35798 20.3985 2.66742L19.9329 3.2277ZM16.8249 11.8587L16.8311 11.8513L17.7561 10.7382L22.6183 4.88721C23.3897 3.9589 23.3525 2.54381 22.5352 1.7265L22.2886 1.47986C21.4713 0.662556 20.1834 0.75254 19.4119 1.68085L14.5232 7.5638L13.592 8.68437L13.6214 8.71373L12.5234 12.76C12.3567 13.3745 12.9131 13.8978 13.4429 13.6248L15.4862 12.5718L16.7913 11.8992L16.8402 11.874L16.8249 11.8587Z" fill="white"/>
</svg>
