<svg width="80" height="20" viewBox="0 0 80 20" fill="none" xmlns="http://www.w3.org/2000/svg">
<path d="M1.24325 7.55881C-0.414418 8.75527 -0.414417 11.2447 1.24325 12.4412L9.61932 18.4868C10.9823 19.4706 12.6204 20 14.3013 20H76.0415C78.2277 20 80 18.2091 80 16V4C80 1.79086 78.2277 0 76.0415 0H14.3013C12.6204 0 10.9823 0.529445 9.61931 1.51319L1.24325 7.55881Z" fill="#258D3C"/>
<path d="M33.6138 11.3018V15H31.8843V5.04688H35.6919C36.8039 5.04688 37.6857 5.33626 38.3374 5.91504C38.9937 6.49382 39.3218 7.25944 39.3218 8.21191C39.3218 9.18717 39.0005 9.94596 38.3579 10.4883C37.7199 11.0306 36.8244 11.3018 35.6714 11.3018H33.6138ZM33.6138 9.91406H35.6919C36.3071 9.91406 36.7765 9.77051 37.1001 9.4834C37.4237 9.19173 37.5854 8.77246 37.5854 8.22559C37.5854 7.68783 37.4214 7.25944 37.0933 6.94043C36.7651 6.61686 36.314 6.45052 35.7397 6.44141H33.6138V9.91406ZM45.0161 15C44.9432 14.8587 44.8794 14.6286 44.8247 14.3096C44.2961 14.861 43.6489 15.1367 42.8833 15.1367C42.1405 15.1367 41.5343 14.9248 41.0649 14.501C40.5955 14.0771 40.3608 13.5531 40.3608 12.9287C40.3608 12.1403 40.6525 11.5365 41.2358 11.1172C41.8237 10.6934 42.6623 10.4814 43.7515 10.4814H44.77V9.99609C44.77 9.61328 44.6629 9.30794 44.4487 9.08008C44.2345 8.84766 43.9087 8.73145 43.4712 8.73145C43.0929 8.73145 42.783 8.82715 42.5415 9.01855C42.3 9.2054 42.1792 9.44466 42.1792 9.73633H40.5181C40.5181 9.33073 40.6525 8.95247 40.9214 8.60156C41.1903 8.24609 41.5549 7.9681 42.0151 7.76758C42.48 7.56706 42.9972 7.4668 43.5669 7.4668C44.4328 7.4668 45.1232 7.68555 45.6382 8.12305C46.1532 8.55599 46.4175 9.16667 46.4312 9.95508V13.291C46.4312 13.9564 46.5246 14.4873 46.7114 14.8838V15H45.0161ZM43.1909 13.8037C43.519 13.8037 43.8267 13.724 44.1138 13.5645C44.4054 13.4049 44.6242 13.1908 44.77 12.9219V11.5273H43.8745C43.2593 11.5273 42.7967 11.6344 42.4868 11.8486C42.1769 12.0628 42.022 12.3659 42.022 12.7578C42.022 13.0768 42.1268 13.332 42.3364 13.5234C42.5506 13.7103 42.8354 13.8037 43.1909 13.8037ZM49.938 15H48.2769V7.60352H49.938V15ZM48.1743 5.68262C48.1743 5.42741 48.2541 5.21549 48.4136 5.04688C48.5776 4.87826 48.8101 4.79395 49.1108 4.79395C49.4116 4.79395 49.644 4.87826 49.8081 5.04688C49.9722 5.21549 50.0542 5.42741 50.0542 5.68262C50.0542 5.93327 49.9722 6.1429 49.8081 6.31152C49.644 6.47559 49.4116 6.55762 49.1108 6.55762C48.8101 6.55762 48.5776 6.47559 48.4136 6.31152C48.2541 6.1429 48.1743 5.93327 48.1743 5.68262ZM51.4419 11.2471C51.4419 10.1077 51.7062 9.19401 52.2349 8.50586C52.7635 7.81315 53.4722 7.4668 54.3608 7.4668C55.1447 7.4668 55.7782 7.74023 56.2612 8.28711V4.5H57.9224V15H56.4185L56.3364 14.2344C55.8397 14.8359 55.1766 15.1367 54.3472 15.1367C53.4813 15.1367 52.7795 14.7881 52.2417 14.0908C51.7085 13.3936 51.4419 12.4456 51.4419 11.2471ZM53.103 11.3906C53.103 12.1426 53.2466 12.7305 53.5337 13.1543C53.8254 13.5736 54.2378 13.7832 54.771 13.7832C55.45 13.7832 55.9468 13.4801 56.2612 12.874V9.71582C55.9559 9.12337 55.4637 8.82715 54.7847 8.82715C54.2469 8.82715 53.8322 9.04134 53.5405 9.46973C53.2489 9.89355 53.103 10.5339 53.103 11.3906Z" fill="white"/>
<circle cx="4.33838" cy="10" r="1.5" fill="white"/>
<circle cx="4.33838" cy="10" r="2" fill="url(#paint0_radial)"/>
<defs>
<radialGradient id="paint0_radial" cx="0" cy="0" r="1" gradientUnits="userSpaceOnUse" gradientTransform="translate(4.33838 10) rotate(90) scale(2)">
<stop offset="0.604167" stop-color="white" stop-opacity="0.5"/>
<stop offset="1" stop-opacity="0.3"/>
</radialGradient>
</defs>
</svg>
