<svg width="14" height="17" viewBox="0 0 14 17" fill="none" xmlns="http://www.w3.org/2000/svg">
<rect x="0.974748" y="5.38216" width="12.0505" height="10.6431" rx="0.974748" stroke="black" stroke-width="1.9495"/>
<mask id="path-2-inside-1" fill="white">
<path d="M13.3636 6.2963C13.3636 4.62641 12.6932 3.02493 11.4998 1.84414C10.3063 0.663358 8.68773 1.26073e-07 6.99999 0C5.31225 -1.26073e-07 3.69363 0.663358 2.50022 1.84414C1.30681 3.02493 0.636353 4.62641 0.636353 6.2963L6.99999 6.2963H13.3636Z"/>
</mask>
<path d="M13.3636 6.2963C13.3636 4.62641 12.6932 3.02493 11.4998 1.84414C10.3063 0.663358 8.68773 1.26073e-07 6.99999 0C5.31225 -1.26073e-07 3.69363 0.663358 2.50022 1.84414C1.30681 3.02493 0.636353 4.62641 0.636353 6.2963L6.99999 6.2963H13.3636Z" stroke="black" stroke-width="3.89899" mask="url(#path-2-inside-1)"/>
<path fill-rule="evenodd" clip-rule="evenodd" d="M7.6367 10.5351C8.01706 10.3174 8.27295 9.91044 8.27295 9.44438C8.27295 8.74891 7.70313 8.18512 7.00022 8.18512C6.29731 8.18512 5.7275 8.74891 5.7275 9.44438C5.7275 9.91043 5.98338 10.3173 6.36372 10.5351L4.79578 13.2221H9.20463L7.6367 10.5351Z" fill="black"/>
</svg>
