<svg width="12" height="14" viewBox="0 0 12 14" fill="none" xmlns="http://www.w3.org/2000/svg">
<path d="M11 7.96V1.84L6.51429 1.84L5.48571 1L1 1.00001V7.12001L5.48571 7.12L6.51429 7.96H11Z" fill="#EC3131"/>
<path d="M11 1.84H11.5V1.34H11V1.84ZM11 7.96V8.46H11.5V7.96H11ZM0.5 13C0.5 13.2762 0.723858 13.5 1 13.5C1.27614 13.5 1.5 13.2762 1.5 13H0.5ZM1 1.00001L0.999999 0.500009L0.5 0.50001V1.00001H1ZM5.48571 7.12L5.80198 6.73273L5.66394 6.62L5.48571 6.62L5.48571 7.12ZM5.48571 1L5.80198 0.612734L5.66394 0.5L5.48571 0.5L5.48571 1ZM6.51429 1.84L6.19802 2.22727L6.33606 2.34L6.51429 2.34V1.84ZM6.51429 7.96L6.19802 8.34727L6.33606 8.46H6.51429V7.96ZM10.5 1.84V7.96H11.5V1.84H10.5ZM1.5 13V7.12001H0.5V13H1.5ZM1.5 7.12001V1.00001H0.5V7.12001H1.5ZM5.48571 6.62L0.999999 6.62001L1 7.62001L5.48572 7.62L5.48571 6.62ZM1 1.50001L5.48572 1.5L5.48571 0.5L0.999999 0.500009L1 1.50001ZM5.16945 1.38727L6.19802 2.22727L6.83055 1.45273L5.80198 0.612734L5.16945 1.38727ZM6.51429 2.34H11V1.34L6.51429 1.34V2.34ZM11 7.46H6.51429V8.46H11V7.46ZM6.83055 7.57273L5.80198 6.73273L5.16945 7.50727L6.19802 8.34727L6.83055 7.57273Z" fill="#EC3131"/>
</svg>
