<svg width="229" height="364" viewBox="0 0 229 364" fill="none" xmlns="http://www.w3.org/2000/svg">
<path style="mix-blend-mode:multiply" d="M193.938 363.539C213.097 363.539 228.628 299.298 228.628 220.052C228.628 140.806 213.097 76.564 193.938 76.564C174.779 76.564 159.247 140.806 159.247 220.052C159.247 299.298 174.779 363.539 193.938 363.539Z" fill="url(#paint0_radial)"/>
<path d="M197.444 308.028V81.6535C197.43 76.8392 195.513 72.2259 192.112 68.8214C188.71 65.417 184.1 63.4981 179.289 63.4839H19.1644C14.3517 63.4955 9.73938 65.4133 6.33561 68.818C2.93184 72.2227 1.01352 76.8375 1 81.6535V308.028C1 312.176 2.82863 347.634 2.82863 347.634L23.2191 331.531L31.6479 346.138L40.2863 331.167L48.7151 345.775L57.3536 330.804L65.7799 345.411L74.4184 330.44L82.8472 345.048L91.4856 330.077L99.9144 344.687L108.553 329.713L116.979 344.323L125.618 329.35L134.046 343.959L142.685 328.986L151.114 343.596L159.75 328.623L168.178 343.232L176.817 328.259L197.456 343.63L197.444 308.028Z" fill="white" stroke="black" stroke-miterlimit="10"/>
<path d="M28.1541 167.514H99.1367C102.414 167.514 105.72 167.758 109.002 167.514C109.048 167.512 109.094 167.512 109.141 167.514C110.769 167.514 110.774 163.152 109.141 163.152H38.1579C34.8834 163.152 31.5748 162.908 28.2955 163.152C28.2484 163.154 28.2012 163.154 28.1541 163.152C26.5254 163.152 26.5229 167.514 28.1541 167.514Z" fill="#B3B3B3"/>
<path d="M28.6734 150.799H81.338C84.1419 150.799 84.1443 146.439 81.338 146.439H28.6734C25.8695 146.439 25.8646 150.799 28.6734 150.799Z" fill="#B3B3B3"/>
<path d="M150.904 150.799H183.788C185.538 150.799 185.541 146.439 183.788 146.439H150.904C149.153 146.439 149.151 150.799 150.904 150.799Z" fill="#B3B3B3"/>
<path d="M150.904 167.514H183.788C185.538 167.514 185.541 163.152 183.788 163.152H150.904C149.153 163.152 149.151 167.514 150.904 167.514Z" fill="#B3B3B3"/>
<path d="M150.904 202.76H183.788C185.538 202.76 185.541 198.4 183.788 198.4H150.904C149.153 198.4 149.151 202.76 150.904 202.76Z" fill="#B3B3B3"/>
<path d="M150.904 217.658H183.788C185.538 217.658 185.541 213.298 183.788 213.298H150.904C149.153 213.298 149.151 217.658 150.904 217.658Z" fill="#B3B3B3"/>
<path d="M150.904 233.283H183.788C185.538 233.283 185.541 228.92 183.788 228.92H150.904C149.153 228.92 149.151 233.283 150.904 233.283Z" fill="#B3B3B3"/>
<path d="M28.6734 202.577H131.435C134.239 202.577 134.244 198.217 131.435 198.217H28.6734C25.8695 198.217 25.8646 202.577 28.6734 202.577Z" fill="#B3B3B3"/>
<path d="M29.0366 217.658H116.911C119.715 217.658 119.717 213.298 116.911 213.298H29.0366C26.2327 213.298 26.2279 217.658 29.0366 217.658Z" fill="#B3B3B3"/>
<path d="M29.0366 233.283H116.911C119.715 233.283 119.717 228.92 116.911 228.92H29.0366C26.2327 228.92 26.2279 233.283 29.0366 233.283Z" fill="#B3B3B3"/>
<path style="mix-blend-mode:multiply" d="M157.423 137.948C179.669 106.249 172.045 62.5201 140.393 40.2762C108.741 18.0322 65.0483 25.6969 42.8018 57.3957C20.5553 89.0945 28.1798 132.824 59.8315 155.068C91.4832 177.312 135.176 169.647 157.423 137.948Z" fill="url(#paint1_radial)"/>
<path d="M100.782 144.577C133.072 144.577 159.247 118.384 159.247 86.0721C159.247 53.7606 133.072 27.5669 100.782 27.5669C68.4931 27.5669 42.3174 53.7606 42.3174 86.0721C42.3174 118.384 68.4931 144.577 100.782 144.577Z" fill="#15BD3A" stroke="black" stroke-miterlimit="10"/>
<path d="M127.5 59.963L93.324 94.0282L75.952 75.0608C69.3689 67.8705 58.697 78.5888 65.263 85.7571L87.7381 110.292C90.5006 113.31 95.6281 113.081 98.4271 110.292L138.189 70.6593C145.091 63.7813 134.402 53.0826 127.5 59.963Z" fill="white" stroke="black" stroke-miterlimit="10"/>
<path d="M162.205 293.389L162.224 289.258C159.316 289.114 156.497 288.319 154.851 287.353L156.18 282.275C158.383 283.509 160.856 284.18 163.38 284.227C165.855 284.242 167.554 283.293 167.562 281.543C167.562 279.891 166.186 278.84 162.978 277.737C158.345 276.151 155.176 273.96 155.2 269.747C155.219 265.921 157.926 262.937 162.578 262.046L162.6 257.918L166.854 257.94L166.837 261.763C169.746 261.91 171.697 262.527 173.128 263.227L171.843 268.131C170.717 267.643 168.722 266.638 165.596 266.624C162.773 266.609 161.856 267.822 161.849 269.039C161.849 270.471 163.358 271.393 167.042 272.801C172.201 274.653 174.274 277.054 174.254 280.965C174.235 284.832 171.482 288.121 166.484 288.965L166.459 293.398L162.205 293.389Z" fill="#15BD3A" stroke="black" stroke-miterlimit="10"/>
<path d="M119.088 261.261H41.3811C33.3596 261.261 26.8569 267.768 26.8569 275.795V277.249C26.8569 285.276 33.3596 291.783 41.3811 291.783H119.088C127.11 291.783 133.612 285.276 133.612 277.249V275.795C133.612 267.768 127.11 261.261 119.088 261.261Z" fill="#E6E6E6" stroke="black" stroke-miterlimit="10"/>
<defs>
<radialGradient id="paint0_radial" cx="0" cy="0" r="1" gradientUnits="userSpaceOnUse" gradientTransform="translate(193.132 218.593) scale(34.791 143.523)">
<stop stop-color="#B3B3B3"/>
<stop offset="1" stop-color="white"/>
</radialGradient>
<radialGradient id="paint1_radial" cx="0" cy="0" r="1" gradientUnits="userSpaceOnUse" gradientTransform="translate(96.956 100.508) rotate(35.0985) scale(70.043 70.0593)">
<stop stop-color="#808080"/>
<stop offset="1" stop-color="white"/>
</radialGradient>
</defs>
</svg>
