<svg width="16" height="16" viewBox="0 0 16 16" fill="none" xmlns="http://www.w3.org/2000/svg">
<circle cx="8" cy="8" r="8" fill="#818181"/>
<path d="M6.61155 9.79861C6.61155 9.12269 6.68793 8.59028 6.84071 8.20139C6.99349 7.80787 7.24117 7.46759 7.58377 7.18056C7.92636 6.89352 8.18562 6.63194 8.36155 6.39583C8.5421 6.15509 8.63238 5.8912 8.63238 5.60417C8.63238 4.90509 8.33145 4.55556 7.7296 4.55556C7.45182 4.55556 7.22729 4.65741 7.05599 4.86111C6.88469 5.06481 6.79442 5.34028 6.78516 5.6875H4.43793C4.44719 4.76157 4.73886 4.04167 5.31293 3.52778C5.88701 3.00926 6.69256 2.75 7.7296 2.75C8.76201 2.75 9.56062 2.98843 10.1254 3.46528C10.6949 3.94213 10.9796 4.62037 10.9796 5.5C10.9796 5.88426 10.9032 6.2338 10.7504 6.54861C10.5977 6.86343 10.3523 7.18519 10.0143 7.51389L9.21571 8.25694C8.98886 8.47454 8.83145 8.69907 8.74349 8.93056C8.65553 9.15741 8.60692 9.44676 8.59766 9.79861H6.61155ZM6.32682 11.9097C6.32682 11.5671 6.44951 11.287 6.69488 11.0694C6.94488 10.8472 7.25506 10.7361 7.62543 10.7361C7.9958 10.7361 8.30367 10.8472 8.54905 11.0694C8.79905 11.287 8.92405 11.5671 8.92405 11.9097C8.92405 12.2523 8.79905 12.5347 8.54905 12.7569C8.30367 12.9745 7.9958 13.0833 7.62543 13.0833C7.25506 13.0833 6.94488 12.9745 6.69488 12.7569C6.44951 12.5347 6.32682 12.2523 6.32682 11.9097Z" fill="white"/>
</svg>
