<svg width="36" height="41" viewBox="0 0 36 41" fill="none" xmlns="http://www.w3.org/2000/svg">
<g filter="url(#filter0_d)">
<path d="M31.8093 33.0936L27.2731 33.0305L25.0595 37L18.9172 26.3357L25.667 22.4293L31.8093 33.0936Z" fill="#273CB3"/>
<path d="M4 33.0936L8.54038 33.0282L10.7539 36.993L16.9072 26.335L10.1534 22.4357L4 33.0936Z" fill="#CD5000"/>
<path d="M17.2133 4L18.6287 5.24997L20.3014 4.37587L21.3773 5.92906L23.2101 5.48162L23.8838 7.24778L25.7702 7.25301L26.0028 9.12947L27.833 9.58707L27.6108 11.4648L29.2787 12.3482L28.6147 14.118L30.0232 15.3758L28.9559 16.935L30.0232 18.4941L28.6147 19.7519L29.2787 21.5218L27.6108 22.4052L27.833 24.2829L26.0028 24.7405L25.7702 26.6169L23.8838 26.6222L23.2101 28.3883L21.3773 27.9409L20.3014 29.4941L18.6287 28.62L17.2133 29.87L15.7979 28.62L14.1252 29.4941L13.0493 27.9409L11.2165 28.3883L10.5427 26.6222L8.65638 26.6169L8.42382 24.7405L6.59354 24.2829L6.81573 22.4052L5.14787 21.5218L5.8119 19.7519L4.40341 18.4941L5.47068 16.935L4.40341 15.3758L5.8119 14.118L5.14787 12.3482L6.81573 11.4648L6.59354 9.58707L8.42382 9.12947L8.65638 7.25301L10.5427 7.24778L11.2165 5.48162L13.0493 5.92906L14.1252 4.37587L15.7979 5.24997L17.2133 4Z" fill="url(#paint0_linear)"/>
<path fill-rule="evenodd" clip-rule="evenodd" d="M17.2569 25.4721C21.9605 25.4721 25.7735 21.6499 25.7735 16.935C25.7735 12.2201 21.9605 8.39793 17.2569 8.39793C12.5533 8.39793 8.74032 12.2201 8.74032 16.935C8.74032 21.6499 12.5533 25.4721 17.2569 25.4721ZM17.2569 26.5069C22.5307 26.5069 26.8059 22.2214 26.8059 16.935C26.8059 11.6486 22.5307 7.36313 17.2569 7.36313C11.9832 7.36313 7.70801 11.6486 7.70801 16.935C7.70801 22.2214 11.9832 26.5069 17.2569 26.5069Z" fill="#FFFAF3"/>
<path d="M14.7529 23.2809V22.9438C15.0106 22.9438 15.238 22.8464 15.435 22.6517C15.6321 22.4569 15.7306 22.2322 15.7306 21.9775V15.2359C15.7306 14.4419 15.4047 13.955 14.7529 13.7753C15.526 13.4157 16.2384 12.9737 16.8902 12.4494C17.5572 11.9251 18.1332 11.3333 18.6182 10.6741V21.9775C18.6182 22.2322 18.7092 22.4569 18.8911 22.6517C19.0881 22.8464 19.3155 22.9438 19.5732 22.9438V23.2809H14.7529Z" fill="#FFFAF3"/>
</g>
<defs>
<filter id="filter0_d" x="0.644068" y="0.644068" width="34.5212" height="39.7119" filterUnits="userSpaceOnUse" color-interpolation-filters="sRGB">
<feFlood flood-opacity="0" result="BackgroundImageFix"/>
<feColorMatrix in="SourceAlpha" type="matrix" values="0 0 0 0 0 0 0 0 0 0 0 0 0 0 0 0 0 0 127 0"/>
<feOffset/>
<feGaussianBlur stdDeviation="1.67797"/>
<feColorMatrix type="matrix" values="0 0 0 0 0 0 0 0 0 0 0 0 0 0 0 0 0 0 0.25 0"/>
<feBlend mode="normal" in2="BackgroundImageFix" result="effect1_dropShadow"/>
<feBlend mode="normal" in="SourceGraphic" in2="effect1_dropShadow" result="shape"/>
</filter>
<linearGradient id="paint0_linear" x1="6.23718" y1="7.91525" x2="22.4575" y2="25.5339" gradientUnits="userSpaceOnUse">
<stop offset="0.0364583" stop-color="#C97104"/>
<stop offset="0.177083" stop-color="#D9C589"/>
<stop offset="0.333333" stop-color="#BF7E04"/>
<stop offset="0.802901" stop-color="#D99E30"/>
<stop offset="0.95397" stop-color="#BF6B04"/>
</linearGradient>
</defs>
</svg>
