<svg width="26" height="24" viewBox="0 0 26 24" fill="none" xmlns="http://www.w3.org/2000/svg">
<path d="M13.9894 1.18118C13.5372 0.728998 12.8041 0.728998 12.3519 1.18118L4.9831 8.54998C4.53092 9.00217 4.53092 9.73531 4.9831 10.1875C5.43529 10.6397 6.16843 10.6397 6.62061 10.1875L13.1707 3.63745L19.7207 10.1875C20.1729 10.6397 20.906 10.6397 21.3582 10.1875C21.8104 9.73531 21.8104 9.00217 21.3582 8.54998L13.9894 1.18118ZM12.0128 17.0526C12.0128 17.6921 12.5312 18.2105 13.1707 18.2105C13.8101 18.2105 14.3285 17.6921 14.3285 17.0526H12.0128ZM12.0128 1.99994V17.0526H14.3285V1.99994H12.0128Z" fill="#818181"/>
<path d="M3.15789 17.0526C3.15789 16.4131 2.63949 15.8947 2 15.8947C1.36051 15.8947 0.842105 16.4131 0.842105 17.0526H3.15789ZM25.1579 17.0526C25.1579 16.4131 24.6395 15.8947 24 15.8947C23.3605 15.8947 22.8421 16.4131 22.8421 17.0526H25.1579ZM21.6842 21.6841H4.31579V23.9999H21.6842V21.6841ZM3.15789 20.5263V17.0526H0.842105V20.5263H3.15789ZM22.8421 17.0526V20.5263H25.1579V17.0526H22.8421ZM4.31579 21.6841C3.6763 21.6841 3.15789 21.1657 3.15789 20.5263H0.842105C0.842105 22.4447 2.39733 23.9999 4.31579 23.9999V21.6841ZM21.6842 23.9999C23.6027 23.9999 25.1579 22.4447 25.1579 20.5263H22.8421C22.8421 21.1657 22.3237 21.6841 21.6842 21.6841V23.9999Z" fill="#818181"/>
</svg>
