<svg width="54" height="38" viewBox="0 0 54 38" fill="none" xmlns="http://www.w3.org/2000/svg">
<rect width="53.8333" height="38" rx="6.33333" fill="#1F72CD"/>
<path fill-rule="evenodd" clip-rule="evenodd" d="M9.65077 13.4585L4.61401 24.9325H10.6437L11.3912 23.1031H13.0999L13.8474 24.9325H20.4844V23.5362L21.0758 24.9325H24.509L25.1004 23.5067V24.9325H38.9036L40.582 23.1506L42.1535 24.9325L49.2431 24.9473L44.1905 19.2275L49.2431 13.4585H42.2635L40.6297 15.2075L39.1076 13.4585H24.0915L22.8021 16.42L21.4824 13.4585H15.4653V14.8073L14.7959 13.4585H9.65077ZM10.8177 15.0879H13.7569L17.0977 22.8685V15.0879H20.3175L22.8979 20.6666L25.2761 15.0879H28.4797V23.3213H26.5304L26.5145 16.8697L23.6725 23.3213H21.9287L19.0709 16.8697V23.3213H15.0606L14.3003 21.4755H10.1929L9.43421 23.3196H7.28556L10.8177 15.0879ZM38.1889 15.0879H30.2625V23.3164H38.0662L40.5814 20.5894L43.0057 23.3164H45.54L41.8565 19.226L45.54 15.0879H43.1157L40.6132 17.7837L38.1889 15.0879ZM12.2477 16.4811L10.8944 19.7692H13.5994L12.2477 16.4811ZM32.22 18.2955V16.7925V16.7911H37.1658L39.3239 19.1948L37.0702 21.6116H32.22V19.9707H36.5442V18.2955H32.22Z" fill="white"/>
</svg>
