<svg width="15" height="15" viewBox="0 0 15 15" fill="none" xmlns="http://www.w3.org/2000/svg">
<path d="M6.4043 1.06641C6.07227 1.39844 6.10547 1.89648 6.4043 2.22851L10.4219 6.04687L0.859376 6.04687C0.427735 6.04687 0.0625009 6.3789 0.0625009 6.84375L0.0625008 7.90625C0.0625008 8.33789 0.427735 8.70312 0.859376 8.70312L10.4219 8.70312L6.4043 12.4883C6.10547 12.8203 6.07227 13.3184 6.4043 13.6504L7.13477 14.3809C7.43359 14.6797 7.96484 14.6797 8.26367 14.3809L14.7051 7.90625C15.0371 7.60742 15.0371 7.10938 14.7051 6.81055L8.26367 0.335937C7.96485 0.0371088 7.4668 0.0371087 7.13477 0.335937L6.4043 1.06641Z" fill="white"/>
</svg>
