<svg width="93" height="15" viewBox="0 0 93 15" fill="none" xmlns="http://www.w3.org/2000/svg">
<path d="M0 2C0 0.89543 0.895431 0 2 0H90.9194C91.7579 0 92.2241 0.969932 91.7002 1.6247L87 7.5L91.7002 13.3753C92.2241 14.0301 91.7579 15 90.9194 15H2C0.895429 15 0 14.1046 0 13V2Z" fill="url(#paint0_linear)"/>
<path d="M12.8672 12V3.46875H15.791C16.7559 3.46875 17.4902 3.66211 17.9941 4.04883C18.498 4.43555 18.75 5.01172 18.75 5.77734C18.75 6.16797 18.6445 6.51953 18.4336 6.83203C18.2227 7.14453 17.9141 7.38672 17.5078 7.55859C17.9688 7.68359 18.3242 7.91992 18.5742 8.26758C18.8281 8.61133 18.9551 9.02539 18.9551 9.50977C18.9551 10.3105 18.6973 10.9258 18.1816 11.3555C17.6699 11.7852 16.9355 12 15.9785 12H12.8672ZM14.3496 8.15039V10.8164H15.9961C16.4609 10.8164 16.8242 10.7012 17.0859 10.4707C17.3477 10.2402 17.4785 9.91992 17.4785 9.50977C17.4785 8.62305 17.0254 8.16992 16.1191 8.15039H14.3496ZM14.3496 7.06055H15.8027C16.2637 7.06055 16.623 6.95703 16.8809 6.75C17.1426 6.53906 17.2734 6.24219 17.2734 5.85938C17.2734 5.4375 17.1523 5.13281 16.9102 4.94531C16.6719 4.75781 16.2988 4.66406 15.791 4.66406H14.3496V7.06055ZM23.0918 12.1172C22.1895 12.1172 21.457 11.834 20.8945 11.2676C20.3359 10.6973 20.0566 9.93945 20.0566 8.99414V8.81836C20.0566 8.18555 20.1777 7.62109 20.4199 7.125C20.666 6.625 21.0098 6.23633 21.4512 5.95898C21.8926 5.68164 22.3848 5.54297 22.9277 5.54297C23.791 5.54297 24.457 5.81836 24.9258 6.36914C25.3984 6.91992 25.6348 7.69922 25.6348 8.70703V9.28125H21.4922C21.5352 9.80469 21.709 10.2188 22.0137 10.5234C22.3223 10.8281 22.709 10.9805 23.1738 10.9805C23.8262 10.9805 24.3574 10.7168 24.7676 10.1895L25.5352 10.9219C25.2812 11.3008 24.9414 11.5957 24.5156 11.8066C24.0938 12.0137 23.6191 12.1172 23.0918 12.1172ZM22.9219 6.68555C22.5312 6.68555 22.2148 6.82227 21.9727 7.0957C21.7344 7.36914 21.582 7.75 21.5156 8.23828H24.2285V8.13281C24.1973 7.65625 24.0703 7.29688 23.8477 7.05469C23.625 6.80859 23.3164 6.68555 22.9219 6.68555ZM30.2988 10.2773C30.2988 10.0234 30.1934 9.83008 29.9824 9.69727C29.7754 9.56445 29.4297 9.44727 28.9453 9.3457C28.4609 9.24414 28.0566 9.11523 27.7324 8.95898C27.0215 8.61523 26.666 8.11719 26.666 7.46484C26.666 6.91797 26.8965 6.46094 27.3574 6.09375C27.8184 5.72656 28.4043 5.54297 29.1152 5.54297C29.873 5.54297 30.4844 5.73047 30.9492 6.10547C31.418 6.48047 31.6523 6.9668 31.6523 7.56445H30.2285C30.2285 7.29102 30.127 7.06445 29.9238 6.88477C29.7207 6.70117 29.4512 6.60938 29.1152 6.60938C28.8027 6.60938 28.5469 6.68164 28.3477 6.82617C28.1523 6.9707 28.0547 7.16406 28.0547 7.40625C28.0547 7.625 28.1465 7.79492 28.3301 7.91602C28.5137 8.03711 28.8848 8.16016 29.4434 8.28516C30.002 8.40625 30.4395 8.55273 30.7559 8.72461C31.0762 8.89258 31.3125 9.0957 31.4648 9.33398C31.6211 9.57227 31.6992 9.86133 31.6992 10.2012C31.6992 10.7715 31.4629 11.2344 30.9902 11.5898C30.5176 11.9414 29.8984 12.1172 29.1328 12.1172C28.6133 12.1172 28.1504 12.0234 27.7441 11.8359C27.3379 11.6484 27.0215 11.3906 26.7949 11.0625C26.5684 10.7344 26.4551 10.3809 26.4551 10.002H27.8379C27.8574 10.3379 27.9844 10.5977 28.2188 10.7812C28.4531 10.9609 28.7637 11.0508 29.1504 11.0508C29.5254 11.0508 29.8105 10.9805 30.0059 10.8398C30.2012 10.6953 30.2988 10.5078 30.2988 10.2773ZM34.7285 4.11914V5.66016H35.8477V6.71484H34.7285V10.2539C34.7285 10.4961 34.7754 10.6719 34.8691 10.7812C34.9668 10.8867 35.1387 10.9395 35.3848 10.9395C35.5488 10.9395 35.7148 10.9199 35.8828 10.8809V11.9824C35.5586 12.0723 35.2461 12.1172 34.9453 12.1172C33.8516 12.1172 33.3047 11.5137 33.3047 10.3066V6.71484H32.2617V5.66016H33.3047V4.11914H34.7285ZM42.5332 10.9805C42.8887 10.9805 43.1836 10.877 43.418 10.6699C43.6523 10.4629 43.7773 10.207 43.793 9.90234H45.1348C45.1191 10.2969 44.9961 10.666 44.7656 11.0098C44.5352 11.3496 44.2227 11.6191 43.8281 11.8184C43.4336 12.0176 43.0078 12.1172 42.5508 12.1172C41.6641 12.1172 40.9609 11.8301 40.4414 11.2559C39.9219 10.6816 39.6621 9.88867 39.6621 8.87695V8.73047C39.6621 7.76562 39.9199 6.99414 40.4355 6.41602C40.9512 5.83398 41.6543 5.54297 42.5449 5.54297C43.2988 5.54297 43.9121 5.76367 44.3848 6.20508C44.8613 6.64258 45.1113 7.21875 45.1348 7.93359H43.793C43.7773 7.57031 43.6523 7.27148 43.418 7.03711C43.1875 6.80273 42.8926 6.68555 42.5332 6.68555C42.0723 6.68555 41.7168 6.85352 41.4668 7.18945C41.2168 7.52148 41.0898 8.02734 41.0859 8.70703V8.93555C41.0859 9.62305 41.209 10.1367 41.4551 10.4766C41.7051 10.8125 42.0645 10.9805 42.5332 10.9805ZM47.6133 6.35156C48.0781 5.8125 48.666 5.54297 49.377 5.54297C50.7285 5.54297 51.4141 6.31445 51.4336 7.85742V12H50.0098V7.91016C50.0098 7.47266 49.9141 7.16406 49.7227 6.98438C49.5352 6.80078 49.2578 6.70898 48.8906 6.70898C48.3203 6.70898 47.8945 6.96289 47.6133 7.4707V12H46.1895V3H47.6133V6.35156ZM52.6113 8.77148C52.6113 8.15039 52.7344 7.5918 52.9805 7.0957C53.2266 6.5957 53.5723 6.21289 54.0176 5.94727C54.4629 5.67773 54.9746 5.54297 55.5527 5.54297C56.4082 5.54297 57.1016 5.81836 57.6328 6.36914C58.168 6.91992 58.457 7.65039 58.5 8.56055L58.5059 8.89453C58.5059 9.51953 58.3848 10.0781 58.1426 10.5703C57.9043 11.0625 57.5605 11.4434 57.1113 11.7129C56.666 11.9824 56.1504 12.1172 55.5645 12.1172C54.6699 12.1172 53.9531 11.8203 53.4141 11.2266C52.8789 10.6289 52.6113 9.83398 52.6113 8.8418V8.77148ZM54.0352 8.89453C54.0352 9.54688 54.1699 10.0586 54.4395 10.4297C54.709 10.7969 55.084 10.9805 55.5645 10.9805C56.0449 10.9805 56.418 10.793 56.6836 10.418C56.9531 10.043 57.0879 9.49414 57.0879 8.77148C57.0879 8.13086 56.9492 7.62305 56.6719 7.24805C56.3984 6.87305 56.0254 6.68555 55.5527 6.68555C55.0879 6.68555 54.7188 6.87109 54.4453 7.24219C54.1719 7.60938 54.0352 8.16016 54.0352 8.89453ZM61.2246 12H59.8008V5.66016H61.2246V12ZM59.7129 4.01367C59.7129 3.79492 59.7812 3.61328 59.918 3.46875C60.0586 3.32422 60.2578 3.25195 60.5156 3.25195C60.7734 3.25195 60.9727 3.32422 61.1133 3.46875C61.2539 3.61328 61.3242 3.79492 61.3242 4.01367C61.3242 4.22852 61.2539 4.4082 61.1133 4.55273C60.9727 4.69336 60.7734 4.76367 60.5156 4.76367C60.2578 4.76367 60.0586 4.69336 59.918 4.55273C59.7812 4.4082 59.7129 4.22852 59.7129 4.01367ZM65.3848 10.9805C65.7402 10.9805 66.0352 10.877 66.2695 10.6699C66.5039 10.4629 66.6289 10.207 66.6445 9.90234H67.9863C67.9707 10.2969 67.8477 10.666 67.6172 11.0098C67.3867 11.3496 67.0742 11.6191 66.6797 11.8184C66.2852 12.0176 65.8594 12.1172 65.4023 12.1172C64.5156 12.1172 63.8125 11.8301 63.293 11.2559C62.7734 10.6816 62.5137 9.88867 62.5137 8.87695V8.73047C62.5137 7.76562 62.7715 6.99414 63.2871 6.41602C63.8027 5.83398 64.5059 5.54297 65.3965 5.54297C66.1504 5.54297 66.7637 5.76367 67.2363 6.20508C67.7129 6.64258 67.9629 7.21875 67.9863 7.93359H66.6445C66.6289 7.57031 66.5039 7.27148 66.2695 7.03711C66.0391 6.80273 65.7441 6.68555 65.3848 6.68555C64.9238 6.68555 64.5684 6.85352 64.3184 7.18945C64.0684 7.52148 63.9414 8.02734 63.9375 8.70703V8.93555C63.9375 9.62305 64.0605 10.1367 64.3066 10.4766C64.5566 10.8125 64.916 10.9805 65.3848 10.9805ZM71.8535 12.1172C70.9512 12.1172 70.2188 11.834 69.6562 11.2676C69.0977 10.6973 68.8184 9.93945 68.8184 8.99414V8.81836C68.8184 8.18555 68.9395 7.62109 69.1816 7.125C69.4277 6.625 69.7715 6.23633 70.2129 5.95898C70.6543 5.68164 71.1465 5.54297 71.6895 5.54297C72.5527 5.54297 73.2188 5.81836 73.6875 6.36914C74.1602 6.91992 74.3965 7.69922 74.3965 8.70703V9.28125H70.2539C70.2969 9.80469 70.4707 10.2188 70.7754 10.5234C71.084 10.8281 71.4707 10.9805 71.9355 10.9805C72.5879 10.9805 73.1191 10.7168 73.5293 10.1895L74.2969 10.9219C74.043 11.3008 73.7031 11.5957 73.2773 11.8066C72.8555 12.0137 72.3809 12.1172 71.8535 12.1172ZM71.6836 6.68555C71.293 6.68555 70.9766 6.82227 70.7344 7.0957C70.4961 7.36914 70.3438 7.75 70.2773 8.23828H72.9902V8.13281C72.959 7.65625 72.832 7.29688 72.6094 7.05469C72.3867 6.80859 72.0781 6.68555 71.6836 6.68555Z" fill="white"/>
<defs>
<linearGradient id="paint0_linear" x1="-5.29601e-08" y1="7.49999" x2="93" y2="7.50001" gradientUnits="userSpaceOnUse">
<stop stop-color="#453993"/>
<stop offset="0.502926" stop-color="#7D44F7"/>
<stop offset="1" stop-color="#CD0062"/>
</linearGradient>
</defs>
</svg>
