<svg width="40" height="40" viewBox="0 0 40 40" fill="none" xmlns="http://www.w3.org/2000/svg">
<circle cx="20" cy="20" r="20" fill="#CD5000"/>
<path d="M22.1732 33.3761C13.5171 30.9888 8.34536 22.0124 10.6026 13.3353C10.7018 12.9541 11.0499 12.7 11.4366 12.7161L15.1582 12.871C15.3545 12.8792 15.5425 12.9565 15.6894 13.0895C15.8364 13.2225 15.9329 13.4027 15.9621 13.5986L16.5949 17.8402C16.622 18.0214 16.5899 18.2058 16.5036 18.3656C16.4172 18.5254 16.2813 18.6519 16.1163 18.7261L13.6333 19.8423C14.1831 22.8377 15.7825 25.5654 18.0533 27.4979L20.2615 25.9057C20.4082 25.7999 20.5858 25.7454 20.7673 25.7505C20.9489 25.7556 21.1246 25.8201 21.268 25.9341L24.6249 28.6029C24.78 28.7262 24.8877 28.8999 24.9295 29.0936C24.9712 29.2874 24.9441 29.4889 24.8531 29.6629L23.1265 32.9634C23.0386 33.1312 22.8966 33.2634 22.7234 33.3383C22.5503 33.4133 22.3563 33.4266 22.1732 33.3761ZM18.337 12.1929C19.3279 12.7607 19.9424 13.8252 19.9388 14.9672C19.9375 15.3485 19.5838 15.6247 19.2156 15.5314L18.8235 15.4322C18.5669 15.3673 18.3852 15.1382 18.3737 14.8726C18.3625 14.6167 18.2895 14.3666 18.161 14.144C18.0325 13.9215 17.8524 13.7332 17.6364 13.5955C17.4121 13.4528 17.3045 13.1809 17.3766 12.9262L17.4868 12.537C17.5901 12.1715 18.0062 12.0033 18.337 12.1929ZM19.9494 6.0769C24.24 7.67124 26.8055 12.1194 26.0415 16.6287C25.9847 16.9644 25.6564 17.1778 25.3268 17.0944L24.9463 16.9981C24.6471 16.9223 24.4533 16.6272 24.504 16.3222C25.1263 12.5775 22.9974 8.89406 19.4461 7.56175C19.1566 7.45311 18.9979 7.13776 19.0819 6.84068L19.1888 6.46301C19.2813 6.1359 19.6302 5.95829 19.9494 6.0769ZM19.1239 9.10896C21.7795 10.2097 23.3781 12.9729 23.0029 15.8277C22.9573 16.1748 22.6232 16.4023 22.2846 16.3165L21.9027 16.2198C21.6139 16.1466 21.4194 15.8679 21.4564 15.5716C21.7206 13.4537 20.5385 11.4064 18.5724 10.5763C18.2973 10.4601 18.1531 10.1524 18.2341 9.86572L18.3413 9.48662C18.4363 9.15047 18.8005 8.97492 19.1239 9.10896Z" fill="#FFFAF3"/>
</svg>
