<svg width="35" height="28" viewBox="0 0 35 28" fill="none" xmlns="http://www.w3.org/2000/svg">
<path d="M25.2778 10C25.2778 4.475 19.6207 0 12.6389 0C5.65712 0 0 4.475 0 10C0 12.1438 0.856771 14.1187 2.30903 15.75C1.49479 17.6375 0.15191 19.1375 0.133681 19.1562C0 19.3 -0.0364583 19.5125 0.0425347 19.7C0.121528 19.8875 0.291667 20 0.486111 20C2.71007 20 4.55122 19.2313 5.87587 18.4375C7.83247 19.4188 10.1476 20 12.6389 20C19.6207 20 25.2778 15.525 25.2778 10ZM32.691 23.75C34.1432 22.125 35 20.1437 35 18C35 13.8188 31.7491 10.2375 27.1432 8.74375C27.1979 9.15625 27.2222 9.575 27.2222 10C27.2222 16.6187 20.678 22 12.6389 22C11.9826 22 11.3446 21.95 10.7127 21.8813C12.6267 25.475 17.1233 28 22.3611 28C24.8524 28 27.1675 27.425 29.1241 26.4375C30.4488 27.2313 32.2899 28 34.5139 28C34.7083 28 34.8845 27.8813 34.9575 27.7C35.0365 27.5188 35 27.3062 34.8663 27.1562C34.8481 27.1375 33.5052 25.6437 32.691 23.75Z" fill="white"/>
</svg>
