<svg width="32" height="23" viewBox="0 0 32 23" fill="none" xmlns="http://www.w3.org/2000/svg">
<path d="M31.3937 7.59479C31.6375 7.40911 32 7.58281 32 7.8763V20.125C32 21.7122 30.6562 23 29 23H3C1.34375 23 0 21.7122 0 20.125V7.88229C0 7.58281 0.35625 7.4151 0.60625 7.60078C2.00625 8.64297 3.8625 9.96667 10.2375 14.4049C11.5563 15.3273 13.7812 17.268 16 17.256C18.2313 17.274 20.5 15.2914 21.7687 14.4049C28.1437 9.96667 29.9937 8.63698 31.3937 7.59479ZM16 15.3333C17.45 15.3573 19.5375 13.5844 20.5875 12.8536C28.8812 7.08568 29.5125 6.58255 31.425 5.14505C31.7875 4.87552 32 4.45625 32 4.01302V2.875C32 1.28776 30.6562 0 29 0H3C1.34375 0 0 1.28776 0 2.875V4.01302C0 4.45625 0.2125 4.86953 0.575 5.14505C2.4875 6.57656 3.11875 7.08568 11.4125 12.8536C12.4625 13.5844 14.55 15.3573 16 15.3333Z" fill="white"/>
</svg>
