<svg width="39" height="26" viewBox="0 0 39 26" fill="none" xmlns="http://www.w3.org/2000/svg">
<rect x="0.520833" y="0.270833" width="37.375" height="25.4583" rx="2.97917" fill="white" stroke="#D9D9D9" stroke-width="0.541667"/>
<path d="M16.229 25.4583L37.6248 19.2291V22.75C37.6248 24.2457 36.4123 25.4583 34.9165 25.4583H16.229Z" fill="#FD6020"/>
<path fill-rule="evenodd" clip-rule="evenodd" d="M33.5642 10.4117C34.7413 10.4117 35.3887 10.9355 35.3887 11.925C35.4475 12.6817 34.9178 13.3219 34.2116 13.4383L35.8007 15.5919H34.5647L33.211 13.4965H33.0933V15.5919H32.0928V10.4117H33.5642ZM33.0933 12.7981H33.3876C34.035 12.7981 34.3293 12.5071 34.3293 11.9832C34.3293 11.5176 34.035 11.2266 33.3876 11.2266H33.0933V12.7981ZM28.6204 15.5919H31.4454V14.7188H29.6209V13.3219H31.3866V12.4488H29.6209V11.2848H31.4454V10.4117H28.6204V15.5919ZM25.6776 13.904L24.3239 10.4117H23.2645L25.4422 15.7083H25.9719L28.1495 10.4117H27.0901L25.6776 13.904ZM13.7298 13.0309C13.7298 14.486 14.9069 15.7083 16.3783 15.7083C16.8491 15.7083 17.2611 15.5919 17.6731 15.4173V14.2532C17.3788 14.6024 16.9668 14.8352 16.496 14.8352C15.5543 14.8352 14.7892 14.1368 14.7892 13.2055V13.0891C14.7304 12.1578 15.4955 11.343 16.4372 11.2848C16.908 11.2848 17.3788 11.5176 17.6731 11.8668V10.7027C17.32 10.4699 16.8491 10.4117 16.4372 10.4117C14.9069 10.2953 13.7298 11.5176 13.7298 13.0309ZM11.9054 12.3907C11.3168 12.1578 11.1403 12.0414 11.1403 11.7504C11.1991 11.4012 11.4934 11.1102 11.8465 11.1684C12.1408 11.1684 12.4351 11.343 12.6705 11.5758L13.2002 10.8773C12.7882 10.5281 12.2585 10.2953 11.7288 10.2953C10.9048 10.2371 10.1986 10.8773 10.1397 11.6922V11.7504C10.1397 12.4489 10.434 12.8563 11.3757 13.1473C11.6111 13.2055 11.8465 13.3219 12.0819 13.4383C12.2585 13.5547 12.3762 13.7293 12.3762 13.9622C12.3762 14.3696 12.0231 14.7188 11.67 14.7188H11.6111C11.1403 14.7188 10.7283 14.4278 10.5517 14.0204L9.9043 14.6606C10.2574 15.3009 10.9637 15.6501 11.67 15.6501C12.6116 15.7083 13.3767 15.0098 13.4356 14.0786V13.904C13.3767 13.2055 13.0825 12.8563 11.9054 12.3907ZM8.49194 15.5919H9.49248V10.4117H8.49194V15.5919ZM3.84229 10.4117H5.31366H5.60794C7.02046 10.4699 8.13871 11.634 8.07985 13.0309C8.07985 13.7875 7.72672 14.486 7.13817 15.0098C6.60848 15.4173 5.96107 15.6501 5.31366 15.5919H3.84229V10.4117ZM5.13707 14.7188C5.60791 14.777 6.13761 14.6024 6.49074 14.3114C6.84387 13.9621 7.02043 13.4965 7.02043 12.9727C7.02043 12.507 6.84387 12.0414 6.49074 11.6922C6.13761 11.4012 5.60791 11.2265 5.13707 11.2847H4.84279V14.7188H5.13707Z" fill="black"/>
<path fill-rule="evenodd" clip-rule="evenodd" d="M20.6746 10.2916C19.2032 10.2916 17.9673 11.4557 17.9673 12.969C17.9673 14.4241 19.1444 15.6464 20.6746 15.7046C22.2049 15.7628 23.382 14.5405 23.4408 13.0272C23.382 11.5139 22.2049 10.2916 20.6746 10.2916V10.2916Z" fill="#FD6020"/>
</svg>
