<svg width="24" height="24" viewBox="0 0 24 24" fill="none" xmlns="http://www.w3.org/2000/svg">
<path fill-rule="evenodd" clip-rule="evenodd" d="M12 1.2766C6.07763 1.2766 1.2766 6.07763 1.2766 12C1.2766 17.9224 6.07763 22.7234 12 22.7234C17.9224 22.7234 22.7234 17.9224 22.7234 12C22.7234 6.07763 17.9224 1.2766 12 1.2766ZM0 12C0 5.37258 5.37258 0 12 0C18.6274 0 24 5.37258 24 12C24 18.6274 18.6274 24 12 24C5.37258 24 0 18.6274 0 12Z" fill="white"/>
<path d="M19.8832 8.55322L11.7768 16.6756L9.51082 18.9415L7.26082 16.6756L6.73422 16.133L5.01081 14.4096L4.46826 13.883L6.73422 11.6171L7.26082 12.1596L8.98422 13.883L9.51082 14.4256L17.6332 6.30322L19.8832 8.55322Z" fill="white"/>
</svg>
