<svg width="26" height="24" viewBox="0 0 26 24" fill="none" xmlns="http://www.w3.org/2000/svg">
<path d="M13.9897 1.18124C13.5375 0.729059 12.8043 0.729059 12.3521 1.18124L4.98335 8.55004C4.53116 9.00223 4.53116 9.73537 4.98335 10.1876C5.43553 10.6397 6.16867 10.6397 6.62086 10.1876L13.1709 3.63751L19.7209 10.1876C20.1731 10.6397 20.9063 10.6397 21.3585 10.1876C21.8106 9.73537 21.8106 9.00223 21.3585 8.55004L13.9897 1.18124ZM12.013 17.0526C12.013 17.6921 12.5314 18.2105 13.1709 18.2105C13.8104 18.2105 14.3288 17.6921 14.3288 17.0526H12.013ZM12.013 2V17.0526H14.3288V2H12.013Z" fill="#818181"/>
<path d="M3.15789 17.0525C3.15789 16.413 2.63949 15.8946 2 15.8946C1.36051 15.8946 0.842105 16.413 0.842105 17.0525H3.15789ZM25.1579 17.0525C25.1579 16.413 24.6395 15.8946 24 15.8946C23.3605 15.8946 22.8421 16.413 22.8421 17.0525H25.1579ZM21.6842 21.6841H4.31579V23.9999H21.6842V21.6841ZM3.15789 20.5262V17.0525H0.842105V20.5262H3.15789ZM22.8421 17.0525V20.5262H25.1579V17.0525H22.8421ZM4.31579 21.6841C3.6763 21.6841 3.15789 21.1657 3.15789 20.5262H0.842105C0.842105 22.4446 2.39733 23.9999 4.31579 23.9999V21.6841ZM21.6842 23.9999C23.6027 23.9999 25.1579 22.4446 25.1579 20.5262H22.8421C22.8421 21.1657 22.3237 21.6841 21.6842 21.6841V23.9999Z" fill="#818181"/>
</svg>
