<svg width="57" height="64" viewBox="0 0 57 64" fill="none" xmlns="http://www.w3.org/2000/svg">
<path d="M17.1992 16.6131C18.1244 16.861 20.6725 21.0491 22.6603 24.5976C23.7814 26.5991 24.9414 29.5669 22.8124 30.4214C22.2031 30.666 15.6077 31.686 14.795 25.0781C13.9824 18.4703 15.677 16.2052 17.1992 16.6131Z" fill="#FF9636"/>
<path d="M11.071 26.7994C11.1293 28.1221 11.5647 29.337 11.9866 30.225C12.456 31.213 12.8881 33.0388 11.8236 33.291C11.0677 33.4701 10.7169 32.858 10.4228 32.139C9.54344 29.9895 10.4242 27.7575 11.071 26.7994Z" fill="#FF9636"/>
<path d="M13.8065 9.99364C13.8564 11.0526 14.2076 12.0259 14.5462 12.7362C14.9209 13.522 15.2692 14.9777 14.4217 15.1768C13.8198 15.3181 13.5418 14.8296 13.3065 14.258C12.5988 12.5388 13.2942 10.7573 13.8065 9.99364Z" fill="#FF9636"/>
<path d="M16.515 33.6284C17.4698 33.674 20.4333 36.0592 22.7194 38.0537C23.8939 39.0784 25.0197 40.8116 23.7847 41.7625C21.9809 43.1513 22.342 45.8486 21.5835 47.9951C21.4575 48.3515 21.2823 48.6178 21.0397 48.7086C19.9818 49.105 15.5818 46.4984 14.2808 41.4592C12.9799 36.42 14.9713 33.5547 16.515 33.6284Z" fill="#FF9636"/>
<path d="M20.9037 14.4742C20.6558 15.3994 23.0087 19.7002 25.088 23.1959C26.2607 25.1676 28.2509 27.6561 30.0555 26.2396C30.572 25.8342 34.753 20.6324 29.4368 16.6247C24.1205 12.617 21.3116 12.952 20.9037 14.4742Z" fill="#FF9636"/>
<path d="M32.7898 14.2601C33.9062 14.972 34.7406 15.9564 35.2986 16.7657C35.9196 17.6663 37.2848 18.9534 38.0354 18.1577C38.5685 17.5926 38.2138 16.9827 37.7381 16.3685C36.3163 14.5322 33.9429 14.1789 32.7898 14.2601Z" fill="#FF9636"/>
<path d="M16.8674 8.22633C17.7594 8.79904 18.4268 9.58983 18.8726 10.2383C19.3658 10.9557 20.4524 11.9851 21.0485 11.3507C21.4718 10.9001 21.1878 10.4151 20.8104 9.92552C19.6753 8.45306 17.7848 8.16448 16.8674 8.22633Z" fill="#FF9636"/>
<path d="M35.9819 22.3893C35.544 23.239 36.1278 26.998 36.7121 29.9751C37.0123 31.5046 37.9503 33.3461 39.3913 32.752C41.496 31.8843 43.6514 33.5457 45.8896 33.962C46.2612 34.0312 46.5794 34.0126 46.7794 33.8479C47.6516 33.1299 47.5942 28.0161 43.8807 24.3698C40.1671 20.7236 36.6899 21.0155 35.9819 22.3893Z" fill="#FF9636"/>
<path d="M38.5172 55.0238C38.8412 55.3372 39.9716 55.6854 41.9016 54.5711C43.8317 53.4567 44.0953 52.3037 43.9859 51.8665C43.6091 50.0253 45.2969 49.6799 46.1879 49.7373C50.8952 49.4215 51.0747 46.1296 50.5761 44.5231C48.1824 37.2197 42.6234 38.1774 40.7024 38.7504C38.7814 39.3233 38.24 39.3142 36.2626 37.5608C34.6806 36.158 32.7387 36.8431 31.9654 37.361C31.1303 37.7717 29.5659 39.111 29.9898 41.1824C30.5196 43.7716 30.2568 44.245 28.8001 45.6222C27.3435 46.9993 23.7345 51.3347 28.8626 57.0594C30.0045 58.2945 32.9452 59.7849 35.5723 55.8663C35.9681 55.0659 37.1111 53.7769 38.5172 55.0238Z" fill="#FF9636"/>
</svg>
