<svg width="21" height="21" viewBox="0 0 21 21" fill="none" xmlns="http://www.w3.org/2000/svg">
<path d="M18.75 0H2.25C0.984375 0 0 1.03125 0 2.25V18.75C0 20.0156 0.984375 21 2.25 21H18.75C19.9688 21 21 20.0156 21 18.75V2.25C21 1.03125 19.9688 0 18.75 0ZM7.6875 15.1875C5.0625 15.1875 3 13.125 3 10.5C3 7.92188 5.0625 5.8125 7.6875 5.8125C8.95312 5.8125 9.98438 6.28125 10.8281 7.07813L9.51562 8.29688C9.1875 7.96875 8.57812 7.54688 7.6875 7.54688C6.09375 7.54688 4.78125 8.90625 4.78125 10.5469C4.78125 12.1406 6.09375 13.5 7.6875 13.5C9.51562 13.5 10.2188 12.1406 10.3125 11.4844H7.6875V9.84375H12.0938C12.1406 10.0781 12.1875 10.3125 12.1875 10.6406C12.1875 13.3125 10.3594 15.1875 7.6875 15.1875ZM18 11.3906H16.6406V12.75H15.2344V11.3906H13.875V9.98438H15.2344V8.625H16.6406V9.98438H18V11.3906Z" fill="white"/>
</svg>
