<svg width="54" height="38" viewBox="0 0 54 38" fill="none" xmlns="http://www.w3.org/2000/svg">
<rect x="0.791667" y="0.791667" width="52.25" height="36.4167" rx="5.54167" fill="white" stroke="#D9D9D9" stroke-width="1.58333"/>
<path fill-rule="evenodd" clip-rule="evenodd" d="M14.6318 7.84717H27.4421C36.147 7.84717 39.4922 12.7443 39.4922 18.9344C39.4922 26.3389 34.8166 30.0607 27.4421 30.0607H14.6318V7.84717ZM15.8488 9.17904V28.8069H27.4427C34.437 28.8069 38.2383 25.4376 38.2383 18.9734C38.2383 12.3132 34.1329 9.17904 27.4427 9.17904H15.8488ZM19.27 19.3261C20.5507 19.3261 21.5888 18.2562 21.5888 16.9363C21.5888 15.6164 20.5507 14.5465 19.27 14.5465C17.9894 14.5465 16.9513 15.6164 16.9513 16.9363C16.9513 18.2562 17.9894 19.3261 19.27 19.3261ZM17.4075 20.3449H21.1327V27.1618H17.4075V20.3449Z" fill="black"/>
<path fill-rule="evenodd" clip-rule="evenodd" d="M34.0195 14.7423H35.0839V18.0332H36.6424C36.2243 12.0391 31.6247 10.707 27.4433 10.707H22.9958V14.7423H23.6421C24.8585 14.7423 25.5807 15.565 25.5807 16.9362C25.5807 18.3074 24.8585 19.1302 23.6801 19.1302H22.9958V27.1615H27.4433C34.2476 27.1615 36.5664 23.9098 36.6804 19.1302H34.0195V14.7423ZM28.8883 18.0332V19.1302H26.2275V14.7423H28.8123V15.8393H27.2918V16.3486H28.7363V17.4456H27.3298V18.0332H28.8883ZM29.3431 19.1302L30.6355 14.7423H32.156L33.4485 19.1302H32.3461L32.118 18.3075H30.7116L30.4835 19.1302H29.3431ZM31.028 17.1714H31.0161V17.2106L31.028 17.1714ZM31.028 17.1714H31.7764L31.4343 15.9569H31.3962L31.028 17.1714ZM22.9958 18.0333V15.8394H23.6421C24.0602 15.8394 24.5164 15.9569 24.5164 16.9363C24.5164 17.9158 24.0982 18.0333 23.6421 18.0333H22.9958Z" fill="#D50072"/>
</svg>
