<svg width="40" height="40" viewBox="0 0 40 40" fill="none" xmlns="http://www.w3.org/2000/svg">
<path d="M20 40C31.0457 40 40 31.0457 40 20C40 8.95431 31.0457 0 20 0C8.95431 0 0 8.95431 0 20C0 31.0457 8.95431 40 20 40Z" fill="#E79534"/>
<path fill-rule="evenodd" clip-rule="evenodd" d="M19.9999 27.9613C16.5115 27.9613 13.0231 27.9613 9.53471 27.9613C8.60447 27.9613 7.97021 27.327 7.97021 26.3862C7.97021 23.2255 7.97021 20.0754 7.97021 16.9147C7.97021 16.1113 8.02307 16.0796 8.72075 16.4496C11.9977 18.1938 15.2642 19.938 18.5306 21.7033C19.5137 22.2319 20.4545 22.2319 21.4376 21.7033C24.6934 19.9485 27.9598 18.2149 31.2157 16.4707C31.3214 16.4179 31.4271 16.3544 31.5328 16.3016C31.8817 16.143 32.0085 16.217 32.0085 16.587C32.0085 19.9274 32.0191 23.2784 32.0085 26.6188C32.0085 27.3165 31.2791 27.9507 30.5391 27.9507C27.0296 27.9613 23.52 27.9613 19.9999 27.9613Z" fill="#FEFEFE"/>
<path fill-rule="evenodd" clip-rule="evenodd" d="M19.9997 12.1155C23.7101 12.1155 27.4311 12.1155 31.1415 12.1155C31.4375 12.1155 31.7969 12.0521 31.9343 12.4115C32.0717 12.7709 31.8392 13.0458 31.6172 13.2995C31.4692 13.4686 31.2683 13.5849 31.0781 13.7012C27.8434 15.4771 24.6192 17.253 21.3845 19.0183C20.4648 19.5257 19.5346 19.5257 18.6149 19.0183C15.3802 17.2424 12.1561 15.4665 8.9214 13.7012C8.56198 13.5003 8.25543 13.2572 8.08629 12.8766C7.89602 12.4644 8.06515 12.1684 8.53027 12.1261C8.65712 12.1155 8.79454 12.1155 8.93197 12.1155C12.6212 12.1155 16.3105 12.1155 19.9997 12.1155Z" fill="#FEFEFE"/>
</svg>
