<svg width="54" height="39" viewBox="0 0 54 39" fill="none" xmlns="http://www.w3.org/2000/svg">
<rect x="0.794118" y="0.794118" width="52.4118" height="36.5294" rx="5.55882" fill="white" stroke="#D9D9D9" stroke-width="1.58824"/>
<path fill-rule="evenodd" clip-rule="evenodd" d="M34.2703 29.2711C40.218 29.2711 45.0396 24.5069 45.0396 18.6299C45.0396 12.753 40.218 7.98877 34.2703 7.98877C31.6045 7.98877 29.165 8.94581 27.2844 10.5311C25.4038 8.94588 22.9643 7.9889 20.2986 7.9889C14.3509 7.9889 9.5293 12.7531 9.5293 18.6301C9.5293 24.507 14.3509 29.2713 20.2986 29.2713C22.9644 29.2713 25.4039 28.3142 27.2845 26.7289C29.1651 28.3141 31.6046 29.2711 34.2703 29.2711Z" fill="#ED0006"/>
<path fill-rule="evenodd" clip-rule="evenodd" d="M27.2834 26.7295C29.5993 24.7777 31.0678 21.8733 31.0678 18.6299C31.0678 15.3866 29.5993 12.4821 27.2834 10.5304C29.1639 8.9455 31.6031 7.98877 34.2684 7.98877C40.2162 7.98877 45.0378 12.753 45.0378 18.6299C45.0378 24.5069 40.2162 29.2711 34.2684 29.2711C31.6031 29.2711 29.1639 28.3144 27.2834 26.7295Z" fill="#F9A000"/>
<path fill-rule="evenodd" clip-rule="evenodd" d="M27.2846 26.7291C29.6 24.7773 31.0681 21.8732 31.0681 18.6302C31.0681 15.3872 29.6 12.483 27.2846 10.5312C24.9691 12.483 23.501 15.3872 23.501 18.6302C23.501 21.8732 24.9691 24.7773 27.2846 26.7291Z" fill="#FF5E00"/>
</svg>
