<svg width="62" height="71" viewBox="0 0 62 71" fill="none" xmlns="http://www.w3.org/2000/svg">
<g filter="url(#filter0_d)">
<path d="M55.7197 58.0159L47.6095 57.9029L43.6519 65L32.6703 45.9335L44.7381 38.9494L55.7197 58.0159Z" fill="#666C8C"/>
<path d="M6 58.0159L14.1176 57.8988L18.0751 64.9874L29.0765 45.9323L17.0015 38.9608L6 58.0159Z" fill="#EBEBEB"/>
<path d="M29.6239 6L32.1545 8.2348L35.1451 6.672L37.0686 9.44893L40.3454 8.64896L41.5501 11.8066L44.9227 11.816L45.3384 15.1709L48.6108 15.989L48.2135 19.3462L51.1954 20.9255L50.0082 24.0898L52.5264 26.3386L50.6183 29.1262L52.5264 31.9137L50.0082 34.1625L51.1954 37.3268L48.2135 38.9062L48.6108 42.2633L45.3384 43.0815L44.9227 46.4364L41.5501 46.4457L40.3454 49.6034L37.0686 48.8034L35.1451 51.5803L32.1545 50.0175L29.6239 52.2523L27.0933 50.0175L24.1028 51.5803L22.1792 48.8034L18.9024 49.6034L17.6978 46.4457L14.3252 46.4364L13.9094 43.0815L10.6371 42.2633L11.0344 38.9062L8.05244 37.3268L9.23965 34.1625L6.72143 31.9137L8.62959 29.1262L6.72143 26.3386L9.23965 24.0898L8.05244 20.9255L11.0344 19.3462L10.6371 15.989L13.9094 15.1709L14.3252 11.816L17.6978 11.8066L18.9024 8.64896L22.1792 9.44893L24.1028 6.672L27.0933 8.2348L29.6239 6Z" fill="url(#paint0_linear)"/>
<path fill-rule="evenodd" clip-rule="evenodd" d="M29.7022 44.3895C38.1117 44.3895 44.9289 37.5559 44.9289 29.1262C44.9289 20.6965 38.1117 13.8629 29.7022 13.8629C21.2928 13.8629 14.4755 20.6965 14.4755 29.1262C14.4755 37.5559 21.2928 44.3895 29.7022 44.3895ZM29.7022 46.2396C39.131 46.2396 46.7745 38.5776 46.7745 29.1262C46.7745 19.6747 39.131 12.0128 29.7022 12.0128C20.2734 12.0128 12.6299 19.6747 12.6299 29.1262C12.6299 38.5776 20.2734 46.2396 29.7022 46.2396Z" fill="#FFFAF3"/>
<path d="M30 16L32.9187 24.9828H42.3637L34.7225 30.5344L37.6412 39.5172L30 33.9656L22.3588 39.5172L25.2775 30.5344L17.6363 24.9828H27.0813L30 16Z" fill="#FFFAF3"/>
</g>
<defs>
<filter id="filter0_d" x="0" y="0" width="61.7199" height="71" filterUnits="userSpaceOnUse" color-interpolation-filters="sRGB">
<feFlood flood-opacity="0" result="BackgroundImageFix"/>
<feColorMatrix in="SourceAlpha" type="matrix" values="0 0 0 0 0 0 0 0 0 0 0 0 0 0 0 0 0 0 127 0" result="hardAlpha"/>
<feOffset/>
<feGaussianBlur stdDeviation="3"/>
<feColorMatrix type="matrix" values="0 0 0 0 0 0 0 0 0 0 0 0 0 0 0 0 0 0 0.25 0"/>
<feBlend mode="normal" in2="BackgroundImageFix" result="effect1_dropShadow"/>
<feBlend mode="normal" in="SourceGraphic" in2="effect1_dropShadow" result="shape"/>
</filter>
<linearGradient id="paint0_linear" x1="12.8159" y1="15.2221" x2="42.5" y2="46.5" gradientUnits="userSpaceOnUse">
<stop stop-color="#A9A9A9"/>
<stop offset="0.166667" stop-color="#D9D9D9"/>
<stop offset="0.291667" stop-color="#A6A6A6"/>
<stop offset="0.575943" stop-color="#8C8C8C"/>
<stop offset="0.95397" stop-color="#737373"/>
</linearGradient>
</defs>
</svg>
