<svg width="40" height="40" viewBox="0 0 40 40" fill="none" xmlns="http://www.w3.org/2000/svg">
<path d="M40 20C40 31.05 31.05 40 20 40C8.95 40 0 31.05 0 20C0 8.95 8.95 0 20 0C31.05 0 40 8.95 40 20Z" fill="url(#paint0_linear)"/>
<path d="M16.3334 29.1667C15.6834 29.1667 15.8001 28.9167 15.5667 28.3L13.6667 22.0334L25.4667 14.6667L26.85 15.0334L25.7 18.1667L16.3334 29.1667Z" fill="#C8DAEA"/>
<path d="M16.3333 29.1666C16.8333 29.1666 17.0499 28.9333 17.3333 28.6666C17.7666 28.25 23.3333 22.8333 23.3333 22.8333L19.9166 22L16.7499 24L16.3333 29V29.1666Z" fill="#A9C9DD"/>
<path d="M16.6668 24.0667L24.7335 30.0167C25.6502 30.5167 26.3169 30.2667 26.5502 29.1667L29.8336 13.7C30.1669 12.35 29.3169 11.75 28.4336 12.15L9.16681 19.5833C7.85014 20.1167 7.86681 20.85 8.93348 21.1667L13.8835 22.7167L25.3335 15.5C25.8669 15.1666 26.3669 15.35 25.9669 15.7166L16.6668 24.0667Z" fill="url(#paint1_linear)"/>
<defs>
<linearGradient id="paint0_linear" x1="25.8617" y1="6.32167" x2="15.8617" y2="29.6547" gradientUnits="userSpaceOnUse">
<stop stop-color="#37AEE2"/>
<stop offset="1" stop-color="#1E96C8"/>
</linearGradient>
<linearGradient id="paint1_linear" x1="21.4987" y1="20.6258" x2="25.6654" y2="27.2925" gradientUnits="userSpaceOnUse">
<stop stop-color="#EFF7FC"/>
<stop offset="1" stop-color="white"/>
</linearGradient>
</defs>
</svg>
