<svg width="9" height="9" viewBox="0 0 9 9" fill="none" xmlns="http://www.w3.org/2000/svg">
<circle cx="4.5" cy="4.5" r="4.5" fill="#515151"/>
<path d="M5.125 7H3.99219V2.77344H5.125V7ZM3.92578 1.67969C3.92578 1.51042 3.98177 1.37109 4.09375 1.26172C4.20833 1.15234 4.36328 1.09766 4.55859 1.09766C4.7513 1.09766 4.90495 1.15234 5.01953 1.26172C5.13411 1.37109 5.19141 1.51042 5.19141 1.67969C5.19141 1.85156 5.13281 1.99219 5.01562 2.10156C4.90104 2.21094 4.7487 2.26562 4.55859 2.26562C4.36849 2.26562 4.21484 2.21094 4.09766 2.10156C3.98307 1.99219 3.92578 1.85156 3.92578 1.67969Z" fill="white"/>
</svg>
