<svg width="54" height="39" viewBox="0 0 54 39" fill="none" xmlns="http://www.w3.org/2000/svg">
<rect x="0.794118" y="0.794118" width="52.4118" height="36.5294" rx="5.55882" fill="white" stroke="#D9D9D9" stroke-width="1.58824"/>
<path fill-rule="evenodd" clip-rule="evenodd" d="M17.0737 25.1865H13.8023L11.3492 15.5525C11.2328 15.1093 10.9856 14.7175 10.6219 14.5329C9.71434 14.0688 8.71427 13.6995 7.62329 13.5133V13.1424H12.8932C13.6205 13.1424 14.166 13.6995 14.2569 14.3466L15.5297 21.296L18.7995 13.1424H21.9799L17.0737 25.1865ZM23.7987 25.1865H20.7092L23.2532 13.1424H26.3427L23.7987 25.1865ZM30.3391 16.4791C30.43 15.8304 30.9755 15.4595 31.6119 15.4595C32.6119 15.3664 33.7013 15.5526 34.6105 16.0151L35.156 13.4219C34.2468 13.051 33.2468 12.8647 32.3392 12.8647C29.3406 12.8647 27.1586 14.533 27.1586 16.8484C27.1586 18.6098 28.7042 19.5347 29.7952 20.0919C30.9755 20.6474 31.43 21.0184 31.3391 21.5739C31.3391 22.4073 30.43 22.7782 29.5224 22.7782C28.4314 22.7782 27.3405 22.5004 26.342 22.0363L25.7965 24.6311C26.8875 25.0935 28.0678 25.2798 29.1588 25.2798C32.521 25.3713 34.6105 23.7046 34.6105 21.203C34.6105 18.0527 30.3391 17.868 30.3391 16.4791ZM45.4228 25.1865L42.9697 13.1424H40.3348C39.7893 13.1424 39.2438 13.5133 39.0619 14.0688L34.5194 25.1865H37.6998L38.3346 23.4267H42.2424L42.606 25.1865H45.4228ZM40.7903 16.3859L41.6978 20.9252H39.1538L40.7903 16.3859Z" fill="#172B85"/>
</svg>
