<svg width="40" height="40" viewBox="0 0 40 40" fill="none" xmlns="http://www.w3.org/2000/svg">
<path d="M40 20C40 31.044 31.0418 40 20 40C8.9532 40 0 31.039 0 20C0 8.96101 8.9532 0 20 0C31.0468 0 40 8.95597 40 20Z" fill="#0D9F16"/>
<path fill-rule="evenodd" clip-rule="evenodd" d="M31.5753 17.2126C30.2719 11.8038 25.6166 8.1157 19.99 8.05029C19.2502 8.06036 18.4752 8.12073 17.7052 8.28174C9.85917 9.87168 5.79273 18.5711 9.6176 25.595C9.71825 25.7811 9.72329 25.9371 9.66793 26.1283C9.15962 27.9799 8.65635 29.8314 8.14804 31.678C8.06752 31.9799 8.06752 31.9799 8.36948 31.9044C10.292 31.4013 12.2094 30.9031 14.1269 30.395C14.288 30.3547 14.4087 30.3698 14.5547 30.4453C17.0258 31.7082 19.6277 32.0805 22.3554 31.5522C28.8728 30.2792 33.1305 23.6579 31.5753 17.2126ZM21.6508 29.6453C21.1174 29.7359 20.5738 29.7862 20.292 29.7811C18.2034 29.7761 16.5024 29.3082 14.9372 28.3623C14.7359 28.2415 14.5648 28.2113 14.3282 28.2717C13.2764 28.5635 12.2145 28.8252 11.1626 29.1019C10.9412 29.1673 10.9211 29.122 10.9764 28.9208C11.2532 27.9195 11.52 26.9233 11.8068 25.9321C11.8874 25.6553 11.8572 25.439 11.7011 25.1924C9.53707 21.7157 9.62766 17.3786 12.0484 14.1635C14.5648 10.8126 17.987 9.43897 22.0786 10.3144C26.1148 11.1648 28.6866 13.766 29.6327 17.7811C30.9261 23.2654 27.2019 28.7195 21.6508 29.6453Z" fill="#FCFCFC"/>
<path fill-rule="evenodd" clip-rule="evenodd" d="M23.1003 25.605C22.6776 25.6251 22.275 25.5245 21.8673 25.4188C19.1446 24.6339 17.0963 22.9283 15.4556 20.6842C14.8366 19.8389 14.2578 18.9685 14.0666 17.9169C13.8351 16.654 14.2025 15.5874 15.1386 14.7119C15.4355 14.4402 16.3464 14.3194 16.7138 14.4956C16.8497 14.561 16.9353 14.6817 16.9906 14.8125C17.3328 15.6327 17.6751 16.4377 18.0123 17.2578C18.0777 17.4138 18.0475 17.5698 17.977 17.7257C17.8059 18.1031 17.5241 18.405 17.2422 18.7018C17.0309 18.9182 17.0208 19.1195 17.1768 19.3811C18.1381 20.9861 19.4717 22.1484 21.2131 22.8478C21.4748 22.9534 21.666 22.9132 21.8422 22.6968C22.1341 22.3396 22.441 21.9823 22.7128 21.61C22.899 21.3484 23.1154 21.3132 23.3822 21.4339C23.9559 21.6956 24.5347 21.9672 25.1084 22.2389C25.2392 22.2943 25.3651 22.3597 25.4909 22.4201C26.0747 22.7119 26.0696 22.7169 26.0193 23.361C25.9237 24.6188 24.9775 25.2377 23.8603 25.5446C23.6187 25.615 23.357 25.6201 23.1003 25.605Z" fill="#FDFDFD"/>
</svg>
