<svg width="16" height="16" viewBox="0 0 16 16" fill="none" xmlns="http://www.w3.org/2000/svg">
<path d="M9.64011 13.9118C8.011 14.2886 6.46571 14.0385 5.02859 13.2047C4.9425 13.1469 4.84326 13.1104 4.73942 13.0983C4.63557 13.0861 4.53026 13.0988 4.43254 13.135C3.73763 13.3677 3.03627 13.5802 2.25395 13.8261C2.50971 13.0807 2.72248 12.4182 2.97036 11.7662C3.05704 11.5335 3.02838 11.3656 2.89871 11.158C0.944355 8.10472 1.90721 4.09427 5.01856 2.26494C8.80406 0.0392371 13.6986 2.28932 14.4651 6.60838C15.059 9.95216 12.9628 13.1413 9.64011 13.9118Z" fill="#189C0E"/>
<path d="M4.93616 5.65653C4.93145 5.23588 5.05619 4.82346 5.29437 4.47227C5.58093 4.02713 5.99931 3.93239 6.4965 3.98464C6.6319 3.99996 6.67632 4.08356 6.72217 4.17551C6.94999 4.63458 7.18353 5.09157 7.39989 5.55621C7.5661 5.91497 7.36908 6.20477 7.11333 6.41654C6.84611 6.64085 6.86903 6.84218 6.9987 7.11316C7.50019 8.1581 8.36991 8.77879 9.44093 9.18422C9.4995 9.21265 9.56667 9.2195 9.63002 9.20349C9.69337 9.18748 9.74861 9.1497 9.78553 9.09714C9.97179 8.88815 10.1803 8.69171 10.3522 8.47018C10.4955 8.28279 10.656 8.26468 10.8487 8.3636C11.3122 8.60184 11.7707 8.85123 12.2371 9.08182C12.3804 9.15496 12.3954 9.26154 12.3975 9.39669C12.4112 10.186 11.8337 10.7544 10.9182 10.9084C10.3314 11.0073 9.80845 10.8582 9.29192 10.636C7.33398 9.79376 5.98498 8.36221 5.08374 6.50292C4.95909 6.2396 4.93473 5.94841 4.93616 5.65653Z" fill="#F7F7F7"/>
<path d="M15.8763 6.3706C15.2208 2.67921 11.9927 0 8.2 0C6.81624 0.00279422 5.45962 0.373535 4.27695 1.0721C3.37775 1.60032 2.59615 2.29793 1.97807 3.12396C1.35999 3.94999 0.917886 4.88779 0.677721 5.88227C0.191629 7.82388 0.486592 9.87271 1.50231 11.6099C1.36691 11.9875 1.23939 12.3664 1.10542 12.7628C1.03736 12.9648 0.967866 13.1717 0.894793 13.3856L0 16L2.69513 15.1515C2.91721 15.0819 3.13213 15.0122 3.33989 14.9488C3.76472 14.8164 4.17092 14.6904 4.57498 14.558C5.67652 15.1565 6.91665 15.4725 8.17851 15.4761C9.48364 15.4714 10.7668 15.1488 11.9107 14.5378C13.0546 13.9268 14.0229 13.0469 14.7272 11.9784C15.8196 10.3153 16.2297 8.31385 15.8763 6.3706ZM9.64356 13.9115C8.01445 14.2884 6.46916 14.0383 5.03205 13.2045C4.94595 13.1467 4.84671 13.1102 4.74287 13.0981C4.63903 13.0859 4.53371 13.0985 4.436 13.1348C3.74108 13.3675 3.03972 13.5799 2.2574 13.8258C2.51316 13.0805 2.72593 12.418 2.97381 11.7659C3.06049 11.5333 3.03184 11.3654 2.90217 11.1578C0.944225 8.10449 1.90708 4.09404 5.01843 2.26472C8.80393 0.0390109 13.6984 2.2891 14.465 6.60815C15.0589 9.95193 12.9627 13.1411 9.63998 13.9115H9.64356Z" fill="white"/>
</svg>
