<svg width="535" height="375" viewBox="0 0 535 375" fill="none" xmlns="http://www.w3.org/2000/svg">
<path d="M242.618 340.994C255.898 348.314 271.33 350.437 286.366 352.446L312.468 355.915C320.485 356.979 329.694 357.686 335.583 352.146C342.607 345.537 340.832 334.103 338.112 324.851C336.203 318.28 333.998 311.662 330.1 306.026C319.931 291.343 300.429 286.242 287.965 273.444C281.37 266.663 276.765 257.74 268.653 252.863C261.061 248.287 251.694 248.058 242.833 248.359C219.675 249.132 201.27 257.902 208.084 282.515C214.522 305.778 219.642 328.329 242.618 340.994Z" fill="#273CB3"/>
<path d="M305.544 336.017C306.336 336.833 307.214 337.673 308.336 337.892C309.29 338.078 310.278 337.773 311.199 337.472C321.248 334.232 331.67 330.768 339.286 323.453C337.295 304.71 329.351 287.099 316.619 273.201C316.519 273.091 295.671 282.024 293.581 282.658C284.238 285.522 281.537 285.65 283.851 295.962C287.284 311.046 294.787 324.9 305.544 336.017Z" fill="#F6F3EE"/>
<path d="M281.16 295.218C283.546 296.535 286.471 296.487 289.038 295.638C291.606 294.788 293.863 293.195 295.986 291.515C298.797 289.291 301.526 286.743 302.939 283.455C301.564 282.291 299.326 284.41 299.98 286.085C300.634 287.76 302.886 288.284 304.595 287.717C306.303 287.149 307.625 285.808 308.989 284.639C311.495 282.485 314.331 280.748 317.388 279.495C318.438 281.403 317.249 284.181 315.131 284.744C315.741 282.024 318.423 280.325 320.962 279.17C323.5 278.015 326.321 276.975 327.876 274.656" stroke="#273CB3" stroke-width="0.811208" stroke-linecap="round" stroke-linejoin="round"/>
<path d="M294.622 308.374C294.582 306.956 294.886 305.55 295.508 304.276C296.129 303.001 297.05 301.896 298.191 301.054C299.255 300.286 300.644 299.756 301.87 300.223C302.39 300.42 302.833 300.78 303.132 301.249C303.431 301.718 303.57 302.271 303.529 302.825C303.487 303.38 303.268 303.907 302.903 304.326C302.537 304.745 302.046 305.035 301.503 305.153C301.226 303.244 302.428 301.335 303.95 300.114C305.473 298.892 307.291 298.133 308.98 297.117C310.669 296.101 312.225 294.674 312.692 292.775C312.649 292.445 312.144 292.555 311.872 292.746C311.161 293.172 310.575 293.778 310.173 294.502C309.844 295.261 310.049 296.315 310.812 296.63C311.224 296.762 311.666 296.762 312.077 296.63C315.341 295.819 317.755 293.166 320.189 290.852C322.623 288.537 325.696 286.323 329.031 286.757" stroke="#273CB3" stroke-width="0.811208" stroke-linecap="round" stroke-linejoin="round"/>
<path d="M297.565 319.588C297.869 317.699 298.742 315.948 300.068 314.569C301.394 313.19 303.11 312.249 304.986 311.872C306.837 311.533 308.803 311.767 310.583 311.218C311.694 310.86 312.694 310.221 313.486 309.362C314.277 308.503 314.832 307.454 315.097 306.317C314.83 306.132 314.527 306.005 314.208 305.946C313.888 305.886 313.56 305.894 313.244 305.97C312.928 306.046 312.632 306.188 312.375 306.387C312.117 306.586 311.905 306.837 311.752 307.123C311.598 307.41 311.507 307.725 311.485 308.049C311.462 308.373 311.508 308.699 311.619 309.004C311.731 309.309 311.906 309.587 312.133 309.82C312.36 310.052 312.633 310.234 312.935 310.354C314.272 310.893 315.756 310.106 316.901 309.237C318.183 308.261 319.356 307.149 320.399 305.921C321.725 304.361 322.851 302.581 324.459 301.331C326.067 300.08 328.367 299.379 330.186 300.328" stroke="#273CB3" stroke-width="0.811208" stroke-linecap="round" stroke-linejoin="round"/>
<path d="M305.262 327.953C308.631 323.353 312.897 318.676 318.537 317.932C319.658 317.865 320.773 317.728 321.877 317.521C322.863 317.251 323.769 316.746 324.517 316.048C325.265 315.351 325.833 314.483 326.172 313.518C325.633 312.506 324.11 313.384 323.414 314.291C322.245 315.803 321.109 318.108 322.488 319.416C323.366 320.265 324.874 320.098 325.886 319.416C326.897 318.733 327.599 317.684 328.367 316.729C330.185 314.482 332.919 312.606 335.777 313.026C335.85 313.4 335.839 313.784 335.745 314.153C335.652 314.521 335.478 314.865 335.236 315.158C334.995 315.452 334.691 315.688 334.348 315.851C334.004 316.014 333.629 316.099 333.248 316.099C335.941 312.848 339.298 310.209 343.093 308.359" stroke="#273CB3" stroke-width="0.811208" stroke-linecap="round" stroke-linejoin="round"/>
<path d="M300.667 327.671C301.727 329.354 302.966 330.919 304.36 332.338C305.773 333.758 307.605 334.685 309.586 334.981C310.854 335.082 312.13 334.941 313.346 334.566C316.194 333.777 318.811 332.317 320.981 330.31" stroke="#273CB3" stroke-width="0.811208" stroke-linecap="round" stroke-linejoin="round"/>
<path d="M457.298 168.884C459.932 172.807 464.455 175.011 468.869 176.648C474.495 178.719 481.133 180.05 486.215 176.867C490.237 174.348 492.237 169.619 493.664 165.09C494.847 161.349 495.806 157.322 494.737 153.547C493.811 150.293 491.478 147.616 488.92 145.402C483.318 140.549 475.559 137.29 468.478 139.552C463.405 141.184 457.35 146.528 455.117 151.438C453.012 156.086 454.487 164.69 457.298 168.884Z" fill="#B7C3F9"/>
<path d="M225.526 149.358C231.133 144.285 237.747 140.401 244.723 137.49C249.352 135.582 254.195 134.026 258.389 131.287C261.873 129.016 264.784 126 267.799 123.141C278.775 112.725 291.864 103.973 306.652 100.747C328.001 96.09 351.64 104.283 365.531 121.152C371.782 128.748 377.599 138.774 387.405 139.58C393.203 140.058 398.676 136.97 404.445 136.24C417.133 134.618 428.457 144.486 435.538 155.141C442.62 165.797 447.644 178.165 457.307 186.549C465.114 193.321 475.216 196.809 483.705 202.702C489.882 206.988 495.12 212.489 499.1 218.867C503.08 225.246 505.719 232.369 506.854 239.801C507.989 247.234 507.597 254.819 505.703 262.095C503.808 269.371 500.451 276.184 495.835 282.119C479.501 303.115 450.822 309.533 424.363 312.291C410.625 313.723 396.624 314.544 383.082 311.814C371.749 309.519 361.079 304.8 350.505 300.114C339.93 295.428 329.461 290.78 319.555 284.949C304.624 276.169 291.177 264.788 275.358 257.75C264.168 252.758 252.067 250.057 240.863 245.095C213.105 232.803 200.884 198.178 211.649 169.982C214.588 162.111 219.342 155.045 225.526 149.358Z" fill="#8095ED"/>
<path d="M281.58 151.419C282.145 152.698 283.188 153.706 284.486 154.225" stroke="#F6F3EE" stroke-width="0.811208" stroke-linecap="round" stroke-linejoin="round"/>
<path d="M285.512 155.561C285.899 155.608 286.273 155.729 286.614 155.919" stroke="#F6F3EE" stroke-width="0.811208" stroke-linecap="round" stroke-linejoin="round"/>
<path d="M236.758 154.029C247.036 146.194 258.632 138.65 271.516 138.55C282.839 138.469 293.385 144.171 302.647 150.684C311.909 157.198 320.594 164.766 330.958 169.323C341.323 173.88 354.13 174.935 363.449 168.498C366.394 166.465 369.052 162.695 367.377 159.536C365.625 156.234 360.052 156.864 358.205 160.109C356.359 163.354 357.489 167.863 360.271 170.354C378.843 186.974 434.54 159.288 468.468 208.051C479.791 224.323 473.063 260.064 452.611 257.711" stroke="#F6F3EE" stroke-width="0.811208" stroke-linecap="round" stroke-linejoin="round"/>
<path d="M389.237 191.669C402.192 192.824 413.893 190.128 425.116 196.699C431.376 200.364 436.115 206.214 439.178 212.79C445.859 227.148 444.036 248.287 435.175 261.414C417.042 288.237 338.269 307.019 286.967 286.228C263.361 276.66 224.599 242.637 227.501 206.825C228.565 193.693 238.519 183.118 249.079 175.24C256.375 169.791 269.998 166.679 278.922 164.842C272.198 176.185 262.951 188.301 267.14 200.798C269.622 208.204 274.517 214.541 279.704 220.362C285.55 226.933 292.054 233.194 300.056 236.844C307.534 240.256 315.894 241.182 324.106 241.578C356.456 243.101 388.714 237.035 418.302 223.865C420.96 222.677 422.768 208.419 414.312 207.044C411.12 206.524 407.446 207.35 405.795 210.132C414.15 210.847 421.251 217.728 423.45 225.817C425.65 233.905 423.493 242.78 418.889 249.79C414.284 256.8 407.436 262.101 400.135 266.191C382.418 276.088 361.283 279.352 341.208 276.379C321.133 273.406 302.137 264.373 286.413 251.537C284.338 249.838 282.229 247.963 281.308 245.443C280.353 242.852 280.802 239.979 281.36 237.278C284.09 224.108 289.386 211.286 298.062 201.013C305.657 191.906 315.863 185.347 327.303 182.221C338.622 179.148 352.198 183.734 363.345 186.082C371.151 187.718 381.268 190.958 389.237 191.669Z" fill="#FF9739"/>
<path d="M310.273 161.607C320.499 164.174 329.174 173.446 331.23 174.901C340.383 181.386 350.007 186.974 353.267 189.732C342.554 196.241 327.561 191.965 317.249 199.094C314.2 201.204 311.842 204.153 309.022 206.567C306.718 208.455 304.258 210.146 301.669 211.62C292.803 216.941 282.582 221.937 272.508 219.546C270.87 219.197 269.309 218.55 267.904 217.638C264.411 215.252 262.774 210.957 261.953 206.801C260.899 201.471 260.86 195.993 260.913 190.577C260.951 186.592 261.051 182.531 262.316 178.752C264.921 170.974 275.142 166.212 282.396 163.482C291.233 160.166 301.125 159.317 310.273 161.607Z" fill="#FF9739"/>
<path d="M299.402 231.91C297.875 232.636 296.31 233.342 294.721 233.91C291.05 231.485 287.647 228.68 284.566 225.54C286.557 219.597 289.234 213.907 292.545 208.586C294.204 205.927 296.047 203.389 298.061 200.989C298.662 200.273 299.28 199.573 299.913 198.889C302.582 195.988 305.54 193.366 308.74 191.063C323.586 189.279 338.493 187.618 353.433 188.048C353.4 189.312 352.374 190.305 351.429 191.149L342.558 199.004L333.845 206.715C323.156 216.192 312.286 225.778 299.402 231.91Z" fill="#FFB152"/>
<path d="M353.434 188.062C353.401 189.327 352.375 190.319 351.43 191.164L342.559 199.018L333.846 206.729C323.157 216.192 312.287 225.778 299.403 231.925C297.876 232.65 296.311 233.356 294.722 233.924C291.051 231.5 287.648 228.694 284.567 225.554C282.892 223.879 281.275 222.138 279.71 220.377C277.977 218.43 276.283 216.43 274.694 214.355C280.506 212.193 286.757 210.871 292.546 208.6C295.064 207.644 297.475 206.429 299.742 204.973C300.605 204.41 301.498 203.704 301.708 202.692C302.008 201.261 300.849 200.135 299.913 198.904C299.464 198.366 299.125 197.745 298.916 197.076C298.472 195.406 299.565 193.635 301.04 192.738C302.514 191.841 304.289 191.612 306.007 191.402L308.741 191.078C323.586 189.293 338.493 187.633 353.434 188.062Z" fill="#F6F3EE"/>
<path d="M279.924 146.404C278.421 147.626 280.463 158.405 281.217 163.783C281.437 165.348 281.823 167.123 283.179 167.925C284.022 168.341 284.96 168.528 285.898 168.469C290.112 168.545 294.722 168.622 298.864 167.753C303.382 166.799 302.299 164.079 299.708 161.493C299.04 160.82 294.679 156.463 291.663 154.115C282.272 149.086 281.771 147.626 279.924 146.404Z" fill="#FF9739"/>
<path d="M302.056 144.724C306.752 150.761 312.115 154.115 315.47 158.811C318.099 162.495 318.152 163.501 323.181 170.211C322.847 169.872 311.996 167.744 311.314 167.515C308.594 166.598 305.848 165.77 303.077 165.028C300.916 164.451 297.852 167.128 297.7 164.508C297.547 161.889 297.7 148.403 302.056 144.724Z" fill="#FF9739"/>
<path d="M353.219 187.418C353.408 187.468 353.583 187.562 353.728 187.693C353.873 187.825 353.985 187.989 354.054 188.172C354.122 188.426 354.114 188.695 354.03 188.945C353.553 190.806 351.845 192.061 350.27 193.163C350.051 193.403 349.781 193.591 349.48 193.713C349.179 193.836 348.855 193.89 348.531 193.872C348.206 193.853 347.89 193.763 347.605 193.608C347.32 193.452 347.073 193.235 346.882 192.972C345.875 192.108 342.062 189.222 343.575 187.976C344.238 187.427 349.039 186.378 353.219 187.418Z" fill="black"/>
<path d="M248.406 173.217C258.083 167.362 267.493 165.506 281.264 163.831C276.082 170.945 270.122 179.773 268.419 188.41C266.796 196.618 269.812 204.334 273.329 211.916C273.369 212.002 273.379 212.099 273.359 212.191C273.339 212.284 273.289 212.367 273.217 212.429C273.146 212.49 273.056 212.527 272.961 212.532C272.867 212.538 272.773 212.513 272.694 212.46C269.502 210.299 263.809 204.019 262.311 199.071C261.035 204.429 260.328 209.907 260.201 215.414C260.199 215.497 260.173 215.578 260.127 215.646C260.08 215.715 260.015 215.769 259.938 215.801C259.862 215.834 259.778 215.844 259.696 215.83C259.614 215.817 259.538 215.78 259.476 215.724C252.892 209.505 248.327 201.453 246.373 192.61C243.655 195.576 241.564 199.06 240.227 202.855C240.197 202.942 240.141 203.017 240.065 203.069C239.99 203.122 239.899 203.149 239.807 203.146C239.716 203.143 239.627 203.111 239.555 203.055C239.483 202.998 239.43 202.919 239.406 202.831C238.885 201.235 238.644 199.561 238.695 197.882C233.179 203.609 230.268 214.937 229.461 223.283C229.451 223.383 229.407 223.477 229.335 223.548C229.263 223.619 229.169 223.663 229.068 223.672C228.968 223.681 228.867 223.654 228.784 223.597C228.701 223.54 228.64 223.456 228.612 223.359C218.701 189.699 245.471 175.002 248.406 173.217Z" fill="#F6F3EE"/>
<path d="M334.881 205.742C331.402 207.765 327.155 207.77 323.133 207.712" stroke="#CD5000" stroke-width="0.811208" stroke-linecap="round" stroke-linejoin="round"/>
<path d="M324.516 183.524C322.655 183.81 320.766 183.429 318.919 183.047C319.014 183.791 320.828 185.633 323.882 185.709C324.851 185.758 325.822 185.629 326.745 185.328C327.46 185.075 329.336 184.431 329.097 183.381C328.801 182.078 325.437 183.381 324.516 183.524Z" fill="black"/>
<path d="M326.497 175.603C324.472 173.942 322.211 172.593 319.788 171.599C319.727 171.583 319.663 171.583 319.602 171.599C319.541 171.615 319.486 171.647 319.441 171.692C319.397 171.736 319.365 171.792 319.348 171.853C319.332 171.913 319.332 171.977 319.349 172.038L320.656 175.231L321 174.777C318.06 174.739 315.169 172.582 312.224 173.732C312.151 173.755 312.086 173.801 312.041 173.864C311.995 173.926 311.97 174.001 311.97 174.078C311.97 174.155 311.995 174.231 312.041 174.293C312.086 174.355 312.151 174.401 312.224 174.424C313.25 174.722 314.152 175.343 314.796 176.194L315.107 175.66C312.492 175.464 309.829 175.107 307.204 175.259C305.11 175.379 302.981 175.932 301.535 177.545C301.225 177.889 301.731 178.399 302.041 178.056C303.473 176.438 305.654 176.004 307.739 175.951C310.192 175.889 312.663 176.195 315.107 176.376C315.169 176.375 315.23 176.357 315.284 176.326C315.338 176.294 315.383 176.248 315.414 176.194C315.446 176.14 315.462 176.078 315.463 176.016C315.463 175.953 315.447 175.891 315.417 175.837C314.672 174.827 313.618 174.088 312.415 173.732V174.424C313.847 173.861 315.326 174.19 316.758 174.605C318.189 175.021 319.535 175.474 321 175.493C321.058 175.495 321.116 175.482 321.168 175.457C321.22 175.431 321.265 175.393 321.3 175.346C321.334 175.299 321.356 175.245 321.365 175.187C321.373 175.129 321.367 175.071 321.348 175.016L320.036 171.824L319.597 172.263C321.904 173.212 324.057 174.499 325.986 176.08C326.344 176.371 326.85 175.87 326.497 175.574V175.603Z" fill="#F6F3EE"/>
<path d="M308.641 164.847C306.47 165.382 304.346 164.37 302.581 163.167C301.039 162.087 299.575 160.899 298.2 159.612C295.528 157.184 292.989 154.573 290.007 152.512C288.387 151.371 286.605 150.48 284.72 149.868C284.281 149.725 284.095 150.417 284.534 150.556C291.849 152.875 296.206 159.803 302.395 163.917C304.303 165.167 306.541 166.121 308.832 165.558C309.276 165.448 309.09 164.756 308.641 164.866V164.847Z" fill="#F6F3EE"/>
<path d="M283.579 154.082C283.543 154.052 283.499 154.035 283.452 154.034C283.406 154.032 283.36 154.046 283.322 154.074C283.284 154.101 283.257 154.14 283.244 154.185C283.231 154.229 283.233 154.277 283.25 154.32C284.934 158.901 287.788 162.967 288.618 163.525C289.245 163.907 289.935 164.172 290.656 164.308C291.896 164.599 293.404 164.99 294.631 164.747C294.696 164.733 294.758 164.705 294.812 164.666C294.866 164.626 294.911 164.576 294.944 164.518C294.978 164.46 294.998 164.395 295.005 164.329C295.012 164.262 295.005 164.195 294.984 164.131C294.325 162.223 291.896 160.381 290.441 159.164C289.649 158.501 285.249 155.48 283.579 154.082Z" fill="#CD5000"/>
<path d="M328.105 175.655C327.191 175.531 326.342 175.111 325.69 174.458" stroke="#F6F3EE" stroke-width="0.811208" stroke-linecap="round" stroke-linejoin="round"/>
<path d="M280.606 153.552L281.26 157.141" stroke="#F6F3EE" stroke-width="0.811208" stroke-linecap="round" stroke-linejoin="round"/>
<path d="M306.04 111.131C305.563 113.517 305.563 115.903 304.132 117.334C302.481 118.985 301.746 120.379 300.896 122.674C303.95 122.936 305.993 126.367 307.42 129.078C307.587 129.402 307.897 129.784 308.236 129.622C308.315 129.566 308.382 129.495 308.434 129.413C308.486 129.331 308.52 129.24 308.536 129.144C309.577 125.511 311.188 122.066 313.308 118.937C310.058 117.506 307.458 114.399 306.04 111.14" fill="#F6F3EE"/>
<path d="M306.04 111.131C305.563 113.517 305.563 115.903 304.132 117.334C302.481 118.985 301.746 120.379 300.896 122.674C303.95 122.936 305.993 126.367 307.42 129.078C307.587 129.402 307.897 129.784 308.236 129.622C308.315 129.566 308.382 129.495 308.434 129.413C308.486 129.331 308.52 129.24 308.536 129.144C309.577 125.511 311.188 122.066 313.308 118.937C310.058 117.506 307.458 114.399 306.04 111.14" stroke="#F6F3EE" stroke-width="0.811208" stroke-linecap="round" stroke-linejoin="round"/>
<path d="M320.599 124.759C320.468 126.189 320.028 127.573 319.309 128.817C318.591 130.06 317.611 131.132 316.438 131.96C318.201 133.243 319.464 135.098 320.012 137.209C320.093 137.533 320.207 137.925 320.532 138.015C320.687 138.039 320.847 138.007 320.981 137.925C321.115 137.843 321.217 137.716 321.267 137.567C321.362 137.267 321.412 136.955 321.414 136.641C321.644 134.656 323.705 133.22 323.848 131.225C322.264 129.741 320.599 124.759 320.599 124.759Z" fill="#F6F3EE" stroke="#F6F3EE" stroke-width="0.811208" stroke-linecap="round" stroke-linejoin="round"/>
<path d="M499.914 255.578L485.899 277.529C481.381 284.605 476.513 292.006 469.017 295.781C465.199 289.826 457.956 287.106 451.06 285.507C444.165 283.909 436.888 282.964 430.952 279.108C428.69 277.643 452.292 246.23 458.714 245.138C463.882 244.255 469.322 247.046 474.08 248.655C482.555 251.442 491.18 253.754 499.914 255.578Z" fill="#F6F3EE"/>
<path d="M446.517 270.858C446.828 268.404 446.927 265.928 446.813 263.457H445.892C445.713 264.138 445.687 264.85 445.816 265.542C445.89 265.886 446.075 266.196 446.342 266.425C446.609 266.655 446.944 266.79 447.295 266.811C447.643 266.758 447.965 266.597 448.216 266.35C448.467 266.103 448.634 265.784 448.693 265.437C448.797 264.741 448.805 264.035 448.717 263.337C448.602 260.78 449.022 255.559 451.437 256.404C452.692 256.838 451.752 259.033 451.914 260.35C452.611 256.671 456.925 254.185 456.815 250.444C456.669 250.435 456.523 250.459 456.388 250.516C456.253 250.572 456.133 250.658 456.037 250.768C455.35 251.494 455.77 252.801 456.624 253.321C457.478 253.841 458.704 254.118 459.544 253.579C460.78 252.782 461.319 246.836 463.314 244.909" stroke="#273CB3" stroke-width="0.811208" stroke-linecap="round" stroke-linejoin="round"/>
<path d="M448.235 278.831C447.798 277.791 447.566 276.677 447.553 275.548C447.615 274.427 448.221 273.253 449.28 272.871C450.34 272.49 451.747 273.258 451.714 274.384C451.275 273.511 451.59 272.447 452.081 271.607C452.573 270.767 453.231 270.004 453.537 269.083C453.842 268.162 453.661 266.954 452.802 266.496C452.764 266.877 452.813 267.261 452.946 267.62C453.078 267.978 453.29 268.302 453.566 268.567C453.841 268.832 454.173 269.031 454.537 269.15C454.9 269.268 455.286 269.302 455.665 269.25C455.699 266.506 456.395 263.812 457.693 261.395C458.003 260.712 458.499 260.13 459.124 259.716C459.444 259.521 459.822 259.444 460.193 259.499C460.563 259.554 460.903 259.737 461.152 260.016C461.587 260.622 461.105 261.701 460.36 261.596C460.623 257.468 466.702 255.827 467.365 251.747C467.571 250.477 466.96 248.941 465.705 248.683" stroke="#273CB3" stroke-width="0.811208" stroke-linecap="round" stroke-linejoin="round"/>
<path d="M459.616 279.008C459.435 277.719 459.488 276.408 459.774 275.138C459.892 274.451 460.186 273.807 460.628 273.268C460.853 273.004 461.148 272.81 461.48 272.708C461.811 272.607 462.165 272.602 462.498 272.695C462.66 272.752 462.807 272.842 462.93 272.96C463.053 273.079 463.149 273.222 463.212 273.381C463.275 273.54 463.303 273.71 463.294 273.881C463.286 274.051 463.24 274.218 463.162 274.37C462.838 273.486 462.724 272.54 462.829 271.605C462.933 270.671 463.253 269.773 463.763 268.982C464.326 268.123 465.156 267.207 464.851 266.229C464.636 266.118 464.387 266.092 464.154 266.158C463.677 266.983 464.579 268.095 465.538 268.066C466.497 268.038 467.285 267.279 467.767 266.449C469.356 263.69 468.721 259.83 470.978 257.587L471.541 259.048C471.24 256.184 474.819 253.655 473.769 250.983" stroke="#273CB3" stroke-width="0.811208" stroke-linecap="round" stroke-linejoin="round"/>
<path d="M473.493 270.5C473.341 268.196 473.858 265.898 474.981 263.881C475.136 263.557 475.367 263.276 475.654 263.061C476.318 262.636 477.267 262.98 477.721 263.624C478.132 264.305 478.3 265.106 478.198 265.895C477.891 265.387 477.7 264.817 477.638 264.227C477.576 263.636 477.645 263.039 477.84 262.478C478.222 261.414 479.033 260.57 479.448 259.51C479.863 258.451 479.672 256.986 478.613 256.6C478.474 257.43 478.35 258.337 478.746 259.081C479.143 259.825 480.297 260.198 480.841 259.558C481.004 259.331 481.112 259.07 481.156 258.795C481.519 257.187 481.428 255.512 481.633 253.88C481.839 252.248 482.483 250.539 483.862 249.638" stroke="#273CB3" stroke-width="0.811208" stroke-linecap="round" stroke-linejoin="round"/>
<path d="M467.227 283.446C467.156 284.82 468.459 285.994 469.828 286.137C471.198 286.28 472.538 285.603 473.569 284.706C476.871 281.766 477.387 276.808 477.1 272.394C476.71 272.984 476.509 273.678 476.523 274.384C476.609 275.081 477.325 275.739 477.954 275.491C478.303 275.311 478.574 275.011 478.718 274.647C479.763 272.59 479.949 270.228 480.455 267.966C480.961 265.704 481.929 263.371 483.934 262.24" stroke="#273CB3" stroke-width="0.811208" stroke-linecap="round" stroke-linejoin="round"/>
<path d="M253.86 247.504C258.217 254.238 273.243 267.58 283.822 273.917C284.156 274.117 284.528 274.394 284.552 274.771C284.536 274.949 284.481 275.121 284.39 275.276C284.299 275.43 284.175 275.562 284.027 275.663C274.407 284.567 263.442 294.025 250.329 293.987C246.406 290.355 221.984 267.231 225.086 263.027C227.095 260.298 235.641 260.575 239.043 259.272C245.915 256.638 253.106 246.331 253.86 247.504Z" fill="#F6F3EE"/>
<path d="M232.215 262.278C238.065 261.778 243.563 259.273 247.781 255.187" stroke="#273CB3" stroke-width="0.811208" stroke-linecap="round" stroke-linejoin="round"/>
<path d="M249.933 252.787C251.149 251.919 252.228 250.873 253.134 249.685" stroke="#273CB3" stroke-width="0.811208" stroke-linecap="round" stroke-linejoin="round"/>
<path d="M226.184 272.032C229.815 272.957 233.923 270.075 234.296 266.348C233.031 266.32 232.163 267.923 232.645 269.092C233.127 270.261 234.553 270.848 235.794 270.686C237.045 270.445 238.188 269.813 239.058 268.882C239.959 268.016 240.727 267.021 241.334 265.928C242.183 264.401 243.209 262.397 244.942 262.612C245.027 263.064 244.992 263.53 244.841 263.964C244.689 264.397 244.426 264.784 244.078 265.084C243.863 264.01 244.526 262.922 245.4 262.264C246.321 261.67 247.315 261.198 248.358 260.861C250.781 259.872 252.978 258.401 254.814 256.538C255.688 255.65 256.504 254.271 255.793 253.255" stroke="#273CB3" stroke-width="0.811208" stroke-linecap="round" stroke-linejoin="round"/>
<path d="M242.843 277.185C242.554 275.996 242.701 274.743 243.258 273.654C243.806 272.578 244.483 271.572 245.271 270.657C245.696 270.123 246.274 269.536 246.942 269.67C247.21 270.442 247.21 271.283 246.942 272.055C246.679 271.394 246.687 270.657 246.964 270.001C247.241 269.346 247.764 268.826 248.421 268.553C249.409 268.19 250.535 268.443 251.518 268.076C252.687 267.656 253.388 266.492 253.999 265.413C254.2 265.06 254.386 264.568 254.09 264.292C253.689 263.92 253.078 264.473 252.916 264.993C252.653 265.857 252.916 267.04 253.794 267.226C254.405 267.35 254.982 266.94 255.45 266.534C257.46 264.79 259.172 262.728 260.517 260.431" stroke="#273CB3" stroke-width="0.811208" stroke-linecap="round" stroke-linejoin="round"/>
<path d="M246.392 284.935C245.438 284.553 245.357 283.245 245.629 282.272C245.949 281.127 246.65 280.001 247.762 279.581C248.874 279.161 250.372 279.771 250.553 280.945C250.899 278.95 251.894 277.125 253.383 275.754C254.032 275.148 254.815 274.518 254.853 273.63C254.799 273.587 254.736 273.555 254.668 273.539C254.601 273.522 254.531 273.52 254.463 273.533C254.395 273.546 254.33 273.574 254.274 273.615C254.218 273.656 254.171 273.708 254.137 273.769C254.013 274.021 253.967 274.305 254.003 274.585C253.978 275.289 254.152 275.987 254.504 276.598C254.569 276.717 254.666 276.814 254.785 276.879C254.903 276.943 255.038 276.972 255.172 276.961C255.306 276.916 255.425 276.835 255.516 276.727C257.191 275.062 257.94 272.714 258.999 270.605C260.059 268.496 261.758 266.391 264.101 266.129C264.271 266.079 264.451 266.07 264.625 266.103C264.799 266.136 264.963 266.21 265.103 266.319C265.243 266.429 265.355 266.57 265.43 266.731C265.504 266.892 265.539 267.068 265.532 267.245C265.611 267.842 265.567 268.449 265.402 269.028C265.238 269.608 264.958 270.147 264.578 270.614C264.398 269.892 264.438 269.132 264.693 268.432C264.948 267.732 265.406 267.125 266.009 266.687C266.758 266.167 267.67 265.952 268.51 265.599C271.568 264.33 273.573 261.419 275.395 258.661" stroke="#273CB3" stroke-width="0.811208" stroke-linecap="round" stroke-linejoin="round"/>
<path d="M255.946 290.126C255.546 290.284 255.103 290.292 254.699 290.148C254.294 290.004 253.956 289.718 253.746 289.344C253.555 288.959 253.471 288.53 253.504 288.101C253.537 287.673 253.685 287.261 253.932 286.91C254.444 286.211 255.191 285.719 256.036 285.526C257.659 285.106 259.462 285.526 260.999 284.853C262.535 284.181 263.385 282.692 264.072 281.222C264.841 279.599 265.479 277.917 265.981 276.193C265.026 275.916 263.972 276.531 263.456 277.39C262.996 278.286 262.774 279.285 262.812 280.292C262.812 281.074 262.86 281.981 263.495 282.439C263.737 282.591 264.015 282.677 264.302 282.689C264.588 282.701 264.872 282.638 265.126 282.506C265.629 282.232 266.057 281.839 266.372 281.361C268.085 278.975 268.433 275.844 270.189 273.516C270.366 273.277 270.619 273.038 270.91 273.081C271.02 273.12 271.12 273.183 271.203 273.266C271.286 273.348 271.349 273.448 271.387 273.559C271.789 274.429 271.849 275.419 271.554 276.331C271.781 275.573 272.161 274.869 272.669 274.262C273.178 273.656 273.805 273.16 274.513 272.805C275.367 272.385 276.321 272.175 277.123 271.664C278.397 270.858 279.103 269.421 279.747 268.061" stroke="#273CB3" stroke-width="0.811208" stroke-linecap="round" stroke-linejoin="round"/>
<path d="M366.58 182.465C367.057 180.78 367.754 178.914 368.15 178.752C368.546 178.59 371.013 179.191 373.155 179.845C381.845 182.474 399.4 186.525 408.114 189.15C408.262 189.181 408.398 189.254 408.505 189.36C408.61 189.522 408.647 189.719 408.61 189.909C408.479 193.264 408.161 196.61 407.656 199.929C406.729 205.315 404.834 210.489 402.063 215.199C401.905 215.528 401.665 215.811 401.366 216.02C401.088 216.156 400.784 216.231 400.474 216.24C396.179 216.679 382.919 215.6 378.648 214.903C373.723 214.097 369.133 211.95 364.614 209.826C362.929 209.034 361.097 208.085 360.448 206.338C359.799 204.592 360.639 202.898 361.264 201.251C361.98 199.343 362.486 197.386 363.025 195.425C364.212 191.118 365.397 186.797 366.58 182.465Z" fill="#F6F3EE"/>
<path d="M364.729 212.78C364.39 210.633 364.065 208.366 364.872 206.348C365.678 204.329 368.05 202.764 370.04 203.637C370.426 203.809 370.822 204.186 370.693 204.592C369.898 204.099 369.275 203.373 368.908 202.513C368.542 201.653 368.45 200.7 368.645 199.786C368.84 198.871 369.313 198.039 370 197.404C370.686 196.769 371.551 196.361 372.478 196.236C372.386 194.516 372.088 192.813 371.591 191.164C371.525 190.778 371.308 190.435 370.989 190.209C370.646 190.038 370.111 190.305 370.207 190.687C369.835 191.77 371.638 192.514 372.502 191.774C373.366 191.035 373.413 189.713 373.308 188.573C373.118 186.483 372.669 184.416 372.636 182.317C372.602 180.217 373.032 178.022 374.382 176.409" stroke="#273CB3" stroke-width="0.811208" stroke-linecap="round" stroke-linejoin="round"/>
<path d="M377.651 205.918C376.754 204.048 375.837 202.101 375.89 200.011C375.866 199.739 375.911 199.465 376.021 199.215C376.13 198.965 376.3 198.747 376.515 198.579C376.786 198.466 377.087 198.452 377.367 198.54C377.647 198.627 377.888 198.81 378.047 199.056C378.352 199.556 378.532 200.123 378.572 200.707C378.167 200.322 377.876 199.833 377.73 199.294C377.584 198.755 377.588 198.186 377.741 197.649C377.985 196.856 378.538 196.217 378.925 195.468C379.311 194.719 379.497 193.783 379.006 193.115C378.962 193.039 378.9 192.974 378.825 192.928C378.75 192.881 378.664 192.854 378.576 192.848C378.233 192.848 378.137 193.325 378.142 193.664C378.105 194.217 378.213 194.77 378.457 195.267C378.586 195.512 378.804 195.698 379.066 195.787C379.328 195.876 379.614 195.861 379.865 195.745C380.285 195.477 380.342 194.9 380.371 194.399C380.439 193.495 380.426 192.586 380.332 191.684C380.113 190.042 379.378 188.296 380.127 186.817C380.213 186.645 380.347 186.463 380.538 186.454C380.625 186.459 380.71 186.485 380.786 186.528C380.862 186.57 380.927 186.63 380.977 186.702C381.288 187.048 381.536 187.447 381.707 187.881C381.74 187.962 381.769 188.067 381.707 188.134C381.645 188.2 381.497 188.134 381.554 188.052" stroke="#273CB3" stroke-width="0.811208" stroke-linecap="round" stroke-linejoin="round"/>
<path d="M385.086 212.785C385.416 211.973 385.551 211.096 385.482 210.222C385.343 208.552 384.465 206.882 385.004 205.279C385.037 205.146 385.097 205.022 385.178 204.913C385.26 204.804 385.364 204.712 385.482 204.644C385.637 204.586 385.807 204.575 385.969 204.614C386.13 204.654 386.276 204.74 386.388 204.864C386.603 205.115 386.765 205.407 386.865 205.722C386.917 205.818 386.948 205.924 386.957 206.032C386.965 206.141 386.95 206.25 386.913 206.352C386.842 206.456 386.734 206.528 386.61 206.552C386.487 206.576 386.359 206.551 386.255 206.481C386.042 206.347 385.875 206.15 385.777 205.918C385.388 205.137 385.173 204.281 385.147 203.408C385.12 202.536 385.283 201.668 385.625 200.865C385.754 200.483 385.97 200.137 386.256 199.853C386.542 199.569 386.889 199.355 387.271 199.228C388.058 199.056 389.008 199.734 388.831 200.516C388.803 200.677 388.714 200.82 388.583 200.917C388.505 200.971 388.415 201.006 388.321 201.017C387.624 201.113 387.152 200.34 386.918 199.677C386.469 198.395 386.168 197.066 386.021 195.716C386.015 195.425 385.934 195.141 385.787 194.89C385.746 194.831 385.695 194.781 385.634 194.742C385.574 194.703 385.507 194.676 385.436 194.664C385.366 194.651 385.294 194.652 385.224 194.667C385.153 194.682 385.087 194.711 385.028 194.752C385.639 194.876 386.088 195.372 386.584 195.749C387.08 196.126 387.791 196.389 388.297 196.026C388.803 195.663 388.774 195.019 388.774 194.447C388.717 193.634 388.617 192.825 388.474 192.023C388.24 190.71 387.93 189.217 388.731 188.148C388.932 187.876 389.318 187.642 389.585 187.847" stroke="#273CB3" stroke-width="0.811208" stroke-linecap="round" stroke-linejoin="round"/>
<path d="M395.292 210.251C395.005 209.828 394.804 209.352 394.701 208.851C394.598 208.349 394.594 207.833 394.691 207.331C394.882 206.329 395.202 205.357 395.645 204.439C395.716 204.235 395.841 204.055 396.008 203.919C396.433 203.623 397.024 204.019 397.234 204.491C397.444 204.964 397.459 205.513 397.712 205.966C396.781 204.728 396.225 203.249 396.108 201.705C396.041 200.75 396.108 199.796 395.784 198.908C395.564 198.364 394.949 197.83 394.443 198.131C393.937 198.431 394.071 199.085 394.3 199.562C394.588 200.139 395.012 200.637 395.534 201.014C396.057 201.391 396.663 201.636 397.301 201.728C397.506 201.786 397.724 201.783 397.927 201.72C398.13 201.656 398.311 201.535 398.446 201.371C398.533 201.2 398.581 201.013 398.585 200.822C398.685 199.491 398.585 198.153 398.289 196.852C398.026 195.687 397.607 194.542 397.559 193.349C397.511 192.156 397.922 190.839 398.952 190.228C399.221 190.058 399.536 189.975 399.854 189.99C400.536 190.047 401.014 190.686 401.286 191.307C401.558 191.927 401.62 192.815 400.999 193.015C400.806 193.048 400.608 193.032 400.422 192.97C400.237 192.907 400.069 192.8 399.935 192.657C398.58 191.533 397.713 189.927 397.516 188.177C397.483 187.885 397.516 187.513 397.797 187.413" stroke="#273CB3" stroke-width="0.811208" stroke-linecap="round" stroke-linejoin="round"/>
<path d="M393.675 215.113C395.809 215.314 397.958 215.314 400.093 215.113C400.289 215.108 400.481 215.059 400.656 214.97C400.788 214.881 400.901 214.768 400.99 214.636C402.249 213.013 403.196 211.17 403.782 209.201" stroke="#273CB3" stroke-width="0.811208" stroke-linecap="round" stroke-linejoin="round"/>
<path d="M404.339 207.574C404.535 206.987 404.702 206.391 404.845 205.785" stroke="#273CB3" stroke-width="0.811208" stroke-linecap="round" stroke-linejoin="round"/>
<path d="M403.566 188.544L404.783 188.797C405.284 188.897 405.785 188.997 406.272 189.14C406.763 189.281 407.242 189.461 407.704 189.68C407.773 189.708 407.837 189.75 407.89 189.804C407.961 189.9 407.997 190.018 407.995 190.138C408.026 190.568 408.026 191 407.995 191.431" stroke="#273CB3" stroke-width="0.811208" stroke-linecap="round" stroke-linejoin="round"/>
<path d="M400.918 183.347C407.468 176.316 414.527 169.777 422.038 163.783C411.9 153.075 403.179 141.11 396.089 128.18C396.189 128.362 382.809 138.072 381.564 139.041C379.311 140.792 368.527 147.287 369.095 150.312C369.3 151.405 371.882 153.557 372.531 154.721C373.8 157.007 375.093 159.255 376.568 161.402C379.471 165.635 382.832 169.537 386.588 173.036C390.902 177.074 395.718 180.54 400.918 183.347Z" fill="#F6F3EE"/>
<path d="M371.724 156.663C373.734 155.544 375.236 153.693 375.918 151.496C376.109 150.88 376.152 150.164 376.844 149.907C377.138 149.817 377.448 149.786 377.754 149.816C378.06 149.846 378.358 149.937 378.629 150.083C378.911 150.206 379.153 150.406 379.328 150.658C379.503 150.911 379.605 151.208 379.621 151.515C379.629 151.797 379.538 152.073 379.363 152.295C379.189 152.517 378.943 152.672 378.667 152.731L379.144 153.075C379.259 151.911 379.43 150.589 380.203 149.658C381.11 148.566 382.556 148.594 383.854 148.618C385.026 148.715 386.204 148.542 387.299 148.112C388.304 147.651 389.155 146.909 389.747 145.975C390.31 145.087 390.725 143.87 390.272 142.854C390.103 142.456 389.791 142.137 389.397 141.96C389.004 141.784 388.558 141.762 388.149 141.899C387.97 141.97 387.811 142.082 387.683 142.225C387.555 142.369 387.463 142.54 387.414 142.726C387.364 142.911 387.358 143.105 387.397 143.293C387.436 143.481 387.519 143.658 387.638 143.808C387.927 144.176 388.339 144.427 388.799 144.515C389.258 144.603 389.734 144.521 390.138 144.285C391.274 143.675 391.952 142.377 392.863 141.508C393.925 140.407 395.314 139.677 396.824 139.428C397.272 139.37 397.301 138.655 396.824 138.712C394.876 139.03 393.105 140.033 391.832 141.542C391.164 142.272 390.596 143.307 389.661 143.718C389.433 143.824 389.177 143.857 388.929 143.809C388.682 143.762 388.455 143.638 388.282 143.455C388.188 143.376 388.123 143.267 388.098 143.146C388.073 143.026 388.09 142.9 388.145 142.79C388.2 142.68 388.29 142.591 388.402 142.539C388.513 142.486 388.639 142.473 388.759 142.501C390.143 142.563 389.766 144.409 389.356 145.197C388.885 146.096 388.153 146.831 387.256 147.306C385.319 148.337 383.133 147.416 381.139 148.136C379.144 148.857 378.624 151.114 378.438 153.037C378.414 153.29 378.686 153.423 378.891 153.385C380.098 153.156 380.676 151.729 380.213 150.656C379.914 150.082 379.437 149.622 378.853 149.344C378.269 149.066 377.611 148.985 376.978 149.114C375.336 149.439 375.393 151.305 374.764 152.541C374.018 154.005 372.856 155.215 371.423 156.019C371.022 156.244 371.385 156.859 371.786 156.635L371.724 156.663Z" fill="#273CB3"/>
<path d="M386.832 155.475C388.34 155.571 389.629 154.616 390.483 153.447C391.513 152.04 391.614 150.007 393.274 149.153C393.861 148.842 395.46 148.346 395.598 149.358C395.618 149.552 395.607 149.749 395.565 149.94C395.565 150.054 395.527 150.417 395.426 150.193C395.293 149.878 395.76 149.31 395.97 149.067C397.006 147.879 398.576 147.378 399.926 146.647C401.277 145.917 402.622 144.872 402.923 143.274C403.009 142.82 402.317 142.63 402.236 143.083C401.854 145.101 399.735 145.946 398.094 146.752C397.22 147.144 396.415 147.672 395.708 148.318C395.193 148.828 394.529 149.673 394.649 150.451C394.66 150.62 394.728 150.781 394.841 150.908C394.953 151.034 395.105 151.12 395.272 151.152C395.439 151.184 395.611 151.159 395.763 151.082C395.914 151.005 396.036 150.881 396.109 150.727C396.273 150.397 396.359 150.033 396.359 149.663C396.359 149.294 396.273 148.93 396.109 148.599C395.632 147.893 394.563 147.993 393.842 148.184C392.977 148.407 392.21 148.911 391.661 149.615C390.903 150.598 390.707 151.896 390.02 152.922C389.333 153.948 388.192 154.831 386.866 154.769C386.389 154.74 386.389 155.456 386.866 155.485L386.832 155.475Z" fill="#273CB3"/>
<path d="M384.823 168.106C384.947 166.369 385.715 164.107 387.309 163.172C389.122 162.113 389.986 164.351 389.136 165.706L389.805 165.883C389.902 164.992 390.226 164.141 390.746 163.411C391.265 162.681 391.963 162.096 392.773 161.712C394.385 160.944 396.366 161.593 397.893 160.619C398.601 160.103 399.166 159.415 399.534 158.62C399.985 157.911 400.169 157.066 400.054 156.234C399.797 155.065 398.093 154.168 397.191 155.28C397.154 155.319 397.126 155.366 397.109 155.418C397.092 155.47 397.087 155.524 397.094 155.578C397.101 155.632 397.12 155.684 397.149 155.729C397.178 155.775 397.217 155.814 397.263 155.843C398.537 156.754 400.088 155.933 401.161 155.093C402.712 153.881 404.144 152.483 405.623 151.181C405.967 150.875 405.461 150.374 405.117 150.675L401.371 153.982C400.441 154.802 398.895 156.134 397.626 155.227L397.697 155.785C398.174 155.198 399.057 155.647 399.291 156.263C399.62 157.117 399.028 158.114 398.594 158.816C398.397 159.198 398.123 159.536 397.788 159.807C397.454 160.078 397.067 160.276 396.652 160.39C395.838 160.509 395.017 160.582 394.195 160.61C392.866 160.789 391.637 161.411 390.706 162.376C389.775 163.341 389.197 164.591 389.065 165.926C389.027 166.302 389.542 166.403 389.733 166.107C390.687 164.608 390.038 161.884 387.853 162.246C386.684 162.437 385.82 163.454 385.238 164.413C384.564 165.55 384.169 166.83 384.083 168.149C384.05 168.626 384.766 168.626 384.799 168.149L384.823 168.106Z" fill="#273CB3"/>
<path d="M387.676 172.329C391.398 175.751 395.688 178.496 400.354 180.441C400.511 180.522 400.684 180.564 400.86 180.565C401.07 180.532 401.267 180.441 401.428 180.303C404.12 178.379 406.591 176.162 408.796 173.694" stroke="#273CB3" stroke-width="0.811208" stroke-linecap="round" stroke-linejoin="round"/>
<path d="M410.113 172.301C410.18 172.192 410.262 172.094 410.357 172.01L411.445 170.931" stroke="#273CB3" stroke-width="0.811208" stroke-linecap="round" stroke-linejoin="round"/>
<path d="M392.882 131.702C393.786 131.132 394.619 130.456 395.363 129.688" stroke="#273CB3" stroke-width="0.811208" stroke-linecap="round" stroke-linejoin="round"/>
<path d="M453.031 208.466C453.102 212.181 452.168 215.847 450.326 219.074C450.021 219.522 449.801 220.021 449.677 220.549C451.946 222.323 453.699 224.672 454.754 227.353C454.873 227.663 455.107 228.04 455.427 227.95C455.553 227.894 455.657 227.798 455.723 227.678C456.073 226.996 456.273 226.248 456.31 225.483C456.631 223.096 457.354 220.781 458.447 218.635C457.736 218.515 457.058 218.247 456.458 217.847C455.858 217.448 455.349 216.926 454.964 216.316C454.204 215.092 453.621 213.766 453.232 212.379" fill="#F6F3EE"/>
<path d="M453.031 208.466C453.102 212.181 452.168 215.847 450.326 219.074C450.021 219.522 449.801 220.021 449.677 220.549C451.946 222.323 453.699 224.672 454.754 227.353C454.873 227.663 455.107 228.04 455.427 227.95C455.553 227.894 455.657 227.798 455.723 227.678C456.073 226.996 456.273 226.248 456.31 225.483C456.631 223.096 457.354 220.781 458.447 218.635C457.736 218.515 457.058 218.247 456.458 217.847C455.858 217.448 455.349 216.926 454.964 216.316C454.204 215.092 453.621 213.766 453.232 212.379" stroke="#F6F3EE" stroke-width="0.811208" stroke-linecap="round" stroke-linejoin="round"/>
<path d="M190.538 20.9197C166.908 20.4425 144.118 32.6917 120.569 30.6255C111.808 29.8573 103.348 27.123 94.6869 25.596C76.6685 22.4132 55.6582 25.7249 44.7403 40.3887C39.3482 47.6323 37.1054 56.6892 35.1967 65.5123C27.7145 100.089 23.5487 136.894 35.3112 170.254C41.925 189.016 54.1742 206.596 71.9922 215.438C83.268 221.035 96.1137 222.839 108.702 222.596C115.664 222.462 122.759 221.689 129.092 218.778C133.84 216.607 137.972 213.319 142.057 210.065C152.669 201.614 163.334 193.106 172.362 182.975C180.279 174.095 186.821 164.088 194.184 154.745C207.048 138.453 222.349 124.243 239.545 112.615C249.179 106.092 259.682 100.117 266.267 90.5357C291.205 54.2222 217.752 21.4398 190.538 20.9197Z" fill="#8095ED"/>
<path d="M243.157 168.187C249.961 156.993 264.286 151.849 270.413 140.291C268.667 140.711 267.073 139.213 265.923 137.843C255.888 126.081 246.552 113.739 237.965 100.881C236.624 106.412 232.153 110.549 227.906 114.333C224.217 117.611 215.824 122.497 214.755 127.594C213.829 132.012 218.052 138.769 220.032 142.486C221.369 144.982 241.558 170.702 243.157 168.187Z" fill="#F6F3EE"/>
<path d="M218.735 124.969C218.078 126.041 217.738 127.277 217.752 128.534C217.652 131.611 218.835 135.849 221.608 139.413" stroke="#273CB3" stroke-width="0.811208" stroke-linecap="round" stroke-linejoin="round"/>
<path d="M228.03 117.592C230.516 116.036 237.851 110.1 238.643 104.555C242.832 109.652 245.638 114.228 249.141 119.825" stroke="#273CB3" stroke-width="0.811208" stroke-linecap="round" stroke-linejoin="round"/>
<path d="M225.315 130.027C225.444 129.193 225.738 128.394 226.179 127.675C226.405 127.319 226.73 127.037 227.114 126.862C227.498 126.688 227.924 126.629 228.341 126.692L228.403 128.934C228.625 127.771 229.153 126.688 229.932 125.796C230.711 124.904 231.713 124.235 232.836 123.857C233.21 123.764 233.572 123.628 233.914 123.452C234.252 123.222 234.545 122.933 234.778 122.597C235.41 121.781 235.984 120.922 236.496 120.025C236.863 119.386 237.126 118.432 236.496 118.04C235.957 117.702 235.212 118.222 235.064 118.847C235.006 119.486 235.158 120.126 235.498 120.67C235.813 121.314 236.396 122.073 237.078 121.844C237.411 121.68 237.673 121.402 237.818 121.061L242.002 113.626" stroke="#273CB3" stroke-width="0.811208" stroke-linecap="round" stroke-linejoin="round"/>
<path d="M226.389 142.553C224.957 136.001 240.604 129.898 237.364 135.739C234.677 140.602 230.717 130.7 237.808 129.211C238.582 129.108 239.334 128.876 240.031 128.524C241.2 127.818 241.644 126.319 241.625 124.95C241.625 124.377 241.024 123.471 240.671 123.934C239.998 124.845 239.311 128.462 241.864 128.381C243.772 128.324 245.514 123.442 246.449 121.381C246.927 120.359 247.647 119.119 248.754 119.281" stroke="#273CB3" stroke-width="0.811208" stroke-linecap="round" stroke-linejoin="round"/>
<path d="M233.566 154.13C233.493 152.483 233.907 150.851 234.756 149.437C235.604 148.023 236.85 146.891 238.337 146.18C238.63 146.022 238.96 145.948 239.292 145.965C239.558 146.013 239.808 146.124 240.022 146.29C240.634 146.721 241.126 147.301 241.453 147.974C241.572 148.18 241.613 148.423 241.568 148.656C241.496 148.881 241.201 149.038 241.014 148.895C240.555 147.169 240.754 145.333 241.573 143.746C242.227 142.491 243.238 141.46 243.987 140.253C244.136 140.051 244.226 139.811 244.25 139.561C244.258 139.436 244.222 139.312 244.148 139.211C244.073 139.11 243.966 139.038 243.844 139.008C243.755 139.001 243.665 139.016 243.583 139.05C243.5 139.084 243.426 139.136 243.367 139.203C243.098 139.508 242.93 139.888 242.885 140.291C242.698 141.345 242.652 142.418 242.747 143.484C242.744 143.865 242.852 144.24 243.057 144.562C244.966 146.948 248.215 137.123 248.616 136.092C248.963 135.24 249.398 134.425 249.914 133.663C250.358 132.99 251.016 132.265 251.823 132.384C252.163 132.471 252.463 132.673 252.672 132.955C252.881 133.238 252.985 133.584 252.968 133.935C252.912 134.638 252.663 135.312 252.247 135.882C252.152 136.04 252.004 136.216 251.823 136.183C251.737 136.158 251.66 136.108 251.603 136.04C250.778 135.162 250.859 133.749 251.331 132.637C251.623 131.888 252.119 131.235 252.763 130.752C253.089 130.517 253.465 130.357 253.861 130.285C254.257 130.214 254.665 130.231 255.053 130.337" stroke="#273CB3" stroke-width="0.811208" stroke-linecap="round" stroke-linejoin="round"/>
<path d="M248.177 154.029C249.26 154.449 250.381 153.552 251.116 152.646C252.685 150.735 253.871 148.539 254.609 146.18C254.752 145.703 254.848 145.12 254.466 144.815C254.336 144.726 254.183 144.675 254.026 144.668C253.868 144.66 253.712 144.696 253.574 144.772C252.619 145.249 252.824 146.896 253.793 147.377C254.762 147.859 255.979 147.377 256.709 146.585C257.439 145.793 257.797 144.729 258.188 143.722C259.276 140.737 260.98 138.014 263.189 135.729C265.412 133.441 268.349 131.978 271.516 131.583" stroke="#273CB3" stroke-width="0.811208" stroke-linecap="round" stroke-linejoin="round"/>
<path d="M103.128 98.5284C113.442 89.1438 124.682 80.83 136.674 73.715C130.833 57.7222 127.174 41.0153 125.794 24.0452C125.794 24.0452 99.6639 33.1116 97.3019 34.1805C92.6923 36.2324 88.1655 38.4592 83.7213 40.861C78.6727 43.5857 77.2794 43.7241 78.2528 49.4837C81.302 67.5784 90.6929 85.1387 103.128 98.5284Z" fill="#F6F3EE"/>
<path d="M163.397 126.821C163.869 127.472 164.523 127.97 165.277 128.252C165.967 128.37 166.676 128.313 167.338 128.085L199.414 119.878C200.493 119.601 201.715 119.21 202.149 118.184C202.368 117.475 202.368 116.716 202.149 116.008C198.288 97.3069 195.826 85.3535 194.395 63.4031C173.876 68.175 151.004 69.7067 150.017 73.4239C148.094 80.5912 152.741 114.562 163.397 126.821Z" fill="#F6F3EE"/>
<path d="M33.4404 51.6119C30.5392 82.9675 39.2668 117.515 64.2568 136.674C69.439 140.644 75.8714 143.985 82.2657 142.677C93.217 140.42 103.739 125.847 98.6282 115.898C96.3043 111.379 88.3974 117.873 87.5767 122.889C86.7559 127.904 89.3279 132.833 92.3008 136.951C108.735 159.751 137.857 169.175 165.405 174.749C177.115 177.135 189.102 179.115 200.807 181.835" stroke="#F6F3EE" stroke-width="0.811208" stroke-linecap="round" stroke-linejoin="round"/>
<path d="M116.122 137.853C117.077 166.961 113.059 180.919 114.428 182.999C117.077 187.003 140.444 187.112 149.186 191.011C152.111 187.017 155.466 146.065 151.3 136.708C142.677 138.86 118.508 134.513 116.122 137.853Z" fill="#F6F3EE"/>
<path d="M84.8754 55.563C84.809 53.759 85.2003 51.9674 86.013 50.3554C86.8257 48.7434 88.0333 47.3633 89.5232 46.3439C90.1657 45.8514 90.9472 45.5742 91.7564 45.5518C93.0782 45.609 94.1423 46.8115 94.4524 48.0951C94.7626 49.3788 94.5431 50.734 94.3045 52.0367C93.4122 52.3039 92.5533 51.2827 92.6296 50.357C92.706 49.4313 93.3883 48.6725 94.0898 48.0522C97.9836 44.5974 103.748 42.6505 105.466 37.7355C103.806 39.2282 102.75 41.277 102.498 43.4951C102.383 44.5688 102.498 45.7856 103.323 46.5061C104.206 47.2935 105.623 47.1885 106.64 46.5825C107.656 45.9765 108.367 44.9792 109.026 44.0057L114.857 35.7171C115.811 34.381 117.243 32.854 118.774 33.3932C119.314 33.5793 119.729 33.9944 120.278 34.2139C121.881 34.8724 123.556 33.5316 124.777 32.3052C129.034 27.9947 133.292 23.6841 137.551 19.3736" stroke="#273CB3" stroke-width="0.811208" stroke-linecap="round" stroke-linejoin="round"/>
<path d="M89.6047 71.52C89.258 69.3361 89.6656 67.0993 90.7602 65.178C91.8549 63.2568 93.5713 61.7657 95.6267 60.9504C95.8605 62.2913 96.1039 63.6703 96.8769 64.806C97.65 65.9417 99.0147 66.7672 100.337 66.4523C101.227 66.1642 102.005 65.6033 102.56 64.849C103.592 63.6393 104.462 62.2998 105.147 60.8645C105.905 59.2707 106.449 57.5242 107.604 56.1977C108.759 54.8711 110.801 54.0599 112.314 54.9713C113.826 55.8827 113.559 58.7888 111.798 58.9224C111.04 57.0995 112.276 54.9856 113.955 53.9215C115.635 52.8574 117.62 52.49 119.457 51.7742C121.294 51.0584 123.131 49.7319 123.494 47.7897C122.06 48.9861 120.865 50.4433 119.973 52.0844C119.381 53.1676 119.352 55.0524 120.583 55.0811C121.123 55.0811 121.562 54.6659 121.934 54.2699L131.224 44.2968C134.641 40.632 138.898 36.6619 143.86 37.3251" stroke="#273CB3" stroke-width="0.811208" stroke-linecap="round" stroke-linejoin="round"/>
<path d="M98.5996 83.9172C97.7407 84.1558 97.6452 85.4966 98.3085 86.0692C98.9718 86.6419 100.055 86.5035 100.79 86.0024C101.484 85.4409 102.049 84.7361 102.446 83.9362C105.07 79.4794 107.738 74.9175 108.802 69.8499C107.905 69.4156 107.26 70.8042 107.194 71.7586L106.888 76.3491C106.826 76.6747 106.878 77.012 107.036 77.3034C107.137 77.4216 107.261 77.5181 107.401 77.587C107.54 77.6559 107.692 77.6958 107.847 77.7043C109.856 77.9667 111.421 76.0389 112.362 74.2447C113.302 72.4505 114.27 70.3557 116.241 69.8212C116.86 70.3965 117.336 71.1088 117.63 71.901C117.924 72.6932 118.028 73.5432 117.935 74.3831C117.787 72.3503 119.304 70.5179 121.075 69.5111C122.845 68.5042 124.892 68.1034 126.801 67.4019C129.631 66.3675 132.183 64.6937 134.259 62.5108" stroke="#273CB3" stroke-width="0.811208" stroke-linecap="round" stroke-linejoin="round"/>
<path d="M111.771 29.6854C113.044 29.3758 114.291 28.969 115.502 28.4686L122.493 25.7678C123.522 25.4149 124.504 24.9339 125.413 24.3362C125.207 25.3786 125.376 26.4604 125.89 27.3902" stroke="#273CB3" stroke-width="0.811208" stroke-linecap="round" stroke-linejoin="round"/>
<path d="M103.815 95.8801L108.387 91.8479C109.852 90.4963 111.408 89.2464 113.044 88.1068" stroke="#273CB3" stroke-width="0.811208" stroke-linecap="round" stroke-linejoin="round"/>
<path d="M115.378 86.2601L116.857 84.8286" stroke="#273CB3" stroke-width="0.811208" stroke-linecap="round" stroke-linejoin="round"/>
<path d="M118.116 147.01C118.274 147.893 119.261 148.442 120.154 148.389C121.047 148.274 121.899 147.947 122.64 147.435L130.628 142.868C129.387 142.486 128.061 143.455 127.574 144.653C127.087 145.851 127.221 147.206 127.359 148.494C129.793 147.476 132.238 146.492 134.693 145.54C136.97 144.658 139.332 143.789 141.775 143.851C142.548 143.851 143.517 144.166 143.598 144.939C143.595 145.163 143.548 145.385 143.458 145.59C143.369 145.796 143.24 145.982 143.078 146.137C142.053 147.36 140.829 148.401 139.456 149.215C139.06 148.17 140.353 147.306 141.436 146.996C143.594 146.413 145.85 146.286 148.059 146.624" stroke="#273CB3" stroke-width="0.811208" stroke-linecap="round" stroke-linejoin="round"/>
<path d="M119.333 158.701C123.68 157.546 127.894 154.54 132.25 155.647C132.432 156.08 132.48 156.557 132.388 157.017C132.296 157.478 132.07 157.9 131.736 158.231C131.403 158.562 130.979 158.785 130.518 158.873C130.057 158.961 129.58 158.91 129.149 158.725C130.103 157.341 132.079 157.04 133.744 157.346C135.409 157.651 136.951 158.424 138.621 158.715C140.753 159.087 142.948 158.664 144.791 157.527C143.664 157.392 142.523 157.589 141.506 158.092C140.489 158.595 139.64 159.384 139.064 160.362C143.96 161.932 148.985 158.21 154.124 158.128" stroke="#273CB3" stroke-width="0.811208" stroke-linecap="round" stroke-linejoin="round"/>
<path d="M121.133 172.215C120.627 172.348 120.178 171.738 120.274 171.222C120.417 170.717 120.739 170.281 121.18 169.996C121.839 169.459 122.535 168.968 123.261 168.526C125.17 167.362 127.913 166.656 129.426 168.297C129.905 168.788 130.187 169.439 130.217 170.124C130.247 170.81 130.023 171.482 129.589 172.014C129.154 172.545 128.539 172.897 127.862 173.004C127.184 173.111 126.49 172.964 125.914 172.592C125.69 171.962 126.577 171.552 127.24 171.489C129.547 171.275 131.87 171.308 134.169 171.59C136.192 171.838 138.726 172.067 139.781 170.311C138.755 170.403 137.78 170.798 136.98 171.447C136.235 172.148 135.92 173.398 136.536 174.214C137.49 175.46 139.447 174.801 140.73 173.918C142.577 172.644 144.3 171.098 146.418 170.368C148.537 169.638 151.286 170.02 152.436 171.948" stroke="#273CB3" stroke-width="0.811208" stroke-linecap="round" stroke-linejoin="round"/>
<path d="M119.161 180.074C118.708 180.418 118.822 181.186 119.252 181.563C119.719 181.899 120.285 182.067 120.86 182.04C123.899 182.157 126.891 181.268 129.373 179.511C128.28 179.678 126.925 180.103 126.825 181.2C126.739 182.155 127.75 182.861 128.691 183.052C130.967 183.529 133.195 182.298 135.438 181.706C137.15 181.252 138.936 181.155 140.687 181.42C141.079 181.451 141.454 181.591 141.77 181.825C141.923 181.949 142.023 182.125 142.052 182.32C142.081 182.514 142.037 182.712 141.928 182.875" stroke="#273CB3" stroke-width="0.811208" stroke-linecap="round" stroke-linejoin="round"/>
<path d="M37.0342 118.637C40.734 129.511 48.2605 138.668 58.2115 144.405" stroke="#F6F3EE" stroke-width="0.811208" stroke-linecap="round" stroke-linejoin="round"/>
<path d="M146.108 84.5136C149.542 81.2923 154.109 79.5583 158.816 79.6893C158.841 80.7621 158.501 81.8115 157.85 82.665C157.2 83.5184 156.278 84.1249 155.237 84.3848C156.258 81.6648 159.446 80.4003 162.347 80.2285C165.248 80.0567 168.178 80.6532 171.051 80.2285C173.923 79.8038 176.906 77.814 177.116 74.9127C175.145 74.5778 173.118 74.9442 171.389 75.9482C169.925 76.8024 168.641 78.3723 168.922 80.0472C169.204 81.7221 170.912 82.7767 172.573 82.9818C176.109 83.4256 179.33 80.9729 181.806 78.4057C184.283 75.8384 186.669 72.8751 190.071 71.811" stroke="#273CB3" stroke-width="0.811208" stroke-linecap="round" stroke-linejoin="round"/>
<path d="M152.955 101.253C154.959 100.141 157.283 99.7739 159.392 98.8672C161.501 97.9606 163.549 96.2571 163.687 93.9761C162.871 93.4512 161.955 94.4533 161.511 95.3266C161.067 96.1998 160.557 97.2353 160.557 98.2946C160.557 99.354 161.201 100.48 162.236 100.657C163.424 100.857 164.407 99.8121 165.233 98.934C168.039 95.9517 171.689 93.8902 175.426 92.2201C177.034 91.4996 179.171 90.9413 180.36 92.244C180.723 92.7074 180.926 93.2766 180.937 93.8655C180.948 94.4545 180.767 95.031 180.422 95.5079C179.697 96.4506 178.631 97.071 177.454 97.2353C177.043 96.6674 177.43 95.8037 178.045 95.484C178.691 95.2162 179.399 95.1368 180.088 95.255L183.189 95.4888C184.621 95.5985 186.076 95.694 187.393 95.1739C188.71 94.6537 189.817 93.3033 189.579 91.9052C189.574 91.8365 189.555 91.7695 189.524 91.708C189.493 91.6466 189.45 91.592 189.397 91.5473C189.338 91.5142 189.272 91.4934 189.204 91.486C189.136 91.4786 189.067 91.4848 189.001 91.5043C188.652 91.5804 188.336 91.7668 188.101 92.0361C187.866 92.3053 187.724 92.6431 187.695 92.9995C187.667 93.3559 187.754 93.7119 187.944 94.015C188.133 94.318 188.416 94.552 188.748 94.6824C190.046 95.1882 191.354 93.9714 192.089 92.7736C192.824 91.5759 193.659 90.1778 195.047 90.0346" stroke="#273CB3" stroke-width="0.811208" stroke-linecap="round" stroke-linejoin="round"/>
<path d="M161.765 113.436C162.528 111.36 163.946 109.589 165.805 108.39C167.663 107.191 169.861 106.629 172.067 106.788C172.369 106.8 172.664 106.875 172.935 107.008C173.137 107.138 173.31 107.309 173.442 107.509C173.575 107.71 173.664 107.935 173.704 108.172C174.109 109.976 172.272 111.89 170.454 111.565C170.211 111.054 170.788 110.553 171.28 110.281L176.557 107.366C178.237 106.44 180.093 105.271 180.427 103.377C178.585 103.711 177.512 105.734 177.407 107.6C177.335 108.85 177.707 110.291 178.838 110.835C179.793 111.312 180.986 110.926 181.821 110.262C182.656 109.599 183.252 108.688 183.958 107.876C185.292 106.362 187.01 105.235 188.931 104.617C189.847 104.326 190.897 104.169 191.722 104.655C192.105 104.882 192.402 105.229 192.568 105.641C192.733 106.054 192.758 106.51 192.637 106.938C192.517 107.367 192.259 107.743 191.903 108.009C191.546 108.276 191.112 108.417 190.668 108.411C190.746 107.816 190.997 107.258 191.391 106.805C191.785 106.353 192.303 106.027 192.882 105.868C193.303 105.803 193.719 105.701 194.122 105.562C195.334 104.999 195.363 103.315 195.21 101.988" stroke="#273CB3" stroke-width="0.811208" stroke-linecap="round" stroke-linejoin="round"/>
<path d="M159.946 119.295C161.203 121.796 162.75 124.139 164.556 126.277C164.769 126.576 165.059 126.812 165.396 126.959C165.751 127.042 166.122 127.028 166.469 126.916C170.719 125.962 174.943 124.912 179.139 123.767" stroke="#273CB3" stroke-width="0.811208" stroke-linecap="round" stroke-linejoin="round"/>
<path d="M180.962 123.337C181.439 123.298 181.903 123.158 182.322 122.927" stroke="#273CB3" stroke-width="0.811208" stroke-linecap="round" stroke-linejoin="round"/>
<path d="M218.392 60.8788C221.579 62.4583 223.707 67.211 224.867 68.6473C224.943 68.759 225.047 68.8494 225.168 68.9098C225.645 69.1054 225.945 68.3944 226.031 67.8838C226.516 65.5447 227.658 63.3925 229.324 61.6805C229.5 61.5565 229.648 61.3976 229.76 61.2137C229.871 61.0298 229.944 60.8248 229.973 60.6116C229.944 60.347 229.845 60.0949 229.686 59.8815C228.77 58.3879 227.301 58.6552 223.326 52.1559C222.906 52.0414 221.827 56.1022 221.469 56.7226C220.987 57.5433 220.148 59.5952 218.392 60.8788Z" fill="#F6F3EE" stroke="#F6F3EE" stroke-width="0.811208" stroke-linecap="round" stroke-linejoin="round"/>
<path d="M421.517 221.36C421.517 228.995 416.459 237.698 411.225 242.065C397.262 253.717 377.822 255.984 359.613 255.779C340.964 255.569 321.782 253.102 305.558 243.907" stroke="#F6F3EE" stroke-width="0.811208" stroke-linecap="round" stroke-linejoin="round"/>
<path d="M444.188 282.716C437.19 286.323 430.166 289.88 423.116 293.386C420.73 294.583 418.115 295.805 415.453 295.423C413.63 295.161 412.003 294.159 410.476 293.118C402.772 287.783 396.288 280.873 391.454 272.845C386.619 264.818 383.544 255.855 382.432 246.55C382.398 246.273 403.537 242.375 405.503 241.993C410.003 241.115 415.243 239.378 416.66 240.084C417.719 240.619 419.523 244.303 420.983 246.875C428.251 259.668 428.508 264.177 444.188 282.716Z" fill="#F6F3EE"/>
<path d="M381.745 253.383C383.959 254.185 385.892 256.108 388.24 255.932C390.864 255.736 392.534 253.03 393.336 250.525C393.536 249.914 393.56 249.012 392.935 248.874C392.434 249.107 392.029 249.506 391.789 250.004C391.55 250.502 391.491 251.068 391.622 251.605C391.753 252.141 392.067 252.616 392.509 252.947C392.951 253.279 393.495 253.446 394.047 253.422C394.968 253.422 395.793 252.878 396.562 252.362L401.968 248.75C402.228 248.543 402.534 248.4 402.86 248.335C403.686 248.23 404.349 249.136 404.321 249.967C404.292 250.797 403.791 251.527 403.314 252.205C402.837 251.451 403.567 250.477 404.383 250.153C405.199 249.828 406.134 249.857 406.936 249.494C408.334 248.869 408.964 247.271 409.469 245.825C409.694 245.176 409.55 244.088 408.887 244.269C408.777 244.318 408.678 244.389 408.595 244.478C408.513 244.566 408.45 244.671 408.41 244.785C407.456 246.607 407.804 249.337 409.717 250.072C411.378 250.711 413.139 249.547 414.537 248.445L417.519 246.097" stroke="#273CB3" stroke-width="0.811208" stroke-linecap="round" stroke-linejoin="round"/>
<path d="M402.149 260.503C402.846 258.465 403.777 256.208 405.8 255.454C406.155 255.302 406.544 255.248 406.928 255.296C407.311 255.345 407.675 255.495 407.981 255.731C408.515 256.208 408.639 257.048 409.178 257.53C410.099 258.351 411.564 257.726 412.519 256.938C413.741 255.912 414.746 254.652 415.472 253.231C415.391 253.122 415.287 253.032 415.168 252.966C415.049 252.901 414.917 252.862 414.781 252.851C414.646 252.841 414.51 252.86 414.382 252.906C414.254 252.953 414.138 253.026 414.041 253.121C413.861 253.342 413.749 253.611 413.718 253.894C413.687 254.178 413.737 254.464 413.864 254.719C414.128 255.225 414.501 255.665 414.957 256.008C415.111 256.176 415.3 256.31 415.509 256.4C415.719 256.491 415.945 256.536 416.174 256.533C416.78 256.437 417.071 255.764 417.348 255.22C417.624 254.677 418.221 254.109 418.779 254.39" stroke="#273CB3" stroke-width="0.811208" stroke-linecap="round" stroke-linejoin="round"/>
<path d="M402.741 282.725L402.159 283.059C403.487 282.651 404.696 281.926 405.681 280.945C406.635 279.991 407.351 278.841 408.439 278.082C409.527 277.324 411.197 277.128 412.07 278.125C412.182 279.493 411.867 280.862 411.168 282.043C410.873 280.988 410.918 279.867 411.297 278.839C411.676 277.811 412.369 276.928 413.278 276.317C415.119 275.138 417.186 276.713 419.366 276.794C421.175 276.856 421.977 274.255 422.778 272.633C422.148 272.194 421.523 273.382 421.919 274.041C422.497 274.995 423.871 275.2 424.925 274.814C425.98 274.427 426.834 273.616 427.669 272.905C428.504 272.194 429.53 271.507 430.652 271.473" stroke="#273CB3" stroke-width="0.811208" stroke-linecap="round" stroke-linejoin="round"/>
<path d="M435.189 274.041C436.643 276.496 438.407 278.754 440.438 280.759C440.591 280.907 440.758 281.112 440.677 281.308C440.624 281.408 440.54 281.488 440.438 281.537L435.667 284.496" stroke="#273CB3" stroke-width="0.811208" stroke-linecap="round" stroke-linejoin="round"/>
<path d="M434.321 285.25C433.815 285.625 433.272 285.945 432.698 286.204" stroke="#273CB3" stroke-width="0.811208" stroke-linecap="round" stroke-linejoin="round"/>
<path d="M383.319 247.18C384.125 251.998 385.32 256.742 386.893 261.367" stroke="#273CB3" stroke-width="0.811208" stroke-linecap="round" stroke-linejoin="round"/>
<path d="M401.815 271.435C402.822 269.025 404.072 266.372 406.52 265.451C407.736 265.038 409.049 265.01 410.281 265.37C411.197 265.609 412.146 266.067 412.552 266.926C412.958 267.785 412.461 269.059 411.512 269.097C411.442 268.567 411.511 268.027 411.711 267.531C411.912 267.035 412.238 266.6 412.657 266.267C413.506 265.611 414.527 265.215 415.596 265.127C416.36 265.036 417.214 265.008 417.768 264.468C417.966 264.27 418.114 264.026 418.197 263.757C418.343 263.262 418.305 262.731 418.091 262.262C417.878 261.792 417.502 261.415 417.033 261.2C416.725 261.45 416.528 261.811 416.483 262.206C416.439 262.6 416.55 262.996 416.794 263.309C417.059 263.607 417.402 263.824 417.784 263.935C418.167 264.047 418.573 264.048 418.956 263.939C419.721 263.704 420.384 263.216 420.836 262.555C421.337 261.877 421.69 261.071 422.334 260.522C423.179 259.806 424.353 259.673 425.455 259.568" stroke="#273CB3" stroke-width="0.811208" stroke-linecap="round" stroke-linejoin="round"/>
<path d="M381.912 226.609C374.277 225.177 368.236 229.5 366.132 231.724C361.026 237.116 357.361 248.301 357.099 255.717" stroke="#F6F3EE" stroke-width="0.811208" stroke-linecap="round" stroke-linejoin="round"/>
<path d="M236.386 230.817C238.957 236.929 242.614 242.524 247.18 247.333" stroke="#F6F3EE" stroke-width="0.811208" stroke-linecap="round" stroke-linejoin="round"/>
<path d="M242.25 236.305C244.172 239.497 246.604 242.352 249.451 244.756" stroke="#F6F3EE" stroke-width="0.811208" stroke-linecap="round" stroke-linejoin="round"/>
<path d="M277.624 223.645C279.604 228.317 283.388 231.953 287.168 235.346" stroke="#F6F3EE" stroke-width="0.811208" stroke-linecap="round" stroke-linejoin="round"/>
<path d="M282.715 235.933C285.033 238.028 287.533 239.911 290.188 241.559" stroke="#F6F3EE" stroke-width="0.811208" stroke-linecap="round" stroke-linejoin="round"/>
<path d="M277.667 230.398C278.003 231.135 278.439 231.823 278.965 232.44" stroke="#F6F3EE" stroke-width="0.811208" stroke-linecap="round" stroke-linejoin="round"/>
<path d="M434.841 212.231C437.562 217.916 439.014 224.124 439.097 230.426" stroke="#F6F3EE" stroke-width="0.811208" stroke-linecap="round" stroke-linejoin="round"/>
<path d="M430.813 204.883C431.522 205.827 432.16 206.822 432.722 207.86" stroke="#F6F3EE" stroke-width="0.811208" stroke-linecap="round" stroke-linejoin="round"/>
<path d="M433.939 217.981C434.903 220.292 435.647 222.689 436.163 225.139" stroke="#F6F3EE" stroke-width="0.811208" stroke-linecap="round" stroke-linejoin="round"/>
<path d="M367.563 239.068C365.671 243.261 364.33 247.681 363.574 252.219" stroke="#F6F3EE" stroke-width="0.811208" stroke-linecap="round" stroke-linejoin="round"/>
<path d="M370.536 234.43C369.739 234.969 369.328 235.914 368.966 236.816" stroke="#F6F3EE" stroke-width="0.811208" stroke-linecap="round" stroke-linejoin="round"/>
<path d="M373.819 237.021C371.588 239.91 370.054 243.276 369.338 246.856" stroke="#F6F3EE" stroke-width="0.811208" stroke-linecap="round" stroke-linejoin="round"/>
<path d="M301.612 167.581C297.427 167.362 293.023 167.185 289.268 169.013" stroke="#F6F3EE" stroke-width="0.811208" stroke-linecap="round" stroke-linejoin="round"/>
<path d="M295.046 170.168C292.183 169.939 289.52 171.37 287.024 172.759C286.547 173.031 286.07 173.298 285.593 173.599" stroke="#F6F3EE" stroke-width="0.811208" stroke-linecap="round" stroke-linejoin="round"/>
<path d="M296.047 201.91C295.389 203.618 293.828 204.825 292.173 205.598C288.131 207.483 283.354 207.259 279.317 209.144" stroke="#F6F3EE" stroke-width="0.811208" stroke-linecap="round" stroke-linejoin="round"/>
<path d="M286.456 202.874C282.851 203.314 279.339 204.323 276.049 205.861" stroke="#F6F3EE" stroke-width="0.811208" stroke-linecap="round" stroke-linejoin="round"/>
<path d="M291.491 202.249C290.528 202.227 289.567 202.325 288.628 202.54" stroke="#F6F3EE" stroke-width="0.811208" stroke-linecap="round" stroke-linejoin="round"/>
</svg>
