<svg width="48" height="41" viewBox="0 0 48 41" fill="none" xmlns="http://www.w3.org/2000/svg">
<path d="M45.7515 20.0796C45.7515 20.0796 41.6265 20.0796 34.5015 12.807C35.649 10.0626 35.979 9.64152 35.649 8.92957C35.319 8.21762 34.4978 8.0071 33.774 7.90375C32.8215 7.77361 15.024 7.83868 14.7578 7.85017C14.184 7.85017 13.0253 8.07217 12.564 8.6157C12.391 8.82119 12.2809 9.07408 12.2476 9.3429C12.2143 9.61172 12.2591 9.88462 12.3765 10.1276C12.9015 11.3831 12.4553 10.2999 13.5015 12.807C6.37653 20.0796 2.25153 20.0796 2.25153 20.0796C-1.92597 13.274 1.43403 5.73728 7.53528 3.59378C17.634 0.0531733 30.3578 0.0493455 40.4678 3.59378C46.5015 5.71432 49.974 13.1898 45.7515 20.0796Z" fill="url(#paint0_linear)"/>
<path d="M13.5016 12.807C6.37657 20.0796 2.25157 20.0796 2.25157 20.0796C0.939072 17.9399 0.185322 15.674 0.406572 13.1094C0.845322 16.5314 4.63657 18.3304 7.56907 16.5543C9.6014 15.2635 11.4791 13.7348 13.1641 11.9994L13.5016 12.807Z" fill="#5B8DC9"/>
<path d="M32.6265 7.83105H15.3765C13.374 7.83105 12.609 8.37075 12.354 8.92959C12.219 8.59658 11.6265 6.68274 15.3765 6.68274H32.6265C36.3765 6.68274 35.784 8.59658 35.649 8.92959C35.394 8.37075 34.629 7.83105 32.6265 7.83105Z" fill="#5B8DC9"/>
<path d="M46.3103 19.1303C46.0703 19.5705 46.0891 19.5131 45.7516 20.0796C45.7516 20.0796 41.6266 20.0796 34.5016 12.807L34.8391 11.9994C36.6109 13.8255 38.6002 15.4175 40.7603 16.738C43.6478 18.4222 47.2928 16.5428 47.6041 13.2319C47.7255 15.2832 47.2771 17.3278 46.3103 19.1303Z" fill="#5B8DC9"/>
<path d="M46.5016 35.3904H1.50159V39.9836H46.5016V35.3904Z" fill="url(#paint1_linear)"/>
<path d="M46.5016 38.4525H1.50159V39.9836H46.5016V38.4525Z" fill="#8288A1"/>
<path d="M35.0302 20.872C34.3315 20.6419 33.7223 20.1914 33.2903 19.5854C32.8584 18.9794 32.6259 18.2492 32.6265 17.4998C32.6265 16.6612 32.3001 15.8571 31.7192 15.2641C31.1383 14.6712 30.3505 14.3381 29.529 14.3381H18.474C17.6525 14.3381 16.8646 14.6712 16.2837 15.2641C15.7028 15.8571 15.3765 16.6612 15.3765 17.4998C15.377 18.2492 15.1446 18.9794 14.7126 19.5854C14.2806 20.1914 13.6715 20.6419 12.9727 20.872C9.96601 21.8649 7.34498 23.8049 5.48607 26.4135C3.62716 29.022 2.62602 32.1648 2.62646 35.3904C2.62646 35.4286 1.91021 35.3904 45.3765 35.3904C45.3769 32.1648 44.3758 29.022 42.5169 26.4135C40.6579 23.8049 38.0369 21.8649 35.0302 20.872Z" fill="url(#paint2_linear)"/>
<path d="M45.3766 35.3904H2.62659C2.62635 34.8789 2.65263 34.3679 2.70534 33.8593H45.2979C45.3506 34.3679 45.3768 34.8789 45.3766 35.3904Z" fill="#5B8DC9"/>
<path d="M24.0016 32.711C28.1437 32.711 31.5016 29.2836 31.5016 25.0556C31.5016 20.8277 28.1437 17.4003 24.0016 17.4003C19.8595 17.4003 16.5016 20.8277 16.5016 25.0556C16.5016 29.2836 19.8595 32.711 24.0016 32.711Z" fill="url(#paint3_linear)"/>
<path d="M24.0016 32.711C22.9534 32.711 21.9169 32.4868 20.9588 32.0527C20.0008 31.6187 19.1425 30.9845 18.4393 30.191C17.7362 29.3976 17.2038 28.4625 16.8765 27.4461C16.5492 26.4297 16.4342 25.3546 16.5391 24.2901C16.7248 26.1786 17.5911 27.9293 18.9701 29.2026C20.349 30.4758 22.1421 31.1809 24.0016 31.1809C25.861 31.1809 27.6542 30.4758 29.0331 29.2026C30.412 27.9293 31.2784 26.1786 31.4641 24.2901C31.5689 25.3546 31.4539 26.4297 31.1266 27.4461C30.7993 28.4625 30.2669 29.3976 29.5638 30.191C28.8606 30.9845 28.0024 31.6187 27.0443 32.0527C26.0863 32.4868 25.0497 32.711 24.0016 32.711Z" fill="#C7CDD8"/>
<path d="M24.0016 34.2421C22.9534 34.2421 21.9169 34.0178 20.9588 33.5838C20.0008 33.1497 19.1425 32.5155 18.4393 31.7221C17.7362 30.9287 17.2038 29.9936 16.8765 28.9772C16.5492 27.9608 16.4342 26.8857 16.5391 25.8212C16.7248 27.7096 17.5911 29.4603 18.9701 30.7336C20.349 32.0069 22.1421 32.7119 24.0016 32.7119C25.861 32.7119 27.6542 32.0069 29.0331 30.7336C30.412 29.4603 31.2784 27.7096 31.4641 25.8212C31.5689 26.8857 31.4539 27.9608 31.1266 28.9772C30.7993 29.9936 30.2669 30.9287 29.5638 31.7221C28.8606 32.5155 28.0024 33.1497 27.0443 33.5838C26.0863 34.0178 25.0497 34.2421 24.0016 34.2421Z" fill="#5B8DC9"/>
<path d="M24.0016 29.2661C26.2798 29.2661 28.1266 27.381 28.1266 25.0556C28.1266 22.7303 26.2798 20.8452 24.0016 20.8452C21.7234 20.8452 19.8766 22.7303 19.8766 25.0556C19.8766 27.381 21.7234 29.2661 24.0016 29.2661Z" fill="url(#paint4_linear)"/>
<path d="M28.0591 25.8211C27.8852 24.8522 27.384 23.9761 26.6426 23.3454C25.9012 22.7147 24.9667 22.3693 24.0016 22.3693C23.0365 22.3693 22.1019 22.7147 21.3606 23.3454C20.6192 23.9761 20.118 24.8522 19.9441 25.8211C19.8351 25.2141 19.8583 24.59 20.0119 23.993C20.1655 23.3961 20.4458 22.8409 20.8329 22.3668C21.22 21.8927 21.7045 21.5113 22.2521 21.2495C22.7997 20.9878 23.3969 20.8521 24.0016 20.8521C24.6062 20.8521 25.2035 20.9878 25.7511 21.2495C26.2987 21.5113 26.7832 21.8927 27.1703 22.3668C27.5574 22.8409 27.8377 23.3961 27.9913 23.993C28.1449 24.59 28.168 25.2141 28.0591 25.8211Z" fill="#5B8DC9"/>
<path d="M28.8766 14.3381V11.2759C29.9342 11.06 30.8858 10.4767 31.5695 9.62534C32.2532 8.77394 32.6267 7.70704 32.6266 6.60618V5.91719C32.6266 5.71416 32.5476 5.51944 32.4069 5.37588C32.2663 5.23231 32.0755 5.15166 31.8766 5.15166H30.7516C30.5527 5.15166 30.3619 5.23231 30.2213 5.37588C30.0806 5.51944 30.0016 5.71416 30.0016 5.91719C30.0016 6.42478 29.804 6.91157 29.4524 7.27048C29.1008 7.6294 28.6239 7.83104 28.1266 7.83104H19.8766C19.3793 7.83104 18.9024 7.6294 18.5508 7.27048C18.1991 6.91157 18.0016 6.42478 18.0016 5.91719C18.0016 5.71416 17.9226 5.51944 17.7819 5.37588C17.6413 5.23231 17.4505 5.15166 17.2516 5.15166H16.1266C15.9277 5.15166 15.7369 5.23231 15.5963 5.37588C15.4556 5.51944 15.3766 5.71416 15.3766 5.91719V6.60618C15.3764 7.70704 15.75 8.77394 16.4337 9.62534C17.1174 10.4767 18.069 11.06 19.1266 11.2759C19.1641 11.2759 19.1266 11.0195 19.1266 14.3381H28.8766Z" fill="url(#paint5_linear)"/>
<path d="M28.8766 12.807H19.1266V14.3381H28.8766V12.807Z" fill="#8288A1"/>
<path d="M46.5015 35.0076H45.7515C45.6803 31.7644 44.6207 28.6244 42.7201 26.0244C40.8194 23.4244 38.1722 21.4937 35.1465 20.5007C34.5229 20.2981 33.9788 19.898 33.5931 19.3583C33.2074 18.8187 33.0002 18.1677 33.0015 17.4998C33.0015 15.7275 31.719 13.9553 29.2515 13.9553V11.586C30.0629 11.364 30.8074 10.9396 31.4182 10.351C32.0289 9.76231 32.4867 9.02789 32.7503 8.2138C34.0628 8.2138 34.9553 8.5047 35.259 8.97933C35.332 9.12919 35.37 9.29427 35.37 9.46162C35.37 9.62898 35.332 9.79406 35.259 9.94391C34.0403 12.8453 33.9728 12.8032 34.2165 13.052C41.3865 20.3858 45.5753 20.4624 45.7515 20.4624C46.0065 20.4624 46.0665 20.2978 46.329 19.8691C47.2042 18.4317 47.752 16.812 47.9319 15.1296C48.1118 13.4472 47.9194 11.745 47.3687 10.1487C46.818 8.55236 45.9231 7.10264 44.7501 5.90651C43.5771 4.71039 42.156 3.79838 40.5915 3.23781C30.5003 -0.29897 17.7165 -0.367868 7.41153 3.23781C5.84553 3.79752 4.42282 4.70939 3.24863 5.90599C2.07443 7.10258 1.17878 8.55329 0.627909 10.1508C0.07704 11.7484 -0.114956 13.4519 0.0661205 15.1354C0.247197 16.8188 0.796713 18.4393 1.67403 19.8767C1.93278 20.2978 1.99278 20.4624 2.25153 20.4624C2.42778 20.4624 6.61653 20.3782 13.7715 13.075C13.8265 13.0206 13.8638 12.9504 13.8786 12.8738C13.8933 12.7972 13.8848 12.7178 13.854 12.6463C12.759 10.0358 12.399 9.56114 12.729 9.0023C13.0328 8.50853 13.9253 8.23676 15.2378 8.23676C15.5059 9.04838 15.9673 9.77931 16.5807 10.3639C17.194 10.9485 17.9399 11.3684 18.7515 11.586V13.9553C16.3553 13.9553 15.0015 15.674 15.0015 17.5074C15.0034 18.1744 14.7972 18.8247 14.413 19.3642C14.0287 19.9037 13.4862 20.3044 12.864 20.5083C9.83818 21.4996 7.19016 23.4286 5.28817 26.0272C3.38618 28.6258 2.32477 31.7647 2.25153 35.0076H1.50153C1.40208 35.0076 1.30669 35.0479 1.23637 35.1197C1.16604 35.1915 1.12653 35.2888 1.12653 35.3904V39.9836C1.12653 40.0851 1.16604 40.1824 1.23637 40.2542C1.30669 40.326 1.40208 40.3663 1.50153 40.3663H46.5015C46.601 40.3663 46.6964 40.326 46.7667 40.2542C46.837 40.1824 46.8765 40.0851 46.8765 39.9836V35.3904C46.8765 35.2888 46.837 35.1915 46.7667 35.1197C46.6964 35.0479 46.601 35.0076 46.5015 35.0076ZM45.5528 19.6777C44.6603 19.5552 40.8728 18.7055 34.9553 12.7228L35.4428 11.5745C37.3853 13.3046 42.2828 17.3466 46.3965 18.0816C46.1581 18.6336 45.876 19.1649 45.5528 19.6701V19.6777ZM2.45028 19.6777C2.12584 19.1653 1.84362 18.6263 1.60653 18.0663C5.73153 17.339 10.6065 13.297 12.5603 11.5592L13.0478 12.7075C7.12653 18.6978 3.33903 19.5514 2.45028 19.6701V19.6777ZM12.0915 8.59657C11.6003 9.40804 11.9715 10.1276 12.2453 10.7937C10.4678 12.4243 5.40528 16.6845 1.32528 17.316C0.433319 14.6876 0.599243 11.8054 1.78665 9.30179C2.97406 6.79813 5.08597 4.87748 7.65903 3.96124C17.6078 0.474222 30.234 0.420635 40.344 3.96124C42.9177 4.87663 45.0303 6.79716 46.2178 9.3011C47.4053 11.805 47.5708 14.6877 46.6778 17.316C42.5978 16.6845 37.5315 12.4051 35.7578 10.809C36.0315 10.1621 36.4103 9.43483 35.9115 8.61188C35.4765 7.88845 34.4715 7.50568 32.9415 7.46357C33.0092 6.95119 33.0292 6.43343 33.0015 5.91719C33.0015 5.61264 32.883 5.32056 32.672 5.10521C32.461 4.88986 32.1749 4.76888 31.8765 4.76888H30.7515C30.4532 4.76888 30.167 4.88986 29.956 5.10521C29.745 5.32056 29.6265 5.61264 29.6265 5.91719C29.6265 6.32325 29.4685 6.71269 29.1872 6.99982C28.9059 7.28695 28.5243 7.44826 28.1265 7.44826H19.8765C19.4787 7.44826 19.0972 7.28695 18.8159 6.99982C18.5346 6.71269 18.3765 6.32325 18.3765 5.91719C18.3765 5.61264 18.258 5.32056 18.047 5.10521C17.836 4.88986 17.5499 4.76888 17.2515 4.76888H16.1265C15.8282 4.76888 15.542 4.88986 15.331 5.10521C15.1201 5.32056 15.0015 5.61264 15.0015 5.91719C14.9782 6.42858 15.0008 6.94107 15.069 7.44826C13.5315 7.49802 12.5265 7.88079 12.0915 8.59657ZM19.2165 10.8932C18.2422 10.6983 17.3642 10.1644 16.7323 9.38268C16.1005 8.60091 15.7538 7.61964 15.7515 6.60617V5.91719C15.7515 5.81567 15.791 5.71831 15.8614 5.64653C15.9317 5.57475 16.0271 5.53442 16.1265 5.53442H17.2515C17.351 5.53442 17.4464 5.57475 17.5167 5.64653C17.587 5.71831 17.6265 5.81567 17.6265 5.91719C17.6265 6.52629 17.8636 7.11044 18.2855 7.54114C18.7075 7.97184 19.2798 8.2138 19.8765 8.2138H28.1265C28.7233 8.2138 29.2956 7.97184 29.7175 7.54114C30.1395 7.11044 30.3765 6.52629 30.3765 5.91719C30.3765 5.81567 30.416 5.71831 30.4864 5.64653C30.5567 5.57475 30.6521 5.53442 30.7515 5.53442H31.8765C31.976 5.53442 32.0714 5.57475 32.1417 5.64653C32.212 5.71831 32.2515 5.81567 32.2515 5.91719V6.60617C32.2499 7.61748 31.9054 8.59704 31.2765 9.37851C30.6476 10.16 29.7731 10.6952 28.8015 10.8932C28.7155 10.9111 28.6384 10.9592 28.5836 11.0291C28.5288 11.0991 28.4998 11.1864 28.5015 11.2759V13.9553H19.5015V11.2759C19.5033 11.1864 19.4742 11.0991 19.4194 11.0291C19.3646 10.9592 19.2875 10.9111 19.2015 10.8932H19.2165ZM13.0928 21.2279C13.8651 20.9731 14.5384 20.475 15.0161 19.8052C15.4938 19.1353 15.7513 18.3282 15.7515 17.4998C15.751 17.1347 15.8211 16.7731 15.9578 16.4357C16.0944 16.0983 16.2949 15.7918 16.5478 15.5337C16.8007 15.2755 17.1011 15.0708 17.4316 14.9314C17.7621 14.7919 18.1164 14.7204 18.474 14.7209H29.529C29.8867 14.7204 30.2409 14.7919 30.5715 14.9314C30.902 15.0708 31.2023 15.2755 31.4552 15.5337C31.7081 15.7918 31.9086 16.0983 32.0453 16.4357C32.1819 16.7731 32.252 17.1347 32.2515 17.4998C32.2518 18.3282 32.5093 19.1353 32.9869 19.8052C33.4646 20.475 34.138 20.9731 34.9103 21.2279C37.7869 22.1692 40.3045 24.0021 42.1131 26.4718C43.9217 28.9415 44.9313 31.925 45.0015 35.0076H3.00153C3.07171 31.925 4.08131 28.9415 5.88991 26.4718C7.69851 24.0021 10.2162 22.1692 13.0928 21.2279ZM46.1265 39.6008H1.87653V35.7731H46.1265V39.6008Z" fill="#47566A"/>
<path d="M24.0016 17.0175C22.4441 17.0175 20.9215 17.4889 19.6265 18.3722C18.3314 19.2554 17.3221 20.5108 16.726 21.9796C16.13 23.4483 15.974 25.0645 16.2779 26.6238C16.5818 28.183 17.3318 29.6153 18.4331 30.7394C19.5345 31.8636 20.9377 32.6292 22.4653 32.9393C23.9929 33.2495 25.5763 33.0903 27.0152 32.4819C28.4542 31.8735 29.6841 30.8432 30.5494 29.5214C31.4147 28.1995 31.8766 26.6454 31.8766 25.0556C31.8766 22.9238 31.0469 20.8792 29.5701 19.3718C28.0932 17.8644 26.0902 17.0175 24.0016 17.0175ZM24.0016 32.3282C22.5924 32.3282 21.2149 31.9017 20.0432 31.1026C18.8715 30.3034 17.9582 29.1676 17.4189 27.8387C16.8797 26.5098 16.7386 25.0476 17.0135 23.6368C17.2884 22.2261 17.967 20.9302 18.9635 19.9131C19.9599 18.896 21.2295 18.2034 22.6116 17.9228C23.9937 17.6421 25.4263 17.7862 26.7282 18.3366C28.0301 18.8871 29.1429 19.8192 29.9258 21.0152C30.7087 22.2112 31.1266 23.6172 31.1266 25.0556C31.1266 26.9844 30.3759 28.8342 29.0397 30.1981C27.7035 31.562 25.8913 32.3282 24.0016 32.3282Z" fill="#47566A"/>
<path d="M24.0016 20.4624C23.1116 20.4624 22.2415 20.7318 21.5015 21.2365C20.7615 21.7412 20.1847 22.4586 19.8441 23.2979C19.5035 24.1372 19.4144 25.0607 19.5881 25.9517C19.7617 26.8427 20.1903 27.6611 20.8196 28.3035C21.4489 28.9459 22.2508 29.3834 23.1237 29.5606C23.9966 29.7378 24.9014 29.6469 25.7237 29.2992C26.5459 28.9516 27.2487 28.3628 27.7432 27.6075C28.2377 26.8521 28.5016 25.9641 28.5016 25.0556C28.5016 23.8374 28.0275 22.6691 27.1836 21.8077C26.3397 20.9463 25.1951 20.4624 24.0016 20.4624ZM24.0016 28.8833C23.2599 28.8833 22.5349 28.6588 21.9182 28.2382C21.3015 27.8176 20.8209 27.2198 20.537 26.5204C20.2532 25.821 20.1789 25.0514 20.3236 24.3089C20.4683 23.5664 20.8255 22.8844 21.3499 22.349C21.8744 21.8137 22.5426 21.4492 23.27 21.3015C23.9974 21.1538 24.7514 21.2296 25.4367 21.5193C26.1219 21.809 26.7075 22.2996 27.1196 22.9291C27.5317 23.5585 27.7516 24.2986 27.7516 25.0556C27.7516 26.0708 27.3565 27.0444 26.6532 27.7622C25.95 28.48 24.9962 28.8833 24.0016 28.8833Z" fill="#47566A"/>
<defs>
<linearGradient id="paint0_linear" x1="24.0053" y1="20.0796" x2="24.0053" y2="0.937369" gradientUnits="userSpaceOnUse">
<stop stop-color="#7AA8D7"/>
<stop offset="1" stop-color="#96C8EA"/>
</linearGradient>
<linearGradient id="paint1_linear" x1="24.0016" y1="39.9836" x2="24.0016" y2="35.3904" gradientUnits="userSpaceOnUse">
<stop stop-color="#949AAF"/>
<stop offset="1" stop-color="#C6CCDA"/>
</linearGradient>
<linearGradient id="paint2_linear" x1="2738.67" y1="2185.32" x2="2738.67" y2="1025.66" gradientUnits="userSpaceOnUse">
<stop stop-color="#7AA8D7"/>
<stop offset="1" stop-color="#96C8EA"/>
</linearGradient>
<linearGradient id="paint3_linear" x1="24.0016" y1="32.711" x2="24.0016" y2="17.4003" gradientUnits="userSpaceOnUse">
<stop stop-color="#DDE1E8"/>
<stop offset="1" stop-color="#F3F4F5"/>
</linearGradient>
<linearGradient id="paint4_linear" x1="547.877" y1="753.464" x2="547.877" y2="568.204" gradientUnits="userSpaceOnUse">
<stop stop-color="#7AA8D7"/>
<stop offset="1" stop-color="#96C8EA"/>
</linearGradient>
<linearGradient id="paint5_linear" x1="15.3766" y1="446.101" x2="20.2749" y2="225.352" gradientUnits="userSpaceOnUse">
<stop stop-color="#949AAF"/>
<stop offset="1" stop-color="#C6CCDA"/>
</linearGradient>
</defs>
</svg>
