<svg width="626" height="147" viewBox="0 0 626 147" fill="none" xmlns="http://www.w3.org/2000/svg">
<path d="M201.762 41.562C197 33.5771 188.966 26.7499 181.873 22.1405C160.424 8.19806 145.954 15.9547 122.331 18.167C109.486 19.3737 96.669 15.7427 83.7377 15.6286C63.9628 15.4492 32.6426 22.9395 17.9338 37.0776C10.4163 44.2962 1.82254 59.9073 5.61662 70.6645C7.24731 75.3445 11.3621 78.7744 15.7704 81.0465C22.8043 84.644 30.8222 85.841 38.6001 84.4547C46.3731 83.0468 53.7221 79.0843 61.6146 79.2202C74.2307 79.4321 83.9877 89.7109 94.8101 96.2065C111.889 106.464 134.218 107.344 152.058 98.4732C168.8 90.1404 194.402 83.4056 203.49 65.3158C207.708 57.0101 206.078 48.8023 201.762 41.562Z" fill="#8095ED"/>
<path d="M295.978 20.934C303.403 13.835 311.339 6.89915 320.928 3.21378C330.516 -0.471583 342.127 -0.36287 350.28 5.90442C357.064 11.1281 360.7 19.9229 368.098 24.2388C372.784 26.9567 378.426 27.5491 383.862 27.2937C393.102 26.8588 402.098 24.2117 411.154 22.2766C420.21 20.3415 429.733 19.1402 438.669 21.5808C447.606 24.0214 455.862 30.8214 457.602 39.9261C458.042 42.2254 458.064 44.5844 458.553 46.8674C460.961 58.1518 473.887 64.1147 485.421 64.2615C496.956 64.4082 508.251 60.6359 519.769 60.3967C531.793 60.1467 544.822 63.8755 554.476 71.1539C564.994 79.0899 571.457 93.7281 561.053 104.474C531.298 135.207 481.692 137.855 441.789 134.713C434.723 134.169 389.374 126.135 382.541 124.244C367.517 120.058 351.688 125.195 336.751 129.679C321.814 134.164 305.224 137.942 291.092 131.381C285.975 128.943 281.531 125.291 278.147 120.744C274.763 116.197 272.541 110.891 271.676 105.29C271.17 101.805 271.203 98.2505 270.529 94.7935C268.159 82.6394 253.482 67.2783 262.375 54.885C265.87 49.9929 272.072 45.9053 276.16 41.3557C282.498 34.3183 289.104 27.5111 295.978 20.934Z" fill="#8095ED"/>
<path d="M527.206 72.7737C531.402 75.4915 536.381 76.7091 541.306 77.5896C545.686 78.3666 550.104 78.9109 554.541 79.2203C556.553 79.3671 558.624 79.4541 560.521 78.8181C579.23 72.6106 565.956 37.8116 549.785 35.6537C532.467 33.3761 507.083 59.7553 527.206 72.7737Z" fill="#B7C3F9"/>
<path d="M206.046 106.306C218.684 104.953 231.082 109.991 243.747 111.111C268.963 113.34 293.31 100.012 318.623 100.37C321.477 100.408 324.38 100.631 327.065 101.615C330.185 102.762 335.468 100.941 338.447 102.409C345.872 106.067 351.944 109.432 360.19 110.138C368.436 110.845 377.584 113.655 381.242 121.064C384.851 128.331 372.632 143.589 352.536 142.611C344.432 142.219 336.36 141.198 328.25 141.132C313.889 141.018 299.822 145.079 285.493 146.024C265.555 147.356 245.579 142.616 227.109 134.979C219.597 131.875 184.82 131.174 179.514 127.565C167.067 119.134 199.887 106.964 206.046 106.306Z" fill="#273CB3"/>
<path d="M258.705 31.8976C273.745 31.0768 289.079 30.2669 303.642 34.1317C313.6 36.7625 322.857 41.4806 332.032 46.1662L369.304 65.1909C375.131 68.1642 380.996 71.1701 387.242 73.0672C394.822 75.3339 402.793 75.9889 410.642 74.9901C418.49 73.9912 426.043 71.3605 432.814 67.2673C436.885 64.7724 440.739 61.636 443.017 57.4343C445.294 53.2325 445.735 47.8023 443.196 43.7582C440.37 39.2738 434.57 37.4583 429.276 37.779C418.187 38.4041 408.381 47.275 405.609 58.0322C402.837 68.7893 406.696 80.7151 414.469 88.6511C436.353 111.002 479.093 102.11 504.315 90.6732C527.688 80.0574 541.864 56.6515 565.982 46.3075C584.594 38.3171 605.053 34.6154 625.279 36.1972" stroke="#FFFAF3" stroke-width="0.896509" stroke-linecap="round" stroke-linejoin="round"/>
<path d="M204.36 113.182C205.187 114.922 205.899 115.416 207.345 116.694C208.432 117.64 218.308 106.638 219.444 105.735C224.646 101.621 230.495 100.778 236.762 99.2127C246.998 96.696 256.276 91.3582 267.066 91.293C286.52 91.1734 305.735 102.985 325.097 94.0706C337.507 88.3523 348.394 77.5462 359.146 69.246C361.652 67.3055 364.157 65.3704 366.826 63.6691C372.072 60.3261 377.937 57.8964 382.813 53.9882C384.487 52.6401 388.362 49.9277 387.107 47.4002C386.368 45.8945 380.747 44.0138 379.236 43.0517C369.452 36.9583 360.434 27.4677 348.302 26.5925C338.697 25.8968 329.973 31.5553 320.803 34.5123C296.272 42.4157 280.035 37.4312 273.703 37.1268C265.718 36.7409 243.638 38.1161 238.915 39.2195C234.191 40.323 229.544 42.9375 227.288 47.2208C221.238 58.7009 224.249 67.6751 227.288 72.839C227.755 73.6263 228.025 74.5149 228.076 75.4291C228.126 76.3433 227.954 77.2561 227.576 78.0898V78.1224C226.217 81.0088 223.353 82.8243 220.635 84.4876C215.395 87.7 211.073 91.0103 207.334 95.9024C203.594 100.794 201.719 107.638 204.36 113.182Z" fill="#FF9739"/>
<path d="M271.311 92.179C272.664 95.5056 273.246 99.0877 274.474 102.458C275.942 106.464 278.279 110.068 280.633 113.655L285.079 120.455C285.21 121.515 284.117 122.303 283.106 122.657C279.035 124.092 274.409 122.581 271.001 119.939C269.365 118.66 267.938 117.134 266.772 115.416C264.717 112.383 263.51 108.807 261.141 106.013C256.134 100.088 246.79 98.6202 242.969 91.88C241.621 89.4992 241.203 86.3519 242.741 84.0907C243.861 82.46 245.812 81.5414 247.763 81.1772C249.715 80.813 251.721 80.9054 253.705 80.8402C257.792 80.7043 261.157 78.5735 264.206 81.7969C267.082 84.8245 269.718 88.2544 271.311 92.179Z" fill="#FF9739"/>
<path d="M347.486 90.3852C351.563 92.679 355.814 95.1359 358.249 99.1311C359.374 100.985 360.048 103.072 361.021 105.012C362.065 107.096 363.45 108.99 365.119 110.617C367.239 112.682 369.675 116.824 368.49 117.879C367.696 118.58 361.026 119.433 357.472 117.65C353.917 115.867 351.846 112.573 348.829 109.932C345.937 107.4 342.599 105.429 338.985 104.121C335.463 102.844 331.185 103.257 327.771 101.702C324.358 100.148 321.694 96.3372 321.036 92.6464C320.866 91.9398 320.932 91.1967 321.227 90.5319C321.541 90.0266 321.962 89.5961 322.461 89.2709C325.374 87.0423 331.353 81.661 335.414 82.672C337.044 83.0688 338.132 84.8463 339.403 85.8029C341.877 87.5804 344.812 88.8958 347.486 90.3852Z" fill="#FF9739"/>
<path d="M105.427 30.566C110.862 40.5568 120.576 49.0092 136.008 54.9123L136.448 54.7873L135.252 53.2381C138.823 53.499 142.433 53.7817 145.852 54.8362C139.932 51.8253 134.566 47.8334 129.98 43.03L143.15 43.8344C138.16 41.8667 133.214 39.7958 128.311 37.6215C131.516 36.7465 134.671 35.6995 137.763 34.4851C122.044 34.4145 109.569 31.376 105.427 30.566Z" fill="#F6F3EE"/>
<path d="M143.149 43.8344L129.984 43.0299C134.573 47.8343 139.944 51.8263 145.867 54.8361C142.448 53.749 138.839 53.4989 135.268 53.238L136.463 54.7872L136.023 54.9122C143.992 58.7171 153.096 61.435 162.87 61.5382C187.33 61.7502 204.083 50.1234 210.502 47.7208C214.307 46.3076 218.781 44.965 222.118 47.2371C224.428 48.8134 225.445 51.7215 225.891 54.4828C226.336 57.2441 226.38 60.125 227.396 62.7341C228.413 65.3432 230.777 67.724 233.577 67.6262C235.419 67.5609 237.05 66.4575 238.518 65.3323C243.605 61.4295 257.814 50.4387 252.781 42.9266C250.063 38.839 257.189 38.8173 240.344 38.4531C234.403 38.3226 228.679 36.0614 223.167 33.8382C201.925 25.2608 182.895 25.4782 171.165 29.4299C159.598 33.3327 147.992 34.534 137.773 34.4905C134.681 35.7049 131.526 36.7518 128.321 37.6269C133.213 39.7975 138.156 41.8667 143.149 43.8344Z" fill="#FF9739"/>
<path d="M376.67 51.6018C373.651 51.8228 370.623 51.8754 367.598 51.7594L348.905 51.3844C347.149 51.3518 345.296 51.3409 343.893 52.5639C343.484 52.8941 343.183 53.3395 343.03 53.8425C342.877 54.3455 342.878 54.8829 343.034 55.385C343.61 57.0157 345.524 57.1842 347.182 57.6571C347.495 57.7467 347.777 57.9233 347.994 58.1665C348.211 58.4097 348.355 58.7096 348.408 59.0312C348.462 59.3527 348.423 59.6829 348.296 59.9833C348.169 60.2837 347.96 60.542 347.693 60.7283C342.801 64.1527 336.468 65.4247 331.82 69.2514C329.54 71.1717 327.775 73.63 326.683 76.4041C325.592 79.1782 325.209 82.1805 325.57 85.1397C325.852 87.2433 326.51 89.298 326.553 91.4179C326.573 92.9433 326.275 94.456 325.678 95.8598C325.081 97.2635 324.198 98.5276 323.085 99.5714C325.803 98.2559 328.831 97.9407 331.723 97.1742C337.158 95.6849 347.404 90.434 354.705 80.0085C356.449 77.519 363.402 67.8326 365.848 66.0117C367.113 65.1388 368.454 64.3803 369.854 63.745C375.59 60.8712 380.949 57.2982 385.807 53.1075C387.982 51.2376 389.699 48.5035 385.546 49.7863C382.66 50.7024 379.684 51.311 376.67 51.6018Z" fill="#F6F3EE"/>
<path d="M328.19 97.3482C329.315 100.87 330.777 104.284 331.745 107.85C332.441 110.626 332.986 113.439 333.376 116.275L335.235 128.081C333.745 128.744 332.115 129.027 330.49 128.907C328.864 128.786 327.294 128.265 325.918 127.391C323.176 125.588 321.231 122.802 320.482 119.607C320.042 117.884 319.939 116.079 319.319 114.4C318.064 110.867 314.971 108.393 312.291 105.746C309.37 102.845 306.865 99.5519 304.849 95.9621C302.996 92.6518 301.539 88.8033 302.442 85.1234C303.387 81.2858 306.79 78.4212 310.47 77.0406C314.15 75.6599 318.205 75.5132 322.151 75.3827C327.141 75.2197 325.374 80.7749 325.646 84.2863C325.99 88.7234 326.844 93.1062 328.19 97.3482Z" fill="#FF9739"/>
<path d="M359.661 42.2742C360.966 41.4153 362.287 40.8935 363.619 41.0892C364.95 41.2849 366.402 41.8285 366.88 43.095C367.021 43.4144 367.037 43.7755 366.923 44.106C366.554 44.9757 365.293 44.8181 364.401 44.481C362.771 43.8554 361.18 43.1293 359.64 42.3068" fill="white"/>
<path d="M359.661 42.2742C360.966 41.4153 362.287 40.8935 363.619 41.0892C364.95 41.2849 366.402 41.8285 366.88 43.095C367.021 43.4144 367.037 43.7755 366.923 44.106C366.554 44.9757 365.293 44.8181 364.401 44.481C362.771 43.8554 361.18 43.1293 359.64 42.3068" stroke="#F9F9F9" stroke-width="0.896509" stroke-linecap="round" stroke-linejoin="round"/>
<path d="M364.043 43.7746C364.075 43.9381 364.145 44.0916 364.249 44.2221C364.352 44.3526 364.485 44.4564 364.637 44.5246C364.789 44.5928 364.955 44.6235 365.121 44.6141C365.287 44.6046 365.449 44.5553 365.592 44.4704C366.288 44.1714 366.554 43.0354 366.304 42.3776C366.219 42.2221 366.101 42.087 365.958 41.9816C365.816 41.8763 365.652 41.8032 365.478 41.7676C365.304 41.7319 365.125 41.7344 364.952 41.775C364.779 41.8156 364.618 41.8932 364.478 42.0026C364.255 42.233 364.097 42.5185 364.021 42.8298C363.945 43.1411 363.952 43.4672 364.043 43.7746Z" fill="black"/>
<path d="M362.554 39.0726C361.072 38.9056 359.578 39.2447 358.314 40.0347" stroke="#FFFAF3" stroke-width="0.896509" stroke-linecap="round" stroke-linejoin="round"/>
<path d="M345.404 17.7866C345.254 17.6163 345.043 17.511 344.817 17.493C344.42 17.493 342.49 20.5316 341.713 21.6622C340.333 23.6734 337.457 29.0764 337.457 31.5116C337.457 31.6909 340.294 29.0873 340.387 29.2449C340.583 29.571 341.05 29.571 341.436 29.5384C343.102 29.4006 344.778 29.4534 346.431 29.6961C348.888 30.0548 351.323 30.8539 353.791 30.9734C354.476 31.0115 356.775 31.2507 357.053 30.4299C357.33 29.6091 355.77 28.6742 355.248 28.2121C351.671 25.0214 349.008 20.9501 345.404 17.7866Z" fill="#FF9739"/>
<path d="M356.269 20.0479C353.66 24.2171 351.845 27.386 351.578 30.4735C351.546 30.805 354.155 30.6202 354.253 30.9355C354.487 31.653 355.199 32.0879 355.883 32.452C357.518 33.3471 359.177 34.2023 360.863 35.0177C363.292 36.1918 367.385 37.4746 365.265 33.387C363.472 29.881 360.439 22.1243 356.269 20.0479Z" fill="#FF9739"/>
<path d="M388.726 47.2913C388.857 47.442 388.964 47.6126 389.041 47.7968C389.112 48.0236 389.145 48.2605 389.139 48.498C389.202 48.9322 389.116 49.3748 388.894 49.7536C388.65 50.0317 388.322 50.2225 387.96 50.2972C386.954 50.5907 385.731 50.5255 385.035 49.7536C384.339 48.9818 383.801 46.9108 384.883 46.2205C385.965 45.5301 387.965 46.3835 388.726 47.2913Z" fill="black"/>
<path d="M376.512 57.8147C374.371 57.8582 372.235 58.2006 370.088 58.1897C367.94 58.1789 365.739 57.7821 363.989 56.5047" stroke="#CD5000" stroke-width="0.896509" stroke-linecap="round" stroke-linejoin="round"/>
<path d="M37.3825 28.5819C32.3871 24.2062 25.0382 22.0972 18.548 21.6406C3.77935 20.5915 -0.395225 30.9192 0.0287554 44.3779C0.19726 49.7157 1.69748 55.1785 5.20891 59.2063C7.8615 62.2503 11.5251 64.3049 15.3899 65.4845C34.0233 71.1919 45.8295 56.483 43.1116 38.7846C42.4922 34.805 40.458 31.1824 37.3825 28.5819Z" fill="#B7C3F9"/>
<path d="M182.678 64.7725C171.461 69.3491 158.896 69.3373 147.688 64.7399" stroke="#FFFAF3" stroke-width="0.896509" stroke-linecap="round" stroke-linejoin="round"/>
<path d="M196.695 93.9727C174.029 95.0163 150.9 96.0165 129.065 89.8579C119.689 87.2162 110.714 83.2916 102.017 78.9051C94.6467 75.1817 87.4119 71.0941 80.9598 65.9465C74.6979 60.9566 69.0449 54.6838 66.9032 46.9707C65.528 41.9971 66.1803 35.7406 70.5668 33.0174C75.2252 30.1202 82.0306 33.3163 83.7864 38.5128C85.5421 43.7093 82.971 49.6885 78.6442 53.0532C74.3174 56.4178 68.6046 57.543 63.12 57.4832C47.7046 57.3256 33.4904 48.7373 22.3527 38.078C17.9879 33.9088 13.8894 29.2885 11.6064 23.6953" stroke="#FFFAF3" stroke-width="0.896509" stroke-linecap="round" stroke-linejoin="round"/>
<path d="M22.4775 45.3672C29.1508 52.4244 37.2857 57.9379 46.3128 61.522" stroke="#FFFAF3" stroke-width="0.896509" stroke-linecap="round" stroke-linejoin="round"/>
<path d="M173.839 72.8334C167.659 73.4096 161.272 73.964 155.358 72.0724" stroke="#FFFAF3" stroke-width="0.896509" stroke-linecap="round" stroke-linejoin="round"/>
<path d="M156.249 27.5709C142.459 28.3427 128.37 29.0874 115.074 25.3477C107.345 23.1621 100.105 19.5181 93.7446 14.6123" stroke="#FFFAF3" stroke-width="0.896509" stroke-linecap="round" stroke-linejoin="round"/>
<path d="M260.243 115.172C262.2 119.002 265.156 122.233 268.799 124.521" stroke="#FFFAF3" stroke-width="0.896509" stroke-linecap="round" stroke-linejoin="round"/>
<path d="M260.167 120.749C260.921 121.663 261.772 122.492 262.706 123.222" stroke="#FFFAF3" stroke-width="0.896509" stroke-linecap="round" stroke-linejoin="round"/>
<path d="M349.346 116.4C351.167 119.917 355.086 121.727 358.766 123.189" stroke="#FFFAF3" stroke-width="0.896509" stroke-linecap="round" stroke-linejoin="round"/>
<path d="M348.829 121.086C349.882 122.701 351.457 123.908 353.291 124.505" stroke="#FFFAF3" stroke-width="0.896509" stroke-linecap="round" stroke-linejoin="round"/>
<path d="M409.039 98.2776C416.557 105.811 426.765 110.236 437.196 112.329C447.627 114.422 458.395 114.416 469.005 114.133" stroke="#FFFAF3" stroke-width="0.896509" stroke-linecap="round" stroke-linejoin="round"/>
<path d="M537.353 54.7816C545.12 45.7295 554.631 38.3349 565.319 33.039" stroke="#FFFAF3" stroke-width="0.896509" stroke-linecap="round" stroke-linejoin="round"/>
<path d="M199.261 110.589C199.278 112.558 199.977 114.46 201.24 115.971" stroke="#FFFAF3" stroke-width="0.896509" stroke-linecap="round" stroke-linejoin="round"/>
<path d="M196.892 113.65C196.832 114.093 196.93 114.543 197.169 114.922" stroke="#FFFAF3" stroke-width="0.896509" stroke-linecap="round" stroke-linejoin="round"/>
<path d="M345.007 20.7599C344.744 21.6388 344.327 22.4635 343.773 23.1951C342.57 25.1567 341.941 27.4166 341.958 29.7179" stroke="#FFFAF3" stroke-width="0.896509" stroke-linecap="round" stroke-linejoin="round"/>
<path d="M352.824 27.2284C354.304 28.6202 355.913 29.8687 357.629 30.9572" stroke="#FFFAF3" stroke-width="0.896509" stroke-linecap="round" stroke-linejoin="round"/>
<path d="M359.107 31.8435C359.764 32.3508 360.498 32.749 361.282 33.023" stroke="#FFFAF3" stroke-width="0.896509" stroke-linecap="round" stroke-linejoin="round"/>
<path d="M358.33 34.5611C357.096 34.1624 355.818 33.9142 354.525 33.8218C355.068 34.3907 355.538 35.0263 355.922 35.7134C353.834 35.3982 351.573 35.2405 349.779 36.3929C350.028 36.3192 350.293 36.32 350.541 36.3954C350.79 36.4708 351.01 36.6173 351.176 36.8169" stroke="#FFFAF3" stroke-width="0.896509" stroke-linecap="round" stroke-linejoin="round"/>
<path d="M331.423 34.3327C326.777 36.1446 322.066 37.7408 317.29 39.1215" stroke="#FFFAF3" stroke-width="0.896509" stroke-linecap="round" stroke-linejoin="round"/>
<path d="M314.051 39.9803C312.935 40.1064 311.831 40.3283 310.752 40.6435" stroke="#FFFAF3" stroke-width="0.896509" stroke-linecap="round" stroke-linejoin="round"/>
<path d="M327.418 38.9639C324.663 40.1602 321.782 41.0409 318.83 41.5893" stroke="#FFFAF3" stroke-width="0.896509" stroke-linecap="round" stroke-linejoin="round"/>
<path d="M304.322 84.8028C303.981 86.8561 304.054 88.9568 304.536 90.9815C305.019 93.0062 305.902 94.914 307.132 96.5927C307.796 97.4749 308.534 98.2987 309.339 99.055C310.194 99.8759 311.102 100.64 312.057 101.343" stroke="#FFFAF3" stroke-width="0.896509" stroke-linecap="round" stroke-linejoin="round"/>
<path d="M302.756 79.7313C302.805 81.5576 302.386 83.3568 302.098 85.1669C301.81 86.977 301.658 88.8577 302.218 90.6025" stroke="#FFFAF3" stroke-width="0.896509" stroke-linecap="round" stroke-linejoin="round"/>
<path d="M334.348 123.178L335.56 127.869C335.239 128.158 334.842 128.348 334.416 128.416C333.989 128.485 333.553 128.429 333.157 128.255C332.353 127.94 331.766 126.918 331.244 125.353" stroke="#FFFAF3" stroke-width="0.896509" stroke-linecap="round" stroke-linejoin="round"/>
<path d="M327.417 124.603C327.325 125.69 328.124 127.962 329.124 128.5" stroke="#FFFAF3" stroke-width="0.896509" stroke-linecap="round" stroke-linejoin="round"/>
<path d="M324.156 123.994C324.106 124.477 324.166 124.965 324.333 125.42C324.499 125.876 324.768 126.288 325.118 126.625" stroke="#FFFAF3" stroke-width="0.896509" stroke-linecap="round" stroke-linejoin="round"/>
<path d="M324.885 93.815C325.706 98.8321 329.01 103.202 329.668 108.236" stroke="#FFFAF3" stroke-width="0.896509" stroke-linecap="round" stroke-linejoin="round"/>
<path d="M330.45 110.486L331.266 112.715" stroke="#FFFAF3" stroke-width="0.896509" stroke-linecap="round" stroke-linejoin="round"/>
<path d="M364.869 114.394C365.443 115.609 366.248 116.7 367.239 117.607" stroke="#FFFAF3" stroke-width="0.896509" stroke-linecap="round" stroke-linejoin="round"/>
<path d="M361.869 115.715C362.162 116.639 362.748 117.442 363.537 118.004" stroke="#FFFAF3" stroke-width="0.896509" stroke-linecap="round" stroke-linejoin="round"/>
<path d="M358.64 115.9C358.763 116.722 359.143 117.483 359.727 118.074" stroke="#FFFAF3" stroke-width="0.896509" stroke-linecap="round" stroke-linejoin="round"/>
<path d="M353.057 95.2936C353.292 95.3796 353.508 95.5107 353.693 95.6795C355.919 97.5156 357.645 99.8846 358.71 102.566" stroke="#FFFAF3" stroke-width="0.896509" stroke-linecap="round" stroke-linejoin="round"/>
<path d="M348.904 93.0432L351.291 94.5108" stroke="#FFFAF3" stroke-width="0.896509" stroke-linecap="round" stroke-linejoin="round"/>
<path d="M355.552 48.3133C354.393 48.8182 353.152 49.1074 351.889 49.1667C348.627 49.3189 341.67 47.6882 341.126 49.7103" stroke="#FFFAF3" stroke-width="0.896509" stroke-linecap="round" stroke-linejoin="round"/>
<path d="M340.464 51.7703C340.356 52.1424 340.341 52.5352 340.421 52.9144C340.5 53.2935 340.672 53.6472 340.92 53.9445" stroke="#FFFAF3" stroke-width="0.896509" stroke-linecap="round" stroke-linejoin="round"/>
<path d="M340.653 46.8401C340.295 46.8358 339.942 46.9235 339.628 47.0948C339.314 47.2662 339.049 47.5154 338.859 47.8185C338.102 48.827 337.742 50.0787 337.848 51.3354" stroke="#FFFAF3" stroke-width="0.896509" stroke-linecap="round" stroke-linejoin="round"/>
<path d="M269.533 83.6448C265.201 82.8493 260.728 83.62 256.912 85.8191C255.357 86.7214 253.944 87.8466 252.482 88.8957C246.038 93.5022 238.64 96.6009 230.837 97.9623" stroke="#FFFAF3" stroke-width="0.896509" stroke-linecap="round" stroke-linejoin="round"/>
<path d="M227.445 99.0822C225.602 99.0982 223.814 99.7188 222.357 100.849" stroke="#FFFAF3" stroke-width="0.896509" stroke-linecap="round" stroke-linejoin="round"/>
<path d="M261.609 80.4379C258.137 81.5141 254.978 83.4188 252.406 85.9877" stroke="#FFFAF3" stroke-width="0.896509" stroke-linecap="round" stroke-linejoin="round"/>
<path d="M249.627 87.6129C248.661 88.5671 247.495 89.2949 246.214 89.7436" stroke="#FFFAF3" stroke-width="0.896509" stroke-linecap="round" stroke-linejoin="round"/>
<path d="M280.823 119.618C280.823 120.336 281.366 120.928 281.866 121.428C282.296 121.841 282.823 122.287 283.41 122.189" stroke="#FFFAF3" stroke-width="0.896509" stroke-linecap="round" stroke-linejoin="round"/>
<path d="M277.208 119.863C277.413 120.953 277.989 121.938 278.839 122.651" stroke="#FFFAF3" stroke-width="0.896509" stroke-linecap="round" stroke-linejoin="round"/>
<path d="M274.246 119.857C274.146 120.649 274.339 121.449 274.79 122.108" stroke="#FFFAF3" stroke-width="0.896509" stroke-linecap="round" stroke-linejoin="round"/>
<path d="M211.709 113.601C211.145 114.1 210.641 114.664 210.209 115.28C209.77 115.899 209.142 116.359 208.42 116.59C208.057 116.69 207.671 116.653 207.333 116.487C206.995 116.321 206.731 116.036 206.588 115.688" stroke="#FFFAF3" stroke-width="0.896509" stroke-linecap="round" stroke-linejoin="round"/>
<path d="M207.833 110.861C206.875 111.522 206.131 112.447 205.691 113.525" stroke="#FFFAF3" stroke-width="0.896509" stroke-linecap="round" stroke-linejoin="round"/>
<path d="M206.024 107.589C205.087 107.991 204.283 108.649 203.703 109.486" stroke="#FFFAF3" stroke-width="0.896509" stroke-linecap="round" stroke-linejoin="round"/>
<path d="M160.277 36.1864C168.892 35.3873 176.638 30.055 185.281 30.7507" stroke="#FFFAF3" stroke-width="0.896509" stroke-linecap="round" stroke-linejoin="round"/>
<path d="M166.751 38.1052C170.762 37.9421 174.187 34.9525 178.166 34.5286" stroke="#FFFAF3" stroke-width="0.896509" stroke-linecap="round" stroke-linejoin="round"/>
<path d="M180.688 34.0991H183.405" stroke="#FFFAF3" stroke-width="0.896509" stroke-linecap="round" stroke-linejoin="round"/>
<path d="M150.726 55.7058C153.985 56.8756 157.456 57.3352 160.907 57.0539" stroke="#FFFAF3" stroke-width="0.896509" stroke-linecap="round" stroke-linejoin="round"/>
<path d="M164.642 57.2222C165.851 57.2648 167.062 57.234 168.268 57.1298C168.725 57.1394 169.17 56.9764 169.512 56.6732" stroke="#FFFAF3" stroke-width="0.896509" stroke-linecap="round" stroke-linejoin="round"/>
<path d="M239.904 41.8612C247.796 42.0297 255.624 39.8446 263.505 40.274" stroke="#FFFAF3" stroke-width="0.896509" stroke-linecap="round" stroke-linejoin="round"/>
<path d="M246.698 44.5356C250.764 44.8617 254.759 43.1115 258.831 43.2908" stroke="#FFFAF3" stroke-width="0.896509" stroke-linecap="round" stroke-linejoin="round"/>
<path d="M267.082 40.3119L269.881 40.426" stroke="#FFFAF3" stroke-width="0.896509" stroke-linecap="round" stroke-linejoin="round"/>
<path d="M226.314 63.0548C225.537 67.6316 230.755 71.4801 230.369 76.1004" stroke="#FFFAF3" stroke-width="0.896509" stroke-linecap="round" stroke-linejoin="round"/>
<path d="M390.161 36.0995C391.102 36.393 391.738 37.241 392.423 37.9476C395.782 41.4156 401.663 41.8341 405.729 39.2087C409.795 36.5833 412.85 28.881 412.067 24.1194C410.909 17.0204 401.946 12.2914 394.423 14.2265C392.645 14.6577 391.014 15.5532 389.696 16.8215C388.378 18.0898 387.421 19.6853 386.922 21.445C386.188 23.9889 385.416 27.9678 386.612 30.7128C386.384 31.1042 379.132 37.2356 379.453 37.6269C380.1 38.4477 389.591 35.9256 390.161 36.0995Z" fill="#F6F3EE"/>
<path d="M391.494 29.7123C391.498 30.319 391.663 30.9137 391.972 31.4354C392.137 31.6896 392.392 31.8715 392.686 31.9442C392.979 32.0169 393.29 31.9749 393.554 31.8268C394.059 31.4463 393.994 30.6853 393.94 30.0494C393.87 29.5707 393.932 29.082 394.119 28.6361C394.214 28.4136 394.381 28.2292 394.592 28.112C394.804 27.9949 395.049 27.9517 395.288 27.9892C395.532 28.0833 395.745 28.2454 395.9 28.4563C396.055 28.6673 396.146 28.9183 396.163 29.1797C396.185 29.7011 396.263 30.2187 396.397 30.7234C396.587 31.2126 397.136 31.6257 397.614 31.4191C398.093 31.2126 398.158 30.6092 398.201 30.1037C398.337 27.2826 398.468 24.3691 397.5 21.7111C397.458 21.56 397.382 21.4206 397.277 21.3034C397.139 21.2111 396.982 21.1516 396.818 21.1294C396.653 21.1072 396.486 21.1229 396.329 21.1754C396.171 21.2279 396.028 21.3157 395.91 21.4321C395.792 21.5485 395.702 21.6904 395.647 21.847C395.505 22.7004 395.5 23.6081 395.424 24.4724C395.417 24.8033 395.346 25.1298 395.217 25.4345C395.153 25.5878 395.047 25.7201 394.912 25.8162C394.776 25.9124 394.617 25.9684 394.451 25.9781C394.258 25.9519 394.079 25.8667 393.937 25.7344C393.795 25.602 393.697 25.4289 393.657 25.2388C393.391 24.3311 393.717 23.2439 392.923 22.521C392.13 21.7981 391.63 22.1731 391.363 23.0102C390.755 24.9779 391.298 27.6577 391.494 29.7123Z" fill="#273CB3"/>
<path d="M400.484 28.234C400.561 28.7389 400.734 29.2242 400.995 29.6636C401.128 29.8828 401.311 30.0675 401.53 30.2025C401.748 30.3376 401.995 30.4193 402.25 30.4409C402.38 30.453 402.511 30.429 402.628 30.3714C402.745 30.3139 402.844 30.225 402.914 30.1147C402.959 30.0101 402.983 29.8973 402.984 29.7832C403.063 28.8363 403.025 27.8833 402.87 26.9458C402.729 26.0761 402.707 25.0705 402.327 24.2714C402.18 23.9848 401.957 23.7439 401.683 23.5752C401.409 23.4065 401.094 23.3164 400.772 23.3148C399.516 23.3909 400.326 27.4622 400.484 28.234Z" fill="#273CB3"/>
<path d="M399.978 21.0808C399.932 21.2123 399.916 21.3525 399.932 21.491C399.948 21.6294 399.995 21.7624 400.07 21.8798C400.206 22.0409 400.377 22.1685 400.57 22.2527C400.763 22.337 400.972 22.3756 401.183 22.3656C401.393 22.3556 401.598 22.2973 401.782 22.1951C401.967 22.093 402.125 21.9497 402.244 21.7766C402.349 21.4837 402.359 21.1653 402.272 20.8666C402.185 20.568 402.006 20.3044 401.761 20.1132C401.633 20.0375 401.49 19.9918 401.342 19.9796C401.194 19.9674 401.046 19.9889 400.907 20.0426C400.709 20.1276 400.53 20.2511 400.379 20.406C400.229 20.5609 400.111 20.7441 400.032 20.9449C400.012 20.9892 399.994 21.0346 399.978 21.0808Z" fill="#273CB3"/>
<path d="M404.903 23.8528C404.629 23.2172 404.406 22.5611 404.234 21.8906C404.077 21.3215 404.077 20.7203 404.234 20.1512C404.317 19.8692 404.474 19.6148 404.689 19.4148C404.905 19.2148 405.17 19.0767 405.457 19.0151C405.548 18.9944 405.643 19.008 405.724 19.0532C405.784 19.1023 405.827 19.1687 405.849 19.2434C406.769 21.4553 407.048 23.8816 406.653 26.2445C406.639 26.3923 406.589 26.5342 406.506 26.6576C406.463 26.7172 406.4 26.76 406.329 26.7788C406.258 26.7976 406.182 26.7913 406.115 26.7609C406.031 26.6921 405.973 26.596 405.952 26.4891C405.668 25.5855 405.318 24.7043 404.903 23.8528Z" fill="#273CB3"/>
<path d="M406.039 28.0004C405.898 28.0353 405.768 28.1027 405.659 28.1971C405.549 28.2915 405.463 28.4103 405.408 28.544C405.369 28.6726 405.349 28.8063 405.348 28.9408C405.298 29.2231 405.35 29.5141 405.495 29.7615C405.638 29.8958 405.817 29.9853 406.01 30.0191C406.203 30.0529 406.402 30.0295 406.582 29.9518C406.716 29.9087 406.841 29.8424 406.952 29.7561C407.165 29.5308 407.3 29.2431 407.338 28.9353C407.402 28.7373 407.419 28.5268 407.387 28.3211C407.272 27.7558 406.441 27.8808 406.039 28.0004Z" fill="#273CB3"/>
<path d="M391.481 17.9172C392.64 16.9408 394.007 16.2418 395.477 15.8734C396.956 15.5057 398.513 15.6199 399.923 16.1995" stroke="#273CB3" stroke-width="0.896509" stroke-linecap="round" stroke-linejoin="round"/>
<path d="M398.771 37.3441C399.865 37.3994 400.962 37.3098 402.032 37.0778C403.1 36.8439 404.08 36.3168 404.864 35.5558" stroke="#273CB3" stroke-width="0.896509" stroke-linecap="round" stroke-linejoin="round"/>
<path d="M532.652 81.6935C532.652 81.6935 533.521 77.7799 531.244 73.0889C529.869 70.2678 526.814 68.4849 523.775 67.7076C522.255 67.3068 520.664 67.2505 519.119 67.543C517.574 67.8354 516.113 68.4692 514.845 69.3981C513.376 70.5908 512.189 72.0946 511.371 73.801C510.359 75.6702 509.781 77.7437 509.681 79.8672C509.671 82.2972 510.446 84.6655 511.89 86.6195C513.335 88.5735 515.372 90.0086 517.698 90.7113C522.357 91.9995 528.086 89.7002 529.113 87.3194C529.113 87.3194 535.636 87.3194 540.697 84.5255C538.767 83.7319 532.652 81.6935 532.652 81.6935Z" fill="#F6F3EE"/>
<path d="M526.215 81.8565C527.059 81.8565 527.743 81.1727 527.743 80.3291C527.743 79.4855 527.059 78.8017 526.215 78.8017C525.372 78.8017 524.688 79.4855 524.688 80.3291C524.688 81.1727 525.372 81.8565 526.215 81.8565Z" fill="#273CB3"/>
<path d="M521.117 81.8565C521.96 81.8565 522.644 81.1727 522.644 80.3291C522.644 79.4855 521.96 78.8017 521.117 78.8017C520.273 78.8017 519.589 79.4855 519.589 80.3291C519.589 81.1727 520.273 81.8565 521.117 81.8565Z" fill="#273CB3"/>
<path d="M516.018 81.8565C516.862 81.8565 517.546 81.1727 517.546 80.3291C517.546 79.4855 516.862 78.8017 516.018 78.8017C515.175 78.8017 514.491 79.4855 514.491 80.3291C514.491 81.1727 515.175 81.8565 516.018 81.8565Z" fill="#273CB3"/>
<path d="M518.715 69.822C516.854 70.4596 515.207 71.6027 513.959 73.1234C512.711 74.6441 511.911 76.4823 511.648 78.4321" stroke="#273CB3" stroke-width="0.896509" stroke-linecap="round" stroke-linejoin="round"/>
<path d="M457.253 111.236C456.057 109.606 454.489 108.284 452.68 107.382C450.87 106.48 448.871 106.024 446.849 106.051C445.752 106.048 444.666 106.278 443.664 106.725C442.383 107.407 441.302 108.411 440.528 109.638C439.2 111.589 438.303 113.8 437.898 116.125C437.493 118.45 437.589 120.834 438.179 123.119C438.472 124.471 439.122 125.721 440.06 126.739C441.899 128.518 444.312 129.582 446.866 129.739C450.464 129.88 452.698 128.859 456.041 126.342C458.759 127.701 463.863 129.402 464.194 128.657C464.526 127.913 459.204 121.678 459.204 121.678C459.427 120.434 459.553 119.175 459.579 117.911C459.458 115.51 458.65 113.193 457.253 111.236Z" fill="#F6F3EE"/>
<path d="M443.583 119.199C444.427 119.199 445.11 118.516 445.11 117.672C445.11 116.829 444.427 116.145 443.583 116.145C442.739 116.145 442.056 116.829 442.056 117.672C442.056 118.516 442.739 119.199 443.583 119.199Z" fill="#273CB3"/>
<path d="M448.681 119.199C449.525 119.199 450.209 118.516 450.209 117.672C450.209 116.829 449.525 116.145 448.681 116.145C447.838 116.145 447.154 116.829 447.154 117.672C447.154 118.516 447.838 119.199 448.681 119.199Z" fill="#273CB3"/>
<path d="M453.779 119.199C454.623 119.199 455.307 118.516 455.307 117.672C455.307 116.829 454.623 116.145 453.779 116.145C452.936 116.145 452.252 116.829 452.252 117.672C452.252 118.516 452.936 119.199 453.779 119.199Z" fill="#273CB3"/>
<path d="M440.577 123.526C440.853 124.352 441.328 125.098 441.96 125.697C442.593 126.296 443.362 126.73 444.202 126.962C445.891 127.407 447.666 127.407 449.355 126.962" stroke="#273CB3" stroke-width="0.896509" stroke-linecap="round" stroke-linejoin="round"/>
<path d="M450.807 55.8742C447.198 54.075 437.071 54.4501 435.261 62.2557C434.174 66.8379 436.277 71.8115 439.463 75.274C440.354 76.3335 441.512 77.1364 442.816 77.6005C445.272 78.3204 447.904 78.1372 450.236 77.0841C453.497 75.5349 454.987 73.589 456.759 69.8003C459.797 69.7405 465.103 65.7399 465.032 64.9354C464.961 64.131 457.368 63.6907 457.368 63.6907C456.948 62.6705 456.473 61.6743 455.943 60.7065C454.724 58.6412 452.943 56.9652 450.807 55.8742Z" fill="#F6F3EE"/>
<path d="M441.496 67.0662C442.339 67.0662 443.023 66.3824 443.023 65.5388C443.023 64.6953 442.339 64.0114 441.496 64.0114C440.652 64.0114 439.968 64.6953 439.968 65.5388C439.968 66.3824 440.652 67.0662 441.496 67.0662Z" fill="#273CB3"/>
<path d="M446.593 67.0662C447.437 67.0662 448.121 66.3824 448.121 65.5388C448.121 64.6953 447.437 64.0114 446.593 64.0114C445.75 64.0114 445.066 64.6953 445.066 65.5388C445.066 66.3824 445.75 67.0662 446.593 67.0662Z" fill="#273CB3"/>
<path d="M451.692 67.0662C452.536 67.0662 453.219 66.3824 453.219 65.5388C453.219 64.6953 452.536 64.0114 451.692 64.0114C450.848 64.0114 450.165 64.6953 450.165 65.5388C450.165 66.3824 450.848 67.0662 451.692 67.0662Z" fill="#273CB3"/>
<path d="M441.762 73.5402C442.306 74.2207 443.009 74.757 443.809 75.102C444.609 75.447 445.482 75.5902 446.35 75.5188C448.088 75.3526 449.753 74.7383 451.182 73.7359" stroke="#273CB3" stroke-width="0.896509" stroke-linecap="round" stroke-linejoin="round"/>
<path d="M91.6786 80.0411C92.494 80.5846 92.8419 81.6011 93.3093 82.4817C95.4836 86.7976 100.979 88.961 105.626 87.6727C110.274 86.3845 115.514 79.9541 116.199 75.1707C117.221 68.0501 110.089 60.8533 102.332 60.4456C100.508 60.32 98.682 60.6835 97.0443 61.4985C95.4067 62.3135 94.016 63.5506 93.0158 65.0822C91.5482 67.2891 89.6239 70.8331 89.9392 73.8281C89.6022 74.1325 80.8508 77.7962 81.0356 78.2799C81.378 79.2638 91.1894 79.7041 91.6786 80.0411Z" fill="#F6F3EE"/>
<path d="M98.9136 63.6093C100.314 63.0259 101.829 62.7694 103.344 62.8592C104.861 62.9488 106.31 63.52 107.48 64.4899" stroke="#273CB3" stroke-width="0.896509" stroke-linecap="round" stroke-linejoin="round"/>
<path d="M98.4031 69.3764C97.8817 69.3687 97.374 69.5437 96.9681 69.871C96.3484 70.5287 96.468 72.3823 96.8104 73.2194C97.99 76.0622 99.9359 77.8614 102.213 79.9324C104.668 78.6099 106.69 76.6075 108.035 74.1652C108.678 73.1425 108.991 71.9471 108.932 70.7407C108.902 70.3315 108.748 69.9411 108.492 69.621C108.147 69.2819 107.686 69.0874 107.203 69.0774C106.662 69.0642 106.124 69.162 105.622 69.3649C105.12 69.5677 104.665 69.8713 104.284 70.257C103.651 71.0389 103.07 71.8614 102.545 72.7193C102.545 72.7193 101.507 69.0502 98.4031 69.3764Z" fill="#273CB3"/>
<path d="M95.2451 66.4411C94.6358 67.1739 94.0988 67.964 93.6416 68.8002" stroke="#273CB3" stroke-width="0.896509" stroke-linecap="round" stroke-linejoin="round"/>
<path d="M55.636 23.217C57.682 22.5281 59.8575 22.3115 61.9992 22.5836C64.141 22.8556 66.1933 23.6093 68.0021 24.7879C69.0174 25.4105 69.9002 26.2269 70.6003 27.1904C71.4059 28.4763 71.8681 29.9473 71.9429 31.4628C72.1621 33.8329 71.8312 36.2216 70.9761 38.4428C70.121 40.6641 68.7647 42.658 67.0128 44.2692C66.0058 45.2598 64.7428 45.9505 63.3655 46.2641C60.6584 46.7064 57.8813 46.2279 55.4783 44.9052C52.0702 42.9592 50.5428 40.8067 48.7653 36.7517C45.5311 36.344 39.9161 34.8601 40.014 34.0339C40.1118 33.2077 48.3142 30.9627 48.3142 30.9627C48.7619 29.7798 49.3074 28.6362 49.9449 27.5437C51.3563 25.5549 53.3421 24.0452 55.636 23.217Z" fill="#F6F3EE"/>
<path d="M64.3329 42.1223C63.6636 42.6804 62.867 43.0647 62.0136 43.241C61.1602 43.4174 60.2765 43.3804 59.4408 43.1333C57.781 42.6179 56.2829 41.6816 55.0923 40.4155" stroke="#273CB3" stroke-width="0.896509" stroke-linecap="round" stroke-linejoin="round"/>
<path d="M57.2985 36.5559C57.2528 36.7374 57.27 36.929 57.3474 37.0994C57.4139 37.1987 57.5144 37.2703 57.6301 37.3005C57.8158 37.3399 58.0091 37.3213 58.184 37.2475C58.359 37.1736 58.5071 37.048 58.6084 36.8874C58.8072 36.5658 58.9506 36.213 59.0324 35.8438C59.1248 35.5503 59.2281 35.2676 59.3477 34.985C59.4063 34.8203 59.4968 34.6689 59.614 34.5392C59.6736 34.4744 59.7491 34.4263 59.833 34.3996C59.9169 34.3729 60.0063 34.3686 60.0923 34.387C60.3478 34.4631 60.4511 34.7621 60.5 35.023C60.5825 35.4766 60.619 35.9373 60.6088 36.3982C60.5832 36.5342 60.5875 36.6742 60.6212 36.8084C60.655 36.9426 60.7176 37.0678 60.8044 37.1755C60.9 37.2446 61.0135 37.2844 61.1312 37.2902C61.2489 37.296 61.3658 37.2675 61.4676 37.2081C62.0111 36.9092 62.1525 36.121 62.2068 35.5448C62.2432 35.1837 62.2541 34.8204 62.2395 34.4577C62.2423 34.0282 62.1297 33.6058 61.9133 33.2347C61.6317 32.8463 61.2181 32.5738 60.7501 32.4683C60.4382 32.403 60.1162 32.403 59.8043 32.4683C59.7715 32.4707 59.7386 32.4654 59.7082 32.4529C59.6777 32.4404 59.6506 32.421 59.629 32.3962C59.6074 32.3714 59.5919 32.3419 59.5836 32.3101C59.5754 32.2783 59.5746 32.2449 59.5814 32.2128C59.7662 31.4192 60.0924 29.5982 59.9619 29.1308C59.902 28.8665 59.7411 28.6361 59.5136 28.4888C59.286 28.3415 59.01 28.2891 58.7443 28.3426C58.2008 28.5165 58.3258 28.946 58.2986 29.3917C58.1953 30.9191 57.8692 32.4628 57.6572 33.9848L57.2985 36.5559Z" fill="#273CB3"/>
<path d="M64.6205 32.5118C64.5171 32.2994 64.3665 32.1135 64.1802 31.9683C64.0714 31.8818 63.9414 31.8261 63.8037 31.807C63.666 31.7879 63.5258 31.806 63.3975 31.8596C63.3146 31.9071 63.2423 31.9712 63.1853 32.0479C63.1282 32.1246 63.0876 32.2122 63.0659 32.3053C63.0225 32.493 63.0225 32.6882 63.0659 32.876C63.1839 33.4432 63.4633 33.9641 63.8704 34.3763C63.9869 34.4892 64.0924 34.613 64.1856 34.7459C64.2301 34.8142 64.2594 34.8913 64.2716 34.9719C64.2838 35.0526 64.2786 35.1349 64.2563 35.2133C64.1779 35.368 64.0522 35.4937 63.8975 35.5721C63.6337 35.7172 63.4017 35.9136 63.215 36.1498C63.0282 36.386 62.8907 36.6571 62.8104 36.9473C62.7773 37.1062 62.7944 37.2715 62.8594 37.4202C62.8907 37.4931 62.9401 37.5567 63.0029 37.6052C63.0657 37.6537 63.1397 37.6855 63.2181 37.6974C63.3281 37.7018 63.4378 37.6814 63.5388 37.6376C64.0954 37.4287 64.5972 37.096 65.0064 36.6647C65.0579 36.59 65.1239 36.5265 65.2005 36.4779C65.2771 36.4293 65.3627 36.3967 65.4522 36.382C65.6026 36.4056 65.7385 36.4852 65.8326 36.6049L66.6915 37.4474C66.8267 37.5964 66.9802 37.7278 67.1481 37.8388C67.2656 37.9209 67.4048 37.9662 67.5481 37.969C67.6915 37.9717 67.8324 37.9319 67.953 37.8544C68.0736 37.7769 68.1684 37.6653 68.2254 37.5338C68.2824 37.4023 68.2991 37.2568 68.2732 37.1158C68.2186 36.6726 68.0288 36.257 67.7297 35.9254C67.5925 35.7473 67.4416 35.5801 67.2785 35.4253C67.1644 35.3166 66.8926 35.1535 66.9415 34.9687C66.9586 34.9184 66.9886 34.8734 67.0285 34.8383C67.5124 34.369 67.936 33.8413 68.2896 33.2674C68.4307 33.0361 68.4936 32.7654 68.4689 32.4955C68.3059 31.4954 67.1481 32.2237 66.7784 32.6314C66.4088 33.0391 66.2349 33.3544 65.9631 33.7185C65.8905 33.8361 65.7758 33.9217 65.6424 33.9577C65.5512 33.9514 65.463 33.9222 65.386 33.8728C65.3091 33.8234 65.2458 33.7554 65.2021 33.6751C64.9629 33.3326 64.8325 32.8869 64.6205 32.5118Z" fill="#273CB3"/>
<path d="M53.4609 35.7732C53.4274 36.0016 53.4498 36.2347 53.5261 36.4526C53.5697 36.5353 53.6297 36.6083 53.7024 36.667C53.7751 36.7258 53.8589 36.7693 53.9489 36.7947C54.0389 36.8201 54.1331 36.827 54.2258 36.8149C54.3185 36.8028 54.4078 36.772 54.4882 36.7244C54.8023 36.501 55.0336 36.1799 55.1459 35.8112C55.3905 35.0703 55.5403 34.3014 55.5917 33.5228C55.7076 32.4792 55.8145 31.4355 55.9124 30.3919C55.9776 29.6961 56.1787 28.9351 55.5101 28.5655C54.1621 27.8263 53.9827 31.354 53.8413 32.24C53.6551 33.4106 53.5282 34.5898 53.4609 35.7732Z" fill="#273CB3"/>
<path d="M52.4171 32.0064C52.4877 32.3923 52.9607 32.55 53.3412 32.6043C53.9963 32.7401 54.6588 32.8381 55.3252 32.8979C55.8361 32.8979 56.608 32.8979 56.9939 32.5337C57.2766 32.2456 57.4777 31.6694 57.07 31.3976C56.8635 31.2882 56.635 31.2268 56.4014 31.2182L53.5532 30.9193C52.8139 30.8432 52.2649 31.1693 52.4171 32.0064Z" fill="#273CB3"/>
<path d="M65.4199 25.826C66.2753 26.3136 67.0722 26.8972 67.7953 27.5654" stroke="#273CB3" stroke-width="0.896509" stroke-linecap="round" stroke-linejoin="round"/>
</svg>
