<svg width="410" height="287" viewBox="0 0 410 287" fill="none" xmlns="http://www.w3.org/2000/svg">
<g clip-path="url(#clip0)">
<path d="M96.3836 58.6704C92.6431 62.7184 89.4149 67.2019 86.6992 71.9929C85.6744 73.812 84.7008 75.7335 84.5983 77.8343C84.3934 81.5493 87.0066 84.9568 90.2604 86.7246C93.5142 88.4924 97.3572 88.8511 101.047 88.9535C105.914 89.0816 110.859 88.7486 115.394 87.032C119.929 85.3155 124.054 82.0105 125.898 77.5269C127.051 74.7343 127.282 71.6855 127.282 68.6623C127.307 61.5398 122.516 56.6976 115.599 55.7753C110.731 55.1092 99.6118 55.1604 96.3836 58.6704Z" fill="#B7C3F9"/>
<path d="M179.111 61.2324C196.917 51.2149 216.978 40.8387 236.86 45.6041C255.511 50.062 269.244 66.9458 287.818 71.6855C297.631 74.1963 308.212 73.1202 317.743 76.5534C332.756 81.9592 341.851 97.3058 346.694 112.524C351.536 127.743 353.432 143.935 360.272 158.359C362.066 162.151 364.218 165.891 364.935 170.042C366.319 178.215 361.707 186.285 355.891 192.203C350.076 198.122 342.953 202.605 337.265 208.626C328.785 217.593 323.738 229.686 314.105 237.397C304.933 244.75 292.097 247.21 280.798 243.931C269.884 240.779 261.019 232.888 250.797 227.918C233.401 219.386 212.93 219.745 193.946 223.46C174.961 227.175 156.745 234.092 137.837 238.269C121.671 241.83 105.146 243.367 88.595 242.855C79.346 242.573 69.5591 241.42 62.2573 235.732C52.291 227.944 49.8059 214.006 49.2678 201.35C48.653 187.412 49.8827 172.373 58.6192 161.459C63.0515 155.925 69.1236 151.851 73.5046 146.266C81.2676 136.325 82.4717 123.208 89.133 112.704C95.9736 101.866 102.046 101.815 113.267 100.56C125.181 99.2273 134.968 88.4412 144.498 81.9849C155.618 74.4269 167.377 67.8168 179.111 61.2324Z" fill="#8095ED"/>
<path d="M138.683 47.3463C137.991 47.6538 137.248 47.8843 136.505 48.0381C135.634 48.2174 134.737 48.3711 133.841 48.448C133.636 48.0381 133.533 47.6025 133.533 47.1413C134.071 46.1165 134.635 45.1173 135.25 44.1438C135.583 43.5545 135.993 42.9909 136.428 42.4785C136.479 43.0421 136.608 43.5801 136.761 44.1182C136.864 44.4512 136.992 44.8099 137.146 45.1173C137.53 45.9372 138.042 46.6802 138.683 47.3463Z" fill="#FFB152" stroke="#273CB3" stroke-width="0.316814" stroke-linecap="round" stroke-linejoin="round"/>
<path d="M133.84 48.4479C133.507 48.4735 133.149 48.4991 132.816 48.5247C133.046 48.0636 133.302 47.6024 133.559 47.1669C133.559 47.6024 133.636 48.038 133.84 48.4479Z" fill="#3856FF" stroke="#273CB3" stroke-width="0.316814" stroke-linecap="round" stroke-linejoin="round"/>
<path d="M153.747 35.7658C153.747 36.1245 153.671 36.4576 153.517 36.7906C153.312 37.0981 153.03 37.3543 152.723 37.5593C148.777 40.3519 144.832 43.1701 140.886 45.9627C140.22 46.4751 139.503 46.9107 138.785 47.295C138.76 47.3206 138.734 47.3206 138.683 47.3462C138.068 46.7057 137.555 45.9371 137.171 45.1172C137.017 44.7842 136.889 44.4511 136.787 44.118C136.607 43.58 136.505 43.042 136.454 42.4783C136.479 42.4527 136.505 42.4271 136.531 42.4015C137.043 41.9147 137.581 41.4792 138.196 41.1205C140.041 39.8907 140.655 39.4552 142.5 38.1998C144.037 37.1493 146.958 34.8179 149.315 33.1526C150.468 32.3583 150.058 32.0253 151.647 32.0765C153.645 32.1278 153.876 34.1518 153.747 35.7658Z" fill="#3856FF" stroke="#273CB3" stroke-width="0.316814" stroke-linecap="round" stroke-linejoin="round"/>
<path d="M147.137 31.6154C147.265 30.7443 147.47 29.8988 147.752 29.0533L149.674 22.6739C150.494 19.9838 151.544 16.9862 154.08 15.8077C156.207 14.8085 158.692 15.449 161.049 15.2952C164.918 15.0903 168.3 12.8357 171.707 10.991C173.065 10.2481 174.551 9.55631 176.114 9.68441C177.882 9.83813 179.393 11.0679 180.649 12.3233C181.904 13.5787 183.108 15.0134 183.851 16.6531C185.055 19.292 185.081 22.3408 183.954 25.0053C183.416 26.2607 182.621 27.388 181.827 28.5153L177.523 34.6642C177.241 35.0997 176.908 35.5096 176.498 35.8427C175.986 36.1758 175.397 36.3807 174.782 36.4576C170.477 37.2775 165.891 37.1237 161.946 39.0196C160.332 39.8139 158.743 41.018 156.873 41.1461C155.464 41.2486 154.439 40.4544 153.209 39.8907C149.648 38.3023 146.651 36.0221 147.137 31.6154Z" fill="#FFB152"/>
<path d="M298.22 238.781C307.7 230.839 310.005 215.979 307.085 203.579C303.908 190.128 301.371 176.524 296.478 163.585C293.352 155.31 289.817 146.984 289.535 138.145C289.048 121.927 301.218 106.247 317.025 102.712C314.156 106.555 313.08 117.802 314.079 122.491C318.435 142.474 339.699 164.508 346.617 180.392C358.581 207.883 355.328 240.6 320.484 255.716C310.697 259.969 299.245 257.638 288.689 255.998C287.46 255.793 286.153 255.562 285.179 254.794C278.8 249.644 285.666 247.774 288.1 246.851C293.89 244.597 293.634 242.624 298.22 238.781Z" fill="#FF9739"/>
<path d="M261.019 120.953C263.453 117.802 269.192 115.676 272.856 112.985C273.573 112.499 274.24 111.961 274.829 111.32C277.083 117.751 276.212 126.667 274.163 133.174C273.112 136.53 272.267 137.53 271.114 139.426C271.063 139.502 271.011 139.579 270.909 139.631C270.806 139.656 270.704 139.631 270.601 139.579C269.73 139.221 269.628 138.888 268.782 138.529C267.681 138.119 266.63 137.632 265.657 136.992C262.71 135.019 257.74 129.536 257.1 126.052C257.1 126.077 259.969 122.311 261.019 120.953Z" fill="#FF9739"/>
<path d="M289.253 174.218C290.098 166.019 297.964 160.127 300.27 160.127C302.063 160.127 307.7 169.555 307.7 172.425C307.7 180.879 304.6 184.773 302.063 192.152C296.683 207.78 300.449 223.153 300.782 228.533C301.192 235.297 300.09 242.137 297.195 248.261C294.3 254.384 280.645 254.23 273.881 253.897C273.035 253.846 279.312 244.417 278.646 243.905C278.031 243.444 277.673 242.752 277.34 242.06C272.472 231.992 272.113 235.809 274.649 224.946C275.751 220.232 279.21 208.933 282.079 204.962C288.741 195.739 288.946 177.267 289.253 174.218Z" fill="#FF9739"/>
<path d="M266.63 125.77C268.321 123.848 271.831 122.209 273.625 117.597C273.625 123.746 272.856 128.87 270.32 133.02C270.166 133.277 270.063 133.584 269.807 133.687C269.218 133.943 268.706 133.174 268.501 132.585L266.707 127.205C266.579 126.795 266.451 126.385 266.579 125.975C266.707 125.565 267.22 125.283 267.553 125.514" fill="#CD5000"/>
<path d="M227.662 102.199C227.252 101.379 226.304 100.534 225.484 100.944C225.023 102.917 223.845 104.608 222.845 106.35C218.874 113.293 217.439 121.415 218.849 129.306C218.72 128.614 226.945 123.951 227.867 123.31C229.66 122.055 233.58 120.492 234.426 118.366C236.373 113.549 230.839 108.63 227.662 102.199Z" fill="#FF9739"/>
<path d="M230.07 116.828C229.968 117.213 227.303 118.878 226.945 119.083C226.483 119.339 225.869 119.109 225.433 119.365C225.305 119.442 225.151 119.595 224.997 119.544C224.895 119.493 224.818 119.416 224.767 119.314C224.459 118.622 224.741 117.802 224.972 117.085C225.997 114.036 225.92 109.475 226.227 106.324C227.764 109.655 230.403 115.445 230.07 116.828Z" fill="#CD5000"/>
<path d="M231.326 114.779C245.699 108.118 256.357 114.061 261.301 117.853C265.144 120.8 268.193 125.027 269.397 129.69C272.292 141.065 275.802 152.927 280.081 164.943C280.568 166.224 280.491 167.685 279.85 168.915C278.954 170.529 276.827 171.041 275.649 172.476C273.65 174.91 275.239 178.522 276.878 181.212C283.309 191.845 289.765 202.631 293.275 214.544C296.785 226.458 297.093 239.78 291.482 250.848C290.56 252.667 289.407 254.486 287.69 255.588C286.076 256.613 284.155 256.895 282.259 257.125C271.191 258.483 259.995 258.381 248.978 256.818C242.47 255.895 235.732 254.307 230.711 250.105C228.917 248.594 227.354 246.775 225.407 245.442C222.871 243.7 219.822 242.906 216.927 241.881C205.68 237.961 195.867 230.711 188.796 221.129C186.567 218.105 184.62 214.8 183.672 211.162C182.903 208.088 182.878 204.885 182.57 201.734C181.238 187.259 174.295 172.424 179.368 158.794C180.751 155.08 182.98 151.723 184.594 148.085C185.696 145.626 186.567 142.987 188.181 140.809C192.818 134.532 203.297 134.045 209.651 129.895C216.978 125.078 223.153 118.596 231.326 114.779Z" fill="#FF9739"/>
<path d="M207.319 139.272C208.985 137.94 211.265 137.683 213.391 137.735C221.949 137.914 228.046 138.631 236.373 136.735C238.397 136.274 242.394 134.942 244.264 135.864C246.006 136.735 248.004 138.683 248.645 139.374C261.071 152.697 264.401 153.978 270.294 157.565C273.881 159.742 274.649 163.201 271.652 165.097C270.473 165.84 267.783 167.172 266.707 168.069C264.453 169.939 267.399 172.757 268.757 175.345C273.163 183.62 277.416 192.203 278.877 201.478C279.902 208.062 279.466 214.8 278.108 221.308C277.263 225.305 282.028 255.152 278.646 257.433C278.134 257.842 277.493 258.073 276.853 258.124C275.905 258.15 275.059 257.535 274.316 256.971C270.832 254.307 268.834 260.251 262.839 260.302C237.987 260.43 221.616 245.007 214.672 245.186C209.753 245.314 224.869 224.946 220.77 222.23C218.259 220.565 216.44 218.054 214.698 215.595C212.341 212.264 209.984 208.933 208.37 205.193C204.834 197.02 205.167 187.745 206.013 178.881C206.858 170.016 208.19 160.998 206.397 152.287C205.731 148.879 204.04 141.859 207.319 139.272Z" fill="#F6F3EE"/>
<path d="M298.963 174.986C299.757 175.115 300.577 175.32 301.218 175.832C302.063 176.524 302.396 177.625 302.678 178.65C302.986 179.829 303.191 181.212 302.422 182.109C301.935 182.621 301.243 182.929 300.526 182.954C299.809 182.954 299.091 182.878 298.425 182.698L294.838 181.904C293.839 181.699 292.712 181.366 292.327 180.418C292.174 179.982 292.148 179.547 292.199 179.086C292.327 175.704 296.017 174.551 298.963 174.986Z" fill="#FFFAF3"/>
<path d="M295.043 166.66C294.889 165.917 292.174 170.042 292.456 172.168C292.481 172.501 292.609 172.809 292.789 173.065C293.685 174.218 295.427 173.372 295.837 172.194C296.247 171.015 295.274 167.813 295.043 166.66Z" fill="#FFFAF3"/>
<path d="M303.549 172.758C303.344 173.347 303.011 173.885 302.96 174.5C302.909 175.115 303.293 175.832 303.908 175.858C304.523 175.883 304.933 175.217 305.112 174.628C305.394 173.731 305.471 172.758 305.317 171.835C305.343 171.681 305.214 171.553 305.061 171.528C305.009 171.528 304.933 171.528 304.881 171.553C304.343 171.707 303.882 172.117 303.652 172.629" fill="#FFFAF3"/>
<path d="M300.449 170.836C300.295 171.451 300.219 172.117 300.475 172.681C300.552 172.86 300.68 173.014 300.859 173.116C301.038 173.193 301.218 173.219 301.423 173.219C301.781 173.244 302.191 173.244 302.473 172.988C302.601 172.86 302.704 172.706 302.755 172.552C303.575 170.708 303.805 168.658 303.421 166.711C303.319 166.25 302.96 165.891 302.473 166.199C302.191 166.378 302.114 166.967 301.986 167.275C301.397 168.453 300.757 169.504 300.449 170.836Z" fill="#FFFAF3"/>
<path d="M297.503 166.173C297.042 167.275 297.349 169.401 297.247 170.605C297.221 170.836 297.221 171.092 297.272 171.323C297.375 171.733 297.656 172.066 298.066 172.22C298.195 172.271 298.374 172.296 298.502 172.245C298.604 172.194 298.681 172.117 298.758 172.015C299.706 170.785 300.219 167.941 299.962 166.429C299.911 166.045 299.424 164.687 298.938 164.585C298.528 164.482 297.656 165.814 297.503 166.173Z" fill="#FFFAF3"/>
<path d="M205.347 137.325V141.065H170.477C171.246 140.297 171.938 139.502 172.553 138.631C172.886 138.119 173.193 137.607 173.475 137.069C173.834 136.3 174.09 135.531 174.269 134.763C174.449 133.994 174.551 133.2 174.602 132.38C174.782 129.28 174.064 126.077 173.603 123.054C173.091 119.647 171.784 113.267 175.576 112.166C179.368 111.064 184.697 115.394 188.591 114.805C189.974 114.6 200.12 112.832 201.862 111.295H202.119C201.862 118.058 200.914 124.925 202.452 130.971C202.708 132.047 203.066 133.097 203.528 134.097C203.989 135.198 204.604 136.274 205.347 137.325Z" fill="#FFFAF3"/>
<path d="M293.762 256.228C284.795 262.377 265.067 265.196 259.175 258.79C258.765 256.664 258.252 254.358 257.689 251.924C256.92 248.67 256.023 245.212 255.05 241.625C254.512 239.703 253.948 237.756 253.359 235.783C252.642 233.35 251.873 230.89 251.079 228.43C250.336 226.15 249.593 223.87 248.799 221.641C247.902 219.028 246.954 216.466 246.006 213.981C245.237 211.931 244.443 209.933 243.649 208.037C242.47 205.193 241.266 202.528 240.088 200.12C239.883 199.684 239.652 199.249 239.447 198.813C239.396 199.172 239.345 199.531 239.319 199.889C239.037 202.759 239.319 205.5 239.934 208.139C240.421 210.291 241.112 212.366 241.881 214.39C242.906 217.106 244.008 219.694 244.879 222.153C245.263 223.255 245.596 224.331 245.852 225.382C246.083 226.381 246.288 227.508 246.416 228.687C246.672 230.864 246.749 233.298 246.595 235.758C246.467 237.859 246.185 239.96 245.699 241.932C244.776 245.801 243.162 249.208 240.677 251.156C240.216 251.514 239.729 251.847 239.242 252.129C235.835 254.179 231.684 254.845 227.713 255.332C202.58 258.509 165.43 259.277 138.221 254.204C134.43 253.487 123.439 264.632 121.107 261.557C118.673 258.355 100.124 261.557 100.099 248.773V248.747L100.406 242.65C100.662 239.985 101.098 237.423 101.636 234.81C102.02 232.94 102.507 231.069 103.019 229.148C103.66 226.791 104.377 224.357 105.146 221.744C105.709 219.848 106.324 217.849 106.939 215.723C107.708 213.186 108.502 210.445 109.322 207.499C109.373 207.371 109.399 207.217 109.45 207.063C109.962 205.347 110.757 203.118 111.704 200.632C112.524 198.506 113.447 196.2 114.42 193.869C115.343 191.665 116.265 189.436 117.187 187.284C118.007 185.337 118.801 183.467 119.519 181.801C120.364 179.829 121.107 178.087 121.645 176.754C122.158 175.525 122.798 174.397 123.567 173.372C125.565 170.631 128.383 168.479 131.458 166.634C134.097 165.046 136.966 163.662 139.682 162.279C141.475 161.382 143.243 160.434 144.985 159.461C148.982 157.232 152.851 154.798 156.617 152.184C159.845 149.93 162.971 147.547 166.019 145.036C166.788 144.396 167.557 143.755 168.3 143.089C169.068 142.423 169.811 141.757 170.529 141.04C171.297 140.271 171.989 139.477 172.604 138.606C172.937 138.093 173.244 137.581 173.526 137.043C173.885 136.274 174.141 135.506 174.32 134.737C177.882 134.66 181.289 134.609 184.389 134.532C186.131 134.506 187.771 134.455 189.283 134.43C196.636 134.276 201.452 134.173 201.452 134.173C202.17 134.122 202.861 134.097 203.553 134.071C204.04 135.198 204.655 136.274 205.423 137.325C205.526 137.453 205.628 137.607 205.731 137.735C205.91 137.965 206.09 138.196 206.295 138.426C207.781 140.169 210.471 141.988 212.956 143.499C212.981 143.499 212.981 143.499 212.956 143.499C214.109 144.191 215.185 144.831 216.107 145.369C218.439 146.753 220.847 147.983 223.332 149.161C228.43 151.595 233.734 153.722 238.755 156.156C243.034 158.231 247.133 160.485 250.746 163.329C252.667 164.841 254.461 166.506 256.075 168.402C256.715 169.145 257.305 169.914 257.868 170.734C259.047 172.424 260.046 174.192 260.917 176.037C261.814 177.958 262.582 179.982 263.274 182.032C264.017 184.261 264.632 186.516 265.247 188.821C266.015 191.742 266.758 194.689 267.604 197.584C267.681 197.84 267.758 198.096 267.834 198.327C268.603 200.863 269.474 203.399 270.422 205.885C271.165 207.832 271.934 209.779 272.754 211.7C273.778 214.134 274.854 216.543 275.982 218.925C277.058 221.231 278.134 223.511 279.261 225.792C279.671 226.663 280.107 227.534 280.516 228.405C281.157 229.737 281.874 231.249 282.617 232.863C283.617 235.015 284.667 237.372 285.769 239.755C287.306 243.162 288.92 246.646 290.483 249.823C291.533 252.206 292.686 254.409 293.762 256.228Z" fill="#3856FF"/>
<path d="M205.654 137.735C205.552 137.735 205.449 137.76 205.347 137.76C198.224 138.708 196.046 139.989 185.773 140.502C177.497 140.374 173.68 138.811 172.553 138.606C172.886 138.093 173.193 137.581 173.475 137.043C173.834 136.274 174.09 135.506 174.269 134.737C174.449 133.969 174.551 133.174 174.602 132.354C177.267 133.738 180.726 134.378 184.338 134.532C185.978 134.583 187.617 134.558 189.231 134.43C195.175 133.994 200.581 132.457 202.298 130.945C202.349 130.945 202.4 130.945 202.426 130.945C202.682 132.021 203.041 133.072 203.502 134.071C203.989 135.198 204.604 136.274 205.372 137.325C205.449 137.453 205.552 137.607 205.654 137.735Z" fill="#273CB3"/>
<path d="M223.255 149.187C218.387 150.801 203.015 155.361 187.745 155.669C174.218 155.874 162.356 153.491 156.54 152.21C159.768 149.956 162.894 147.573 165.943 145.062C166.019 145.062 166.071 145.062 166.096 145.062C165.533 144.883 177.216 148.111 190.897 147.855C200.556 147.522 212.392 143.576 212.853 143.499C212.879 143.499 212.879 143.499 212.853 143.499H212.879C214.032 144.191 215.108 144.831 216.03 145.37C218.362 146.753 220.77 148.008 223.255 149.187Z" fill="#273CB3"/>
<path d="M250.669 163.355C241.394 164.815 217.055 168.351 194.458 169.248C174.116 170.067 148.88 168.274 131.432 166.686C134.071 165.097 136.94 163.714 139.656 162.33C141.45 161.433 143.217 160.485 144.96 159.512C147.855 159.871 151.032 160.178 154.465 160.511C200.248 164.738 225.1 159.589 238.704 156.207C242.957 158.256 247.056 160.511 250.669 163.355Z" fill="#273CB3"/>
<path d="M260.84 176.063C255.537 176.754 245.417 178.035 233.58 179.291C197.942 184.645 139.759 183.031 119.467 181.853C120.313 179.88 121.056 178.138 121.594 176.806C122.106 175.576 122.747 174.449 123.515 173.424C142.5 174.372 176.447 175.909 191.102 175.576C228.789 172.86 247.082 169.76 255.998 168.453C256.638 169.196 257.228 169.965 257.791 170.785C258.97 172.425 259.969 174.218 260.84 176.063Z" fill="#273CB3"/>
<path d="M265.17 188.822C249.157 194.765 234.323 191.793 222.999 193.203C178.625 198.66 130.1 196.098 114.369 193.92C115.291 191.717 116.214 189.488 117.136 187.336C118.238 187.387 119.493 187.412 120.928 187.412C199.172 190.743 223.101 186.311 263.197 182.032C263.94 184.261 264.555 186.541 265.17 188.822Z" fill="#273CB3"/>
<path d="M239.909 208.165C236.808 208.267 234.195 208.498 232.274 208.959C184.159 214.954 134.635 209.907 109.399 207.114C109.911 205.398 110.705 203.169 111.653 200.684C130.305 201.862 164.79 203.784 186.951 203.476C198.276 203.323 225.638 201.452 239.191 199.889C239.242 199.915 239.268 199.915 239.319 199.941C239.012 202.785 239.319 205.526 239.909 208.165Z" fill="#273CB3"/>
<path d="M270.345 205.885C268.065 206.423 265.4 206.935 262.454 207.319C255.844 207.96 249.26 207.96 243.674 208.062C242.496 205.218 241.292 202.554 240.113 200.146C243.905 201.222 249.388 201.35 254.973 200.735C260.276 200.094 264.478 199.223 267.783 198.327C268.526 200.889 269.397 203.399 270.345 205.885Z" fill="#273CB3"/>
<path d="M241.855 214.416C242.88 217.132 243.982 219.72 244.853 222.179C178.112 230.301 148.316 224.485 105.12 221.795C105.684 219.899 106.299 217.901 106.913 215.774C116.931 216.389 161.177 219.002 182.57 219.105C196.713 218.925 217.747 219.028 241.855 214.416Z" fill="#273CB3"/>
<path d="M275.905 218.925C266.989 220.463 260.072 222.82 252.104 221.257C251.002 221.411 249.875 221.539 248.799 221.692C247.902 219.079 246.954 216.517 246.006 214.032C259.585 215.134 267.348 213.315 272.677 211.726C273.702 214.134 274.778 216.517 275.905 218.925Z" fill="#273CB3"/>
<path d="M246.39 228.712C246.646 230.89 246.723 233.324 246.57 235.784C242.88 235.835 239.242 236.065 235.835 236.629C179.649 242.24 132.38 236.757 102.532 235.297C102.199 235.169 101.892 235.015 101.636 234.861C102.02 232.991 102.507 231.121 103.019 229.199C107.272 229.43 135.659 230.916 160.127 231.761C194.689 233.939 223.819 230.019 246.39 228.712Z" fill="#273CB3"/>
<path d="M282.541 232.863C280.542 233.657 279.261 234.374 277.34 234.682C271.011 236.501 262.3 236.014 253.359 235.809C252.642 233.375 251.873 230.916 251.079 228.456C256.28 228.225 261.122 228.2 265.554 228.482C269.167 228.405 274.137 226.944 279.184 225.792C279.594 226.663 280.03 227.534 280.44 228.405C281.08 229.737 281.772 231.249 282.541 232.863Z" fill="#273CB3"/>
<path d="M243.803 242.112C244.418 242.035 245.058 241.984 245.673 241.932C244.751 245.801 243.137 249.209 240.651 251.156C240.19 251.514 239.703 251.847 239.217 252.129C186.849 254.102 129.844 250.515 100.073 248.773V248.747L100.38 242.65C102.737 242.778 116.854 243.495 133.635 244.264C186.413 247.082 201.376 245.929 243.803 242.112Z" fill="#273CB3"/>
<path d="M290.38 249.823C280.824 252.283 269.218 253.385 257.689 251.924C256.92 248.67 256.024 245.212 255.05 241.625C266.656 241.702 276.699 243.085 285.692 239.729C287.203 243.162 288.818 246.672 290.38 249.823Z" fill="#273CB3"/>
<path d="M165.84 54.2382C161.638 58.2349 158.718 63.3846 156.284 68.6367C155.003 71.3781 153.824 74.1964 153.081 77.1171C151.467 83.4965 151.903 90.1834 152.364 96.7422C152.441 97.9976 152.543 99.2786 152.979 100.432C153.645 102.199 155.054 103.583 156.437 104.864C162.971 111.038 169.658 117.008 176.549 122.798C178.343 124.31 180.162 125.821 182.263 126.82C184.364 127.82 186.849 128.255 189.078 127.538C191.768 126.667 196.277 122.567 197.917 120.287C202.4 114.113 213.366 99.048 215.108 96.8703C219.694 91.0801 220.206 84.3932 219.899 76.989C219.668 71.3269 219.207 65.5879 217.158 60.3102C216.056 57.4663 214.391 54.7249 211.829 53.0852C207.55 50.3439 201.965 51.3174 196.994 50.2414C194.279 49.6521 191.742 48.4736 189.052 47.7306C185.209 46.6546 180.956 47.4488 177.087 48.1918C172.834 49.0116 168.94 51.2662 165.84 54.2382Z" fill="#FFFAF3"/>
<path d="M187.028 67.1251C187.028 63.154 187.079 62.1035 186.183 51.5992C189.078 54.8274 189.693 63.1027 190.231 67.2532C193.279 67.8937 195.97 67.8425 198.429 67.2532C200.607 62.2573 199.095 58.8498 199.326 55.1092C200.094 58.8498 200.863 60.72 200.607 67.1251C202.221 67.8169 206.295 67.6375 207.217 67.3557C208.088 74.35 208.959 81.37 208.959 89.2354C211.188 88.723 213.135 88.9792 214.211 90.9776C215.287 92.976 214.596 95.2049 213.34 97.1008C211.572 99.7397 208.088 98.8686 208.088 98.8686C207.217 104.121 206.5 106.811 204.578 111.141C207.114 111.832 209.676 109.373 211.752 107.733C213.827 106.094 215.313 103.865 216.696 101.61C219.335 97.2545 221.641 92.7198 223.614 88.0056C224.485 85.9304 225.279 83.8295 225.587 81.6006C226.022 78.4749 225.484 75.2723 224.741 72.1979C221.231 57.7737 213.571 44.7074 202.733 34.5617C201.17 33.1014 199.531 31.6923 197.661 30.6418C194.432 28.7972 190.666 28.0542 186.951 27.7467C179.06 27.1062 170.964 28.336 163.893 31.8716C156.822 35.4072 150.852 41.2999 147.778 48.6016C146.446 51.7786 145.651 55.1861 144.883 58.5679L138.401 86.9808C137.76 89.7478 137.145 92.6429 137.914 95.3587C138.683 98.0232 140.681 100.15 142.782 101.917C148.777 106.99 156.028 110.321 163.765 111.551L161.024 104.889C160.793 104.198 160.434 103.557 159.973 102.968C159.204 102.071 158.026 101.661 157.052 101.021C155.438 99.9703 154.285 98.1769 154.234 96.2554C154.183 94.3338 155.361 92.3867 157.18 91.7462C159 91.1057 161.28 92.0793 161.895 93.8983C161.715 89.5172 161.638 85.1105 161.664 80.7295C161.69 78.2955 162.509 69.8665 162.561 69.969C162.638 70.1483 187.028 68.6623 187.028 67.1251Z" fill="#FFA539"/>
<path d="M169.222 74.3757C166.916 75.2724 164.969 76.8865 163.637 78.9874C163.714 79.1667 163.842 79.013 163.97 78.9105C166.814 76.9634 169.606 75.5799 173.834 75.9385C175.192 76.041 178.138 74.9394 175.935 73.5302C175.448 73.2228 174.705 73.2484 173.962 73.274C172.322 73.3765 170.734 73.7608 169.222 74.3757Z" fill="#CD5000"/>
<path d="M195.227 72.6591C196.431 72.6078 197.635 72.5822 198.813 72.864C200.428 73.2483 201.837 74.2219 203.194 75.1699C202.887 75.5798 202.272 75.1955 201.785 75.0418C199.582 74.2732 196.713 74.3756 195.15 74.6831C194.202 74.8881 193.279 75.2467 192.306 75.4261C191.614 75.5542 190.794 75.5798 190.333 75.0418C188.104 72.4797 194.484 72.6847 195.227 72.6591Z" fill="#CD5000"/>
<path d="M181.52 82.3693C182.442 88.3644 182.673 94.462 182.186 100.508C182.083 101.789 181.981 103.147 182.596 104.275C183.211 105.402 184.953 105.966 185.798 105.018" stroke="#273CB3" stroke-width="0.414295" stroke-linecap="round" stroke-linejoin="round"/>
<path d="M171.938 81.9336C169.734 81.4981 167.454 82.1386 165.763 83.6246" stroke="#273CB3" stroke-width="0.414295" stroke-linecap="round" stroke-linejoin="round"/>
<path d="M176.473 86.904C176.063 87.4164 175.371 87.6469 174.73 87.8007C173.911 88.0313 173.065 88.185 172.22 88.3131C171.579 88.4156 170.964 88.4668 170.324 88.518C169.043 88.6205 167.762 88.6205 166.481 88.5437C166.122 88.518 165.686 88.4924 165.456 88.2106C165.251 87.9288 165.225 87.5701 165.379 87.2626C165.533 86.9552 165.738 86.699 166.019 86.494C167.147 85.5973 168.479 84.9824 169.888 84.7518C170.324 84.675 170.759 84.5981 171.195 84.5981C171.348 84.5981 171.605 84.5725 171.938 84.5725C173.859 84.5725 178.189 84.8543 176.473 86.904Z" fill="white" stroke="#CD5000" stroke-width="0.316814" stroke-linecap="round" stroke-linejoin="round"/>
<path d="M203.143 85.2387C203.015 85.3924 202.861 85.5461 202.682 85.6486C201.58 86.3404 200.351 86.8015 199.07 87.0065C198.762 87.0577 198.429 87.0833 198.122 87.109C196.559 87.2114 194.996 87.0321 193.51 86.5966C190.026 85.623 194.227 83.5477 196.021 83.0097C196.431 82.9072 196.841 82.8048 197.251 82.7535C197.763 82.6767 198.275 82.651 198.813 82.6254C199.659 82.5742 200.53 82.6254 201.375 82.7791C202.195 83.0097 202.964 83.2659 203.246 84.0602C203.399 84.4445 203.374 84.88 203.143 85.2387Z" fill="white" stroke="#273CB3" stroke-width="0.414295" stroke-linecap="round" stroke-linejoin="round"/>
<path d="M176.473 86.904C176.063 87.4164 175.371 87.6469 174.73 87.8007C173.911 88.0313 173.065 88.185 172.22 88.3131C171.579 88.4156 170.964 88.4668 170.324 88.518C169.043 88.6205 167.762 88.6205 166.481 88.5437C166.122 88.518 165.686 88.4924 165.456 88.2106C165.251 87.9288 165.225 87.5701 165.379 87.2626C165.533 86.9552 165.738 86.699 166.019 86.494C167.147 85.5973 168.479 84.9824 169.888 84.7518C170.324 84.675 170.759 84.5981 171.195 84.5981C171.348 84.5981 171.605 84.5725 171.938 84.5725C173.859 84.5725 178.189 84.8543 176.473 86.904Z" fill="white" stroke="#273CB3" stroke-width="0.414295" stroke-linecap="round" stroke-linejoin="round"/>
<path d="M172.245 88.3131C171.605 88.4156 170.99 88.4668 170.349 88.518C170.016 88.3131 169.734 88.0313 169.555 87.6469C169.427 87.2883 169.401 86.904 169.427 86.5197C169.427 85.9048 169.606 85.2899 169.888 84.7518C170.324 84.675 170.759 84.5981 171.195 84.5981C171.348 84.5981 171.605 84.5725 171.938 84.5725C171.938 84.5725 171.963 84.5725 171.963 84.5981C173.116 85.5461 173.014 87.1089 172.245 88.3131Z" fill="#3856FF" stroke="#273CB3" stroke-width="0.414295" stroke-miterlimit="10"/>
<path d="M195.765 80.0634C198.019 79.3716 200.428 79.6022 202.503 80.7039" stroke="#273CB3" stroke-width="0.414295" stroke-linecap="round" stroke-linejoin="round"/>
<path d="M199.121 86.904L199.044 86.9809L198.096 87.0833C197.532 86.8015 196.943 86.4685 196.687 85.8792C196.559 85.5205 196.533 85.1362 196.559 84.7519C196.584 83.9833 196.815 83.1891 197.225 82.7279C197.737 82.651 198.25 82.6254 198.788 82.5998C198.89 82.651 198.993 82.7279 199.095 82.8048C200.376 83.8808 200.146 85.7255 199.121 86.904Z" fill="#3856FF" stroke="#273CB3" stroke-width="0.414295" stroke-miterlimit="10"/>
<path d="M193.203 108.092C192.28 109.783 191.23 111.397 190.026 112.883C188.642 114.625 186.772 116.367 184.543 116.342C182.878 116.316 181.392 115.317 180.162 114.215C179.214 113.37 178.368 112.422 177.369 111.653C182.186 110.27 187.387 110.295 192.05 108.451C192.408 108.271 192.793 108.143 193.203 108.092Z" fill="white" stroke="#273CB3" stroke-width="0.316814" stroke-linecap="round" stroke-linejoin="round"/>
<path d="M175.448 112.729C175.55 112.294 176.011 112.089 176.421 111.961C181.494 110.295 187.054 110.449 192.024 108.476C192.511 108.271 193.023 108.066 193.561 108.118C194.099 108.169 194.586 108.681 194.458 109.194" stroke="#273CB3" stroke-width="0.316814" stroke-linecap="round" stroke-linejoin="round"/>
<path d="M171.349 96.4091C170.477 96.1017 169.478 96.3323 168.607 96.5885C168.12 96.7166 167.659 96.9471 167.301 97.3314C166.942 97.7157 166.839 98.2538 167.044 98.7406C167.377 99.4067 168.274 99.4835 169.017 99.4835C169.863 99.4835 170.734 99.4579 171.477 99.0736C172.015 98.7918 172.45 98.2794 172.45 97.6645C172.45 97.0496 171.733 96.5628 171.349 96.4091Z" fill="#CD5000"/>
<path d="M199.095 94.5644C198.762 94.6413 198.429 94.7694 198.147 94.9487C197.866 95.1537 197.686 95.4612 197.661 95.8198C197.661 96.281 198.045 96.6653 198.455 96.9215C199.659 97.6901 201.273 97.8951 202.554 97.2546C202.887 97.1009 203.143 96.8703 203.348 96.5884C203.553 96.3066 203.604 95.9223 203.476 95.5893C203.323 95.2818 203.041 95 202.733 94.8463C201.606 94.052 200.402 94.2314 199.095 94.5644Z" fill="#CD5000"/>
<path d="M192.998 15.4233C192.562 14.5266 192.255 13.5531 192.075 12.5795C191.896 11.6059 191.819 10.6067 191.819 9.60755C192.511 9.27448 195.739 7.94223 196.764 9.99185C198.096 12.682 193.971 14.8341 192.998 15.4233Z" fill="#CD5000" stroke="#273CB3" stroke-width="0.316814" stroke-linecap="round" stroke-linejoin="round"/>
<path d="M192.998 15.4234C192.255 15.9102 191.486 16.3714 190.743 16.8325C189.898 14.9622 189.437 12.9382 189.411 10.8886C189.462 10.863 189.513 10.8374 189.565 10.8118C190.308 10.4018 191.051 9.96629 191.819 9.6076C191.819 10.6068 191.896 11.5804 192.075 12.5796C192.255 13.5531 192.562 14.5267 192.998 15.4234Z" fill="#FFB152" stroke="#273CB3" stroke-width="0.316814" stroke-linecap="round" stroke-linejoin="round"/>
<path d="M176.831 24.0831C177.164 23.0326 177.318 21.9566 177.344 20.8549C177.318 19.8301 177.241 19.0871 176.78 18.1648C178.061 17.3962 184.415 13.7068 186.9 12.2977C187.745 11.8366 188.565 11.3498 189.411 10.8886C189.436 12.9382 189.898 14.9622 190.743 16.8325C185.824 19.9069 180.931 22.9814 176.011 26.0558C176.37 25.4409 176.652 24.7748 176.831 24.0831Z" fill="#3856FF" stroke="#273CB3" stroke-width="0.316814" stroke-linecap="round" stroke-linejoin="round"/>
<path d="M186.9 12.3234C186.9 13.5531 187.156 14.7829 187.669 15.9102L186.9 12.3234Z" fill="#3856FF"/>
<path d="M186.9 12.3234C186.9 13.5531 187.156 14.7829 187.669 15.9102" stroke="#273CB3" stroke-width="0.316814" stroke-linecap="round" stroke-linejoin="round"/>
<path d="M145.395 38.5329C142.526 40.4032 139.631 42.2735 136.761 44.1181" stroke="#273CB3" stroke-width="0.316814" stroke-linecap="round" stroke-linejoin="round"/>
<path d="M142.218 42.0685C140.579 43.1445 138.888 44.1693 137.171 45.1173" stroke="#273CB3" stroke-width="0.316814" stroke-linecap="round" stroke-linejoin="round"/>
<path d="M180.623 17.1655C181.93 16.2944 185.286 14.5266 187.003 13.7068L180.623 17.1655Z" fill="#3856FF"/>
<path d="M180.623 17.1655C181.93 16.2944 185.286 14.5266 187.003 13.7068" stroke="#273CB3" stroke-width="0.316814" stroke-linecap="round" stroke-linejoin="round"/>
<path d="M136.326 220.565C136.53 216.056 136.607 211.521 137.76 207.166C139.169 201.734 142.167 196.841 143.55 191.383C144.755 186.592 144.626 181.597 144.934 176.677C145.241 171.733 145.959 166.839 147.086 162.023C143.627 160.972 141.655 165.046 140.143 168.351C138.631 171.656 138.016 178.676 135.07 179.854C132.457 180.905 129.972 169.683 129.28 163.457C128.409 155.566 127.384 147.163 126.641 143.32C126.052 140.22 125.206 137.197 124.002 137.197C123.131 137.197 123.131 139.835 123.131 140.707C123.131 147.137 124.002 166.942 123.131 166.967C119.775 167.07 118.135 139.631 112.627 138.939C111.013 138.734 115.394 156.156 115.547 169.76C115.547 169.862 115.496 169.939 115.394 169.939C115.291 169.939 115.214 169.888 115.214 169.786C113.472 163.099 108.323 145.293 105.607 145.933C104.146 146.266 110.372 169.017 110.244 173.27C110.218 173.398 110.09 173.501 109.937 173.475C109.86 173.449 109.783 173.424 109.757 173.347C109.014 171.348 108.22 166.942 104.736 159.947C103.813 158.103 102.097 156.437 101.226 156.437C100.355 156.437 102.763 162.817 103.737 166.557C104.275 168.684 105.248 173.526 105.786 175.781C106.401 178.317 106.734 180.546 108.22 185.337C109.501 189.385 113.754 197.251 115.035 201.299C116.7 206.576 118.366 211.957 118.238 217.491C118.135 221.205 111.295 241.753 109.655 248.414C108.194 254.333 106.862 261.173 110.5 266.067C111.986 268.065 114.215 269.551 115.291 271.806C116.367 274.06 116.29 276.955 119.032 278.057C119.929 278.416 120.928 278.467 121.85 278.236C124.31 277.647 125.949 275.725 127.333 273.753C131.944 267.143 137.043 262.429 138.35 254.691C140.015 244.853 135.89 230.506 136.326 220.565Z" fill="#FFFAF3"/>
<path d="M184.748 27.8492C192.946 26.85 201.555 30.4625 206.576 36.9957C208.062 38.9172 209.241 41.0693 210.394 43.1958L217.311 55.7753C218.567 58.0555 219.822 60.3357 220.693 62.7697C223.025 69.4822 222.333 76.9121 218.797 83.0609" stroke="#273CB3" stroke-width="0.414295" stroke-linecap="round" stroke-linejoin="round"/>
<path d="M157.514 37.0469C147.009 46.7314 140.809 60.9507 140.86 75.2212C140.86 78.0394 141.219 81.0882 143.192 83.0866" stroke="#273CB3" stroke-width="0.414295" stroke-linecap="round" stroke-linejoin="round"/>
<path d="M172.168 44.2974C168.838 49.7033 168.069 61.2324 170.119 69.4309" stroke="#273CB3" stroke-width="0.414295" stroke-linecap="round" stroke-linejoin="round"/>
<path d="M193.689 45.4761C199.07 51.7787 201.555 60.054 200.479 68.2781" stroke="#273CB3" stroke-width="0.414295" stroke-linecap="round" stroke-linejoin="round"/>
<path d="M202.631 51.9835C205.962 58.3886 207.473 65.1523 207.038 72.0186" stroke="#273CB3" stroke-width="0.414295" stroke-linecap="round" stroke-linejoin="round"/>
<path d="M147.778 19.2921C146.394 21.5979 144.985 23.9806 144.652 26.6451C144.319 29.3096 145.318 32.3328 147.727 33.5369" stroke="#273CB3" stroke-width="0.414295" stroke-linecap="round" stroke-linejoin="round"/>
<path d="M154.49 11.5291C152.492 14.6548 151.185 18.1648 150.647 21.8285C150.442 23.2632 150.519 25.0566 151.8 25.7484" stroke="#273CB3" stroke-width="0.414295" stroke-linecap="round" stroke-linejoin="round"/>
<path d="M143.064 97.4083C146.317 106.042 152.953 112.985 161.459 116.624" stroke="#F6F3EE" stroke-width="0.414295" stroke-linecap="round" stroke-linejoin="round"/>
<path d="M177.523 123.643C178.804 124.668 180.085 125.565 181.11 126.001C183.313 126.923 185.798 127.512 188.13 126.948C189.693 126.564 191.102 125.693 192.434 124.771C195.227 122.824 197.789 120.569 200.069 118.058" stroke="#273CB3" stroke-width="0.414295" stroke-linecap="round" stroke-linejoin="round"/>
<path d="M173.193 119.903C174.039 120.646 174.987 121.517 176.011 122.388" stroke="#273CB3" stroke-width="0.414295" stroke-linecap="round" stroke-linejoin="round"/>
<path d="M232.683 186.388C231.377 195.662 232.299 205.142 235.425 213.981C237.346 219.386 240.036 224.51 241.317 230.096C243.111 238.166 241.779 246.621 237.603 253.743" stroke="#F6F3EE" stroke-width="0.414295" stroke-linecap="round" stroke-linejoin="round"/>
<path d="M176.575 135.378C175.473 141.885 171.246 146.036 166.276 150.391C161.305 154.747 155.643 159.486 149.546 162.023" stroke="#F6F3EE" stroke-width="0.414295" stroke-linecap="round" stroke-linejoin="round"/>
<path d="M238.115 160.05C247.748 164.918 255.281 173.142 259.277 183.185" stroke="#F6F3EE" stroke-width="0.414295" stroke-linecap="round" stroke-linejoin="round"/>
<path d="M319.741 99.4579C315.104 105.991 313.9 114.471 314.976 122.388C316.001 129.869 320.945 138.375 324.506 145.318C324.583 145.472 324.532 145.651 324.378 145.728C324.276 145.779 324.148 145.779 324.045 145.702C319.434 142.193 313.182 137.35 310.364 132.713C310.236 136.428 310.62 140.117 311.517 143.73C311.543 143.909 311.44 144.063 311.286 144.088C311.158 144.114 311.056 144.063 310.979 143.986C308.315 140.297 306.162 136.249 304.651 131.97C301.679 138.836 300.321 146.292 300.705 153.747C300.705 153.927 300.577 154.055 300.398 154.08C300.27 154.08 300.142 154.003 300.09 153.875C298.476 149.161 296.862 144.447 295.274 139.707C295.146 140.886 294.044 143.499 293.813 144.421C293.455 145.882 292.712 148.777 292.276 150.698C292.225 150.878 292.071 150.98 291.892 150.929C291.789 150.903 291.713 150.827 291.687 150.75C289.074 144.447 287.511 134.25 288.971 127.512C294.121 104.018 314.412 100.995 319.741 99.4579Z" fill="#F6F3EE"/>
<path d="M209.83 90.747C210.573 90.6189 211.316 90.7726 211.957 91.1569C212.162 91.285 212.341 91.4387 212.495 91.5925C212.956 92.1561 213.007 92.9503 212.905 93.6677" stroke="#273CB3" stroke-width="0.414295" stroke-linecap="round" stroke-linejoin="round"/>
<path d="M157.027 93.0529C156.873 93.1042 156.745 93.181 156.642 93.3091C156.284 93.719 156.053 94.2058 155.951 94.7182C155.848 95.2563 155.797 95.7687 155.823 96.3067C155.823 96.6141 155.823 96.9728 156.079 97.1778" stroke="#273CB3" stroke-width="0.414295" stroke-linecap="round" stroke-linejoin="round"/>
<path d="M97.6134 153.747C95.3076 158.589 96.2043 166.557 97.0753 167.326" stroke="#F6F3EE" stroke-width="0.414295" stroke-linecap="round" stroke-linejoin="round"/>
<path d="M93.0274 155.464C92.1819 158.769 92.0282 161.433 92.2588 163.739" stroke="#F6F3EE" stroke-width="0.414295" stroke-linecap="round" stroke-linejoin="round"/>
<path d="M132.867 145.036C132.969 141.936 131.945 138.862 130.92 137.581" stroke="#F6F3EE" stroke-width="0.414295" stroke-linecap="round" stroke-linejoin="round"/>
<path d="M135.788 141.424C135.788 140.143 134.25 135.531 131.944 133.738" stroke="#F6F3EE" stroke-width="0.414295" stroke-linecap="round" stroke-linejoin="round"/>
<path d="M311.056 176.831C310.928 180.315 309.929 183.723 308.135 186.721C308.084 186.823 308.135 186.925 308.212 186.977C308.289 187.028 308.417 187.002 308.468 186.925C310.313 183.877 311.338 180.392 311.466 176.831C311.466 176.729 311.389 176.626 311.261 176.626C311.133 176.626 311.056 176.703 311.056 176.831Z" fill="#F6F3EE"/>
<path d="M313.925 179.573C313.797 181.725 313.131 183.8 311.953 185.593C311.824 185.798 312.157 186.003 312.286 185.798C313.49 183.928 314.181 181.776 314.31 179.573C314.335 179.316 313.951 179.316 313.925 179.573Z" fill="#F6F3EE"/>
<path d="M290.252 164.303C288.1 167.07 286.64 170.349 286.025 173.808" stroke="#F6F3EE" stroke-width="0.414295" stroke-linecap="round" stroke-linejoin="round"/>
<path d="M287.588 163.585C286.076 165.43 285.41 166.788 284.641 169.094" stroke="#F6F3EE" stroke-width="0.414295" stroke-linecap="round" stroke-linejoin="round"/>
<path d="M218.541 93.8215C217.286 102.353 213.929 110.449 208.703 117.315" stroke="#F6F3EE" stroke-width="0.414295" stroke-linecap="round" stroke-linejoin="round"/>
<path d="M210.368 104.608C209.395 107.836 207.934 110.91 206.09 113.728" stroke="#F6F3EE" stroke-width="0.414295" stroke-linecap="round" stroke-linejoin="round"/>
<path d="M132.278 182.314C130.33 183.492 128.691 185.132 127.102 186.772C125.129 188.796 123.08 190.948 122.465 193.689" stroke="#F6F3EE" stroke-width="0.414295" stroke-linecap="round" stroke-linejoin="round"/>
<path d="M234.477 129.28C232.914 127.896 230.736 127.538 228.661 127.23C228.584 129.767 230.326 132.38 232.812 132.841C235.374 133.354 236.296 130.92 234.477 129.28Z" fill="white" stroke="#F6F3EE" stroke-width="0.414295" stroke-linecap="round" stroke-linejoin="round"/>
<path d="M256.075 136.172C258.15 136.069 260.097 137.145 261.891 138.221C260.379 140.245 257.381 141.193 255.127 140.015C252.821 138.785 253.641 136.3 256.075 136.172Z" fill="white" stroke="#F6F3EE" stroke-width="0.414295" stroke-linecap="round" stroke-linejoin="round"/>
<path d="M231.326 132.226C232.222 132.815 233.17 132.38 233.452 132.226C234.887 131.432 234.579 128.588 232.709 128.614C230.941 128.639 229.455 130.996 231.326 132.226Z" fill="black"/>
<path d="M257.689 136.454C256.869 136.351 256.075 136.735 255.639 137.427C254.794 138.708 255.998 141.142 257.92 140.245C259.431 139.528 259.764 136.71 257.689 136.454Z" fill="black"/>
<path d="M251.412 148.905C249.157 150.058 246.493 150.16 243.982 149.827C241.471 149.494 239.037 148.751 236.552 148.29C237.039 149.469 237.449 149.366 238.422 150.16C239.524 151.057 241.061 151.262 242.496 151.262C244.341 151.288 246.262 151.031 247.851 150.109" fill="#CD5000"/>
<path d="M251.412 148.905C249.157 150.058 246.493 150.16 243.982 149.827C241.471 149.494 239.037 148.751 236.552 148.29C237.039 149.469 237.449 149.366 238.422 150.16C239.524 151.057 241.061 151.262 242.496 151.262C244.341 151.288 246.262 151.031 247.851 150.109" stroke="#CD5000" stroke-width="0.414295" stroke-linecap="round" stroke-linejoin="round"/>
<path d="M338.623 213.263C331.014 215.467 327.273 222.333 326.121 225.612C324.635 229.839 324.302 234.835 326.197 238.909C331.27 249.823 340.75 249.798 346.873 249.9C349.358 249.951 351.818 249.516 354.149 248.619C360.503 246.185 365.243 240.011 365.934 233.247C366.549 227.354 363.757 219.873 358.94 216.133C353.995 212.238 344.311 211.598 338.623 213.263Z" fill="#8095ED"/>
<path d="M267.886 130.843C267.886 134.558 268.347 138.273 269.269 141.859C270.192 145.472 271.575 148.931 273.368 152.184C274.393 154.029 275.546 155.797 276.827 157.488C276.981 157.693 277.314 157.488 277.16 157.283C274.906 154.337 273.061 151.108 271.626 147.701C270.217 144.293 269.218 140.732 268.68 137.094C268.372 135.019 268.244 132.918 268.244 130.817C268.244 130.715 268.167 130.612 268.039 130.612C267.911 130.612 267.886 130.715 267.886 130.843Z" fill="#F6F3EE"/>
<path d="M271.703 154.823C273.599 158.897 277.519 161.613 279.235 165.763C279.722 166.916 279.978 168.172 279.927 169.453C279.927 169.709 280.311 169.709 280.311 169.453C280.516 164.738 276.725 161.331 274.086 157.923C273.292 156.899 272.6 155.823 272.036 154.644C271.934 154.388 271.601 154.593 271.703 154.823Z" fill="#F6F3EE"/>
<path d="M288.741 189.206C288.254 192.126 287.485 194.97 286.435 197.737C285.461 200.299 284.308 202.81 283.155 205.295C282.489 206.704 281.849 208.139 281.208 209.574C281.106 209.804 281.439 209.984 281.541 209.779C283.745 204.68 286.384 199.761 287.946 194.432C288.433 192.767 288.817 191.05 289.125 189.334C289.176 189.078 288.792 188.95 288.741 189.206Z" fill="#F6F3EE"/>
<path d="M296.632 217.952C297.862 224.613 298.835 231.556 297.221 238.243C296.811 240.011 296.171 241.753 295.376 243.393C295.274 243.623 295.607 243.803 295.709 243.598C298.758 237.474 298.835 230.454 297.964 223.793C297.708 221.795 297.375 219.822 296.99 217.849C296.965 217.593 296.581 217.695 296.632 217.952Z" fill="#F6F3EE"/>
<path d="M283.642 210.727C281.695 215.518 280.183 220.488 279.107 225.535C279.056 225.766 279.415 225.868 279.466 225.638C280.542 220.565 282.054 215.62 284.001 210.829C284.103 210.599 283.745 210.522 283.642 210.727Z" fill="#F6F3EE"/>
<path d="M264.094 118.391C265.964 117.443 267.86 116.495 269.73 115.522C271.344 114.728 272.882 113.754 274.291 112.601C275.059 111.961 275.726 111.218 276.315 110.398C276.469 110.193 276.135 110.013 275.982 110.193C273.855 113.19 270.371 114.753 267.194 116.367L263.915 118.033C263.658 118.186 263.863 118.519 264.094 118.391Z" fill="#F6F3EE"/>
<path d="M229.84 107.093C227.893 105.069 226.253 102.737 224.997 100.201C224.895 99.9703 224.562 100.175 224.664 100.406C225.92 102.968 227.585 105.325 229.558 107.375C229.737 107.554 229.993 107.272 229.84 107.093Z" fill="#F6F3EE"/>
<path d="M219.822 120.671C219.259 116.649 219.617 112.524 220.898 108.656C221.257 107.554 221.692 106.478 222.205 105.453C222.307 105.222 221.974 105.043 221.872 105.248C219.515 110.065 218.669 115.471 219.463 120.774C219.489 121.005 219.848 120.902 219.822 120.671Z" fill="#F6F3EE"/>
<path d="M203.912 134.301C206.781 134.148 209.446 132.918 211.854 131.406C214.467 129.767 216.927 127.871 219.361 125.975C220.796 124.873 222.179 123.72 223.563 122.542C223.742 122.388 223.486 122.106 223.281 122.26C220.873 124.284 218.413 126.231 215.877 128.101C213.571 129.818 211.214 131.534 208.575 132.713C207.114 133.379 205.526 133.789 203.912 133.892C203.681 133.943 203.681 134.327 203.912 134.301Z" fill="#F6F3EE"/>
<path d="M302.294 161.51L304.369 165.276C305.035 166.481 305.701 167.659 306.239 168.915C306.752 170.119 307.136 171.4 307.367 172.706C307.623 173.91 307.7 175.166 307.648 176.396C307.572 177.805 307.136 179.188 306.393 180.392C306.265 180.597 306.598 180.802 306.726 180.597C308.084 178.42 308.238 175.832 307.879 173.347C307.7 172.015 307.367 170.734 306.905 169.478C306.393 168.172 305.778 166.916 305.086 165.712C304.267 164.252 303.472 162.766 302.652 161.305C302.499 161.1 302.166 161.28 302.294 161.51Z" fill="#F6F3EE"/>
<path d="M242.957 127.717C243.111 126.487 242.88 125.206 242.573 124.028C242.265 122.849 241.881 121.594 241.164 120.62C241.087 120.518 240.831 120.492 240.805 120.671C240.754 121.081 240.574 121.44 240.267 121.748L240.574 121.773C239.703 120.595 238.653 119.57 237.449 118.724C237.346 118.673 237.244 118.699 237.193 118.801C237.193 118.827 237.167 118.827 237.167 118.852C237.064 119.186 237.193 119.467 237.193 119.8C237.193 119.929 237.167 120.21 237.013 120.262C236.859 120.313 236.629 119.98 236.526 119.903C236.014 119.416 235.476 119.006 234.887 118.622C233.708 117.879 232.402 117.392 231.018 117.187C230.762 117.136 230.685 117.52 230.916 117.546C232.53 117.802 234.067 118.443 235.374 119.416C235.707 119.672 236.014 119.929 236.321 120.236C236.526 120.441 236.731 120.697 237.064 120.646C237.321 120.569 237.5 120.364 237.526 120.108C237.628 119.724 237.372 119.339 237.5 118.955L237.218 119.083C238.345 119.903 239.345 120.876 240.19 122.004C240.241 122.106 240.369 122.132 240.472 122.055L240.498 122.029C240.831 121.696 241.061 121.261 241.138 120.8L240.779 120.851C241.497 121.799 241.881 123.029 242.163 124.156C242.445 125.283 242.675 126.564 242.522 127.743C242.522 127.973 242.906 127.973 242.957 127.717Z" fill="#F6F3EE"/>
<path d="M248.824 130.125C249.618 128.46 250.566 126.846 251.924 125.591C252.975 124.694 254.153 123.951 255.434 123.438L255.178 123.182C254.819 123.643 254.538 124.156 254.384 124.72C254.281 125.258 254.768 125.36 255.178 125.309C256.613 125.104 258.048 124.899 259.457 124.72C259.662 124.694 259.61 124.335 259.405 124.335C258.791 124.335 258.252 124.745 258.099 125.334C258.073 125.437 258.124 125.539 258.227 125.565C258.252 125.565 258.304 125.565 258.329 125.565C260.02 125.155 261.788 125.001 263.53 125.104C263.786 125.129 263.786 124.745 263.53 124.72C261.762 124.617 259.969 124.771 258.227 125.181L258.457 125.411C258.56 124.976 258.944 124.694 259.38 124.694L259.329 124.31L256.152 124.771L255.332 124.873C255.076 124.899 254.666 125.053 254.742 124.643C254.819 124.412 254.896 124.207 255.05 124.002C255.178 123.772 255.306 123.567 255.46 123.362C255.588 123.182 255.357 123.029 255.204 123.105C253.897 123.643 252.693 124.386 251.617 125.309C250.233 126.59 249.26 128.255 248.466 129.92C248.363 130.151 248.696 130.356 248.824 130.125Z" fill="#F6F3EE"/>
<path d="M255.229 134.865C257.586 134.404 260.02 135.019 261.839 136.556C262.019 136.71 262.3 136.454 262.121 136.274C260.174 134.66 257.612 133.994 255.127 134.506C254.871 134.558 254.973 134.916 255.229 134.865Z" fill="#F6F3EE"/>
<path d="M234.093 126.82C232.12 125.975 230.019 125.206 227.816 125.539C227.559 125.565 227.687 125.949 227.918 125.924C229.993 125.591 232.017 126.385 233.888 127.179C234.118 127.256 234.323 126.923 234.093 126.82Z" fill="#F6F3EE"/>
<path d="M240.908 136.069C240.318 138.606 243.367 139.4 244.751 139.528C245.161 139.605 245.596 139.528 245.98 139.374C246.211 139.221 246.416 139.016 246.544 138.759C246.8 138.298 246.928 137.76 246.903 137.222C246.877 136.889 246.8 136.556 246.672 136.249C245.852 133.917 241.599 133.2 240.908 136.069Z" fill="black"/>
<path d="M334.96 167.505C339.622 172.732 343.363 178.701 346.053 185.183" stroke="#F6F3EE" stroke-width="0.414295" stroke-linecap="round" stroke-linejoin="round"/>
<path d="M339.469 179.214C339.751 179.701 340.032 180.187 340.289 180.674C342.287 184.312 344.106 188.078 345.669 191.921" stroke="#F6F3EE" stroke-width="0.414295" stroke-linecap="round" stroke-linejoin="round"/>
<path d="M309.698 205.193C310.62 213.058 311.44 221.385 308.058 228.533" stroke="#F6F3EE" stroke-width="0.414295" stroke-linecap="round" stroke-linejoin="round"/>
<path d="M312.055 207.473L312.619 212.059C313.003 215.108 313.387 218.208 312.772 221.231" stroke="#F6F3EE" stroke-width="0.414295" stroke-linecap="round" stroke-linejoin="round"/>
<path d="M309.57 255.818C316.539 256.408 323.226 252.923 328.606 248.465" stroke="#F6F3EE" stroke-width="0.414295" stroke-linecap="round" stroke-linejoin="round"/>
<path d="M318.742 250.746C321.919 249.542 324.814 247.722 327.273 245.417" stroke="#F6F3EE" stroke-width="0.414295" stroke-linecap="round" stroke-linejoin="round"/>
<path d="M312.234 251.975C313.285 252.078 314.335 251.924 315.309 251.54" stroke="#F6F3EE" stroke-width="0.414295" stroke-linecap="round" stroke-linejoin="round"/>
<path d="M286.87 203.604L284.846 208.037" stroke="#F6F3EE" stroke-width="0.414295" stroke-linecap="round" stroke-linejoin="round"/>
<path d="M330.681 160.639L331.962 162.714" stroke="#F6F3EE" stroke-width="0.414295" stroke-linecap="round" stroke-linejoin="round"/>
<path d="M312.26 222.948C312.183 223.819 311.978 224.664 311.645 225.484" stroke="#F6F3EE" stroke-width="0.414295" stroke-linecap="round" stroke-linejoin="round"/>
<path d="M346.668 186.951C347.18 187.925 347.616 188.975 347.949 190.026" stroke="#F6F3EE" stroke-width="0.414295" stroke-linecap="round" stroke-linejoin="round"/>
<path d="M288.664 162.484C288.997 162.048 289.356 161.638 289.74 161.254" stroke="#F6F3EE" stroke-width="0.414295" stroke-linecap="round" stroke-linejoin="round"/>
<path d="M311.338 186.849C311.184 187.233 310.902 187.54 310.569 187.771" stroke="#F6F3EE" stroke-width="0.414295" stroke-linecap="round" stroke-linejoin="round"/>
</g>
<defs>
<clipPath id="clip0">
<rect width="409.899" height="286.947" fill="white"/>
</clipPath>
</defs>
</svg>
