<svg width="420" height="1004" viewBox="0 0 420 1004" fill="none" xmlns="http://www.w3.org/2000/svg">
<path d="M169.962 830.202L303.69 829.179C313.885 829.103 324.164 829.034 334.153 831.094C359.458 836.329 381.291 856.369 388.052 881.307C394.813 906.246 385.824 934.916 365.632 951.033C353.529 960.694 338.473 965.7 323.744 970.447C306.468 976.01 289.152 981.474 271.547 985.869C238.948 994.001 205.537 998.44 171.946 999.102C155.157 999.43 137.651 998.621 123.03 990.418C117.917 987.548 113.11 983.626 110.706 978.292C108.775 974.033 108.485 969.218 108.622 964.556C109.05 949.331 113.567 934.123 111.27 919.066C108.264 899.317 86.2327 873.211 102.395 855.064C119.672 835.65 145.359 830.37 169.962 830.202Z" fill="#273CB3"/>
<path d="M417.974 489.195C418.935 433.19 423.895 383.748 406.054 328.941C400.46 311.771 393.142 294.601 380.329 281.865C366.677 268.304 348.049 261.047 329.59 255.598C305.204 248.396 280.145 243.706 254.804 241.603C241.335 240.489 227.332 240.191 214.848 245.418C186.132 257.499 168.435 285.161 138.178 297.249C103.464 311.1 64.1555 317.151 34.9435 342.12C-0.495565 372.416 -10.3016 428.726 12.8132 469.209C22.3597 485.929 36.6987 499.986 43.3377 518.049C52.312 542.522 45.6271 569.986 50.6179 595.581C57.0586 628.861 82.2184 655.234 108.615 676.471C152.387 711.75 205.568 739.436 261.772 738.467C317.975 737.498 363.907 703.158 390.578 655.211C420.973 600.671 416.966 548.924 417.974 489.195Z" fill="#8095ED"/>
<path d="M122.473 549.543C118.657 546.315 115.849 542.125 113.087 537.981C106.631 528.32 100.19 518.545 95.8096 507.785C94.8252 505.351 93.9247 502.832 92.3374 500.741C91.0391 499.149 89.5264 497.744 87.8427 496.567C78.1874 489.343 66.9986 484.44 55.1432 482.236C53.3711 487.901 53.2473 493.954 54.7864 499.688C56.3255 505.421 59.4638 510.598 63.8351 514.615C66.2999 516.813 69.1235 518.606 71.4662 520.903C76.8691 526.145 79.5324 533.632 80.8449 541.041C82.1575 548.451 82.2872 556.029 83.5616 563.446C86.6141 581.403 96.3819 597.787 109.225 610.76C115.33 616.865 122.198 622.359 127.258 629.357C128.41 630.936 132.149 635.027 134.072 634.699C135.4 634.47 134.072 631.005 134.728 629.822C139.002 622.191 139.246 613.034 140.231 604.288C141.004 597.569 142.28 590.916 144.046 584.386C145.488 579.045 151.54 563.134 145.977 558.585C143.886 556.876 137.14 556.868 134.339 555.937C130.007 554.595 125.976 552.423 122.473 549.543Z" fill="#FF9739"/>
<path d="M150.884 778.096C154.883 790.908 169.702 809.383 168.275 822.746C167.581 829.263 162.094 837.29 160.804 845.25C159.278 854.522 162.155 863.565 164.002 867.853C166.871 874.5 191.268 871.142 201.013 836.733C205.5 820.899 201.013 800.035 206.95 784.697C210.002 776.859 219.16 771.976 223.426 764.749C227.567 757.669 230.071 749.752 230.754 741.578C231.437 733.404 230.281 725.181 227.371 717.512C224.364 709.782 219.64 702.86 214.963 696.015C212.185 691.955 209.346 687.827 205.477 684.79C195.999 677.349 182.736 678.067 171.595 680.455C159.24 683.118 156.76 696.244 154.287 707.813C148.923 732.904 143.337 753.92 150.884 778.096Z" fill="#FF9739"/>
<path d="M140.604 454.619C150.916 463.445 162.77 470.288 175.57 474.803C190.993 480.229 209.147 483.259 218.305 496.812C225.31 507.198 224.723 520.705 224.829 533.235C225.047 557.435 228.824 581.471 236.04 604.571C238.772 613.286 242 621.932 243.091 630.998C244.235 640.506 242.984 650.121 241.946 659.645C239.047 686.376 237.847 713.263 238.352 740.146C238.52 749.075 238.863 758.11 236.94 766.855C236.475 768.969 235.414 771.434 233.247 771.625C232.155 771.58 231.103 771.202 230.232 770.541C216.049 761.63 204.399 749.218 196.403 734.499C193.351 728.791 190.787 722.747 186.926 717.527C176.127 702.929 164.62 695.679 150.121 672.786C143.108 661.713 127.227 640.735 131.043 612.5C131.966 605.678 145.404 548.032 138.933 525.268C137.27 519.423 134.576 513.928 132.065 508.403C124.266 491.439 117.482 473.712 112.751 455.626C111.003 448.964 112.751 440.799 112.751 440.799C121.45 440.54 134.484 449.376 140.604 454.619Z" fill="#F6F3EE"/>
<path d="M269.06 858.551C264.637 861.738 259.393 863.592 253.95 863.893C259.017 862.198 264.061 860.436 269.06 858.551Z" fill="#FFB152"/>
<path d="M204.599 606.349C196.968 622.23 181.652 633.593 175.143 649.946C171.991 657.867 171.121 666.483 170.564 674.984C169.855 685.324 170.282 703.318 170.313 713.681C170.313 715.322 170.374 717.077 171.335 718.405C173.548 721.458 178.409 719.931 181.34 717.581C188.772 711.629 192.832 702.433 195.488 693.299C197.151 687.575 198.433 681.6 201.699 676.617C207.873 667.185 219.579 663.377 228.782 656.868C245.037 645.367 253.439 623.779 249.226 604.32C246.937 593.781 234.422 568.85 220.648 570.506C213.696 571.338 211.17 579.999 210.491 585.768C209.292 595.773 209.102 596.94 204.599 606.349Z" fill="#FF9739"/>
<path d="M396.607 765.123C378.544 741.306 357.291 732.95 333.406 703.837C332.657 693.669 329.864 683.757 325.194 674.694C319.975 664.674 312.626 655.913 306.88 646.199C294.136 624.794 289.45 599.596 278.942 577.015C270.09 557.937 257.086 540.737 251.241 520.545C248.769 511.982 247.647 503.107 246.212 494.301C253.476 492.391 260.328 489.162 266.427 484.777C268.51 483.251 270.693 481.267 270.723 478.672L251.6 471.156L251.493 471.11C244.925 468.473 239.401 463.759 235.765 457.687C234.856 456.156 233.8 454.717 232.613 453.39C236.091 446.14 237.607 438.104 237.009 430.085C230.301 430.558 224.135 433.237 218 436.129C211.834 439.084 205.026 440.449 198.197 440.097C197.686 440.097 197.182 440.044 196.671 440.028C184.018 439.624 167.253 442.318 154.6 441.906C143.306 441.547 123.312 438.09 112.728 440.791C118.184 448.56 129.28 456.328 136.385 462.922C149.548 475.132 155.035 484.724 171.488 491.92C183.698 497.262 209.048 493.248 210.407 501.841C212.696 516.34 186.75 514.05 186.086 529.252C185.873 534.204 191.581 553.793 193.618 558.311C211.17 597.23 224.624 635.256 219.564 681.63C216.725 707.523 206.858 735.361 219.205 758.293C227.562 773.807 244.922 783.865 250.165 800.692C253.721 812.138 248.066 824.157 245.533 837.611C243.648 847.646 244.77 859.184 245.968 868.037C248.532 868.96 251.25 869.378 253.973 869.265C259.04 867.533 259.269 863.74 253.973 863.923C234.422 870.601 214.642 876.759 196.808 887.084C179.348 897.203 173.098 908.024 161.59 924.606C171.106 920.028 178.081 915.624 189.062 914.686C210.514 912.847 237.215 918.318 257.743 920.028C288.771 922.615 375.644 925.263 407.313 871.951C418.737 852.706 432.473 812.436 396.607 765.123ZM332.635 813.443C318.777 835.688 294.296 848.989 269.8 858.276C269.556 858.368 273.959 860.199 276.035 857.46C283.071 848.157 286.215 830.201 288.145 818.701C290.076 807.201 291.595 795.365 296.929 784.994C302.744 773.7 312.603 765.085 319.898 754.691C323.448 749.616 326.346 744.114 328.522 738.315C333.345 746.03 339.205 761.315 340.655 767.771C344.127 783.109 340.899 800.15 332.635 813.443Z" fill="#FF9739"/>
<path d="M109.973 444.928C110.57 445.817 111.448 446.48 112.467 446.809C113.485 447.139 114.585 447.116 115.59 446.744C116.515 446.394 117.302 445.755 117.833 444.92C118.688 443.846 119.279 442.586 119.558 441.242C119.651 440.326 119.459 439.403 119.009 438.6C118.558 437.797 117.87 437.153 117.04 436.755C116.197 436.376 115.256 436.274 114.352 436.465C113.448 436.656 112.628 437.129 112.011 437.816C110.835 439.25 108.523 442.455 109.973 444.928Z" fill="black"/>
<path d="M171.091 462.952C174.418 465.303 176.074 469.309 177.532 473.109C172.747 474.376 167.016 472.217 165.009 467.699C162.949 463.052 167.207 460.198 171.091 462.952Z" fill="white" stroke="#F6F3EE" stroke-width="1.2973" stroke-linecap="round" stroke-linejoin="round"/>
<path d="M170.87 462.319C170.305 461.724 169.578 461.309 168.779 461.123C167.98 460.937 167.144 460.989 166.375 461.273C163.376 462.296 162.231 467.882 166.421 468.904C169.725 469.66 173.838 465.417 170.87 462.319Z" fill="black"/>
<path d="M174.387 899.317C182.019 892.746 191.077 888 200.12 883.52C208.338 879.453 217.107 875.454 226.256 876.087L214.482 886.138C223.959 887.099 251.203 890.052 253.622 893.158C245.112 896.722 236.378 899.728 227.477 902.155C229.509 905.139 232.069 907.725 235.032 909.787L220.022 910.069C223.379 913.961 229.866 915.693 232.537 918.54C219.564 915.487 201.348 915.251 188.589 917.296C177.142 919.127 165.65 922.592 157.217 930.91C154.562 920.104 166.947 905.704 174.387 899.317Z" fill="#F6F3EE"/>
<path d="M46.9702 246.968C52.3139 248.226 57.8172 248.669 63.2933 248.281C127.883 244.679 182.278 195.542 226.798 153.654C241.053 140.239 255.888 125.907 261.444 107.104C266.9 88.6598 262.207 68.0938 251.47 52.16C240.733 36.2262 224.356 24.6268 206.683 17.0567C183.636 7.13621 158.53 3.80903 133.668 2.55752C111.629 1.42811 85.4465 -2.44851 64.8119 7.06753C39.7664 18.6211 19.9789 50.6872 13.3245 76.6255C8.63897 94.9021 9.80653 114.11 11.0351 132.943L14.6294 189.414C16.3006 216.237 22.6803 240.886 46.9702 246.968Z" fill="#8095ED"/>
<path d="M60.0731 411.473C60.0731 411.473 57.715 400.881 63.8886 388.175C67.5974 380.544 75.8772 375.705 84.0959 373.615C92.3147 371.524 101.541 373.012 108.271 378.193C112.316 381.299 115.353 385.573 117.681 390.113C120.417 395.178 121.981 400.793 122.259 406.543C122.587 419.623 113.163 432.336 100.549 435.831C87.9344 439.326 72.4279 433.099 69.673 426.674C69.673 426.674 52.1901 426.674 38.3167 414.869C43.5516 412.747 60.0731 411.473 60.0731 411.473Z" fill="#F6F3EE"/>
<path d="M77.5177 411.923C79.8063 411.923 81.6615 410.067 81.6615 407.779C81.6615 405.49 79.8063 403.635 77.5177 403.635C75.2292 403.635 73.374 405.49 73.374 407.779C73.374 410.067 75.2292 411.923 77.5177 411.923Z" fill="#273CB3"/>
<path d="M91.3224 411.923C93.6109 411.923 95.4661 410.067 95.4661 407.779C95.4661 405.49 93.6109 403.635 91.3224 403.635C89.0339 403.635 87.1787 405.49 87.1787 407.779C87.1787 410.067 89.0339 411.923 91.3224 411.923Z" fill="#273CB3"/>
<path d="M105.12 411.923C107.408 411.923 109.264 410.067 109.264 407.779C109.264 405.49 107.408 403.635 105.12 403.635C102.831 403.635 100.976 405.49 100.976 407.779C100.976 410.067 102.831 411.923 105.12 411.923Z" fill="#273CB3"/>
<path d="M97.8242 379.368C102.87 381.084 107.336 384.175 110.721 388.293C114.105 392.41 116.272 397.391 116.978 402.674" stroke="#273CB3" stroke-width="1.2973" stroke-linecap="round" stroke-linejoin="round"/>
<path d="M56.6617 124.801C56.0741 121.306 54.6394 115.811 55.6849 112.423C56.7303 109.035 59.7752 105.99 63.316 106.135C67.33 106.295 70.1459 110.233 71.3745 114.064C73.3128 120.062 71.3745 127.884 73.2136 133.401C75.0527 134.324 87.7509 124.244 95.1761 127.922C97.5493 129.089 97.8393 131.737 97.4654 132.5C96.7023 134.027 97.7401 135.965 99.8921 137.079C102.807 138.605 104.913 144.535 100.877 149.243C98.2285 152.334 106.531 150.64 107.256 155.478C108.019 160.507 104.524 165.169 99.915 166.879C95.3058 168.588 90.3532 169.29 85.8355 171.236C81.8902 172.93 78.0823 175.616 73.7859 175.426C63.2626 174.953 61.5761 162.254 61.5761 154.219C61.6372 144.252 58.31 134.614 56.6617 124.801Z" fill="#F6F3EE"/>
<path d="M23.8861 934.199C17.018 935.977 11.9433 942.211 9.65397 948.957C7.41042 955.543 7.15859 962.861 7.36463 969.76C7.53251 975.72 5.79261 983.595 8.72297 989.044C12.4317 995.912 24.115 1002.83 31.7538 1003.18C39.3926 1003.53 46.3369 999.017 52.3121 994.21C58.6383 989.15 64.7661 983.366 67.9178 975.895C79.1508 949.278 47.9471 928.002 23.8861 934.199Z" fill="#273CB3"/>
<path d="M117.986 467.462C122.129 471.667 125.617 476.452 129.371 480.992C133.126 485.533 137.911 488.875 143.107 491.821C137.766 490.249 132.317 488.601 127.998 485.121C125.075 482.763 122.816 479.672 119.939 477.261C119.191 476.708 118.516 476.062 117.932 475.338C117.432 474.539 117.061 473.666 116.833 472.751C116.36 471.225 115.307 468.088 114.956 466.539C114.254 463.693 115.017 464.456 117.986 467.462Z" fill="#8095ED"/>
<path d="M94.9017 729.226C101.342 727.387 105.028 733.805 105.944 738.429C107.692 747.144 105.944 754.623 103.304 763.108C100.663 771.594 96.3287 779.454 91.9027 787.162C84.4535 782.24 77.3477 776.817 70.6346 770.93C65.9339 766.809 61.2636 762.208 59.3176 756.263C57.3717 750.319 59.0811 742.741 64.6595 739.894C76.5106 733.789 83.1268 748.724 84.7904 748.548C84.7828 748.548 84.8209 732.111 94.9017 729.226Z" fill="#8095ED"/>
<path d="M302.942 309.872C306.178 306.972 311.062 305.331 314.923 307.33C318.182 309.017 319.853 312.932 319.7 316.595C319.548 320.258 317.853 323.699 315.808 326.744C309.459 336.214 299.684 342.769 290.16 349.012C289.788 349.328 289.312 349.494 288.825 349.477C288.337 349.331 287.923 349.007 287.665 348.569C282.796 342.136 273.509 326.011 276.309 311.322C277.172 306.743 279.408 301.882 283.834 300.539C288.122 299.234 292.655 301.76 294.929 305.308C296.785 308.442 297.687 312.048 297.524 315.686C297.524 315.686 301.797 310.902 302.942 309.872Z" fill="#F6F3EE"/>
<path d="M290.923 304.987C289.579 304.508 288.132 304.397 286.732 304.665C285.331 304.934 284.027 305.572 282.956 306.513C281.864 307.608 281.03 308.932 280.514 310.39C278.733 314.994 278.693 320.089 280.4 324.721" stroke="#273CB3" stroke-width="1.2973" stroke-linecap="round" stroke-linejoin="round"/>
<path d="M61.5994 110.462C62.5599 110.336 63.5366 110.458 64.4368 110.816C65.3369 111.174 66.1307 111.756 66.7428 112.507C67.9567 114.032 68.6589 115.902 68.7497 117.849C68.8439 119.782 68.7236 121.719 68.3911 123.626" stroke="#273CB3" stroke-width="1.2973" stroke-linecap="round" stroke-linejoin="round"/>
<path d="M288.107 177.509C287.142 177.412 286.169 177.562 285.278 177.945C284.388 178.328 283.61 178.932 283.017 179.699C281.845 181.255 281.191 183.14 281.147 185.087C281.112 187.02 281.284 188.952 281.659 190.848" stroke="#F6F3EE" stroke-width="1.2973" stroke-linecap="round" stroke-linejoin="round"/>
<path d="M66.2389 747.861C65.5703 750.921 65.953 754.117 67.3253 756.932C68.6976 759.747 70.9793 762.017 73.8014 763.375" stroke="#F6F3EE" stroke-width="1.2973" stroke-linecap="round" stroke-linejoin="round"/>
<path d="M170.908 716.443C177.318 716.207 183.339 711.796 186.75 706.363C190.642 700.166 192.916 691.818 192.206 684.538" stroke="#F6F3EE" stroke-width="1.2973" stroke-linecap="round" stroke-linejoin="round"/>
<path d="M176.868 714.445C177.667 710.005 177.938 705.487 177.677 700.983" stroke="#F6F3EE" stroke-width="1.2973" stroke-linecap="round" stroke-linejoin="round"/>
<path d="M184.904 709.148C186.117 705.859 186.14 702.036 185.857 698.739" stroke="#F6F3EE" stroke-width="1.2973" stroke-linecap="round" stroke-linejoin="round"/>
<path d="M140.467 43.0179C138.727 37.8745 136.102 32.5327 137.491 27.2825C139.116 21.1242 145.717 17.6367 151.99 16.3471C157.63 15.1871 163.666 15.2482 168.947 17.5375C171.423 18.497 173.552 20.1837 175.052 22.3757C177.204 25.8326 176.898 30.2281 176.318 34.2574C175.464 40.141 174.113 46.1314 170.77 51.0459C168.481 54.3731 165.429 57.0821 163.139 60.4017C160.69 63.9578 159.247 68.0939 157.721 72.1384C157.248 73.3975 156.714 74.7254 155.63 75.5114C154.827 76.0239 153.915 76.3426 152.967 76.4424C149.625 76.9918 146.381 75.3969 143.108 74.5269C141.459 74.092 143.001 62.5766 143.108 60.6306C143.329 54.6467 142.434 48.6738 140.467 43.0179Z" fill="#F6F3EE"/>
<path d="M145.649 61.7827C148.35 62.6985 151.28 63.6218 154.005 62.7671" stroke="#273CB3" stroke-width="1.2973" stroke-linecap="round" stroke-linejoin="round"/>
<path d="M147.152 67.125C149.577 67.7418 152.076 68.0192 154.577 67.9492C155.441 67.9714 156.299 67.8101 157.095 67.476" stroke="#273CB3" stroke-width="1.2973" stroke-linecap="round" stroke-linejoin="round"/>
<path d="M150.121 72.5965C151.138 72.8462 152.179 72.9869 153.226 73.0162C154.014 73.0873 154.807 72.9394 155.516 72.5889" stroke="#273CB3" stroke-width="1.2973" stroke-linecap="round" stroke-linejoin="round"/>
<path d="M153.173 58.7992C153.761 55.2888 155.562 51.9693 155.462 48.4132C155.394 46.4138 154.699 44.4984 154.325 42.5372C153.738 39.5534 153.791 36.3331 152.288 33.6851C152.184 33.5552 152.107 33.4061 152.061 33.2463C152.015 33.0865 152.002 32.9192 152.021 32.7541C152.143 32.3115 152.692 32.1665 153.15 32.1207C155.709 31.8464 158.296 32.0483 160.781 32.7159C161.003 32.7144 161.221 32.7711 161.414 32.8803C161.607 32.9895 161.768 33.1473 161.88 33.3381C161.993 33.5288 162.054 33.7458 162.057 33.9674C162.059 34.189 162.004 34.4074 161.896 34.6008C161.413 36.2026 160.837 37.7747 160.171 39.3092C160.855 38.7981 161.656 38.4661 162.501 38.3435C163.346 38.2209 164.208 38.3115 165.009 38.6072C165.253 38.7064 165.52 38.8437 165.589 39.1032C165.599 39.2361 165.58 39.3696 165.534 39.4947C165.488 39.6197 165.416 39.7335 165.322 39.8281C163.92 41.6616 162.268 43.2901 160.415 44.6663C159.057 45.6736 157.538 46.597 156.714 48.0774" stroke="#273CB3" stroke-width="1.2973" stroke-linecap="round" stroke-linejoin="round"/>
<path d="M209.796 274.882C244.14 296.748 269.881 329.801 282.666 368.455C285.528 377.201 286.855 388.67 279.285 393.898C272.478 398.606 263.138 394.836 256.232 390.281C250.852 386.724 245.319 379.49 249.608 374.682C250.951 373.156 252.966 372.454 254.95 371.935C278.683 365.632 303.659 381.39 316.762 402.178C329.865 422.965 334.031 447.896 339.64 471.796C342.479 483.854 345.997 496.292 354.269 505.511C362.541 514.729 376.934 519.606 387.678 513.447C388.543 513.012 389.29 512.373 389.853 511.585C392.326 507.663 385.908 504.038 381.291 504.465C360.984 506.343 347.515 526.168 339.411 544.911C325.507 577.03 318.38 611.912 302.644 643.177C286.909 674.442 259.338 703.119 224.494 706.439" stroke="#F6F3EE" stroke-width="1.2973" stroke-linecap="round" stroke-linejoin="round"/>
<path d="M295.593 613.889C294.83 607.212 293.8 599.718 297.928 594.422C299.534 592.493 301.535 590.931 303.797 589.843C308.357 587.519 313.392 586.278 318.51 586.216C323.627 586.154 328.691 587.272 333.306 589.485C336.38 590.892 339.08 593.002 341.189 595.643C346.195 602.305 345.188 611.989 341.113 619.254C337.038 626.519 330.429 631.967 324.225 637.5C318.021 643.032 311.786 649.084 308.894 656.898C308.421 658.165 307.956 659.577 306.788 660.256C305.62 660.935 304.079 660.615 302.736 660.256C298.394 659.104 290.831 656.334 291.167 653.945C291.205 653.701 295.814 640.735 296.242 638.37C297.646 630.708 296.471 621.597 295.593 613.889Z" fill="#F6F3EE"/>
<path d="M302.69 641.002C305.221 642.516 307.904 643.759 310.695 644.711C311.695 645.016 312.885 645.2 313.671 644.52" stroke="#273CB3" stroke-width="1.2973" stroke-linecap="round" stroke-linejoin="round"/>
<path d="M296.356 645.428C300.088 647.603 303.888 649.809 308.093 650.77" stroke="#273CB3" stroke-width="1.2973" stroke-linecap="round" stroke-linejoin="round"/>
<path d="M295.112 651.747C297.34 653.571 299.947 654.875 302.743 655.563" stroke="#273CB3" stroke-width="1.2973" stroke-linecap="round" stroke-linejoin="round"/>
<path d="M305.239 656.432L306.674 656.592" stroke="#273CB3" stroke-width="1.2973" stroke-linecap="round" stroke-linejoin="round"/>
<path d="M308.085 637.675C310.929 628.944 311.667 619.663 310.237 610.592C309.723 608.143 309.419 605.653 309.329 603.152C312.183 604.778 314.618 607.048 316.44 609.781C318.262 612.514 319.42 615.635 319.822 618.895C325.18 615.869 331.221 614.259 337.374 614.217C329.086 620.062 321.048 626.236 313.259 632.738" stroke="#273CB3" stroke-width="1.2973" stroke-linecap="round" stroke-linejoin="round"/>
<path d="M333.947 434.984C330.712 430.572 326.47 426.996 321.573 424.555C316.676 422.114 311.267 420.878 305.796 420.951C302.823 420.939 299.881 421.558 297.165 422.767C293.64 424.461 290.9 427.445 288.679 430.665C285.086 435.94 282.659 441.921 281.562 448.209C280.464 454.497 280.721 460.946 282.315 467.127C283.269 470.729 284.749 474.308 287.405 476.925C292.383 481.745 298.919 484.627 305.834 485.052C315.579 485.434 321.615 482.672 330.681 475.895C338.038 479.573 351.842 484.175 352.689 482.168C353.59 480.024 339.182 463.273 339.182 463.273C339.182 463.273 340.373 456.405 340.197 453.07C339.88 446.569 337.712 440.294 333.947 434.984Z" fill="#F6F3EE"/>
<path d="M296.944 456.558C299.232 456.558 301.087 454.703 301.087 452.414C301.087 450.126 299.232 448.271 296.944 448.271C294.655 448.271 292.8 450.126 292.8 452.414C292.8 454.703 294.655 456.558 296.944 456.558Z" fill="#273CB3"/>
<path d="M310.749 456.558C313.037 456.558 314.892 454.703 314.892 452.414C314.892 450.126 313.037 448.271 310.749 448.271C308.46 448.271 306.605 450.126 306.605 452.414C306.605 454.703 308.46 456.558 310.749 456.558Z" fill="#273CB3"/>
<path d="M324.546 456.558C326.834 456.558 328.69 454.703 328.69 452.414C328.69 450.126 326.834 448.271 324.546 448.271C322.257 448.271 320.402 450.126 320.402 452.414C320.402 454.703 322.257 456.558 324.546 456.558Z" fill="#273CB3"/>
<path d="M288.817 468.264C290.076 472.789 294.159 476.177 298.631 477.566C303.102 478.955 307.986 478.573 312.573 477.566" stroke="#273CB3" stroke-width="1.2973" stroke-linecap="round" stroke-linejoin="round"/>
<path d="M43.7119 36.417C44.5208 62.8131 58.7071 88.4538 80.6238 103.174C87.1408 107.547 94.5506 111.317 100.572 116.613C107.577 122.771 110.927 130.547 112.904 139.506C114.567 147.069 115.475 155.112 113.033 162.468C111.133 168.199 106.28 174.678 100.137 176.25C99.336 176.494 98.4879 176.539 97.6661 176.38C96.8443 176.222 96.0735 175.866 95.4206 175.342C94.5052 174.386 93.9311 173.155 93.7875 171.839C91.0174 155.379 111.728 154.288 122.786 156.211C140.795 159.362 157.012 163.766 176.853 176.739" stroke="#F6F3EE" stroke-width="1.2973" stroke-linecap="round" stroke-linejoin="round"/>
<path d="M337.45 524.574C329.117 533.556 324.393 545.27 320.829 556.991C318.692 564.004 316.907 571.132 315.487 578.359" stroke="#F6F3EE" stroke-width="1.2973" stroke-linecap="round" stroke-linejoin="round"/>
<path d="M54.5022 1.37451C53.9146 13.5004 53.7391 25.7179 55.6393 37.7064C57.5394 49.6949 61.645 61.5156 68.948 71.2071" stroke="#F6F3EE" stroke-width="1.2973" stroke-linecap="round" stroke-linejoin="round"/>
<path d="M132.752 715.902C128.449 723.145 123.06 729.685 116.772 735.293C91.0094 758.69 53.0139 768.915 34.8212 798.585C31.5551 803.927 29.0139 810.215 30.4333 816.297C32.2038 823.928 40.102 829.026 47.901 829.27C55.7001 829.514 63.1633 825.745 69.0698 820.624C72.1223 817.961 74.9611 814.763 76.06 810.856C77.1588 806.949 76.06 802.203 72.7023 799.959C70.5808 798.547 67.8946 798.295 65.3382 798.379C47.2142 799.005 32.7532 814.718 26.2896 831.659C20.7876 846.089 19.62 862.634 25.6562 876.85C31.6925 891.067 45.7109 902.247 61.1487 902.506" stroke="#8095ED" stroke-width="1.2973" stroke-linecap="round" stroke-linejoin="round"/>
<path d="M313.473 673.58C319.055 682.445 322.471 692.499 323.447 702.929" stroke="#F6F3EE" stroke-width="1.2973" stroke-linecap="round" stroke-linejoin="round"/>
<path d="M312.855 681.226C315.007 686.087 316.861 691.07 317.517 696.565" stroke="#F6F3EE" stroke-width="1.2973" stroke-linecap="round" stroke-linejoin="round"/>
<path d="M327.483 695.855C329.789 704.149 330.183 712.859 328.636 721.328" stroke="#F6F3EE" stroke-width="1.2973" stroke-linecap="round" stroke-linejoin="round"/>
<path d="M259.101 556.411C270.224 570.28 278.947 585.914 284.909 602.663" stroke="#F6F3EE" stroke-width="1.2973" stroke-linecap="round" stroke-linejoin="round"/>
<path d="M275.157 597.566C279.64 607.141 284.696 616.438 290.297 625.404" stroke="#F6F3EE" stroke-width="1.2973" stroke-linecap="round" stroke-linejoin="round"/>
<path d="M210.559 665.208C219.77 658.668 228.874 651.404 234.506 641.605C240.138 631.807 241.572 618.88 235.406 609.417" stroke="#F6F3EE" stroke-width="1.2973" stroke-linecap="round" stroke-linejoin="round"/>
<path d="M232.445 876.469C240.86 871.695 249.687 867.685 258.818 864.488C269.151 860.779 279.766 857.834 289.892 853.583C303.092 848.032 315.282 840.332 325.965 830.796" stroke="#F6F3EE" stroke-width="1.2973" stroke-linecap="round" stroke-linejoin="round"/>
<path d="M383.893 758.972C391.468 768.315 396.362 779.541 398.049 791.45" stroke="#F6F3EE" stroke-width="1.2973" stroke-linecap="round" stroke-linejoin="round"/>
<path d="M399.392 777.356H399.659C403.402 785.889 405.31 795.113 405.26 804.431" stroke="#F6F3EE" stroke-width="1.2973" stroke-linecap="round" stroke-linejoin="round"/>
<path d="M408.336 791.748C412.759 810.581 411.124 830.33 403.665 848.18" stroke="#F6F3EE" stroke-width="1.2973" stroke-linecap="round" stroke-linejoin="round"/>
<path d="M56.3718 483.915C55.83 488.066 55.3721 492.309 56.3718 496.392C59.3098 507.953 65.9947 512.15 70.9854 516.042" stroke="#F6F3EE" stroke-width="1.2973" stroke-linecap="round" stroke-linejoin="round"/>
<path d="M56.2573 491.928C61.5969 494.61 67.2312 496.658 73.0458 498.033" stroke="#F6F3EE" stroke-width="1.2973" stroke-linecap="round" stroke-linejoin="round"/>
<path d="M60.0732 504.9C65.415 507.19 69.4061 508.136 74.5724 507.953" stroke="#F6F3EE" stroke-width="1.2973" stroke-linecap="round" stroke-linejoin="round"/>
<path d="M83.2944 536.798C83.527 551.91 86.949 566.803 93.3363 580.5C99.7236 594.198 108.932 606.392 120.359 616.284" stroke="#F6F3EE" stroke-width="1.2973" stroke-linecap="round" stroke-linejoin="round"/>
<path d="M102.807 586.684C106.31 594.727 111.382 601.992 117.726 608.051" stroke="#F6F3EE" stroke-width="1.2973" stroke-linecap="round" stroke-linejoin="round"/>
<path d="M99.3657 579.563L100.892 583.303" stroke="#F6F3EE" stroke-width="1.2973" stroke-linecap="round" stroke-linejoin="round"/>
<path d="M106.432 532.518C107.489 535.031 108.795 537.431 110.332 539.683C112.491 543.342 114.984 546.793 117.78 549.993C122.982 555.596 129.871 559.347 137.399 560.677" stroke="#F6F3EE" stroke-width="1.2973" stroke-linecap="round" stroke-linejoin="round"/>
<path d="M173.228 852.629C173.015 854.659 173.033 856.707 173.281 858.734C173.426 859.619 173.655 860.497 173.884 861.367C174.517 863.778 175.303 869.685 172.251 870.448" stroke="#F6F3EE" stroke-width="1.2973" stroke-linecap="round" stroke-linejoin="round"/>
<path d="M183.804 848.173C183.133 851.508 184.247 853.965 184.774 857.33C185.219 859.705 184.821 862.161 183.65 864.274C182.478 866.388 180.606 868.026 178.356 868.907" stroke="#F6F3EE" stroke-width="1.2973" stroke-linecap="round" stroke-linejoin="round"/>
<path d="M192.29 845.036C192.046 847.249 192.519 849.469 192.649 851.682C192.685 854.841 191.495 857.891 189.329 860.191" stroke="#F6F3EE" stroke-width="1.2973" stroke-linecap="round" stroke-linejoin="round"/>
<path d="M254.354 860.184C253.173 857.787 252.646 855.12 252.828 852.453C253.087 849.277 253.86 846.163 255.118 843.235" stroke="#F6F3EE" stroke-width="1.2973" stroke-linecap="round" stroke-linejoin="round"/>
<path d="M265.023 855.788C263.756 852.904 265.198 845.868 267.136 844.929" stroke="#F6F3EE" stroke-width="1.2973" stroke-linecap="round" stroke-linejoin="round"/>
<path d="M272.517 855.591C276.035 855.934 278.492 852.859 280.644 849.798C282.796 846.738 283.559 842.93 284.024 839.222" stroke="#F6F3EE" stroke-width="1.2973" stroke-linecap="round" stroke-linejoin="round"/>
<path d="M174.082 449.239C180.436 450.312 186.604 452.291 192.397 455.115L184.46 456.909C192.9 461.161 200.22 467.341 205.828 474.949L198.471 473.682C204.493 476.684 209.896 480.792 214.397 485.792" stroke="#F6F3EE" stroke-width="1.2973" stroke-linecap="round" stroke-linejoin="round"/>
<path d="M177.188 464.349C179.688 466.788 181.247 470.03 181.591 473.506" stroke="#F6F3EE" stroke-width="1.2973" stroke-linecap="round" stroke-linejoin="round"/>
<path d="M209.964 439.266C212.879 439.449 215.664 438.136 218.289 436.854L225.631 433.275C229.828 431.23 234.216 429.139 238.878 429.192" stroke="#F6F3EE" stroke-width="1.2973" stroke-linecap="round" stroke-linejoin="round"/>
<path d="M244.342 364.22C245.418 360.016 248.57 355.933 252.882 355.452C256.529 355.04 260.093 357.368 262.039 360.496C263.985 363.625 264.45 367.425 264.45 371.096C264.45 382.497 259.933 393.356 255.499 403.857C255.368 404.328 255.066 404.733 254.652 404.994C254.164 405.146 253.637 405.105 253.179 404.879C245.548 402.239 237.703 399.469 231.766 394.012C228.838 391.327 226.479 388.08 224.829 384.466C222.914 380.261 222.166 374.896 225.097 371.317C228.027 367.738 233.056 367.548 236.971 369.12C238.497 369.73 243.075 372.065 243.075 372.065C243.075 372.065 243.984 365.716 244.342 364.22Z" fill="#F6F3EE"/>
<path d="M253.904 358.764C256.674 357.902 258.483 360.664 259.506 362.786C260.752 365.322 261.194 368.179 260.772 370.974" stroke="#273CB3" stroke-width="1.2973" stroke-linecap="round" stroke-linejoin="round"/>
<path d="M113.491 453.772C114.254 458.351 115.017 463.464 116.505 465.783C118.879 469.515 122.366 472.377 125.8 475.17" stroke="#F6F3EE" stroke-width="1.2973" stroke-linecap="round" stroke-linejoin="round"/>
<path d="M181.538 643.116C175.674 651.885 172.893 662.355 173.632 672.878" stroke="#F6F3EE" stroke-width="1.2973" stroke-linecap="round" stroke-linejoin="round"/>
<path d="M154.486 730.302C150.884 746.808 149.869 761.46 155.035 775.86C157.118 781.675 160.507 786.917 163.864 792.099" stroke="#F6F3EE" stroke-width="1.2973" stroke-linecap="round" stroke-linejoin="round"/>
<path d="M159.171 776.555C160.666 779.739 162.361 782.825 164.246 785.796" stroke="#F6F3EE" stroke-width="1.2973" stroke-linecap="round" stroke-linejoin="round"/>
<path d="M157.187 768.999C157.165 770.219 157.377 771.431 157.813 772.57" stroke="#F6F3EE" stroke-width="1.2973" stroke-linecap="round" stroke-linejoin="round"/>
<path d="M230.766 471.538C237.283 472.667 243.823 473.827 250.127 475.811C255.636 477.566 261.154 480.001 266.915 479.627" stroke="#F6F3EE" stroke-width="1.2973" stroke-linecap="round" stroke-linejoin="round"/>
<path d="M236.528 468.172C243.013 468.573 249.363 470.194 255.247 472.949" stroke="#F6F3EE" stroke-width="1.2973" stroke-linecap="round" stroke-linejoin="round"/>
<path d="M243.015 494.5C247.319 493.447 251.913 493.302 255.888 491.348C259.254 489.692 261.894 486.884 264.443 484.137" stroke="#F6F3EE" stroke-width="1.2973" stroke-linecap="round" stroke-linejoin="round"/>
<path d="M258.605 482.61C255.43 486.586 246.777 489.585 244.747 489.639C240.588 489.753 241.694 483.534 240.168 478.955C245.51 479.192 252.378 483.534 258.605 482.61Z" fill="#CD5000"/>
</svg>
