<svg width="722" height="542" viewBox="0 0 722 542" fill="none" xmlns="http://www.w3.org/2000/svg">
<path d="M97.538 169.932C103.853 193.607 119.481 214.991 141.009 226.686C160.521 237.281 183.705 239.713 203.023 250.659C220.83 260.754 234.596 277.672 253.77 284.866C268.14 290.279 284.017 289.571 299.045 292.705C336.058 300.418 368.055 326.646 405.541 321.807C442.824 316.994 467.73 292.615 501.784 276.739C514.373 270.875 540.321 252.206 553.654 248.323C581.217 240.299 595.005 233.89 613.854 212.24C632.703 190.59 647.02 134.66 624.959 102.636C582.918 41.579 466.152 95.8709 421.539 95.8709C362.25 95.8393 305.825 66.1021 247.785 53.9916C220.411 48.286 191.824 44.4296 164.676 51.1095C112.17 64.0003 83.9346 118.842 97.538 169.932Z" fill="#B7C3F9"/>
<path d="M38.3385 160.857C22.8362 174.257 22.5025 203.142 36.1284 217.652C48.3968 230.705 68.8019 232.902 81.4536 219.109C88.9454 210.936 91.8276 199.141 90.3301 188.154C88.977 178.231 83.1495 161.903 74.034 156.089C64.3321 149.883 46.5024 153.816 38.3385 160.857Z" fill="#B7C3F9"/>
<path d="M254.108 441.306C254.083 432.489 257.561 424.023 263.778 417.77C269.998 411.591 277.954 407.5 285.92 403.833C308.657 393.36 283.583 386.423 307.385 378.674C329.427 371.498 387.72 361.67 424.065 363.551C463.445 365.594 482.389 380.929 520.277 384.538C626.456 394.65 582.547 360.7 587.964 364.561C597.233 371.16 606.367 380.347 617.733 381.186C680.879 385.891 705.235 473.199 608.261 484.218C568.57 488.728 544.759 462.631 521.21 464.823C463.026 470.235 402.767 503.396 342.147 498.2C294.756 494.141 254.162 478.805 254.108 441.306Z" fill="#8095ED"/>
<path d="M483.178 133.966C480.098 137.416 478.551 142.026 477.987 146.618C477.234 152.725 478.578 159.698 483.548 163.306C488.189 166.693 494.49 166.233 500.074 167.586C504.842 168.741 509.501 171.312 514.35 170.572C518.68 169.914 522.189 166.716 524.904 163.275C527.619 159.833 529.974 155.535 529.415 151.132C529.13 148.913 528.134 146.857 527.074 144.89C525.162 141.347 523.002 137.944 520.61 134.706C518.355 131.675 515.798 128.693 512.347 127.182C508.653 125.563 491.703 124.408 483.178 133.966Z" fill="#8095ED"/>
<path d="M165.808 141.295C166.818 151.218 175.036 159.003 184.048 162.612C193.971 166.59 205.743 166.409 214.867 160.717C223.6 155.264 229.395 144.304 227.709 133.704C224.578 114.016 194.534 94.5087 178.392 109.903C170.76 117.183 164.707 130.448 165.808 141.295Z" fill="#8095ED"/>
<path d="M235.173 156.54C235.44 159.057 237.591 161.028 239.95 161.953C242.553 162.959 245.629 162.914 248.019 161.47C250.306 160.09 251.821 157.312 251.379 154.623C250.559 149.635 242.692 144.701 238.466 148.589C236.468 150.447 234.885 153.789 235.173 156.54Z" fill="#8095ED"/>
<path d="M426.185 220.809C427.565 233.921 438.778 244.21 451.073 248.973C464.636 254.227 480.68 253.993 493.128 246.469C505.045 239.253 512.974 224.783 510.651 210.778C506.38 184.776 465.38 159.017 443.374 179.341C432.946 188.961 424.678 206.484 426.185 220.809Z" fill="#8095ED"/>
<path d="M420.727 443.457C420.529 443.421 420.326 443.425 420.13 443.47C419.933 443.515 419.748 443.6 419.586 443.719C419.402 443.932 419.301 444.204 419.301 444.485C419.301 444.767 419.402 445.039 419.586 445.252C419.97 445.67 420.457 445.981 420.998 446.154C422.218 446.654 423.474 447.063 424.755 447.377C425.059 447.465 425.377 447.5 425.693 447.48C425.849 447.469 426.001 447.423 426.137 447.345C426.273 447.267 426.39 447.159 426.478 447.029C427.614 444.936 421.751 443.552 420.727 443.457Z" fill="#FFA539" stroke="#CD5000" stroke-width="0.586354" stroke-linecap="round" stroke-linejoin="round"/>
<path d="M50.2915 182.471C58.2343 175.353 93.163 157.776 103.69 154.98C132.886 147.222 164.27 145.878 193.145 154.754C222.021 163.631 248.105 183.373 261.37 210.535C264.383 216.705 266.782 223.439 266.304 230.29C265.826 237.142 261.983 244.106 255.583 246.586C244.122 251.029 231.827 238.102 232.58 225.838C233.333 213.575 242.503 203.53 252.205 195.97C275.524 177.878 304.072 167.817 333.582 167.289C369.345 166.747 404.747 180.324 440.249 175.953C449.671 174.794 459.643 171.934 465.507 164.483C471.37 157.032 470.532 143.965 461.899 140.014C454.47 136.613 445.611 141.44 440.7 147.944C429.509 162.697 432.211 184.983 443.857 199.389C455.503 213.796 474.135 221.093 492.569 222.902C535.653 227.119 579.589 209.443 614.157 183.377C641.67 162.629 655.743 120.931 654.75 107.151" stroke="#FFFAF3" stroke-width="0.766771" stroke-linecap="round" stroke-linejoin="round"/>
<path d="M491.658 273.035C492.826 277.181 493.259 286.246 491.18 291.357L492.474 291.424H613.805C616.741 286.247 615.879 275.882 611.942 273.252C610.981 272.607 491.658 273.035 491.658 273.035Z" fill="#273CB3"/>
<path d="M620.688 309.818C619.515 305.673 619.086 296.607 621.166 291.497L619.871 291.424H498.541C495.605 296.607 496.471 306.972 500.404 309.601C501.364 310.246 620.688 309.818 620.688 309.818Z" fill="#3856FF"/>
<path d="M497.224 330.412H618.279C623.827 325.126 622.79 312.98 620.232 309.886H497.147C498.988 318.194 499.475 322.082 497.224 330.412Z" fill="#8095ED"/>
<path d="M414.363 427.526C427.673 428.97 440.659 432.488 453.604 436.001L488.564 445.5C492.745 428.487 496.953 411.302 497.251 393.784C467.205 386.943 436.874 381.583 406.258 377.704C406.05 377.677 398.139 393.712 397.259 395.214C393.854 401.077 390.34 406.941 387.788 413.255C385.126 419.823 384.157 423.341 391.802 425.041C399.172 426.705 406.867 426.71 414.363 427.526Z" fill="#F6F3EE"/>
<path d="M263.959 368.53C263.35 373.284 261.307 378.083 257.423 380.898C252.331 384.592 245.434 384.136 239.169 383.514L139.408 373.64C126.355 372.346 112.972 370.961 101.209 365.161C94.8947 362.04 88.5801 356.591 88.6478 349.541C88.6513 349.047 88.689 348.555 88.7605 348.066C88.6331 344.572 89.1956 341.087 90.4158 337.81C93.1717 330.62 98.5346 324.792 103.045 318.577C114.068 303.508 120.888 285.362 133.869 271.944C136.052 269.689 138.79 267.434 141.92 267.686C143.176 267.857 144.394 268.231 145.529 268.796L158.478 274.353C159.98 274.993 161.604 275.769 162.24 277.266C162.876 278.764 162.307 280.446 161.739 281.957C156.088 296.968 149.913 311.915 140.955 325.212L140.581 325.767C149.407 324.642 158.294 324.054 167.192 324.008C174.63 323.972 182.225 324.287 189.293 322.019C199.311 318.803 207.191 310.743 217.163 307.409C229.174 303.391 248.736 306.268 259.29 313.48C260.089 314.022 264.793 314.008 265.262 314.743C267.783 318.69 261.988 325.695 262.033 330.557C262.109 338.45 262.565 346.343 263.386 354.191C263.927 358.959 264.568 363.79 263.959 368.53Z" fill="#273CB3"/>
<path d="M168.261 259.094C165.605 265.381 163.061 271.723 161.545 278.34C161.487 278.83 161.279 279.289 160.95 279.657C160.647 279.888 160.293 280.043 159.917 280.108C157.851 280.622 155.7 281.141 153.602 280.726C152.299 280.407 151.046 279.907 149.881 279.242L143.116 275.778C141.465 274.939 138.502 274.077 137.568 272.327C135.858 269.134 140.423 263.758 142.051 261.344C143.905 258.598 145.759 255.828 147.522 253.018C154.866 253.075 162.048 255.179 168.261 259.094Z" fill="#FFFAF3"/>
<path d="M108.701 274.226C104.085 275.765 99.712 277.955 95.7155 280.73C95.1968 281.096 94.5428 281.483 93.9699 281.208C93.6388 280.995 93.388 280.678 93.2573 280.306C91.3268 276.066 90.5195 271.412 89.7888 266.807C89.2084 263.144 88.6642 259.474 88.156 255.797C88.8509 255.06 89.6377 254.416 90.4969 253.88C96.93 249.778 104.554 247.956 112.147 248.706C112.598 250.059 113.022 251.381 113.459 252.716C115.079 257.677 118.394 263.852 118.773 269.035C119.075 273.532 112.043 273.13 108.701 274.226Z" fill="#FFFAF3"/>
<path d="M515.198 195.826C511.722 201.4 507.001 206.092 501.405 209.533C498.171 211.522 493.782 213.065 490.58 215.099C487.377 217.133 484.396 219.772 482.849 223.218C480.378 228.613 478.33 234.193 476.724 239.906C476.629 240.281 476.621 240.673 476.701 241.051C476.78 241.43 476.946 241.785 477.184 242.09C477.422 242.394 477.727 242.641 478.074 242.809C478.422 242.978 478.804 243.065 479.191 243.064C483.544 243.064 487.901 240.29 490.53 236.636C491.401 235.432 492.159 234.111 493.309 233.168C494.806 231.937 496.782 231.504 498.613 230.868C503.475 229.181 516.312 225.419 519.645 221.499C522.838 217.751 516.704 213.764 517.579 208.915C518.454 204.067 518.247 199.705 515.198 195.826Z" fill="#FF9739"/>
<path d="M611.053 250.98C609.867 262.63 599.146 272.454 588.411 273.135C574.88 273.983 561.299 274.082 547.741 274.555C546.523 274.596 544.656 274.24 544.353 271.849C543.952 268.692 548.232 260.826 554.394 257.326C549.649 258.507 537.683 247.804 530.488 240.791C530.331 241.025 530.177 241.242 530.037 241.508C527.967 244.972 526.6 249.144 527.629 253.05C527.958 254.29 528.531 255.449 528.905 256.658C529.579 258.773 529.782 261.01 529.501 263.211C529.22 265.413 528.461 267.527 527.277 269.405C526.826 270.054 526.321 270.726 525.563 270.92C524.025 271.326 522.803 269.68 522.081 268.268C516.889 258.264 510.647 246.713 512.487 234.823C512.912 232.526 513.543 230.273 514.373 228.089C514.841 226.592 515.436 225.138 516.15 223.741C516.44 223.188 516.774 222.659 517.147 222.158L517.273 221.996C518.874 219.961 521.161 218.568 523.394 217.246C524.413 216.637 521.247 213.065 522.329 212.573C523.511 207.612 528.824 205.542 531.395 201.685C532.359 200.35 533.093 198.864 533.569 197.288C534.02 195.483 533.907 193.598 533.799 191.749C533.29 182.124 533.505 172.474 534.444 162.882C534.602 161.213 534.8 159.499 535.567 157.997C536.577 156.022 538.463 154.637 539.627 152.765C540.79 150.893 540.912 147.912 538.95 146.902C538.225 146.585 537.433 146.457 536.645 146.527C533.456 146.599 530.331 147.348 527.218 148.038C518.035 150.083 508.75 151.64 499.403 152.702C498.537 152.801 496.286 152.675 494.793 153.022C494.823 152.946 494.859 152.872 494.901 152.801C495.6 151.52 498.325 150.172 499.457 149.139C500.977 147.754 502.407 146.279 503.791 144.759C506.579 141.715 509.159 138.481 511.838 135.337C517.751 128.395 524.693 121.589 533.583 119.523C541.764 117.611 547.98 118.409 554.511 123.696C561.042 128.982 565.309 136.776 567.257 144.931C569.301 153.46 571.668 162.544 574.718 170.771C576.161 174.686 578.326 178.285 580.477 181.866C587.526 193.551 594.568 205.241 601.604 216.935C605.113 222.762 608.685 228.757 609.912 235.428C611.008 241.449 611.68 244.904 611.053 250.98Z" fill="#FF9739"/>
<path d="M539.635 152.801C538.458 154.673 536.573 156.058 535.576 158.033C534.809 159.535 534.611 161.249 534.453 162.918C533.514 172.511 533.299 182.16 533.808 191.785C533.916 193.634 534.034 195.528 533.578 197.324C533.163 198.916 529.487 211.716 523.402 217.282C521.486 219.032 518.892 219.988 517.282 222.032L517.156 222.194C516.782 222.695 516.449 223.224 516.159 223.777C515.257 222.158 511.269 208.482 511.905 201.757C512.356 197.094 513.083 192.376 515.031 188.091C517.115 183.49 521.016 180.202 523.249 175.701C524.886 172.404 525.572 168.394 524.034 165.052C523.58 163.937 522.77 163.004 521.729 162.399C520.444 161.727 518.919 161.827 517.48 161.89C513.539 162.05 509.591 161.834 505.69 161.245C502.312 160.726 498.74 159.779 495.988 157.636C495.122 156.964 492.745 155.111 493.494 153.744C493.653 153.541 493.851 153.371 494.076 153.245C494.302 153.118 494.55 153.038 494.806 153.009C496.299 152.661 498.55 152.788 499.416 152.689C508.766 151.636 518.054 150.088 527.241 148.052C530.353 147.362 533.479 146.613 536.668 146.541C537.455 146.47 538.248 146.599 538.972 146.915C540.921 147.948 540.799 150.925 539.635 152.801Z" fill="#F6F3EE"/>
<path d="M655.815 302.416C646.713 317.301 623.204 323.683 607.391 317.752C598.934 314.595 592.168 308.212 584.979 302.755C583.328 301.498 581.639 300.286 579.913 299.119C578.688 296.675 577.174 294.387 575.403 292.304L582.854 295.195C580.898 292.287 578.659 289.58 576.17 287.113C580.229 287.73 584.167 288.917 588.086 290.139C585.665 288.096 583.027 286.325 580.22 284.857L584.532 283.437C590.035 284.758 595.447 286.053 601.14 285.823C605.479 285.642 609.975 285.259 613.769 283.116C621.775 278.606 622.925 268.521 619.533 260.564C616.949 254.498 611.716 249.685 604.865 249.568C603.819 249.568 602.687 249.613 601.834 248.995C600.982 248.377 600.675 247.164 600.513 246.077C599.976 242.468 598.934 234.052 601.866 231.165C605.023 228.067 611.338 233.078 614.328 234.562C624.702 239.744 636.939 244.155 645.63 251.981C657.727 262.896 664.723 287.87 655.815 302.416Z" fill="#FF9739"/>
<path d="M541.976 106.303C545.548 109.876 552.688 121.364 552.697 124.169C549.946 124.138 538.783 124.435 536.888 122.049C534.849 119.483 540.406 107.03 541.976 106.303Z" fill="#FF9739"/>
<path d="M529.473 107.197C533.045 110.769 536.627 118.446 537.511 120.597C537.962 121.725 535.837 121.21 535.003 122.094C534.717 122.363 534.384 122.575 534.02 122.721C532.11 123.623 530.169 124.455 528.197 125.216C526.844 125.734 523.655 127.985 522.333 126.848C522.333 124.169 523.519 120.083 524.137 117.918C525.325 114.079 527.127 110.458 529.473 107.197Z" fill="#FF9739"/>
<path d="M588.009 298.028L579.241 294.469C581.302 296.969 583.059 299.705 584.473 302.619C574.348 295.535 563.347 289.794 551.746 285.538C566.58 278.182 578.546 281.195 590.192 284.158L585.06 285.759C588.36 287.549 591.455 289.696 594.288 292.16C589.665 290.662 585.019 289.165 580.229 288.367C583.136 291.321 585.743 294.557 588.009 298.028Z" fill="#F6F3EE"/>
<path d="M368.235 230.881C370.864 232.753 372.682 235.545 374.283 238.35C383.525 254.543 387.625 273.455 387.016 292.087C386.407 310.72 381.193 329.073 372.899 345.761C371.122 349.338 369.191 352.861 366.724 356C359.985 364.57 349.688 369.703 339.21 372.662C328.733 375.62 317.781 376.689 307.069 378.76C296.785 380.744 286.366 383.672 276.037 382.034C274.729 381.827 273.39 381.529 272.312 380.753C270.693 379.585 269.962 377.56 269.389 375.647C263.945 357.416 264.712 337.994 265.524 318.988C265.686 315.176 265.884 311.225 267.653 307.842C270.075 303.219 274.955 300.517 279.519 297.983C286.736 293.977 294.404 289.079 296.93 281.213C297.832 278.367 297.994 275.349 298.481 272.395C300.619 259.549 309.757 248.093 321.814 243.158C325.738 241.553 330.045 240.529 333.252 237.746C335.584 235.73 337.311 232.821 340.176 231.725C343.437 230.48 347.04 231.968 350.527 232.067C353.287 232.144 355.985 231.341 358.704 230.895C365.903 229.713 368.235 230.881 368.235 230.881Z" fill="#3856FF"/>
<path d="M395.649 246.884C403.015 255.341 407.859 265.674 412.112 276.057C414.494 281.864 416.719 287.727 418.788 293.648C424.268 287.814 431.397 283.791 439.224 282.115C441.858 281.56 444.659 281.285 447.199 282.173C449.639 283.026 451.596 284.88 453.315 286.788C456.567 290.441 459.314 294.825 459.742 299.701C460.283 305.79 457.176 311.559 453.955 316.755C447.346 327.411 439.833 337.48 431.498 346.848C428.097 350.664 424.182 354.575 419.13 355.373C412.153 356.474 405.865 351.314 400.872 346.325C392.961 338.409 385.474 329.808 380.814 319.632C379.56 316.89 378.519 314.049 377.206 311.329C375.564 307.905 373.521 304.685 371.857 301.271C367.251 291.799 365.736 281.181 364.306 270.753C363.679 266.198 363.057 261.62 363.084 257.023C363.173 252.469 363.722 247.936 364.721 243.492C365.348 240.502 365.695 235.779 367.684 233.281C371.419 228.581 382.605 235.892 386.132 238.332C389.647 240.777 392.844 243.649 395.649 246.884Z" fill="#3856FF"/>
<path d="M302.239 331.017C302.482 335.636 302.69 340.399 304.679 344.584C306.032 347.412 308.075 349.821 310.118 352.193L325.35 369.901C327.492 372.386 329.558 374.98 332.071 377.091C352.936 394.618 360.838 392.877 374.816 387.122C378.672 385.539 382.998 380.406 384.197 376.414C385.632 371.629 381.856 366.699 378.839 362.721C368.145 348.608 354.131 336.258 348.619 319.421C343.658 304.275 346.274 287.32 340.586 272.431C338.843 268.031 336.571 263.86 333.821 260.009C330.212 254.858 325.431 249.766 319.189 249.13C312.604 248.463 306.429 253.19 303.326 259.053C298.324 268.489 297.611 280.297 298.815 290.572C300.394 304.01 301.535 317.492 302.239 331.017Z" fill="#3856FF"/>
<path d="M367.279 228.184L374.171 233.439C366.309 238.066 356.95 239.541 347.83 239.564C344.388 239.564 340.613 239.257 338.123 236.898C338.268 237.033 342.679 232.388 343.419 232.13C344.465 231.761 346.125 232.194 347.248 232.207C348.61 232.207 349.963 232.164 351.307 232.076C356.811 231.678 362.209 230.363 367.279 228.184Z" fill="#3856FF"/>
<path d="M340.167 238.423C348.884 240.915 358.116 240.982 366.868 238.616C368.278 238.27 369.642 237.753 370.928 237.078C372.199 236.364 373.314 235.403 374.207 234.25" stroke="#FFFAF3" stroke-width="0.586354" stroke-linecap="round" stroke-linejoin="round"/>
<path d="M346.567 233.33C346.4 235.472 345.914 237.576 345.124 239.573" stroke="#FFFAF3" stroke-width="0.586354" stroke-linecap="round" stroke-linejoin="round"/>
<path d="M351.231 233.61C351.188 235.834 350.939 238.049 350.487 240.227" stroke="#FFFAF3" stroke-width="0.586354" stroke-linecap="round" stroke-linejoin="round"/>
<path d="M358.262 232.536C358.339 234.102 358.456 235.667 358.619 237.223" stroke="#FFFAF3" stroke-width="0.586354" stroke-linecap="round" stroke-linejoin="round"/>
<path d="M367.896 231.436C369.008 232.889 370.282 234.21 371.694 235.374C371.952 235.599 372.226 235.804 372.515 235.987" stroke="#FFFAF3" stroke-width="0.586354" stroke-linecap="round" stroke-linejoin="round"/>
<path d="M344.465 233.073C344.456 234.147 344.2 235.204 343.716 236.163C343.234 237.112 342.671 238.017 342.034 238.869" stroke="#FFFAF3" stroke-width="0.586354" stroke-linecap="round" stroke-linejoin="round"/>
<path d="M352.913 232.667C352.945 234.158 352.89 235.649 352.746 237.133" stroke="#FFFAF3" stroke-width="0.586354" stroke-linecap="round" stroke-linejoin="round"/>
<path d="M366.9 238.607C366.058 237.08 365.347 235.484 364.776 233.835" stroke="#FFFAF3" stroke-width="0.586354" stroke-linecap="round" stroke-linejoin="round"/>
<path d="M359.575 231.77C359.529 233.611 359.818 235.445 360.427 237.182" stroke="#FFFAF3" stroke-width="0.586354" stroke-linecap="round" stroke-linejoin="round"/>
<path d="M301.453 295.867L299.992 310.116C299.613 313.281 299.393 316.463 299.334 319.651C299.328 326.902 300.976 334.06 304.151 340.579C308.611 349.713 315.842 357.141 322.95 364.398L329.716 371.331" stroke="#FFFAF3" stroke-width="0.586354" stroke-linecap="round" stroke-linejoin="round"/>
<path d="M340.279 286.553C343.59 299.633 346.914 312.781 352.006 325.289C353.263 328.532 354.799 331.661 356.598 334.639C358.081 336.903 359.686 339.085 361.406 341.174L372.817 355.576" stroke="#FFFAF3" stroke-width="0.586354" stroke-linecap="round" stroke-linejoin="round"/>
<path d="M412.491 279.936C419.19 289.981 422.495 301.908 421.922 313.968" stroke="#FFFAF3" stroke-width="0.586354" stroke-linecap="round" stroke-linejoin="round"/>
<path d="M383.76 266.892C388.288 278.534 388.887 291.337 385.465 303.35C384.54 306.552 383.322 309.782 383.557 313.106" stroke="#FFFAF3" stroke-width="0.586354" stroke-linecap="round" stroke-linejoin="round"/>
<path d="M382.033 318.365C382.181 319.44 382.208 320.527 382.114 321.608C382.015 322.698 381.552 323.722 380.801 324.517" stroke="#FFFAF3" stroke-width="0.586354" stroke-linecap="round" stroke-linejoin="round"/>
<path d="M289.808 302.795C288.042 303.349 286.421 304.285 285.058 305.537" stroke="#FFFAF3" stroke-width="0.586354" stroke-linecap="round" stroke-linejoin="round"/>
<path d="M283.308 310.016C281.521 311.484 279.918 313.162 278.532 315.014" stroke="#FFFAF3" stroke-width="0.586354" stroke-linecap="round" stroke-linejoin="round"/>
<path d="M309.379 330.782C309.26 331.157 309.239 331.555 309.318 331.939C309.397 332.324 309.573 332.682 309.83 332.979" stroke="#FFFAF3" stroke-width="0.586354" stroke-linecap="round" stroke-linejoin="round"/>
<path d="M309.248 314.31C308.928 315.5 309.035 316.764 309.55 317.882" stroke="#FFFAF3" stroke-width="0.586354" stroke-linecap="round" stroke-linejoin="round"/>
<path d="M305.937 305.154C305.506 305.969 305.384 306.913 305.594 307.811" stroke="#FFFAF3" stroke-width="0.586354" stroke-linecap="round" stroke-linejoin="round"/>
<path d="M309.23 292.11C309.014 293.443 308.913 294.792 308.928 296.142C308.928 296.648 309.013 297.252 309.464 297.496" stroke="#FFFAF3" stroke-width="0.586354" stroke-linecap="round" stroke-linejoin="round"/>
<path d="M313.699 300.707C313.947 301.743 313.961 302.822 313.74 303.864" stroke="#FFFAF3" stroke-width="0.586354" stroke-linecap="round" stroke-linejoin="round"/>
<path d="M337.767 279.67C337.005 280.543 336.6 281.67 336.631 282.828" stroke="#FFFAF3" stroke-width="0.586354" stroke-linecap="round" stroke-linejoin="round"/>
<path d="M313.163 261.809C312.366 263.292 312.066 264.991 312.306 266.658" stroke="#FFFAF3" stroke-width="0.586354" stroke-linecap="round" stroke-linejoin="round"/>
<path d="M303.474 272.458C303.107 275.044 302.89 277.65 302.825 280.261" stroke="#FFFAF3" stroke-width="0.586354" stroke-linecap="round" stroke-linejoin="round"/>
<path d="M418.346 301.406C418.622 302.606 418.701 303.843 418.58 305.068" stroke="#FFFAF3" stroke-width="0.586354" stroke-linecap="round" stroke-linejoin="round"/>
<path d="M411.535 289.368C412.207 290.004 412.392 291.001 412.397 291.925C412.318 292.847 412.318 293.773 412.397 294.695" stroke="#FFFAF3" stroke-width="0.586354" stroke-linecap="round" stroke-linejoin="round"/>
<path d="M415.297 295.781V297.978" stroke="#FFFAF3" stroke-width="0.586354" stroke-linecap="round" stroke-linejoin="round"/>
<path d="M389.001 326.353C389.002 326.968 389.148 327.574 389.426 328.122C389.704 328.671 390.107 329.146 390.602 329.51" stroke="#FFFAF3" stroke-width="0.586354" stroke-linecap="round" stroke-linejoin="round"/>
<path d="M402.104 343.186C403.066 343.596 403.958 344.155 404.747 344.841" stroke="#FFFAF3" stroke-width="0.586354" stroke-linecap="round" stroke-linejoin="round"/>
<path d="M397.819 332.569C397.992 332.573 398.162 332.622 398.311 332.711C398.459 332.801 398.582 332.927 398.668 333.079" stroke="#FFFAF3" stroke-width="0.586354" stroke-linecap="round" stroke-linejoin="round"/>
<path d="M380.639 280.315L380.494 282.877" stroke="#FFFAF3" stroke-width="0.586354" stroke-linecap="round" stroke-linejoin="round"/>
<path d="M382.565 282.151C382.75 286.007 382.894 290.067 381.144 293.513" stroke="#FFFAF3" stroke-width="0.586354" stroke-linecap="round" stroke-linejoin="round"/>
<path d="M385.334 293.689V294.97" stroke="#FFFAF3" stroke-width="0.586354" stroke-linecap="round" stroke-linejoin="round"/>
<path d="M385.641 381.872C395.248 386.215 401.026 385.241 417.714 386.833C425.63 387.591 431.665 392.106 438.372 396.377C441.565 398.416 444.998 400.982 445.539 404.735C445.661 405.574 445.494 406.63 444.7 406.927C444.341 407.02 443.965 407.034 443.6 406.968C439.784 406.657 436.221 409.264 432.396 409.128C430.813 409.07 429.27 408.537 427.687 408.519C425.883 408.497 424.164 409.133 422.423 409.588C419.418 410.424 416.263 410.578 413.19 410.039C409.672 409.354 405.974 408.646 402.501 407.717C398.748 406.697 395.243 404.952 391.676 403.432C387.048 401.452 382.538 399.097 378.596 395.926C377.824 395.304 375.276 391.908 375.163 390.924C375.068 390.067 377.278 391.898 377.757 391.181C378.804 389.619 380.042 388.193 381.442 386.937C382.272 386.258 383.047 385.514 383.76 384.713C384.635 383.635 385.524 383.252 385.641 381.872Z" fill="#FFFAF3"/>
<path d="M381.491 301.23V302.083" stroke="#FFFAF3" stroke-width="0.586354" stroke-linecap="round" stroke-linejoin="round"/>
<path d="M402.23 260.749C402.614 261.263 402.866 261.863 402.965 262.496C403.064 263.13 403.007 263.778 402.799 264.384" stroke="#FFFAF3" stroke-width="0.586354" stroke-linecap="round" stroke-linejoin="round"/>
<path d="M395.311 251.548C395.475 251.67 395.604 251.833 395.683 252.021C395.762 252.209 395.79 252.415 395.763 252.618" stroke="#FFFAF3" stroke-width="0.586354" stroke-linecap="round" stroke-linejoin="round"/>
<path d="M398.053 255.183C399.151 256.601 399.661 258.388 399.479 260.172" stroke="#FFFAF3" stroke-width="0.586354" stroke-linecap="round" stroke-linejoin="round"/>
<path d="M392.925 257.204C394.071 257.709 394.436 259.116 394.671 260.361" stroke="#FFFAF3" stroke-width="0.586354" stroke-linecap="round" stroke-linejoin="round"/>
<path d="M373.485 393.631C373.634 393.861 373.805 394.118 374.076 394.149C374.26 394.153 374.44 394.097 374.59 393.991C379.101 391.551 383.751 388.953 386.588 384.7C387.896 382.742 388.744 380.135 387.612 378.07C386.89 376.753 385.519 375.945 384.211 375.205C383.762 374.906 383.252 374.709 382.718 374.628C382.153 374.624 381.596 374.762 381.099 375.03C376.264 377.222 372.529 381.227 368.921 385.128C364.789 389.621 371.176 390.063 373.485 393.631Z" fill="#3856FF"/>
<path d="M455.931 269.689C458.414 264.937 460.47 259.974 462.074 254.859C462.181 254.402 462.389 253.974 462.683 253.609C462.834 253.429 463.042 253.306 463.272 253.259C463.502 253.212 463.742 253.245 463.951 253.352C464.377 253.699 464.665 254.187 464.763 254.728C465.214 256.884 464.533 258.291 464.582 260.104C464.561 260.531 464.645 260.957 464.826 261.345C464.923 261.534 465.083 261.684 465.28 261.766C465.476 261.849 465.696 261.859 465.899 261.796C468.591 257.083 470.51 251.97 471.582 246.65C471.74 245.86 472.087 244.886 472.895 244.845C473.828 244.8 473.734 247.669 473.571 249.121C474.113 247.105 474.695 243.073 476.142 243.438C476.832 243.61 477.283 244.791 477.283 245.666C477.805 245.63 478.324 245.765 478.763 246.05C479.706 246.636 480.305 249.117 480.305 251.277C480.305 252.022 481.316 252.946 481.208 254.985C481.149 256.46 480.193 262.414 479.255 264.908C477.622 269.202 476.657 272.359 474.167 276.22C469.922 282.819 456.608 293.102 456.125 293.179C455.534 293.269 456.68 288.218 456.125 288.001C454.362 287.343 454.871 288.024 453.532 286.702C451.615 284.812 452.666 287.289 451.376 284.979C450.086 282.67 454.781 271.881 455.931 269.689Z" fill="#FFFAF3"/>
<path d="M464.009 290.906C462.31 293.177 460.944 295.678 459.95 298.334C459.12 300.558 458.182 303.255 455.863 303.778C454.091 304.18 452.363 303.048 450.965 301.889C449.249 300.465 447.649 298.907 446.18 297.229C444.375 295.15 442.707 292.805 442.147 290.098C441.642 287.636 442.26 284.654 443.974 282.764C444.696 282.085 445.458 281.449 446.256 280.861C446.82 280.378 447.33 279.67 447.925 279.255C448.972 278.525 448.597 278.588 449.892 279.097C452.684 280.207 455.39 282.349 457.672 284.262C458.322 284.808 464.46 290.306 464.009 290.906Z" fill="#3856FF"/>
<path d="M261.879 320.066C260.841 335.924 260.807 351.833 261.776 367.696C261.952 370.546 262.376 373.794 264.744 375.395C266.679 376.703 269.254 376.414 271.545 376.076C272.871 363.393 270.566 350.746 269.525 338.13C269.001 331.815 269.367 325.722 269.389 319.439C269.389 313.241 267.481 311.55 262.7 313.444C261.834 316.038 261.992 318.352 261.879 320.066Z" fill="#3856FF"/>
<path d="M445.178 282.377C446.414 282.025 447.718 282.548 448.854 283.148C451.599 284.553 453.993 286.557 455.859 289.011C457.722 291.479 458.767 294.468 458.849 297.559" stroke="#FFFAF3" stroke-width="0.586354" stroke-linecap="round" stroke-linejoin="round"/>
<path d="M451.24 279.715C450.492 280.924 449.595 282.033 448.57 283.017" stroke="#FFFAF3" stroke-width="0.586354" stroke-linecap="round" stroke-linejoin="round"/>
<path d="M451.678 284.916C452.606 283.692 453.365 282.348 453.933 280.92" stroke="#FFFAF3" stroke-width="0.586354" stroke-linecap="round" stroke-linejoin="round"/>
<path d="M458.083 293.287C459.181 291.158 460.468 289.132 461.93 287.234" stroke="#FFFAF3" stroke-width="0.586354" stroke-linecap="round" stroke-linejoin="round"/>
<path d="M457.081 290.978C458.043 289.031 459.206 287.19 460.55 285.484" stroke="#FFFAF3" stroke-width="0.586354" stroke-linecap="round" stroke-linejoin="round"/>
<path d="M452.549 313.485C451.78 314.989 450.908 316.437 449.937 317.819" stroke="#FFFAF3" stroke-width="0.586354" stroke-linecap="round" stroke-linejoin="round"/>
<path d="M447.591 315.564C447.217 316.041 446.935 316.584 446.761 317.165" stroke="#FFFAF3" stroke-width="0.586354" stroke-linecap="round" stroke-linejoin="round"/>
<path d="M417.006 350.854C417.642 350.937 418.289 350.816 418.851 350.506" stroke="#FFFAF3" stroke-width="0.586354" stroke-linecap="round" stroke-linejoin="round"/>
<path d="M424.164 349.249L424.857 348.901" stroke="#FFFAF3" stroke-width="0.586354" stroke-linecap="round" stroke-linejoin="round"/>
<path d="M427.506 345.893L427.737 345.78" stroke="#FFFAF3" stroke-width="0.586354" stroke-linecap="round" stroke-linejoin="round"/>
<path d="M364.469 389.296C367.807 388.561 370.648 386.445 373.377 384.389C376.796 381.809 380.242 379.202 383.092 376.004" stroke="#FFFAF3" stroke-width="0.586354" stroke-linecap="round" stroke-linejoin="round"/>
<path d="M369.697 387C372.053 388.286 374.152 389.997 375.885 392.047" stroke="#FFFAF3" stroke-width="0.586354" stroke-linecap="round" stroke-linejoin="round"/>
<path d="M372.56 385.016C373.896 385.885 375.019 387.042 375.848 388.403" stroke="#FFFAF3" stroke-width="0.586354" stroke-linecap="round" stroke-linejoin="round"/>
<path d="M383.507 383.126C382.539 381.62 381.413 380.221 380.147 378.954" stroke="#FFFAF3" stroke-width="0.586354" stroke-linecap="round" stroke-linejoin="round"/>
<path d="M377.86 380.929C380.663 383.51 383.182 386.383 385.375 389.499" stroke="#FFFAF3" stroke-width="0.586354" stroke-linecap="round" stroke-linejoin="round"/>
<path d="M266.679 313.142C265.822 320.527 265.84 327.988 266.733 335.369C267.184 339.063 267.847 342.807 267.278 346.483" stroke="#FFFAF3" stroke-width="0.586354" stroke-linecap="round" stroke-linejoin="round"/>
<path d="M267.495 348.955C267.211 357.525 266.99 366.397 270.445 374.213" stroke="#FFFAF3" stroke-width="0.586354" stroke-linecap="round" stroke-linejoin="round"/>
<path d="M266.566 314.211C265.165 314.508 263.748 314.725 262.322 314.861" stroke="#FFFAF3" stroke-width="0.586354" stroke-linecap="round" stroke-linejoin="round"/>
<path d="M266.291 317.22C264.832 317.52 263.383 317.869 261.943 318.266" stroke="#FFFAF3" stroke-width="0.586354" stroke-linecap="round" stroke-linejoin="round"/>
<path d="M266.115 321.207C264.662 321.446 263.215 321.73 261.78 322.046" stroke="#FFFAF3" stroke-width="0.586354" stroke-linecap="round" stroke-linejoin="round"/>
<path d="M266.052 324.323C265.15 324.323 264.248 324.833 263.345 324.887" stroke="#FFFAF3" stroke-width="0.586354" stroke-linecap="round" stroke-linejoin="round"/>
<path d="M261.424 328.577C262.358 328.426 263.306 328.39 264.248 328.469" stroke="#FFFAF3" stroke-width="0.586354" stroke-linecap="round" stroke-linejoin="round"/>
<path d="M266.403 332.185C265.107 332.293 263.827 332.548 262.588 332.943" stroke="#FFFAF3" stroke-width="0.586354" stroke-linecap="round" stroke-linejoin="round"/>
<path d="M473.562 249.676C473.452 251.308 473.167 252.923 472.71 254.493" stroke="#273CB3" stroke-width="0.586354" stroke-linecap="round" stroke-linejoin="round"/>
<path d="M477.36 246.622C477.315 252.103 476.023 257.502 473.58 262.409" stroke="#273CB3" stroke-width="0.586354" stroke-linecap="round" stroke-linejoin="round"/>
<path d="M472.132 256.55C471.766 257.797 471.214 258.981 470.495 260.064" stroke="#273CB3" stroke-width="0.586354" stroke-linecap="round" stroke-linejoin="round"/>
<path d="M479.782 252.784C479.603 255.416 478.976 257.999 477.928 260.42" stroke="#273CB3" stroke-width="0.586354" stroke-linecap="round" stroke-linejoin="round"/>
<path d="M421.327 395.363C423.474 395.214 425.666 395.065 427.759 395.584C428.821 395.877 429.856 396.26 430.853 396.729C435.228 398.651 439.516 400.755 443.717 403.044" stroke="#273CB3" stroke-width="0.586354" stroke-linecap="round" stroke-linejoin="round"/>
<path d="M419.834 400.441C423.113 400.554 426.322 401.416 429.216 402.963" stroke="#273CB3" stroke-width="0.586354" stroke-linecap="round" stroke-linejoin="round"/>
<path d="M432.377 404.059C433.496 404.004 434.565 404.465 435.598 404.884C437.988 405.849 440.519 406.634 443.094 406.521" stroke="#273CB3" stroke-width="0.586354" stroke-linecap="round" stroke-linejoin="round"/>
<path d="M416.339 406.264C418.95 405.854 421.359 407.031 423.835 407.644C426.135 408.213 428.481 407.974 430.822 408.122" stroke="#273CB3" stroke-width="0.586354" stroke-linecap="round" stroke-linejoin="round"/>
<path d="M261.176 336.168C262.706 335.669 264.325 335.501 265.925 335.676" stroke="#FFFAF3" stroke-width="0.586354" stroke-linecap="round" stroke-linejoin="round"/>
<path d="M267.319 340.182C265.228 340.387 263.163 340.797 261.153 341.409" stroke="#FFFAF3" stroke-width="0.586354" stroke-linecap="round" stroke-linejoin="round"/>
<path d="M261.081 345.27L261.41 345.175C262.583 344.882 265.546 344.435 266.719 344.692" stroke="#FFFAF3" stroke-width="0.586354" stroke-linecap="round" stroke-linejoin="round"/>
<path d="M349.927 163.261C350.775 160.907 351.826 158.512 353.734 156.892C356.806 154.281 361.257 154.312 365.29 154.484C366.494 154.533 367.748 154.596 368.803 155.178C369.859 155.76 370.54 156.721 371.216 157.673C377.725 166.86 384.012 176.964 384.459 188.213C384.779 196.404 381.947 204.373 378.789 211.937C377.757 214.418 376.651 216.93 374.856 218.924C373.061 220.918 370.423 222.347 367.752 222.05C368.231 224.201 369.498 225.185 369.687 227.381C369.728 227.859 370.436 228.833 370.138 229.212C369.94 229.465 368.01 230.353 367.712 230.48C362.457 232.658 356.585 232.591 350.902 232.491C347.419 232.428 343.807 232.334 340.685 230.786C337.785 229.343 335.616 226.786 333.563 224.278C329.878 219.767 326.239 215.117 323.974 209.754C321.71 204.391 320.939 198.163 323.095 192.755C323.61 191.322 324.462 190.035 325.58 189.002C326.969 187.816 328.778 187.274 330.542 186.747C334.407 185.619 343.067 184.915 345.552 181.28C346.995 179.165 346.725 175.547 347.198 173.107C347.834 169.755 348.747 166.462 349.927 163.261Z" fill="#FFFAF3"/>
<path d="M342.512 149.261C336.279 149.143 330.646 153.022 326.311 157.51C319.667 164.389 315.441 165.579 311.246 174.172C306.546 183.797 302.225 194.378 304.093 204.924C305.568 213.277 310.858 220.999 310.222 229.456C309.934 233.29 308.418 236.907 306.943 240.448C311.025 242.428 315.261 244.304 319.771 244.805C328.449 245.775 337.316 241.196 342.228 233.98C347.14 226.763 348.232 217.291 345.837 208.87C345.747 208.385 345.512 207.939 345.165 207.589C344.506 207.048 343.541 207.296 342.702 207.445C338.733 208.14 334.461 205.402 333.438 201.505C332.486 197.896 335.102 193.314 338.85 193.49C339.887 193.539 340.907 193.941 341.94 193.815C344.754 193.512 348.669 190.062 349.197 187.283C350.618 179.796 350.018 172.034 353.739 165.381C357.758 158.2 366.219 159.635 368.384 162.124C372.128 166.441 375.01 170.46 376.922 175.85C377.969 178.795 379.178 182.868 379.629 185.966C380.783 194.383 380.982 202.127 378.763 210.323C377.906 213.48 376.535 215.816 374.942 216.782C373.661 217.562 370.035 217.012 368.601 217.445C364.848 218.581 366.382 224.706 368.24 228.157C370.098 231.607 374.072 233.421 377.946 234.02C380.102 234.345 382.371 234.354 384.392 233.542C387.305 232.374 389.313 229.69 390.882 226.975C398.599 213.638 399.001 196.363 391.96 182.665C390.309 179.462 388.289 176.458 386.76 173.193C384.31 167.983 377.549 153.257 369.038 151.259C365.105 150.357 360.68 151.43 356.716 150.83C351.975 150.113 347.339 149.351 342.512 149.261Z" fill="#E24F05"/>
<path d="M361.898 179.738C360.067 179.738 357.352 180.572 356.828 181.091C355.828 181.956 354.974 182.978 354.302 184.117C355.371 183.824 356.201 182.972 357.243 182.606C357.871 182.422 358.52 182.32 359.174 182.304C360.739 182.187 365.344 182.511 366.192 181.131C366.481 180.68 366.368 180.175 365.326 179.922C364.19 179.769 363.044 179.707 361.898 179.738Z" fill="#E24F05"/>
<path d="M364.853 187.78C363.422 188.047 362.033 188.502 360.721 189.133C360.14 189.421 359.641 189.851 359.269 190.382C359.21 190.468 358.705 191.244 358.872 191.352C360.121 192.141 361.691 191.749 363.008 191.374L366.134 190.472C369.223 189.575 367.442 187.189 364.853 187.78Z" fill="white" stroke="#273CB3" stroke-width="0.451042" stroke-linecap="round" stroke-linejoin="round"/>
<path d="M363.684 190.314C363.802 190.442 363.945 190.545 364.103 190.617C364.257 190.684 364.42 190.73 364.586 190.752C365.015 190.787 365.445 190.68 365.808 190.45C365.992 190.357 366.148 190.217 366.259 190.044C366.339 189.879 366.383 189.699 366.391 189.516C366.399 189.333 366.369 189.151 366.304 188.979C365.804 187.757 364.739 187.775 364.004 188.077C363.771 188.178 363.575 188.35 363.446 188.569C363.317 188.788 363.262 189.042 363.287 189.295C363.297 189.671 363.438 190.031 363.684 190.314Z" fill="#3856FF" stroke="#273CB3" stroke-width="0.451042" stroke-miterlimit="10"/>
<path d="M362.128 186.805C361.415 186.887 360.732 187.141 360.139 187.545C359.1 188.186 358.229 189.066 357.599 190.112" stroke="#273CB3" stroke-width="0.586354" stroke-linecap="round" stroke-linejoin="round"/>
<path d="M377.937 175.092C377.034 175.545 376.172 176.076 375.361 176.68C374.568 177.302 373.07 178.091 373.481 179.011C373.715 179.535 374.622 179.327 375.163 179.142C375.586 178.946 375.981 178.692 376.336 178.389C377.414 177.64 379.583 176.219 380.688 175.516C380.824 175.426 380.165 176.535 380.237 176.395C380.314 176.242 380.346 176.07 380.332 175.899C380.309 174.321 379.037 174.501 377.937 175.092Z" fill="#E24F05"/>
<path d="M373.192 182.859C373.731 184.312 374.382 185.72 375.141 187.071C376.611 189.778 378.275 192.434 379.074 195.411C379.38 196.548 379.498 197.914 378.681 198.762C378.37 199.064 378.001 199.299 377.596 199.454C377.192 199.609 376.76 199.68 376.327 199.664" stroke="#273CB3" stroke-width="0.586354" stroke-linecap="round" stroke-linejoin="round"/>
<path d="M337.623 200.729C338.714 201.112 339.878 201.139 341.019 201.401C342.16 201.663 343.301 202.254 343.725 203.318" stroke="#273CB3" stroke-width="0.586354" stroke-linecap="round" stroke-linejoin="round"/>
<path d="M349.273 208.794C350.324 208.866 351.168 209.651 351.952 210.359C354.406 212.566 357.17 214.402 360.157 215.807" stroke="#273CB3" stroke-width="0.586354" stroke-linecap="round" stroke-linejoin="round"/>
<path d="M362.723 216.75C364.028 216.96 365.336 217.154 366.647 217.332" stroke="#273CB3" stroke-width="0.586354" stroke-linecap="round" stroke-linejoin="round"/>
<path d="M373.914 184.361C374.562 183.459 375.492 182.797 376.557 182.48" stroke="#273CB3" stroke-width="0.586354" stroke-linecap="round" stroke-linejoin="round"/>
<path d="M379.11 205.447C375.871 207.454 370.373 207.454 368.465 206.746C368.3 206.681 368.167 206.552 368.095 206.389C368.023 206.226 368.018 206.042 368.082 205.875" stroke="#273CB3" stroke-width="0.586354" stroke-linecap="round" stroke-linejoin="round"/>
<path d="M374.604 209.935C375.419 209.519 376.338 209.353 377.247 209.457" stroke="#273CB3" stroke-width="0.586354" stroke-linecap="round" stroke-linejoin="round"/>
<path d="M370.973 206.881L372.908 205.699C374.385 204.807 376.072 204.32 377.797 204.288C378.102 204.306 378.394 204.415 378.635 204.602C378.877 204.788 379.056 205.044 379.15 205.334" stroke="#273CB3" stroke-width="0.586354" stroke-linecap="round" stroke-linejoin="round"/>
<path d="M376.791 170.424C376.791 165.859 373.954 161.809 370.865 158.453C370.054 157.499 369.107 156.669 368.055 155.99C366.589 155.189 364.94 154.782 363.269 154.809C358.272 154.745 353.418 157.321 350.257 161.191C347.938 164.028 342.625 173.788 346.996 176.729C349.048 178.114 351.907 177.099 353.982 176.373C357.442 175.16 360.906 174.005 364.446 173.058C368.513 171.966 372.633 171.086 376.791 170.424Z" fill="#E24F05"/>
<path d="M374.689 185.935C375.402 185.236 376.169 185.033 377.048 184.582C377.922 184.09 378.92 183.863 379.921 183.928" stroke="#273CB3" stroke-width="0.586354" stroke-linecap="round" stroke-linejoin="round"/>
<path d="M375.65 187.78C377.161 187.689 378.807 187.351 379.908 186.233" stroke="#273CB3" stroke-width="0.586354" stroke-linecap="round" stroke-linejoin="round"/>
<path d="M377.197 186.233C377.297 186.37 377.424 186.486 377.57 186.575C377.715 186.663 377.877 186.721 378.045 186.747C378.2 186.809 378.366 186.838 378.533 186.833C378.7 186.828 378.864 186.787 379.015 186.715C379.159 186.58 379.27 186.414 379.34 186.23C379.409 186.045 379.436 185.847 379.416 185.651L379.443 185.227C379.462 185.049 379.452 184.869 379.412 184.695C378.983 183.152 376.309 184.618 377.197 186.233Z" fill="#3856FF" stroke="#273CB3" stroke-width="0.451042" stroke-miterlimit="10"/>
<path d="M359.327 158.498C360.067 155.557 363.607 153.988 366.58 154.587C369.552 155.187 371.943 157.411 373.729 159.86C377.463 164.97 379.213 171.267 382.574 176.63C384.982 180.473 388.203 183.81 390.11 187.906C393.295 194.78 392.388 202.79 391.414 210.287" stroke="#FFFAF3" stroke-width="0.586354" stroke-linecap="round" stroke-linejoin="round"/>
<path d="M366.774 160.758C368.903 161.791 370.544 163.658 371.681 165.719C372.751 167.832 373.564 170.066 374.103 172.372" stroke="#FFFAF3" stroke-width="0.586354" stroke-linecap="round" stroke-linejoin="round"/>
<path d="M353.067 158.66C348.073 167.271 348.921 178.181 344.709 187.198C344.361 188.06 343.834 188.838 343.162 189.48C341.809 190.639 339.86 190.684 338.2 191.311C335.115 192.466 333.144 195.628 332.504 198.857C331.863 202.087 332.332 205.424 332.806 208.681" stroke="#FFFAF3" stroke-width="0.586354" stroke-linecap="round" stroke-linejoin="round"/>
<path d="M340.573 209.84C341.819 218.437 341.347 227.195 339.184 235.608" stroke="#FFFAF3" stroke-width="0.586354" stroke-linecap="round" stroke-linejoin="round"/>
<path d="M347.325 150.334C342.224 149.883 336.861 149.513 332.183 151.611C329.59 152.774 327.375 154.637 325.346 156.631C319.652 162.135 315.314 168.885 312.671 176.35C310.118 183.81 309.546 191.997 311.431 199.651" stroke="#FFFAF3" stroke-width="0.586354" stroke-linecap="round" stroke-linejoin="round"/>
<path d="M312.026 212.064C313.884 217.16 314.569 222.61 314.03 228.007C313.491 233.405 311.743 238.611 308.914 243.24" stroke="#FFFAF3" stroke-width="0.586354" stroke-linecap="round" stroke-linejoin="round"/>
<path d="M317.569 224.95C317.34 233.114 314.494 240.988 309.451 247.412" stroke="#FFFAF3" stroke-width="0.586354" stroke-linecap="round" stroke-linejoin="round"/>
<path d="M386.741 205.474C386.949 209.935 387.152 214.418 386.597 218.847C386.042 223.277 384.671 227.688 382.005 231.269C381.333 232.286 380.398 233.103 379.299 233.633C378.181 234.084 376.737 233.957 375.952 233.033" stroke="#FFFAF3" stroke-width="0.586354" stroke-linecap="round" stroke-linejoin="round"/>
<path d="M389.93 218.441C389.125 225.558 386.678 232.391 382.781 238.4" stroke="#FFFAF3" stroke-width="0.586354" stroke-linecap="round" stroke-linejoin="round"/>
<path d="M355.894 162.571C354.992 163.216 354.65 164.353 354.397 165.417C353.544 169.038 353.288 172.773 353.639 176.477" stroke="#FFFAF3" stroke-width="0.586354" stroke-linecap="round" stroke-linejoin="round"/>
<path d="M355.764 168.254C355.575 171.369 355.714 174.495 356.179 177.582" stroke="#FFFAF3" stroke-width="0.586354" stroke-linecap="round" stroke-linejoin="round"/>
<path d="M203.74 305.47C198.418 306.643 193.33 308.708 188.026 309.98C182 311.415 175.776 311.785 169.592 312.172L145.745 313.62C143.657 313.747 141.474 313.859 139.552 313.025C136.706 311.789 135.087 308.785 133.987 305.885C128.939 292.642 128.421 274.601 119.788 262.08C118.462 260.158 105.805 262.752 100.357 264.24C95.6209 265.521 87.8179 269.287 85.698 272.431C84.4847 274.213 88.747 292.372 89.807 300.423C91.2819 311.618 92.8019 322.975 97.38 333.317C97.8851 334.467 98.4625 335.64 99.4548 336.411C100.447 337.183 101.782 337.471 103.063 337.706C122.242 341.257 141.852 341.853 161.211 339.474C176.651 337.571 191.788 333.795 206.875 330.002L239.954 321.762C240.554 321.641 241.133 321.433 241.673 321.144C243.152 320.242 243.617 318.23 243.211 316.552C240.062 303.612 213.478 303.318 203.74 305.47Z" fill="#273CB3"/>
<path d="M148.068 313.232C147.942 313.417 140.725 325.582 140.603 325.767C149.43 324.642 158.317 324.054 167.215 324.008C174.652 323.972 182.248 324.287 189.316 322.019C199.333 318.803 207.213 310.743 217.186 307.409C229.197 303.391 248.759 306.268 259.313 313.481" stroke="#FFFAF3" stroke-width="0.586354" stroke-linecap="round" stroke-linejoin="round"/>
<path d="M126.716 281.971C120.655 289.98 115.605 298.706 111.678 307.951" stroke="#FFFAF3" stroke-width="0.586354" stroke-linecap="round" stroke-linejoin="round"/>
<path d="M106.78 313.963L100.145 322.984C99.4234 323.963 97.9845 325.776 96.6855 327.494" stroke="#FFFAF3" stroke-width="0.586354" stroke-linecap="round" stroke-linejoin="round"/>
<path d="M86.7942 288.366C87.6286 286.698 89.3607 285.71 91.0205 284.866C102.387 279.107 114.79 275.773 127.104 272.481C126.19 269.216 124.971 266.045 123.464 263.009C122.436 260.934 121.087 258.769 118.89 258.047C117.221 257.493 115.399 257.89 113.69 258.309C107.375 259.856 101.101 261.651 95.1971 264.335C92.2024 265.669 89.3341 267.271 86.6273 269.121C83.47 271.308 83.8174 272.598 84.1917 276.337C84.6025 280.432 85.4755 284.468 86.7942 288.366Z" fill="#3856FF"/>
<path d="M162.826 275.936C163.167 276.084 163.45 276.339 163.634 276.662C163.726 276.975 163.726 277.309 163.634 277.623C162.88 281.472 161.595 285.199 159.818 288.696C159.682 289.065 159.416 289.371 159.069 289.557C158.564 289.756 158.018 289.426 157.576 289.106C150.981 284.545 143.6 281.241 135.804 279.359C133.906 278.908 131.971 278.525 130.207 277.686C129.702 277.447 129.156 277.086 129.115 276.531C129.128 276.164 129.26 275.811 129.49 275.525L132.769 270.424C133.509 269.269 134.239 267.443 135.34 266.581C137.315 265.039 141.528 266.581 143.707 267.149C150.567 269.012 156.634 272.603 162.826 275.936Z" fill="#3856FF"/>
<path d="M145.863 279.079C134.956 289.093 126.671 301.546 119.526 314.405C115.967 320.823 113.009 327.584 109.409 333.967C106.874 338.477 102.093 346.172 107.718 350.407C111.222 353.046 118.543 353.204 122.814 353.776C133.716 355.233 144.757 355.319 155.74 354.769C167.765 354.169 179.298 356.266 191.278 355.152C203.059 354.056 215.152 356.812 226.973 356.573C244.614 356.217 248.398 356.023 265.948 354.246" stroke="#3856FF" stroke-width="1.35313" stroke-miterlimit="10"/>
<path d="M132.101 279.079C140.792 280.02 149.055 283.341 155.979 288.678" stroke="#FFFAF3" stroke-width="0.586354" stroke-linecap="round" stroke-linejoin="round"/>
<path d="M136.043 266.816C137.514 266.694 139.016 266.572 140.45 266.915C141.372 267.167 142.265 267.513 143.116 267.948L149.205 270.807" stroke="#FFFAF3" stroke-width="0.586354" stroke-linecap="round" stroke-linejoin="round"/>
<path d="M151.78 271.939C152.652 271.94 153.493 272.261 154.143 272.841" stroke="#FFFAF3" stroke-width="0.586354" stroke-linecap="round" stroke-linejoin="round"/>
<path d="M90.6096 283.234C96.4072 279.356 103.001 276.828 109.905 275.836" stroke="#FFFAF3" stroke-width="0.586354" stroke-linecap="round" stroke-linejoin="round"/>
<path d="M112.724 275.467C114.452 275.461 116.173 275.252 117.852 274.844" stroke="#FFFAF3" stroke-width="0.586354" stroke-linecap="round" stroke-linejoin="round"/>
<path d="M85.4409 273.279C85.892 270.695 89.0177 269.585 91.0744 268.512C95.9955 265.872 101.236 263.877 106.667 262.576" stroke="#FFFAF3" stroke-width="0.586354" stroke-linecap="round" stroke-linejoin="round"/>
<path d="M177.21 237.002C175.14 244.814 170.868 255.463 167.711 262.932C161.238 258.837 154.549 253.366 146.895 253.321C149.674 248.989 152.122 244.454 154.216 239.753C154.775 238.459 155.321 237.11 156.327 236.113C157.806 234.656 160.079 234.228 162.127 234.566C163.179 234.689 164.166 235.14 164.946 235.856C165.681 236.596 172.853 235.897 177.21 237.002Z" fill="#CD5000"/>
<path d="M112.882 249.302C104.859 248.509 96.803 250.434 90.0053 254.768C89.0984 255.335 88.2677 256.016 87.5336 256.794C86.5142 249.472 85.6362 242.135 84.8995 234.783C84.6965 232.798 84.5206 230.723 85.2739 228.874C86.2075 226.569 88.3996 225.063 90.4789 223.692C93.1852 221.887 96.0718 220.052 99.3238 219.776C100.054 219.662 100.801 219.799 101.444 220.164C101.846 220.477 102.18 220.871 102.422 221.319C105.156 225.735 106.798 230.719 108.417 235.653C109.911 240.191 111.4 244.74 112.882 249.302Z" fill="#CD5000"/>
<path d="M97.9751 218.193C101.605 223.964 104.418 230.21 106.333 236.754C107.894 242.071 108.859 247.579 111.127 252.648" stroke="#FFFAF3" stroke-width="0.586354" stroke-linecap="round" stroke-linejoin="round"/>
<path d="M94.8406 218.324L105.359 252.77" stroke="#FFFAF3" stroke-width="0.586354" stroke-linecap="round" stroke-linejoin="round"/>
<path d="M87.7501 222.884C87.3083 235.157 89.0086 247.413 92.7747 259.103" stroke="#FFFAF3" stroke-width="0.586354" stroke-linecap="round" stroke-linejoin="round"/>
<path d="M90.5105 221.711C92.4023 234.679 95.1858 247.501 98.8412 260.086" stroke="#FFFAF3" stroke-width="0.586354" stroke-linecap="round" stroke-linejoin="round"/>
<path d="M174.364 234.886L165.379 261.538" stroke="#FFFAF3" stroke-width="0.586354" stroke-linecap="round" stroke-linejoin="round"/>
<path d="M163.115 233.624C158.192 242.338 153.906 251.398 150.292 260.731" stroke="#FFFAF3" stroke-width="0.586354" stroke-linecap="round" stroke-linejoin="round"/>
<path d="M168.96 235.125C168.811 238.409 167.607 241.539 166.317 244.566C163.823 250.465 161.04 256.234 158.261 262.003" stroke="#FFFAF3" stroke-width="0.586354" stroke-linecap="round" stroke-linejoin="round"/>
<path d="M36.8905 208.69C36.8455 207.642 37.0447 206.598 37.4723 205.641C37.9777 204.492 38.6713 203.436 39.5246 202.515C40.2643 201.699 41.5362 201.297 42.533 200.928C44.4028 200.268 46.3058 199.706 48.2342 199.245C53.5249 197.892 58.8968 196.886 64.2687 195.925C69.7293 194.948 75.2065 194.058 80.7002 193.255C84.6152 192.678 88.7828 191.758 92.7475 191.902C94.705 191.974 98.611 190.82 99.5131 192.552C101.236 196.007 104.393 209.425 105.151 213.494C105.377 214.693 107.091 228.022 106.743 228.044C102.927 228.275 99.1458 228.917 95.4673 229.961C93.2121 230.597 86.681 233.881 84.5476 233.348C82.6216 232.897 81.3632 227.092 74.0383 223.502C70.7141 221.874 63.0239 220.99 56.0868 219.758C52.4018 219.104 48.9243 218.347 46.4345 217.332C45.8662 217.097 45.2167 216.804 44.5357 216.461L36.8905 208.69Z" fill="#FFB152"/>
<path d="M144.194 198.587C145.524 202.326 148.036 205.51 150.057 208.933C154.699 217.03 156.664 226.386 155.673 235.667C162.213 238.192 169.271 241.174 174.9 245.346C182.897 239.031 194.178 219.727 193.632 218.026C193.267 216.903 188.941 212.546 188.251 211.59C180.638 201.04 171.179 191.69 160.494 183.671C156.615 180.757 152.001 176.878 147.594 180.788C142.98 184.857 142.259 193.165 144.194 198.587Z" fill="#FFB152"/>
<path d="M36.927 206.651C39.976 204.103 43.9993 203.12 47.8648 202.208L60.3541 199.272L69.4606 197.13C71.1295 196.737 72.7938 196.345 74.4898 196.106C76.6683 195.795 78.8739 195.741 81.0659 195.506C86.1357 194.974 93.8665 193.418 99.8293 193.341C99.3782 190.012 97.8221 188.704 94.4168 189.029C83.1407 190.116 71.4137 191.023 60.2865 193.124C55.1474 194.095 50.1229 195.596 45.2938 197.603C43.1424 198.505 40.4857 199.385 38.6545 200.842C36.8233 202.299 37.0488 204.486 36.927 206.651Z" fill="#FFFAF3"/>
<path d="M56.2179 220.178C53.8726 212.834 54.0217 204.921 56.6419 197.671C56.5292 197.978 52.3931 198.496 51.8699 198.632C50.1746 199.065 48.5047 199.592 46.8678 200.21C44.0082 201.293 40.3728 202.596 38.1672 204.802C33.4448 209.52 42.0913 215.234 45.7493 217.133C49.0042 218.828 52.5619 219.862 56.2179 220.178Z" fill="#FFFAF3"/>
<path d="M147.865 180.216C149.353 178.826 151.184 177.572 153.219 177.554C154.421 177.618 155.595 177.951 156.651 178.529C164.481 182.254 170.597 188.727 176.519 195.059L181.77 200.661C185.915 205.091 190.087 209.556 193.334 214.68C194.263 216.137 194.471 217.593 193.515 219.325C192.996 220.273 192.644 220.516 191.882 219.776C191.12 219.037 189.41 216.98 188.928 216.019C187.575 213.363 185.576 211.121 183.583 208.92L174.278 198.636C170.097 194.013 168.468 192.813 163.453 189.088C160.706 192.11 157.413 194.649 154.134 197.125C151.428 199.2 148.496 201.351 145.086 201.672C143.102 197.301 141.807 190.396 144.396 184.78C145.305 183.085 146.475 181.545 147.865 180.216Z" fill="#FFFAF3"/>
<path d="M85.5583 202.389C85.1055 203.359 84.9068 204.428 84.981 205.496C85.0582 207.309 85.6513 209.061 86.6904 210.548C87.1165 211.19 87.6709 211.737 88.3187 212.154C89.1018 212.58 89.9718 212.822 90.8626 212.862C93.0772 213.038 95.4091 212.524 97.123 211.116C98.837 209.709 99.8293 207.332 99.2564 205.185C99.1005 204.624 98.8747 204.085 98.5844 203.58C97.4252 201.469 95.5173 199.096 92.996 198.835C90.3484 198.564 86.7897 199.935 85.5583 202.389Z" fill="#FFFAF3"/>
<path d="M174.238 219.799C172.055 220.584 170.273 222.645 170.201 224.964C170.205 225.725 170.308 226.483 170.508 227.219C170.814 228.482 171.243 229.79 172.208 230.665C173.561 231.914 175.627 231.95 177.481 231.914C178.359 231.962 179.237 231.821 180.056 231.499C180.763 231.118 181.365 230.57 181.811 229.902C186.312 223.849 181.319 217.255 174.238 219.799Z" fill="#FFFAF3"/>
<path d="M62.4602 209.908C61.6742 213.639 61.9652 217.517 63.2991 221.089" stroke="#3856FF" stroke-width="0.586354" stroke-linecap="round" stroke-linejoin="round"/>
<path d="M70.2634 210.995C69.5952 214.811 69.3352 218.688 69.4876 222.559" stroke="#3856FF" stroke-width="0.586354" stroke-linecap="round" stroke-linejoin="round"/>
<path d="M79.5143 213.823C77.3301 217.004 75.7972 220.587 75.0039 224.364" stroke="#3856FF" stroke-width="0.586354" stroke-linecap="round" stroke-linejoin="round"/>
<path d="M85.9958 219.411C84.4352 220.43 83.3436 222.018 82.3559 223.601C81.6793 224.688 81.0343 225.798 80.4164 226.921C80.2169 227.268 80.0377 227.627 79.8796 227.994" stroke="#3856FF" stroke-width="0.586354" stroke-linecap="round" stroke-linejoin="round"/>
<path d="M90.1135 226.502C89.5877 226.621 89.0879 226.835 88.6386 227.133C87.2133 227.976 85.9323 228.969 84.5792 229.934C83.2261 230.899 82.324 229.97 80.8807 230.259C80.0733 230.421 79.2975 231.048 79.2434 231.873C79.2495 232.207 79.3374 232.534 79.4994 232.826C79.6614 233.118 79.8925 233.365 80.1725 233.547C80.4866 233.794 80.856 233.96 81.2489 234.033C81.6418 234.105 82.0464 234.081 82.4278 233.962C82.8039 233.828 83.1166 233.559 83.3051 233.207C83.4936 232.855 83.5442 232.446 83.4471 232.058C82.657 232.065 81.8966 231.758 81.3317 231.206C80.7778 230.654 80.2638 230.063 79.7937 229.438C77.9895 227.304 75.2833 225.726 72.5139 226.105C71.3243 226.289 70.2131 226.812 69.3138 227.612C68.4144 228.412 67.7652 229.455 67.4441 230.615C67.2816 231.142 67.2377 231.698 67.3157 232.244C67.3937 232.79 67.5916 233.312 67.8952 233.772C68.883 235.08 70.7909 235.18 72.4327 235.094C73.7068 235.092 74.9701 234.861 76.1628 234.413C77.6602 233.763 79.0089 232.455 80.6326 232.609C78.427 235.504 75.0758 237.358 72.8431 240.236C72.1258 241.081 71.6436 242.1 71.4449 243.19C71.3515 243.736 71.4032 244.296 71.5948 244.816C71.7863 245.335 72.1111 245.795 72.5364 246.149C73.1821 246.577 73.9507 246.782 74.724 246.731C77.755 246.654 80.3259 244.227 81.4896 241.436C82.6533 238.644 82.748 235.531 82.8066 232.5C82.8254 232.314 82.8023 232.126 82.739 231.95C82.6308 231.755 82.4544 231.607 82.2437 231.535C82.033 231.463 81.8029 231.471 81.5978 231.558C81.1907 231.737 80.8321 232.011 80.5514 232.356C79.0171 233.934 77.3122 235.336 75.4682 236.537C74.0474 237.542 72.4305 238.235 70.7232 238.571C69.0093 238.829 67.1149 238.441 65.8926 237.218C64.3816 235.73 63.9396 233.159 62.0136 232.288C61.4274 232.044 60.7944 231.931 60.1598 231.959C59.0924 231.99 58.0434 232.245 57.0812 232.708C56.1191 233.171 55.2654 233.832 54.5759 234.647" stroke="#3856FF" stroke-width="0.586354" stroke-linecap="round" stroke-linejoin="round"/>
<path d="M88.7922 202.042C88.3896 202.229 88.0332 202.502 87.7486 202.843C87.464 203.184 87.2582 203.583 87.1459 204.013C86.6227 205.772 86.8167 209.105 89.0448 209.606" stroke="#3856FF" stroke-width="0.586354" stroke-linecap="round" stroke-linejoin="round"/>
<path d="M96.3336 203.895C96.703 204.454 96.8963 205.111 96.8883 205.781C96.8846 206.447 96.7609 207.107 96.523 207.729C96.2936 208.456 95.8767 209.109 95.3142 209.624" stroke="#3856FF" stroke-width="0.586354" stroke-linecap="round" stroke-linejoin="round"/>
<path d="M148.393 206.254C151.542 204.103 155.228 202.871 159.038 202.695" stroke="#3856FF" stroke-width="0.586354" stroke-linecap="round" stroke-linejoin="round"/>
<path d="M151.631 211.928C153.363 210.964 155.163 210.128 157.017 209.425C159.018 208.618 161.125 208.102 163.272 207.892" stroke="#3856FF" stroke-width="0.586354" stroke-linecap="round" stroke-linejoin="round"/>
<path d="M153.9 217.742C157.901 216.313 161.987 214.973 166.227 214.811" stroke="#3856FF" stroke-width="0.586354" stroke-linecap="round" stroke-linejoin="round"/>
<path d="M155.352 223.967C158.53 222.845 161.866 222.236 165.235 222.162" stroke="#3856FF" stroke-width="0.586354" stroke-linecap="round" stroke-linejoin="round"/>
<path d="M155.907 230.123C158.37 230.084 160.828 230.16 163.282 230.349C163.982 230.337 164.668 230.549 165.24 230.953" stroke="#3856FF" stroke-width="0.586354" stroke-linecap="round" stroke-linejoin="round"/>
<path d="M157.594 230.561C157.128 230.341 156.606 230.267 156.097 230.347C155.588 230.428 155.115 230.659 154.739 231.012C155.178 231.319 155.708 231.468 156.243 231.435C156.778 231.403 157.286 231.19 157.684 230.832C156.755 230.011 156.426 228.721 156.173 227.507C155.617 224.858 155.189 222.191 154.888 219.506C154.73 218.153 154.595 216.737 153.932 215.541C152.687 213.286 149.922 212.384 147.374 212.226C146.556 212.109 145.723 212.258 144.997 212.65C144.616 212.946 144.31 213.327 144.103 213.762C143.896 214.198 143.794 214.676 143.806 215.158C143.729 217.598 145.38 219.754 147.207 221.373C149.033 222.992 151.149 224.359 152.538 226.366C152.858 226.909 153.236 227.416 153.666 227.877C153.884 228.107 154.157 228.277 154.46 228.371C154.762 228.465 155.083 228.48 155.393 228.414C156.151 228.184 156.521 227.35 156.805 226.61C158.79 221.355 161.135 215.889 165.65 212.546C166.239 212.044 166.958 211.717 167.725 211.604C169.078 211.504 170.264 212.578 170.823 213.809C171.807 215.97 171.274 218.608 169.921 220.548C168.568 222.487 166.462 223.809 164.27 224.724C162.511 225.464 160.413 226.204 159.827 228.022C159.757 228.354 159.643 228.675 159.489 228.978C159.293 229.248 159.043 229.474 158.753 229.641C157.933 230.191 157.062 230.755 156.079 230.836C154.108 230.994 152.601 229.23 150.946 228.13C149.024 226.876 146.67 226.484 144.383 226.326C142.493 226.195 140.509 226.222 138.84 227.11C137.171 227.999 135.949 229.979 136.499 231.788" stroke="#3856FF" stroke-width="0.586354" stroke-linecap="round" stroke-linejoin="round"/>
<path d="M151.289 232.748C150.1 232.515 148.891 232.403 147.68 232.415C146.458 232.426 145.268 232.806 144.266 233.506C143.219 234.296 142.57 235.486 141.776 236.528C140.982 237.57 139.882 238.54 138.574 238.549" stroke="#3856FF" stroke-width="0.586354" stroke-linecap="round" stroke-linejoin="round"/>
<path d="M173.101 223.376C172.566 223.984 172.274 224.767 172.28 225.577C172.304 226.118 172.44 226.648 172.678 227.135C172.916 227.622 173.252 228.054 173.665 228.405C174.499 229.095 175.496 229.561 176.56 229.758" stroke="#3856FF" stroke-width="0.586354" stroke-linecap="round" stroke-linejoin="round"/>
<path d="M177.485 221.576C179 221.603 180.281 221.761 181.165 223.137C181.941 224.341 182.185 226.06 181.481 227.354" stroke="#3856FF" stroke-width="0.586354" stroke-linecap="round" stroke-linejoin="round"/>
<path d="M58.5317 202.15C67.8533 200.246 77.2455 198.785 86.7083 197.766" stroke="#3856FF" stroke-width="0.586354" stroke-linecap="round" stroke-linejoin="round"/>
<path d="M169.794 198.974C173.874 201.795 177.581 205.12 180.827 208.87" stroke="#3856FF" stroke-width="0.586354" stroke-linecap="round" stroke-linejoin="round"/>
<path d="M183.714 212.438L186.943 216.497" stroke="#3856FF" stroke-width="0.586354" stroke-linecap="round" stroke-linejoin="round"/>
<path d="M523.763 140.163C523.944 140.163 524.174 140.208 524.214 140.38C524.233 140.468 524.222 140.56 524.183 140.641C523.664 142.094 522.378 143.144 521.066 143.929C519.753 144.714 515.775 145.81 516.596 142.739C517.21 140.483 521.927 140.132 523.763 140.163Z" fill="white" stroke="#F9F9F9" stroke-width="0.766771" stroke-linecap="round" stroke-linejoin="round"/>
<path d="M518.31 138.165C520.056 137.47 521.946 137.218 523.813 137.43C523.872 137.43 523.944 137.461 523.948 137.52C523.953 137.579 523.827 137.552 523.872 137.52" stroke="#F9F9F9" stroke-width="0.766771" stroke-linecap="round" stroke-linejoin="round"/>
<path d="M517.597 142.536C517.567 142.901 517.644 143.267 517.821 143.588C517.997 143.909 518.265 144.17 518.59 144.34C518.838 144.484 519.129 144.534 519.411 144.48C519.693 144.426 519.946 144.272 520.123 144.047C520.234 143.832 520.285 143.593 520.272 143.352C520.259 141.566 517.827 140.073 517.597 142.536Z" fill="black"/>
<path d="M493.507 152.436C493.248 152.73 493.059 153.08 492.953 153.458C492.848 153.836 492.829 154.233 492.898 154.619C492.923 155 493.063 155.365 493.3 155.665C493.472 155.847 493.681 155.991 493.913 156.085C494.469 156.319 495.082 156.382 495.674 156.266C496.266 156.15 496.81 155.861 497.237 155.435C498.067 154.565 498.591 153.455 498.009 152.4C497.734 152.049 497.38 151.768 496.976 151.579C495.848 151.105 494.292 151.647 493.507 152.436Z" fill="black"/>
<path d="M515.243 160.244C516.806 160.39 518.381 160.161 519.838 159.575C521.294 158.989 522.589 158.063 523.614 156.874" stroke="#CD5000" stroke-width="0.766771" stroke-linecap="round" stroke-linejoin="round"/>
<path d="M541.611 112.194C543.657 114.831 545.16 117.848 546.031 121.071" stroke="#F9F9F9" stroke-width="0.766771" stroke-linecap="round" stroke-linejoin="round"/>
<path d="M529.523 111.472C530.425 113.995 531.222 116.551 531.913 119.14" stroke="#F9F9F9" stroke-width="0.766771" stroke-linecap="round" stroke-linejoin="round"/>
<path d="M519.068 133.37C522.644 131.456 526.468 130.043 530.43 129.171L527.051 132.653L529.875 131.923C534.349 130.763 539.315 129.667 543.406 131.796" stroke="#F9F9F9" stroke-width="0.766771" stroke-linecap="round" stroke-linejoin="round"/>
<path d="M570.329 169.63C570.396 171.136 575.137 182.2 577.595 185.939" stroke="#F9F9F9" stroke-width="0.766771" stroke-linecap="round" stroke-linejoin="round"/>
<path d="M579.611 189.494L584.613 197.342" stroke="#F9F9F9" stroke-width="0.766771" stroke-linecap="round" stroke-linejoin="round"/>
<path d="M574.627 186.981C576.068 189.142 577.383 191.385 578.565 193.697" stroke="#F9F9F9" stroke-width="0.766771" stroke-linecap="round" stroke-linejoin="round"/>
<path d="M531.327 238.161L542.806 229.33C544.334 228.235 545.741 226.98 547.001 225.586C548.265 224.178 549.037 222.397 549.202 220.512" stroke="#F9F9F9" stroke-width="0.766771" stroke-linecap="round" stroke-linejoin="round"/>
<path d="M524.561 264.881C525.956 265.645 527.05 266.86 527.664 268.327" stroke="#F9F9F9" stroke-width="0.766771" stroke-linecap="round" stroke-linejoin="round"/>
<path d="M526.365 261.782C527.591 262.115 528.671 262.845 529.437 263.857" stroke="#F9F9F9" stroke-width="0.766771" stroke-linecap="round" stroke-linejoin="round"/>
<path d="M527.606 258.814C528.134 258.881 528.636 259.085 529.06 259.406C529.484 259.728 529.817 260.155 530.024 260.645" stroke="#F9F9F9" stroke-width="0.766771" stroke-linecap="round" stroke-linejoin="round"/>
<path d="M476.787 241.413C477.022 242.274 478.005 242.766 478.894 242.694C479.784 242.559 480.603 242.126 481.217 241.467C482.144 240.577 482.858 239.488 483.305 238.283" stroke="#F9F9F9" stroke-width="0.766771" stroke-linecap="round" stroke-linejoin="round"/>
<path d="M486.444 237.408C486.285 238.491 485.996 239.551 485.583 240.565" stroke="#F9F9F9" stroke-width="0.766771" stroke-linecap="round" stroke-linejoin="round"/>
<path d="M489.01 235.861C489.064 236.727 489.042 237.596 488.943 238.459" stroke="#F9F9F9" stroke-width="0.766771" stroke-linecap="round" stroke-linejoin="round"/>
<path d="M501.96 210.697C498.951 213.191 495.289 214.734 491.929 216.732C488.569 218.73 485.339 221.423 484.126 225.139" stroke="#F9F9F9" stroke-width="0.766771" stroke-linecap="round" stroke-linejoin="round"/>
<path d="M500.941 214.012C499.35 215.395 497.629 216.622 495.803 217.675" stroke="#F9F9F9" stroke-width="0.766771" stroke-linecap="round" stroke-linejoin="round"/>
<path d="M513.38 237.331C513.098 241.594 513.689 245.87 515.117 249.897" stroke="#F9F9F9" stroke-width="0.766771" stroke-linecap="round" stroke-linejoin="round"/>
<path d="M516.141 227.092C514.93 229.253 514.141 231.624 513.818 234.079" stroke="#F9F9F9" stroke-width="0.766771" stroke-linecap="round" stroke-linejoin="round"/>
<path d="M516.952 231.183C516.163 233.733 515.789 236.394 515.847 239.063" stroke="#F9F9F9" stroke-width="0.766771" stroke-linecap="round" stroke-linejoin="round"/>
<path d="M570.396 217.07C566.121 219.325 563.689 224.021 562.548 228.707C561.407 233.393 561.281 238.283 560.18 242.978C558.94 248.287 556.482 253.23 553.807 257.98" stroke="#F9F9F9" stroke-width="0.766771" stroke-linecap="round" stroke-linejoin="round"/>
<path d="M554.885 267.176L553.532 270.383C552.999 271.669 552.458 273.031 552.629 274.411" stroke="#F9F9F9" stroke-width="0.766771" stroke-linecap="round" stroke-linejoin="round"/>
<path d="M560.789 268.282C559.766 270.246 559.134 272.391 558.927 274.596" stroke="#F9F9F9" stroke-width="0.766771" stroke-linecap="round" stroke-linejoin="round"/>
<path d="M597.594 216.146C600.413 219.629 602.606 223.576 604.075 227.81" stroke="#F9F9F9" stroke-width="0.766771" stroke-linecap="round" stroke-linejoin="round"/>
<path d="M612.997 235.076C619.763 241.224 630.042 242.076 636.938 248.052" stroke="#F9F9F9" stroke-width="0.766771" stroke-linecap="round" stroke-linejoin="round"/>
<path d="M639.631 249.577C640.887 250.674 642.054 251.869 643.122 253.149" stroke="#F9F9F9" stroke-width="0.766771" stroke-linecap="round" stroke-linejoin="round"/>
<path d="M630.556 247.989C636.466 251.766 641.356 256.938 644.796 263.049" stroke="#F9F9F9" stroke-width="0.766771" stroke-linecap="round" stroke-linejoin="round"/>
<path d="M616.213 314.459C631.098 316.755 643.082 312.24 651.58 298.858" stroke="#F9F9F9" stroke-width="0.766771" stroke-linecap="round" stroke-linejoin="round"/>
<path d="M655.436 284.731C655.848 287.586 655.587 290.497 654.674 293.233" stroke="#F9F9F9" stroke-width="0.766771" stroke-linecap="round" stroke-linejoin="round"/>
<path d="M650.853 289.052C651.304 291.221 650.47 293.436 649.559 295.457C647.985 298.93 646.004 302.389 642.865 304.554" stroke="#F9F9F9" stroke-width="0.766771" stroke-linecap="round" stroke-linejoin="round"/>
<path d="M588.677 302.497C592.321 305.808 596.312 308.716 600.58 311.171" stroke="#F9F9F9" stroke-width="0.766771" stroke-linecap="round" stroke-linejoin="round"/>
<path d="M598.275 306.837C600.879 308.948 603.808 310.624 606.949 311.798" stroke="#F9F9F9" stroke-width="0.766771" stroke-linecap="round" stroke-linejoin="round"/>
<path d="M596.002 266.279C597.148 265.413 598.269 264.511 599.367 263.573C600.635 262.553 601.789 261.399 602.808 260.131C604.197 258.304 605.086 256.146 605.388 253.871" stroke="#F9F9F9" stroke-width="0.766771" stroke-linecap="round" stroke-linejoin="round"/>
<path d="M603.435 249.076C603.807 251.693 603.343 254.361 602.109 256.699" stroke="#F9F9F9" stroke-width="0.766771" stroke-linecap="round" stroke-linejoin="round"/>
<path d="M605.217 245.698C605.648 247.258 605.835 248.875 605.772 250.492" stroke="#F9F9F9" stroke-width="0.766771" stroke-linecap="round" stroke-linejoin="round"/>
<path d="M597.54 220.282C598.54 221.392 599.383 222.635 600.043 223.976" stroke="#F9F9F9" stroke-width="0.766771" stroke-linecap="round" stroke-linejoin="round"/>
<path d="M539.793 159.468C538.228 163.599 538.395 168.155 538.584 172.57" stroke="#F9F9F9" stroke-width="0.766771" stroke-linecap="round" stroke-linejoin="round"/>
<path d="M541.011 168.746C540.935 171.285 540.957 173.829 541.079 176.364" stroke="#F9F9F9" stroke-width="0.766771" stroke-linecap="round" stroke-linejoin="round"/>
<path d="M538.675 176.359V184.64" stroke="#F9F9F9" stroke-width="0.766771" stroke-linecap="round" stroke-linejoin="round"/>
<path d="M552.414 126.817C554.75 128.621 556.419 131.16 557.587 133.862C558.755 136.564 559.454 139.446 560.149 142.31" stroke="#F9F9F9" stroke-width="0.766771" stroke-linecap="round" stroke-linejoin="round"/>
<path d="M559.675 131.278C561.276 134.512 562.615 137.87 563.68 141.318" stroke="#F9F9F9" stroke-width="0.766771" stroke-linecap="round" stroke-linejoin="round"/>
<path d="M351.759 437.079C357.965 433.922 363.801 429.953 370.332 427.517C371.388 427.125 372.515 426.764 373.625 426.976C374.735 427.188 375.632 427.905 376.494 428.609C383.647 434.475 390.577 440.606 397.282 447.002C399.623 449.257 401.959 451.513 404.688 453.263C407.133 454.828 409.844 455.919 412.424 457.25C416.447 459.329 420.141 461.977 423.821 464.615C407.246 476.794 386.574 482.138 366.124 484.254C364.356 484.439 362.516 484.592 360.852 483.961C358.903 483.216 357.505 481.511 356.201 479.901L341.7 461.742C339.053 458.427 327.623 443.922 327.623 443.922C327.623 443.922 338.272 441.793 340.744 441.247C344.578 440.334 348.28 438.933 351.759 437.079Z" fill="#F6F3EE"/>
<path d="M404.584 385.846C408.117 386.053 411.648 386.279 415.175 386.522C417.908 386.712 420.7 386.924 423.23 387.979C425.761 389.034 428.056 390.775 430.56 391.993C434.348 393.792 437.956 395.947 441.335 398.43" stroke="#273CB3" stroke-width="0.586354" stroke-linecap="round" stroke-linejoin="round"/>
<path d="M395.041 405.1C396.899 405.849 398.774 406.56 400.665 407.234C404.815 408.709 409.072 409.994 413.461 410.391C416.844 410.702 420.249 410.49 423.641 410.278" stroke="#273CB3" stroke-width="0.586354" stroke-linecap="round" stroke-linejoin="round"/>
<path d="M443.41 434.734C445.634 433.71 447.176 431.536 447.921 429.204C448.665 426.872 448.719 424.378 448.629 421.933C448.507 418.69 448.115 415.339 446.459 412.552C444.876 412.926 445.223 415.709 446.797 416.11C448.372 416.512 449.955 415.168 450.455 413.616C450.956 412.065 450.685 410.387 450.559 408.763C450.325 405.782 450.573 402.783 451.294 399.882C451.775 399.973 452.231 400.166 452.631 400.447C453.031 400.728 453.367 401.092 453.615 401.513C453.864 401.935 454.02 402.404 454.072 402.891C454.124 403.377 454.072 403.869 453.919 404.334C452.255 402.43 452.449 399.566 452.968 397.117C453.486 394.668 454.226 392.034 453.365 389.661" stroke="#273CB3" stroke-width="0.766771" stroke-linecap="round" stroke-linejoin="round"/>
<path d="M460.207 431.942C459.151 431.212 458.288 430.238 457.69 429.102C457.093 427.966 456.779 426.703 456.774 425.42C456.774 424.234 457.135 422.939 458.128 422.29C458.55 422.017 459.049 421.888 459.55 421.921C460.051 421.955 460.529 422.149 460.911 422.475C461.293 422.801 461.56 423.242 461.672 423.732C461.784 424.222 461.735 424.735 461.533 425.194C459.972 424.365 459.246 422.488 459.165 420.716C459.084 418.943 459.512 417.202 459.661 415.443C459.81 413.684 459.611 411.767 458.479 410.409C458.218 410.265 458.028 410.693 458.028 410.991C457.958 411.738 458.087 412.489 458.403 413.17C458.777 413.815 459.661 414.23 460.297 413.842C460.611 413.609 460.844 413.284 460.965 412.913C462.115 410.098 461.47 406.918 461.082 403.892C460.694 400.865 460.726 397.451 462.823 395.245" stroke="#273CB3" stroke-width="0.766771" stroke-linecap="round" stroke-linejoin="round"/>
<path d="M469.986 435.789C468.768 434.557 467.957 432.982 467.659 431.275C467.362 429.569 467.593 427.812 468.321 426.241C469.065 424.712 470.274 423.417 470.834 421.807C471.168 420.805 471.237 419.733 471.033 418.697C470.829 417.66 470.359 416.694 469.67 415.894C469.397 415.994 469.148 416.15 468.939 416.353C468.73 416.555 468.565 416.799 468.456 417.069C468.347 417.338 468.296 417.628 468.305 417.918C468.315 418.209 468.385 418.495 468.512 418.756C468.638 419.018 468.818 419.251 469.04 419.439C469.262 419.627 469.521 419.767 469.8 419.849C470.079 419.931 470.372 419.954 470.66 419.916C470.949 419.878 471.226 419.78 471.474 419.629C472.579 418.943 472.796 417.441 472.773 416.137C472.75 414.68 472.567 413.23 472.227 411.812C471.776 410.008 471.113 408.244 471.045 406.399C470.978 404.555 471.709 402.507 473.373 401.691" stroke="#273CB3" stroke-width="0.766771" stroke-linecap="round" stroke-linejoin="round"/>
<path d="M480.188 434.639C478.632 429.718 477.482 424.116 479.981 419.597C480.532 418.744 481.028 417.857 481.465 416.94C481.798 416.075 481.916 415.142 481.809 414.221C481.701 413.3 481.371 412.419 480.847 411.654C479.823 411.51 479.651 413.088 479.945 414.085C480.427 415.745 481.487 417.793 483.188 417.5C484.279 417.31 484.956 416.147 484.992 415.023C485.028 413.9 484.644 412.845 484.36 411.771C483.688 409.246 483.783 406.251 485.619 404.383C485.931 404.529 486.207 404.742 486.428 405.007C486.648 405.272 486.807 405.583 486.893 405.916C486.979 406.25 486.991 406.598 486.926 406.937C486.862 407.276 486.723 407.596 486.521 407.874C485.581 404.166 485.444 400.3 486.119 396.535" stroke="#273CB3" stroke-width="0.766771" stroke-linecap="round" stroke-linejoin="round"/>
<path d="M400.448 462.838C397.85 462.432 395.329 460.737 392.781 461.431C389.948 462.202 388.721 465.518 388.347 468.427C388.257 469.139 388.424 470.132 389.141 470.15C389.621 469.78 389.961 469.258 390.105 468.67C390.25 468.082 390.191 467.462 389.937 466.912C389.684 466.361 389.251 465.914 388.709 465.642C388.168 465.369 387.551 465.289 386.958 465.414C385.952 465.621 385.154 466.379 384.432 467.101L379.281 472.207C379.036 472.49 378.727 472.711 378.379 472.852C377.477 473.145 376.575 472.292 376.439 471.377C376.304 470.461 376.683 469.572 377.062 468.715C377.72 469.442 377.152 470.659 376.327 471.187C375.501 471.715 374.477 471.882 373.675 472.446C372.281 473.429 371.925 475.31 371.681 477.001C371.573 477.759 371.965 478.923 372.651 478.58C372.768 478.506 372.868 478.409 372.946 478.295C373.023 478.181 373.076 478.052 373.102 477.917C373.733 475.72 372.795 472.802 370.544 472.4C368.591 472.058 366.909 473.708 365.614 475.21L362.85 478.408" stroke="#273CB3" stroke-width="0.766771" stroke-linecap="round" stroke-linejoin="round"/>
<path d="M392.145 450.322C391.811 452.699 391.279 455.392 389.217 456.636C388.478 457.088 387.499 457.259 386.773 456.803C386.046 456.348 385.771 455.5 385.077 455.085C383.895 454.386 382.429 455.378 381.563 456.438C380.443 457.82 379.612 459.412 379.118 461.12C379.23 461.229 379.364 461.312 379.511 461.362C379.658 461.413 379.815 461.43 379.97 461.412C380.125 461.394 380.273 461.342 380.405 461.26C380.537 461.177 380.649 461.066 380.733 460.935C380.887 460.653 380.955 460.332 380.929 460.011C380.904 459.691 380.785 459.385 380.589 459.131C380.195 458.632 379.692 458.229 379.118 457.954C378.914 457.802 378.679 457.696 378.431 457.641C378.182 457.587 377.924 457.586 377.675 457.638C377.035 457.868 376.859 458.662 376.669 459.32C376.48 459.979 375.952 460.723 375.316 460.529" stroke="#273CB3" stroke-width="0.766771" stroke-linecap="round" stroke-linejoin="round"/>
<path d="M371.207 435.194L371.776 434.707C370.408 435.434 369.237 436.484 368.366 437.765C367.541 438.992 366.99 440.422 365.962 441.482C364.933 442.541 363.143 443.119 361.979 442.208C361.561 440.737 361.613 439.173 362.128 437.733C362.677 438.826 362.867 440.064 362.671 441.27C362.475 442.477 361.903 443.591 361.036 444.454C359.277 446.136 356.679 444.846 354.271 445.23C352.282 445.545 351.957 448.563 351.425 450.507C352.21 450.854 352.638 449.42 352.065 448.784C351.231 447.85 349.684 447.931 348.61 448.576C347.537 449.221 346.806 450.286 346.017 451.26C345.227 452.234 344.276 453.186 343.053 453.443" stroke="#273CB3" stroke-width="0.766771" stroke-linecap="round" stroke-linejoin="round"/>
<path d="M380.679 441.306C380.084 444.161 379.281 447.332 376.796 448.856C375.556 449.57 374.126 449.885 372.7 449.758C371.645 449.69 370.508 449.388 369.886 448.536C369.263 447.683 369.53 446.186 370.558 445.938C370.748 446.503 370.789 447.109 370.675 447.695C370.561 448.281 370.297 448.827 369.908 449.28C369.119 450.18 368.085 450.831 366.932 451.152C366.115 451.418 365.19 451.63 364.699 452.334C364.521 452.593 364.411 452.892 364.379 453.204C364.325 453.775 364.477 454.346 364.808 454.815C365.139 455.283 365.627 455.617 366.183 455.757C366.466 455.417 366.605 454.98 366.569 454.539C366.534 454.098 366.327 453.688 365.993 453.398C365.641 453.127 365.219 452.962 364.777 452.922C364.335 452.881 363.89 452.966 363.495 453.168C362.708 453.588 362.086 454.262 361.731 455.08C361.325 455.933 361.113 456.885 360.522 457.624C359.751 458.585 358.493 458.977 357.311 459.338" stroke="#273CB3" stroke-width="0.766771" stroke-linecap="round" stroke-linejoin="round"/>
<path d="M331.881 444.788C333.406 444.973 334.93 444.558 336.392 444.129C340.74 442.86 345.043 441.448 349.301 439.894" stroke="#273CB3" stroke-width="0.766771" stroke-linecap="round" stroke-linejoin="round"/>
<path d="M352.006 438.793C353.501 438.168 354.886 437.31 356.111 436.249" stroke="#273CB3" stroke-width="0.766771" stroke-linecap="round" stroke-linejoin="round"/>
<path d="M402.78 454.097C405.013 455.175 406.686 457.151 408.828 458.4C409.808 458.931 410.819 459.402 411.855 459.812C414.727 461.136 417.519 462.627 420.217 464.277C414.616 467.732 408.668 470.588 402.469 472.797" stroke="#273CB3" stroke-width="0.766771" stroke-linecap="round" stroke-linejoin="round"/>
<path d="M399.262 473.844L392.785 476.618" stroke="#273CB3" stroke-width="0.766771" stroke-linecap="round" stroke-linejoin="round"/>
<path d="M393.516 410.22C391.412 412.605 389.882 415.441 389.046 418.51C388.767 419.552 388.618 420.815 389.376 421.586C389.813 421.959 390.34 422.212 390.905 422.321C394.623 423.338 398.439 423.953 402.289 424.157" stroke="#273CB3" stroke-width="0.766771" stroke-linecap="round" stroke-linejoin="round"/>
<path d="M405.821 424.387C409.307 423.873 412.789 425.109 416.294 425.51" stroke="#273CB3" stroke-width="0.766771" stroke-linecap="round" stroke-linejoin="round"/>
<path d="M474.311 391.826C481.149 391.705 487.644 395.16 494.481 395.187" stroke="#273CB3" stroke-width="0.766771" stroke-linecap="round" stroke-linejoin="round"/>
<path d="M490.919 425.014C489.613 430.242 487.993 435.388 486.07 440.422" stroke="#273CB3" stroke-width="0.766771" stroke-linecap="round" stroke-linejoin="round"/>
<path d="M491.487 421.834C491.532 420.308 491.838 418.801 492.389 417.378" stroke="#273CB3" stroke-width="0.766771" stroke-linecap="round" stroke-linejoin="round"/>
<path d="M345.705 403.215C350.951 406.697 335.205 419.056 333.009 420.869C326.658 426.115 319.865 431.401 311.99 434.071C306.036 436.092 299.253 436.367 293.637 433.548C280.462 426.931 284.016 406.593 296.434 401.167C299.546 399.814 302.924 399.814 306.248 400.148C309.694 400.513 313.104 400.771 316.568 400.951L338.602 402.097C340.171 402.159 341.735 402.309 343.288 402.548C343.897 402.615 344.668 402.972 345.236 402.972C345.399 403.039 345.556 403.121 345.705 403.215Z" fill="#CD5000"/>
<path d="M211.99 362.888C210.637 365.395 210.673 368.39 210.741 371.236L211.895 419.854C212.003 424.364 212.418 429.488 216.004 432.213C218.237 433.904 221.191 434.22 223.983 434.468C248.795 436.545 273.712 437.076 298.59 436.06C302.297 435.911 306.258 435.641 309.212 433.394C314.137 429.642 314.097 422.353 313.537 416.187C311.855 397.636 311.86 379.125 309.234 360.682C308.95 358.675 308.522 356.438 306.853 355.269C305.545 354.367 301.68 354.403 300.087 354.467C284.68 355.098 269.331 356.041 253.946 356.952C243.82 357.57 217.957 351.905 211.99 362.888Z" fill="#FFA539" stroke="#FFA539" stroke-width="0.451042" stroke-miterlimit="10"/>
<path d="M246.147 359.324L227.979 359.211C225.579 359.211 223.135 359.189 220.862 359.942C216.099 361.53 212.819 366.708 213.433 371.701" stroke="#FFFAF3" stroke-width="0.586354" stroke-linecap="round" stroke-linejoin="round"/>
<path d="M213.794 377.573C213.794 379.946 213.87 382.323 214.037 384.686" stroke="#FFFAF3" stroke-width="0.586354" stroke-linecap="round" stroke-linejoin="round"/>
<path d="M305.766 363.054C306.968 376.363 307.946 389.696 308.697 403.053" stroke="#FFFAF3" stroke-width="0.586354" stroke-linecap="round" stroke-linejoin="round"/>
<path d="M308.747 406.413L309.017 415.628" stroke="#FFFAF3" stroke-width="0.586354" stroke-linecap="round" stroke-linejoin="round"/>
<path d="M315.531 422.569C321.191 417.654 326.39 412.233 331.065 406.372" stroke="#FFA539" stroke-width="0.586354" stroke-linecap="round" stroke-linejoin="round"/>
<path d="M314.511 412.913C316.473 410.752 320.239 406.914 322.021 404.6" stroke="#FFA539" stroke-width="0.586354" stroke-linecap="round" stroke-linejoin="round"/>
<path d="M309.933 406.76C317.078 406.9 325.846 408.113 334.975 409.782" stroke="#FFA539" stroke-width="0.586354" stroke-linecap="round" stroke-linejoin="round"/>
<path d="M318.138 411.943C322.021 412.394 328.548 414.108 331.272 415.1" stroke="#FFA539" stroke-width="0.586354" stroke-linecap="round" stroke-linejoin="round"/>
<path d="M316.974 417.423C318.061 417.509 322.558 418.609 323.74 418.898" stroke="#FFA539" stroke-width="0.586354" stroke-linecap="round" stroke-linejoin="round"/>
<path d="M252.268 388.218C251.429 388.358 250.509 388.385 249.909 388.985C249.174 389.729 249.12 390.902 249.237 391.939C249.616 395.241 251.235 398.303 253.323 400.892C255.412 403.481 257.964 405.646 260.504 407.798C260.572 407.896 260.663 407.976 260.77 408.03C260.877 408.084 260.995 408.11 261.115 408.106C261.234 408.102 261.351 408.068 261.454 408.007C261.557 407.946 261.643 407.86 261.704 407.757C264.275 405.096 266.606 402.155 268.19 398.808C269.773 395.462 270.58 391.687 270.03 388.029C269.968 387.41 269.779 386.811 269.475 386.27C268.677 385.007 266.873 384.668 265.474 385.196C264.076 385.724 263.043 386.937 262.276 388.218C261.762 389.084 259.94 392.598 259.94 392.598C259.283 391.749 258.525 390.983 257.685 390.315C255.637 388.791 253.386 388.038 252.268 388.218Z" fill="#F6F3EE"/>
<path d="M504.716 393.04C548.869 392.652 589.138 393.04 633.263 394.226C634.86 389.869 635.829 381.475 634.418 375.228C634.115 373.875 633.719 372.423 632.613 371.588C631.508 370.754 630.137 370.763 628.816 370.763C607.549 370.799 507.301 367.461 504.184 369.522C499.944 372.359 502.199 393.062 504.716 393.04Z" fill="#3856FF"/>
<path d="M498.374 369.256C498.374 369.31 601.888 371.696 622.307 371.119C623.543 371.083 624.851 371.015 625.915 370.348C627.647 369.229 628.03 366.906 628.247 364.859C628.545 362.089 628.838 359.266 628.274 356.541C627.71 353.817 626.132 350.718 623.601 349.559C622.063 348.851 620.327 348.752 618.64 348.657C612.325 348.328 515.735 348.847 498.464 348.847C499.303 352.306 500.598 361.805 498.374 369.256Z" fill="#273CB3"/>
<path d="M505.045 330.458C506.213 334.603 506.642 343.669 504.562 348.779L505.857 348.851H627.187C630.123 343.669 629.257 333.308 625.324 330.674C624.364 330.029 505.045 330.458 505.045 330.458Z" fill="#B7C3F9"/>
<path d="M623.389 331.364C627.967 334.603 626.997 343.542 626.154 346.903" stroke="#FFFAF3" stroke-width="0.586354" stroke-linecap="round" stroke-linejoin="round"/>
<path d="M507.769 331.251C508.196 333.086 508.497 334.947 508.671 336.822C508.761 337.661 508.789 338.505 508.757 339.348" stroke="#FFFAF3" stroke-width="0.586354" stroke-linecap="round" stroke-linejoin="round"/>
<path d="M508.689 341.819C508.72 342.75 508.64 343.681 508.45 344.593" stroke="#FFFAF3" stroke-width="0.586354" stroke-linecap="round" stroke-linejoin="round"/>
<path d="M518.635 381.231C519.41 381.068 520.098 380.627 520.571 379.992C521.044 379.356 521.268 378.57 521.201 377.781C518.92 377.927 516.773 378.91 515.171 380.541C514.325 381.34 513.758 382.39 513.556 383.536C513.47 384.109 513.552 384.695 513.792 385.223C514.032 385.751 514.42 386.197 514.909 386.509C516.659 387.474 518.698 385.999 520.218 384.704C522.401 382.837 524.73 381.148 527.182 379.653C528.274 378.99 530.79 377.398 530.79 378.656C530.79 379.802 525.919 383.649 526.812 384.519C527.823 385.53 535.134 378.656 536.807 381.764C537.385 382.824 536.004 384.47 536.298 385.525C537.055 388.281 541.259 385.038 543.848 383.852C545.129 383.266 546.437 382.747 547.7 382.124C548.413 381.777 551.164 380.988 551.06 379.955C550.929 378.602 542.716 381.682 546.297 384.948C548.552 386.996 560.618 381.258 563.586 381.218C564.091 381.218 564.677 381.276 564.939 381.696C565.2 382.115 565.065 382.693 564.871 383.171C564.42 384.326 563.658 385.327 563.139 386.432C565.99 386.306 568.921 384.177 571.47 383.09C573.842 382.057 579.318 379.292 580.18 382.039C580.482 382.995 576.706 385.724 577.433 386.445C578.064 387.077 580.333 385.264 580.82 384.952C582.48 383.888 584.329 382.458 586.354 382.246C586.725 382.196 587.101 382.221 587.462 382.321C587.822 382.42 588.159 382.591 588.452 382.824C588.735 383.067 588.933 383.396 589.014 383.761C589.095 384.126 589.056 384.508 588.903 384.849C588.704 385.155 588.478 385.442 588.226 385.706C588.168 385.772 588.13 385.853 588.118 385.94C588.118 386.215 588.51 386.265 588.781 386.206C590.019 385.98 591.229 385.618 592.389 385.128" stroke="#FFFAF3" stroke-width="0.586354" stroke-linecap="round" stroke-linejoin="round"/>
<path d="M539.608 371.859L590.883 372.851" stroke="#FFFAF3" stroke-width="0.586354" stroke-linecap="round" stroke-linejoin="round"/>
<path d="M595.186 373.086C598.505 373.171 600.846 373.311 602.434 373.41" stroke="#FFFAF3" stroke-width="0.586354" stroke-linecap="round" stroke-linejoin="round"/>
<path d="M618.604 372.495C621.641 372.287 624.679 372.168 627.719 372.138C628.567 372.073 629.418 372.195 630.213 372.495C631.86 373.252 632.441 375.282 632.626 377.086C632.834 379.125 632.78 385.507 632.469 387.532" stroke="#FFFAF3" stroke-width="0.586354" stroke-linecap="round" stroke-linejoin="round"/>
<path d="M613.588 381.006C613.137 381.791 611.225 386.811 612.939 387.014C613.467 387.023 613.981 386.843 614.387 386.504C615.389 385.818 616.269 384.969 616.989 383.992C617.576 383.202 618.067 382.228 617.846 381.285C617.77 381.016 617.64 380.764 617.465 380.546C617.29 380.327 617.073 380.145 616.827 380.012C616.58 379.878 616.31 379.795 616.031 379.768C615.752 379.74 615.471 379.768 615.203 379.851" stroke="#FFFAF3" stroke-width="0.586354" stroke-linecap="round" stroke-linejoin="round"/>
<path d="M620.092 383.59L624.603 380.14C623.469 382.434 622.226 384.668 620.873 386.842" stroke="#FFFAF3" stroke-width="0.586354" stroke-linecap="round" stroke-linejoin="round"/>
<path d="M605.844 383.59L610.354 380.14C609.224 382.434 607.98 384.668 606.624 386.842" stroke="#FFFAF3" stroke-width="0.586354" stroke-linecap="round" stroke-linejoin="round"/>
<path d="M511.509 323.264C517.028 321.356 521.882 317.9 525.491 313.309C523.466 312.971 521.531 314.437 520.466 316.191C519.402 317.946 518.933 319.989 518.085 321.861C517.237 323.733 515.83 325.546 513.8 325.952C515.446 324.544 517.502 323.702 519.663 323.552C521.016 323.462 522.37 323.647 523.723 323.462C525.076 323.277 526.461 322.61 526.993 321.36C525.09 322.055 523.407 323.245 522.117 324.806C521.937 325.027 521.756 325.32 521.883 325.573C521.941 325.66 522.018 325.733 522.107 325.787C522.197 325.842 522.297 325.876 522.401 325.889C524.284 326.344 526.27 326.073 527.963 325.131C529.546 324.229 530.75 322.812 532.198 321.712C533.732 320.567 535.51 319.792 537.393 319.447C539.276 319.102 541.214 319.197 543.054 319.723C543.844 319.953 544.719 320.381 544.895 321.189C545.034 321.816 544.696 322.438 544.335 322.993C543.703 323.918 542.961 324.763 542.125 325.51C542.017 324.012 543.28 322.776 544.556 321.987C546.241 320.954 548.123 320.286 550.082 320.025C550.672 319.948 551.403 319.975 551.683 320.499C551.807 320.815 551.826 321.163 551.737 321.491L551.286 324.197C554.097 323.549 556.66 322.1 558.665 320.025C558.603 320.099 558.557 320.186 558.529 320.279C558.501 320.372 558.493 320.469 558.504 320.565C558.516 320.662 558.547 320.755 558.595 320.839C558.644 320.922 558.709 320.996 558.787 321.053C559.113 321.278 559.506 321.386 559.901 321.36C562.607 321.414 565.164 320.178 567.794 319.497C570.229 318.87 572.762 318.717 575.254 319.046C578.971 319.533 582.57 321.089 586.309 320.85" stroke="#FFFAF3" stroke-width="0.586354" stroke-linecap="round" stroke-linejoin="round"/>
<path d="M596.485 314.432C597.87 317.715 598.045 321.384 596.977 324.784" stroke="#FFFAF3" stroke-width="0.586354" stroke-linecap="round" stroke-linejoin="round"/>
<path d="M600.409 316.141C601.286 318.943 601.485 321.912 600.991 324.806" stroke="#FFFAF3" stroke-width="0.586354" stroke-linecap="round" stroke-linejoin="round"/>
<path d="M517.147 341.549C517.099 341.086 517.181 340.619 517.382 340.2C517.584 339.78 517.897 339.424 518.288 339.172C519.077 338.679 519.953 338.34 520.868 338.17C522.776 337.692 525.337 337.498 526.172 339.28C526.65 340.295 526.244 341.535 525.486 342.379C524.675 343.158 523.719 343.771 522.672 344.183C524.413 340.62 528.801 339.339 532.735 338.806C536.668 338.274 540.975 337.972 543.898 335.288C539.464 334.517 534.724 337.805 533.894 342.225C533.763 342.677 533.81 343.161 534.025 343.578C534.276 343.903 534.639 344.122 535.044 344.192C537.827 344.873 540.375 342.663 542.712 340.98C545.134 339.221 547.971 337.864 550.961 337.823C552.765 337.823 554.93 338.698 555.021 340.493C555.111 342.288 553.113 343.371 551.412 343.926C553.951 341.694 556.867 339.932 560.023 338.721C562.305 337.85 565.313 337.458 566.815 339.379C567.226 339.902 567.46 340.538 567.862 341.066C568.953 342.51 571.064 342.839 572.823 342.334C574.582 341.828 576.007 340.656 577.406 339.51C577.776 339.208 578.186 338.73 577.951 338.31C577.846 338.186 577.714 338.087 577.564 338.022C577.415 337.958 577.253 337.928 577.09 337.936C575.827 337.814 574.519 337.692 573.315 338.098C572.11 338.504 571.06 339.569 571.06 340.841C571.06 342.523 572.864 343.61 574.496 344.03C580.076 345.459 585.89 343.064 590.919 340.25C595.758 337.495 601.1 335.738 606.629 335.081" stroke="#FFFAF3" stroke-width="0.586354" stroke-linecap="round" stroke-linejoin="round"/>
<path d="M506.069 353.325C506.84 357.204 506.889 361.192 506.213 365.089" stroke="#FFFAF3" stroke-width="0.586354" stroke-linecap="round" stroke-linejoin="round"/>
<path d="M510.656 353.059C511.638 357.053 511.698 361.217 510.832 365.237" stroke="#FFFAF3" stroke-width="0.586354" stroke-linecap="round" stroke-linejoin="round"/>
<path d="M529.672 361.277C530.105 359.741 530.969 358.36 532.161 357.299C533.354 356.237 534.825 355.539 536.402 355.287C538.161 355.035 540.249 355.567 540.993 357.177C541.738 358.788 540.885 360.551 539.834 361.9C538.826 363.197 537.606 364.315 536.226 365.206C537.963 362.758 540.414 360.907 543.244 359.906C544.999 359.232 546.914 359.086 548.751 359.487C549.852 359.771 550.871 360.312 551.94 360.7C553.835 361.363 555.867 361.542 557.849 361.22C559.831 360.898 561.701 360.085 563.288 358.855C563.586 358.621 563.902 358.3 563.857 357.926C563.811 357.552 563.306 357.263 562.878 357.159C561.169 356.807 559.39 357.056 557.845 357.866C556.299 358.676 555.081 359.996 554.398 361.602C554.182 362.161 554.055 362.869 554.457 363.316C554.706 363.553 555.02 363.71 555.359 363.767C559.337 364.737 563.509 363.487 567.289 361.909C571.069 360.33 574.776 358.382 578.836 357.849C582.895 357.317 590.739 358.242 589.584 362.17C588.898 364.511 585.407 366.257 583.085 365.517C581.97 365.165 583.572 363.348 584.514 362.662C586.454 361.255 588.574 359.956 590.906 359.505C593.237 359.054 595.926 359.599 597.5 361.404C598.145 362.139 598.578 363.041 599.263 363.74C600.851 365.355 603.404 365.517 605.641 365.161C609.479 364.547 613.016 362.757 616.466 360.989" stroke="#FFFAF3" stroke-width="0.586354" stroke-linecap="round" stroke-linejoin="round"/>
<path d="M504.075 298.763C506.756 297.189 509.915 296.638 512.97 297.211C513.437 297.257 513.876 297.459 514.215 297.784C514.842 298.515 514.327 299.633 513.8 300.441L511.77 303.562C511.075 304.626 510.191 305.817 508.919 305.871C509.082 303.616 511.035 301.893 512.979 300.757C515.873 299.094 519.097 298.09 522.424 297.816C523.235 297.753 524.228 297.847 524.566 298.592C524.639 298.824 524.659 299.069 524.627 299.31C524.594 299.55 524.509 299.781 524.377 299.985C524 300.653 523.435 301.196 522.753 301.546C522.071 301.895 521.3 302.036 520.538 301.952C521.87 301.921 523.19 302.2 524.395 302.768C524.654 302.862 524.892 303.008 525.093 303.197C525.294 303.386 525.454 303.615 525.563 303.869C525.87 304.911 524.661 305.718 523.65 306.124L537.678 301.163C538.706 300.802 539.838 300.342 540.28 299.358C539.796 299.237 539.293 299.214 538.8 299.291C538.307 299.369 537.835 299.545 537.412 299.809C536.995 300.083 536.668 300.474 536.474 300.933C536.279 301.393 536.226 301.9 536.32 302.389C536.771 304.085 538.959 304.541 540.7 304.383C543.597 304.115 546.374 303.095 548.755 301.424C549.31 302.371 547.912 303.296 547.659 304.369C547.326 305.759 548.976 306.76 550.366 307.076C553.799 307.873 557.395 307.593 560.663 306.273C563.166 305.258 565.57 303.427 566.256 300.815C566.388 300.409 566.398 299.973 566.283 299.561C566.053 298.925 565.381 298.569 564.763 298.321C562.789 297.544 560.661 297.235 558.548 297.419C557.839 297.477 556.906 298.005 557.239 298.628C557.366 298.821 557.553 298.967 557.772 299.043C560.478 300.292 563.635 300.125 566.558 299.597C569.481 299.07 572.385 298.199 575.367 298.104" stroke="#FFFAF3" stroke-width="0.586354" stroke-linecap="round" stroke-linejoin="round"/>
<path d="M541.025 294.207C540.555 294.119 540.07 294.159 539.622 294.325C539.404 294.416 539.23 294.59 539.139 294.809C539.048 295.028 539.046 295.273 539.135 295.493C539.23 295.644 539.362 295.768 539.518 295.854C540.041 296.168 540.644 296.325 541.254 296.304C541.864 296.283 542.455 296.086 542.955 295.736C543.253 295.524 543.501 295.046 543.199 294.834" stroke="#FFFAF3" stroke-width="0.586354" stroke-linecap="round" stroke-linejoin="round"/>
<path d="M494.842 288.917C495.636 285.606 496.498 279.129 494.531 274.664C501.396 274.763 508.599 274.632 515.46 274.731" stroke="#FFFAF3" stroke-width="0.586354" stroke-linecap="round" stroke-linejoin="round"/>
<path d="M506.349 278.678C506.973 282.14 506.973 285.685 506.349 289.147" stroke="#FFFAF3" stroke-width="0.586354" stroke-linecap="round" stroke-linejoin="round"/>
<path d="M509.587 278.894C510.05 282.23 509.989 285.618 509.406 288.935" stroke="#FFFAF3" stroke-width="0.586354" stroke-linecap="round" stroke-linejoin="round"/>
<path d="M582.218 275.945C589.522 275.376 596.843 275.091 604.18 275.088C605.984 275.088 607.892 275.119 609.551 275.886C611.211 276.653 612.573 278.358 612.352 280.171" stroke="#FFFAF3" stroke-width="0.586354" stroke-linecap="round" stroke-linejoin="round"/>
<path d="M432.278 384.903C431.522 384.947 430.763 384.885 430.023 384.718C429.297 384.558 428.586 384.334 427.899 384.05C427.872 383.487 427.872 380.866 429.581 380.744C431.841 380.586 432.143 384.086 432.278 384.903Z" fill="#CD5000" stroke="#273CB3" stroke-width="0.586354" stroke-linecap="round" stroke-linejoin="round"/>
<path d="M432.278 384.903C432.396 385.561 432.504 386.215 432.612 386.874C431.078 386.93 429.549 386.665 428.124 386.094C428.12 386.05 428.12 386.006 428.124 385.963C428.048 385.331 427.962 384.686 427.935 384.05C428.622 384.334 429.333 384.558 430.059 384.718C430.787 384.881 431.534 384.943 432.278 384.903Z" fill="#FFB152" stroke="#273CB3" stroke-width="0.586354" stroke-linecap="round" stroke-linejoin="round"/>
<path d="M434.552 398.403C433.905 394.566 433.259 390.721 432.612 386.869C431.078 386.932 429.548 386.668 428.124 386.094C428.214 386.802 428.296 387.519 428.386 388.232C428.611 390.036 429.171 394.212 429.432 396.129" fill="#3856FF"/>
<path d="M434.552 398.403C433.905 394.566 433.259 390.721 432.612 386.869C431.078 386.932 429.548 386.668 428.124 386.094C428.214 386.802 428.296 387.519 428.386 388.232C428.611 390.036 429.171 394.212 429.432 396.129" stroke="#273CB3" stroke-width="0.586354" stroke-linecap="round" stroke-linejoin="round"/>
<path d="M428.386 388.232C429.241 388.593 430.164 388.764 431.092 388.732L428.386 388.232Z" fill="#3856FF"/>
<path d="M428.386 388.232C429.241 388.593 430.164 388.764 431.092 388.732" stroke="#273CB3" stroke-width="0.586354" stroke-linecap="round" stroke-linejoin="round"/>
<path d="M429.942 393.969C429.658 392.176 429.469 390.369 429.378 388.556L429.942 393.969Z" fill="#3856FF"/>
<path d="M429.942 393.969C429.658 392.176 429.469 390.369 429.378 388.556" stroke="#273CB3" stroke-width="0.586354" stroke-linecap="round" stroke-linejoin="round"/>
<path d="M439.937 448.373C449.86 452.257 459.332 455.36 468.587 458.788C469.76 459.239 473.481 460.854 472.737 463.501C471.889 466.505 464.343 463.763 460.559 462.496C451.114 459.338 441.7 456.312 432.594 452.257C430.663 451.4 422.112 448.369 423.537 445.157C424.881 442.181 435.706 446.709 439.937 448.373Z" fill="#FFA539" stroke="#CD5000" stroke-width="0.586354" stroke-linecap="round" stroke-linejoin="round"/>
<path d="M468.817 459.131C467.889 459.879 467.278 460.95 467.108 462.13" stroke="#CD5000" stroke-width="0.586354" stroke-linecap="round" stroke-linejoin="round"/>
<path d="M471.722 463.871C473.671 464.322 473.671 464.322 475.705 464.733C474.027 463.447 472.548 462.478 472.232 462.649C472.029 462.757 471.443 463.673 471.722 463.871Z" fill="#CD5000" stroke="#CD5000" stroke-width="0.586354" stroke-linecap="round" stroke-linejoin="round"/>
<path d="M333.663 379.021C342.038 384.479 350.924 390.112 360.905 390.685" stroke="#FFFAF3" stroke-width="0.586354" stroke-linecap="round" stroke-linejoin="round"/>
<path d="M330.176 93.1652C330.135 93.1652 329.021 95.3798 328.931 95.5332C327.163 98.6273 325.16 101.893 322.364 104.166C318.756 107.102 314.859 110.323 310.317 111.676C310.499 110.672 310.761 109.684 311.101 108.722C311.658 106.983 312.44 105.326 313.429 103.792C315.516 100.512 318.411 97.8236 321.836 95.9842C324.146 94.7348 327.506 93.1291 330.176 93.1652Z" stroke="#FFFAF3" stroke-width="0.586354" stroke-linecap="round" stroke-linejoin="round"/>
<path d="M564.704 144.056C565.204 145.922 565.582 147.819 565.836 149.734" stroke="#F9F9F9" stroke-width="0.766771" stroke-linecap="round" stroke-linejoin="round"/>
</svg>
