<svg width="318" height="271" viewBox="0 0 318 271" fill="none" xmlns="http://www.w3.org/2000/svg">
<path d="M47.3836 50.6704C43.6431 54.7184 40.4149 59.2019 37.6992 63.9929C36.6744 65.812 35.7008 67.7335 35.5983 69.8343C35.3934 73.5493 38.0066 76.9568 41.2604 78.7246C44.5142 80.4924 48.3572 80.8511 52.0465 80.9535C56.9144 81.0816 61.8591 80.7486 66.3939 79.032C70.9287 77.3155 75.0535 74.0105 76.8982 69.5269C78.0511 66.7343 78.2817 63.6855 78.2817 60.6623C78.3073 53.5398 73.5163 48.6976 66.5989 47.7753C61.731 47.1092 50.6118 47.1604 47.3836 50.6704Z" fill="#B7C3F9"/>
<path d="M130.111 53.2324C147.917 43.2149 167.978 32.8387 187.86 37.6041C206.511 42.062 220.244 58.9458 238.818 63.6855C248.631 66.1963 259.212 65.1202 268.743 68.5534C283.756 73.9592 292.851 89.3058 297.694 104.524C302.536 119.743 304.432 135.935 311.272 150.359C313.066 154.151 315.218 157.891 315.935 162.042C317.319 170.215 312.707 178.285 306.891 184.203C301.076 190.122 293.953 194.605 288.265 200.626C279.785 209.593 274.738 221.686 265.105 229.397C255.933 236.75 243.097 239.21 231.798 235.931C220.884 232.779 212.019 224.888 201.797 219.918C184.401 211.386 163.93 211.745 144.946 215.46C125.961 219.175 107.745 226.092 88.8371 230.269C72.6708 233.83 56.1457 235.367 39.595 234.855C30.346 234.573 20.5591 233.42 13.2573 227.732C3.29103 219.944 0.805866 206.006 0.26784 193.35C-0.347047 179.412 0.882727 164.373 9.61924 153.459C14.0515 147.925 20.1236 143.851 24.5046 138.266C32.2676 128.325 33.4717 115.208 40.133 104.704C46.9736 93.8662 53.0456 93.815 64.2673 92.5596C76.1807 91.2273 85.9677 80.4412 95.4984 73.9849C106.618 66.4269 118.377 59.8168 130.111 53.2324Z" fill="#8095ED"/>
<path d="M89.6828 39.3463C88.991 39.6538 88.248 39.8843 87.505 40.0381C86.6339 40.2174 85.7372 40.3711 84.8405 40.448C84.6356 40.0381 84.5331 39.6025 84.5331 39.1413C85.0711 38.1165 85.6348 37.1173 86.2496 36.1438C86.5827 35.5545 86.9926 34.9909 87.4282 34.4785C87.4794 35.0421 87.6075 35.5801 87.7612 36.1182C87.8637 36.4512 87.9918 36.8099 88.1455 37.1173C88.5298 37.9372 89.0422 38.6802 89.6828 39.3463Z" fill="#FFB152" stroke="#273CB3" stroke-width="0.316814" stroke-linecap="round" stroke-linejoin="round"/>
<path d="M84.8405 40.4479C84.5074 40.4735 84.1487 40.4991 83.8157 40.5247C84.0463 40.0636 84.3024 39.6024 84.5587 39.1669C84.5587 39.6024 84.6355 40.038 84.8405 40.4479Z" fill="#3856FF" stroke="#273CB3" stroke-width="0.316814" stroke-linecap="round" stroke-linejoin="round"/>
<path d="M104.747 27.7658C104.747 28.1245 104.671 28.4576 104.517 28.7906C104.312 29.0981 104.03 29.3543 103.723 29.5593C99.7771 32.3519 95.8316 35.1701 91.8861 37.9627C91.2199 38.4751 90.5026 38.9107 89.7852 39.295C89.7596 39.3206 89.7339 39.3206 89.6827 39.3462C89.0678 38.7057 88.5554 37.9371 88.1711 37.1172C88.0174 36.7842 87.8893 36.4511 87.7868 36.118C87.6075 35.58 87.505 35.042 87.4537 34.4783C87.4794 34.4527 87.505 34.4271 87.5306 34.4015C88.043 33.9147 88.581 33.4792 89.1959 33.1205C91.0406 31.8907 91.6555 31.4552 93.5001 30.1998C95.0373 29.1493 97.958 26.8179 100.315 25.1526C101.468 24.3583 101.058 24.0253 102.647 24.0765C104.645 24.1278 104.876 26.1518 104.747 27.7658Z" fill="#3856FF" stroke="#273CB3" stroke-width="0.316814" stroke-linecap="round" stroke-linejoin="round"/>
<path d="M98.1374 23.6154C98.2655 22.7443 98.4704 21.8989 98.7523 21.0534L100.674 14.674C101.494 11.9838 102.544 8.98625 105.08 7.80771C107.207 6.80852 109.692 7.44903 112.049 7.29531C115.918 7.09035 119.3 4.83576 122.707 2.9911C124.065 2.24811 125.551 1.55637 127.114 1.68447C128.882 1.83819 130.393 3.06796 131.649 4.32336C132.904 5.57875 134.108 7.01349 134.851 8.65318C136.055 11.2921 136.081 14.3409 134.954 17.0054C134.416 18.2608 133.621 19.3881 132.827 20.5154L128.523 26.6642C128.241 27.0998 127.908 27.5097 127.498 27.8428C126.986 28.1758 126.397 28.3808 125.782 28.4577C121.477 29.2775 116.891 29.1238 112.946 31.0197C111.332 31.8139 109.743 33.0181 107.873 33.1462C106.464 33.2487 105.439 32.4544 104.209 31.8908C100.648 30.3023 97.6506 28.0221 98.1374 23.6154Z" fill="#FFB152"/>
<path d="M249.22 230.781C258.7 222.839 261.005 207.979 258.085 195.579C254.908 182.128 252.371 168.524 247.478 155.585C244.352 147.31 240.817 138.984 240.535 130.145C240.048 113.927 252.218 98.2473 268.025 94.7117C265.156 98.5547 264.08 109.802 265.079 114.491C269.435 134.474 290.699 156.508 297.617 172.392C309.581 199.883 306.328 232.6 271.484 247.716C261.697 251.969 250.245 249.638 239.689 247.998C238.46 247.793 237.153 247.562 236.179 246.794C229.8 241.644 236.666 239.774 239.1 238.851C244.89 236.597 244.634 234.624 249.22 230.781Z" fill="#FF9739"/>
<path d="M212.019 112.953C214.453 109.802 220.192 107.676 223.856 104.985C224.573 104.499 225.24 103.961 225.829 103.32C228.083 109.751 227.212 118.667 225.163 125.174C224.112 128.53 223.267 129.53 222.114 131.426C222.063 131.502 222.011 131.579 221.909 131.631C221.806 131.656 221.704 131.631 221.601 131.579C220.73 131.221 220.628 130.888 219.782 130.529C218.681 130.119 217.63 129.632 216.657 128.992C213.71 127.019 208.74 121.536 208.1 118.052C208.1 118.077 210.969 114.311 212.019 112.953Z" fill="#FF9739"/>
<path d="M240.253 166.218C241.098 158.019 248.964 152.127 251.27 152.127C253.063 152.127 258.7 161.555 258.7 164.425C258.7 172.879 255.6 176.773 253.063 184.152C247.683 199.78 251.449 215.153 251.782 220.533C252.192 227.297 251.09 234.137 248.195 240.261C245.3 246.384 231.645 246.23 224.881 245.897C224.035 245.846 230.312 236.417 229.646 235.905C229.031 235.444 228.673 234.752 228.34 234.06C223.472 223.992 223.113 227.809 225.649 216.946C226.751 212.232 230.21 200.933 233.079 196.962C239.741 187.739 239.946 169.267 240.253 166.218Z" fill="#FF9739"/>
<path d="M217.63 117.77C219.321 115.848 222.831 114.209 224.625 109.597C224.625 115.746 223.856 120.87 221.32 125.02C221.166 125.277 221.063 125.584 220.807 125.687C220.218 125.943 219.706 125.174 219.501 124.585L217.707 119.205C217.579 118.795 217.451 118.385 217.579 117.975C217.707 117.565 218.22 117.283 218.553 117.514" fill="#CD5000"/>
<path d="M178.662 94.1994C178.252 93.3795 177.304 92.534 176.484 92.944C176.023 94.9167 174.845 96.6077 173.845 98.3498C169.874 105.293 168.439 113.415 169.849 121.306C169.72 120.614 177.945 115.951 178.867 115.31C180.66 114.055 184.58 112.492 185.426 110.366C187.373 105.549 181.839 100.63 178.662 94.1994Z" fill="#FF9739"/>
<path d="M181.07 108.828C180.968 109.213 178.303 110.878 177.945 111.083C177.483 111.339 176.869 111.109 176.433 111.365C176.305 111.442 176.151 111.595 175.997 111.544C175.895 111.493 175.818 111.416 175.767 111.314C175.459 110.622 175.741 109.802 175.972 109.085C176.997 106.036 176.92 101.475 177.227 98.3241C178.764 101.655 181.403 107.445 181.07 108.828Z" fill="#CD5000"/>
<path d="M182.326 106.779C196.699 100.118 207.357 106.061 212.301 109.853C216.144 112.8 219.193 117.027 220.397 121.69C223.292 133.065 226.802 144.927 231.081 156.943C231.568 158.224 231.491 159.685 230.85 160.915C229.954 162.529 227.827 163.041 226.649 164.476C224.65 166.91 226.239 170.522 227.878 173.212C234.309 183.845 240.765 194.631 244.275 206.544C247.785 218.458 248.093 231.78 242.482 242.848C241.56 244.667 240.407 246.486 238.69 247.588C237.076 248.613 235.155 248.895 233.259 249.125C222.191 250.483 210.995 250.381 199.978 248.818C193.47 247.895 186.732 246.307 181.711 242.105C179.917 240.594 178.354 238.775 176.407 237.442C173.871 235.7 170.822 234.906 167.927 233.881C156.68 229.961 146.867 222.711 139.796 213.129C137.567 210.105 135.62 206.8 134.672 203.162C133.903 200.088 133.878 196.885 133.57 193.734C132.238 179.259 125.295 164.424 130.368 150.794C131.751 147.08 133.98 143.723 135.594 140.085C136.696 137.626 137.567 134.987 139.181 132.809C143.818 126.532 154.297 126.045 160.651 121.895C167.978 117.078 174.153 110.596 182.326 106.779Z" fill="#FF9739"/>
<path d="M158.319 131.272C159.985 129.94 162.265 129.683 164.391 129.735C172.949 129.914 179.046 130.631 187.373 128.735C189.397 128.274 193.394 126.942 195.264 127.864C197.006 128.735 199.004 130.683 199.645 131.374C212.071 144.697 215.401 145.978 221.294 149.565C224.881 151.742 225.649 155.201 222.652 157.097C221.473 157.84 218.783 159.172 217.707 160.069C215.453 161.939 218.399 164.757 219.757 167.345C224.163 175.62 228.416 184.203 229.877 193.478C230.902 200.062 230.466 206.8 229.108 213.308C228.263 217.305 233.028 247.152 229.646 249.433C229.134 249.842 228.493 250.073 227.853 250.124C226.905 250.15 226.059 249.535 225.316 248.971C221.832 246.307 219.834 252.251 213.839 252.302C188.987 252.43 172.616 237.007 165.672 237.186C160.753 237.314 175.869 216.946 171.77 214.23C169.259 212.565 167.44 210.054 165.698 207.595C163.341 204.264 160.984 200.933 159.37 197.193C155.834 189.02 156.167 179.745 157.013 170.881C157.858 162.016 159.19 152.998 157.397 144.287C156.731 140.879 155.04 133.859 158.319 131.272Z" fill="#F6F3EE"/>
<path d="M249.963 166.986C250.757 167.115 251.577 167.32 252.218 167.832C253.063 168.524 253.396 169.625 253.678 170.65C253.986 171.829 254.191 173.212 253.422 174.109C252.935 174.621 252.243 174.929 251.526 174.954C250.809 174.954 250.091 174.878 249.425 174.698L245.838 173.904C244.839 173.699 243.712 173.366 243.327 172.418C243.174 171.982 243.148 171.547 243.199 171.086C243.327 167.704 247.017 166.551 249.963 166.986Z" fill="#FFFAF3"/>
<path d="M246.043 158.66C245.889 157.917 243.174 162.042 243.456 164.168C243.481 164.501 243.609 164.809 243.789 165.065C244.685 166.218 246.427 165.372 246.837 164.194C247.247 163.015 246.274 159.813 246.043 158.66Z" fill="#FFFAF3"/>
<path d="M254.549 164.758C254.344 165.347 254.011 165.885 253.96 166.5C253.909 167.115 254.293 167.832 254.908 167.858C255.523 167.883 255.933 167.217 256.112 166.628C256.394 165.731 256.471 164.758 256.317 163.835C256.343 163.681 256.214 163.553 256.061 163.528C256.009 163.528 255.933 163.528 255.881 163.553C255.343 163.707 254.882 164.117 254.652 164.629" fill="#FFFAF3"/>
<path d="M251.449 162.836C251.295 163.451 251.219 164.117 251.475 164.681C251.552 164.86 251.68 165.014 251.859 165.116C252.038 165.193 252.218 165.219 252.423 165.219C252.781 165.244 253.191 165.244 253.473 164.988C253.601 164.86 253.704 164.706 253.755 164.552C254.575 162.708 254.805 160.658 254.421 158.711C254.319 158.25 253.96 157.891 253.473 158.199C253.191 158.378 253.114 158.967 252.986 159.275C252.397 160.453 251.757 161.504 251.449 162.836Z" fill="#FFFAF3"/>
<path d="M248.503 158.173C248.042 159.275 248.349 161.401 248.247 162.605C248.221 162.836 248.221 163.092 248.272 163.323C248.375 163.733 248.656 164.066 249.066 164.22C249.195 164.271 249.374 164.296 249.502 164.245C249.604 164.194 249.681 164.117 249.758 164.015C250.706 162.785 251.219 159.941 250.962 158.429C250.911 158.045 250.424 156.687 249.938 156.585C249.528 156.482 248.656 157.814 248.503 158.173Z" fill="#FFFAF3"/>
<path d="M156.347 129.325V133.065H121.477C122.246 132.297 122.938 131.502 123.553 130.631C123.886 130.119 124.193 129.607 124.475 129.069C124.834 128.3 125.09 127.531 125.269 126.763C125.449 125.994 125.551 125.2 125.602 124.38C125.782 121.28 125.064 118.077 124.603 115.054C124.091 111.647 122.784 105.267 126.576 104.166C130.368 103.064 135.697 107.394 139.591 106.805C140.974 106.6 151.12 104.832 152.862 103.295H153.118C152.862 110.058 151.914 116.925 153.452 122.971C153.708 124.047 154.066 125.097 154.528 126.097C154.989 127.198 155.604 128.274 156.347 129.325Z" fill="#FFFAF3"/>
<path d="M244.762 248.228C235.795 254.377 216.067 257.196 210.175 250.79C209.765 248.664 209.252 246.358 208.689 243.924C207.92 240.67 207.023 237.212 206.05 233.625C205.512 231.703 204.948 229.756 204.359 227.783C203.642 225.35 202.873 222.89 202.079 220.43C201.336 218.15 200.593 215.87 199.799 213.641C198.902 211.028 197.954 208.466 197.006 205.981C196.237 203.931 195.443 201.933 194.649 200.037C193.47 197.193 192.266 194.528 191.088 192.12C190.883 191.684 190.652 191.249 190.447 190.813C190.396 191.172 190.345 191.531 190.319 191.889C190.037 194.759 190.319 197.5 190.934 200.139C191.421 202.291 192.112 204.366 192.881 206.39C193.906 209.106 195.008 211.694 195.879 214.153C196.263 215.255 196.596 216.331 196.852 217.382C197.083 218.381 197.288 219.508 197.416 220.687C197.672 222.864 197.749 225.298 197.595 227.758C197.467 229.859 197.185 231.96 196.699 233.932C195.776 237.801 194.162 241.208 191.677 243.156C191.216 243.514 190.729 243.847 190.242 244.129C186.835 246.179 182.684 246.845 178.713 247.332C153.58 250.509 116.43 251.277 89.2215 246.204C85.4297 245.487 74.4386 256.632 72.1071 253.557C69.6732 250.355 51.1241 253.557 51.0985 240.773V240.747L51.4059 234.65C51.6622 231.985 52.0977 229.423 52.6357 226.81C53.02 224.94 53.5068 223.069 54.0192 221.148C54.6597 218.791 55.3771 216.357 56.1457 213.744C56.7093 211.848 57.3242 209.849 57.9391 207.723C58.7077 205.186 59.502 202.445 60.3218 199.499C60.373 199.371 60.3987 199.217 60.4499 199.063C60.9623 197.347 61.7565 195.118 62.7045 192.632C63.5243 190.506 64.4467 188.2 65.4202 185.869C66.3426 183.665 67.2649 181.436 68.1872 179.284C69.0071 177.337 69.8013 175.467 70.5187 173.801C71.3641 171.829 72.1071 170.087 72.6452 168.754C73.1576 167.525 73.7981 166.397 74.5667 165.372C76.5651 162.631 79.3833 160.479 82.4577 158.634C85.0966 157.046 87.9661 155.662 90.6818 154.279C92.4753 153.382 94.2431 152.434 95.9852 151.461C99.982 149.232 103.851 146.798 107.617 144.184C110.845 141.93 113.971 139.547 117.019 137.036C117.788 136.396 118.557 135.755 119.3 135.089C120.068 134.423 120.811 133.757 121.529 133.04C122.297 132.271 122.989 131.477 123.604 130.606C123.937 130.093 124.244 129.581 124.526 129.043C124.885 128.274 125.141 127.506 125.32 126.737C128.882 126.66 132.289 126.609 135.389 126.532C137.131 126.506 138.771 126.455 140.283 126.43C147.636 126.276 152.452 126.173 152.452 126.173C153.17 126.122 153.861 126.097 154.553 126.071C155.04 127.198 155.655 128.274 156.423 129.325C156.526 129.453 156.628 129.607 156.731 129.735C156.91 129.965 157.09 130.196 157.295 130.426C158.781 132.169 161.471 133.988 163.956 135.499C163.981 135.499 163.981 135.499 163.956 135.499C165.109 136.191 166.185 136.831 167.107 137.369C169.439 138.753 171.847 139.983 174.332 141.161C179.43 143.595 184.734 145.722 189.755 148.156C194.034 150.231 198.133 152.485 201.746 155.329C203.667 156.841 205.461 158.506 207.075 160.402C207.715 161.145 208.305 161.914 208.868 162.734C210.047 164.424 211.046 166.192 211.917 168.037C212.814 169.958 213.582 171.982 214.274 174.032C215.017 176.261 215.632 178.516 216.247 180.821C217.015 183.742 217.758 186.689 218.604 189.584C218.681 189.84 218.758 190.096 218.834 190.327C219.603 192.863 220.474 195.399 221.422 197.885C222.165 199.832 222.934 201.779 223.754 203.7C224.778 206.134 225.854 208.543 226.982 210.925C228.058 213.231 229.134 215.511 230.261 217.792C230.671 218.663 231.107 219.534 231.516 220.405C232.157 221.737 232.874 223.249 233.617 224.863C234.617 227.015 235.667 229.372 236.769 231.755C238.306 235.162 239.92 238.646 241.483 241.823C242.533 244.206 243.686 246.409 244.762 248.228Z" fill="#3856FF"/>
<path d="M156.654 129.735C156.552 129.735 156.449 129.76 156.347 129.76C149.224 130.708 147.046 131.989 136.773 132.502C128.497 132.374 124.68 130.811 123.553 130.606C123.886 130.093 124.193 129.581 124.475 129.043C124.834 128.274 125.09 127.506 125.269 126.737C125.449 125.969 125.551 125.174 125.602 124.354C128.267 125.738 131.725 126.378 135.338 126.532C136.978 126.583 138.617 126.558 140.231 126.43C146.175 125.994 151.581 124.457 153.298 122.945C153.349 122.945 153.4 122.945 153.426 122.945C153.682 124.021 154.041 125.072 154.502 126.071C154.989 127.198 155.604 128.274 156.372 129.325C156.449 129.453 156.552 129.607 156.654 129.735Z" fill="#273CB3"/>
<path d="M174.255 141.187C169.387 142.801 154.015 147.361 138.745 147.669C125.218 147.874 113.356 145.491 107.54 144.21C110.768 141.956 113.894 139.573 116.943 137.062C117.019 137.062 117.071 137.062 117.096 137.062C116.533 136.883 128.215 140.111 141.897 139.855C151.556 139.522 163.392 135.576 163.853 135.499C163.879 135.499 163.879 135.499 163.853 135.499H163.879C165.032 136.191 166.108 136.831 167.03 137.37C169.362 138.753 171.77 140.008 174.255 141.187Z" fill="#273CB3"/>
<path d="M201.669 155.355C192.394 156.815 168.055 160.351 145.458 161.248C125.115 162.067 99.8795 160.274 82.4321 158.686C85.071 157.097 87.9404 155.714 90.6562 154.33C92.4496 153.433 94.2174 152.485 95.9596 151.512C98.8547 151.871 102.032 152.178 105.465 152.511C151.248 156.738 176.1 151.589 189.704 148.207C193.957 150.256 198.056 152.511 201.669 155.355Z" fill="#273CB3"/>
<path d="M211.84 168.063C206.537 168.754 196.417 170.035 184.58 171.291C148.942 176.645 90.7585 175.031 70.4673 173.853C71.3128 171.88 72.0557 170.138 72.5938 168.806C73.1062 167.576 73.7467 166.449 74.5153 165.424C93.4999 166.372 127.447 167.909 142.102 167.576C179.789 164.86 198.082 161.76 206.998 160.453C207.638 161.196 208.228 161.965 208.791 162.785C209.97 164.425 210.969 166.218 211.84 168.063Z" fill="#273CB3"/>
<path d="M216.17 180.822C200.157 186.765 185.323 183.793 173.999 185.203C129.625 190.66 81.0998 188.098 65.369 185.92C66.2913 183.717 67.2136 181.488 68.136 179.336C69.2376 179.387 70.493 179.412 71.9278 179.412C150.172 182.743 174.101 178.311 214.197 174.032C214.94 176.261 215.555 178.541 216.17 180.822Z" fill="#273CB3"/>
<path d="M190.908 200.165C187.808 200.267 185.195 200.498 183.274 200.959C135.159 206.954 85.6347 201.907 60.3987 199.114C60.9111 197.398 61.7053 195.169 62.6533 192.684C81.3048 193.862 115.79 195.784 137.951 195.476C149.275 195.323 176.638 193.452 190.191 191.889C190.242 191.915 190.268 191.915 190.319 191.941C190.012 194.785 190.319 197.526 190.908 200.165Z" fill="#273CB3"/>
<path d="M221.345 197.885C219.065 198.423 216.4 198.935 213.454 199.319C206.844 199.96 200.26 199.96 194.674 200.062C193.496 197.218 192.292 194.554 191.113 192.146C194.905 193.222 200.388 193.35 205.973 192.735C211.276 192.094 215.478 191.223 218.783 190.327C219.526 192.889 220.397 195.399 221.345 197.885Z" fill="#273CB3"/>
<path d="M192.855 206.416C193.88 209.132 194.982 211.72 195.853 214.179C129.112 222.301 99.3158 216.485 56.12 213.795C56.6836 211.899 57.2985 209.901 57.9134 207.774C67.9309 208.389 112.177 211.002 133.57 211.105C147.712 210.925 168.747 211.028 192.855 206.416Z" fill="#273CB3"/>
<path d="M226.905 210.925C217.989 212.463 211.072 214.82 203.104 213.257C202.002 213.411 200.875 213.539 199.799 213.692C198.902 211.079 197.954 208.517 197.006 206.032C210.585 207.134 218.348 205.315 223.677 203.726C224.702 206.134 225.778 208.517 226.905 210.925Z" fill="#273CB3"/>
<path d="M197.39 220.712C197.646 222.89 197.723 225.324 197.57 227.784C193.88 227.835 190.242 228.065 186.835 228.629C130.649 234.24 83.38 228.757 53.5324 227.297C53.1993 227.169 52.8919 227.015 52.6357 226.861C53.02 224.991 53.5068 223.121 54.0192 221.199C58.2721 221.43 86.6594 222.916 111.127 223.761C145.689 225.939 174.819 222.019 197.39 220.712Z" fill="#273CB3"/>
<path d="M233.54 224.863C231.542 225.657 230.261 226.374 228.34 226.682C222.011 228.501 213.3 228.014 204.359 227.809C203.642 225.375 202.873 222.916 202.079 220.456C207.28 220.225 212.122 220.2 216.554 220.482C220.167 220.405 225.137 218.944 230.184 217.792C230.594 218.663 231.03 219.534 231.44 220.405C232.08 221.737 232.772 223.249 233.54 224.863Z" fill="#273CB3"/>
<path d="M194.803 234.112C195.418 234.035 196.058 233.984 196.673 233.932C195.751 237.801 194.136 241.209 191.651 243.156C191.19 243.514 190.703 243.847 190.217 244.129C137.849 246.102 80.8436 242.515 51.0729 240.773V240.747L51.3803 234.65C53.7374 234.778 67.8541 235.495 84.6354 236.264C137.413 239.082 152.375 237.929 194.803 234.112Z" fill="#273CB3"/>
<path d="M241.38 241.823C231.824 244.283 220.218 245.385 208.689 243.924C207.92 240.67 207.023 237.212 206.05 233.625C217.656 233.702 227.699 235.085 236.692 231.729C238.203 235.162 239.817 238.672 241.38 241.823Z" fill="#273CB3"/>
<path d="M116.84 46.2382C112.638 50.2349 109.718 55.3846 107.284 60.6367C106.003 63.3781 104.824 66.1964 104.081 69.1171C102.467 75.4965 102.903 82.1834 103.364 88.7422C103.441 89.9976 103.543 91.2786 103.979 92.4315C104.645 94.1993 106.054 95.5828 107.437 96.8638C113.971 103.038 120.658 109.008 127.549 114.798C129.343 116.31 131.162 117.821 133.263 118.82C135.364 119.82 137.849 120.255 140.078 119.538C142.768 118.667 147.277 114.567 148.917 112.287C153.4 106.113 164.366 91.048 166.108 88.8703C170.694 83.0801 171.206 76.3932 170.899 68.989C170.668 63.3269 170.207 57.5879 168.158 52.3102C167.056 49.4663 165.391 46.7249 162.829 45.0852C158.55 42.3439 152.965 43.3174 147.994 42.2414C145.279 41.6521 142.742 40.4736 140.052 39.7306C136.209 38.6546 131.956 39.4488 128.087 40.1918C123.834 41.0116 119.94 43.2662 116.84 46.2382Z" fill="#FFFAF3"/>
<path d="M138.028 59.1251C138.028 55.154 138.079 54.1035 137.183 43.5992C140.078 46.8274 140.693 55.1027 141.231 59.2532C144.279 59.8937 146.97 59.8425 149.429 59.2532C151.607 54.2573 150.095 50.8498 150.326 47.1092C151.094 50.8498 151.863 52.72 151.607 59.1251C153.221 59.8169 157.295 59.6375 158.217 59.3557C159.088 66.35 159.959 73.37 159.959 81.2354C162.188 80.723 164.135 80.9792 165.211 82.9776C166.287 84.976 165.596 87.2049 164.34 89.1008C162.572 91.7397 159.088 90.8686 159.088 90.8686C158.217 96.1208 157.5 98.8109 155.578 103.141C158.114 103.832 160.676 101.373 162.752 99.7332C164.827 98.0935 166.313 95.8646 167.696 93.61C170.335 89.2545 172.641 84.7198 174.614 80.0056C175.485 77.9304 176.279 75.8295 176.587 73.6006C177.022 70.4749 176.484 67.2723 175.741 64.1979C172.231 49.7737 164.571 36.7074 153.733 26.5617C152.17 25.1014 150.531 23.6923 148.661 22.6418C145.432 20.7972 141.666 20.0542 137.951 19.7467C130.06 19.1062 121.964 20.336 114.893 23.8716C107.822 27.4072 101.852 33.2999 98.7778 40.6016C97.4456 43.7786 96.6513 47.1861 95.8827 50.5679L89.4008 78.9808C88.7603 81.7478 88.1454 84.6429 88.914 87.3587C89.6826 90.0232 91.681 92.1496 93.7819 93.9174C99.777 98.9902 107.028 102.321 114.765 103.551L112.024 96.8894C111.793 96.1976 111.434 95.5571 110.973 94.9679C110.204 94.0712 109.026 93.6612 108.052 93.0207C106.438 91.9703 105.285 90.1769 105.234 88.2554C105.183 86.3338 106.361 84.3867 108.18 83.7462C110 83.1057 112.28 84.0793 112.895 85.8983C112.715 81.5172 112.638 77.1105 112.664 72.7295C112.69 70.2955 113.509 61.8665 113.561 61.969C113.638 62.1483 138.028 60.6623 138.028 59.1251Z" fill="#FFA539"/>
<path d="M120.222 66.3756C117.916 67.2724 115.969 68.8864 114.637 70.9873C114.714 71.1666 114.842 71.0129 114.97 70.9104C117.814 68.9633 120.606 67.5798 124.834 67.9385C126.192 68.041 129.138 66.9393 126.935 65.5302C126.448 65.2227 125.705 65.2484 124.962 65.274C123.322 65.3765 121.734 65.7608 120.222 66.3756Z" fill="#CD5000"/>
<path d="M146.227 64.6591C147.431 64.6078 148.635 64.5822 149.813 64.864C151.428 65.2483 152.837 66.2219 154.194 67.1699C153.887 67.5798 153.272 67.1955 152.785 67.0418C150.582 66.2732 147.713 66.3756 146.15 66.6831C145.202 66.8881 144.279 67.2467 143.306 67.4261C142.614 67.5542 141.794 67.5798 141.333 67.0418C139.104 64.4797 145.484 64.6847 146.227 64.6591Z" fill="#CD5000"/>
<path d="M132.52 74.3693C133.442 80.3644 133.673 86.462 133.186 92.5084C133.083 93.7894 132.981 95.1473 133.596 96.2746C134.211 97.4019 135.953 97.9655 136.798 97.0176" stroke="#273CB3" stroke-width="0.414295" stroke-linecap="round" stroke-linejoin="round"/>
<path d="M122.938 73.9336C120.734 73.4981 118.454 74.1386 116.763 75.6246" stroke="#273CB3" stroke-width="0.414295" stroke-linecap="round" stroke-linejoin="round"/>
<path d="M127.473 78.904C127.063 79.4164 126.371 79.6469 125.73 79.8007C124.911 80.0313 124.065 80.185 123.22 80.3131C122.579 80.4156 121.964 80.4668 121.324 80.518C120.043 80.6205 118.762 80.6205 117.481 80.5437C117.122 80.518 116.686 80.4924 116.456 80.2106C116.251 79.9288 116.225 79.5701 116.379 79.2626C116.533 78.9552 116.738 78.699 117.019 78.494C118.147 77.5973 119.479 76.9824 120.888 76.7518C121.324 76.675 121.759 76.5981 122.195 76.5981C122.348 76.5981 122.605 76.5725 122.938 76.5725C124.859 76.5725 129.189 76.8543 127.473 78.904Z" fill="white" stroke="#CD5000" stroke-width="0.316814" stroke-linecap="round" stroke-linejoin="round"/>
<path d="M154.143 77.2387C154.015 77.3924 153.861 77.5461 153.682 77.6486C152.58 78.3404 151.351 78.8015 150.07 79.0065C149.762 79.0577 149.429 79.0833 149.122 79.109C147.559 79.2114 145.996 79.0321 144.51 78.5966C141.026 77.623 145.227 75.5477 147.021 75.0097C147.431 74.9072 147.841 74.8048 148.251 74.7535C148.763 74.6767 149.275 74.651 149.813 74.6254C150.659 74.5742 151.53 74.6254 152.375 74.7791C153.195 75.0097 153.964 75.2659 154.246 76.0602C154.399 76.4445 154.374 76.88 154.143 77.2387Z" fill="white" stroke="#273CB3" stroke-width="0.414295" stroke-linecap="round" stroke-linejoin="round"/>
<path d="M127.473 78.904C127.063 79.4164 126.371 79.6469 125.73 79.8007C124.911 80.0313 124.065 80.185 123.22 80.3131C122.579 80.4156 121.964 80.4668 121.324 80.518C120.043 80.6205 118.762 80.6205 117.481 80.5437C117.122 80.518 116.686 80.4924 116.456 80.2106C116.251 79.9288 116.225 79.5701 116.379 79.2626C116.533 78.9552 116.738 78.699 117.019 78.494C118.147 77.5973 119.479 76.9824 120.888 76.7518C121.324 76.675 121.759 76.5981 122.195 76.5981C122.348 76.5981 122.605 76.5725 122.938 76.5725C124.859 76.5725 129.189 76.8543 127.473 78.904Z" fill="white" stroke="#273CB3" stroke-width="0.414295" stroke-linecap="round" stroke-linejoin="round"/>
<path d="M123.245 80.3131C122.605 80.4156 121.99 80.4668 121.349 80.518C121.016 80.3131 120.734 80.0313 120.555 79.6469C120.427 79.2883 120.401 78.904 120.427 78.5197C120.427 77.9048 120.606 77.2899 120.888 76.7518C121.324 76.675 121.759 76.5981 122.195 76.5981C122.348 76.5981 122.605 76.5725 122.938 76.5725C122.938 76.5725 122.963 76.5725 122.963 76.5981C124.116 77.5461 124.014 79.1089 123.245 80.3131Z" fill="#3856FF" stroke="#273CB3" stroke-width="0.414295" stroke-miterlimit="10"/>
<path d="M146.765 72.0634C149.019 71.3716 151.428 71.6022 153.503 72.7039" stroke="#273CB3" stroke-width="0.414295" stroke-linecap="round" stroke-linejoin="round"/>
<path d="M150.121 78.904L150.044 78.9809L149.096 79.0833C148.532 78.8015 147.943 78.4685 147.687 77.8792C147.559 77.5205 147.533 77.1362 147.559 76.7519C147.584 75.9833 147.815 75.1891 148.225 74.7279C148.737 74.651 149.25 74.6254 149.788 74.5998C149.89 74.651 149.993 74.7279 150.095 74.8048C151.376 75.8808 151.146 77.7255 150.121 78.904Z" fill="#3856FF" stroke="#273CB3" stroke-width="0.414295" stroke-miterlimit="10"/>
<path d="M144.203 100.092C143.28 101.783 142.23 103.397 141.026 104.883C139.642 106.625 137.772 108.367 135.543 108.342C133.878 108.316 132.392 107.317 131.162 106.215C130.214 105.37 129.368 104.422 128.369 103.653C133.186 102.27 138.387 102.295 143.05 100.451C143.408 100.271 143.793 100.143 144.203 100.092Z" fill="white" stroke="#273CB3" stroke-width="0.316814" stroke-linecap="round" stroke-linejoin="round"/>
<path d="M126.448 104.729C126.55 104.294 127.011 104.089 127.421 103.961C132.494 102.295 138.054 102.449 143.024 100.476C143.511 100.271 144.023 100.066 144.561 100.118C145.099 100.169 145.586 100.681 145.458 101.194" stroke="#273CB3" stroke-width="0.316814" stroke-linecap="round" stroke-linejoin="round"/>
<path d="M122.349 88.4091C121.477 88.1017 120.478 88.3323 119.607 88.5885C119.12 88.7166 118.659 88.9471 118.301 89.3314C117.942 89.7157 117.839 90.2538 118.044 90.7406C118.377 91.4067 119.274 91.4835 120.017 91.4835C120.863 91.4835 121.734 91.4579 122.477 91.0736C123.015 90.7918 123.45 90.2794 123.45 89.6645C123.45 89.0496 122.733 88.5628 122.349 88.4091Z" fill="#CD5000"/>
<path d="M150.095 86.5644C149.762 86.6413 149.429 86.7694 149.147 86.9487C148.866 87.1537 148.686 87.4612 148.661 87.8198C148.661 88.281 149.045 88.6653 149.455 88.9215C150.659 89.6901 152.273 89.8951 153.554 89.2546C153.887 89.1009 154.143 88.8703 154.348 88.5884C154.553 88.3066 154.604 87.9223 154.476 87.5893C154.323 87.2818 154.041 87 153.733 86.8463C152.606 86.052 151.402 86.2314 150.095 86.5644Z" fill="#CD5000"/>
<path d="M143.998 7.42335C143.562 6.52664 143.255 5.55307 143.075 4.5795C142.896 3.60593 142.819 2.60674 142.819 1.60755C143.511 1.27448 146.739 -0.0577728 147.764 1.99185C149.096 4.68198 144.971 6.83408 143.998 7.42335Z" fill="#CD5000" stroke="#273CB3" stroke-width="0.316814" stroke-linecap="round" stroke-linejoin="round"/>
<path d="M143.998 7.42341C143.255 7.91019 142.486 8.37136 141.743 8.83252C140.898 6.96224 140.437 4.93824 140.411 2.88862C140.462 2.863 140.513 2.83738 140.565 2.81176C141.308 2.40183 142.051 1.96629 142.819 1.6076C142.819 2.6068 142.896 3.58037 143.075 4.57956C143.255 5.55313 143.562 6.5267 143.998 7.42341Z" fill="#FFB152" stroke="#273CB3" stroke-width="0.316814" stroke-linecap="round" stroke-linejoin="round"/>
<path d="M127.831 16.083C128.164 15.0326 128.318 13.9565 128.344 12.8548C128.318 11.83 128.241 11.087 127.78 10.1647C129.061 9.3961 135.415 5.70678 137.9 4.29766C138.745 3.8365 139.565 3.34971 140.411 2.88855C140.436 4.93817 140.898 6.96217 141.743 8.83245C136.824 11.9069 131.931 14.9813 127.011 18.0558C127.37 17.4409 127.652 16.7747 127.831 16.083Z" fill="#3856FF" stroke="#273CB3" stroke-width="0.316814" stroke-linecap="round" stroke-linejoin="round"/>
<path d="M137.9 4.32336C137.9 5.55314 138.156 6.78291 138.669 7.9102L137.9 4.32336Z" fill="#3856FF"/>
<path d="M137.9 4.32336C137.9 5.55314 138.156 6.78291 138.669 7.9102" stroke="#273CB3" stroke-width="0.316814" stroke-linecap="round" stroke-linejoin="round"/>
<path d="M96.3951 30.5329C93.5257 32.4032 90.6306 34.2735 87.7611 36.1181" stroke="#273CB3" stroke-width="0.316814" stroke-linecap="round" stroke-linejoin="round"/>
<path d="M93.2182 34.0685C91.5785 35.1445 89.8876 36.1693 88.171 37.1173" stroke="#273CB3" stroke-width="0.316814" stroke-linecap="round" stroke-linejoin="round"/>
<path d="M131.623 9.16552C132.93 8.29443 136.286 6.52664 138.003 5.70679L131.623 9.16552Z" fill="#3856FF"/>
<path d="M131.623 9.16552C132.93 8.29443 136.286 6.52664 138.003 5.70679" stroke="#273CB3" stroke-width="0.316814" stroke-linecap="round" stroke-linejoin="round"/>
<path d="M87.3255 212.565C87.5305 208.056 87.6073 203.521 88.7603 199.166C90.1694 193.734 93.1669 188.841 94.5504 183.383C95.7546 178.592 95.6265 173.597 95.9339 168.677C96.2414 163.733 96.9587 158.839 98.086 154.023C94.6273 152.972 92.6545 157.046 91.1429 160.351C89.6313 163.656 89.0165 170.676 86.0701 171.854C83.4569 172.905 80.9717 161.683 80.2799 155.457C79.4089 147.566 78.384 139.163 77.6411 135.32C77.0518 132.22 76.2063 129.197 75.0022 129.197C74.1311 129.197 74.1311 131.835 74.1311 132.707C74.1311 139.137 75.0022 158.942 74.1311 158.967C70.7748 159.07 69.1351 131.631 63.6268 130.939C62.0127 130.734 66.3938 148.156 66.5475 161.76C66.5475 161.862 66.4962 161.939 66.3937 161.939C66.2913 161.939 66.2144 161.888 66.2144 161.786C64.4722 155.099 59.3226 137.293 56.6068 137.933C55.1465 138.266 61.3722 161.017 61.2441 165.27C61.2185 165.398 61.0904 165.501 60.9366 165.475C60.8598 165.449 60.7829 165.424 60.7573 165.347C60.0143 163.348 59.2201 158.942 55.7357 151.947C54.8134 150.103 53.0968 148.437 52.2257 148.437C51.3546 148.437 53.763 154.817 54.7365 158.557C55.2745 160.684 56.2481 165.526 56.7861 167.781C57.401 170.317 57.7341 172.546 59.2201 177.337C60.5011 181.385 64.7541 189.251 66.0351 193.299C67.7004 198.576 69.3657 203.957 69.2376 209.491C69.1351 213.205 62.2945 233.753 60.6548 240.414C59.1945 246.333 57.8622 253.173 61.5003 258.067C62.9863 260.065 65.2152 261.551 66.2913 263.806C67.3673 266.06 67.2905 268.955 70.0318 270.057C70.9285 270.416 71.9277 270.467 72.8501 270.236C75.3096 269.647 76.9493 267.725 78.3328 265.753C82.9445 259.143 88.0429 254.429 89.3495 246.691C91.0148 236.853 86.89 222.506 87.3255 212.565Z" fill="#FFFAF3"/>
<path d="M135.748 19.8492C143.946 18.85 152.555 22.4625 157.576 28.9957C159.062 30.9172 160.241 33.0693 161.394 35.1958L168.311 47.7753C169.567 50.0555 170.822 52.3357 171.693 54.7697C174.025 61.4822 173.333 68.9121 169.797 75.0609" stroke="#273CB3" stroke-width="0.414295" stroke-linecap="round" stroke-linejoin="round"/>
<path d="M108.514 29.0469C98.0092 38.7314 91.8091 52.9507 91.8604 67.2212C91.8604 70.0394 92.2191 73.0882 94.1918 75.0866" stroke="#273CB3" stroke-width="0.414295" stroke-linecap="round" stroke-linejoin="round"/>
<path d="M123.168 36.2974C119.838 41.7033 119.069 53.2324 121.119 61.4309" stroke="#273CB3" stroke-width="0.414295" stroke-linecap="round" stroke-linejoin="round"/>
<path d="M144.689 37.4761C150.07 43.7787 152.555 52.054 151.479 60.2781" stroke="#273CB3" stroke-width="0.414295" stroke-linecap="round" stroke-linejoin="round"/>
<path d="M153.631 43.9835C156.962 50.3886 158.473 57.1523 158.038 64.0186" stroke="#273CB3" stroke-width="0.414295" stroke-linecap="round" stroke-linejoin="round"/>
<path d="M98.7779 11.2921C97.3944 13.5979 95.9853 15.9806 95.6522 18.6451C95.3191 21.3096 96.3183 24.3328 98.7266 25.5369" stroke="#273CB3" stroke-width="0.414295" stroke-linecap="round" stroke-linejoin="round"/>
<path d="M105.49 3.52911C103.492 6.65479 102.185 10.1648 101.647 13.8285C101.442 15.2632 101.519 17.0566 102.8 17.7484" stroke="#273CB3" stroke-width="0.414295" stroke-linecap="round" stroke-linejoin="round"/>
<path d="M94.0637 89.4083C97.3175 98.0424 103.953 104.985 112.459 108.624" stroke="#F6F3EE" stroke-width="0.414295" stroke-linecap="round" stroke-linejoin="round"/>
<path d="M128.523 115.643C129.804 116.668 131.085 117.565 132.11 118.001C134.313 118.923 136.798 119.512 139.13 118.948C140.693 118.564 142.102 117.693 143.434 116.771C146.227 114.824 148.789 112.569 151.069 110.058" stroke="#273CB3" stroke-width="0.414295" stroke-linecap="round" stroke-linejoin="round"/>
<path d="M124.193 111.903C125.039 112.646 125.987 113.517 127.011 114.388" stroke="#273CB3" stroke-width="0.414295" stroke-linecap="round" stroke-linejoin="round"/>
<path d="M183.683 178.388C182.377 187.662 183.299 197.142 186.425 205.981C188.346 211.386 191.036 216.51 192.317 222.096C194.111 230.166 192.779 238.621 188.603 245.743" stroke="#F6F3EE" stroke-width="0.414295" stroke-linecap="round" stroke-linejoin="round"/>
<path d="M127.575 127.378C126.473 133.885 122.246 138.036 117.276 142.391C112.305 146.747 106.643 151.486 100.546 154.023" stroke="#F6F3EE" stroke-width="0.414295" stroke-linecap="round" stroke-linejoin="round"/>
<path d="M189.115 152.05C198.748 156.918 206.281 165.142 210.277 175.185" stroke="#F6F3EE" stroke-width="0.414295" stroke-linecap="round" stroke-linejoin="round"/>
<path d="M270.741 91.4579C266.104 97.9911 264.9 106.471 265.976 114.388C267.001 121.869 271.945 130.375 275.506 137.318C275.583 137.472 275.532 137.651 275.378 137.728C275.276 137.779 275.148 137.779 275.045 137.702C270.434 134.193 264.182 129.35 261.364 124.713C261.236 128.428 261.62 132.117 262.517 135.73C262.543 135.909 262.44 136.063 262.286 136.088C262.158 136.114 262.056 136.063 261.979 135.986C259.315 132.297 257.162 128.249 255.651 123.97C252.679 130.836 251.321 138.292 251.705 145.747C251.705 145.927 251.577 146.055 251.398 146.08C251.27 146.08 251.142 146.003 251.09 145.875C249.476 141.161 247.862 136.447 246.274 131.707C246.146 132.886 245.044 135.499 244.813 136.421C244.455 137.882 243.712 140.777 243.276 142.698C243.225 142.878 243.071 142.98 242.892 142.929C242.789 142.903 242.713 142.827 242.687 142.75C240.074 136.447 238.511 126.25 239.971 119.512C245.121 96.0183 265.412 92.9951 270.741 91.4579Z" fill="#F6F3EE"/>
<path d="M160.83 82.7471C161.573 82.619 162.316 82.7727 162.957 83.157C163.162 83.2851 163.341 83.4388 163.495 83.5925C163.956 84.1562 164.007 84.9504 163.905 85.6678" stroke="#273CB3" stroke-width="0.414295" stroke-linecap="round" stroke-linejoin="round"/>
<path d="M108.027 85.0529C107.873 85.1041 107.745 85.181 107.642 85.3091C107.284 85.719 107.053 86.2058 106.951 86.7182C106.848 87.2562 106.797 87.7686 106.823 88.3066C106.823 88.6141 106.823 88.9727 107.079 89.1777" stroke="#273CB3" stroke-width="0.414295" stroke-linecap="round" stroke-linejoin="round"/>
<path d="M48.6134 145.747C46.3076 150.589 47.2043 158.557 48.0753 159.326" stroke="#F6F3EE" stroke-width="0.414295" stroke-linecap="round" stroke-linejoin="round"/>
<path d="M44.0274 147.464C43.1819 150.769 43.0282 153.433 43.2588 155.739" stroke="#F6F3EE" stroke-width="0.414295" stroke-linecap="round" stroke-linejoin="round"/>
<path d="M83.8669 137.036C83.9694 133.936 82.9446 130.862 81.9198 129.581" stroke="#F6F3EE" stroke-width="0.414295" stroke-linecap="round" stroke-linejoin="round"/>
<path d="M86.7875 133.424C86.7875 132.143 85.2503 127.531 82.9445 125.738" stroke="#F6F3EE" stroke-width="0.414295" stroke-linecap="round" stroke-linejoin="round"/>
<path d="M262.056 168.831C261.928 172.315 260.929 175.723 259.135 178.721C259.084 178.823 259.135 178.925 259.212 178.977C259.289 179.028 259.417 179.002 259.468 178.925C261.313 175.877 262.338 172.392 262.466 168.831C262.466 168.729 262.389 168.626 262.261 168.626C262.133 168.626 262.056 168.703 262.056 168.831Z" fill="#F6F3EE"/>
<path d="M264.925 171.573C264.797 173.725 264.131 175.8 262.953 177.593C262.824 177.798 263.157 178.003 263.286 177.798C264.49 175.928 265.181 173.776 265.31 171.573C265.335 171.316 264.951 171.316 264.925 171.573Z" fill="#F6F3EE"/>
<path d="M241.252 156.303C239.1 159.07 237.64 162.349 237.025 165.808" stroke="#F6F3EE" stroke-width="0.414295" stroke-linecap="round" stroke-linejoin="round"/>
<path d="M238.588 155.585C237.076 157.43 236.41 158.788 235.641 161.094" stroke="#F6F3EE" stroke-width="0.414295" stroke-linecap="round" stroke-linejoin="round"/>
<path d="M169.541 85.8215C168.286 94.3531 164.929 102.449 159.703 109.315" stroke="#F6F3EE" stroke-width="0.414295" stroke-linecap="round" stroke-linejoin="round"/>
<path d="M161.368 96.6076C160.395 99.8358 158.934 102.91 157.09 105.728" stroke="#F6F3EE" stroke-width="0.414295" stroke-linecap="round" stroke-linejoin="round"/>
<path d="M83.2775 174.314C81.3304 175.492 79.6907 177.132 78.1022 178.772C76.1295 180.796 74.0799 182.948 73.465 185.689" stroke="#F6F3EE" stroke-width="0.414295" stroke-linecap="round" stroke-linejoin="round"/>
<path d="M185.477 121.28C183.914 119.896 181.736 119.538 179.661 119.23C179.584 121.767 181.326 124.38 183.812 124.841C186.374 125.354 187.296 122.92 185.477 121.28Z" fill="white" stroke="#F6F3EE" stroke-width="0.414295" stroke-linecap="round" stroke-linejoin="round"/>
<path d="M207.075 128.172C209.15 128.069 211.097 129.145 212.891 130.221C211.379 132.245 208.381 133.193 206.127 132.015C203.821 130.785 204.641 128.3 207.075 128.172Z" fill="white" stroke="#F6F3EE" stroke-width="0.414295" stroke-linecap="round" stroke-linejoin="round"/>
<path d="M182.326 124.226C183.222 124.815 184.17 124.38 184.452 124.226C185.887 123.432 185.579 120.588 183.709 120.614C181.941 120.639 180.455 122.996 182.326 124.226Z" fill="black"/>
<path d="M208.689 128.454C207.869 128.351 207.075 128.735 206.639 129.427C205.794 130.708 206.998 133.142 208.92 132.245C210.431 131.528 210.764 128.71 208.689 128.454Z" fill="black"/>
<path d="M202.412 140.905C200.157 142.058 197.493 142.16 194.982 141.827C192.471 141.494 190.037 140.751 187.552 140.29C188.039 141.469 188.449 141.366 189.422 142.16C190.524 143.057 192.061 143.262 193.496 143.262C195.341 143.288 197.262 143.031 198.851 142.109" fill="#CD5000"/>
<path d="M202.412 140.905C200.157 142.058 197.493 142.16 194.982 141.827C192.471 141.494 190.037 140.751 187.552 140.29C188.039 141.469 188.449 141.366 189.422 142.16C190.524 143.057 192.061 143.262 193.496 143.262C195.341 143.288 197.262 143.031 198.851 142.109" stroke="#CD5000" stroke-width="0.414295" stroke-linecap="round" stroke-linejoin="round"/>
<path d="M289.623 205.263C282.014 207.467 278.273 214.333 277.121 217.612C275.635 221.839 275.302 226.835 277.197 230.909C282.27 241.823 291.75 241.798 297.873 241.9C300.358 241.951 302.818 241.516 305.149 240.619C311.503 238.185 316.243 232.011 316.934 225.247C317.549 219.354 314.757 211.873 309.94 208.133C304.995 204.238 295.311 203.598 289.623 205.263Z" fill="#8095ED"/>
<path d="M218.886 122.843C218.886 126.558 219.347 130.273 220.269 133.859C221.192 137.472 222.575 140.931 224.368 144.184C225.393 146.029 226.546 147.797 227.827 149.488C227.981 149.693 228.314 149.488 228.16 149.283C225.906 146.337 224.061 143.108 222.626 139.701C221.217 136.293 220.218 132.732 219.68 129.094C219.372 127.019 219.244 124.918 219.244 122.817C219.244 122.715 219.167 122.612 219.039 122.612C218.911 122.612 218.886 122.715 218.886 122.843Z" fill="#F6F3EE"/>
<path d="M222.703 146.823C224.599 150.897 228.519 153.613 230.235 157.763C230.722 158.916 230.978 160.172 230.927 161.453C230.927 161.709 231.311 161.709 231.311 161.453C231.516 156.738 227.725 153.331 225.086 149.923C224.292 148.899 223.6 147.823 223.036 146.644C222.934 146.388 222.601 146.593 222.703 146.823Z" fill="#F6F3EE"/>
<path d="M239.741 181.206C239.254 184.126 238.485 186.97 237.435 189.737C236.461 192.299 235.308 194.81 234.155 197.295C233.489 198.704 232.849 200.139 232.208 201.574C232.106 201.804 232.439 201.984 232.541 201.779C234.745 196.68 237.384 191.761 238.946 186.432C239.433 184.767 239.817 183.05 240.125 181.334C240.176 181.078 239.792 180.95 239.741 181.206Z" fill="#F6F3EE"/>
<path d="M247.632 209.952C248.862 216.613 249.835 223.556 248.221 230.243C247.811 232.011 247.171 233.753 246.376 235.393C246.274 235.623 246.607 235.803 246.709 235.598C249.758 229.474 249.835 222.454 248.964 215.793C248.708 213.795 248.375 211.822 247.99 209.849C247.965 209.593 247.581 209.695 247.632 209.952Z" fill="#F6F3EE"/>
<path d="M234.642 202.727C232.695 207.518 231.183 212.488 230.107 217.535C230.056 217.766 230.415 217.868 230.466 217.638C231.542 212.565 233.054 207.62 235.001 202.829C235.103 202.599 234.745 202.522 234.642 202.727Z" fill="#F6F3EE"/>
<path d="M215.094 110.391C216.964 109.443 218.86 108.495 220.73 107.522C222.344 106.728 223.882 105.754 225.291 104.601C226.059 103.961 226.726 103.218 227.315 102.398C227.469 102.193 227.135 102.013 226.982 102.193C224.855 105.19 221.371 106.753 218.194 108.367L214.915 110.033C214.658 110.186 214.863 110.519 215.094 110.391Z" fill="#F6F3EE"/>
<path d="M180.84 99.0927C178.893 97.0687 177.253 94.7373 175.997 92.2009C175.895 91.9703 175.562 92.1753 175.664 92.4058C176.92 94.9679 178.585 97.3249 180.558 99.3746C180.737 99.5539 180.993 99.2721 180.84 99.0927Z" fill="#F6F3EE"/>
<path d="M170.822 112.671C170.259 108.649 170.617 104.524 171.898 100.656C172.257 99.5539 172.692 98.4778 173.205 97.453C173.307 97.2225 172.974 97.0431 172.872 97.2481C170.515 102.065 169.669 107.471 170.463 112.774C170.489 113.005 170.848 112.902 170.822 112.671Z" fill="#F6F3EE"/>
<path d="M154.912 126.301C157.781 126.148 160.446 124.918 162.854 123.406C165.467 121.767 167.927 119.871 170.361 117.975C171.796 116.873 173.179 115.72 174.563 114.542C174.742 114.388 174.486 114.106 174.281 114.26C171.873 116.284 169.413 118.231 166.877 120.101C164.571 121.818 162.214 123.534 159.575 124.713C158.114 125.379 156.526 125.789 154.912 125.892C154.681 125.943 154.681 126.327 154.912 126.301Z" fill="#F6F3EE"/>
<path d="M253.294 153.51L255.369 157.276C256.035 158.481 256.701 159.659 257.239 160.915C257.752 162.119 258.136 163.4 258.367 164.706C258.623 165.91 258.7 167.166 258.648 168.396C258.572 169.805 258.136 171.188 257.393 172.392C257.265 172.597 257.598 172.802 257.726 172.597C259.084 170.42 259.238 167.832 258.879 165.347C258.7 164.015 258.367 162.734 257.905 161.478C257.393 160.172 256.778 158.916 256.086 157.712C255.267 156.252 254.472 154.766 253.652 153.305C253.499 153.1 253.166 153.28 253.294 153.51Z" fill="#F6F3EE"/>
<path d="M193.957 119.717C194.111 118.487 193.88 117.206 193.573 116.028C193.265 114.849 192.881 113.594 192.164 112.62C192.087 112.518 191.831 112.492 191.805 112.671C191.754 113.081 191.574 113.44 191.267 113.748L191.574 113.773C190.703 112.595 189.653 111.57 188.449 110.724C188.346 110.673 188.244 110.699 188.193 110.801C188.193 110.827 188.167 110.827 188.167 110.852C188.064 111.186 188.193 111.467 188.193 111.8C188.193 111.929 188.167 112.21 188.013 112.262C187.859 112.313 187.629 111.98 187.526 111.903C187.014 111.416 186.476 111.006 185.887 110.622C184.708 109.879 183.402 109.392 182.018 109.187C181.762 109.136 181.685 109.52 181.916 109.546C183.53 109.802 185.067 110.443 186.374 111.416C186.707 111.672 187.014 111.929 187.321 112.236C187.526 112.441 187.731 112.697 188.064 112.646C188.321 112.569 188.5 112.364 188.526 112.108C188.628 111.724 188.372 111.339 188.5 110.955L188.218 111.083C189.345 111.903 190.345 112.876 191.19 114.004C191.241 114.106 191.369 114.132 191.472 114.055L191.498 114.029C191.831 113.696 192.061 113.261 192.138 112.8L191.779 112.851C192.497 113.799 192.881 115.029 193.163 116.156C193.445 117.283 193.675 118.564 193.522 119.743C193.522 119.973 193.906 119.973 193.957 119.717Z" fill="#F6F3EE"/>
<path d="M199.824 122.125C200.618 120.46 201.566 118.846 202.924 117.591C203.975 116.694 205.153 115.951 206.434 115.438L206.178 115.182C205.819 115.643 205.538 116.156 205.384 116.72C205.281 117.258 205.768 117.36 206.178 117.309C207.613 117.104 209.048 116.899 210.457 116.72C210.662 116.694 210.61 116.335 210.405 116.335C209.791 116.335 209.252 116.745 209.099 117.334C209.073 117.437 209.124 117.539 209.227 117.565C209.252 117.565 209.304 117.565 209.329 117.565C211.02 117.155 212.788 117.001 214.53 117.104C214.786 117.129 214.786 116.745 214.53 116.72C212.762 116.617 210.969 116.771 209.227 117.181L209.457 117.411C209.56 116.976 209.944 116.694 210.38 116.694L210.329 116.31L207.152 116.771L206.332 116.873C206.076 116.899 205.666 117.053 205.742 116.643C205.819 116.412 205.896 116.207 206.05 116.002C206.178 115.772 206.306 115.567 206.46 115.362C206.588 115.182 206.357 115.029 206.204 115.105C204.897 115.643 203.693 116.386 202.617 117.309C201.233 118.59 200.26 120.255 199.466 121.92C199.363 122.151 199.696 122.356 199.824 122.125Z" fill="#F6F3EE"/>
<path d="M206.229 126.865C208.586 126.404 211.02 127.019 212.839 128.556C213.019 128.71 213.3 128.454 213.121 128.274C211.174 126.66 208.612 125.994 206.127 126.506C205.871 126.558 205.973 126.916 206.229 126.865Z" fill="#F6F3EE"/>
<path d="M185.093 118.82C183.12 117.975 181.019 117.206 178.816 117.539C178.559 117.565 178.687 117.949 178.918 117.924C180.993 117.591 183.017 118.385 184.888 119.179C185.118 119.256 185.323 118.923 185.093 118.82Z" fill="#F6F3EE"/>
<path d="M191.908 128.069C191.318 130.606 194.367 131.4 195.751 131.528C196.161 131.605 196.596 131.528 196.98 131.374C197.211 131.221 197.416 131.016 197.544 130.759C197.8 130.298 197.928 129.76 197.903 129.222C197.877 128.889 197.8 128.556 197.672 128.249C196.852 125.917 192.599 125.2 191.908 128.069Z" fill="black"/>
<path d="M285.96 159.505C290.622 164.732 294.363 170.701 297.053 177.183" stroke="#F6F3EE" stroke-width="0.414295" stroke-linecap="round" stroke-linejoin="round"/>
<path d="M290.469 171.214C290.751 171.701 291.032 172.187 291.289 172.674C293.287 176.312 295.106 180.078 296.669 183.921" stroke="#F6F3EE" stroke-width="0.414295" stroke-linecap="round" stroke-linejoin="round"/>
<path d="M260.698 197.193C261.62 205.058 262.44 213.385 259.058 220.533" stroke="#F6F3EE" stroke-width="0.414295" stroke-linecap="round" stroke-linejoin="round"/>
<path d="M263.055 199.473L263.619 204.059C264.003 207.108 264.387 210.208 263.772 213.231" stroke="#F6F3EE" stroke-width="0.414295" stroke-linecap="round" stroke-linejoin="round"/>
<path d="M260.57 247.818C267.539 248.408 274.226 244.923 279.606 240.465" stroke="#F6F3EE" stroke-width="0.414295" stroke-linecap="round" stroke-linejoin="round"/>
<path d="M269.742 242.746C272.919 241.542 275.814 239.722 278.273 237.417" stroke="#F6F3EE" stroke-width="0.414295" stroke-linecap="round" stroke-linejoin="round"/>
<path d="M263.234 243.975C264.285 244.078 265.335 243.924 266.309 243.54" stroke="#F6F3EE" stroke-width="0.414295" stroke-linecap="round" stroke-linejoin="round"/>
<path d="M237.87 195.604L235.846 200.037" stroke="#F6F3EE" stroke-width="0.414295" stroke-linecap="round" stroke-linejoin="round"/>
<path d="M281.681 152.639L282.962 154.714" stroke="#F6F3EE" stroke-width="0.414295" stroke-linecap="round" stroke-linejoin="round"/>
<path d="M263.26 214.948C263.183 215.819 262.978 216.664 262.645 217.484" stroke="#F6F3EE" stroke-width="0.414295" stroke-linecap="round" stroke-linejoin="round"/>
<path d="M297.668 178.951C298.18 179.925 298.616 180.975 298.949 182.026" stroke="#F6F3EE" stroke-width="0.414295" stroke-linecap="round" stroke-linejoin="round"/>
<path d="M239.664 154.484C239.997 154.048 240.356 153.638 240.74 153.254" stroke="#F6F3EE" stroke-width="0.414295" stroke-linecap="round" stroke-linejoin="round"/>
<path d="M262.338 178.849C262.184 179.233 261.902 179.54 261.569 179.771" stroke="#F6F3EE" stroke-width="0.414295" stroke-linecap="round" stroke-linejoin="round"/>
</svg>
