<svg width="552" height="552" viewBox="0 0 552 552" fill="none" xmlns="http://www.w3.org/2000/svg">
<g clip-path="url(#clip0)">
<path d="M111.779 356.753C117.396 344.2 123.445 331.085 134.462 322.851C145.29 314.755 159.389 312.552 171.303 306.149C198.802 291.369 209.483 258.129 218.803 228.34C228.122 198.55 241.867 165.559 271.215 154.901C282.545 150.788 295.2 150.549 305.89 144.978C322.344 136.413 331.489 116.601 349.006 110.511C368.225 103.831 389.118 116.868 401.335 133.138C413.553 149.408 420.655 169.161 433.637 184.842C444.102 197.497 457.938 206.968 468.863 219.227C492.751 246.036 500.488 286.217 488.271 319.967C486.086 326.007 483.271 331.904 479.135 336.821C475.34 341.339 470.552 344.894 465.721 348.28C437.899 367.81 407.413 383.237 375.198 394.087C351.421 402.091 326.388 407.753 305.278 421.337C271.399 443.187 250.777 483.552 213.6 499.192C196.41 506.423 177.338 507.541 158.699 508.056C150.189 508.291 141.555 508.406 133.312 506.281C114.755 501.497 100.509 485.631 93.5033 467.793C76.9755 425.693 94.7591 394.768 111.779 356.753Z" fill="#8095ED"/>
<path d="M181.557 390.209C170.627 391.616 157.876 395.365 154.55 405.849C150.907 417.349 161.965 428.959 173.705 431.751C185.444 434.544 197.689 431.659 209.75 431.425C230.979 431.011 251.61 438.831 272.812 439.705C283.852 440.165 302.017 445.758 313.029 446.642C359.029 450.322 406.616 437.106 420.817 432.842C424.267 431.802 428.025 430.325 429.557 427.064C430.601 424.842 430.251 422.266 430.109 419.819C428.949 399.74 357.879 407.123 357.383 402.615C357.042 399.395 356.573 395.894 354.259 393.627C352.392 391.787 349.687 391.143 347.12 390.604C320.468 385.02 288.815 380.213 261.739 385.245C235.464 390.131 208.31 386.773 181.557 390.209Z" fill="#273CB3"/>
<path d="M276.46 430.73C268.341 431.103 260.42 433.196 252.471 434.87C240.051 437.515 227.203 439.286 215.97 445.193C204.737 451.099 195.219 462.374 195.753 475.051C196.259 487.076 205.509 497.058 215.781 503.337C227.499 510.472 240.95 514.257 254.67 514.28C264.79 514.28 274.799 512.224 284.717 510.177L316.99 503.516C321.379 502.596 325.882 501.676 329.659 499.247C337.69 494.118 340.565 483.18 338.367 473.906C332.423 448.887 300.941 429.613 276.46 430.73Z" fill="#B7C3F9"/>
<path d="M58.291 314.714C69.2114 316.618 79.6258 320.73 89.663 325.436C108.394 334.218 126.546 345.57 138.883 362.167C151.22 378.764 156.874 401.433 149.242 420.661C146.294 428.094 139.476 435.629 131.666 433.904C122.976 431.981 120.819 419.184 126.302 412.178C131.785 405.173 141.482 403.047 150.355 402.753C170.815 402.131 190.855 408.635 207.05 421.153C221.77 432.653 231.522 449.438 246.348 460.667C263.157 473.395 282.78 477.149 303.416 477.094C326.784 477.029 348.666 471.85 369.067 462.962" stroke="#FFFAF3" stroke-width="0.782" stroke-linecap="round" stroke-linejoin="round"/>
<path d="M259.932 125.483C247.889 129.439 239.232 141.974 239.826 154.638C240.161 161.929 243.685 169.413 250.111 172.882C256.091 176.102 263.313 175.421 269.919 176.934C277.817 178.747 284.988 183.742 293.089 183.926C304.474 184.184 314.566 173.461 314.631 162.076C314.718 147.384 303.738 143.617 293.761 136.675C282.803 129.053 274.786 120.607 259.932 125.483Z" fill="#B7C3F9"/>
<path d="M118.22 200.486C125.685 204.626 134.412 205.813 142.935 206.379C150.622 206.889 158.447 206.949 165.908 205.022C177.845 201.935 187.877 194.06 197.524 186.383C209.419 176.911 221.927 166.603 226.504 152.085C229.862 141.468 228.472 129.959 226.223 119.057C225.234 114.241 224.038 109.365 221.43 105.197C218.822 101.03 214.93 97.8096 210.979 94.8656C196.746 84.2856 178.871 75.8538 161.648 80.1456C153.962 82.0546 147.117 86.3418 140.419 90.56L115.745 106.108C111.002 109.093 106.2 112.134 102.455 116.306C98.6329 120.575 96.0845 125.86 94.3687 131.325C87.9655 151.8 98.0625 189.299 118.22 200.486Z" fill="#8095ED"/>
<path d="M134.132 178.775C145.098 180.269 156.213 180.32 167.192 178.926C169.294 178.66 171.438 178.324 173.31 177.335C177.768 174.98 179.621 169.602 180.463 164.63C184.336 141.777 177.528 118.933 168.604 97.5432C169.29 99.19 144.073 107.553 141.851 108.206C133.056 110.796 127.195 109.586 128.837 119.614C132.103 139.56 135.885 158.443 134.132 178.775Z" fill="#F6F3EE"/>
<path d="M140.935 159.887C140.13 159.887 139.592 160.894 139.868 161.649C140.033 162.017 140.302 162.329 140.642 162.546C140.982 162.764 141.378 162.877 141.782 162.872C142.588 162.847 143.377 162.627 144.082 162.233C145.984 161.347 147.754 160.203 149.344 158.833C150.407 157.886 151.681 156.924 152.32 155.613C153.544 153.106 151.4 153.548 150.062 154.992C149.708 155.352 149.442 155.788 149.282 156.266C149.123 156.744 149.075 157.253 149.142 157.752C149.223 158.165 149.399 158.554 149.654 158.889C149.909 159.224 150.237 159.496 150.614 159.684C152.555 160.632 154.754 158.889 156.318 157.895C157.882 156.901 164.621 153.056 166.051 155.084C166.213 155.351 166.292 155.66 166.277 155.972C166.265 156.701 166.102 157.42 165.797 158.082C165.492 158.744 165.052 159.335 164.506 159.818C164.251 160.087 163.915 160.267 163.549 160.328C163.366 160.35 163.182 160.299 163.035 160.188C162.889 160.076 162.791 159.912 162.762 159.73C162.762 159.335 163.167 159.073 163.53 158.916C166.29 157.743 169.598 157.394 172.556 157.214" stroke="#273CB3" stroke-width="0.782" stroke-linecap="round" stroke-linejoin="round"/>
<path d="M107.427 144.44C105.224 152.03 109.635 160.397 116.213 164.776C122.791 169.156 131.03 170.264 138.919 170.2C161.026 169.939 182.298 161.721 198.839 147.053C205.624 140.99 211.719 133.404 213.048 124.402C214.377 115.4 209.23 100.238 200.559 102.948C190.641 106.039 194.381 123.188 199.998 131.928C205.614 140.668 214.989 146.248 224.465 150.493C245.1 159.711 267.591 164.022 290.172 163.088C306.465 162.394 323.627 158.419 335.077 146.809C337.046 144.817 338.913 142.338 338.78 139.541C338.605 135.801 334.64 133.064 330.918 133.101C327.197 133.138 323.77 135.309 321.015 137.848C298.668 158.488 311.253 198.729 292.679 222.824C288.64 228.063 282.384 232.484 275.856 231.389C265.677 229.682 262.305 215.211 267.783 206.462C273.262 197.712 283.796 193.724 293.737 190.941C313.254 185.476 334.079 182.459 353.748 187.358C384.426 195.003 407.656 220.478 437.33 231.389C447.91 235.267 459.084 237.217 470.303 238.082C478.91 238.749 487.65 238.786 496.091 236.964C518.079 232.231 535.416 215.731 555.661 205.937" stroke="#FFFAF3" stroke-width="0.782" stroke-linecap="round" stroke-linejoin="round"/>
<path d="M170.797 158.332C169.169 161.428 168.088 164.772 166.611 167.955C162.738 176.281 156.294 183.103 151.431 190.891C147.158 197.74 144.14 205.28 141.146 212.778L128.97 243.248C126.481 249.472 123.302 255.668 122.783 262.343C119.829 300.38 156.169 342.7 162.605 375.319C164.592 385.388 167.771 400.545 168.585 410.78C168.994 415.872 180.112 413.54 184.685 411.24C191.125 408.02 192.565 391.101 192.045 381.34C191.221 365.847 182.794 364.476 177.122 350.06C173.829 341.67 171.446 332.056 175.126 323.84C176.409 320.97 178.346 318.463 180.296 315.983C188.622 305.316 197.234 294.188 200.122 280.963C202.717 269.072 200.73 255.53 207.942 245.727C213.002 238.864 221.48 235.506 227.778 229.765C233.1 224.917 237.226 218.132 244.098 216.002C247.171 215.05 250.538 215.147 253.496 213.918C256.454 212.69 264.297 212.686 262.885 209.778C261.965 207.892 257.365 203.007 255.525 201.958C222.865 183.098 222.865 176.658 212.285 166.998C209.166 164.151 198.485 162.398 189.285 160.558C187.905 156.878 184.685 149.518 181.258 145.802C177.003 147.853 173.005 154.141 170.797 158.332Z" fill="#FF9739"/>
<path d="M215.092 150.135C215.32 149.919 215.619 149.793 215.933 149.781C216.518 149.84 216.711 150.581 216.757 151.161C217.295 157.886 217.783 164.938 215.055 171.111C214.369 172.67 206.503 173.038 205.064 172.546C202.267 171.589 199.084 169.887 199.143 166.874C199.268 160.305 210.505 153.608 215.092 150.135Z" fill="#FF9739"/>
<path d="M267.26 256.542C273.911 256.491 302.445 251.16 330.045 261.28C334.599 262.95 340.069 269.219 343.845 272.292C352.824 279.652 358.064 290.577 361.951 301.507C366.21 313.467 369.205 326.264 367.572 338.877C365.939 351.49 359.007 363.943 347.613 369.578C342.41 372.154 336.223 373.193 330.744 371.275C328.145 370.355 325.818 368.846 323.513 367.337L315.04 361.785C313.485 360.778 302.91 357.42 308.43 333.96C271.846 330.602 265.19 354.66 203.131 349.489C200.04 349.232 196.829 349.029 194.851 346.637C192.873 344.245 192.579 341.002 192.662 337.948C193.011 324.64 199.18 312.018 207.515 301.636C208.996 299.796 210.583 297.956 211.282 295.656C211.807 293.981 211.802 292.192 211.798 290.439C211.779 276.799 212.167 263.169 212.961 249.55C213.279 244.108 215.634 239.048 218.744 234.577C220.85 231.55 238.064 223.537 238.064 226.297C234.844 227.217 226.269 234.614 226.104 238.717C225.63 250.24 256.574 256.615 267.26 256.542Z" fill="#FF9739"/>
<path d="M270.241 353.975C272.582 360.194 276.17 365.861 279.975 371.307C280.513 372.076 281.092 372.876 281.953 373.253C282.983 373.713 284.179 373.465 285.278 373.198C296.883 370.403 308.262 366.742 319.318 362.245C320.036 361.956 320.8 361.615 321.181 360.944C321.425 360.422 321.535 359.848 321.503 359.274C321.698 350.207 321.028 341.142 319.502 332.203C319.042 329.443 318.426 326.595 316.673 324.424C315.293 322.722 313.334 321.595 311.305 320.772C303.904 317.754 295.38 318.361 287.873 321.112C282.196 323.196 271.773 327.81 268.553 333.233C265.379 338.514 268.263 348.735 270.241 353.975Z" fill="#FF9739"/>
<path d="M437.745 351.44C433.646 368.598 407.33 409.4 357.42 413.931C352.061 414.419 346.734 415.398 341.352 415.311C332.322 415.15 323.449 413.089 314.621 411.171C312.781 410.775 310.941 410.391 309.101 410.016C304.846 405.936 284.229 402.399 272.55 401.566C277.831 398.539 300.61 392.826 319.93 388.686C310.472 386.543 284.05 393.746 274.85 395.586C284.05 386.846 292.33 379.486 298.31 378.566C290.03 379.486 284.317 378.934 274.85 382.706C279.965 373.966 293.655 366.956 300.987 361.818C303.692 360.769 306.441 359.838 309.235 359.025C315.675 357.153 322.253 355.902 328.651 353.965C346.116 348.598 361.627 338.236 373.271 324.157C376.031 320.818 378.566 317.225 379.997 313.145C382.757 305.261 380.967 296.304 376.827 289.046C374.923 285.706 372.37 282.509 368.814 281.037C365.838 279.809 362.48 279.924 359.297 280.398C353.045 281.318 361.137 303.025 355.791 306.365C349.6 304.934 330.28 280.209 328.955 273.981C327.98 269.381 327.607 265.011 326.269 260.553C337.258 263.677 347.401 266.073 358.965 264.344C366.385 263.249 373.685 260.82 381.165 260.935C391.929 261.101 401.253 267.573 409.91 273.976C427.57 287.04 435.059 309.171 436.59 314.456C437.708 318.357 438.039 322.437 438.366 326.485C439.024 334.816 439.682 343.303 437.745 351.44Z" fill="#FF9739"/>
<path d="M172.44 340.193C170.683 343.749 168.723 348.528 168.438 352.489C168.208 355.631 170.512 358.887 171.713 361.795C172.771 364.361 174.675 366.464 176.502 368.552C187.753 381.432 195.472 399.446 207.46 411.64C207.633 411.865 207.876 412.026 208.15 412.1C208.61 412.155 208.95 411.76 209.203 411.396C212.009 407.399 214.847 398.677 214.723 393.797C214.599 388.916 213.49 384.137 212.368 379.367C211.448 375.567 210.565 371.749 208.996 368.17C208.173 366.289 207.156 364.49 206.567 362.512C205.072 357.599 206.296 352.185 208.715 347.659C211.135 343.132 214.663 339.305 218.086 335.478C223.606 329.332 228.937 322.989 233.146 315.896C235.998 311.075 235.303 298.692 234.701 298.278C233.353 297.358 231.508 297.873 230.004 298.531C223.155 301.544 219.111 306.107 214.649 311.765C209.833 317.86 178.71 327.52 172.44 340.193Z" fill="#FF9739"/>
<path d="M214.084 214.479C209.548 213.311 205.537 210.188 200.854 210.04C196.172 209.893 190.923 213.306 191.25 217.98C191.461 220.998 193.812 223.348 195.578 225.8C197.345 228.252 198.531 231.863 196.535 234.14C195.808 234.963 194.782 235.446 193.826 235.98C188.057 239.223 184.106 244.941 181.056 250.815C176.801 258.994 173.852 268.433 175.996 277.403C177.04 281.768 179.253 285.862 179.676 290.329C180.196 295.987 177.781 301.465 175.315 306.581C171.658 314.161 167.73 321.724 165.83 329.921C163.93 338.118 164.275 347.217 168.765 354.333C169.97 346.38 175.03 335.34 181.01 331.66C188.301 327.175 205.054 319.171 212.253 314.543C219.452 309.916 226.513 299.414 228.473 291.083C231.15 279.68 228.85 272.78 225.63 264.96C223.956 260.889 221.375 253.869 220.63 249.527C220.009 245.893 219.94 241.96 221.734 238.74C224.899 233.063 232.268 231.762 238.386 229.577C241.394 228.505 265.222 215.363 261.05 210.68C259.67 209.111 250.893 212.902 248.63 213.44C243.883 214.571 226.09 217.58 214.084 214.479Z" fill="#F6F3EE"/>
<path d="M264.04 208.104C263.208 206.434 261.575 207.143 259.707 207.087C258.479 207.046 257.034 207.152 256.367 208.178C255.7 209.203 256.225 210.652 256.786 211.793C257.094 212.563 257.576 213.251 258.194 213.803C259.574 214.866 261.703 214.296 262.909 213.031C264.114 211.766 264.611 209.3 264.04 208.104Z" fill="black"/>
<path d="M210.45 195.5C212.823 193.931 215.225 192.984 217.653 193.333C220.082 193.683 222.713 194.681 223.569 196.986C223.82 197.569 223.844 198.225 223.638 198.826C222.971 200.413 220.653 200.123 219.038 199.507C216.074 198.368 213.183 197.048 210.381 195.555" fill="white"/>
<path d="M210.45 195.5C212.823 193.931 215.225 192.984 217.653 193.333C220.082 193.683 222.713 194.681 223.569 196.986C223.82 197.569 223.844 198.225 223.638 198.826C222.971 200.413 220.653 200.123 219.038 199.507C216.074 198.368 213.183 197.048 210.381 195.555" stroke="#F9F9F9" stroke-width="0.782" stroke-linecap="round" stroke-linejoin="round"/>
<path d="M218.412 198.223C218.743 199.364 219.709 200.151 221.241 199.493C222.506 198.945 222.989 196.88 222.538 195.679C222.087 194.479 220.123 194.166 219.212 195.008C218.806 195.425 218.518 195.942 218.378 196.507C218.237 197.072 218.249 197.664 218.412 198.223Z" fill="black"/>
<path d="M215.712 190.656C213.015 190.354 210.295 190.972 207.993 192.409" stroke="#FFFAF3" stroke-width="0.782" stroke-linecap="round" stroke-linejoin="round"/>
<path d="M214.719 155.866C211.75 158.504 209.459 161.817 208.04 165.526C209.88 166.713 212.01 167.55 213.169 169.404" stroke="#FFFAF3" stroke-width="0.782" stroke-linecap="round" stroke-linejoin="round"/>
<path d="M181.125 149.56C178.857 153.547 177.404 157.946 176.852 162.5" stroke="#FFFAF3" stroke-width="0.782" stroke-linecap="round" stroke-linejoin="round"/>
<path d="M208.734 347.645C211.154 343.114 214.682 339.291 218.105 335.464C223.625 329.319 228.956 322.975 233.165 315.882C234.668 313.455 235.804 310.82 236.537 308.062" stroke="#FFFAF3" stroke-width="0.782" stroke-linecap="round" stroke-linejoin="round"/>
<path d="M173.42 350.276C172.923 352.792 172.422 355.336 172.762 357.898C173.116 360.539 174.354 362.958 175.66 365.3C178.659 370.65 182.1 375.728 185.555 380.802L189.437 386.524" stroke="#FFFAF3" stroke-width="0.782" stroke-linecap="round" stroke-linejoin="round"/>
<path d="M180.439 362.986C182.96 367.438 185.738 371.739 188.761 375.866" stroke="#FFFAF3" stroke-width="0.782" stroke-linecap="round" stroke-linejoin="round"/>
<path d="M190.481 378.626L192.671 381.579" stroke="#FFFAF3" stroke-width="0.782" stroke-linecap="round" stroke-linejoin="round"/>
<path d="M208.256 397.858C209.761 398.945 211.094 400.25 212.212 401.732" stroke="#FFFAF3" stroke-width="0.782" stroke-linecap="round" stroke-linejoin="round"/>
<path d="M211.044 392.435C212.027 392.943 212.894 393.652 213.588 394.514" stroke="#FFFAF3" stroke-width="0.782" stroke-linecap="round" stroke-linejoin="round"/>
<path d="M211.173 387.389C211.663 387.406 212.143 387.54 212.571 387.78C212.999 388.02 213.364 388.359 213.634 388.769" stroke="#FFFAF3" stroke-width="0.782" stroke-linecap="round" stroke-linejoin="round"/>
<path d="M176.507 405.407C176.631 407.887 176.742 410.467 175.794 412.767C175.707 412.979 175.559 413.227 175.334 413.227" stroke="#FFFAF3" stroke-width="0.782" stroke-linecap="round" stroke-linejoin="round"/>
<path d="M182.974 405.297C183.199 407.3 183.051 409.328 182.537 411.277" stroke="#FFFAF3" stroke-width="0.782" stroke-linecap="round" stroke-linejoin="round"/>
<path d="M187.22 403.623C187.303 405.328 187.335 407.036 187.316 408.747" stroke="#FFFAF3" stroke-width="0.782" stroke-linecap="round" stroke-linejoin="round"/>
<path d="M215.934 183.052C213.884 180.695 211.493 178.657 208.84 177.008C208.781 176.977 208.713 176.963 208.646 176.969C208.578 176.974 208.514 176.999 208.46 177.04C208.406 177.081 208.366 177.137 208.343 177.201C208.319 177.264 208.315 177.333 208.33 177.399L209.25 181.47L209.678 181.047C206.145 180.412 203.123 177.22 199.36 178.025C199.294 178.043 199.236 178.08 199.191 178.131C199.147 178.182 199.118 178.245 199.11 178.312C199.101 178.38 199.112 178.448 199.142 178.509C199.171 178.57 199.219 178.621 199.277 178.655C200.489 179.242 201.474 180.212 202.078 181.415L202.469 180.909C199.452 180.168 196.411 179.239 193.32 178.853C190.721 178.531 188.012 178.742 185.896 180.43C185.551 180.706 186.043 181.194 186.388 180.918C188.467 179.257 191.255 179.225 193.771 179.607C196.641 180.039 199.466 180.881 202.285 181.576C202.351 181.592 202.42 181.589 202.484 181.566C202.548 181.544 202.604 181.504 202.646 181.45C202.687 181.397 202.712 181.332 202.718 181.265C202.723 181.197 202.709 181.129 202.676 181.07C202.013 179.764 200.94 178.71 199.622 178.071L199.539 178.701C201.338 178.319 203.049 179.032 204.641 179.8C206.232 180.568 207.759 181.41 209.494 181.718C209.552 181.733 209.613 181.732 209.671 181.716C209.729 181.7 209.782 181.669 209.825 181.626C209.867 181.584 209.898 181.531 209.914 181.473C209.93 181.415 209.931 181.354 209.917 181.295L208.997 177.224L208.491 177.615C211.09 179.235 213.431 181.235 215.437 183.549C215.727 183.885 216.214 183.397 215.924 183.062L215.934 183.052Z" fill="#F6F3EE"/>
<path d="M132.282 243.418C126.99 257.322 126.028 272.501 129.522 286.962" stroke="#FFFAF3" stroke-width="0.782" stroke-linecap="round" stroke-linejoin="round"/>
<path d="M131.588 262.78C130.907 268.383 131.566 274.068 133.51 279.367" stroke="#FFFAF3" stroke-width="0.782" stroke-linecap="round" stroke-linejoin="round"/>
<path d="M167.404 174.018C160.126 184.114 154.39 195.236 150.384 207.018" stroke="#FFFAF3" stroke-width="0.782" stroke-linecap="round" stroke-linejoin="round"/>
<path d="M215.211 177.5C216.797 179.188 218.281 180.97 219.655 182.836" stroke="#FFFAF3" stroke-width="0.782" stroke-linecap="round" stroke-linejoin="round"/>
<path d="M196.163 203.168C193.448 203.073 190.759 203.723 188.387 205.047C186.016 206.371 184.052 208.319 182.708 210.68" stroke="#FFFAF3" stroke-width="0.782" stroke-linecap="round" stroke-linejoin="round"/>
<path d="M189.588 207.653C188.21 208.603 187.061 209.849 186.226 211.3C185.391 212.751 184.891 214.37 184.763 216.039" stroke="#FFFAF3" stroke-width="0.782" stroke-linecap="round" stroke-linejoin="round"/>
<path d="M184.258 218.61C184.179 219.774 184.204 220.942 184.332 222.102" stroke="#FFFAF3" stroke-width="0.782" stroke-linecap="round" stroke-linejoin="round"/>
<path d="M182.62 237.047C180.992 239.706 178.844 241.997 176.985 244.499C168.705 255.631 166.502 270.181 166.488 284.059" stroke="#FFFAF3" stroke-width="0.782" stroke-linecap="round" stroke-linejoin="round"/>
<path d="M170.314 246.348C168.333 248.216 166.809 250.516 165.862 253.069C164.917 255.613 164.269 258.257 163.93 260.949" stroke="#FFFAF3" stroke-width="0.782" stroke-linecap="round" stroke-linejoin="round"/>
<path d="M163.585 263.608L163.318 267.145" stroke="#FFFAF3" stroke-width="0.782" stroke-linecap="round" stroke-linejoin="round"/>
<path d="M131.045 290.899C131.417 292.752 132 294.557 132.784 296.277" stroke="#FFFAF3" stroke-width="0.782" stroke-linecap="round" stroke-linejoin="round"/>
<path d="M163.971 372.554C164.147 374.835 164.538 377.094 165.139 379.302C166.114 383.359 167.091 387.413 168.069 391.465" stroke="#FFFAF3" stroke-width="0.782" stroke-linecap="round" stroke-linejoin="round"/>
<path d="M168.65 394.059C168.822 395.22 169.123 396.359 169.547 397.454" stroke="#FFFAF3" stroke-width="0.782" stroke-linecap="round" stroke-linejoin="round"/>
<path d="M236.928 299.06C237.652 300.594 237.891 302.313 237.613 303.986" stroke="#FFFAF3" stroke-width="0.782" stroke-linecap="round" stroke-linejoin="round"/>
<path d="M269.196 340.832C276.096 339.807 282.297 336.099 288.875 333.739C296.05 331.173 303.699 330.206 311.286 330.906C308.738 334.331 307.032 338.307 306.304 342.513C305.576 346.719 305.847 351.038 307.096 355.12" stroke="#FFFAF3" stroke-width="0.782" stroke-linecap="round" stroke-linejoin="round"/>
<path d="M271.128 346.661L273.244 351.79C275.383 356.969 277.752 362.443 282.38 365.59" stroke="#FFFAF3" stroke-width="0.782" stroke-linecap="round" stroke-linejoin="round"/>
<path d="M278.498 355.814C280 358.253 281.91 360.415 284.147 362.204" stroke="#FFFAF3" stroke-width="0.782" stroke-linecap="round" stroke-linejoin="round"/>
<path d="M234.866 253.138C244.416 259.274 256.298 260.654 267.641 260.121C278.985 259.587 293.249 258.06 306.594 258.686" stroke="#FFFAF3" stroke-width="0.782" stroke-linecap="round" stroke-linejoin="round"/>
<path d="M311.513 259.394C314.375 259.765 317.207 260.334 319.99 261.096" stroke="#FFFAF3" stroke-width="0.782" stroke-linecap="round" stroke-linejoin="round"/>
<path d="M247.705 262.517C254.164 264.282 260.914 264.714 267.545 263.787" stroke="#FFFAF3" stroke-width="0.782" stroke-linecap="round" stroke-linejoin="round"/>
<path d="M271.773 263.313L277.937 262.435" stroke="#FFFAF3" stroke-width="0.782" stroke-linecap="round" stroke-linejoin="round"/>
<path d="M309.244 359.034C315.684 357.162 322.262 355.911 328.661 353.974C346.125 348.607 361.636 338.245 373.281 324.166C376.041 320.827 378.575 317.234 380.006 313.154" stroke="#FFFAF3" stroke-width="0.782" stroke-linecap="round" stroke-linejoin="round"/>
<path d="M286.207 400.499C299.372 401.419 309.133 407.505 313.931 412.109C302.017 409.694 289.956 407.827 277.826 408.278C263.566 408.802 249.09 412.786 238.063 421.82C250.571 392.711 275.287 369.155 304.763 357.728C296.483 363.524 289.059 369.983 283.295 379.845C293.967 375.585 304.386 374.937 312.119 376.625C305.394 377.66 298.65 379.739 288.282 389.62C298.65 387.541 315.477 385.641 326.14 388.061C304.359 392.716 292.159 397.086 286.207 400.499Z" fill="#F6F3EE"/>
<path d="M314.503 336.692C313.014 338.645 312.096 340.974 311.853 343.418C311.779 344.336 311.753 345.257 311.775 346.178C311.736 347.648 311.846 349.118 312.102 350.566" stroke="#FFFAF3" stroke-width="0.782" stroke-linecap="round" stroke-linejoin="round"/>
<path d="M354.66 295.288C360.172 305.046 363.155 316.029 363.336 327.235" stroke="#FFFAF3" stroke-width="0.782" stroke-linecap="round" stroke-linejoin="round"/>
<path d="M355.751 308.273C358.111 313.26 358.971 319.773 359.031 324.76" stroke="#FFFAF3" stroke-width="0.782" stroke-linecap="round" stroke-linejoin="round"/>
<path d="M425.79 303.55C432.623 320.519 434.031 339.19 429.82 356.992" stroke="#FFFAF3" stroke-width="0.782" stroke-linecap="round" stroke-linejoin="round"/>
<path d="M424.994 321.715C425.79 326.533 426.116 331.416 425.969 336.297" stroke="#FFFAF3" stroke-width="0.782" stroke-linecap="round" stroke-linejoin="round"/>
<path d="M420.478 293.208L423.472 298.899" stroke="#FFFAF3" stroke-width="0.782" stroke-linecap="round" stroke-linejoin="round"/>
<path d="M342.056 156.469C336.738 172.789 329.76 188.521 321.231 203.417C336.438 213.341 354.05 218.957 372.195 219.668C374.688 219.76 377.342 219.719 379.454 218.39C381.018 217.405 382.094 215.832 383.097 214.277C401.428 185.84 406.87 155.48 406.281 117.038C406.506 118.11 356.426 119.223 352.971 120.525C347.484 122.595 347.967 126.454 347.451 131.753C346.556 140.163 344.747 148.451 342.056 156.469Z" fill="#F6F3EE"/>
<path d="M177.178 437.322C162.61 460 136.938 479.081 134.32 479.32C132.48 479.49 130.718 478.754 129.053 477.991C104.029 466.587 80.8958 451.311 68.9128 426.54C68.5172 425.73 68.1262 424.801 68.4528 423.954C68.7932 423.007 69.8328 422.574 70.785 422.202C80.5554 418.49 92.0186 408.218 100.257 401.796C111.9 392.725 109.963 392.348 121.16 401.939C140.07 418.14 155.811 431.853 177.178 437.322Z" fill="#F6F3EE"/>
<path d="M93.1365 446.283C92.4388 444.934 92.2195 443.389 92.5145 441.9C92.8095 440.411 93.6013 439.066 94.7603 438.085C95.1679 437.73 95.6583 437.484 96.1863 437.368C97.3731 437.17 98.5277 438.058 99.0383 439.143C99.5489 440.229 99.5673 441.48 99.5765 442.681C99.5765 443.78 99.0015 445.335 97.9711 444.953C97.4283 444.751 97.2397 444.075 97.2305 443.49C97.1753 438.564 104.181 435.749 104.071 430.827C104.086 430.563 104.047 430.298 103.956 430.05C103.865 429.801 103.724 429.574 103.542 429.382C102.544 428.494 101.03 429.727 100.501 430.955C99.7099 432.795 99.5811 435.049 100.644 436.751C101.706 438.453 104.204 439.277 105.869 438.131C108.473 436.365 107.171 432.216 108.441 429.336C108.86 428.396 109.557 427.607 110.437 427.073C111.477 426.447 112.917 426.263 113.846 427.041C114.775 427.818 114.568 429.69 113.386 429.911C112.696 427.611 114.881 425.468 117.011 424.35C119.14 423.232 121.68 422.257 122.572 420.021C122.74 419.664 122.817 419.271 122.796 418.877C122.775 418.483 122.657 418.1 122.452 417.763C121.992 417.132 120.884 416.985 120.433 417.634" stroke="#273CB3" stroke-width="0.782" stroke-linecap="round" stroke-linejoin="round"/>
<path d="M103.661 456.03C105.211 457.488 107.967 456.693 109.181 454.935C110.396 453.178 110.396 450.883 110.129 448.771C108.569 449.075 107.751 451.071 108.316 452.539C108.882 454.006 110.446 454.94 112.019 455.17C112.444 455.263 112.887 455.213 113.28 455.027C113.804 454.719 113.988 454.066 114.131 453.473L116.431 443.734C116.739 442.446 117.125 441.039 118.216 440.284C119.701 439.254 121.969 440.077 122.793 441.664C123.616 443.251 123.188 445.312 122.103 446.757C120.994 443.389 122.935 439.318 126.243 438.063C127.061 437.75 127.949 437.603 128.685 437.115C129.775 436.411 130.341 435.151 130.852 433.959C131.399 432.685 131.804 430.905 130.636 430.169C129.223 429.277 127.623 431.181 127.383 432.837C127.248 433.566 127.297 434.317 127.526 435.022C128.303 437.115 131.289 437.626 133.202 436.476C135.116 435.326 136.1 433.108 136.666 430.956C137.232 428.803 137.508 426.535 138.506 424.543C139.504 422.551 141.519 420.863 143.741 421.052" stroke="#273CB3" stroke-width="0.782" stroke-linecap="round" stroke-linejoin="round"/>
<path d="M119.029 464.273C119.696 466.146 122.484 466.504 124.016 465.244C125.547 463.984 125.938 461.753 125.621 459.793C125.578 459.371 125.431 458.967 125.193 458.615C125.065 458.451 124.903 458.317 124.717 458.222C124.532 458.127 124.328 458.074 124.12 458.065C123.912 458.057 123.705 458.094 123.513 458.174C123.32 458.254 123.148 458.374 123.007 458.527C122.866 458.681 122.76 458.863 122.696 459.061C122.632 459.259 122.613 459.469 122.638 459.675C122.664 459.882 122.734 460.081 122.844 460.257C122.954 460.434 123.101 460.585 123.275 460.699C124.5 461.06 125.815 460.947 126.96 460.383C128.106 459.819 128.997 458.845 129.457 457.654C130.4 454.917 128.938 451.444 130.814 449.241C130.942 449.064 131.109 448.919 131.302 448.82C131.496 448.72 131.71 448.667 131.928 448.666C132.415 448.721 132.746 449.176 132.981 449.586C133.656 450.815 134.08 452.166 134.228 453.56C134.434 452.398 134.946 451.312 135.712 450.413C136.478 449.515 137.469 448.837 138.584 448.449C139.184 448.295 139.772 448.1 140.346 447.865C142.397 446.853 142.843 444.185 143.037 441.885C143.11 440.993 142.912 439.765 142.02 439.728C141.463 439.705 141.036 440.229 140.861 440.758C140.649 441.492 140.728 442.279 141.082 442.956C141.436 443.633 142.037 444.148 142.761 444.392C144.909 445.036 146.993 442.975 147.65 440.832C148.308 438.688 148.11 436.351 148.81 434.222" stroke="#273CB3" stroke-width="0.782" stroke-linecap="round" stroke-linejoin="round"/>
<path d="M138.833 461.964C139.629 462.493 140.724 461.881 141.253 461.086C142.002 459.954 142.127 458.537 142.426 457.212C142.725 455.888 143.346 454.452 144.606 453.951C145.033 453.78 145.499 453.728 145.954 453.801C146.408 453.873 146.834 454.069 147.187 454.365C147.531 454.672 147.782 455.071 147.909 455.515C148.036 455.958 148.034 456.429 147.904 456.872C147.32 455.57 147.904 453.997 148.902 452.957C149.901 451.918 151.202 451.255 152.366 450.45C153.53 449.645 154.666 448.61 155.002 447.198C155.115 446.821 155.119 446.419 155.012 446.039C154.905 445.659 154.693 445.318 154.399 445.055C154.112 444.859 153.776 444.747 153.429 444.733C152.852 444.689 152.278 444.842 151.8 445.167C151.322 445.492 150.969 445.97 150.798 446.522C150.732 446.8 150.723 447.087 150.77 447.368C150.818 447.65 150.921 447.918 151.074 448.159C151.227 448.399 151.427 448.607 151.661 448.769C151.896 448.931 152.161 449.045 152.44 449.103" stroke="#273CB3" stroke-width="0.782" stroke-linecap="round" stroke-linejoin="round"/>
<path d="M111.49 407.583C112.721 406.372 114.03 405.244 115.409 404.207" stroke="#CD5000" stroke-width="0.782" stroke-linecap="round" stroke-linejoin="round"/>
<path d="M112.589 403.263C112.878 404.811 113.507 406.275 114.429 407.551" stroke="#CD5000" stroke-width="0.782" stroke-linecap="round" stroke-linejoin="round"/>
<path d="M105.014 419.391C104.117 415.169 103.215 410.886 103.482 406.58C106.316 409.175 108.262 412.39 110.014 415.813" stroke="#CD5000" stroke-width="0.782" stroke-linecap="round" stroke-linejoin="round"/>
<path d="M102.806 415.978C103.061 415.432 103.413 414.936 103.845 414.515C105.409 412.823 107.129 411.283 108.983 409.915" stroke="#CD5000" stroke-width="0.782" stroke-linecap="round" stroke-linejoin="round"/>
<path d="M133.594 132.48C134.375 131.232 135.413 130.166 136.639 129.352C137.265 128.938 139.542 127.401 140.199 128.087C140.404 128.351 140.518 128.673 140.526 129.007C140.88 131.799 140.669 134.881 138.852 137.029C138.649 137.273 138.313 137.521 138.042 137.356C137.93 137.272 137.847 137.154 137.807 137.02C137.347 135.838 137.761 134.458 138.52 133.441C139.343 132.469 140.31 131.629 141.386 130.948C142.461 130.269 143.39 129.382 144.119 128.34C143.549 128.821 143.12 129.448 142.877 130.153C142.634 130.858 142.586 131.616 142.739 132.346C142.765 132.565 142.841 132.775 142.959 132.96C143.078 133.146 143.237 133.302 143.424 133.418C144.137 133.754 144.891 133.064 145.379 132.443C146.882 130.52 148.38 128.593 149.873 126.661C150.494 125.851 151.304 124.959 152.316 125.065C153.489 125.189 154.087 126.716 153.654 127.825C153.45 128.347 153.12 128.811 152.693 129.176C152.266 129.54 151.755 129.793 151.207 129.913C151.406 129.48 151.642 129.065 151.911 128.671C152.322 128.134 152.807 127.657 153.351 127.254C154.34 126.532 155.72 126.215 156.792 126.794C157.252 127.047 157.647 127.457 158.121 127.714C159.4 128.436 161.093 127.917 162.151 126.895C162.928 126.141 164.257 124.37 164.106 123.248C163.486 123.301 162.889 123.51 162.371 123.855C161.71 124.311 161.161 124.912 160.766 125.612C160.099 126.79 159.432 129.053 161.116 129.665C162.799 130.276 164.704 129.623 166.047 128.671C167.74 127.47 168.954 125.718 170.44 124.26C171.926 122.801 173.917 121.587 175.96 121.914" stroke="#273CB3" stroke-width="0.782" stroke-linecap="round" stroke-linejoin="round"/>
<path d="M137.876 146.593C137.416 147.186 136.124 149.293 136.855 150.011C137.706 150.843 139.155 149.344 139.657 148.764L141.957 146.05C143.01 144.808 144.408 143.433 146 143.787C146.269 143.829 146.514 143.966 146.69 144.173C146.804 144.341 146.876 144.533 146.902 144.735C147.046 145.616 146.854 146.519 146.363 147.265C146.305 147.383 146.218 147.485 146.111 147.561C146.003 147.638 145.878 147.686 145.747 147.702C145.319 147.702 145.144 147.071 145.388 146.717C145.679 146.396 146.08 146.198 146.511 146.161C147.996 145.862 149.524 145.728 150.945 145.204C151.962 144.831 153.314 144.104 153.792 143.06C154.211 142.14 153.516 142.241 152.872 142.522C152.422 142.719 152.021 143.014 151.699 143.386C151.376 143.758 151.141 144.196 151.009 144.67C150.899 145.067 150.925 145.49 151.083 145.871C151.248 146.151 151.49 146.378 151.78 146.524C152.071 146.67 152.397 146.729 152.721 146.694C154.597 146.611 156.378 145.098 157.721 143.934C159.966 141.998 162.068 140.254 165.214 140.466C165.657 140.464 166.09 140.592 166.461 140.834C167.27 141.45 166.705 142.435 166.185 143.014C165.665 143.594 164.768 145.02 163.811 144.955C163.537 144.909 163.289 144.763 163.114 144.546C162.94 144.329 162.851 144.056 162.864 143.778C162.888 143.5 162.969 143.231 163.1 142.985C163.231 142.739 163.41 142.522 163.627 142.347C165.044 141.082 167.146 141.137 169.032 140.93C170.642 140.751 173.149 140.075 173.301 138.106" stroke="#273CB3" stroke-width="0.782" stroke-linecap="round" stroke-linejoin="round"/>
<path d="M155.674 118.749C156.315 117.913 156.847 116.997 157.256 116.026C159.121 112.113 161.123 108.269 163.264 104.494C163.416 104.227 163.724 103.919 163.977 104.098C162.542 108.491 161.093 113.008 161.378 117.617" stroke="#CD5000" stroke-width="0.782" stroke-linecap="round" stroke-linejoin="round"/>
<path d="M154.634 115C158.698 113.323 163.044 112.433 167.44 112.378C167.878 112.343 168.319 112.407 168.728 112.567C168.931 112.652 169.102 112.799 169.217 112.986C169.332 113.173 169.387 113.392 169.372 113.611" stroke="#CD5000" stroke-width="0.782" stroke-linecap="round" stroke-linejoin="round"/>
<path d="M373.304 140.272L377.444 135.286C378.865 133.584 380.286 131.873 381.846 130.295C383.802 128.31 385.96 126.536 388.286 125C388.06 130.695 382.619 134.992 381.758 140.64" stroke="#CD5000" stroke-width="0.782" stroke-linecap="round" stroke-linejoin="round"/>
<path d="M376.666 132.683C378.978 132.351 381.306 132.144 383.64 132.062C384.394 132.002 385.153 132.052 385.894 132.209C386.639 132.373 387.289 132.826 387.701 133.469" stroke="#CD5000" stroke-width="0.782" stroke-linecap="round" stroke-linejoin="round"/>
<path d="M395.494 131.1C394.302 132.567 393.375 134.231 392.757 136.017" stroke="#CD5000" stroke-width="0.782" stroke-linecap="round" stroke-linejoin="round"/>
<path d="M390.808 133.478C391.847 133.417 392.889 133.429 393.926 133.515C394.97 133.607 395.981 133.921 396.893 134.435" stroke="#CD5000" stroke-width="0.782" stroke-linecap="round" stroke-linejoin="round"/>
<path d="M352.181 153.263C350.941 153.847 349.918 154.807 349.257 156.008C348.596 157.208 348.332 158.587 348.501 159.946C348.517 160.289 348.654 160.615 348.887 160.866C349.178 161.078 349.532 161.182 349.89 161.161C355.87 161.414 361.142 157.444 365.815 153.677C366.689 152.973 367.655 152.094 367.596 150.972C365.986 150.475 364.196 151.331 363.143 152.646C362.089 153.962 361.639 155.65 361.303 157.306C361.192 157.867 361.114 158.516 361.482 158.957C361.817 159.279 362.26 159.464 362.724 159.477C371.128 160.609 378.944 154.086 387.417 154.39C388.311 154.354 389.192 154.609 389.929 155.116C391.23 156.188 390.954 158.415 389.745 159.588C388.535 160.761 386.745 161.083 385.062 161.11C385.296 159.79 386.405 158.778 387.619 158.212C391.654 156.322 396.589 158.387 400.812 156.97" stroke="#273CB3" stroke-width="0.782" stroke-linecap="round" stroke-linejoin="round"/>
<path d="M349.301 170.356C349.403 169.922 349.352 169.465 349.158 169.064C348.964 168.662 348.638 168.339 348.234 168.148C347.407 167.788 346.474 167.758 345.626 168.066C344.922 168.264 344.272 168.622 343.728 169.111C343.183 169.599 342.758 170.207 342.484 170.885C342.226 171.573 342.197 172.326 342.402 173.032C342.606 173.737 343.034 174.357 343.62 174.8C344.382 175.251 345.263 175.459 346.146 175.398C350.681 175.311 354.348 171.92 358.258 169.62C358.938 169.216 359.757 168.834 360.498 169.114C360.915 169.302 361.256 169.626 361.464 170.034C361.785 170.587 361.948 171.218 361.934 171.857C361.92 172.496 361.73 173.119 361.384 173.656C361.039 174.194 360.552 174.627 359.977 174.906C359.401 175.184 358.76 175.299 358.124 175.237C358.479 174.418 359.083 173.731 359.851 173.275C360.618 172.818 361.51 172.615 362.399 172.694C363.289 172.773 364.131 173.13 364.806 173.714C365.481 174.299 365.955 175.081 366.16 175.95C366.209 176.363 366.343 176.761 366.556 177.118C366.864 177.45 367.276 177.667 367.724 177.735C369.814 178.175 371.991 177.911 373.914 176.983C375.837 176.055 377.399 174.516 378.355 172.606C377.751 172.414 377.101 172.418 376.499 172.617C375.897 172.817 375.374 173.202 375.005 173.717C374.635 174.232 374.438 174.851 374.441 175.485C374.445 176.12 374.649 176.736 375.025 177.247C376.257 178.926 378.778 178.88 380.779 178.305C384.234 177.312 387.33 175.108 390.872 174.234C392.298 173.885 394.17 173.512 395.43 174.519C397.187 175.927 396.088 178.126 396.865 179.855" stroke="#273CB3" stroke-width="0.782" stroke-linecap="round" stroke-linejoin="round"/>
<path d="M337.332 182.878C338.478 181.936 339.842 181.297 341.299 181.019C342.756 180.741 344.26 180.833 345.672 181.286C346.435 181.539 347.227 181.967 347.512 182.721C347.661 183.222 347.661 183.756 347.512 184.258C347.127 185.869 346.258 187.325 345.023 188.43C344.563 188.915 343.93 189.201 343.261 189.226C342.599 189.184 341.964 188.513 342.194 187.892C342.29 187.658 342.449 187.455 342.654 187.307C344.306 186.038 346.675 186.272 348.634 186.99C350.594 187.708 352.411 188.83 354.462 189.212C356.514 189.594 358.989 188.936 359.826 187.031C357.853 187.011 355.936 187.691 354.416 188.95C353.814 189.456 353.239 190.187 353.427 190.951C353.653 191.843 354.748 192.17 355.668 192.22C360.944 192.496 365.604 189 370.691 187.565C371.492 187.284 372.353 187.214 373.189 187.363C373.605 187.447 373.983 187.66 374.271 187.971C374.559 188.282 374.742 188.676 374.794 189.097C374.836 190.449 373.235 191.158 371.929 191.503C371.326 191.659 370.365 191.48 370.549 190.886L375.112 190.426C375.462 190.36 375.823 190.385 376.161 190.5C376.791 190.771 376.989 191.539 377.283 192.156C377.753 193.07 378.545 193.777 379.505 194.142C380.466 194.507 381.527 194.504 382.486 194.134" stroke="#273CB3" stroke-width="0.782" stroke-linecap="round" stroke-linejoin="round"/>
<path d="M342.433 197.105C344.052 196.645 347.065 194.962 348.702 195.983C349.194 196.355 349.524 196.902 349.622 197.51C349.784 198.042 349.838 198.6 349.782 199.153C349.726 199.706 349.561 200.242 349.296 200.73C348.495 201.991 346.881 202.405 345.423 202.717C344.963 202.809 344.392 202.819 344.259 202.395C344.158 202.069 344.438 201.756 344.719 201.54C346.899 199.773 350.294 198.84 352.999 199.884C353.796 200.272 354.573 200.7 355.326 201.167C356.54 201.77 357.918 201.962 359.25 201.715C360.17 201.544 361.164 201.061 361.431 200.091C359.779 199.428 357.291 200.238 355.851 201.135C355.064 201.607 354.394 202.252 353.894 203.021C353.393 203.79 353.075 204.663 352.962 205.574C352.909 205.753 352.894 205.94 352.918 206.125C352.942 206.31 353.004 206.488 353.101 206.647C353.197 206.806 353.326 206.944 353.479 207.05C353.632 207.157 353.805 207.231 353.988 207.267C359.232 209.01 363.841 204.355 368.827 203.739C369.844 203.614 371.072 203.739 371.587 204.659C371.732 204.968 371.795 205.309 371.771 205.649C371.747 205.99 371.636 206.319 371.449 206.604C371.073 207.172 370.596 207.666 370.042 208.063C369.712 208.364 369.319 208.588 368.892 208.72C368.677 208.78 368.449 208.77 368.241 208.691C368.032 208.613 367.854 208.47 367.733 208.283C367.484 207.823 367.792 207.225 368.193 206.903C369.145 206.126 370.557 206.181 371.698 206.646C372.839 207.11 373.791 207.92 374.817 208.605C375.842 209.291 377.02 209.866 378.244 209.769" stroke="#273CB3" stroke-width="0.782" stroke-linecap="round" stroke-linejoin="round"/>
<path d="M259.729 154.468C271.143 156.288 282.756 156.505 294.229 155.112" stroke="#FFFAF3" stroke-width="0.782" stroke-linecap="round" stroke-linejoin="round"/>
<path d="M408.352 225.235C416.061 230.06 423.803 234.895 432.115 238.575C440.427 242.255 449.402 244.766 458.492 244.67" stroke="#FFFAF3" stroke-width="0.782" stroke-linecap="round" stroke-linejoin="round"/>
<path d="M119.779 359.761C125.856 361.882 130.69 366.726 133.966 372.269C137.241 377.812 139.118 384.049 140.787 390.268" stroke="#FFFAF3" stroke-width="0.782" stroke-linecap="round" stroke-linejoin="round"/>
<path d="M232.354 426.392C237.948 429.589 241.711 435.132 246.016 439.916C252.234 446.757 259.771 452.268 268.175 456.119C276.578 459.97 285.674 462.08 294.914 462.323" stroke="#FFFAF3" stroke-width="0.782" stroke-linecap="round" stroke-linejoin="round"/>
<path d="M87.0874 445.924C81.066 442.198 77.1606 435.85 74.2074 429.415C73.5864 428.035 72.9792 426.622 73.0206 425.127C73.6508 424.428 74.5662 424.152 75.3988 423.711C79.2904 421.654 83.3338 419.571 86.195 416.245" stroke="#273CB3" stroke-width="0.782" stroke-linecap="round" stroke-linejoin="round"/>
<path d="M88.6143 414.285C89.3985 413.687 90.1129 413.001 90.7441 412.243" stroke="#273CB3" stroke-width="0.782" stroke-linecap="round" stroke-linejoin="round"/>
<path d="M157.108 432.989C161.505 435.472 166.101 437.583 170.849 439.3" stroke="#273CB3" stroke-width="0.782" stroke-linecap="round" stroke-linejoin="round"/>
<path d="M152.996 430.123C153.687 430.335 154.309 430.729 154.795 431.264" stroke="#273CB3" stroke-width="0.782" stroke-linecap="round" stroke-linejoin="round"/>
<path d="M133.584 476.721C134.038 476.461 134.476 476.174 134.895 475.861C139.881 472.319 144.914 468.735 148.939 464.135" stroke="#273CB3" stroke-width="0.782" stroke-linecap="round" stroke-linejoin="round"/>
<path d="M377.66 120.313C386.648 120.327 395.631 119.885 404.575 118.988C404.919 123.118 404.75 127.274 404.073 131.362" stroke="#273CB3" stroke-width="0.782" stroke-linecap="round" stroke-linejoin="round"/>
<path d="M403.503 134.688C403.431 135.623 403.26 136.549 402.992 137.448" stroke="#273CB3" stroke-width="0.782" stroke-linecap="round" stroke-linejoin="round"/>
<path d="M332.448 187.68C330.362 191.823 328.145 195.896 325.796 199.898" stroke="#273CB3" stroke-width="0.782" stroke-linecap="round" stroke-linejoin="round"/>
<path d="M130.598 115.46C130.548 115.008 130.617 114.551 130.798 114.135C130.98 113.718 131.268 113.357 131.633 113.086C132.369 112.553 133.195 112.156 134.071 111.913L137.999 110.575" stroke="#273CB3" stroke-width="0.782" stroke-linecap="round" stroke-linejoin="round"/>
<path d="M140.691 109.94C141.417 109.993 142.138 109.79 142.729 109.365" stroke="#273CB3" stroke-width="0.782" stroke-linecap="round" stroke-linejoin="round"/>
<path d="M230.589 223.969C235.355 225.3 240.358 225.556 245.235 224.719" stroke="#CD5000" stroke-width="0.782" stroke-linecap="round" stroke-linejoin="round"/>
<path d="M262.872 209.185C262.952 210.219 262.732 211.254 262.237 212.166" stroke="#FFFAF3" stroke-width="0.782" stroke-linecap="round" stroke-linejoin="round"/>
</g>
<defs>
<clipPath id="clip0">
<rect width="552" height="552" fill="white"/>
</clipPath>
</defs>
</svg>
