<svg width="453" height="280" viewBox="0 0 453 280" fill="none" xmlns="http://www.w3.org/2000/svg">
<path d="M4.03293 5.25208e-09H284.435C285.503 0.000932155 286.527 0.425632 287.282 1.18086C288.037 1.9361 288.462 2.96014 288.463 4.02818V105.384H220.603C218.766 105.386 217.005 106.117 215.706 107.416C214.407 108.715 213.676 110.476 213.674 112.313V198.064H4.03293C3.45053 198.064 2.87506 197.938 2.34625 197.694C1.81744 197.45 1.3479 197.094 0.970062 196.651C0.93808 196.616 0.908752 196.579 0.882324 196.54C0.641876 196.246 0.447205 195.917 0.304871 195.565C0.102203 195.081 -0.00140381 194.561 0.000152588 194.036V4.02818C0.00131226 2.9594 0.426697 1.9348 1.18286 1.17949C1.93906 0.42418 2.96417 -5.45033e-05 4.03293 5.25208e-09Z" fill="#F2F2F2"/>
<path d="M0.578735 16.1455H287.89V17.2971H0.578735V16.1455Z" fill="#CCCCCC"/>
<path d="M278.102 12.0921C276.194 12.0921 274.647 10.5455 274.647 8.6375C274.647 6.72956 276.194 5.18286 278.102 5.18286C280.01 5.18286 281.556 6.72956 281.556 8.6375C281.556 10.5455 280.01 12.0921 278.102 12.0921Z" fill="#CCCCCC"/>
<path d="M268.17 12.0921C266.262 12.0921 264.715 10.5455 264.715 8.6375C264.715 6.72956 266.262 5.18286 268.17 5.18286C270.078 5.18286 271.624 6.72956 271.624 8.6375C271.624 10.5455 270.078 12.0921 268.17 12.0921Z" fill="#CCCCCC"/>
<path d="M258.238 12.0921C256.33 12.0921 254.783 10.5455 254.783 8.6375C254.783 6.72956 256.33 5.18286 258.238 5.18286C260.146 5.18286 261.692 6.72956 261.692 8.6375C261.692 10.5455 260.146 12.0921 258.238 12.0921Z" fill="#CCCCCC"/>
<path d="M72.1702 41.2888H216.298C217.89 41.2888 219.418 41.9215 220.544 43.0477C221.67 44.1739 222.303 45.7014 222.303 47.2941C222.303 48.8868 221.67 50.4143 220.544 51.5405C219.418 52.6667 217.89 53.2994 216.298 53.2994H72.1702C70.5775 53.2994 69.05 52.6667 67.9238 51.5405C66.7975 50.4143 66.1648 48.8868 66.1648 47.2941C66.1648 45.7014 66.7975 44.1739 67.9238 43.0477C69.05 41.9215 70.5775 41.2888 72.1702 41.2888ZM72.1702 52.3756H216.298C217.645 52.3756 218.938 51.8402 219.891 50.8872C220.844 49.9343 221.379 48.6418 221.379 47.2941C221.379 45.9465 220.844 44.654 219.891 43.701C218.938 42.7481 217.645 42.2127 216.298 42.2127H72.1702C70.8225 42.2127 69.53 42.7481 68.5771 43.701C67.6241 44.654 67.0887 45.9465 67.0887 47.2941C67.0887 48.6418 67.6241 49.9343 68.5771 50.8872C69.53 51.8402 70.8225 52.3756 72.1702 52.3756Z" fill="#CCCCCC"/>
<path d="M28.0681 89.1328H172.196C173.788 89.1328 175.316 89.7655 176.442 90.8917C177.568 92.0179 178.201 93.5454 178.201 95.1381C178.201 96.7308 177.568 98.2583 176.442 99.3845C175.316 100.511 173.788 101.143 172.196 101.143H28.0681C26.4754 101.143 24.948 100.511 23.8217 99.3845C22.6955 98.2583 22.0628 96.7308 22.0628 95.1381C22.0628 93.5454 22.6955 92.0179 23.8217 90.8917C24.948 89.7655 26.4754 89.1328 28.0681 89.1328Z" fill="white"/>
<path d="M28.0681 111.306H172.196C173.788 111.306 175.316 111.939 176.442 113.065C177.568 114.191 178.201 115.719 178.201 117.311C178.201 118.904 177.568 120.432 176.442 121.558C175.316 122.684 173.788 123.317 172.196 123.317H28.0681C26.4754 123.317 24.948 122.684 23.8217 121.558C22.6955 120.432 22.0628 118.904 22.0628 117.311C22.0628 115.719 22.6955 114.191 23.8217 113.065C24.948 111.939 26.4754 111.306 28.0681 111.306Z" fill="white"/>
<path d="M28.0681 133.48H172.196C173.788 133.48 175.316 134.112 176.442 135.239C177.568 136.365 178.201 137.892 178.201 139.485C178.201 141.078 177.568 142.605 176.442 143.731C175.316 144.858 173.788 145.49 172.196 145.49H28.0681C26.4754 145.49 24.948 144.858 23.8217 143.731C22.6955 142.605 22.0628 141.078 22.0628 139.485C22.0628 137.892 22.6955 136.365 23.8217 135.239C24.948 134.112 26.4754 133.48 28.0681 133.48Z" fill="white"/>
<path d="M195.487 79.2009H261.092C262.5 79.2026 263.849 79.7623 264.844 80.7574C265.839 81.7524 266.399 83.1015 266.4 84.5087V105.384H265.476V84.5087C265.475 83.3465 265.012 82.2325 264.19 81.4108C263.369 80.589 262.255 80.1266 261.092 80.1248H195.487C194.324 80.1258 193.21 80.588 192.388 81.4099C191.566 82.2319 191.104 83.3463 191.103 84.5087V150.114C191.104 151.277 191.566 152.391 192.388 153.213C193.21 154.035 194.324 154.497 195.487 154.498H213.674V155.422H195.487C194.079 155.421 192.73 154.862 191.735 153.867C190.74 152.871 190.18 151.522 190.179 150.114V84.5087C190.18 83.1013 190.739 81.7518 191.735 80.7565C192.73 79.7613 194.079 79.2018 195.487 79.2009Z" fill="#CCCCCC"/>
<path d="M384.528 94.5896C384.85 94.6026 398.606 93.6489 398.957 93.6371L397.721 81.3022L389.887 81.0663L374.916 53.3377C376.992 49.3784 374.437 44.1249 370.032 43.3152C361.156 41.2978 358.107 55.262 367.01 57.1201L379.393 91.0029C379.782 92.0527 380.482 92.9586 381.399 93.5996C382.317 94.2406 383.408 94.586 384.528 94.5896Z" fill="#FFB8B8"/>
<path d="M420.791 100.942C433.881 100.975 435.03 81.1925 421.911 79.7985C387.222 77.7025 391.612 68.99 388.978 94.6893C388.897 95.4515 389.122 96.2148 389.603 96.8115C390.084 97.4083 390.782 97.7897 391.544 97.8722L419.655 100.882C420.033 100.922 420.412 100.942 420.791 100.942Z" fill="#3856FF"/>
<path d="M423.779 38.3986C405.747 48.6597 420.55 75.7336 438.919 66.0928C456.95 55.832 442.147 28.7581 423.779 38.3986Z" fill="#FFB8B8"/>
<path d="M407.385 271.45L399.508 271.449L395.761 241.065L407.386 241.066L407.385 271.45Z" fill="#FFB8B8"/>
<path d="M409.073 278.765L384.316 278.764C384.411 265.989 400.969 269.67 409.074 269.199L409.073 278.765Z" fill="#2F2E41"/>
<path d="M441.44 271.45L433.563 271.449L429.815 241.065L441.441 241.066L441.44 271.45Z" fill="#FFB8B8"/>
<path d="M443.127 278.765L418.37 278.764C418.465 265.989 435.024 269.67 443.128 269.199L443.127 278.765Z" fill="#2F2E41"/>
<path d="M432.487 260.838C434.391 260.316 444.736 261.896 445.957 259.822C450.221 217.087 449.273 175.263 439.808 152.282L407.265 150.289C399.988 163.574 383.26 251.729 393.351 257.088L406.326 257.551C407.066 257.575 407.792 257.344 408.382 256.897C408.971 256.449 409.389 255.812 409.564 255.093L420.42 193.334C423.123 189.556 428.437 258.374 429.314 258.117C429.429 258.876 429.812 259.568 430.395 260.068C430.977 260.567 431.72 260.841 432.487 260.838Z" fill="#2F2E41"/>
<path d="M440.842 157.683C457.272 140.493 446.792 94.4076 447.322 95.3879C447.277 94.2589 443.556 76.8727 433.929 74.0193C426.291 71.4987 417.838 79.0385 416.795 86.6646L405.354 154.229C405.295 154.597 405.323 154.973 405.436 155.328C405.549 155.683 405.744 156.006 406.005 156.272C405.443 158.024 440.037 157.332 440.842 157.683Z" fill="#3856FF"/>
<path d="M435.51 50.49C434.067 49.5778 433.355 48.0133 432.516 46.5882C428.092 44.0667 423.006 50.1663 418.326 47.8899C405.095 35.1876 418.695 31.4402 430.882 30.7704C433.76 30.4156 436.209 31.4368 438.386 33.1234C462.729 31.2643 451.054 63.6326 435.691 67.9077C432.978 69.0958 430.944 66.6911 433.336 64.5052C436.645 61.0354 440.745 54.0512 435.51 50.49Z" fill="#2F2E41"/>
<path d="M182.846 35.8384H358.9C361.795 35.8425 364.571 36.9946 366.619 39.0422C368.667 41.0898 369.819 43.8657 369.823 46.7614V269.077C369.819 271.973 368.667 274.749 366.619 276.796C364.571 278.844 361.795 279.996 358.9 280H182.846C179.951 279.996 177.175 278.844 175.127 276.796C173.079 274.749 171.927 271.973 171.923 269.077V46.7614C171.927 43.8657 173.079 41.0898 175.127 39.0422C177.175 36.9946 179.951 35.8425 182.846 35.8384ZM173.208 269.077C173.211 271.632 174.228 274.082 176.035 275.889C177.841 277.696 180.291 278.712 182.846 278.715H358.9C361.455 278.712 363.905 277.696 365.711 275.889C367.518 274.082 368.535 271.632 368.538 269.077V46.7614C368.535 44.2062 367.518 41.7566 365.711 39.9498C363.905 38.143 361.455 37.1265 358.9 37.1234H182.846C180.291 37.1265 177.841 38.143 176.035 39.9498C174.228 41.7566 173.211 44.2062 173.208 46.7614V269.077Z" fill="#3F3D56"/>
<path d="M408.505 129.389C414.307 130.046 416.855 116.543 419.073 113.103L407.517 108.616L403.757 115.493L372.255 116.276C372.068 116.022 371.863 115.782 371.643 115.556C365.396 109.015 355.222 118.816 361.445 125.344C362.132 126.073 362.966 126.649 363.891 127.033C364.816 127.417 365.813 127.601 366.814 127.572C367.816 127.543 368.8 127.302 369.701 126.865C370.603 126.428 371.402 125.805 372.045 125.037C372.823 125.092 407.744 129.409 408.505 129.389Z" fill="#FFB8B8"/>
<path d="M417.063 122.944C418.995 124.805 433.827 98.6732 434.91 97.9345C442.405 86.2856 424.761 74.7843 417.137 86.3702L401.718 110.066C401.301 110.709 401.156 111.491 401.314 112.241C401.473 112.991 401.923 113.647 402.565 114.066C403.268 114.395 416.567 123.651 417.063 122.944Z" fill="#3856FF"/>
<path d="M217.543 189.724H324.203C335.099 189.672 335.144 173.075 324.203 173.019H217.543C206.655 173.07 206.596 189.667 217.543 189.724Z" fill="#CCCCCC"/>
<path d="M217.543 220.566H324.203C335.099 220.513 335.144 203.917 324.203 203.86H217.543C206.655 203.911 206.596 220.509 217.543 220.566Z" fill="#CCCCCC"/>
<path d="M217.543 251.407H324.203C335.099 251.355 335.144 234.759 324.203 234.702H217.543C206.655 234.753 206.596 251.35 217.543 251.407Z" fill="#CCCCCC"/>
<path d="M177.706 56.3992C181.01 56.3992 184.24 55.4194 186.987 53.5837C189.735 51.7481 191.876 49.139 193.14 46.0864C194.405 43.0338 194.735 39.6748 194.091 36.4342C193.446 33.1936 191.855 30.2169 189.519 27.8806C187.183 25.5442 184.206 23.9532 180.965 23.3086C177.725 22.664 174.366 22.9948 171.313 24.2592C168.26 25.5236 165.651 27.6649 163.816 30.4121C161.98 33.1594 161 36.3893 161 39.6934C161.005 44.1225 162.767 48.3688 165.899 51.5006C169.031 54.6325 173.277 56.3942 177.706 56.3992Z" fill="#3856FF"/>
<path d="M169.996 39.0509H177.063V31.0192C177.063 30.8488 177.131 30.6854 177.252 30.5649C177.372 30.4444 177.536 30.3767 177.706 30.3767C177.876 30.3767 178.04 30.4444 178.16 30.5649C178.281 30.6854 178.348 30.8488 178.348 31.0192V39.0509H185.416C185.587 39.0509 185.75 39.1186 185.871 39.2391C185.991 39.3596 186.059 39.523 186.059 39.6934C186.059 39.8638 185.991 40.0272 185.871 40.1477C185.75 40.2682 185.587 40.3359 185.416 40.3359H178.348V48.3676C178.348 48.538 178.281 48.7014 178.16 48.8219C178.04 48.9424 177.876 49.0101 177.706 49.0101C177.536 49.0101 177.372 48.9424 177.252 48.8219C177.131 48.7014 177.063 48.538 177.063 48.3676V40.3359H169.996C169.825 40.3359 169.662 40.2682 169.541 40.1477C169.421 40.0272 169.353 39.8638 169.353 39.6934C169.353 39.523 169.421 39.3596 169.541 39.2391C169.662 39.1186 169.825 39.0509 169.996 39.0509Z" fill="white"/>
<path d="M219.47 152.972H322.275C325.086 152.968 327.781 151.85 329.769 149.863C331.756 147.875 332.874 145.181 332.877 142.37V84.7993C332.874 81.9885 331.756 79.2937 329.769 77.3062C327.781 75.3187 325.086 74.2007 322.275 74.1975H219.47C216.66 74.2007 213.965 75.3187 211.977 77.3062C209.99 79.2937 208.872 81.9885 208.869 84.7993V142.37C208.872 145.181 209.99 147.875 211.977 149.863C213.965 151.85 216.66 152.968 219.47 152.972Z" fill="#FFB152"/>
</svg>
