<svg width="455" height="275" viewBox="0 0 455 275" fill="none" xmlns="http://www.w3.org/2000/svg">
<g clip-path="url(#clip0)">
<path d="M29.836 200.684L27.1036 189.907C22.2589 187.854 17.3021 186.076 12.2571 184.581L11.9121 189.589L10.5132 184.072C4.25644 182.285 0 181.498 0 181.498C0 181.498 5.74947 203.362 17.8086 220.076L31.86 222.545L20.9438 224.119C22.4614 225.944 24.0923 227.672 25.8268 229.293C43.3694 245.577 62.9085 253.047 69.4687 245.98C76.0289 238.912 67.1259 219.983 49.5833 203.7C44.1449 198.652 37.3132 194.601 30.4746 191.412L29.836 200.684Z" fill="#87DA54"/>
<path d="M55.8224 188.981L59.054 178.343C55.9679 174.081 52.6439 169.997 49.0979 166.109L46.2137 170.218L47.8683 164.772C43.4358 160.008 40.1988 157.135 40.1988 157.135C40.1988 157.135 33.8194 178.823 35.5025 199.365L46.2554 208.741L36.0971 204.446C36.4526 206.793 36.9553 209.115 37.6024 211.399C44.2028 234.406 57.0674 250.902 66.3365 248.242C75.6055 245.583 77.7688 224.777 71.1684 201.77C69.1222 194.637 65.3679 187.638 61.1617 181.374L55.8224 188.981Z" fill="#87DA54"/>
<path d="M455 249.843H0.0407715V250.991H455V249.843Z" fill="#3F3D56"/>
<path d="M71.9213 130.961C71.9213 130.961 68.3783 173.562 67.6176 182.69C67.096 188.412 65.8169 194.04 63.8141 199.426C63.8141 199.426 62.2926 202.469 62.2926 205.511V244.308C62.2926 244.308 59.2498 244.308 60.0105 247.35C60.7712 250.393 61.5319 255.718 61.5319 255.718H72.9426C72.9426 255.718 72.1819 253.436 74.464 252.675C76.7461 251.915 74.464 245.829 74.464 245.829L86.6353 200.186L104.892 162.151C104.892 162.151 115.542 196.383 117.824 200.186C117.824 200.186 126.192 242.786 127.714 246.59C129.235 250.393 129.996 250.393 129.235 251.915C128.474 253.436 128.474 254.957 129.235 255.718C129.996 256.479 144.449 255.718 144.449 255.718L140.646 201.708L133.799 137.048L98.8066 126.398L71.9213 130.961Z" fill="#2F2E41"/>
<path d="M69.8999 249.632C69.8999 249.632 66.0963 235.94 60.0106 246.589C53.925 257.239 53.925 261.043 53.925 261.043C53.925 261.043 44.0358 275.496 57.7285 273.975C71.4213 272.454 68.3784 265.607 68.3784 265.607C68.3784 265.607 73.7034 262.564 73.7034 260.282C73.7034 258 69.8999 249.632 69.8999 249.632Z" fill="#2F2E41"/>
<path d="M131.517 248.111C131.517 248.111 135.321 234.418 141.406 245.068C147.492 255.718 147.492 259.521 147.492 259.521C147.492 259.521 157.381 273.975 143.688 272.453C129.996 270.932 133.039 264.086 133.039 264.086C133.039 264.086 127.714 261.043 127.714 258.761C127.714 256.479 131.517 248.111 131.517 248.111Z" fill="#2F2E41"/>
<path d="M95.7639 28.2661C95.7639 28.2661 97.2854 38.1553 92.7211 40.4375C88.1569 42.7196 102.61 51.0874 106.414 51.0874C110.217 51.0874 117.064 43.4803 117.064 43.4803C117.064 43.4803 113.26 32.0697 114.021 29.7875L95.7639 28.2661Z" fill="#A0616A"/>
<path d="M104.132 35.8733C112.954 35.8733 120.106 28.7211 120.106 19.8985C120.106 11.0758 112.954 3.92358 104.132 3.92358C95.3089 3.92358 88.1567 11.0758 88.1567 19.8985C88.1567 28.7211 95.3089 35.8733 104.132 35.8733Z" fill="#A0616A"/>
<path d="M135.321 52.6088L116.304 41.087C116.304 41.087 105.483 53.3695 93.7773 39.6768L73.7033 45.0017L76.7462 96.7299C76.7462 96.7299 72.1819 117.269 73.7033 121.073C75.2248 124.876 69.8998 126.398 71.4212 127.158C72.9426 127.919 71.4212 133.244 71.4212 133.244C71.4212 133.244 101.089 148.458 133.799 137.047L130.756 127.158C131.171 125.866 131.248 124.489 130.982 123.157C130.716 121.826 130.115 120.585 129.235 119.551C129.235 119.551 132.278 114.987 128.474 111.183C128.474 111.183 129.996 104.337 126.192 101.294L125.431 90.6442L127.714 85.3193L135.321 52.6088Z" fill="#CFCCE0"/>
<path d="M95.9562 12.4808C95.9562 12.4808 94.0516 16.6024 101.67 14.9537C101.67 14.9537 104.527 16.6024 104.527 14.1294C104.527 14.1294 108.336 18.2511 109.288 15.7781C110.24 13.3051 112.145 16.6024 112.145 16.6024L114.049 12.4808L115.954 14.9537H122.62C122.62 14.9537 124.524 -1.53276 101.67 0.115892C78.8154 1.76455 90.0586 27.8858 90.0586 27.8858C90.0586 27.8858 90.2426 23.197 92.1471 25.67C94.0517 28.143 95.9562 12.4808 95.9562 12.4808Z" fill="#2F2E41"/>
<path d="M142.167 83.0371L142.928 99.012C142.928 99.012 145.971 128.68 139.885 141.612V148.458C139.885 148.458 138.364 165.954 130.757 165.194C123.149 164.433 133.039 140.09 133.039 140.09L131.517 106.619L129.996 87.6014L142.167 83.0371Z" fill="#A0616A"/>
<path d="M126.953 53.3696L134.542 52.1367C140.008 57.3889 143.732 64.1915 145.21 71.6266C147.492 83.798 148.253 86.0801 148.253 86.0801L129.996 90.6443L120.107 71.6266L126.953 53.3696Z" fill="#CFCCE0"/>
<path d="M214.326 44.688H94.2793V104.322H214.326V44.688Z" fill="white"/>
<path d="M107.388 48.2743C104.304 46.4196 100.585 46.5613 99.1711 46.7029C99.7095 48.0173 101.325 51.3699 104.409 53.2255C107.501 55.0849 111.214 54.939 112.626 54.7983C112.088 53.4844 110.472 50.1304 107.388 48.2743Z" fill="#FFA539"/>
<path d="M121.88 85.0772H102.604C102.034 85.0765 101.47 85.1882 100.943 85.4059C100.416 85.6236 99.9377 85.943 99.5344 86.3458C99.1312 86.7486 98.8113 87.2269 98.593 87.7534C98.3748 88.2799 98.2625 88.8443 98.2625 89.4143C98.2625 89.9842 98.3748 90.5486 98.593 91.0751C98.8113 91.6016 99.1312 92.0799 99.5344 92.4828C99.9377 92.8856 100.416 93.2049 100.943 93.4226C101.47 93.6403 102.034 93.752 102.604 93.7514H121.88C122.45 93.752 123.015 93.6403 123.542 93.4226C124.068 93.2049 124.547 92.8856 124.95 92.4828C125.353 92.0799 125.673 91.6016 125.892 91.0751C126.11 90.5486 126.222 89.9842 126.222 89.4143C126.222 88.8443 126.11 88.2799 125.892 87.7534C125.673 87.2269 125.353 86.7486 124.95 86.3458C124.547 85.943 124.068 85.6236 123.542 85.4059C123.015 85.1882 122.45 85.0765 121.88 85.0772Z" fill="#FFA539"/>
<path d="M209.169 39.2964H101.094C99.8368 39.2964 98.5919 39.544 97.4304 40.0251C96.2689 40.5062 95.2135 41.2114 94.3245 42.1004C93.4355 42.9894 92.7304 44.0448 92.2492 45.2063C91.7681 46.3678 91.5205 47.6127 91.5205 48.8699V101.526C91.5205 104.065 92.5291 106.5 94.3245 108.296C96.1199 110.091 98.555 111.1 101.094 111.1H209.169C211.708 111.1 214.143 110.091 215.939 108.296C217.734 106.5 218.743 104.065 218.743 101.526V48.8699C218.743 47.6127 218.495 46.3678 218.014 45.2063C217.533 44.0448 216.828 42.9894 215.939 42.1004C215.05 41.2114 213.994 40.5062 212.833 40.0251C211.671 39.544 210.426 39.2964 209.169 39.2964ZM98.4201 45.827C98.6335 45.7884 103.694 44.9272 107.885 47.4487C112.075 49.9698 113.685 54.8448 113.751 55.0509L113.921 55.5766L113.377 55.6731C112.601 55.7942 111.817 55.8518 111.032 55.8453C108.541 55.8929 106.083 55.2734 103.912 54.0509C99.7218 51.5303 98.1121 46.6553 98.0457 46.4491L97.8763 45.9235L98.4201 45.827ZM121.88 94.7151H102.604C101.198 94.7151 99.8501 94.1567 98.8559 93.1625C97.8618 92.1684 97.3033 90.8201 97.3033 89.4142C97.3033 88.0083 97.8618 86.66 98.8559 85.6659C99.8501 84.6718 101.198 84.1133 102.604 84.1133H121.88C123.286 84.1133 124.635 84.6718 125.629 85.6659C126.623 86.66 127.181 88.0083 127.181 89.4142C127.181 90.8201 126.623 92.1684 125.629 93.1625C124.635 94.1567 123.286 94.7151 121.88 94.7151ZM209.587 93.7513C209.582 95.2837 208.971 96.7519 207.888 97.8355C206.804 98.919 205.336 99.5297 203.804 99.5342H189.347C187.814 99.5297 186.346 98.919 185.263 97.8355C184.179 96.7519 183.568 95.2837 183.564 93.7513V85.0771C183.568 83.5448 184.179 82.0765 185.263 80.993C186.346 79.9095 187.814 79.2988 189.347 79.2943H203.804C205.336 79.2988 206.804 79.9095 207.888 80.993C208.971 82.0765 209.582 83.5448 209.587 85.0771V93.7513Z" fill="#FFA539"/>
<path d="M193.925 92.0647H187.66C187.213 92.0647 186.784 92.2424 186.467 92.5587C186.151 92.875 185.973 93.304 185.973 93.7514C185.973 94.1987 186.151 94.6277 186.467 94.944C186.784 95.2603 187.213 95.438 187.66 95.438H193.925C194.372 95.438 194.801 95.2603 195.117 94.944C195.434 94.6277 195.611 94.1987 195.611 93.7514C195.611 93.304 195.434 92.875 195.117 92.5587C194.801 92.2424 194.372 92.0647 193.925 92.0647ZM193.925 94.4742H187.66C187.565 94.4745 187.471 94.456 187.383 94.4197C187.295 94.3835 187.215 94.3303 187.148 94.2632C187.08 94.196 187.027 94.1163 186.99 94.0284C186.954 93.9406 186.935 93.8464 186.935 93.7514C186.935 93.6563 186.954 93.5621 186.99 93.4743C187.027 93.3865 187.08 93.3067 187.148 93.2395C187.215 93.1724 187.295 93.1192 187.383 93.083C187.471 93.0468 187.565 93.0282 187.66 93.0285H193.925C194.116 93.029 194.299 93.1054 194.435 93.2409C194.57 93.3764 194.646 93.56 194.646 93.7514C194.646 93.9427 194.57 94.1263 194.435 94.2618C194.299 94.3973 194.116 94.4737 193.925 94.4742Z" fill="#FFA539"/>
<path d="M205.49 92.0647H199.226C198.778 92.0647 198.349 92.2424 198.033 92.5587C197.717 92.875 197.539 93.304 197.539 93.7514C197.539 94.1987 197.717 94.6277 198.033 94.944C198.349 95.2603 198.778 95.438 199.226 95.438H205.49C205.938 95.438 206.367 95.2603 206.683 94.944C206.999 94.6277 207.177 94.1987 207.177 93.7514C207.177 93.304 206.999 92.875 206.683 92.5587C206.367 92.2424 205.938 92.0647 205.49 92.0647ZM205.49 94.4742H199.226C199.131 94.4745 199.036 94.456 198.949 94.4197C198.861 94.3835 198.781 94.3303 198.713 94.2632C198.646 94.196 198.593 94.1163 198.556 94.0284C198.52 93.9406 198.501 93.8464 198.501 93.7514C198.501 93.6563 198.52 93.5621 198.556 93.4743C198.593 93.3865 198.646 93.3067 198.713 93.2395C198.781 93.1724 198.861 93.1192 198.949 93.083C199.036 93.0468 199.131 93.0282 199.226 93.0285H205.49C205.682 93.029 205.865 93.1054 206 93.2409C206.136 93.3764 206.211 93.56 206.211 93.7514C206.211 93.9427 206.136 94.1263 206 94.2618C205.865 94.3973 205.682 94.4737 205.49 94.4742Z" fill="#FFA539"/>
<path d="M193.925 87.7275H187.66C187.213 87.7275 186.784 87.9052 186.467 88.2216C186.151 88.5379 185.973 88.9669 185.973 89.4142C185.973 89.8615 186.151 90.2906 186.467 90.6069C186.784 90.9232 187.213 91.1009 187.66 91.1009H193.925C194.372 91.1009 194.801 90.9232 195.117 90.6069C195.434 90.2906 195.611 89.8615 195.611 89.4142C195.611 88.9669 195.434 88.5379 195.117 88.2216C194.801 87.9052 194.372 87.7275 193.925 87.7275ZM193.925 90.1371H187.66C187.565 90.1371 187.471 90.1184 187.383 90.082C187.296 90.0457 187.216 89.9925 187.149 89.9253C187.082 89.8582 187.029 89.7785 186.992 89.6908C186.956 89.6031 186.937 89.5091 186.937 89.4142C186.937 89.3193 186.956 89.2253 186.992 89.1376C187.029 89.0499 187.082 88.9702 187.149 88.9031C187.216 88.836 187.296 88.7827 187.383 88.7464C187.471 88.7101 187.565 88.6914 187.66 88.6914H193.925C194.02 88.6914 194.114 88.7101 194.201 88.7464C194.289 88.7827 194.369 88.836 194.436 88.9031C194.503 88.9702 194.556 89.0499 194.593 89.1376C194.629 89.2253 194.648 89.3193 194.648 89.4142C194.648 89.5091 194.629 89.6031 194.593 89.6908C194.556 89.7785 194.503 89.8582 194.436 89.9253C194.369 89.9925 194.289 90.0457 194.201 90.082C194.114 90.1184 194.02 90.1371 193.925 90.1371Z" fill="#FFA539"/>
<path d="M205.49 87.7275H199.226C198.778 87.7275 198.349 87.9052 198.033 88.2216C197.717 88.5379 197.539 88.9669 197.539 89.4142C197.539 89.8615 197.717 90.2906 198.033 90.6069C198.349 90.9232 198.778 91.1009 199.226 91.1009H205.49C205.938 91.1009 206.367 90.9232 206.683 90.6069C206.999 90.2906 207.177 89.8615 207.177 89.4142C207.177 88.9669 206.999 88.5379 206.683 88.2216C206.367 87.9052 205.938 87.7275 205.49 87.7275ZM205.49 90.1371H199.226C199.131 90.1371 199.037 90.1184 198.949 90.082C198.861 90.0457 198.782 89.9925 198.715 89.9253C198.647 89.8582 198.594 89.7785 198.558 89.6908C198.522 89.6031 198.503 89.5091 198.503 89.4142C198.503 89.3193 198.522 89.2253 198.558 89.1376C198.594 89.0499 198.647 88.9702 198.715 88.9031C198.782 88.836 198.861 88.7827 198.949 88.7464C199.037 88.7101 199.131 88.6914 199.226 88.6914H205.49C205.585 88.6914 205.679 88.7101 205.767 88.7464C205.855 88.7827 205.934 88.836 206.002 88.9031C206.069 88.9702 206.122 89.0499 206.158 89.1376C206.195 89.2253 206.213 89.3193 206.213 89.4142C206.213 89.5091 206.195 89.6031 206.158 89.6908C206.122 89.7785 206.069 89.8582 206.002 89.9253C205.934 89.9925 205.855 90.0457 205.767 90.082C205.679 90.1184 205.585 90.1371 205.49 90.1371Z" fill="#FFA539"/>
<path d="M193.925 83.3904H187.66C187.213 83.3904 186.784 83.5681 186.467 83.8844C186.151 84.2007 185.973 84.6297 185.973 85.0771C185.973 85.5244 186.151 85.9534 186.467 86.2697C186.784 86.586 187.213 86.7637 187.66 86.7637H193.925C194.372 86.7637 194.801 86.586 195.117 86.2697C195.434 85.9534 195.611 85.5244 195.611 85.0771C195.611 84.6297 195.434 84.2007 195.117 83.8844C194.801 83.5681 194.372 83.3904 193.925 83.3904ZM193.925 85.7999H187.66C187.565 85.8001 187.471 85.7817 187.383 85.7454C187.295 85.7092 187.215 85.656 187.148 85.5889C187.08 85.5217 187.027 85.4419 186.99 85.3541C186.954 85.2663 186.935 85.1721 186.935 85.0771C186.935 84.982 186.954 84.8878 186.99 84.8C187.027 84.7122 187.08 84.6324 187.148 84.5652C187.215 84.4981 187.295 84.4449 187.383 84.4087C187.471 84.3724 187.565 84.3539 187.66 84.3542H193.925C194.116 84.3547 194.299 84.4311 194.435 84.5666C194.57 84.7021 194.646 84.8857 194.646 85.0771C194.646 85.2684 194.57 85.452 194.435 85.5875C194.299 85.723 194.116 85.7994 193.925 85.7999Z" fill="#FFA539"/>
<path d="M205.49 83.3904H199.226C198.778 83.3904 198.349 83.5681 198.033 83.8844C197.717 84.2007 197.539 84.6297 197.539 85.0771C197.539 85.5244 197.717 85.9534 198.033 86.2697C198.349 86.586 198.778 86.7637 199.226 86.7637H205.49C205.938 86.7637 206.367 86.586 206.683 86.2697C206.999 85.9534 207.177 85.5244 207.177 85.0771C207.177 84.6297 206.999 84.2007 206.683 83.8844C206.367 83.5681 205.938 83.3904 205.49 83.3904ZM205.49 85.7999H199.226C199.131 85.8001 199.036 85.7817 198.949 85.7454C198.861 85.7092 198.781 85.656 198.713 85.5889C198.646 85.5217 198.593 85.4419 198.556 85.3541C198.52 85.2663 198.501 85.1721 198.501 85.0771C198.501 84.982 198.52 84.8878 198.556 84.8C198.593 84.7122 198.646 84.6324 198.713 84.5652C198.781 84.4981 198.861 84.4449 198.949 84.4087C199.036 84.3724 199.131 84.3539 199.226 84.3542H205.49C205.682 84.3547 205.865 84.4311 206 84.5666C206.136 84.7021 206.211 84.8857 206.211 85.0771C206.211 85.2684 206.136 85.452 206 85.5875C205.865 85.723 205.682 85.7994 205.49 85.7999Z" fill="#FFA539"/>
<path d="M62.2929 73.9088C62.2929 73.9088 55.4465 102.816 63.8143 102.816C72.1821 102.816 91.9605 70.1052 91.9605 70.1052C91.9605 70.1052 112.5 59.4553 104.132 55.6517C95.764 51.8482 85.1141 61.7374 85.1141 61.7374L72.8256 78.7983L72.1821 70.1052L62.2929 73.9088Z" fill="#A0616A"/>
<path d="M78.2677 49.566L73.7035 45.0017C73.7035 45.0017 64.575 50.3267 63.8142 55.6516C63.0535 60.9766 59.25 77.7122 59.25 77.7122L73.3231 78.8532L77.8874 72.0069L78.2677 49.566Z" fill="#CFCCE0"/>
<path d="M284.73 38.7446C284.157 37.0524 276.97 31.3004 281.374 30.3336L284.985 35.1488L301.588 18.5459L303.258 20.2158L284.73 38.7446Z" fill="#FFB152"/>
<path d="M284.73 95.2016C284.157 93.5095 276.97 87.7574 281.374 86.7906L284.985 91.6059L301.588 75.0029L303.258 76.6728L284.73 95.2016Z" fill="#FFB152"/>
<path d="M284.73 152.465C284.157 150.773 276.97 145.021 281.374 144.054L284.985 148.869L301.588 132.266L303.258 133.936L284.73 152.465Z" fill="#FFB152"/>
<path d="M335.021 37.0029C337.85 37.0029 340.144 34.7091 340.144 31.8795C340.144 29.0499 337.85 26.7561 335.021 26.7561C332.191 26.7561 329.897 29.0499 329.897 31.8795C329.897 34.7091 332.191 37.0029 335.021 37.0029Z" fill="#3F3D56"/>
<path d="M436.72 31.3672H354.233V32.3919H436.72V31.3672Z" fill="#3F3D56"/>
<path d="M335.021 93.46C337.85 93.46 340.144 91.1661 340.144 88.3366C340.144 85.507 337.85 83.2131 335.021 83.2131C332.191 83.2131 329.897 85.507 329.897 88.3366C329.897 91.1661 332.191 93.46 335.021 93.46Z" fill="#3F3D56"/>
<path d="M436.72 87.824H354.233V88.8487H436.72V87.824Z" fill="#3F3D56"/>
<path d="M335.021 150.723C337.85 150.723 340.144 148.429 340.144 145.6C340.144 142.77 337.85 140.476 335.021 140.476C332.191 140.476 329.897 142.77 329.897 145.6C329.897 148.429 332.191 150.723 335.021 150.723Z" fill="#3F3D56"/>
<path d="M436.72 145.087H354.233V146.112H436.72V145.087Z" fill="#3F3D56"/>
<path d="M297.67 160.099H272.053V133.97H289.473V134.994H273.078V159.074H296.646V147.291H297.67V160.099Z" fill="#3F3D56"/>
<path d="M297.67 102.717H272.053V76.5874H289.473V77.6121H273.078V101.692H296.646V89.9083H297.67V102.717Z" fill="#3F3D56"/>
<path d="M297.67 44.3098H272.053V18.1804H289.473V19.2051H273.078V43.2851H296.646V31.5013H297.67V44.3098Z" fill="#3F3D56"/>
</g>
<defs>
<clipPath id="clip0">
<rect width="455" height="274.087" fill="white"/>
</clipPath>
</defs>
</svg>
