<svg width="454" height="268" viewBox="0 0 454 268" fill="none" xmlns="http://www.w3.org/2000/svg">
<path d="M416.953 266.785C423.894 266.785 429.52 265.847 429.52 264.69C429.52 263.534 423.894 262.596 416.953 262.596C410.013 262.596 404.386 263.534 404.386 264.69C404.386 265.847 410.013 266.785 416.953 266.785Z" fill="#F2F2F2"/>
<path d="M431.615 64.6672H430.567V86.6593H431.615V64.6672Z" fill="#C4C4C4"/>
<path d="M420.095 50.5295H413.811V267.309H420.095V50.5295Z" fill="#C4C4C4"/>
<path d="M445.72 67.5472H388.187C387.556 67.5472 386.932 67.413 386.356 67.1535C385.781 66.894 385.268 66.5151 384.85 66.042C384.432 65.5689 384.12 65.0123 383.934 64.4093C383.748 63.8063 383.692 63.1706 383.77 62.5444L391.101 3.89878C391.237 2.82295 391.76 1.83359 392.573 1.11593C393.386 0.398273 394.433 0.00153401 395.517 0H438.389C439.473 0.00153385 440.52 0.398273 441.333 1.11593C442.146 1.83359 442.669 2.82295 442.805 3.89878L450.136 62.5444C450.214 63.1706 450.159 63.8063 449.973 64.4093C449.786 65.0123 449.474 65.5689 449.056 66.042C448.639 66.5151 448.125 66.894 447.55 67.1535C446.975 67.413 446.351 67.5472 445.72 67.5472Z" fill="#C4C4C4"/>
<path d="M431.091 90.3246C433.115 90.3246 434.756 88.6836 434.756 86.6592C434.756 84.6349 433.115 82.9939 431.091 82.9939C429.067 82.9939 427.426 84.6349 427.426 86.6592C427.426 88.6836 429.067 90.3246 431.091 90.3246Z" fill="#C4C4C4"/>
<path d="M65.7461 209.116C63.1007 218.293 55.3765 224.717 47.3192 230.174C46.1942 230.936 45.0688 231.681 43.943 232.408C43.9354 232.411 43.9276 232.419 43.9198 232.422C43.8657 232.457 43.8114 232.492 43.7609 232.527C43.5286 232.676 43.2962 232.826 43.0658 232.974L43.1923 233.031C43.1923 233.031 43.3166 233.097 43.1806 233.042C43.1402 233.025 43.0978 233.01 43.0574 232.993C38.3766 231.105 33.6127 229.078 30.0255 225.541C26.3044 221.869 24.1298 216.109 26.1447 211.284C26.4096 210.652 26.7441 210.052 27.1421 209.494C27.3056 209.26 27.4816 209.036 27.6649 208.816C28.7763 207.46 30.2291 206.424 31.8736 205.815C33.5182 205.206 35.2953 205.046 37.0222 205.352C38.7491 205.657 40.3634 206.417 41.6992 207.553C43.0351 208.69 44.0441 210.161 44.6227 211.817C45.2146 206.305 40.67 201.688 36.2964 198.282C31.9209 194.877 26.9491 191.169 26.1032 185.689C25.6308 182.639 26.6912 179.684 28.623 177.311C28.6828 177.239 28.7425 177.167 28.8041 177.097C31.1556 174.334 34.4629 172.56 38.0655 172.129C44.7748 171.431 51.2918 174.983 56.1659 179.648C64.0108 187.153 68.7534 198.681 65.7461 209.116Z" fill="#87DA54"/>
<path d="M53.1351 197.112C54.4227 199.115 55.4113 201.296 56.0697 203.584C56.6264 205.63 56.8742 207.747 56.8048 209.866C56.6252 214.226 55.4012 218.479 53.2357 222.268C51.6045 225.142 49.6165 227.798 47.3191 230.174C46.1941 230.936 45.0687 231.681 43.943 232.408C43.9354 232.411 43.9275 232.418 43.9198 232.422C43.8656 232.457 43.8113 232.491 43.7609 232.526C43.5285 232.676 43.2961 232.826 43.0657 232.974C43.0657 232.974 43.3166 233.097 43.1806 233.042C43.1401 233.025 43.0977 233.009 43.0573 232.992C43.4769 229.553 43.0659 226.063 41.8588 222.815C40.6518 219.567 38.6838 216.656 36.1199 214.325C33.5498 212.03 30.4736 210.374 27.1421 209.494C27.3055 209.26 27.4816 209.036 27.6648 208.816C28.9515 209.177 30.2038 209.651 31.407 210.232C35.708 212.298 39.2298 215.693 41.451 219.916C43.4442 223.75 44.302 228.074 43.9238 232.379C44.1161 232.205 44.3087 232.026 44.4954 231.85C48.0523 228.534 51.2116 224.728 53.3496 220.335C55.2045 216.614 56.1162 212.495 56.0043 208.34C55.8298 203.809 54.0245 199.612 51.4106 195.958C48.5458 192.06 45.1614 188.572 41.3516 185.591C37.5121 182.516 33.3107 179.922 28.8411 177.868C28.7403 177.821 28.6615 177.737 28.6209 177.633C28.5802 177.529 28.581 177.414 28.623 177.311C28.6528 177.219 28.7179 177.142 28.8041 177.097C28.8485 177.078 28.8966 177.069 28.9448 177.071C28.9931 177.073 29.0403 177.086 29.0829 177.109C29.6347 177.363 30.1827 177.62 30.7264 177.889C35.2542 180.127 39.4865 182.919 43.326 186.2C47.0347 189.362 50.5262 192.975 53.1351 197.112Z" fill="white"/>
<path d="M27.5556 232.226H56.5452C56.8632 232.226 57.1776 232.294 57.4674 232.424C57.7573 232.555 58.016 232.746 58.2265 232.985C58.4369 233.223 58.5943 233.503 58.6881 233.807C58.7819 234.111 58.81 234.431 58.7705 234.747L55.0768 264.297C55.0082 264.839 54.7445 265.338 54.3348 265.699C53.9252 266.061 53.3978 266.261 52.8514 266.261H31.2494C30.703 266.261 30.1756 266.061 29.766 265.699C29.3564 265.338 29.0926 264.839 29.0241 264.297L25.3303 234.747C25.2909 234.431 25.319 234.111 25.4128 233.807C25.5066 233.503 25.6639 233.223 25.8744 232.985C26.0848 232.746 26.3435 232.555 26.6334 232.424C26.9233 232.294 27.2376 232.226 27.5556 232.226Z" fill="#B5B5B5"/>
<path d="M122.076 266.489C124.08 266.489 125.704 264.864 125.704 262.861C125.704 260.857 124.08 259.233 122.076 259.233C120.072 259.233 118.448 260.857 118.448 262.861C118.448 264.864 120.072 266.489 122.076 266.489Z" fill="#CCCCCC"/>
<path d="M351.246 266.489C353.25 266.489 354.874 264.864 354.874 262.861C354.874 260.857 353.25 259.233 351.246 259.233C349.242 259.233 347.618 260.857 347.618 262.861C347.618 264.864 349.242 266.489 351.246 266.489Z" fill="#CCCCCC"/>
<path d="M188.59 212.37H131.751C129.106 212.367 126.57 211.315 124.699 209.445C122.829 207.574 121.777 205.038 121.774 202.393V163.694C121.777 161.049 122.829 158.513 124.699 156.643C126.57 154.772 129.106 153.72 131.751 153.717H188.59C191.235 153.72 193.771 154.772 195.641 156.643C197.512 158.513 198.564 161.049 198.567 163.694V202.393C198.564 205.038 197.512 207.574 195.641 209.445C193.771 211.315 191.235 212.367 188.59 212.37Z" fill="#FFB152"/>
<path d="M265.081 212.673H208.241C205.596 212.67 203.06 211.618 201.19 209.748C199.32 207.877 198.267 205.341 198.264 202.696V163.997C198.267 161.352 199.32 158.816 201.19 156.946C203.06 155.075 205.596 154.023 208.241 154.02H265.081C267.726 154.023 270.262 155.075 272.132 156.946C274.003 158.816 275.055 161.352 275.058 163.997V202.696C275.055 205.341 274.003 207.877 272.132 209.748C270.262 211.618 267.726 212.67 265.081 212.673Z" fill="#FFB152"/>
<path d="M341.572 212.975H284.732C282.087 212.972 279.551 211.92 277.681 210.05C275.81 208.179 274.758 205.643 274.755 202.998V164.299C274.758 161.654 275.81 159.118 277.681 157.248C279.551 155.377 282.087 154.325 284.732 154.322H341.572C344.217 154.325 346.753 155.377 348.623 157.248C350.494 159.118 351.546 161.654 351.549 164.299V202.998C351.546 205.643 350.493 208.179 348.623 210.05C346.753 211.92 344.217 212.972 341.572 212.975Z" fill="#FFB152"/>
<path d="M363.339 210.254H113.006V262.558H363.339V210.254Z" fill="#FFB152"/>
<path d="M122.076 262.861H111.192C105.691 262.861 101.215 257.779 101.215 251.533V196.952H122.076V262.861Z" fill="#FFB152"/>
<path d="M362.13 262.861H351.246V188.486H372.107V250.077C372.107 257.126 367.632 262.861 362.13 262.861Z" fill="#FFB152"/>
<path d="M198.869 221.138H122.076V204.812C147.674 190.129 173.272 190.129 198.869 204.812V221.138Z" fill="#FF7B1A"/>
<path d="M275.36 221.441H198.567V205.115C224.164 190.431 249.762 190.431 275.36 205.115V221.441Z" fill="#FF7B1A"/>
<path d="M351.851 221.743H275.058V205.417C300.656 190.733 326.253 190.733 351.851 205.417V221.743Z" fill="#FF7B1A"/>
<path d="M107.262 210.859C117.113 210.859 125.099 202.873 125.099 193.021C125.099 183.17 117.113 175.183 107.262 175.183C97.4101 175.183 89.4238 183.17 89.4238 193.021C89.4238 202.873 97.4101 210.859 107.262 210.859Z" fill="#FF7B1A"/>
<path d="M368.479 210.254C378.331 210.254 386.317 202.268 386.317 192.417C386.317 182.565 378.331 174.579 368.479 174.579C358.628 174.579 350.642 182.565 350.642 192.417C350.642 202.268 358.628 210.254 368.479 210.254Z" fill="#FF7B1A"/>
<path d="M315.934 157.471C315.975 157.758 315.994 158.047 315.99 158.337L337.372 173.074L343.074 170.374L348.272 178.447L338.642 184.207C337.864 184.672 336.956 184.873 336.055 184.778C335.153 184.683 334.307 184.299 333.642 183.682L311.988 163.584C310.914 163.887 309.773 163.855 308.717 163.493C307.661 163.131 306.741 162.456 306.078 161.558C305.415 160.66 305.041 159.582 305.006 158.466C304.971 157.35 305.276 156.251 305.881 155.313C306.487 154.375 307.363 153.644 308.394 153.216C309.425 152.789 310.562 152.685 311.653 152.919C312.744 153.154 313.739 153.715 314.503 154.528C315.268 155.341 315.767 156.367 315.934 157.471V157.471Z" fill="#FFB8B8"/>
<path d="M337.784 171.805C337.878 171.48 338.041 171.179 338.262 170.922C338.483 170.666 338.757 170.46 339.065 170.319L349.816 165.393C351.268 164.448 353.035 164.117 354.731 164.473C356.426 164.829 357.911 165.842 358.86 167.292C359.81 168.741 360.146 170.507 359.794 172.204C359.443 173.9 358.434 175.388 356.987 176.341L348.099 184.201C347.846 184.425 347.547 184.592 347.223 184.69C346.899 184.788 346.557 184.816 346.222 184.77C345.886 184.725 345.564 184.607 345.278 184.426C344.992 184.245 344.748 184.004 344.564 183.721L338.072 173.746C337.887 173.463 337.766 173.142 337.716 172.807C337.666 172.472 337.689 172.131 337.784 171.805Z" fill="#3856FF"/>
<path d="M315.665 158.431L315.557 158.439L315.264 154.384C315.17 153.087 314.331 152.091 313.391 152.16L307.156 152.611C306.216 152.679 304.485 153.86 304.579 155.157L304.654 156.201L306.188 177.406C306.282 178.702 308.165 179.622 309.106 179.554L315.34 179.103C316.281 179.035 316.967 177.929 316.874 176.633L315.766 161.326L315.873 161.318L315.665 158.431Z" fill="#3F3D56"/>
<path d="M314.902 154.426L316.51 176.642C316.58 177.61 316.067 178.436 315.365 178.487L309.101 178.941C308.398 178.991 307.772 178.248 307.702 177.28L306.094 155.063C306.024 154.095 306.537 153.269 307.239 153.218L307.999 153.163C307.947 153.361 307.958 153.57 308.032 153.761C308.106 153.952 308.238 154.114 308.41 154.225C308.482 154.26 308.562 154.275 308.642 154.27L312.214 154.012C312.547 153.987 312.791 153.594 312.757 153.134C312.75 153.028 312.727 152.924 312.69 152.824L313.504 152.765C314.206 152.714 314.832 153.458 314.902 154.426Z" fill="white"/>
<path d="M227.022 205.726L224.956 199.648L247.416 188.786L250.465 197.757L227.022 205.726Z" fill="#FFB8B8"/>
<path d="M221.657 209.279L214.995 189.681L215.243 189.597C216.245 189.256 217.304 189.117 218.359 189.185C219.415 189.254 220.447 189.53 221.396 189.997C222.345 190.465 223.193 191.115 223.891 191.91C224.589 192.705 225.124 193.63 225.464 194.632L225.464 194.632L229.533 206.602L221.657 209.279Z" fill="#2F2E41"/>
<path d="M316.164 210.063C311.347 210.334 306.544 209.328 302.24 207.148L275.829 189.181L244.99 200.6C244.172 200.879 243.278 200.836 242.489 200.481C241.701 200.126 241.076 199.485 240.742 198.688L239.231 195.052C238.886 194.235 238.876 193.314 239.203 192.489C239.53 191.664 240.168 191.001 240.979 190.641L270.442 177.41C273.979 175.828 277.947 175.484 281.704 176.436L322.605 186.859L333.416 199.698L333.296 199.864C327.989 207.186 321.693 209.663 316.164 210.063Z" fill="#2F2E41"/>
<path d="M349.568 156.413C356.671 156.413 362.429 150.655 362.429 143.552C362.429 136.449 356.671 130.691 349.568 130.691C342.465 130.691 336.707 136.449 336.707 143.552C336.707 150.655 342.465 156.413 349.568 156.413Z" fill="#FFB8B8"/>
<path d="M336.366 205.423L315.668 190.019L329.784 179.987C329.38 178.688 327.589 171.258 337.385 166.194C340.486 164.592 342.72 163.212 344.025 162.094C345.877 160.496 348.249 159.631 350.695 159.661C352.236 159.685 353.751 160.068 355.119 160.779C356.487 161.49 357.671 162.51 358.577 163.758C359.483 165.005 360.086 166.447 360.338 167.968C360.591 169.489 360.486 171.048 360.031 172.521C357.989 179.161 354.735 187.959 350.834 192.166C346.421 196.92 341.635 201.314 336.523 205.305L336.366 205.423Z" fill="#3856FF"/>
<path d="M230.304 211.112L228.238 205.033L250.698 194.172L253.747 203.142L230.304 211.112Z" fill="#FFB8B8"/>
<path d="M224.939 214.664L218.277 195.067L218.525 194.983C219.527 194.642 220.586 194.502 221.641 194.571C222.697 194.639 223.729 194.915 224.678 195.383C225.627 195.85 226.475 196.5 227.173 197.295C227.871 198.091 228.406 199.015 228.746 200.017L228.746 200.018L232.815 211.987L224.939 214.664Z" fill="#2F2E41"/>
<path d="M319.446 215.449C314.629 215.72 309.826 214.714 305.521 212.534L279.111 194.567L248.272 205.986C247.453 206.265 246.56 206.222 245.771 205.867C244.983 205.512 244.358 204.871 244.024 204.074L242.512 200.438C242.168 199.621 242.158 198.7 242.485 197.875C242.812 197.05 243.45 196.387 244.261 196.027L273.724 182.796C277.261 181.214 281.229 180.87 284.985 181.822L325.887 192.245L336.698 205.084L336.578 205.25C331.271 212.572 324.975 215.049 319.446 215.449Z" fill="#2F2E41"/>
<path d="M313.509 172.898C313.67 173.14 313.811 173.394 313.931 173.657L339.563 177.82L343.56 172.94L351.714 178.009L345.478 187.337C344.974 188.091 344.239 188.661 343.384 188.961C342.529 189.262 341.599 189.277 340.735 189.004L312.561 180.112C311.72 180.846 310.675 181.305 309.566 181.43C308.456 181.555 307.335 181.34 306.352 180.812C305.368 180.284 304.569 179.47 304.059 178.477C303.55 177.483 303.355 176.359 303.5 175.252C303.646 174.145 304.125 173.109 304.874 172.281C305.622 171.454 306.605 170.873 307.692 170.618C308.778 170.362 309.917 170.444 310.956 170.851C311.995 171.258 312.886 171.973 313.509 172.898Z" fill="#FFB8B8"/>
<path d="M339.392 176.498C339.338 176.164 339.357 175.822 339.447 175.495C339.537 175.169 339.696 174.865 339.914 174.606L347.521 165.551C348.428 164.075 349.884 163.02 351.568 162.615C353.253 162.211 355.029 162.491 356.507 163.394C357.985 164.298 359.045 165.75 359.454 167.434C359.863 169.117 359.588 170.894 358.689 172.375L354.022 183.283C353.888 183.594 353.69 183.873 353.439 184.1C353.188 184.328 352.891 184.499 352.569 184.601C352.246 184.704 351.905 184.736 351.569 184.694C351.233 184.653 350.909 184.54 350.621 184.363L340.484 178.128C340.196 177.951 339.949 177.714 339.76 177.432C339.572 177.151 339.446 176.832 339.392 176.498Z" fill="#3856FF"/>
<path d="M346.13 157.716C349.867 152.908 351.939 147.015 352.034 140.926C350.275 142.233 348.284 143.195 346.166 143.76C343.919 144.359 341.449 144.479 339.332 143.515C336.354 142.158 334.592 138.698 334.93 135.442C335.268 132.187 337.518 129.278 340.447 127.818C343.446 126.416 346.866 126.209 350.012 127.239C351.677 125.822 353.715 124.914 355.882 124.625C358.048 124.336 360.253 124.677 362.231 125.609C366.783 127.843 369.301 133.017 369.737 138.069C370.174 143.121 368.876 148.145 367.589 153.049L367.444 153.604C367.043 155.131 365.878 158.06 365.878 158.06C365.878 158.06 359.115 156.726 356.428 155.87C352.534 157.278 346.13 157.716 346.13 157.716Z" fill="#2F2E41"/>
<path d="M313.891 158.948L308.381 159.347C308.242 159.357 308.106 159.312 308.001 159.221C307.896 159.13 307.831 159.001 307.821 158.863C307.811 158.724 307.856 158.587 307.947 158.482C308.038 158.377 308.167 158.313 308.305 158.303L313.816 157.904C313.885 157.899 313.954 157.907 314.019 157.929C314.084 157.95 314.145 157.985 314.197 158.03C314.249 158.075 314.292 158.129 314.323 158.191C314.354 158.252 314.372 158.319 314.377 158.388C314.382 158.457 314.373 158.526 314.352 158.591C314.33 158.657 314.296 158.717 314.25 158.769C314.205 158.821 314.15 158.864 314.089 158.894C314.027 158.925 313.96 158.943 313.891 158.948Z" fill="#3F3D56"/>
<path d="M314.081 161.56L308.57 161.958C308.501 161.963 308.432 161.955 308.367 161.933C308.302 161.912 308.241 161.877 308.189 161.832C308.137 161.787 308.094 161.733 308.063 161.671C308.032 161.61 308.014 161.543 308.009 161.474C308.004 161.405 308.013 161.336 308.034 161.271C308.056 161.206 308.09 161.145 308.136 161.093C308.181 161.041 308.236 160.998 308.297 160.968C308.359 160.937 308.426 160.919 308.495 160.914L314.005 160.515C314.143 160.505 314.28 160.55 314.385 160.641C314.49 160.732 314.555 160.861 314.565 161C314.575 161.138 314.53 161.275 314.439 161.38C314.348 161.485 314.219 161.55 314.081 161.56Z" fill="#3F3D56"/>
<path d="M314.269 164.171L308.759 164.569C308.62 164.579 308.484 164.534 308.379 164.443C308.274 164.352 308.21 164.223 308.2 164.085C308.19 163.946 308.235 163.81 308.326 163.705C308.416 163.6 308.545 163.535 308.683 163.525L314.194 163.126C314.332 163.116 314.469 163.162 314.574 163.252C314.679 163.343 314.744 163.472 314.754 163.611C314.764 163.749 314.718 163.886 314.628 163.991C314.537 164.096 314.408 164.161 314.269 164.171Z" fill="#3F3D56"/>
<path d="M452.762 267.309H0.523621C0.384748 267.309 0.251563 267.254 0.153365 267.155C0.0551667 267.057 0 266.924 0 266.785C0 266.646 0.0551667 266.513 0.153365 266.415C0.251563 266.317 0.384748 266.261 0.523621 266.261H452.762C452.901 266.261 453.034 266.317 453.133 266.415C453.231 266.513 453.286 266.646 453.286 266.785C453.286 266.924 453.231 267.057 453.133 267.155C453.034 267.254 452.901 267.309 452.762 267.309Z" fill="#3F3D56"/>
<path d="M251.747 92.9426H198.861C197.611 92.9412 196.414 92.4443 195.53 91.5608C194.647 90.6773 194.15 89.4795 194.148 88.23V42.675C194.15 41.4256 194.647 40.2277 195.53 39.3443C196.414 38.4608 197.611 37.9638 198.861 37.9624H251.747C252.996 37.9638 254.194 38.4608 255.077 39.3443C255.961 40.2277 256.458 41.4256 256.459 42.675V88.23C256.458 89.4795 255.961 90.6773 255.077 91.5608C254.194 92.4442 252.996 92.9412 251.747 92.9426ZM198.861 39.0096C197.889 39.0107 196.957 39.3973 196.27 40.0844C195.583 40.7716 195.197 41.7032 195.195 42.675V88.23C195.197 89.2018 195.583 90.1335 196.27 90.8206C196.957 91.5078 197.889 91.8943 198.861 91.8954H251.747C252.718 91.8943 253.65 91.5078 254.337 90.8206C255.024 90.1335 255.411 89.2018 255.412 88.23V42.675C255.411 41.7032 255.024 40.7716 254.337 40.0844C253.65 39.3973 252.718 39.0107 251.747 39.0096H198.861Z" fill="#818181"/>
<path d="M244.014 85.874H206.593C205.413 85.8726 204.282 85.4033 203.447 84.5689C202.613 83.7345 202.143 82.6032 202.142 81.4232V49.4823C202.143 48.3023 202.613 47.171 203.447 46.3366C204.282 45.5022 205.413 45.0328 206.593 45.0315H244.014C245.194 45.0328 246.325 45.5022 247.16 46.3366C247.994 47.171 248.463 48.3023 248.465 49.4823V81.4232C248.463 82.6032 247.994 83.7345 247.16 84.5689C246.325 85.4033 245.194 85.8726 244.014 85.874Z" fill="#C4C4C4"/>
<path d="M225.565 31.1554C227.011 31.1554 228.183 29.9832 228.183 28.5373C228.183 27.0914 227.011 25.9192 225.565 25.9192C224.119 25.9192 222.947 27.0914 222.947 28.5373C222.947 29.9832 224.119 31.1554 225.565 31.1554Z" fill="#818181"/>
<path d="M231.07 38.7554L225.567 29.559L220.095 38.7538L219.195 38.2187L225.564 27.5159L231.969 38.2171L231.07 38.7554Z" fill="#818181"/>
<path d="M231.587 61.7872C231.585 60.9947 231.498 60.2047 231.327 59.4309H223.471C222.915 59.4309 222.382 59.6516 221.99 60.0444C221.597 60.4372 221.376 60.9699 221.376 61.5254V72.7436C224.148 72.5469 226.743 71.3072 228.637 69.2743C230.532 67.2413 231.586 64.5661 231.587 61.7872Z" fill="#3856FF"/>
<path d="M220.591 73.3072C218.418 73.308 216.29 72.6942 214.451 71.5369C212.612 70.3796 211.138 68.7258 210.199 66.7665C209.26 64.8072 208.894 62.6222 209.143 60.4639C209.393 58.3055 210.248 56.2618 211.61 54.5686C212.971 52.8754 214.784 51.6018 216.838 50.8948C218.893 50.1878 221.105 50.0762 223.221 50.5729C225.336 51.0697 227.267 52.1545 228.792 53.7022C230.317 55.2498 231.373 57.1972 231.839 59.3195L231.978 59.9548H223.471C223.054 59.9553 222.655 60.1209 222.361 60.4154C222.066 60.7099 221.9 61.1092 221.9 61.5257V73.2318L221.322 73.2727C221.08 73.2903 220.838 73.3072 220.591 73.3072ZM220.591 51.3151C217.813 51.3151 215.15 52.4184 213.186 54.3824C211.222 56.3463 210.118 59.01 210.118 61.7875C210.118 64.565 211.222 67.2287 213.186 69.1926C215.15 71.1566 217.813 72.2599 220.591 72.2599C220.679 72.2599 220.766 72.2574 220.853 72.2533V61.5257C220.854 60.8316 221.13 60.1661 221.62 59.6753C222.111 59.1845 222.777 58.9084 223.471 58.9076H230.656C230.021 56.7257 228.699 54.8075 226.885 53.4392C225.071 52.0708 222.863 51.3257 220.591 51.3151Z" fill="white"/>
<path d="M236.038 76.7104H223.471C222.777 76.7095 222.111 76.4335 221.62 75.9426C221.13 75.4518 220.854 74.7864 220.853 74.0922V72.2557L221.339 72.2212C222.838 72.1177 224.298 71.6919 225.617 70.973C226.937 70.254 228.085 69.2587 228.985 68.0551C229.885 66.8515 230.514 65.4679 230.83 63.9989C231.146 62.5298 231.141 61.0099 230.816 59.5428L230.677 58.9072H236.038C236.732 58.908 237.397 59.1841 237.888 59.6749C238.379 60.1658 238.655 60.8312 238.656 61.5253V74.0922C238.655 74.7864 238.379 75.4518 237.888 75.9426C237.397 76.4335 236.732 76.7096 236.038 76.7104ZM221.9 73.2209V74.0922C221.9 74.5087 222.066 74.908 222.361 75.2025C222.655 75.497 223.054 75.6626 223.471 75.6631H236.038C236.454 75.6626 236.854 75.497 237.148 75.2025C237.443 74.908 237.608 74.5087 237.609 74.0922V61.5253C237.608 61.1089 237.443 60.7096 237.148 60.4151C236.854 60.1206 236.454 59.9549 236.038 59.9545H231.96C232.06 60.5603 232.11 61.1732 232.111 61.7871C232.101 64.6118 231.057 67.335 229.175 69.4418C227.294 71.5487 224.706 72.8931 221.9 73.2209Z" fill="white"/>
</svg>
