<svg width="459" height="281" viewBox="0 0 459 281" fill="none" xmlns="http://www.w3.org/2000/svg">
<path d="M391.9 245.991C378.031 245.869 364.185 244.853 350.447 242.949C349.965 242.883 349.482 242.81 349 242.743L349.726 112.866C350.205 112.484 350.69 112.109 351.18 111.745C352.804 110.533 354.474 109.396 356.202 108.353C364.525 103.339 374.27 101.043 380.993 103.344L381.097 103.385C382.57 103.881 383.929 104.664 385.098 105.687C391.002 110.932 390.018 121.537 385.253 131.161C394.701 122.529 406.624 115.656 417.266 115.134C427.646 114.622 435.062 120.049 441.363 125.937C441.572 126.13 441.774 126.323 441.977 126.516C442.081 126.61 442.179 126.709 442.283 126.803C447.086 131.396 451.82 136.751 451.247 144.502C450.618 153.002 443.498 162.427 435.201 169.035C426.91 175.644 417.491 180.035 408.298 184.486C399.112 188.943 389.69 193.765 381.838 200.917C394.09 191.23 408.031 183.42 421.589 180.535C435.147 177.65 448.169 180.189 454.554 188.822C456.433 191.443 457.656 194.476 458.123 197.667C458.185 198.039 458.235 198.417 458.279 198.802C459.188 206.793 456.424 216.335 449.818 224.454C442.543 233.395 431.758 239.593 421.521 242.678C411.283 245.761 401.427 246.09 391.9 245.991Z" fill="#87DA54"/>
<rect x="60" y="1" width="362" height="248" fill="white"/>
<path d="M349.457 161.017L349.471 158.534C349.964 157.745 350.451 156.953 350.932 156.157C351.243 155.664 351.543 155.165 351.848 154.667C356.879 146.429 361.705 138.139 366.326 129.799C370.951 121.465 375.362 113.09 379.56 104.673C379.658 104.45 379.83 104.268 380.047 104.159C380.265 104.049 380.513 104.02 380.75 104.075C380.781 104.084 380.811 104.098 380.837 104.116C381.058 104.234 381.149 104.496 380.961 104.879C380.443 105.911 379.926 106.95 379.396 107.982C375.126 116.422 370.643 124.826 365.946 133.194C361.252 141.555 356.35 149.87 351.241 158.136C351.136 158.31 351.024 158.484 350.918 158.658C350.431 159.446 349.944 160.229 349.457 161.017Z" fill="white"/>
<path d="M349.278 193.039L349.286 191.503C349.771 191.156 350.256 190.816 350.741 190.47C362.153 182.332 373.564 174.195 384.976 166.061C403.659 152.74 422.342 139.422 441.025 126.109C441.126 126.03 441.241 125.971 441.363 125.936C441.777 125.822 442.02 126.126 441.977 126.516C441.953 126.68 441.895 126.837 441.806 126.977C441.717 127.117 441.599 127.236 441.46 127.327C430.983 134.796 420.509 142.263 410.04 149.727C391.45 162.979 372.863 176.229 354.277 189.477C353.097 190.32 351.912 191.163 350.732 192.005C350.247 192.352 349.762 192.698 349.278 193.039Z" fill="white"/>
<path d="M358.196 227.252C355.608 227.173 353.061 227.002 350.538 226.778C350.055 226.735 349.572 226.691 349.09 226.648L349.099 225.037C349.581 225.086 350.064 225.135 350.546 225.179C354.192 225.519 357.878 225.761 361.665 225.793C372.164 225.836 382.639 224.813 392.931 222.74C404.012 220.536 414.881 217.371 425.414 213.282C436.522 208.991 447.269 203.816 457.552 197.809C457.719 197.695 457.921 197.645 458.122 197.666C458.582 197.733 458.718 198.344 458.279 198.801C458.193 198.892 458.095 198.969 457.987 199.032C456.709 199.776 455.427 200.505 454.141 201.222C443.802 207.007 433.017 211.96 421.891 216.032C411.323 219.91 400.439 222.86 389.359 224.849C379.081 226.711 368.638 227.516 358.196 227.252Z" fill="white"/>
<path d="M418.062 6.61159e-09H64.9767C63.6318 0.00122299 62.3424 0.536025 61.3914 1.48701C60.4405 2.438 59.9057 3.72746 59.9045 5.07234V244.333C59.9057 245.678 60.4405 246.967 61.3914 247.918C62.3424 248.869 63.6318 249.404 64.9767 249.405H418.062C418.796 249.405 419.52 249.246 420.186 248.939C420.852 248.632 421.443 248.183 421.919 247.625C421.959 247.582 421.996 247.535 422.03 247.486C422.332 247.116 422.578 246.702 422.757 246.258C423.012 245.649 423.142 244.994 423.141 244.333V5.07237C423.139 3.72654 422.603 2.43634 421.651 1.48524C420.699 0.534134 419.408 -6.86215e-05 418.062 6.61159e-09ZM421.692 244.333C421.693 245.041 421.484 245.733 421.093 246.322C420.745 246.841 420.273 247.265 419.72 247.556C419.208 247.82 418.639 247.958 418.062 247.957H64.9767C64.016 247.956 63.0949 247.574 62.4155 246.894C61.7361 246.215 61.354 245.294 61.3528 244.333V5.07237C61.3539 4.1116 61.7361 3.19051 62.4155 2.51114C63.0949 1.83177 64.016 1.44958 64.9767 1.44842H418.062C419.024 1.4483 419.947 1.82987 420.627 2.50935C421.308 3.18883 421.691 4.11066 421.692 5.07237V244.333Z" fill="#3F3D56"/>
<path d="M422.413 20.3296H60.6274V21.7796H422.413V20.3296Z" fill="#3F3D56"/>
<path d="M72.9527 15.2254C75.3552 15.2254 77.3028 13.2778 77.3028 10.8753C77.3028 8.47277 75.3552 6.52515 72.9527 6.52515C70.5502 6.52515 68.6025 8.47277 68.6025 10.8753C68.6025 13.2778 70.5502 15.2254 72.9527 15.2254Z" fill="#3F3D56"/>
<path d="M85.4595 15.2254C87.862 15.2254 89.8097 13.2778 89.8097 10.8753C89.8097 8.47277 87.862 6.52515 85.4595 6.52515C83.057 6.52515 81.1094 8.47277 81.1094 10.8753C81.1094 13.2778 83.057 15.2254 85.4595 15.2254Z" fill="#3F3D56"/>
<path d="M97.9661 15.2254C100.369 15.2254 102.316 13.2778 102.316 10.8753C102.316 8.47277 100.369 6.52515 97.9661 6.52515C95.5636 6.52515 93.616 8.47277 93.616 10.8753C93.616 13.2778 95.5636 15.2254 97.9661 15.2254Z" fill="#3F3D56"/>
<path d="M332.321 53.8947H150.834C148.828 53.8947 146.905 53.098 145.487 51.6799C144.069 50.2617 143.272 48.3383 143.272 46.3327C143.272 44.3272 144.069 42.4037 145.487 40.9856C146.905 39.5675 148.828 38.7708 150.834 38.7708H332.321C334.327 38.7708 336.25 39.5675 337.668 40.9856C339.086 42.4037 339.883 44.3272 339.883 46.3327C339.883 48.3383 339.086 50.2617 337.668 51.6799C336.25 53.098 334.327 53.8947 332.321 53.8947ZM150.834 39.9341C149.137 39.9341 147.509 40.6083 146.309 41.8082C145.109 43.0082 144.435 44.6357 144.435 46.3327C144.435 48.0297 145.109 49.6572 146.309 50.8572C147.509 52.0572 149.137 52.7313 150.834 52.7313H332.321C334.018 52.7313 335.646 52.0572 336.846 50.8572C338.046 49.6572 338.72 48.0297 338.72 46.3327C338.72 44.6357 338.046 43.0082 336.846 41.8082C335.646 40.6083 334.018 39.9341 332.321 39.9341H150.834Z" fill="#3F3D56"/>
<path d="M152.35 100.139H136.063C134.829 100.139 133.645 99.6488 132.772 98.7761C131.899 97.9034 131.409 96.7197 131.409 95.4855C131.409 94.2514 131.899 93.0677 132.772 92.195C133.645 91.3223 134.829 90.832 136.063 90.832H152.35C153.584 90.832 154.768 91.3223 155.641 92.195C156.513 93.0677 157.004 94.2514 157.004 95.4855C157.004 96.7197 156.513 97.9034 155.641 98.7761C154.768 99.6488 153.584 100.139 152.35 100.139Z" fill="#CCCCCC"/>
<path d="M171.546 115.845H136.063C134.829 115.845 133.645 115.354 132.772 114.482C131.899 113.609 131.409 112.425 131.409 111.191C131.409 109.957 131.899 108.773 132.772 107.901C133.645 107.028 134.829 106.538 136.063 106.538H171.546C172.78 106.538 173.964 107.028 174.836 107.901C175.709 108.773 176.199 109.957 176.199 111.191C176.199 112.425 175.709 113.609 174.836 114.482C173.964 115.354 172.78 115.845 171.546 115.845Z" fill="#CCCCCC"/>
<path d="M155.258 168.778H138.971C137.737 168.778 136.553 168.288 135.681 167.415C134.808 166.543 134.318 165.359 134.318 164.125C134.318 162.891 134.808 161.707 135.681 160.834C136.553 159.962 137.737 159.471 138.971 159.471H155.258C156.493 159.471 157.676 159.962 158.549 160.834C159.422 161.707 159.912 162.891 159.912 164.125C159.912 165.359 159.422 166.543 158.549 167.415C157.676 168.288 156.493 168.778 155.258 168.778Z" fill="#CCCCCC"/>
<path d="M174.454 184.484H138.971C137.737 184.484 136.553 183.994 135.681 183.121C134.808 182.248 134.318 181.065 134.318 179.831C134.318 178.596 134.808 177.413 135.681 176.54C136.553 175.667 137.737 175.177 138.971 175.177H174.454C175.688 175.177 176.872 175.667 177.745 176.54C178.617 177.413 179.108 178.596 179.108 179.831C179.108 181.065 178.617 182.248 177.745 183.121C176.872 183.994 175.688 184.484 174.454 184.484Z" fill="#CCCCCC"/>
<path d="M262.289 167.033H246.002C244.768 167.033 243.584 166.543 242.712 165.67C241.839 164.798 241.349 163.614 241.349 162.38C241.349 161.146 241.839 159.962 242.712 159.089C243.584 158.217 244.768 157.726 246.002 157.726H262.289C263.524 157.726 264.707 158.217 265.58 159.089C266.453 159.962 266.943 161.146 266.943 162.38C266.943 163.614 266.453 164.798 265.58 165.67C264.707 166.543 263.524 167.033 262.289 167.033Z" fill="#CCCCCC"/>
<path d="M281.485 182.739H246.002C244.768 182.739 243.584 182.249 242.712 181.376C241.839 180.503 241.349 179.32 241.349 178.085C241.349 176.851 241.839 175.668 242.712 174.795C243.584 173.922 244.768 173.432 246.002 173.432H281.485C282.719 173.432 283.903 173.922 284.776 174.795C285.648 175.668 286.139 176.851 286.139 178.085C286.139 179.32 285.648 180.503 284.776 181.376C283.903 182.249 282.719 182.739 281.485 182.739Z" fill="#CCCCCC"/>
<path d="M260.544 103.048H244.257C243.023 103.048 241.839 102.557 240.966 101.685C240.094 100.812 239.604 99.6282 239.604 98.394C239.604 97.1598 240.094 95.9762 240.966 95.1035C241.839 94.2308 243.023 93.7405 244.257 93.7405H260.544C261.779 93.7405 262.962 94.2308 263.835 95.1035C264.708 95.9762 265.198 97.1598 265.198 98.394C265.198 99.6282 264.708 100.812 263.835 101.685C262.962 102.557 261.779 103.048 260.544 103.048Z" fill="#CCCCCC"/>
<path d="M279.74 118.753H244.257C243.023 118.753 241.839 118.263 240.966 117.39C240.094 116.517 239.604 115.334 239.604 114.1C239.604 112.865 240.094 111.682 240.966 110.809C241.839 109.936 243.023 109.446 244.257 109.446H279.74C280.974 109.446 282.158 109.936 283.031 110.809C283.903 111.682 284.394 112.865 284.394 114.1C284.394 115.334 283.903 116.517 283.031 117.39C282.158 118.263 280.974 118.753 279.74 118.753Z" fill="#CCCCCC"/>
<path d="M369.32 99.5573H353.033C351.799 99.5573 350.615 99.067 349.743 98.1943C348.87 97.3216 348.38 96.1379 348.38 94.9038C348.38 93.6696 348.87 92.4859 349.743 91.6132C350.615 90.7405 351.799 90.2502 353.033 90.2502H369.32C370.555 90.2502 371.738 90.7405 372.611 91.6132C373.484 92.4859 373.974 93.6696 373.974 94.9038C373.974 96.1379 373.484 97.3216 372.611 98.1943C371.738 99.067 370.555 99.5573 369.32 99.5573Z" fill="#CCCCCC"/>
<path d="M388.516 115.263H353.033C351.799 115.263 350.615 114.773 349.743 113.9C348.87 113.027 348.38 111.844 348.38 110.61C348.38 109.375 348.87 108.192 349.743 107.319C350.615 106.446 351.799 105.956 353.033 105.956H388.516C389.75 105.956 390.934 106.446 391.807 107.319C392.679 108.192 393.17 109.375 393.17 110.61C393.17 111.844 392.679 113.027 391.807 113.9C390.934 114.773 389.75 115.263 388.516 115.263Z" fill="#CCCCCC"/>
<path d="M107.326 120.789C116.964 120.789 124.777 112.976 124.777 103.338C124.777 93.7006 116.964 85.8877 107.326 85.8877C97.6887 85.8877 89.8757 93.7006 89.8757 103.338C89.8757 112.976 97.6887 120.789 107.326 120.789Z" fill="#FFB152"/>
<path d="M115.47 111.191H99.1828C98.7201 111.191 98.2766 111.007 97.9494 110.68C97.6223 110.352 97.4382 109.909 97.4377 109.446V97.2307C97.4382 96.768 97.6223 96.3244 97.9494 95.9973C98.2766 95.6701 98.7201 95.4861 99.1828 95.4856H103.768C104.066 95.4845 104.36 95.5603 104.62 95.7058C104.88 95.8512 105.099 96.0613 105.254 96.3158L106.533 98.3941H115.47C115.933 98.3946 116.376 98.5786 116.704 98.9057C117.031 99.2329 117.215 99.6765 117.215 100.139V109.446C117.215 109.909 117.031 110.352 116.704 110.68C116.376 111.007 115.933 111.191 115.47 111.191ZM99.1828 96.649C99.0286 96.6492 98.8808 96.7105 98.7717 96.8196C98.6627 96.9286 98.6013 97.0765 98.6011 97.2307V109.446C98.6013 109.6 98.6627 109.748 98.7717 109.857C98.8808 109.966 99.0286 110.028 99.1828 110.028H115.47C115.624 110.028 115.772 109.966 115.881 109.857C115.99 109.748 116.052 109.6 116.052 109.446V100.139C116.052 99.9849 115.99 99.8371 115.881 99.728C115.772 99.619 115.624 99.5576 115.47 99.5574H105.883L104.264 96.9256C104.212 96.8408 104.139 96.7708 104.052 96.7223C103.965 96.6739 103.867 96.6486 103.768 96.649H99.1828Z" fill="white"/>
<path d="M214.357 123.698C223.995 123.698 231.808 115.885 231.808 106.247C231.808 96.6091 223.995 88.7961 214.357 88.7961C204.719 88.7961 196.906 96.6091 196.906 106.247C196.906 115.885 204.719 123.698 214.357 123.698Z" fill="#FFB152"/>
<path d="M221.919 117.299H206.795C206.333 117.299 205.889 117.115 205.562 116.787C205.235 116.46 205.051 116.017 205.05 115.554V96.9399C205.051 96.4772 205.235 96.0337 205.562 95.7065C205.889 95.3793 206.333 95.1953 206.795 95.1948H217.754C218.152 95.1952 218.537 95.3309 218.847 95.5797L223.012 98.9267C223.216 99.0897 223.381 99.2967 223.494 99.5322C223.607 99.7677 223.665 100.026 223.664 100.287V115.554C223.664 116.017 223.48 116.46 223.153 116.787C222.826 117.115 222.382 117.299 221.919 117.299ZM206.795 96.3582C206.641 96.3584 206.493 96.4198 206.384 96.5288C206.275 96.6378 206.214 96.7857 206.214 96.9399V115.554C206.214 115.708 206.275 115.856 206.384 115.965C206.493 116.074 206.641 116.135 206.795 116.136H221.919C222.073 116.135 222.221 116.074 222.33 115.965C222.439 115.856 222.501 115.708 222.501 115.554V100.287C222.501 100.2 222.482 100.114 222.444 100.035C222.407 99.9569 222.352 99.8879 222.284 99.8336L218.118 96.4863C218.015 96.4035 217.886 96.3583 217.754 96.3582H206.795Z" fill="white"/>
<path d="M219.011 103.338H209.704C209.549 103.338 209.402 103.277 209.292 103.168C209.183 103.059 209.122 102.911 209.122 102.757C209.122 102.602 209.183 102.454 209.292 102.345C209.402 102.236 209.549 102.175 209.704 102.175H219.011C219.165 102.175 219.313 102.236 219.422 102.345C219.531 102.454 219.592 102.602 219.592 102.757C219.592 102.911 219.531 103.059 219.422 103.168C219.313 103.277 219.165 103.338 219.011 103.338Z" fill="white"/>
<path d="M219.011 106.829H209.704C209.549 106.829 209.402 106.767 209.292 106.658C209.183 106.549 209.122 106.401 209.122 106.247C209.122 106.093 209.183 105.945 209.292 105.836C209.402 105.727 209.549 105.665 209.704 105.665H219.011C219.165 105.665 219.313 105.727 219.422 105.836C219.531 105.945 219.592 106.093 219.592 106.247C219.592 106.401 219.531 106.549 219.422 106.658C219.313 106.767 219.165 106.829 219.011 106.829Z" fill="white"/>
<path d="M219.011 110.319H209.704C209.549 110.319 209.402 110.257 209.292 110.148C209.183 110.039 209.122 109.891 209.122 109.737C209.122 109.583 209.183 109.435 209.292 109.326C209.402 109.217 209.549 109.155 209.704 109.155H219.011C219.165 109.155 219.313 109.217 219.422 109.326C219.531 109.435 219.592 109.583 219.592 109.737C219.592 109.891 219.531 110.039 219.422 110.148C219.313 110.257 219.165 110.319 219.011 110.319Z" fill="white"/>
<path d="M322.451 119.901C332.088 119.901 339.901 112.088 339.901 102.451C339.901 92.8129 332.088 85 322.451 85C312.813 85 305 92.8129 305 102.451C305 112.088 312.813 119.901 322.451 119.901Z" fill="#FFB152"/>
<path d="M330.113 109.155H313.826C313.363 109.155 312.92 108.971 312.593 108.644C312.266 108.316 312.082 107.873 312.081 107.41V98.1032C312.082 97.6406 312.266 97.197 312.593 96.8698C312.92 96.5427 313.363 96.3587 313.826 96.3582H330.113C330.576 96.3587 331.02 96.5427 331.347 96.8698C331.674 97.197 331.858 97.6406 331.858 98.1032V107.41C331.858 107.873 331.674 108.316 331.347 108.644C331.02 108.971 330.576 109.155 330.113 109.155ZM313.826 97.5215C313.672 97.5217 313.524 97.583 313.415 97.6921C313.306 97.8011 313.245 97.949 313.244 98.1032V107.41C313.245 107.564 313.306 107.712 313.415 107.821C313.524 107.93 313.672 107.992 313.826 107.992H330.113C330.268 107.992 330.415 107.93 330.525 107.821C330.634 107.712 330.695 107.564 330.695 107.41V98.1032C330.695 97.949 330.634 97.8011 330.525 97.6921C330.415 97.583 330.268 97.5217 330.113 97.5215H313.826Z" fill="white"/>
<path d="M321.969 104.291C321.643 104.292 321.322 104.201 321.045 104.028L312.354 98.5966C312.223 98.5146 312.131 98.3842 312.096 98.234C312.062 98.0838 312.088 97.926 312.17 97.7954C312.252 97.6647 312.382 97.5718 312.532 97.537C312.682 97.5022 312.84 97.5284 312.971 97.6099L321.662 103.041C321.754 103.099 321.861 103.129 321.97 103.129C322.079 103.129 322.185 103.099 322.278 103.041L330.968 97.6099C331.099 97.5284 331.257 97.5022 331.407 97.537C331.557 97.5718 331.687 97.6647 331.769 97.7954C331.851 97.926 331.877 98.0838 331.843 98.234C331.808 98.3842 331.716 98.5146 331.585 98.5966L322.895 104.028C322.617 104.201 322.296 104.292 321.969 104.291Z" fill="white"/>
<path d="M107.326 189.429C116.964 189.429 124.777 181.616 124.777 171.978C124.777 162.34 116.964 154.527 107.326 154.527C97.6887 154.527 89.8757 162.34 89.8757 171.978C89.8757 181.616 97.6887 189.429 107.326 189.429Z" fill="#FFB152"/>
<path d="M115.47 178.377H99.1828C98.7201 178.376 98.2766 178.192 97.9494 177.865C97.6223 177.538 97.4382 177.094 97.4377 176.631V167.324C97.4382 166.862 97.6223 166.418 97.9494 166.091C98.2766 165.764 98.7201 165.58 99.1828 165.579H115.47C115.933 165.58 116.376 165.764 116.704 166.091C117.031 166.418 117.215 166.862 117.215 167.324V176.631C117.215 177.094 117.031 177.538 116.704 177.865C116.376 178.192 115.933 178.376 115.47 178.377ZM99.1828 166.743C99.0286 166.743 98.8807 166.804 98.7717 166.913C98.6626 167.022 98.6013 167.17 98.6011 167.324V176.631C98.6013 176.786 98.6626 176.934 98.7717 177.043C98.8807 177.152 99.0286 177.213 99.1828 177.213H115.47C115.624 177.213 115.772 177.152 115.881 177.043C115.99 176.934 116.052 176.786 116.052 176.631V167.324C116.052 167.17 115.99 167.022 115.881 166.913C115.772 166.804 115.624 166.743 115.47 166.743H99.1828Z" fill="white"/>
<path d="M112.888 178.376H101.183C100.978 178.376 100.778 178.323 100.601 178.221C100.424 178.119 100.277 177.972 100.175 177.795C100.073 177.618 100.019 177.417 100.019 177.213C100.019 177.009 100.073 176.808 100.175 176.631L103.701 170.524C103.803 170.347 103.95 170.2 104.127 170.098C104.304 169.996 104.504 169.942 104.709 169.942C104.913 169.942 105.113 169.996 105.29 170.098C105.467 170.2 105.614 170.347 105.716 170.524L107.994 174.468L109.313 172.183C109.415 172.006 109.562 171.859 109.739 171.757C109.916 171.655 110.116 171.601 110.32 171.601C110.525 171.601 110.725 171.655 110.902 171.757C111.079 171.859 111.226 172.006 111.328 172.183L113.896 176.631C113.998 176.808 114.052 177.009 114.052 177.213C114.052 177.417 113.998 177.618 113.896 177.795C113.794 177.972 113.647 178.119 113.47 178.221C113.293 178.323 113.093 178.376 112.888 178.376H112.888ZM112.888 177.213L110.32 172.765L108.497 175.922C108.446 176.011 108.373 176.084 108.284 176.135C108.196 176.186 108.096 176.213 107.994 176.213C107.891 176.213 107.791 176.186 107.703 176.135C107.614 176.084 107.541 176.011 107.49 175.922L104.709 171.105L101.183 177.213H112.888Z" fill="white"/>
<path d="M113.725 170.233C114.367 170.233 114.888 169.712 114.888 169.069C114.888 168.427 114.367 167.906 113.725 167.906C113.082 167.906 112.562 168.427 112.562 169.069C112.562 169.712 113.082 170.233 113.725 170.233Z" fill="white"/>
<path d="M215.521 187.683C225.158 187.683 232.971 179.87 232.971 170.233C232.971 160.595 225.158 152.782 215.521 152.782C205.883 152.782 198.07 160.595 198.07 170.233C198.07 179.87 205.883 187.683 215.521 187.683Z" fill="#FFB152"/>
<path d="M215.521 170.524C214.485 170.524 213.473 170.217 212.612 169.641C211.751 169.066 211.08 168.248 210.684 167.292C210.288 166.335 210.184 165.283 210.386 164.267C210.588 163.252 211.087 162.319 211.819 161.587C212.551 160.854 213.484 160.356 214.5 160.154C215.515 159.952 216.568 160.055 217.524 160.452C218.481 160.848 219.299 161.519 219.874 162.38C220.449 163.241 220.756 164.253 220.756 165.288C220.754 166.676 220.202 168.007 219.221 168.989C218.24 169.97 216.909 170.522 215.521 170.524ZM215.521 161.217C214.716 161.217 213.928 161.455 213.259 161.903C212.589 162.35 212.067 162.986 211.759 163.73C211.451 164.474 211.37 165.293 211.527 166.083C211.684 166.873 212.072 167.598 212.642 168.168C213.211 168.737 213.937 169.125 214.726 169.282C215.516 169.439 216.335 169.358 217.079 169.05C217.823 168.742 218.459 168.22 218.906 167.551C219.354 166.881 219.593 166.094 219.593 165.288C219.591 164.209 219.162 163.174 218.399 162.411C217.635 161.647 216.6 161.218 215.521 161.217Z" fill="white"/>
<path d="M220.174 180.412H210.867C210.327 180.412 209.81 180.197 209.428 179.815C209.047 179.434 208.832 178.916 208.831 178.376C208.831 176.602 209.536 174.901 210.791 173.646C212.045 172.392 213.747 171.687 215.521 171.687C217.295 171.687 218.996 172.392 220.251 173.646C221.505 174.901 222.21 176.602 222.21 178.376C222.21 178.916 221.995 179.434 221.613 179.815C221.231 180.197 220.714 180.412 220.174 180.412ZM215.521 172.85C214.056 172.852 212.651 173.435 211.615 174.471C210.579 175.507 209.996 176.911 209.995 178.376C209.995 178.608 210.087 178.83 210.251 178.993C210.414 179.157 210.636 179.249 210.867 179.249H220.174C220.406 179.249 220.627 179.157 220.791 178.993C220.955 178.83 221.047 178.608 221.047 178.376C221.045 176.911 220.462 175.507 219.426 174.471C218.39 173.435 216.986 172.852 215.521 172.85Z" fill="white"/>
<path d="M47.0803 274.091H54.2118L57.6042 246.584L47.0791 246.585L47.0803 274.091Z" fill="#FFB8B8"/>
<path d="M67.9653 280.712L45.5524 280.713L45.552 272.054L59.3054 272.053C61.602 272.053 63.8047 272.965 65.4287 274.589C67.0528 276.213 67.9652 278.416 67.9653 280.712L67.9653 280.712Z" fill="#2F2E41"/>
<path d="M20.3225 274.091H27.454L30.8464 246.584L20.3213 246.585L20.3225 274.091Z" fill="#FFB8B8"/>
<path d="M41.2075 280.712L18.7946 280.713L18.7942 272.054L32.5476 272.053C34.8442 272.053 37.0469 272.965 38.6709 274.589C40.295 276.213 41.2074 278.416 41.2075 280.712L41.2075 280.712Z" fill="#2F2E41"/>
<path d="M21.1933 192.167C21.9617 191.673 22.6123 191.016 23.0994 190.243C23.5865 189.47 23.8982 188.6 24.0125 187.694C24.1269 186.787 24.0411 185.867 23.7613 184.997C23.4815 184.128 23.0144 183.33 22.3929 182.66L27.0886 116.023L13.5626 117.335L13.1911 182.593C12.1354 183.711 11.5267 185.178 11.4804 186.716C11.4341 188.253 11.9533 189.754 12.9397 190.934C13.9261 192.114 15.3111 192.892 16.8323 193.119C18.3535 193.346 19.9052 193.007 21.1934 192.167H21.1933Z" fill="#FFB8B8"/>
<path d="M47.2928 260.237C46.6529 260.235 46.0358 260 45.5572 259.575C45.0786 259.15 44.7715 258.565 44.6934 257.93L40.5481 223.26C40.4898 222.772 40.2568 222.321 39.8921 221.992C39.5274 221.662 39.0557 221.475 38.5642 221.466C38.0726 221.457 37.5943 221.626 37.2177 221.942C36.8411 222.258 36.5916 222.7 36.5153 223.186L31.2935 256.381C31.199 256.998 30.8859 257.561 30.4113 257.967C29.9367 258.373 29.3322 258.595 28.7077 258.592H20.2441C19.8987 258.592 19.5567 258.524 19.2379 258.391C18.919 258.258 18.6296 258.063 18.3862 257.818C18.1429 257.573 17.9505 257.282 17.8201 256.962C17.6897 256.642 17.624 256.3 17.6265 255.955L21.6659 182.351C21.6674 181.724 21.895 181.119 22.3068 180.647C22.7185 180.175 23.2869 179.867 23.9075 179.78L55.315 175.221C55.6882 175.167 56.0687 175.194 56.4304 175.3C56.7921 175.407 57.1265 175.59 57.4108 175.838C57.695 176.086 57.9224 176.392 58.0774 176.736C58.2324 177.08 58.3113 177.453 58.3087 177.83L57.7608 257.263C57.7562 257.933 57.4952 258.575 57.0314 259.058C56.5677 259.541 55.9365 259.828 55.2677 259.859L47.4171 260.234C47.3755 260.236 47.334 260.237 47.2928 260.237Z" fill="#2F2E41"/>
<path d="M31.0096 185.132C27.9885 185.12 24.9922 184.587 22.1529 183.555C21.6715 183.377 21.2535 183.061 20.9514 182.647C20.6493 182.232 20.4768 181.738 20.4555 181.225C20.1845 175.212 18.5994 144.262 13.9845 125.383C13.0875 121.68 13.3069 117.794 14.615 114.215C15.923 110.636 18.2613 107.525 21.335 105.273C21.5832 105.094 21.8363 104.919 22.0942 104.747C24.7633 102.97 27.8426 101.906 31.0392 101.655C34.2358 101.405 37.4433 101.976 40.3566 103.316C43.3663 104.662 45.9814 106.757 47.9529 109.4C49.9245 112.042 51.1869 115.146 51.6202 118.414L59.1458 174.286C59.1941 174.636 59.1711 174.991 59.078 175.331C58.9849 175.671 58.8237 175.989 58.6042 176.265C58.3895 176.539 58.1213 176.766 57.816 176.934C57.5107 177.101 57.1745 177.204 56.828 177.238C54.2203 177.498 48.812 178.509 41.8902 182.354C38.5617 184.198 34.8147 185.155 31.0096 185.132Z" fill="#3F3D56"/>
<path d="M21.8094 138.818L9.42488 135.46C8.75528 135.278 8.18535 134.837 7.84014 134.235C7.49493 133.633 7.40262 132.919 7.58347 132.249L11.9372 116.192C12.4035 114.471 13.4901 112.985 14.9875 112.019C16.4849 111.052 18.2871 110.675 20.0464 110.958C21.8058 111.242 23.3979 112.167 24.5155 113.555C25.6332 114.944 26.1974 116.696 26.0992 118.476L25.1081 136.436C25.0867 136.825 24.9785 137.205 24.7914 137.547C24.6044 137.89 24.3432 138.186 24.0271 138.414C23.7109 138.642 23.3477 138.797 22.964 138.867C22.5803 138.937 22.1858 138.92 21.8094 138.818Z" fill="#3F3D56"/>
<path d="M35.5955 95.7293C43.4859 95.7293 49.8824 89.3328 49.8824 81.4424C49.8824 73.552 43.4859 67.1555 35.5955 67.1555C27.7051 67.1555 21.3086 73.552 21.3086 81.4424C21.3086 89.3328 27.7051 95.7293 35.5955 95.7293Z" fill="#FFB8B8"/>
<path d="M87.368 109.512C87.2966 109.825 87.2501 110.144 87.2288 110.466L62.2409 124.881L56.1673 121.385L49.6924 129.861L62.6857 139.122L91.1931 116.632C92.3558 117.062 93.6219 117.129 94.8231 116.822C96.0242 116.515 97.1035 115.85 97.9174 114.914C98.7312 113.979 99.2411 112.818 99.3792 111.586C99.5173 110.354 99.277 109.109 98.6903 108.017C98.1036 106.925 97.1984 106.037 96.0949 105.472C94.9914 104.907 93.7421 104.691 92.513 104.854C91.2839 105.016 90.1333 105.548 89.2143 106.38C88.2952 107.212 87.6513 108.305 87.368 109.512V109.512Z" fill="#FFB8B8"/>
<path d="M60.17 125.577L49.4062 132.562C48.8237 132.939 48.1153 133.07 47.4365 132.925C46.7577 132.781 46.164 132.373 45.7855 131.791L36.7286 117.835C35.7584 116.34 35.376 114.539 35.6552 112.779C35.9344 111.019 36.8554 109.424 38.2406 108.303C39.6258 107.182 41.3771 106.613 43.1568 106.707C44.9364 106.8 46.6185 107.549 47.8785 108.81L60.5962 121.53C60.872 121.806 61.0827 122.14 61.2128 122.508C61.343 122.875 61.3893 123.267 61.3485 123.655C61.3076 124.043 61.1806 124.417 60.9767 124.749C60.7728 125.082 60.4972 125.365 60.17 125.577Z" fill="#3F3D56"/>
<path d="M25.4855 92.7456C28.1508 95.5847 33.1006 94.0606 33.4479 90.1819C33.4751 89.8808 33.4731 89.5778 33.442 89.277C33.2626 87.559 32.2701 85.9992 32.5078 84.1851C32.5617 83.7337 32.7299 83.3034 32.9965 82.9351C35.1204 80.0911 40.1061 84.2072 42.1106 81.6326C43.3397 80.0539 41.8949 77.5682 42.8381 75.8037C44.0829 73.4749 47.7701 74.6237 50.0823 73.3483C52.655 71.9293 52.5011 67.9821 50.8076 65.5812C48.7423 62.6532 45.1212 61.0908 41.5452 60.8657C37.9692 60.6405 34.4178 61.6072 31.0792 62.9082C27.286 64.3865 23.5244 66.4295 21.1901 69.7649C18.3514 73.8212 18.0782 79.2744 19.4979 84.0173C20.3615 86.9026 23.309 90.4271 25.4855 92.7456Z" fill="#2F2E41"/>
<path d="M82.0183 280.754H0.58169C0.427416 280.754 0.279461 280.692 0.170373 280.583C0.0612846 280.474 0 280.326 0 280.172C0 280.018 0.0612846 279.87 0.170373 279.761C0.279461 279.652 0.427416 279.59 0.58169 279.59H82.0183C82.1725 279.59 82.3205 279.652 82.4296 279.761C82.5387 279.87 82.6 280.018 82.6 280.172C82.6 280.326 82.5387 280.474 82.4296 280.583C82.3205 280.692 82.1725 280.754 82.0183 280.754Z" fill="#3F3D56"/>
</svg>
