<svg width="731" height="417" viewBox="0 0 731 417" fill="none" xmlns="http://www.w3.org/2000/svg">
<path opacity="0.1" d="M439.407 300.584C453.52 299.779 471.029 290.199 484.643 285.961C500.756 280.959 516.933 276.147 533.174 271.524C589.713 255.422 646.858 241.702 704.61 230.364C709.999 229.303 715.397 228.268 720.804 227.258C712.382 209.044 699.334 193.36 682.962 181.772C683.382 177.785 683.595 173.779 683.601 169.769C683.601 106.407 633.008 55.0409 570.575 55.0409C551.354 55.0204 532.455 59.9859 515.722 69.453C471.534 40.3603 413.858 22.7525 350.755 22.7525C261.088 22.7525 182.372 58.3067 137.769 111.846L347.397 147.291L475.965 169.022C329.395 173.399 182.372 177.752 36.2239 167.475C16.9316 186.158 4.72095 210.967 1.67871 237.662C-1.36353 264.358 4.95153 291.282 19.5446 313.833C19.5446 316.128 19.6404 318.403 19.8128 320.659C23.5357 321.726 27.1308 322.762 30.3555 323.439C82.1261 334.385 134.229 343.546 186.663 350.921C148.024 374.767 100.968 378.142 56.3962 388.24C77.9797 406.071 107.29 417 139.588 417H620.504C672.579 417 714.788 380.717 714.788 335.953C722.603 323.056 727.81 308.748 730.114 293.842C633.755 303.154 536.195 295.069 439.407 300.584Z" fill="#6C63FF"/>
<path opacity="0.1" d="M730.772 274.777C730.824 256.328 726.441 238.137 717.995 221.739C709.549 205.341 697.286 191.217 682.241 180.558C682.657 176.572 682.87 172.568 682.879 168.561C682.879 105.199 632.26 53.8521 569.853 53.8521C550.631 53.8315 531.731 58.7946 514.994 68.2578C470.806 39.1523 413.124 21.5381 350.021 21.5381C247.378 21.5381 159.026 68.162 119.844 135.02C117.667 134.892 115.476 134.822 113.267 134.822C50.8535 134.822 0.240852 186.188 0.240852 249.551C0.197105 271.931 6.65781 293.842 18.8359 312.613C18.8359 369.622 72.5966 415.837 138.886 415.837H619.815C671.883 415.837 714.093 379.548 714.093 334.784C725.044 316.69 730.814 295.931 730.772 274.777Z" fill="#6C63FF"/>
<path d="M596.852 204.486C595.939 203.785 594.87 203.315 593.736 203.118C592.542 202.844 591.322 202.671 590.109 202.479L574.387 200.21C572.8 199.916 571.182 199.83 569.573 199.955C568.765 200.021 567.979 200.247 567.26 200.62C566.541 200.993 565.903 201.506 565.384 202.128C564.915 202.706 564.658 203.428 564.656 204.173C564.743 204.923 564.987 205.645 565.371 206.295C565.523 206.598 565.653 206.912 565.76 207.234C565.911 207.957 566.098 208.672 566.322 209.375C566.392 209.528 566.482 209.67 566.59 209.797C566.593 209.833 566.593 209.87 566.59 209.906C566.418 210.788 566.974 211.708 566.725 212.558C566.507 213.287 565.799 213.728 565.352 214.335C565.053 214.766 564.888 215.275 564.877 215.799C564.866 216.322 565.009 216.838 565.288 217.281C565.767 218.023 566.635 218.528 566.884 219.378C567.21 220.496 566.329 221.576 565.543 222.439C564.098 224.027 562.763 225.712 561.546 227.482C561.204 227.917 560.983 228.435 560.907 228.984C560.837 230.096 561.903 231.074 561.718 232.179C561.571 233.048 560.722 233.579 559.988 234.097C557.274 235.886 555.096 238.762 554.879 242.015C554.182 236.839 552.04 231.966 548.698 227.955C547.785 226.855 546.782 225.75 546.405 224.356C546.265 223.8 546.239 223.206 546.048 222.669C545.409 220.975 543.379 220.247 542.491 218.687C541.852 217.588 541.852 216.176 541.061 215.211C540.269 214.245 539.024 214.028 538.34 213.095C537.999 212.463 537.709 211.805 537.472 211.127C537.185 210.574 536.782 210.089 536.291 209.708C536.196 209.632 536.098 209.562 535.997 209.497C536.103 209.402 536.188 209.286 536.246 209.156C536.304 209.026 536.335 208.885 536.335 208.743C536.335 207.995 535.595 207.503 534.95 207.132C534.119 206.659 533.308 206.148 532.517 205.617C533.38 205.215 534.129 204.602 534.694 203.834C535.403 202.689 535.696 201.335 535.524 200C535.481 198.921 535.078 197.889 534.381 197.066C533.979 196.638 533.474 196.331 533.053 195.928C531.961 194.861 531.591 193.282 531.137 191.825C530.537 189.908 529.598 187.895 527.849 186.878C527.006 186.386 526.022 186.156 525.199 185.638C524.375 185.121 523.685 184.143 523.973 183.203C524.164 182.564 524.758 182.123 525.16 181.58C525.641 180.878 525.825 180.014 525.673 179.176C525.521 178.339 525.046 177.595 524.349 177.106C523.877 176.806 523.296 176.544 523.2 175.994C522.83 175.898 522.495 175.7 522.233 175.421C521.971 175.143 521.793 174.797 521.718 174.422C521.575 173.67 521.575 172.898 521.718 172.147C521.885 170.958 522.048 169.773 522.21 168.593C522.491 168.71 522.793 168.771 523.098 168.771C523.402 168.771 523.704 168.71 523.985 168.593C524.538 169.491 525.18 170.33 525.901 171.099C527.846 173.397 529.36 176.027 530.371 178.864C530.735 179.886 531.105 181.03 532.05 181.574C532.376 181.759 532.747 181.855 533.066 182.053C533.459 182.328 533.798 182.675 534.062 183.076C534.828 184.092 535.594 185.102 536.354 186.118L536.393 186.271C536.413 186.361 536.448 186.447 536.495 186.527C536.636 186.686 536.832 186.787 537.044 186.808C539.394 187.351 542.031 187.85 544.068 186.565C545.907 185.415 546.712 183.14 548.27 181.618C549.375 180.538 550.939 179.701 551.252 178.18C550.879 178.065 550.513 177.93 550.154 177.777C550.473 177.458 550.792 177.087 551.227 176.665C551.858 176.047 552.426 175.368 552.925 174.639C553.464 173.74 553.893 172.778 554.202 171.776C555.433 168.265 556.667 164.752 557.906 161.237C558.493 159.575 559.081 157.901 559.822 156.284C560.588 154.533 561.495 152.852 562.331 151.132C564.49 146.661 566.156 141.968 567.299 137.136C567.502 136.476 567.569 135.783 567.497 135.097C567.318 133.991 566.482 133.122 565.684 132.336C564.881 131.466 563.966 130.707 562.963 130.08C562.46 129.766 561.899 129.556 561.314 129.462C560.728 129.368 560.13 129.391 559.553 129.53C557.919 130.009 556.891 131.684 556.514 133.365C556.137 135.046 556.278 136.778 556.118 138.478C555.888 140.938 555.045 143.316 554.841 145.783C554.732 147.208 554.841 148.653 554.668 150.078C554.354 151.943 553.705 153.736 552.753 155.37C550.682 159.266 547.878 162.726 544.496 165.557C544.107 165.883 543.704 166.196 543.321 166.548C543.321 166.273 543.366 165.992 543.404 165.717C543.126 165.79 542.855 165.886 542.593 166.005C542.625 165.682 542.593 165.356 542.497 165.046C541.987 163.519 539.713 163.129 539.305 161.576C539.236 161.192 539.2 160.802 539.196 160.412C539.062 159.051 538.136 157.901 537.817 156.578C537.523 155.357 537.746 154.021 537.178 152.89C536.694 152.183 536.123 151.539 535.48 150.973C534.712 150.095 534.159 149.052 533.864 147.924C533.781 147.611 533.704 147.285 533.615 146.972C533.712 146.263 533.633 145.54 533.385 144.869C532.804 143.425 531.303 142.498 530.761 141.034C530.339 139.897 530.524 138.478 529.726 137.596C529.302 137.174 528.783 136.861 528.213 136.682C525.29 135.543 522.223 134.818 519.1 134.528C517.351 134.368 515.422 134.279 514.171 133.045C512.708 131.614 512.638 129.038 510.927 127.932C509.42 126.955 507.287 127.677 506.118 129.051C505.943 129.253 505.781 129.466 505.633 129.69C505.42 128.833 505.374 127.943 505.499 127.07C505.499 126.852 505.544 126.629 505.563 126.43C508.446 125.487 510.9 123.548 512.485 120.96C512.485 120.96 512.485 120.96 512.485 120.998L512.561 121.196C512.747 121.663 513.04 122.11 513.475 122.161C513.763 122.158 514.043 122.056 514.266 121.873C514.652 121.606 515.007 121.297 515.326 120.953C515.488 120.774 515.641 120.589 515.786 120.397C516.08 119.998 516.333 119.57 516.54 119.119C516.857 118.441 517.072 117.719 517.178 116.978C517.293 116.236 517.306 115.476 517.434 114.735C517.553 114.161 517.709 113.595 517.9 113.041C517.964 112.856 518.028 112.67 518.085 112.485C518.143 112.299 518.226 112.05 518.289 111.846C518.689 110.531 518.904 109.167 518.928 107.794C518.928 107.564 518.928 107.334 518.928 107.103C518.905 106.207 518.703 105.324 518.335 104.506C517.966 103.689 517.438 102.953 516.782 102.342C515.684 101.441 514.228 101.064 513.424 99.843C512.9 99.025 512.785 97.9704 512.478 97.0117C512.147 95.8644 511.501 94.833 510.614 94.0343C509.727 93.2357 508.634 92.7018 507.459 92.4932C506.045 92.3379 504.624 92.7288 503.487 93.5861L503.398 93.6564C502.765 94.1403 502.228 94.7386 501.814 95.4203C500.971 95.1877 500.198 94.7484 499.567 94.1421C498.928 93.5477 498.436 92.7999 497.791 92.2247C497.189 91.6723 496.449 91.2919 495.649 91.1232C494.849 90.9546 494.019 91.0039 493.245 91.2661C492.447 91.5858 491.737 92.0902 491.172 92.7379C490.607 93.3856 490.204 94.1581 489.995 94.9921C489.643 96.3087 489.707 97.8234 488.973 98.9227C488.405 99.7791 487.472 100.201 486.821 100.981C486.416 101.474 486.14 102.061 486.016 102.687C485.939 103.037 485.902 103.396 485.908 103.754C485.908 103.914 485.908 104.074 485.946 104.227C485.946 104.227 485.946 104.279 485.946 104.304C485.969 104.479 486.005 104.652 486.055 104.822C486.236 105.47 486.561 106.068 487.006 106.573C487.428 107.056 487.954 107.437 488.545 107.685C488.787 107.779 489.034 107.858 489.286 107.922L490.046 108.094L490.314 108.158C489.397 109.881 488.888 111.792 488.826 113.744C488.764 115.695 489.15 117.635 489.956 119.413C489.956 119.592 489.912 119.771 489.892 119.95C489.788 122.466 489.899 124.987 490.224 127.485C490.314 128.476 490.365 129.569 489.758 130.355C489.482 130.664 489.171 130.94 488.832 131.179C489.177 130.732 489.528 130.291 489.886 129.85C488.986 128.942 487.562 128.827 486.285 128.917C483.813 129.101 481.413 129.835 479.26 131.064C477.83 131.889 476.361 132.981 474.726 132.79C473.762 132.681 472.811 132.151 471.872 132.406C471.345 132.622 470.852 132.915 470.41 133.275C470.06 133.526 469.639 133.656 469.209 133.646C468.207 132.413 466.655 131.575 465.455 130.572C464.088 129.355 462.838 128.013 461.719 126.565C459.65 124.066 457.587 121.56 455.557 119.036C453.845 116.914 452.089 114.619 451.789 111.903C451.759 111.634 451.744 111.363 451.744 111.092C451.786 109.801 451.949 108.517 452.23 107.257C452.306 106.953 452.306 106.634 452.23 106.33C452.038 105.691 451.304 105.455 450.672 105.314C450.755 104.822 450.812 104.317 450.844 103.838C451.202 98.3411 450.812 92.7552 451.974 87.3738C452.415 85.3031 453.137 83.2067 454.624 81.7048C456.955 79.3465 460.857 78.7776 462.645 75.9847C464.139 73.6583 463.545 70.3668 461.668 68.3153C459.79 66.2637 456.898 65.4264 454.146 65.5287C453.373 65.5022 452.611 65.7069 451.955 66.1167C451.343 66.6612 450.884 67.3578 450.627 68.1363L447.888 74.8023C447.093 76.5378 446.423 78.3276 445.882 80.1581C445.116 82.9575 444.944 85.9102 444.337 88.7351C444.337 90.9081 442.939 93.618 442.172 95.6185C441.317 97.8682 440.391 100.092 439.618 102.387C439.427 102.962 438.756 104.668 438.341 106.221C438.184 106.313 438.038 106.422 437.907 106.547C437.573 106.975 437.27 107.426 437 107.896C436.419 108.663 435.474 109.072 434.835 109.813C434.197 110.555 434.063 111.916 434.95 112.287C435.13 112.347 435.317 112.388 435.506 112.408C435.622 112.418 435.737 112.437 435.851 112.466C436.808 112.734 437.185 113.942 437.045 114.939C436.904 115.936 436.406 116.856 436.323 117.853C436.151 119.617 437.185 121.26 438.181 122.743C439.213 124.35 440.352 125.885 441.591 127.338C442.492 128.348 443.507 129.255 444.414 130.227C447.868 133.78 450.614 137.935 453.718 141.795C454.834 143.252 456.104 144.585 457.504 145.77C458.419 146.486 459.377 147.146 460.372 147.745L465.71 151.132C466.315 151.576 467 151.9 467.728 152.085C467.965 152.117 468.206 152.117 468.443 152.085C468.475 152.244 468.5 152.398 468.539 152.558C468.954 154.232 469.867 155.753 469.969 157.46C470.071 159.166 469.918 160.911 470.039 162.637C470.154 164.228 470.506 165.832 470.595 167.398C470.774 170.415 470.033 173.393 469.318 176.346C468.239 180.666 467.587 185.076 465.486 188.994C464.899 190.074 464.209 191.173 464.209 192.407C464.209 192.554 464.209 192.707 464.248 192.854L463.29 193.397C463.009 193.557 462.728 193.717 462.472 193.883C461.259 194.676 459.963 195.551 459.465 196.919C459.062 198.025 459.248 199.29 458.762 200.364C458.739 200.412 458.714 200.459 458.686 200.504C458.175 201.501 457.16 202.243 456.93 203.336C456.757 204.173 457.089 205.061 456.93 205.892C456.93 205.892 456.93 205.892 456.93 205.924C456.784 206.341 456.669 206.769 456.585 207.202C456.578 207.344 456.591 207.486 456.623 207.624C456.745 208.108 457.012 208.544 457.389 208.87C457.619 209.092 457.87 209.291 458.137 209.465C458.409 209.644 458.69 209.81 458.979 209.963L459.145 210.053C459.388 210.181 459.631 210.302 459.88 210.417L460.046 210.487C460.333 210.615 460.627 210.73 460.921 210.833L461.125 210.897C461.355 210.973 461.591 211.044 461.827 211.101L461.987 211.152L462.134 211.184L462.773 211.318L463.009 211.363C463.29 211.41 463.577 211.448 463.871 211.478H464.126C464.343 211.478 464.554 211.51 464.765 211.516H465.065C465.288 211.516 465.506 211.516 465.704 211.516H465.933C466.234 211.516 466.534 211.472 466.834 211.433H466.93C467.198 211.395 467.466 211.35 467.734 211.293L467.939 211.248C468.188 211.19 468.437 211.133 468.686 211.056L468.82 211.018C469.12 210.928 469.42 210.833 469.714 210.718C470.73 210.299 471.716 209.81 472.664 209.254C473.302 208.902 473.941 208.545 474.58 208.219C475.053 207.98 475.539 207.766 476.036 207.579C477.243 207.063 478.557 206.844 479.867 206.94C480.513 207.029 481.153 207.159 481.783 207.33C481.783 207.401 481.783 207.471 481.783 207.541C482.302 210.609 482.815 213.677 483.322 216.744C484.158 216.142 485.042 215.61 485.965 215.153C485.793 215.616 485.679 216.099 485.627 216.591C485.588 216.971 485.588 217.355 485.627 217.735C485.684 218.342 485.812 219.013 485.448 219.493C485.224 219.787 484.809 219.953 484.688 220.285C484.599 220.625 484.578 220.979 484.624 221.327C484.598 221.724 484.43 222.099 484.151 222.383C483.872 222.667 483.501 222.841 483.104 222.874C483.287 223.388 483.292 223.949 483.117 224.466C482.942 224.984 482.598 225.427 482.14 225.724C481.873 225.853 481.624 226.016 481.399 226.21C481.181 226.492 481.034 226.823 480.972 227.175C480.128 230.34 478.392 233.195 475.972 235.4C475.064 236.114 474.235 236.924 473.5 237.816C473.046 238.507 472.671 239.247 472.383 240.021C470.68 244.188 468.952 248.357 467.198 252.529C466.227 254.862 465.282 257.233 464.976 259.744C464.209 266.634 458.079 272.476 459.229 279.314C459.461 281.023 460.149 282.637 461.221 283.986C462.498 285.527 464.414 286.409 466.329 287.124C471.253 289.042 476.444 290.09 481.617 291.144L489.739 292.813C491.333 293.179 492.95 293.436 494.579 293.579C496.54 293.714 498.551 293.528 500.461 294.027C501.642 294.334 502.772 294.902 503.992 294.966C505.039 295.024 506.329 294.8 506.948 295.657C507.568 296.513 507.089 297.644 507.676 298.405C508.622 299.613 510.927 298.405 511.955 299.542C512.236 299.979 512.451 300.455 512.593 300.955C512.75 301.264 512.967 301.538 513.232 301.76C513.294 302.121 513.32 302.487 513.309 302.853C513.175 304.337 512.867 305.8 512.389 307.212C511.623 309.807 510.859 312.404 510.097 315.003C509.806 315.921 509.592 316.861 509.458 317.815C509.41 318.278 509.41 318.745 509.458 319.208C509.592 320.621 510.403 322.078 511.75 322.538C512.796 322.815 513.907 322.677 514.854 322.155C515.767 321.677 516.624 321.098 517.408 320.429C518.822 319.358 520.064 318.078 521.093 316.632C524.286 311.852 523.251 305.384 525.492 300.098C526.98 296.571 529.879 293.707 530.844 289.988C531.069 289.28 531.096 288.524 530.92 287.802C530.518 286.524 529.158 285.795 527.887 285.335H527.83C526.786 284.963 525.719 284.658 524.637 284.421C524.369 284.363 524.094 284.319 523.819 284.274C523.212 283.779 522.728 283.149 522.408 282.433C522.358 282.053 522.257 281.681 522.108 281.328C522.006 281.175 521.87 281.049 521.71 280.96C521.55 280.871 521.371 280.822 521.188 280.816C520.55 280.752 519.694 280.982 518.998 280.931C517.574 280.829 516.629 279.429 515.352 278.784C514.075 278.138 512.689 278.298 511.329 278.394C510.843 278.461 510.348 278.43 509.873 278.304C509.306 278.043 508.788 277.686 508.341 277.25C507.555 276.638 506.637 276.217 505.661 276.021C504.685 275.824 503.676 275.858 502.715 276.119C502.104 276.366 501.457 276.512 500.799 276.553C499.554 276.483 498.673 275.371 497.753 274.527C495.237 272.22 491.655 271.613 488.603 270.098C488.135 269.924 487.746 269.589 487.504 269.152C487.153 268.283 487.945 267.414 488.66 266.819L493.909 262.454C499.656 257.674 506.84 254.075 509.509 247.064C509.787 246.124 510.219 245.237 510.786 244.438C510.993 244.194 511.231 243.979 511.495 243.798C512.656 243.045 514.063 242.771 515.422 243.031C517.078 243.402 518.648 244.088 520.045 245.051C522.332 246.436 524.556 247.927 526.718 249.525C528.861 251.057 530.898 252.731 532.817 254.536C536.169 257.731 538.96 261.521 542.082 264.966C545.205 268.411 548.775 271.626 553.11 273.275C557.446 274.924 562.689 274.853 566.412 272.086C570.709 268.89 572.089 263.177 573.174 257.936C575.569 255.622 576.29 252.101 577.459 248.988C578.193 247.013 579.132 245.153 579.924 243.185C580.869 240.871 581.61 238.481 582.35 236.097C583.19 233.703 583.759 231.223 584.049 228.702C584.355 224.721 583.289 220.483 584.406 216.744C585.882 216.419 587.222 215.588 588.672 215.102C590.83 214.392 593.142 214.508 595.428 214.52H595.575C596.363 214.604 597.155 214.417 597.823 213.99C598.589 213.351 598.71 212.258 598.749 211.267C598.838 208.819 598.685 206.071 596.852 204.486ZM504.33 95.4651C503.802 95.5958 503.256 95.6347 502.715 95.5801L504.33 95.4651Z" fill="url(#paint0_linear)"/>
<path d="M506.846 135.896C506.073 136.553 505.167 137.035 504.19 137.308L499.662 138.932C497.204 139.814 494.637 140.702 492.044 140.382C490.595 140.203 484.382 139.29 483.443 138.158C482.012 136.407 487.025 133.831 488.737 132.355C489.124 132.076 489.484 131.759 489.809 131.409C490.448 130.629 490.365 129.537 490.275 128.552C489.951 126.059 489.84 123.542 489.943 121.03C489.993 120.431 490.078 119.836 490.199 119.247C490.837 116.307 493.57 117.38 495.729 118.16C498.327 119.005 500.839 120.094 503.232 121.413C503.961 121.789 504.594 122.327 505.084 122.986C506.029 124.417 505.652 126.296 505.499 128.099C505.365 129.498 505.371 130.84 506.246 131.857C506.686 132.245 507.09 132.673 507.453 133.135C507.657 133.6 507.709 134.118 507.6 134.614C507.491 135.111 507.227 135.559 506.846 135.896Z" fill="#BE6F72"/>
<path d="M444.305 89.8344C444.944 87.0031 445.084 84.0823 445.851 81.2766C446.391 79.4523 447.062 77.6689 447.856 75.9399L450.672 69.3634C450.929 68.5868 451.388 67.8923 452 67.3502C452.657 66.9432 453.418 66.7387 454.19 66.7622C456.942 66.6599 459.835 67.5163 461.713 69.5424C463.59 71.5684 464.184 74.847 462.69 77.167C460.902 79.96 457 80.5224 454.669 82.8744C453.181 84.3763 452.46 86.4663 452.019 88.5306C450.857 93.8992 451.246 99.466 450.889 104.95C450.774 106.656 450.442 108.605 448.973 109.487C448.086 109.923 447.098 110.115 446.112 110.043L441.923 110.114C441.221 110.114 438.673 110.555 438.207 110.024C437.39 109.097 439.254 104.483 439.593 103.454C440.346 101.172 441.272 98.9482 442.147 96.7049C442.907 94.7045 444.305 92.001 444.305 89.8344Z" fill="#BE6F72"/>
<path d="M530.799 290.62C529.835 294.314 526.936 297.19 525.448 300.712C523.206 305.985 524.215 312.433 521.048 317.201C520.021 318.649 518.778 319.932 517.363 321.004C516.579 321.671 515.723 322.248 514.809 322.723C513.863 323.246 512.751 323.383 511.706 323.107C510.358 322.647 509.547 321.189 509.413 319.783C509.365 319.322 509.365 318.857 509.413 318.396C509.547 317.445 509.761 316.506 510.052 315.591C510.818 313.004 511.582 310.414 512.344 307.819C512.821 306.412 513.13 304.953 513.264 303.473C513.347 301.862 512.325 299.766 512.759 298.264C512.957 297.587 513.698 296.986 514.037 296.417C514.517 295.598 514.886 294.719 515.135 293.803C515.658 292.02 516.016 290.115 517.114 288.613C517.831 287.723 518.669 286.937 519.605 286.281C520.295 285.675 521.104 285.22 521.98 284.945C522.83 284.795 523.703 284.837 524.535 285.066C525.618 285.298 526.684 285.601 527.727 285.974H527.785C529.062 286.434 530.416 287.143 530.818 288.434C531.013 289.151 531.007 289.907 530.799 290.62Z" fill="#3F3D56"/>
<path d="M598.742 212.047C598.704 213.038 598.583 214.143 597.816 214.763C597.149 215.19 596.356 215.378 595.569 215.294H595.396C593.116 215.294 590.798 215.166 588.64 215.875C586.999 216.419 585.492 217.416 583.781 217.614C581.424 217.882 579.209 216.591 577.12 215.466C575.154 214.406 573.136 213.446 571.073 212.59C569.719 212.034 566.954 211.676 566.303 210.194C566.08 209.492 565.892 208.779 565.741 208.059C565.634 207.737 565.504 207.423 565.352 207.119C564.969 206.472 564.725 205.751 564.637 205.004C564.639 204.259 564.896 203.537 565.364 202.959C565.885 202.341 566.523 201.833 567.241 201.464C567.959 201.094 568.742 200.87 569.547 200.805C571.156 200.68 572.775 200.766 574.362 201.06L590.083 203.323C591.297 203.496 592.516 203.668 593.71 203.962C594.844 204.159 595.914 204.628 596.826 205.33C598.685 206.889 598.838 209.631 598.742 212.047Z" fill="#3F3D56"/>
<path d="M584.924 216.137C583.008 220.183 584.387 224.97 584.042 229.444C583.753 231.958 583.183 234.432 582.344 236.819C581.603 239.197 580.862 241.581 579.917 243.888C579.125 245.805 578.187 247.723 577.452 249.678C576.284 252.797 575.537 256.306 573.168 258.626C572.082 263.854 570.703 269.568 566.405 272.738C562.67 275.499 557.465 275.595 553.104 273.927C548.743 272.258 545.198 269.063 542.076 265.618C538.953 262.173 536.163 258.421 532.81 255.213C530.889 253.408 528.847 251.736 526.699 250.209C524.537 248.637 522.312 247.158 520.026 245.773C518.627 244.815 517.058 244.132 515.403 243.76C514.044 243.499 512.637 243.774 511.476 244.527C511.212 244.707 510.974 244.922 510.767 245.166C510.199 245.962 509.767 246.848 509.49 247.787C506.808 254.779 499.611 258.37 493.864 263.138L488.615 267.491C487.9 268.085 487.108 268.954 487.459 269.817C487.701 270.253 488.091 270.589 488.558 270.763C491.61 272.271 495.192 272.878 497.708 275.179C498.628 276.023 499.509 277.135 500.754 277.199C501.412 277.16 502.059 277.016 502.67 276.771C503.631 276.51 504.639 276.477 505.615 276.672C506.591 276.867 507.509 277.286 508.296 277.895C508.743 278.332 509.261 278.689 509.828 278.95C510.303 279.076 510.798 279.106 511.284 279.04C512.644 278.944 514.088 278.822 515.307 279.429C516.527 280.037 517.529 281.468 518.953 281.57C519.649 281.622 520.48 281.391 521.144 281.455C521.327 281.461 521.505 281.511 521.665 281.6C521.825 281.688 521.962 281.814 522.063 281.967C522.212 282.318 522.313 282.688 522.363 283.066C522.625 283.967 523.506 284.517 524.081 285.258C524.962 286.396 525.09 287.942 525.001 289.38C524.711 293.877 522.709 298.091 519.407 301.153C518.469 302.112 517.274 302.778 515.965 303.07C515.31 303.208 514.628 303.135 514.016 302.863C513.404 302.592 512.893 302.134 512.555 301.556C512.413 301.058 512.197 300.584 511.916 300.15C510.888 299.018 508.583 300.22 507.638 299.012C507.051 298.258 507.472 297.05 506.91 296.27C506.348 295.49 504.994 295.631 503.954 295.586C502.734 295.522 501.604 294.947 500.422 294.647C498.507 294.148 496.501 294.334 494.541 294.199C492.912 294.056 491.295 293.799 489.701 293.432L481.578 291.771C476.406 290.716 471.214 289.649 466.291 287.763C464.407 287.048 462.511 286.166 461.182 284.632C460.112 283.284 459.424 281.672 459.19 279.966C458.034 273.147 464.165 267.318 464.937 260.448C465.212 257.942 466.214 255.577 467.159 253.251C468.892 249.092 470.62 244.932 472.345 240.769C472.623 239.994 472.988 239.252 473.43 238.558C474.165 237.668 474.993 236.86 475.901 236.148C478.321 233.95 480.057 231.101 480.901 227.942C480.964 227.59 481.111 227.259 481.329 226.977C481.555 226.787 481.804 226.626 482.07 226.497C482.526 226.2 482.869 225.758 483.044 225.242C483.219 224.727 483.215 224.167 483.034 223.653C483.431 223.621 483.802 223.446 484.081 223.163C484.36 222.879 484.528 222.504 484.554 222.107C484.507 221.761 484.529 221.409 484.618 221.071C484.771 220.739 485.154 220.573 485.378 220.279C485.742 219.799 485.614 219.128 485.556 218.528C485.518 218.147 485.518 217.764 485.556 217.384C485.696 216.03 486.301 214.767 487.268 213.811C488.794 212.309 490.965 212.699 493.072 212.341C495.174 211.887 497.227 211.23 499.203 210.379C504.743 208.194 510.577 206.843 516.514 206.372C522.48 205.902 528.473 206.857 533.998 209.158C534.802 209.484 535.56 209.914 536.252 210.436C536.744 210.816 537.147 211.298 537.434 211.849C537.669 212.525 537.96 213.182 538.302 213.811C538.985 214.744 540.275 215.044 541.022 215.926C541.769 216.808 541.833 218.298 542.453 219.39C543.34 220.95 545.396 221.672 546.009 223.366C546.201 223.903 546.227 224.491 546.367 225.047C546.712 226.44 547.746 227.539 548.659 228.639C552.007 232.646 554.15 237.522 554.841 242.699C555.045 239.459 557.223 236.589 559.949 234.8C560.684 234.32 561.533 233.79 561.68 232.921C561.865 231.821 560.799 230.843 560.869 229.725C560.946 229.179 561.167 228.663 561.507 228.229C562.724 226.464 564.06 224.784 565.505 223.2C566.29 222.337 567.171 221.282 566.846 220.145C566.597 219.295 565.728 218.796 565.249 218.055C564.97 217.613 564.827 217.098 564.838 216.575C564.85 216.052 565.015 215.544 565.313 215.115C565.76 214.508 566.469 214.067 566.686 213.344C566.935 212.494 566.38 211.574 566.552 210.698C566.785 209.997 567.249 209.396 567.868 208.992C568.715 208.22 569.678 207.586 570.722 207.113C572.408 206.474 574.285 206.71 576.073 206.96C579.062 207.375 582.414 208.014 584.1 210.519C585.179 212.085 585.728 214.463 584.924 216.137Z" fill="#65617D"/>
<path opacity="0.1" d="M598.742 212.047C598.704 213.038 598.583 214.143 597.816 214.763C597.149 215.19 596.356 215.378 595.569 215.294H595.396C595.658 213.964 597.273 213.204 597.554 211.855C597.602 211.441 597.565 211.021 597.444 210.622C597.323 210.223 597.122 209.853 596.852 209.535C595.486 207.688 593.289 206.666 591.105 205.918C584.935 203.801 578.325 203.306 571.91 204.48C570.165 204.764 568.468 205.287 566.865 206.033C566.334 206.365 565.822 206.728 565.332 207.119C564.949 206.472 564.706 205.751 564.617 205.004C564.62 204.259 564.877 203.537 565.345 202.959C565.866 202.341 566.504 201.833 567.222 201.464C567.939 201.094 568.723 200.87 569.528 200.805C571.137 200.68 572.756 200.766 574.343 201.06L590.064 203.323C591.277 203.496 592.497 203.668 593.691 203.962C594.825 204.159 595.894 204.628 596.807 205.33C598.685 206.889 598.838 209.631 598.742 212.047Z" fill="black"/>
<path opacity="0.1" d="M530.799 290.62C529.835 294.315 526.936 297.191 525.448 300.712C523.206 305.985 524.215 312.434 521.048 317.201C520.021 318.65 518.778 319.932 517.363 321.004C516.579 321.672 515.722 322.248 514.809 322.723C513.863 323.246 512.751 323.383 511.706 323.107C510.358 322.647 509.547 321.19 509.413 319.783C509.365 319.322 509.365 318.858 509.413 318.397L509.452 318.499C510.007 319.841 510.914 321.247 512.344 321.484C512.881 321.522 513.42 321.45 513.928 321.27C514.436 321.091 514.901 320.809 515.294 320.442C517.402 318.748 518.628 316.224 519.796 313.789C520.711 312.033 521.434 310.183 521.955 308.273C522.21 307.186 522.331 306.074 522.593 304.988C523.807 299.709 527.938 295.401 528.851 290.052C528.925 289.684 528.943 289.306 528.902 288.933C528.782 288.446 528.597 287.978 528.353 287.54C528.131 287.045 527.968 286.526 527.868 285.993C529.145 286.453 530.499 287.163 530.901 288.454C531.066 289.172 531.031 289.921 530.799 290.62Z" fill="black"/>
<path opacity="0.1" d="M521.156 281.456C520.565 283.002 519.571 284.361 518.277 285.393C516.459 286.779 514.33 287.7 512.076 288.077C511.027 288.345 509.926 288.331 508.883 288.038C507.466 287.546 506.444 286.217 504.994 285.833C503.96 285.552 502.849 285.802 501.802 285.648C499.918 285.386 498.456 283.948 496.936 282.798C492.281 279.295 486.17 278.164 481.514 274.662C481.307 274.534 481.136 274.356 481.016 274.144C480.927 273.914 480.894 273.667 480.921 273.422C480.938 271.297 481.415 269.202 482.319 267.28C483.059 265.939 483.941 264.681 484.95 263.528C489.12 258.415 493.309 253.264 498.302 248.95C500.397 247.141 502.683 245.454 505.326 244.636C506.795 244.182 509.694 243.754 511.482 244.521C511.218 244.701 510.98 244.916 510.773 245.16C510.205 245.956 509.773 246.842 509.496 247.78C506.808 254.779 499.611 258.371 493.864 263.138L488.615 267.491C487.9 268.085 487.108 268.954 487.459 269.817C487.701 270.254 488.091 270.589 488.558 270.763C491.61 272.271 495.192 272.879 497.708 275.179C498.628 276.023 499.509 277.135 500.754 277.199C501.412 277.16 502.059 277.016 502.67 276.771C503.631 276.511 504.639 276.477 505.615 276.672C506.591 276.867 507.509 277.286 508.296 277.896C508.743 278.332 509.261 278.689 509.828 278.95C510.303 279.076 510.798 279.106 511.284 279.04C512.644 278.944 514.088 278.822 515.307 279.43C516.527 280.037 517.529 281.468 518.953 281.571C519.662 281.622 520.492 281.379 521.156 281.456Z" fill="black"/>
<path d="M462.428 194.714C461.214 195.494 459.924 196.376 459.426 197.731C459.018 198.836 459.209 200.102 458.718 201.175C458.226 202.249 457.121 202.997 456.879 204.147C456.706 204.985 457.045 205.867 456.879 206.704C456.734 207.139 456.617 207.583 456.527 208.033C456.463 208.986 457.281 209.759 458.079 210.289C459.778 211.396 461.713 212.088 463.728 212.31C465.744 212.532 467.783 212.277 469.682 211.568C471.387 210.928 472.926 209.887 474.56 209.069C476.155 208.15 477.978 207.706 479.816 207.79C480.869 207.905 481.878 208.289 482.932 208.429C483.452 208.532 483.99 208.507 484.498 208.356C485.007 208.204 485.471 207.931 485.85 207.56C486.176 207.111 486.394 206.593 486.489 206.046C487.376 202.537 486.974 198.817 486.131 195.289C485.288 191.761 484.011 188.368 483.111 184.859C482.472 182.258 481.98 179.592 480.914 177.132C479.848 174.671 478.053 172.383 475.544 171.444C475.346 171.346 475.121 171.317 474.905 171.361C474.744 171.428 474.602 171.533 474.49 171.667C472.505 173.773 471.009 176.291 470.11 179.043C469.107 182.104 468.832 185.351 467.913 188.425C467.517 189.703 467.006 191.416 465.997 192.394C464.988 193.372 463.571 193.979 462.428 194.714Z" fill="#3F3D56"/>
<path opacity="0.1" d="M486.508 206.026C486.401 206.575 486.172 207.093 485.837 207.541C485.459 207.913 484.995 208.187 484.486 208.337C483.977 208.488 483.439 208.511 482.919 208.404C481.872 208.276 480.863 207.886 479.809 207.765C477.972 207.68 476.148 208.123 474.554 209.043C472.919 209.861 471.361 210.877 469.669 211.536C467.194 212.475 464.489 212.629 461.923 211.977C460.56 211.634 459.265 211.063 458.092 210.289C457.287 209.765 456.476 209.011 456.54 208.033C456.629 207.585 456.747 207.144 456.891 206.71C457.057 205.873 456.725 204.991 456.891 204.154C457.134 203.003 458.245 202.236 458.73 201.176C459.216 200.115 459.031 198.843 459.433 197.737C459.931 196.376 461.227 195.5 462.44 194.714C463.654 193.928 465.097 193.327 466.067 192.375C466.193 192.227 466.306 192.068 466.406 191.902C467.106 190.821 467.62 189.631 467.926 188.38C468.864 185.3 469.12 182.059 470.116 178.992C471.019 176.242 472.517 173.726 474.503 171.623C474.609 171.485 474.75 171.379 474.912 171.316C475.127 171.272 475.351 171.299 475.55 171.393C478.053 172.338 479.848 174.626 480.92 177.087C481.993 179.548 482.447 182.2 483.117 184.808C484.011 188.316 485.295 191.723 486.138 195.244C486.98 198.766 487.395 202.511 486.508 206.026Z" fill="black"/>
<path opacity="0.1" d="M505.499 128.079C502.496 129.034 499.247 128.845 496.376 127.547C493.504 126.249 491.213 123.935 489.943 121.049C489.993 120.45 490.078 119.855 490.199 119.266C490.837 116.326 493.57 117.4 495.729 118.179C498.327 119.024 500.839 120.113 503.232 121.432C503.961 121.809 504.594 122.346 505.084 123.005C506.029 124.417 505.652 126.296 505.499 128.079Z" fill="black"/>
<path d="M501.642 128.041C508.695 128.041 514.413 122.318 514.413 115.259C514.413 108.199 508.695 102.476 501.642 102.476C494.589 102.476 488.871 108.199 488.871 115.259C488.871 122.318 494.589 128.041 501.642 128.041Z" fill="#BE6F72"/>
<path opacity="0.1" d="M536.297 210.782C536.297 211.842 534.86 212.181 533.794 212.124C529.962 211.9 526.214 210.845 522.421 211.165C517.625 211.6 513.219 214.252 508.411 214.495C506.559 214.591 504.675 214.316 502.849 214.655C500.486 215.096 498.379 216.534 495.971 216.738C493.883 216.917 491.821 216.131 489.733 216.214C488.273 216.301 486.85 216.707 485.563 217.403C485.703 216.049 486.308 214.787 487.274 213.83C488.8 212.328 490.972 212.718 493.079 212.36C495.181 211.906 497.234 211.249 499.209 210.398C504.75 208.213 510.584 206.862 516.521 206.391C522.483 205.916 528.473 206.865 533.998 209.158C534.802 209.484 535.56 209.914 536.252 210.436C536.287 210.548 536.302 210.665 536.297 210.782Z" fill="black"/>
<path d="M495.735 138.599L490.563 136.682L488.379 135.877C487.489 135.503 486.552 135.254 485.595 135.135C483.092 134.944 480.735 136.612 479.401 138.74C478.066 140.868 477.562 143.406 477.134 145.879C476.546 149.262 476.048 152.658 475.64 156.067C475.2 159.145 474.975 162.25 474.969 165.359C475.116 173.272 476.789 181.075 478.628 188.777C479.529 192.191 480.209 195.66 480.665 199.162C480.818 200.607 480.889 202.058 481.042 203.508C481.208 205.138 481.476 206.749 481.744 208.366L483.283 217.55C485.199 216.189 487.376 214.993 489.733 214.923C491.821 214.846 493.89 215.626 495.972 215.447C498.366 215.249 500.486 213.811 502.849 213.37C504.675 213.031 506.559 213.3 508.417 213.21C513.219 212.967 517.632 210.309 522.421 209.88C526.22 209.535 529.994 210.609 533.8 210.833C534.86 210.897 536.297 210.558 536.297 209.491C536.297 208.749 535.556 208.257 534.911 207.886C531.871 206.054 528.978 203.988 526.259 201.706C523.743 199.712 521.188 197.667 519.458 194.97C515.288 188.483 516.718 179.708 513.162 172.863C510.269 167.302 513.162 160.016 513.162 153.747C513.162 150.621 513.162 147.458 512.427 144.422C511.968 142.724 511.397 141.058 510.716 139.437L508.232 133.141C508.18 132.957 508.079 132.791 507.938 132.662C507.771 132.547 507.573 132.486 507.37 132.489C505.878 132.4 504.407 132.872 503.245 133.812C502.076 134.765 501.329 136.132 500.18 137.123C498.922 138.216 497.3 139.175 495.735 138.599Z" fill="#E3E8F4"/>
<path d="M504.081 134.969C504.49 133.218 504.931 131.396 506.099 130.029C507.268 128.661 509.401 127.939 510.908 128.917C512.619 130.029 512.689 132.598 514.151 134.03C515.429 135.257 517.344 135.353 519.081 135.512C522.204 135.797 525.272 136.52 528.194 137.66C528.763 137.837 529.282 138.148 529.707 138.567C530.505 139.475 530.345 140.868 530.741 141.999C531.284 143.457 532.785 144.383 533.366 145.834C534.004 147.445 533.366 149.247 532.83 150.902C531.865 153.874 531.259 156.961 530.32 159.946C529.381 162.931 528.047 165.871 525.85 168.12C524.879 169.117 523.436 170.038 522.159 169.443L521.667 172.99C521.524 173.74 521.524 174.51 521.667 175.259C521.742 175.634 521.92 175.981 522.182 176.259C522.444 176.537 522.779 176.735 523.149 176.831C523.245 177.381 523.826 177.643 524.298 177.944C524.647 178.182 524.945 178.488 525.175 178.843C525.405 179.198 525.562 179.595 525.638 180.011C525.713 180.427 525.705 180.854 525.614 181.267C525.524 181.68 525.352 182.071 525.109 182.417C524.707 182.961 524.113 183.389 523.922 184.034C523.634 184.967 524.317 185.952 525.148 186.463C525.978 186.974 526.955 187.211 527.798 187.703C529.547 188.713 530.486 190.7 531.086 192.631C531.533 194.088 531.904 195.666 533.002 196.727C533.423 197.13 533.928 197.437 534.33 197.859C535.026 198.682 535.429 199.714 535.473 200.792C535.648 202.128 535.355 203.483 534.643 204.627C533.366 206.455 530.984 206.998 528.896 207.822C525.505 209.216 522.715 211.708 519.726 213.83C518.509 214.811 517.075 215.486 515.544 215.799C513.475 216.073 511.438 215.16 509.356 215.076C508.11 215.088 506.871 215.251 505.665 215.562L501.834 216.393C502.038 213.421 500.403 210.443 499.49 207.611C497.766 202.281 497.447 196.58 497.855 190.994C498.264 185.408 499.401 179.899 500.524 174.416C501.31 170.581 501.233 166.574 502.44 162.848C503.57 159.262 505.186 155.817 505.78 152.085C506.75 146.045 502.715 140.926 504.081 134.969Z" fill="#3F3D56"/>
<path d="M533.13 146.786C533.482 147.436 533.73 148.137 533.864 148.864C534.159 149.989 534.712 151.031 535.48 151.906C536.122 152.473 536.692 153.117 537.178 153.823C537.766 154.935 537.542 156.29 537.817 157.504C538.136 158.827 539.062 159.978 539.196 161.339C539.2 161.729 539.236 162.118 539.305 162.502C539.72 164.049 541.993 164.42 542.497 165.966C542.836 166.97 542.255 168.063 542.363 169.117C542.443 169.443 542.462 169.781 542.421 170.114C542.276 170.491 542.023 170.816 541.693 171.047C539.579 173.068 538.116 175.674 537.491 178.532C536.876 181.373 536.553 184.271 536.527 187.179L534.03 183.875C533.766 183.474 533.428 183.127 533.034 182.852C532.715 182.66 532.344 182.564 532.019 182.373C531.073 181.836 530.703 180.698 530.339 179.676C529.328 176.845 527.814 174.221 525.869 171.929C524.854 170.734 523.672 169.533 523.449 167.98C523.382 167.266 523.421 166.547 523.564 165.845C524.202 161.659 524.886 157.37 526.923 153.657C527.874 151.919 529.107 150.346 530.02 148.582C530.633 147.413 531.495 144.371 533.13 146.786Z" fill="#3F3D56"/>
<path d="M470.135 150.807C470.147 151.345 470.01 151.875 469.739 152.34C469.495 152.624 469.177 152.833 468.821 152.946C468.464 153.059 468.084 153.07 467.721 152.98C466.994 152.797 466.309 152.476 465.704 152.034C463.924 150.909 462.145 149.782 460.365 148.653C459.372 148.053 458.414 147.396 457.498 146.684C456.097 145.501 454.828 144.17 453.711 142.715C450.608 138.881 447.862 134.72 444.407 131.211C443.469 130.252 442.492 129.332 441.585 128.329C440.346 126.878 439.206 125.345 438.175 123.74C437.179 122.263 436.144 120.627 436.317 118.863C436.419 117.866 436.898 116.946 437.038 115.955C437.179 114.965 436.802 113.757 435.844 113.488C435.731 113.46 435.616 113.441 435.499 113.431C435.31 113.411 435.124 113.37 434.944 113.309C434.056 112.939 434.19 111.565 434.829 110.842C435.467 110.12 436.413 109.718 436.994 108.925C437.264 108.455 437.567 108.004 437.9 107.576C438.328 107.21 438.839 106.953 439.388 106.829C443.072 105.742 446.968 105.595 450.723 106.4C451.361 106.541 452.089 106.797 452.281 107.417C452.357 107.719 452.357 108.035 452.281 108.337C451.999 109.597 451.837 110.881 451.796 112.172C451.795 112.441 451.809 112.71 451.84 112.977C452.14 115.687 453.896 117.981 455.608 120.097C457.638 122.615 459.701 125.114 461.77 127.606C462.889 129.051 464.139 130.388 465.506 131.601C466.783 132.662 468.437 133.518 469.433 134.88C470.244 135.979 469.982 137.481 470.071 138.804C470.368 142.799 470.39 146.809 470.135 150.807Z" fill="#3F3D56"/>
<path d="M551.233 177.471C551.864 176.857 552.433 176.183 552.932 175.457C553.468 174.559 553.897 173.6 554.209 172.6L557.912 162.087C558.5 160.425 559.087 158.757 559.828 157.14C560.594 155.395 561.501 153.714 562.338 152.027C564.489 147.587 566.153 142.926 567.299 138.126C567.501 137.467 567.568 136.774 567.497 136.088C567.318 134.982 566.482 134.119 565.684 133.333C564.881 132.465 563.966 131.709 562.963 131.083C562.46 130.77 561.899 130.56 561.314 130.465C560.728 130.371 560.13 130.394 559.553 130.534C557.919 131.013 556.891 132.687 556.514 134.368C556.137 136.049 556.278 137.768 556.118 139.481C555.888 141.936 555.045 144.307 554.841 146.767C554.732 148.192 554.841 149.63 554.668 151.049C554.354 152.913 553.705 154.703 552.753 156.335C550.678 160.221 547.875 163.672 544.496 166.497C543.571 167.181 542.738 167.982 542.019 168.881C541.418 169.78 541.011 170.794 540.824 171.859C540.4 173.481 540.584 175.202 541.342 176.697C542.382 178.474 544.381 179.254 546.291 179.65C548.87 180.187 549.464 179.305 551.233 177.471Z" fill="#BE6F72"/>
<path d="M501.719 96.737C502.268 95.7031 503.11 94.8541 504.139 94.296C505.168 93.738 506.338 93.4955 507.504 93.5989C508.678 93.8071 509.77 94.34 510.657 95.1375C511.545 95.9349 512.191 96.965 512.523 98.1111C512.823 99.0634 512.945 100.118 513.468 100.936C514.26 102.17 515.729 102.527 516.827 103.422C517.483 104.032 518.01 104.767 518.379 105.583C518.747 106.4 518.949 107.282 518.973 108.177C519.034 110.007 518.745 111.831 518.123 113.552C517.859 114.287 517.646 115.038 517.485 115.802C517.357 116.543 517.344 117.298 517.229 118.039C517.088 119 516.756 119.923 516.252 120.754C515.749 121.585 515.085 122.307 514.298 122.877C514.074 123.06 513.795 123.161 513.506 123.165C513.008 123.107 512.702 122.526 512.517 122.001C511.501 119.068 511.744 115.482 509.873 113.143C509.022 112.2 507.993 111.433 506.846 110.887C506.378 110.585 505.852 110.387 505.301 110.306C504.491 110.349 503.713 110.634 503.066 111.124C501.718 112.028 500.223 112.69 498.647 113.079C497.861 113.266 497.043 113.274 496.253 113.104C495.463 112.934 494.721 112.589 494.081 112.095C493.2 111.366 492.555 110.274 491.578 109.705C490.601 109.136 489.579 109.168 488.615 108.778C488.001 108.516 487.454 108.118 487.017 107.613C486.579 107.108 486.263 106.509 486.092 105.863C485.921 105.217 485.899 104.541 486.029 103.885C486.158 103.229 486.436 102.612 486.84 102.08C487.479 101.313 488.424 100.879 488.992 100.028C489.726 98.9292 489.662 97.4209 490.014 96.1043C490.222 95.2713 490.625 94.5 491.19 93.8542C491.755 93.2084 492.466 92.7068 493.264 92.391C494.038 92.1281 494.868 92.0777 495.667 92.2452C496.467 92.4127 497.207 92.7919 497.811 93.3433C498.449 93.9185 498.96 94.6599 499.586 95.2607C500.204 95.8526 500.96 96.2798 501.786 96.5031C502.611 96.7264 503.48 96.7388 504.311 96.5389" fill="#3F3D56"/>
<path opacity="0.1" d="M512.217 190.809C511.845 191.14 511.581 191.576 511.461 192.059C511.34 192.543 511.367 193.051 511.54 193.519C511.68 193.819 518.27 192.547 518.966 192.452C520.703 192.202 523.749 192.324 524.918 190.732C526.999 187.914 520.55 188.54 519.368 188.642C517.121 188.834 513.928 189.141 512.217 190.809Z" fill="black"/>
<path d="M452.268 108.363C451.987 109.623 451.824 110.907 451.783 112.197C449.867 112.587 447.875 111.948 446.036 111.309L440.755 109.507C440.434 109.301 440.046 109.226 439.671 109.296C439.297 109.366 438.963 109.576 438.737 109.884C437.888 110.766 436.719 112.44 435.544 113.431C435.355 113.411 435.169 113.37 434.989 113.309C434.101 112.939 434.235 111.565 434.874 110.842C435.512 110.12 436.457 109.718 437.038 108.925C437.309 108.455 437.612 108.004 437.945 107.576C438.373 107.21 438.884 106.953 439.433 106.829C443.116 105.742 447.013 105.595 450.768 106.4C451.406 106.541 452.134 106.797 452.326 107.417C452.388 107.732 452.368 108.057 452.268 108.363Z" fill="#3F3D56"/>
<path opacity="0.1" d="M452.268 108.363C451.987 109.623 451.824 110.907 451.783 112.197C449.867 112.587 447.875 111.948 446.036 111.309L440.755 109.507C440.434 109.301 440.046 109.226 439.671 109.296C439.297 109.366 438.963 109.576 438.737 109.884C437.888 110.766 436.719 112.44 435.544 113.431C435.355 113.411 435.169 113.37 434.989 113.309C434.101 112.939 434.235 111.565 434.874 110.842C435.512 110.12 436.457 109.718 437.038 108.925C437.309 108.455 437.612 108.004 437.945 107.576C438.373 107.21 438.884 106.953 439.433 106.829C443.116 105.742 447.013 105.595 450.768 106.4C451.406 106.541 452.134 106.797 452.326 107.417C452.388 107.732 452.368 108.057 452.268 108.363Z" fill="black"/>
<path opacity="0.1" d="M500.576 229.699C501.495 230.006 502.491 230.454 502.804 231.374L495.41 229.495L491.578 228.517C490.901 228.345 488.475 228.146 488.028 227.616C487.389 226.836 489.656 227.373 490.065 227.431C491.304 227.616 492.542 227.808 493.775 228.031C496.099 228.447 498.334 229.131 500.576 229.699Z" fill="black"/>
<path opacity="0.1" d="M503.443 236.25C502.804 235.822 500.971 235.873 500.186 235.688C499.037 235.413 497.906 235.049 496.776 234.697C494.484 233.95 492.21 233.1 489.854 232.55C489.42 232.454 487.938 232.428 488.009 231.879C488.079 231.329 489.49 231.137 489.841 231.112C491.929 230.959 494.535 231.936 496.476 232.633C498.95 233.52 501.293 234.737 503.443 236.25Z" fill="black"/>
<path opacity="0.1" d="M498.756 223.858C496.412 223.219 494.286 221.762 491.872 221.48C491.243 221.504 490.624 221.315 490.116 220.943C489.832 220.664 489.635 220.309 489.548 219.921C491.163 219.838 493.04 220.522 494.509 221.167C495.317 221.514 496.095 221.929 496.834 222.407C497.37 222.733 498.175 223.673 498.756 223.858Z" fill="black"/>
<path d="M543.43 166.631C543.033 169.288 543.607 171.999 545.044 174.268C546.482 176.537 548.688 178.211 551.258 178.985C550.946 180.5 549.381 181.337 548.276 182.417C546.718 183.932 545.914 186.201 544.075 187.351C542.025 188.63 539.388 188.131 537.05 187.594C536.838 187.571 536.642 187.468 536.501 187.307C536.453 187.23 536.419 187.146 536.399 187.057C535.626 184.226 535.122 181.203 535.914 178.365C536.552 175.95 538.085 173.892 539.311 171.757C540.537 169.622 540.652 167.334 543.43 166.631Z" fill="#3F3D56"/>
<path d="M486.336 129.984C483.864 130.164 481.464 130.896 479.311 132.125C477.881 132.943 476.412 134.042 474.778 133.844C473.813 133.736 472.862 133.205 471.923 133.461C471.394 133.674 470.901 133.967 470.461 134.33C470.237 134.508 469.972 134.625 469.69 134.67C469.408 134.715 469.119 134.686 468.852 134.586L468.213 143.431C467.97 146.793 467.734 150.225 468.539 153.504C468.954 155.178 469.867 156.699 469.969 158.399C470.071 160.099 469.918 161.844 470.039 163.563C470.154 165.155 470.506 166.721 470.595 168.312C470.774 171.316 470.033 174.294 469.318 177.215C468.239 181.523 467.587 185.926 465.486 189.825C464.899 190.905 464.209 192.004 464.209 193.231C464.209 193.385 464.209 193.532 464.248 193.679C463.609 194.03 463.015 194.362 462.472 194.708C461.259 195.494 459.963 196.369 459.465 197.731C459.062 198.836 459.248 200.102 458.762 201.169C458.277 202.236 457.166 202.997 456.923 204.147C456.751 204.985 457.083 205.867 456.923 206.704C456.779 207.137 456.661 207.579 456.572 208.027C456.508 208.986 457.319 209.759 458.124 210.283C459.297 211.057 460.592 211.627 461.955 211.97L465.767 196.823C469.243 190.391 472.135 183.66 474.407 176.71C475.057 174.438 475.892 172.224 476.904 170.089C477.627 168.881 478.267 167.625 478.82 166.331C479.401 164.72 479.458 162.975 479.739 161.275C480.073 159.291 480.575 157.339 481.24 155.44C481.929 153.389 482.728 151.343 482.868 149.189C483.079 146.109 481.961 142.856 483.149 140.005C483.653 138.938 484.309 137.95 485.097 137.072C486.744 135.052 488.245 132.937 489.892 130.917C489.037 130.003 487.613 129.907 486.336 129.984Z" fill="#3F3D56"/>
<g opacity="0.1">
<path opacity="0.1" d="M504.33 94.6342L503.532 94.6917L503.443 94.7556C503.742 94.7435 504.039 94.7028 504.33 94.6342Z" fill="black"/>
<path opacity="0.1" d="M518.941 107.902C518.807 109.173 518.533 110.425 518.123 111.635C517.859 112.369 517.646 113.121 517.485 113.884C517.357 114.626 517.344 115.38 517.229 116.121C517.088 117.083 516.756 118.006 516.252 118.837C515.749 119.668 515.085 120.389 514.298 120.96C514.074 121.142 513.795 121.244 513.507 121.247C513.008 121.19 512.702 120.608 512.517 120.084C511.501 117.15 511.744 113.565 509.873 111.226C509.022 110.282 507.993 109.516 506.846 108.97C506.379 108.668 505.852 108.469 505.301 108.388C504.491 108.432 503.713 108.717 503.066 109.206C501.718 110.111 500.223 110.773 498.647 111.162C497.861 111.348 497.043 111.357 496.253 111.186C495.463 111.016 494.721 110.671 494.081 110.178C493.2 109.449 492.555 108.356 491.578 107.787C490.601 107.218 489.579 107.25 488.615 106.861C488.013 106.603 487.476 106.213 487.045 105.72C486.614 105.226 486.299 104.642 486.125 104.01C486.102 103.93 486.085 103.849 486.074 103.767C485.914 104.481 485.932 105.222 486.125 105.927C486.299 106.559 486.614 107.144 487.045 107.637C487.476 108.13 488.013 108.52 488.615 108.778C489.579 109.168 490.665 109.174 491.578 109.705C492.491 110.235 493.2 111.366 494.081 112.095C494.721 112.589 495.463 112.933 496.253 113.104C497.043 113.274 497.861 113.266 498.647 113.079C500.223 112.69 501.718 112.028 503.066 111.123C503.713 110.634 504.491 110.349 505.301 110.305C505.852 110.387 506.379 110.585 506.846 110.887C507.979 111.444 508.992 112.216 509.828 113.162C511.699 115.501 511.457 119.087 512.472 122.02C512.657 122.551 512.964 123.126 513.462 123.184C513.768 123.185 514.065 123.076 514.298 122.877C515.088 122.305 515.755 121.581 516.259 120.746C516.764 119.912 517.096 118.985 517.236 118.02C517.351 117.278 517.363 116.524 517.491 115.783C517.652 115.019 517.866 114.267 518.13 113.533C518.752 111.812 519.04 109.987 518.979 108.158C518.966 108.081 518.953 107.992 518.941 107.902Z" fill="black"/>
</g>
<path d="M478.539 159.185L478.104 165.02C478.041 165.813 476.527 184.68 465.365 206.729C455.787 225.641 437.147 250.273 401.956 264.116C399.21 265.202 396.36 266.217 393.405 267.158L390.11 256.804C398.382 254.199 406.351 250.711 413.878 246.4C431.815 236.033 445.761 221.237 455.486 202.198C460.646 192.061 464.324 181.235 466.406 170.05H426.368V159.185H478.539Z" fill="#6C63FF"/>
<path opacity="0.1" d="M397.645 264.122C432.83 250.279 451.476 225.654 461.048 206.742C472.211 184.693 473.73 165.838 473.788 165.033L474.222 159.198H478.692L478.258 165.033C478.2 165.826 476.68 184.693 465.518 206.742C455.94 225.654 437.3 250.279 402.115 264.122C399.369 265.209 396.517 266.225 393.558 267.171L393.124 265.81C394.665 265.26 396.172 264.698 397.645 264.122Z" fill="white"/>
<path d="M327.199 256.804L323.904 267.158C320.945 266.212 318.093 265.196 315.347 264.11C280.162 250.266 261.516 225.641 251.944 206.729C240.782 184.68 239.262 165.826 239.205 165.02L238.77 159.185H290.916V170.05H250.871C252.964 181.236 256.652 192.062 261.823 202.198C271.548 221.237 285.488 236.033 303.425 246.393C310.953 250.709 318.923 254.199 327.199 256.804Z" fill="#6C63FF"/>
<path opacity="0.1" d="M319.651 264.122C284.466 250.279 265.82 225.654 256.248 206.742C245.086 184.693 243.566 165.838 243.509 165.033L243.074 159.198H238.604L239.039 165.033C239.096 165.826 240.616 184.693 251.778 206.742C261.356 225.654 279.996 250.279 315.181 264.122C317.927 265.209 320.779 266.225 323.738 267.171L324.172 265.81C322.635 265.26 321.128 264.698 319.651 264.122Z" fill="white"/>
<path d="M418.89 356.891V415.479H298.412V356.891L302.244 351.778C341.286 337.909 349.197 301.741 350.775 287.431C351.009 285.454 351.144 283.466 351.177 281.475H366.075C366.108 283.466 366.242 285.454 366.477 287.431C368.08 301.741 375.992 337.922 415.008 351.778L418.89 356.891Z" fill="#6C63FF"/>
<path opacity="0.1" d="M418.89 356.891H298.412V364.241H418.89V356.891Z" fill="black"/>
<path opacity="0.1" d="M308.629 351.778C347.671 337.909 355.583 301.741 357.16 287.431C357.395 285.454 357.529 283.466 357.563 281.475H351.177C351.144 283.466 351.009 285.454 350.775 287.431C349.172 301.741 341.26 337.922 302.244 351.778L298.412 356.891V415.479H304.798V356.891L308.629 351.778Z" fill="white"/>
<path opacity="0.1" d="M280.111 159.185H290.916V170.05H281.069C280.682 166.471 280.362 162.85 280.111 159.185Z" fill="black"/>
<path opacity="0.1" d="M327.199 256.805L323.904 267.158C320.945 266.212 318.093 265.196 315.347 264.11C310.83 258.589 306.839 252.658 303.425 246.393C310.953 250.709 318.923 254.199 327.199 256.805Z" fill="black"/>
<path opacity="0.1" d="M390.104 256.805C398.376 254.199 406.344 250.711 413.871 246.4C410.456 252.665 406.464 258.598 401.949 264.123C399.203 265.209 396.353 266.223 393.399 267.165L390.104 256.805Z" fill="black"/>
<path opacity="0.1" d="M437.185 159.185C436.934 162.85 436.615 166.471 436.227 170.05H426.387V159.185H437.185Z" fill="black"/>
<path opacity="0.1" d="M366.502 287.431C361.317 288.437 355.986 288.437 350.8 287.431C351.035 285.454 351.169 283.466 351.202 281.475H366.1C366.133 283.466 366.268 285.454 366.502 287.431Z" fill="black"/>
<path d="M281.388 141.188C281.663 221.755 316.145 286.907 358.654 286.907C401.164 286.907 435.64 221.755 435.921 141.188H281.388Z" fill="#6C63FF"/>
<path opacity="0.1" d="M295.117 141.188H281.388C281.663 221.755 316.145 286.907 358.655 286.907C360.955 286.903 363.251 286.708 365.519 286.325C326.222 279.755 295.379 217.371 295.117 141.188Z" fill="white"/>
<path d="M399.625 379.318H317.678V400.408H399.625V379.318Z" fill="#3F3D56"/>
<path opacity="0.1" d="M321.509 382.194H399.625V379.318H317.678V400.408H321.509V382.194Z" fill="white"/>
<path d="M237.685 218.975C236.21 218.483 227.525 211.606 226.867 208.493C226.21 205.381 231.459 176.384 231.459 176.384C231.459 176.384 230.973 176.384 230.182 176.288V175.822L231.261 137.73C231.261 137.73 235.686 112.165 227.327 113.654C218.968 115.144 224.211 137.73 224.211 137.73C224.211 137.73 223.26 149.196 222.589 152.634C221.951 155.951 219.026 169.462 221.018 173.661C221.091 173.811 221.172 173.956 221.261 174.096C221.261 174.096 221.593 188.508 217.985 190.477C214.543 192.349 213.113 201.776 212.991 202.62L212.806 202.543C211.779 201.9 210.876 201.075 210.143 200.108C210.067 200.012 210.009 199.91 209.939 199.808C212.289 197.162 213.555 193.727 213.485 190.189C213.415 186.65 212.014 183.268 209.562 180.717C208.422 179.532 207.085 178.555 205.61 177.828C205.567 176.607 205.278 175.407 204.76 174.3C203.1 170.747 193.905 166.101 187.372 165.992C184.358 165.902 181.887 166.759 180.987 169.117C180.527 170.312 180.667 171.674 180.476 172.914C180.093 175.47 178.452 177.471 176.344 179.062C175.493 178.111 174.573 177.225 173.592 176.41C171.459 174.773 167.206 169.379 167.206 169.379C167.206 169.379 153.931 155.619 152.947 151.848C151.964 148.077 138.701 125.433 135.751 129.377C132.801 133.32 145.91 150.506 145.91 150.506C145.91 150.506 148.401 156.75 150.316 158.859C152.232 160.968 166.919 182.315 166.919 182.315L167.621 183.772C164.518 185.408 161.683 187.492 160.68 190.739C159.212 195.519 162.424 200.325 164.646 204.799C168.975 213.53 169.595 224.663 164.007 232.639C159.001 239.682 150.316 243.031 142.187 245.959C146.113 249.044 150.99 250.664 155.98 250.541C154.103 255.986 147.449 257.789 141.779 258.799C144.754 261.662 149.014 262.704 153.1 263.336C155.102 263.677 157.13 263.838 159.16 263.816H159.659L160.157 263.777C160.849 263.731 161.538 263.644 162.219 263.515C165.169 262.914 168.037 261.304 169.544 258.696C170.821 256.466 171.268 253.424 173.586 252.305C174.189 252.032 174.84 251.878 175.501 251.851H175.431C175.865 251.851 176.312 251.851 176.747 251.851L186.408 251.947C186.81 251.947 187.225 251.947 187.64 251.947C190.367 251.883 193.279 251.41 194.665 249.154C195.235 248.059 195.535 246.842 195.54 245.607C195.744 242.546 195.54 239.395 195.623 236.308C196.446 241.926 197.308 250.682 195.259 253.916C193.593 256.366 191.575 258.557 189.269 260.416C188.689 260.903 188.158 261.447 187.685 262.039C187.372 262.263 187.187 262.384 187.187 262.384L186.989 262.978C186.261 264.083 185.734 265.308 185.431 266.596C185.32 266.927 185.278 267.277 185.31 267.625C185.533 268.079 183.713 269.951 184.243 270.737C179.697 276.074 178.835 284.159 178.835 284.159L170.533 296.775C166.268 307.992 159.882 309.142 159.882 309.142C159.882 309.142 144.882 299.069 144.473 298.577C144.065 298.085 138.33 295.625 138.33 295.625C137.654 294.438 136.622 293.494 135.38 292.928C133.414 292.109 133.248 289.093 133.248 289.093C133.005 281.967 128.822 281.423 128.822 281.423C125.451 281.136 122.877 281.737 120.898 282.836L120.297 282.881C117.398 283.117 113.912 283.379 110.08 283.635C99.4227 284.338 96.8876 291.247 96.8876 291.247C96.8876 291.247 95.5786 292.723 97.2963 294.321C99.0141 295.919 110.01 294.321 110.476 294.283C109.638 294.373 108.791 294.315 107.973 294.11C109.704 294.046 112.085 293.982 114.116 293.982H114.608C114.48 295.06 114.418 296.144 114.423 297.229C114.423 299.274 120.074 300.584 120.074 300.584L137.283 315.923C137.283 315.923 148.101 320.761 154.984 327.721C161.868 334.681 167.954 328.674 167.954 328.674C175.24 326.871 196.204 301.505 196.223 301.479C196.223 302.22 196.663 326.89 197.5 331.844C197.533 332.095 197.595 332.342 197.685 332.579C198.668 334.707 197.353 340.523 196.785 342.977C196.422 345.031 196.283 347.118 196.37 349.202C196.37 349.202 188.509 379.241 189.16 381.88C189.812 384.52 184.901 396.785 184.901 396.785V407.01L185.757 406.966C185.645 407.131 185.543 407.301 185.45 407.477L185.393 407.586C185.393 407.586 190.635 408.73 194.16 408.404C197.685 408.078 203.739 411.12 203.739 411.12C203.739 411.12 205.788 412.091 212.097 412.5C218.407 412.91 218.407 409.714 218.407 409.714C217.685 405.362 207.717 403.904 207.41 403.86C206.606 403.355 205.852 402.805 205.233 402.332L205.105 402.23C205.147 402.134 205.183 402.036 205.214 401.936C206.28 397.59 200.38 395.704 200.38 395.704V394.643C204.211 392.675 204.971 379.164 204.971 379.164C204.971 379.164 210.718 362.457 211.523 359.671C212.327 356.884 211.523 352.711 211.523 352.711L212.097 349.106C212.097 349.106 213.33 346.652 213.33 346.16C213.489 344.913 213.969 343.728 214.722 342.721C215.622 341.654 213.739 339.117 213.739 339.117L215.38 334.86V330.188L219.211 313.239C219.211 313.239 223.228 293.496 221.836 287.035C220.444 280.573 223.477 277.288 223.477 277.288C223.203 277.432 222.922 277.56 222.634 277.672C223.017 276.785 223.348 275.875 223.624 274.949L232.244 276.016V276.144H235.354C235.354 276.144 234.371 264.001 234.371 259.105C234.371 254.21 237.685 236.64 237.685 236.64C237.685 236.64 239.16 219.467 237.685 218.975ZM199.416 204.799C199.416 205.279 199.371 205.777 199.339 206.288L199.167 206.55L198.847 206.282L198.458 206.889L198.343 206.947C197.5 206.512 197.066 204.026 196.459 204.563L196.376 204.633C196.242 204.48 196.108 204.435 195.967 204.563L195.84 204.671C195.84 204.486 195.84 204.294 195.84 204.103C197.008 204.404 198.209 204.556 199.416 204.556C199.422 204.64 199.416 204.723 199.416 204.799ZM228.087 261.349H228.272L227.966 262.154C228.004 261.885 228.042 261.623 228.087 261.349ZM196.612 406.282L195.437 405.988L196.076 405.879L196.67 406.269L196.74 406.32L196.612 406.282ZM208.617 404.563C208.228 404.358 207.832 404.122 207.449 403.879C207.576 403.949 208.081 404.211 208.617 404.563Z" fill="url(#paint1_linear)"/>
<path d="M232.327 249.276L224.594 269.446H226.472L219.198 275.25L232.327 276.886V249.276Z" fill="#F86D70"/>
<path opacity="0.1" d="M232.327 249.276L224.594 269.446L222.647 268.922L219.198 275.25L232.327 276.886V249.276Z" fill="black"/>
<path d="M220.201 262.179H232.327L236.778 225.526H220.201V262.179Z" fill="#F86D70"/>
<path opacity="0.1" d="M220.201 262.179H232.327L236.778 225.526H220.201V262.179Z" fill="black"/>
<path d="M196.517 234.205L199.135 233.764L205.15 232.742C205.15 232.742 223.215 228.664 226.944 228.332C229.203 228.033 231.406 227.404 233.483 226.465C234.46 226.044 235.079 225.724 235.079 225.724L228.572 213.83L218.477 206.34C218.477 206.34 212.091 204.978 209.39 201.259C208.787 200.458 208.395 199.519 208.249 198.528C208.102 197.536 208.207 196.524 208.553 195.583C210.201 190.47 198.713 200.472 198.713 200.472C198.713 200.472 198.822 202.869 198.713 205.924C198.713 206.525 198.656 207.151 198.611 207.79C198.611 208.212 198.554 208.634 198.509 209.069C198.228 212.104 197.653 215.23 196.517 217.096C193.739 221.659 196.517 234.205 196.517 234.205Z" fill="#FBBEBE"/>
<path opacity="0.1" d="M198.713 206.18H198.969C199.428 206.18 199.799 205.202 200.246 205.157C203.841 204.812 207.123 204.058 209.403 201.508C208.802 200.708 208.41 199.77 208.264 198.78C208.118 197.79 208.222 196.779 208.566 195.839C210.214 190.726 198.726 200.722 198.726 200.722C198.726 200.722 198.847 203.125 198.713 206.18Z" fill="black"/>
<path d="M184.729 191.685C184.728 193.525 185.089 195.347 185.792 197.047C186.495 198.747 187.526 200.292 188.826 201.593C190.126 202.894 191.67 203.926 193.368 204.629C195.067 205.333 196.888 205.695 198.726 205.694C199.186 205.694 199.639 205.694 200.092 205.63C202.79 205.365 205.352 204.323 207.468 202.629C209.585 200.935 211.164 198.662 212.015 196.087C212.866 193.512 212.952 190.745 212.262 188.122C211.572 185.499 210.137 183.132 208.129 181.31C206.122 179.488 203.629 178.288 200.953 177.857C198.278 177.425 195.535 177.78 193.057 178.879C190.579 179.977 188.473 181.772 186.995 184.045C185.516 186.318 184.729 188.972 184.729 191.685Z" fill="#FBBEBE"/>
<path d="M180.431 170.421C179.971 171.61 180.112 172.939 179.927 174.198C179.243 178.742 174.627 181.465 170.45 183.37C166.274 185.274 161.561 187.53 160.233 191.921C158.777 196.67 161.957 201.431 164.167 205.886C168.471 214.565 169.084 225.635 163.528 233.573C158.592 240.603 149.991 243.939 141.894 246.866C145.791 249.935 150.634 251.548 155.591 251.43C153.733 256.843 147.124 258.639 141.491 259.636C144.448 262.486 148.682 263.522 152.737 264.148C155.693 264.608 158.726 264.909 161.676 264.314C164.627 263.72 167.424 262.116 168.943 259.521C170.22 257.303 170.655 254.28 172.96 253.162C174 252.752 175.121 252.588 176.236 252.682L185.814 252.785C188.796 252.785 192.328 252.554 193.866 250.004C194.434 248.915 194.732 247.705 194.735 246.476C195.15 240.187 193.943 233.541 196.529 227.801C197.308 226.069 192.308 223.327 192.832 221.493C194.633 215.185 195.086 210.219 195.067 203.655C195.067 198.574 198.368 194.196 201.095 189.908C203.822 185.619 206.101 180.206 203.949 175.604C201.523 170.472 183.298 163.014 180.431 170.421Z" fill="#3F3D56"/>
<path d="M193.183 404.441L195.623 406.058L195.999 406.307L196.07 406.352L198.962 408.27L205.718 409.407L211.657 408.998C211.657 408.998 213.368 405.419 210.68 405.502C209.819 405.458 208.98 405.215 208.228 404.793L207.857 404.607C207.468 404.403 207.078 404.173 206.695 403.93C205.897 403.425 205.144 402.875 204.537 402.409C203.643 401.719 203.049 401.194 203.049 401.194L193.183 404.441Z" fill="#FBBEBE"/>
<path opacity="0.1" d="M195.654 406.058L196.031 406.308L196.101 406.352L198.994 408.27L205.75 409.407L211.689 408.998C211.689 408.998 213.4 405.419 210.712 405.502C209.851 405.458 209.011 405.215 208.26 404.793C208.732 405.163 209.128 405.566 209.166 405.905C209.275 406.819 204.773 408.461 204.773 408.461L198.426 406.78C198.426 406.78 197.347 406.474 195.872 406.09L195.731 406.052L195.654 406.058Z" fill="black"/>
<path d="M184.799 407.618C184.799 407.618 190.003 408.755 193.502 408.429C197.002 408.103 203.03 411.12 203.03 411.12C203.03 411.12 205.067 412.079 211.331 412.488C217.595 412.897 217.595 409.714 217.595 409.714C216.88 405.387 206.983 403.962 206.676 403.898C206.797 403.962 207.315 404.224 207.838 404.576C208.541 405.036 209.301 405.636 209.358 406.122C209.467 407.03 204.965 408.679 204.965 408.679L198.617 407.004C198.617 407.004 197.538 406.691 196.063 406.308H195.923C193.735 405.711 191.513 405.252 189.269 404.933C186.536 404.639 185.137 406.966 184.85 407.49C184.829 407.531 184.812 407.574 184.799 407.618Z" fill="#3F3D56"/>
<path d="M102.769 292.685L105.534 294.807C105.534 294.807 106.338 294.768 107.539 294.73H107.922C109.64 294.666 112.009 294.602 114.02 294.602C115.321 294.544 116.623 294.616 117.909 294.819C119.288 295.305 121.741 286.92 121.741 286.92L118.969 286.281L118.05 286.063L117.411 285.91L115.157 285.38L108.324 286.159L103.522 289.253L102.769 292.685Z" fill="#FBBEBE"/>
<path opacity="0.1" d="M102.769 292.685L105.534 294.807C105.534 294.807 106.338 294.768 107.539 294.73C106.988 294.517 106.534 294.11 106.262 293.586C104.474 288.62 113.343 286.498 113.343 286.498L117.475 286.319L118.28 286.281H118.918L117.999 286.063L117.36 285.91L115.106 285.38L108.273 286.159L103.471 289.253L102.769 292.685Z" fill="black"/>
<path d="M97.3154 294.928C98.9885 296.475 109.946 294.928 110.406 294.89C109.574 294.984 108.733 294.925 107.922 294.717C107.521 294.645 107.14 294.485 106.809 294.247C106.478 294.009 106.203 293.7 106.006 293.343C104.218 288.371 113.088 286.255 113.088 286.255L117.219 286.076L118.018 286.038L128.062 285.603L128.548 282.836C128.548 282.836 125.285 283.143 120.163 283.552C117.283 283.788 113.778 284.05 109.991 284.3C99.4099 285.003 96.894 291.873 96.894 291.873C96.894 291.873 95.6104 293.343 97.3154 294.928Z" fill="#3F3D56"/>
<path d="M220.207 174.965C220.275 175.117 220.356 175.262 220.45 175.4L222.889 178.979L229.237 179.618L229.307 177.1L230.373 139.213C230.373 139.213 234.767 113.801 226.465 115.265C218.164 116.729 223.375 139.213 223.375 139.213C223.375 139.213 222.429 150.615 221.765 154.04C221.12 157.351 218.228 170.811 220.207 174.965Z" fill="#FBBEBE"/>
<path d="M205.961 269.069L207.768 272.163L211.81 279.084C211.81 279.084 219.141 281.775 221.018 279.723C222.046 278.605 223.157 274.7 223.937 271.415C224.575 268.756 225.003 266.513 225.003 266.513L205.961 269.069Z" fill="#FBBEBE"/>
<path opacity="0.1" d="M205.961 269.069L207.768 272.163C207.881 272.065 207.984 271.956 208.075 271.837C210.118 269.229 219.115 271.281 223.937 271.447C224.575 268.788 225.003 266.545 225.003 266.545L205.961 269.069Z" fill="black"/>
<path opacity="0.1" d="M114.02 294.589C115.321 294.531 116.623 294.604 117.909 294.807C119.288 295.293 121.741 286.907 121.741 286.907L118.05 286.038L128.094 285.603L128.58 282.836C128.58 282.836 125.317 283.143 120.195 283.552C119.137 284.162 118.193 284.951 117.405 285.885L117.251 286.076C115.112 288.703 114.32 292.09 114.02 294.589Z" fill="black"/>
<path opacity="0.1" d="M193.183 404.441L195.999 406.308C200.201 405.547 204.039 404.352 204.492 402.473C204.494 402.443 204.494 402.413 204.492 402.383C203.598 401.693 203.004 401.169 203.004 401.169L193.183 404.441Z" fill="black"/>
<path opacity="0.1" d="M184.856 407.509C188.567 407.324 192.264 406.927 195.929 406.32C193.74 405.719 191.516 405.256 189.269 404.933C186.542 404.639 185.144 406.966 184.856 407.509Z" fill="black"/>
<path d="M114.327 297.817C114.327 299.856 119.94 301.159 119.94 301.159L137.034 316.39C137.034 316.39 147.775 321.196 154.608 328.117C161.44 335.039 167.468 329.095 167.468 329.095C174.71 327.306 195.565 302.054 195.565 302.054C195.565 302.054 196.05 330.891 197.027 333.007C198.004 335.122 196.702 340.906 196.133 343.354C195.775 345.395 195.638 347.47 195.725 349.541C195.725 349.541 187.915 379.432 188.566 382.04C189.218 384.648 184.333 396.868 184.333 396.868V407.049C184.333 407.049 203.458 406.314 204.511 402C205.565 397.686 199.716 395.807 199.716 395.807V394.746C203.547 392.79 204.269 379.356 204.269 379.356C204.269 379.356 209.971 362.739 210.782 359.971C211.593 357.204 210.782 353.043 210.782 353.043L211.35 349.464C211.35 349.464 212.57 347.016 212.57 346.53C212.729 345.29 213.207 344.112 213.956 343.111C214.85 342.05 212.979 339.526 212.979 339.526L214.607 335.288V330.648L218.438 313.788C218.438 313.788 222.429 294.155 221.044 287.719C219.658 281.283 222.672 278.03 222.672 278.03C216.14 281.455 212.845 273.831 211.765 270.552C211.491 269.708 211.357 269.146 211.357 269.146C211.357 269.146 202.385 265.835 194.032 266.628C192.336 266.765 190.664 267.12 189.058 267.682C179.78 271.025 178.317 284.868 178.317 284.868L170.099 297.414C165.865 308.573 159.518 309.711 159.518 309.711C159.518 309.711 144.627 299.696 144.193 299.204C143.758 298.712 138.088 296.27 138.088 296.27C137.417 295.089 136.392 294.15 135.157 293.586C133.203 292.768 133.043 289.751 133.043 289.751C132.801 282.663 128.65 282.082 128.65 282.082C114.244 280.88 114.327 295.784 114.327 297.817Z" fill="#3F3D56"/>
<path d="M197.174 257.993H205.961V230.709H197.174V257.993Z" fill="#F86D70"/>
<path opacity="0.1" d="M197.174 257.993H205.961V230.709H197.174V257.993Z" fill="black"/>
<path opacity="0.1" d="M220.201 174.908C220.199 174.927 220.199 174.946 220.201 174.965C220.269 175.117 220.35 175.262 220.443 175.4L222.883 178.979L229.23 179.618L229.3 177.1C227.321 176.947 222.813 176.403 220.201 174.908Z" fill="black"/>
<path d="M220.45 175.4C220.45 175.4 220.776 189.729 217.193 191.685C213.611 193.64 212.219 203.828 212.219 203.828C212.219 203.828 223.074 210.973 225.495 214.118C227.915 217.262 233.47 224.753 232.327 226.542C231.184 228.332 235.099 236.48 235.099 236.48C235.099 236.48 227.934 251.142 229.562 256.683C231.191 262.224 231.35 276.879 231.35 276.879H234.447C234.447 276.879 233.47 264.825 233.47 259.936C233.47 255.047 236.721 237.618 236.721 237.618C236.721 237.618 238.189 220.515 236.721 220.03C235.252 219.544 226.631 212.699 225.98 209.599C225.329 206.499 230.539 177.643 230.539 177.643C230.539 177.643 223.866 177.355 220.45 175.4Z" fill="#F86D70"/>
<path opacity="0.1" d="M197.008 228.178C197.305 230.172 198.031 232.078 199.135 233.764L205.15 232.742C205.15 232.742 223.215 228.664 226.944 228.332C229.203 228.033 231.406 227.404 233.483 226.466C232.052 221.389 229.258 216.803 225.405 213.204L223.113 211.076C219.735 207.936 215.819 205.432 211.555 203.681C211.823 203.905 230.775 220.1 226.625 223.276C222.474 226.453 211.299 218.719 211.299 218.719L198.592 207.79L198.132 207.394L197.398 208.538C197.771 208.692 198.136 208.867 198.49 209.062C202.821 211.441 206.035 215.44 207.43 220.183C210.041 228.971 197.008 228.178 197.008 228.178Z" fill="black"/>
<path d="M193.1 268.903C193.1 268.903 205.144 275.582 208.068 271.837C208.707 271.012 210.054 270.654 211.733 270.558C211.459 269.715 211.325 269.152 211.325 269.152C211.325 269.152 202.353 265.842 194.001 266.634C193.451 268.015 193.1 268.903 193.1 268.903Z" fill="#444053"/>
<path d="M198.643 207.407L211.81 218.745C211.81 218.745 222.94 226.504 227.136 223.302C231.331 220.1 212.059 203.7 212.059 203.7C216.315 205.456 220.226 207.953 223.611 211.076L225.903 213.204C231.931 218.796 233.291 218.796 233.496 227.015C233.547 229.041 232.857 231.949 232.327 232.473C230.373 234.391 229.007 248.317 229.307 249.947C229.607 251.577 225.667 265.644 226.944 269.555C228.221 273.466 210.98 267.599 208.062 271.351C205.144 275.103 193.1 268.417 193.1 268.417C193.1 268.417 199.773 251.308 201.402 250.17C203.03 249.033 204.984 240.232 201.402 236.161C197.819 232.09 197.5 228.178 197.5 228.178C197.5 228.178 210.527 228.984 207.915 220.196C207.18 217.649 205.905 215.29 204.178 213.28C202.45 211.271 200.309 209.658 197.902 208.551L198.643 207.407Z" fill="#E8E8F0"/>
<path opacity="0.1" d="M216.216 236.244C216.216 236.244 211.165 245.773 204.633 248.247C204.422 248.323 204.218 248.394 203.994 248.458C197.174 250.535 216.727 239.197 216.216 236.244Z" fill="black"/>
<path d="M145.578 151.938C145.578 151.938 148.017 158.131 149.971 160.246C151.926 162.362 166.408 183.542 166.408 183.542L167.634 186.099L168.688 188.278L177.966 187.3L178.605 183.555L178.247 183.12C177.315 182.002 174.773 178.998 173.068 177.688C170.955 176.064 166.721 170.689 166.721 170.689C166.721 170.689 153.541 157 152.564 153.254C151.587 149.509 138.401 127.05 135.476 130.936C132.551 134.822 145.578 151.938 145.578 151.938Z" fill="#FBBEBE"/>
<g opacity="0.1">
<path opacity="0.1" d="M172.5 252.682C171.386 252.586 170.265 252.748 169.224 253.155C166.925 254.274 166.491 257.297 165.214 259.514C163.72 262.109 160.872 263.713 157.941 264.308C157.358 264.421 156.77 264.502 156.178 264.551C158.045 264.732 159.928 264.651 161.772 264.308C164.703 263.713 167.551 262.109 169.045 259.514C170.322 257.297 170.757 254.274 173.056 253.155C173.659 252.883 174.31 252.731 174.971 252.708L172.5 252.682Z" fill="black"/>
<path opacity="0.1" d="M195.182 203.655C195.182 198.574 198.483 194.196 201.204 189.908C203.924 185.619 206.21 180.206 204.058 175.604C202.219 171.674 191.133 166.401 184.735 167.443C190.999 168.254 198.72 172.383 200.227 175.604C202.379 180.206 200.092 185.619 197.372 189.908C194.652 194.196 191.338 198.574 191.351 203.655C191.351 210.213 190.91 215.159 189.109 221.493C188.592 223.315 193.579 226.069 192.813 227.795C190.22 233.547 191.434 240.181 191.018 246.47C191.01 247.699 190.71 248.908 190.144 249.998C188.866 252.101 186.248 252.644 183.701 252.759H185.929C188.905 252.759 192.436 252.529 193.975 249.979C194.541 248.889 194.841 247.679 194.85 246.451C195.265 240.162 194.052 233.521 196.644 227.776C197.423 226.05 192.423 223.302 192.941 221.474C194.741 215.185 195.195 210.213 195.182 203.655Z" fill="black"/>
</g>
<path opacity="0.1" d="M167.634 186.086L168.688 188.265L177.966 187.288L178.605 183.542L178.247 183.108C177.257 183.593 169.844 187.166 167.634 186.086Z" fill="black"/>
<path opacity="0.1" d="M201.893 210.583C201.893 210.583 199.614 207.004 198.311 207.976C197.008 208.947 196.504 205.042 195.757 205.694C195.009 206.346 192.832 208.161 191.925 205.624C191.216 203.604 183.503 190.828 180.374 185.69C179.569 184.36 179.065 183.542 179.065 183.542C179.065 183.542 170.278 187.939 168.164 186.476V189.569L169.952 189.735L179.531 207.631C179.531 207.631 182.545 212.43 182.34 214.105C182.136 215.779 186.204 223.11 186.855 223.596C187.506 224.082 194.518 232.23 194.518 232.23C194.518 232.23 198.1 249.825 195.003 254.715C191.906 259.604 186.542 263.183 186.542 263.183C186.542 263.183 184.927 267.906 185.163 268.398C185.399 268.89 183.285 271.006 184.262 271.658C185.239 272.31 186.542 276.867 186.542 276.867C186.542 276.867 191.101 269.536 193.566 268.398C196.031 267.261 199.186 252.267 199.186 252.267C199.186 252.267 200.086 243.434 200.156 237.733C200.227 232.032 199.939 210.583 201.893 210.583Z" fill="black"/>
<path d="M201.402 210.583C201.402 210.583 199.128 207.004 197.826 207.976C196.523 208.947 196.012 205.042 195.271 205.694C194.531 206.346 192.353 208.161 191.44 205.624C190.725 203.604 183.011 190.828 179.888 185.69L178.579 183.542C178.579 183.542 169.793 187.939 167.673 186.476V189.569L169.467 189.735L179.045 207.631C179.045 207.631 182.066 212.43 181.855 214.105C181.644 215.779 185.686 223.11 186.37 223.596C187.053 224.082 194.032 232.23 194.032 232.23C194.032 232.23 197.615 249.825 194.524 254.715C192.892 257.17 190.905 259.371 188.63 261.246C186.719 262.824 185.374 264.983 184.799 267.395C184.688 267.724 184.649 268.072 184.684 268.417C184.92 268.903 182.807 271.025 183.784 271.677C184.761 272.329 186.076 276.905 186.076 276.905C186.076 276.905 190.635 269.574 193.1 268.437C195.565 267.299 198.726 252.305 198.726 252.305C198.726 252.305 199.62 243.473 199.697 237.772C199.773 232.071 199.486 210.583 201.402 210.583Z" fill="#F86D70"/>
<path opacity="0.1" d="M179.103 284.708C179.103 284.708 185.942 285.987 188.681 287.962C191.421 289.936 178.266 284.868 178.266 284.868L179.103 284.708Z" fill="black"/>
<path opacity="0.1" d="M195.546 302.054C195.546 302.054 202.679 308.005 201.401 313.38C200.124 318.755 196.829 332.278 196.829 332.278L195.546 302.054Z" fill="black"/>
<path opacity="0.1" d="M133.164 290.614C133.164 290.614 123.113 291.713 123.765 293.017C124.416 294.321 133.164 291.816 133.164 291.816V290.614Z" fill="black"/>
<path opacity="0.1" d="M210.341 340.095C210.341 340.095 210.98 340.906 207.251 340.095C203.522 339.283 206.274 336.778 206.274 336.778L210.341 340.095Z" fill="black"/>
<path opacity="0.1" d="M209.064 351.337C209.064 351.337 203.956 352.148 201.216 351.337C198.477 350.525 209.064 351.337 209.064 351.337Z" fill="black"/>
<path opacity="0.1" d="M198.554 395.321C198.554 395.321 197.66 394.343 193.183 396.133C188.707 397.922 186.919 398.005 185.616 397.411C184.314 396.817 198.554 395.321 198.554 395.321Z" fill="black"/>
<path opacity="0.1" d="M203.522 289.227L197.174 298.066C197.174 298.066 200.591 290.326 203.522 289.227Z" fill="black"/>
<path opacity="0.1" d="M191.184 207.976C191.184 207.976 190.91 210.909 186.817 212.053C182.724 213.197 181.944 214.124 181.944 214.124" fill="black"/>
<path opacity="0.1" d="M180.546 186.712C180.546 186.712 175.144 190.547 169.505 189.735L180.546 186.712Z" fill="black"/>
<path opacity="0.1" d="M184.658 268.82C184.658 268.82 186.236 269.811 190.022 265.477L184.658 268.82Z" fill="black"/>
<path opacity="0.1" d="M223.988 222.874C224.141 222.081 223.592 221.346 223.074 220.726L222.014 219.448C221.807 219.186 221.574 218.947 221.318 218.732C220.68 218.24 219.862 218.093 219.198 217.652" fill="black"/>
<path opacity="0.1" d="M566.846 0.0700684C566.846 0.0700684 513.085 -3.17666 519.407 34.5314C519.407 34.5314 518.13 41.1974 524.183 44.2205C524.183 44.2205 524.279 41.4275 529.701 42.3798C531.631 42.7 533.592 42.7944 535.543 42.661C538.18 42.4788 540.686 41.4423 542.683 39.7083C542.683 39.7083 557.797 33.4577 563.672 8.73654C563.672 8.73654 568.021 3.34237 567.848 1.95547L558.774 5.83493C558.774 5.83493 561.878 12.3859 559.413 17.8312C559.413 17.8312 559.119 6.0714 557.376 6.32705C557.025 6.38457 552.663 8.59593 552.663 8.59593C552.663 8.59593 557.995 20.0042 553.972 28.3C553.972 28.3 555.499 14.2394 550.997 9.42039L544.611 13.1529C544.611 13.1529 550.843 24.9382 546.616 34.557C546.616 34.557 547.702 19.8061 543.264 14.0604L537.478 18.579C537.478 18.579 543.334 30.1982 539.764 38.1744C539.764 38.1744 539.298 21.0012 536.227 19.7038C536.227 19.7038 531.163 24.1777 530.39 26.0056C530.39 26.0056 534.4 34.4419 531.91 38.8902C531.91 38.8902 530.384 27.45 529.132 27.3861C529.132 27.3861 524.088 34.966 523.564 40.1684C523.564 40.1684 523.781 32.4415 527.913 26.6702C527.913 26.6702 523.034 27.5075 520.186 30.6711C520.186 30.6711 520.971 25.3153 529.158 24.8487C529.158 24.8487 533.328 19.0967 534.439 18.7452C534.439 18.7452 526.303 18.0677 521.367 20.2535C521.367 20.2535 525.71 15.198 535.933 17.4989L541.648 12.8269C541.648 12.8269 530.933 11.3633 526.386 12.9803C526.386 12.9803 531.616 8.50645 543.187 11.766L549.407 8.04629C549.407 8.04629 540.269 6.0778 534.828 6.76805C534.828 6.76805 540.575 3.66832 551.233 7.03009L555.703 5.02964C555.703 5.02964 549.011 3.71305 547.05 3.50214C545.09 3.29123 544.988 2.75437 544.988 2.75437C549.228 2.04677 553.58 2.53133 557.561 4.15405C557.561 4.15405 567.012 0.66445 566.846 0.0700684Z" fill="#6C63FF"/>
<path opacity="0.1" d="M500.537 9.66324C500.537 9.66324 476.272 8.19326 479.113 25.2322C479.113 25.2322 478.545 28.2488 481.265 29.6166C481.265 29.6166 481.31 28.3383 483.762 28.7793C484.633 28.926 485.518 28.9689 486.399 28.9071C487.591 28.8261 488.724 28.357 489.624 27.5714C489.624 27.5714 496.457 24.7529 499.113 13.581C499.113 13.581 501.074 11.1396 500.997 10.5133L496.897 12.2645C496.897 12.2645 498.302 15.23 497.198 17.6906C497.198 17.6906 497.063 12.3731 496.278 12.5009C496.118 12.5009 494.145 13.5235 494.145 13.5235C494.145 13.5235 496.559 18.6812 494.739 22.4329C494.739 22.4329 495.429 16.08 493.392 13.9006L490.505 15.5879C490.505 15.5879 493.328 20.9117 491.412 25.2578C491.412 25.2578 491.904 18.5917 489.899 15.9969L487.287 18.0613C487.287 18.0613 489.931 23.3148 488.322 26.9131C488.322 26.9131 488.111 19.1542 486.719 18.5726C486.719 18.5726 484.433 20.5922 484.081 21.423C484.081 21.423 485.895 25.2578 484.771 27.239C484.771 27.239 484.081 22.0686 483.494 22.0494C483.494 22.0494 481.221 25.4751 480.978 27.8015C481.092 25.6303 481.77 23.5265 482.945 21.6979C481.629 21.9473 480.415 22.5759 479.452 23.5066C479.452 23.5066 479.809 21.0907 483.507 20.8734C483.507 20.8734 485.422 18.2786 485.895 18.1188C485.895 18.1188 482.217 17.812 479.988 18.8027C479.988 18.8027 481.949 16.5146 486.572 17.5244L489.126 15.4153C489.126 15.4153 484.286 14.7762 482.23 15.4856C482.23 15.4856 484.592 13.466 489.822 14.936L492.632 13.2551C492.632 13.2551 488.507 12.3603 486.042 12.6863C486.042 12.6863 488.641 11.2802 493.456 12.8013L495.467 11.9002C495.467 11.9002 492.44 11.2994 491.553 11.2099C490.665 11.1204 490.62 10.8712 490.62 10.8712C492.537 10.552 494.505 10.7733 496.304 11.5103C496.304 11.5103 500.614 9.93167 500.537 9.66324Z" fill="#6C63FF"/>
<path d="M585.3 415.913C599.481 415.913 610.977 413.968 610.977 411.567C610.977 409.167 599.481 407.221 585.3 407.221C571.12 407.221 559.624 409.167 559.624 411.567C559.624 413.968 571.12 415.913 585.3 415.913Z" fill="#6C63FF"/>
<path d="M595.92 404.461C597.092 403.505 597.945 402.214 598.365 400.76C598.685 399.296 598.059 397.564 596.654 396.996C595.083 396.395 593.404 397.488 592.133 398.587C590.862 399.686 589.4 400.945 587.74 400.709C588.595 399.931 589.235 398.945 589.598 397.846C589.96 396.748 590.033 395.574 589.809 394.439C589.736 393.969 589.537 393.527 589.234 393.161C588.359 392.228 586.782 392.624 585.735 393.359C582.414 395.698 581.488 400.217 581.469 404.275C581.137 402.812 581.418 401.284 581.412 399.801C581.405 398.319 580.99 396.606 579.719 395.82C578.936 395.398 578.055 395.19 577.165 395.219C575.677 395.161 574.011 395.315 572.995 396.408C571.718 397.763 572.057 400.038 573.155 401.521C574.253 403.003 575.933 403.956 577.478 404.985C578.714 405.722 579.768 406.729 580.562 407.931C580.658 408.099 580.735 408.277 580.792 408.461H590.153C592.247 407.394 594.187 406.048 595.92 404.461Z" fill="#6C63FF"/>
<defs>
<linearGradient id="paint0_linear" x1="516.54" y1="322.711" x2="516.54" y2="65.5926" gradientUnits="userSpaceOnUse">
<stop stop-color="#808080" stop-opacity="0.25"/>
<stop offset="0.54" stop-color="#808080" stop-opacity="0.12"/>
<stop offset="1" stop-color="#808080" stop-opacity="0.1"/>
</linearGradient>
<linearGradient id="paint1_linear" x1="25448" y1="160154" x2="56987.6" y2="160154" gradientUnits="userSpaceOnUse">
<stop stop-color="#808080" stop-opacity="0.25"/>
<stop offset="0.54" stop-color="#808080" stop-opacity="0.12"/>
<stop offset="1" stop-color="#808080" stop-opacity="0.1"/>
</linearGradient>
</defs>
</svg>
