<svg width="575" height="437" viewBox="0 0 575 437" fill="none" xmlns="http://www.w3.org/2000/svg">
<path opacity="0.1" d="M567.684 125.793C567.584 126.262 567.49 126.73 567.379 127.193C563.924 143.114 558.278 158.456 549.883 172.545C549.604 173.014 549.325 173.482 549.041 173.951C543.505 183.015 536.881 191.37 529.317 198.829C525.135 202.955 520.574 206.876 515.15 209.703C507.55 213.671 498.665 215.282 489.933 216.597C480.864 217.971 471.669 219.118 462.499 220.355C459.241 220.787 456.002 221.245 452.783 221.729C443.924 223.039 435.129 224.555 426.544 226.566C415.932 229.045 405.646 232.292 395.929 236.86C395.153 237.211 394.386 237.583 393.628 237.976C392.869 238.355 392.106 238.739 391.358 239.129C390.61 239.518 389.873 239.908 389.141 240.308C388.761 240.513 388.382 240.718 388.008 240.934C387.634 241.15 387.266 241.339 386.902 241.55C385.807 242.16 384.732 242.786 383.658 243.418L383.616 243.444C382.905 243.86 382.204 244.286 381.509 244.713C377.538 247.123 373.651 249.639 369.765 252.171L367.321 253.749L363.534 256.197C362.797 256.676 362.044 257.155 361.301 257.628C360.775 257.976 360.248 258.323 359.674 258.681C356.914 260.418 354.117 262.123 351.247 263.749C350.568 264.139 349.883 264.528 349.193 264.907C343.394 268.14 337.33 270.873 331.065 273.075L330.981 273.107C327.83 274.206 324.615 275.113 321.354 275.823C319.474 276.233 317.588 276.57 315.682 276.828C310.585 277.55 305.418 277.623 300.303 277.044C290.26 275.881 280.848 272.028 270.81 270.728C250.144 268.097 230.073 276.575 210.639 283.217C205.86 284.849 201.047 286.377 196.198 287.802C192.975 288.754 189.741 289.654 186.481 290.523C166.508 295.796 146.123 299.369 125.546 301.201C116.944 302.044 108.291 302.236 99.6604 301.775C96.3793 301.575 93.1351 301.249 89.9488 300.723C79.0469 299.038 68.8823 295.507 60.6769 289.038C53.9567 283.728 49.1482 276.807 45.4879 269.565C41.741 262.175 39.0955 254.278 37.6354 246.123C37.4352 245.013 37.2562 243.897 37.1087 242.781C36.8454 240.872 36.6488 238.953 36.5189 237.023C35.8102 226.737 37.0393 216.41 40.1423 206.576C43.6183 195.566 49.4116 184.998 51.9606 173.903C52.0659 173.433 52.166 172.965 52.2608 172.498C52.6089 170.813 52.8674 169.11 53.035 167.398C54.3358 153.767 49.3484 140.477 45.4353 127.146C45.2983 126.683 45.1614 126.214 45.0297 125.746C44.6084 124.265 44.2046 122.786 43.8184 121.309C40.195 107.215 39.189 92.1253 42.4175 78.057C42.5175 77.5886 42.6387 77.1202 42.7545 76.657C44.9159 67.7643 48.9802 59.4454 54.6677 52.2731C60.7137 44.6943 68.6505 38.3839 77.1298 32.8418C81.2624 30.1401 85.5353 27.6156 89.9488 25.2682C93.1087 23.5841 96.346 21.9893 99.6604 20.4841C126.231 8.37899 156.54 2.46854 186.512 3.77379C188.092 3.84221 189.672 3.92642 191.252 4.04221C192.832 4.15799 194.56 4.29483 196.214 4.44746C215.521 6.32112 234.307 10.8421 252.961 15.7842C259.213 17.442 265.454 19.142 271.69 20.8104C274.465 21.5472 277.235 22.2841 280.011 22.9999C293.604 26.5103 307.397 29.6892 321.364 32.0629C324.598 32.6208 327.835 33.1295 331.076 33.5892C342.328 35.2417 353.671 36.2032 365.04 36.4681C369.461 36.5558 373.883 36.5172 378.307 36.3523C380.54 36.2716 382.775 36.1506 385.012 35.9892C408.106 34.3629 430.426 28.9208 452.783 23.8367C456.016 23.0998 459.255 22.3735 462.499 21.6578C466.755 20.7209 471.01 19.8157 475.287 18.9788C501.899 13.7526 525.62 16.7578 550.363 27.5419C555.987 29.9892 561.607 32.9471 565.051 37.5418C568.496 42.1364 569.359 47.7785 570.002 53.2258C570.913 60.9836 571.508 68.8414 571.734 76.7412C571.734 77.2044 571.734 77.6728 571.766 78.1412C572.124 94.0989 570.934 110.209 567.684 125.793Z" fill="#6C63FF"/>
<path opacity="0.1" d="M391.158 172.545H389.42V173.166V173.95H391.389L391.158 172.545ZM371.445 172.545C371.442 172.557 371.442 172.57 371.445 172.582C371.397 172.966 371.344 173.35 371.292 173.74V173.845V173.95H386.354V173.866L387.408 172.545H371.445ZM331.076 172.545V127.193H348.403C348.219 127.072 348.029 126.946 347.834 126.83L347.582 126.667L347.255 126.467C347.065 126.356 346.876 126.246 346.676 126.14C346.475 126.035 346.354 125.962 346.186 125.872L346.07 125.809H346.044H331.076V123.309L330.67 123.467L330.244 123.667H330.212L330.123 123.714L329.854 123.856L329.585 123.998C329.322 124.14 329.059 124.298 328.795 124.462L328.543 124.63L328.016 124.967C327.337 125.419 326.668 125.893 325.978 126.335C325.804 126.446 325.63 126.556 325.451 126.656C325.077 126.877 324.693 127.088 324.298 127.277C324.129 127.362 323.966 127.435 323.771 127.504L323.487 127.614L323.223 127.704C322.605 127.919 321.971 128.084 321.327 128.198V172.535H295.347C295.347 172.587 295.384 172.629 295.4 172.682C295.542 173.103 295.684 173.519 295.821 173.94H321.364V222.55C321.498 222.55 321.629 222.55 321.759 222.55L322.217 222.576L323.044 222.623L324.366 222.781L324.972 222.839L325.63 222.908H325.73L326.894 223.05L327.142 223.081L327.705 223.16L328.511 223.276L330.444 223.192L330.707 223.239C330.813 223.239 330.923 223.271 331.034 223.292V173.95H371.239V173.845V173.74C371.292 173.35 371.345 172.966 371.392 172.582C371.389 172.57 371.389 172.557 371.392 172.545H331.076ZM391.158 172.545H389.42V173.166V173.95H391.389L391.158 172.545ZM370.36 172.545C370.296 173.014 370.238 173.482 370.175 173.95H386.971L388.113 172.545H370.36ZM331.076 172.545V127.193H348.403C348.219 127.072 348.029 126.946 347.834 126.83L347.582 126.667L347.255 126.467C347.065 126.356 346.876 126.246 346.676 126.14C346.475 126.035 346.354 125.962 346.186 125.872L346.07 125.809H346.033H331.076V123.309L330.67 123.467L330.244 123.667H330.212L330.123 123.714L329.854 123.856L329.585 123.998C329.322 124.14 329.059 124.298 328.795 124.462L328.543 124.63L328.016 124.967C327.337 125.419 326.668 125.893 325.978 126.335C325.804 126.446 325.63 126.556 325.451 126.656C325.077 126.877 324.693 127.088 324.298 127.277C324.129 127.362 323.966 127.435 323.771 127.504L323.487 127.614L323.223 127.704C322.605 127.919 321.971 128.084 321.327 128.198V172.535H295.347C295.347 172.587 295.384 172.629 295.4 172.682C295.542 173.098 295.689 173.519 295.826 173.94H321.364V222.544H321.759L322.217 222.571L323.044 222.618L324.366 222.781L324.972 222.839L325.63 222.908H325.73L326.894 223.05L327.142 223.081L327.705 223.16L328.511 223.276L330.444 223.192L330.707 223.239C330.813 223.239 330.923 223.271 331.034 223.292V173.95H370.186C370.249 173.482 370.307 173.014 370.37 172.545H331.076ZM462.499 78.1043H571.766C571.766 77.6358 571.766 77.1674 571.734 76.7043H462.499V21.6419C459.255 22.3436 456.016 23.0699 452.782 23.8208V76.7043H333.946L333.646 76.4359L334.099 76.0359L378.302 36.3417C373.878 36.5101 369.456 36.5487 365.035 36.4575L331.071 66.9518V33.5891C327.826 33.1294 324.589 32.6207 321.359 32.0628V65.415L271.7 20.8103C265.464 19.1419 259.223 17.4419 252.972 15.784L320.506 76.4359L320.206 76.7043H196.229V4.49472C194.575 4.34034 192.922 4.20525 191.268 4.08946C189.688 3.97367 188.108 3.88947 186.528 3.82104V76.7043H99.6603V20.5313C96.381 22.0331 93.1437 23.6278 89.9487 25.3155V76.7043H42.7544C42.6386 77.1674 42.5174 77.6358 42.4174 78.1043H89.9487V125.793H45.0296C45.1613 126.262 45.2982 126.73 45.4351 127.193H89.9487V172.545H52.2607C52.1659 173.012 52.0658 173.48 51.9605 173.95H89.9487V300.754C93.1086 301.243 96.3792 301.586 99.6603 301.807V173.95H186.512V290.544C189.772 289.675 193.006 288.775 196.229 287.823V173.95H321.364V275.817C324.625 275.107 327.84 274.2 330.992 273.102L331.076 273.07V173.95H452.782V221.729C456.013 221.255 459.252 220.801 462.499 220.366V173.95H549.04C549.325 173.482 549.604 173.014 549.883 172.545H462.499V127.193H567.379C567.49 126.73 567.584 126.262 567.684 125.793H462.499V78.1043ZM99.6603 78.1043H186.512V125.793H99.6603V78.1043ZM99.6603 172.545V127.193H186.512V172.545H99.6603ZM196.229 78.1043H321.364V125.793H196.229V78.1043ZM196.229 172.545V127.193H321.364V172.545H196.229ZM452.782 172.545H331.076V127.193H452.782V172.545ZM452.782 125.793H331.076V79.3832L332.782 78.1043H452.782V125.793ZM371.445 172.545C371.442 172.557 371.442 172.57 371.445 172.582C371.397 172.966 371.344 173.35 371.292 173.74V173.845V173.95H386.354V173.866L387.408 172.545H371.445ZM391.158 172.545H389.42V173.166V173.95H391.389L391.158 172.545ZM331.076 172.545V127.193H348.403C348.219 127.072 348.029 126.946 347.834 126.83L347.582 126.667L347.255 126.467C347.065 126.356 346.876 126.246 346.676 126.14C346.475 126.035 346.354 125.962 346.186 125.872L346.07 125.809H346.044H331.076V123.309L330.67 123.467L330.244 123.667H330.212L330.123 123.714L329.854 123.856L329.585 123.998C329.322 124.14 329.059 124.298 328.795 124.462L328.543 124.63L328.016 124.967C327.337 125.419 326.668 125.893 325.978 126.335C325.804 126.446 325.63 126.556 325.451 126.656C325.077 126.877 324.693 127.088 324.298 127.277C324.129 127.362 323.966 127.435 323.771 127.504L323.487 127.614L323.223 127.704C322.605 127.919 321.971 128.084 321.327 128.198V172.535H295.347C295.347 172.587 295.384 172.629 295.4 172.682C295.542 173.103 295.684 173.519 295.821 173.94H321.364V222.55C321.498 222.55 321.629 222.55 321.759 222.55L322.217 222.576L323.044 222.623L324.366 222.781L324.972 222.839L325.63 222.908H325.73L326.894 223.05L327.142 223.081L327.705 223.16L328.511 223.276L330.444 223.192L330.707 223.239C330.813 223.239 330.923 223.271 331.034 223.292V173.95H371.239V173.845V173.74C371.292 173.35 371.345 172.966 371.392 172.582C371.389 172.57 371.389 172.557 371.392 172.545H331.076Z" fill="#6C63FF"/>
<path opacity="0.1" d="M141.42 45.2731H142.173C141.924 45.1682 141.708 44.9994 141.547 44.784C141.385 44.5687 141.283 44.3143 141.251 44.0468C141.251 43.0784 142.699 42.2889 144.469 42.2889H166.989C168.759 42.2889 170.202 43.0784 170.202 44.0468C170.202 45.01 168.759 45.8047 166.989 45.8047H166.236C166.484 45.9078 166.701 46.0754 166.863 46.29C167.025 46.5047 167.127 46.7586 167.158 47.0257C167.158 47.852 166.104 48.5468 164.698 48.731H171.181C172.946 48.731 174.394 49.5204 174.394 50.4888C174.394 51.4572 172.946 52.2467 171.181 52.2467H148.656C146.892 52.2467 145.443 51.452 145.443 50.4888C145.443 49.6625 146.497 48.9731 147.903 48.7836H141.42C139.65 48.7836 138.207 47.9941 138.207 47.0257C138.207 46.0573 139.65 45.2731 141.42 45.2731Z" fill="#6C63FF"/>
<path opacity="0.1" d="M385.496 61.9939H386.249C386.002 61.8883 385.787 61.7192 385.626 61.5039C385.465 61.2885 385.364 61.0346 385.333 60.7676C385.333 59.7992 386.776 59.0098 388.545 59.0098H411.065C412.835 59.0098 414.283 59.7992 414.283 60.7676C414.283 61.7308 412.835 62.5202 411.065 62.5202H410.318C410.565 62.6259 410.78 62.795 410.941 63.0103C411.102 63.2256 411.203 63.4796 411.234 63.7465C411.234 64.5728 410.181 65.2676 408.774 65.4518H415.258C417.027 65.4518 418.47 66.2412 418.47 67.2097C418.47 68.1781 417.027 68.9675 415.258 68.9675H392.738C390.968 68.9675 389.52 68.1728 389.52 67.2097C389.52 66.3834 390.573 65.6886 391.979 65.5044H385.496C383.732 65.5044 382.283 64.715 382.283 63.7465C382.283 62.7781 383.732 61.9939 385.496 61.9939Z" fill="#6C63FF"/>
<path opacity="0.1" d="M106.854 133.551H107.602C107.355 133.446 107.139 133.277 106.978 133.061C106.817 132.846 106.717 132.592 106.686 132.325C106.686 131.361 108.134 130.567 109.898 130.567H132.424C134.188 130.567 135.636 131.361 135.636 132.325C135.636 133.293 134.188 134.082 132.424 134.082H131.671C131.919 134.186 132.134 134.354 132.295 134.568C132.456 134.783 132.557 135.037 132.587 135.303C132.587 136.13 131.534 136.824 130.128 137.009H136.611C138.38 137.009 139.829 137.803 139.829 138.767C139.829 139.73 138.38 140.524 136.611 140.524H114.112C112.342 140.524 110.899 139.735 110.899 138.767C110.899 137.945 111.952 137.251 113.359 137.061H106.854C105.085 137.061 103.636 136.272 103.636 135.303C103.636 134.335 105.106 133.551 106.854 133.551Z" fill="#6C63FF"/>
<path opacity="0.1" d="M530.898 321.103C534.681 302.604 488.363 277.521 427.443 265.08C366.523 252.638 314.071 257.55 310.288 276.049C306.505 294.549 352.823 319.632 413.743 332.073C474.663 344.514 527.115 339.603 530.898 321.103Z" fill="#6C63FF"/>
<path d="M407.874 202.566C407.874 202.566 413.862 173.192 436.725 175.913C436.725 175.913 452.524 176.998 455.774 187.334V210.181L407.874 202.566Z" fill="#3A3768"/>
<path d="M533.077 213.45L329.485 196.582L303.358 202.024L304.99 238.471L306.77 238.686L308.798 293.417L508.577 329.317L529.812 311.364V252.034L532.53 250.439L533.077 213.45Z" fill="#D48A9B"/>
<path opacity="0.05" d="M533.351 213.45L532.804 250.439L510.757 260.776L510.484 222.15L533.351 213.45Z" fill="black"/>
<path opacity="0.05" d="M529.812 252.07L530.081 310.28L508.851 328.232L510.215 260.775L529.812 252.07Z" fill="black"/>
<path opacity="0.05" d="M307.044 240.865L510.378 265.66L510.484 260.955L306.892 239.013L307.044 240.865Z" fill="black"/>
<path opacity="0.05" d="M529.812 254.207V252.07L509.667 260.954V265.67L529.812 254.207Z" fill="black"/>
<path d="M303.084 202.024L329.212 196.582L532.804 213.45L509.941 222.15L303.084 202.024Z" fill="#EFC6CD"/>
<path opacity="0.1" d="M511.116 214.497L521.106 215.15L504.548 220.102L496.116 219.497L511.116 214.497Z" fill="black"/>
<path d="M511.116 214.06L521.106 214.713L504.548 219.671L496.116 219.06L511.116 214.06Z" fill="white"/>
<path d="M509.92 215.181C510.315 215.013 510.731 215.334 511.152 215.413C511.395 215.46 511.642 215.413 511.884 215.46C512.374 215.523 512.859 215.85 513.327 215.687" fill="#D3DAE1"/>
<path d="M509.404 215.481C509.794 215.313 510.215 215.629 510.636 215.713C510.879 215.755 511.126 215.713 511.368 215.755C511.858 215.823 512.343 216.15 512.812 215.987" fill="#D3DAE1"/>
<path d="M508.214 216.081C508.609 215.913 509.03 216.229 509.452 216.308C509.689 216.355 509.941 216.308 510.178 216.355C510.673 216.424 511.158 216.75 511.621 216.581" fill="#D3DAE1"/>
<path opacity="0.1" d="M467.929 209.582L477.92 210.239L461.362 215.192L452.93 214.581L467.929 209.582Z" fill="black"/>
<path d="M467.929 209.15L477.92 209.803L461.362 214.755L452.93 214.15L467.929 209.15Z" fill="white"/>
<path d="M466.733 210.271C467.128 210.103 467.544 210.418 467.966 210.503C468.208 210.545 468.456 210.503 468.698 210.545C469.188 210.613 469.672 210.939 470.141 210.776" fill="#D3DAE1"/>
<path d="M466.218 210.571C466.607 210.402 467.029 210.718 467.45 210.797C467.692 210.845 467.94 210.797 468.182 210.845C468.672 210.913 469.156 211.239 469.625 211.071" fill="#D3DAE1"/>
<path d="M465.027 211.166C465.422 210.997 465.844 211.318 466.265 211.397C466.502 211.445 466.755 211.397 466.992 211.445C467.487 211.508 467.971 211.839 468.435 211.671" fill="#D3DAE1"/>
<path opacity="0.1" d="M488.643 212.039L498.639 212.692L482.081 217.65L473.644 217.039L488.643 212.039Z" fill="black"/>
<path d="M488.643 211.608L498.639 212.26L482.081 217.213L473.644 216.602L488.643 211.608Z" fill="white"/>
<path d="M487.447 212.729C487.842 212.56 488.264 212.876 488.685 212.955C488.922 213.002 489.169 212.955 489.412 213.002C489.902 213.066 490.391 213.397 490.855 213.229" fill="#D3DAE1"/>
<path d="M486.931 213.024C487.326 212.855 487.748 213.176 488.169 213.255C488.406 213.302 488.654 213.255 488.896 213.302C489.386 213.366 489.875 213.697 490.339 213.529" fill="#D3DAE1"/>
<path d="M485.746 213.624C486.136 213.455 486.557 213.771 486.978 213.855C487.221 213.897 487.468 213.855 487.711 213.897C488.2 213.966 488.685 214.292 489.154 214.129" fill="#D3DAE1"/>
<path opacity="0.1" d="M262.447 416.51C321.341 416.51 369.085 406.689 369.085 394.574C369.085 382.459 321.341 372.637 262.447 372.637C203.552 372.637 155.808 382.459 155.808 394.574C155.808 406.689 203.552 416.51 262.447 416.51Z" fill="#6C63FF"/>
<path d="M379.223 214.934C378.086 204.945 373.583 195.413 373.583 195.413L373.925 192.045C373.925 192.045 373.999 190.361 373.888 187.835C373.9 186.257 374.107 184.687 374.505 183.161C375.426 180.24 373.351 176.65 373.119 176.319C372.888 175.987 373.235 169.582 371.16 166.44C369.085 163.298 355.266 157.456 355.266 157.456C355.266 157.456 354.523 155.903 353.475 154.088L353.57 153.903C352.712 152.349 351.649 150.917 350.41 149.646C349.562 148.74 348.745 148.225 348.087 148.477C347.819 147.604 347.615 146.712 347.476 145.809C347.613 145.846 347.755 145.882 347.892 145.909C348.463 146.041 349.054 146.055 349.63 145.951C350.915 145.661 351.769 144.509 352.485 143.425C356.056 138.004 359.131 132.056 359.758 125.641C359.926 124.331 359.864 123.002 359.574 121.714C359.277 120.713 358.864 119.75 358.341 118.846C357.418 116.991 356.249 115.268 354.865 113.725C352.406 111.136 349.014 109.551 345.528 108.615C341.6 107.559 337.508 107.254 333.467 107.715C332.414 107.836 331.36 108.009 330.307 108.078C328.971 108.136 327.632 108.114 326.299 108.009L319.405 107.609L319.374 107.504L318.225 107.436C317.772 108.336 318.225 109.404 318.789 110.246C319.352 111.088 320 111.967 319.953 112.962C319.905 113.957 319.184 114.757 318.62 115.593C318.057 116.43 317.63 117.525 318.194 118.346C318.273 118.46 318.367 118.562 318.473 118.651C319.068 119.267 320.106 119.335 321.006 119.325H321.164C318.896 122.31 317.67 125.956 317.672 129.704C317.688 132.907 318.585 136.044 320.265 138.771C321.946 141.498 324.345 143.711 327.2 145.167C327.3 145.509 327.4 145.861 327.495 146.219C328.539 149.916 328.913 153.77 328.601 157.598L328.479 157.861L328.406 157.582C328.406 157.582 320.285 163.087 317.872 164.545C315.46 166.003 313.038 170.945 312.922 172.293C312.806 173.64 309.004 193.961 309.004 193.961C308.231 196.008 307.594 198.104 307.097 200.234L302.246 204.492C302.246 204.492 292.24 205.392 289.343 204.719L289.427 205.276C286.873 204.694 284.271 204.341 281.654 204.224C280.224 204.04 278.772 204.234 277.441 204.787L277.341 204.834L277.262 204.871C275.737 205.079 274.248 205.497 272.838 206.113C272.669 206.182 272.516 206.25 272.369 206.318L272.4 205.629L261.572 205.071L256.042 203.95C256.042 203.95 254.083 202.371 252.93 202.603C251.776 202.834 249.359 201.255 249.359 201.255C248.807 200.824 248.211 200.453 247.579 200.15C247.395 198.876 247.279 198.103 247.279 198.103C247.279 198.103 242.976 181.04 239.753 171.008C237.593 164.309 234.486 161.009 232.653 159.572C231.837 158.151 231.3 157.235 231.3 157.235C230.947 156.003 229.009 153.23 228.514 153.161C228.435 153.035 228.377 152.972 228.345 152.972C228.239 152.96 228.132 152.977 228.034 153.019C227.129 148.514 226.602 142.867 227.987 137.946C229.883 136.388 231.411 134.432 232.462 132.215C233.513 129.999 234.06 127.577 234.065 125.125C234.065 125.051 234.065 124.977 234.065 124.904C234.065 124.83 234.065 124.751 234.065 124.677C234.064 120.766 232.677 116.981 230.152 113.993L229.972 113.793C230.02 113.759 230.066 113.723 230.109 113.683C230.505 113.362 230.807 112.94 230.982 112.462C231.157 111.984 231.2 111.467 231.105 110.967C230.868 109.957 230.078 109.162 229.672 108.204C229.429 107.467 229.233 106.714 229.088 105.951C228.777 104.868 228.208 103.876 227.429 103.062L227.508 103.272C225.443 100.951 221.893 99.7988 218.697 100.315C216.321 100.694 214.109 101.799 211.724 102.141C210.012 102.383 208.269 102.225 206.547 102.399C204.949 102.563 203.393 103.012 201.954 103.725C201.578 103.885 201.245 104.13 200.98 104.441C200.735 104.857 200.57 105.316 200.495 105.793C199.911 107.925 198.057 109.446 196.714 111.225C195.18 113.257 194.292 115.703 194.165 118.246C194.112 118.892 194.175 119.543 194.349 120.167C194.465 120.541 194.644 120.893 194.728 121.272C194.992 122.43 194.386 123.583 194.091 124.73C193.719 126.194 193.851 127.74 194.465 129.12C196.545 133.772 203.376 135.325 204.798 140.209C205.886 140.709 207.035 141.063 208.216 141.261C208.311 141.746 208.395 142.235 208.464 142.73C208.432 142.743 208.401 142.761 208.374 142.782C206.531 144.577 206.073 148.046 206.073 148.046L205.851 148.225C205.098 148.846 202.523 150.93 200.195 152.535C197.43 154.445 192.822 160.845 189.599 162.756C186.375 164.666 183.721 176.44 184.416 180.719C185.111 184.998 187.987 196.998 186.834 201.376C185.68 205.755 188.561 225.739 188.561 225.739C190.494 226.107 192.386 226.668 194.207 227.413L194.149 228.287L193.975 230.918C193.975 230.918 188.756 249.781 190.752 264.302C192.748 278.823 189.83 280.318 189.83 280.318C189.83 280.318 190.441 286.754 188.909 289.002C187.376 291.249 187.065 296.186 187.065 296.186C187.065 296.186 186.913 307.265 187.218 310.396C187.523 313.528 187.676 319.233 186.602 320.58C185.527 321.927 183.531 330.754 183.684 333.448C183.837 336.143 179.845 342.285 181.994 350.217C184.142 358.148 175.674 358.301 175.674 358.301C175.674 358.301 176.753 370.406 179.055 373.869L179.392 374.364C179.334 374.564 179.276 374.774 179.213 375C178.344 378.158 177.153 383.142 177.98 384.348C179.207 386.148 179.824 385.842 179.824 385.842L180.282 393.927C180.282 393.927 189.498 401.711 196.566 401.416C203.634 401.121 202.249 393.927 202.249 393.927L196.229 378.327L196.024 377.8L202.712 365.169C202.712 365.169 204.556 359.632 205.014 357.685C205.472 355.738 207.974 348.838 207.974 348.838C207.974 348.838 214.294 333.869 214.425 332.069C214.557 330.269 215.042 320.549 216.269 318.596C217.496 316.643 220.877 305.438 220.877 305.438L220.961 305.512C221.535 306.075 221.945 306.783 222.147 307.561C222.349 308.339 222.336 309.157 222.109 309.928C221.335 312.77 221.799 318.606 221.799 318.606C221.799 318.606 221.493 323.549 220.877 326.096C220.261 328.643 220.113 349.448 221.188 354.385C222.046 358.338 222.02 365.737 221.978 368.537C221.256 371.511 220.624 375.206 221.799 375.643C223.8 376.395 233.938 376.243 233.938 376.243C233.938 376.243 238.236 374.743 244.077 379.985C249.917 385.227 267.882 378.49 267.882 378.49C267.882 378.49 273.412 376.99 262.504 372.653C254.894 369.627 249.98 367.611 246.768 365.453C246.841 365.311 246.921 365.169 246.989 365.016C246.989 365.016 242.533 360.806 246.22 353.343C249.907 345.88 249.754 339.569 249.754 339.569L250.37 314.417L248.527 281.028L247.1 245.986L247.352 245.902C247.595 252.344 248.853 267.681 255.442 264.707C263.737 260.965 256.669 251.234 256.669 251.234L252.946 243.981L254.057 243.602L249.891 230.15C249.491 227.524 249.438 224.858 249.733 222.218C249.815 220.674 249.784 219.126 249.638 217.587C255.094 216.634 260.319 215.624 261.256 215.855C262.362 216.124 268.551 216.176 270.984 216.187C270.188 216.808 269.551 217.424 269.551 217.424L279.458 224.087C279.458 224.087 282.818 222.25 283.518 220.303C284.208 220.128 284.844 219.789 285.372 219.313C285.477 221.613 286.088 224.102 288.216 224.16C288.748 224.171 289.276 224.067 289.765 223.855L305.965 220.65L304.574 229.329L305.543 231.05C305.054 238.371 304.49 246.144 303.995 252.981L303.768 254.476L303.884 254.502C303.115 265.028 302.499 273.002 302.499 273.002C303.407 271.274 304.814 269.86 306.539 268.944L306.644 284.565C306.644 284.565 307.455 309.264 307.455 312.633C307.455 316.001 307.566 323.522 307.566 323.522C307.566 323.522 309.298 332.727 310.331 335.759C311.363 338.79 312.174 352.601 312.174 352.601C312.174 352.601 314.597 356.416 313.559 357.864C312.522 359.311 317.593 362.464 317.593 362.464C317.593 362.464 314.365 366.843 314.133 369.764C314.107 370.101 314.439 370.458 315.039 370.816C314.849 370.969 314.655 371.122 314.439 371.269C312.943 372.269 310.752 372.964 307.455 372.679C298.465 371.89 292.129 380.2 297.659 381.885C303.189 383.569 319.779 383.906 319.779 383.906C319.779 383.906 324.803 380.774 328.732 382.185C328.674 385.479 328.838 388.5 328.864 388.9L328.817 388.937C326.468 391.042 321.97 394.663 317.578 396.142C311.258 398.274 309.857 406.921 318.036 408.042C326.215 409.163 338.196 406.695 338.196 406.695C338.196 406.695 344.416 402.095 349.14 401.084C353.865 400.074 357.899 397.826 357.093 395.132C356.566 393.411 355.213 388.9 354.297 385.869C354.244 385.686 354.191 385.511 354.139 385.342C354.281 385.027 354.423 384.7 354.555 384.363C354.555 384.363 352.137 371.79 354.096 368.648C356.056 365.506 355.018 334.064 355.018 334.064C355.018 334.064 351.674 326.096 353.406 321.27C355.139 316.443 350.641 309.591 350.641 309.591C350.641 309.591 351.131 295.859 352.448 288.207C352.508 287.881 352.566 287.565 352.622 287.26C354.826 286.606 356.975 285.777 359.047 284.781C359.047 284.781 360.2 267.486 360.89 263.56C360.959 263.191 361.054 262.597 361.169 261.823L361.696 259.049L362.318 255.891L364.424 245.128L368.227 240.213L378.023 230.213C378.023 230.213 380.377 224.929 379.223 214.934ZM228.156 153.182L228.082 153.235C228.071 153.197 228.062 153.158 228.055 153.119C228.086 153.144 228.12 153.166 228.156 153.182ZM324.94 165.44L324.561 166.266L325.946 164.887L324.066 166.993L324.698 165.666L324.94 165.44ZM315.587 184.756C315.223 185.719 314.834 186.761 314.428 187.845L315.171 185.629L315.587 184.756Z" fill="url(#paint0_linear)"/>
<path d="M285.362 216.244C285.362 216.244 284.071 224.829 287.942 224.939C291.813 225.05 294.399 218.318 294.399 218.318L292.819 212.934L285.362 216.244Z" fill="#585B8A"/>
<path opacity="0.2" d="M285.362 216.244C285.362 216.244 284.071 224.829 287.942 224.939C291.813 225.05 294.399 218.318 294.399 218.318L292.819 212.934L285.362 216.244Z" fill="black"/>
<path d="M198.657 402.053C191.768 402.353 182.784 394.574 182.784 394.574L182.336 386.495C182.336 386.495 181.741 386.795 180.54 385C179.734 383.795 180.893 378.8 181.741 375.658C182.152 374.121 182.489 373.027 182.489 373.027L197.604 377.069L198.325 378.979L204.192 394.568C204.192 394.568 205.541 401.753 198.657 402.053Z" fill="#636992"/>
<path d="M268.108 379.169C268.108 379.169 250.597 385.9 244.935 380.663C239.273 375.427 235.055 376.921 235.055 376.921C235.055 376.921 225.175 377.074 223.226 376.321C222.078 375.884 222.699 372.142 223.416 369.163C223.9 367.106 224.427 365.406 224.427 365.406C224.427 365.406 241.638 359.569 244.335 363.158C245.145 364.213 246.113 365.136 247.205 365.895C250.323 368.148 255.194 370.19 262.899 373.332C273.496 377.669 268.108 379.169 268.108 379.169Z" fill="#636992"/>
<path d="M252.393 242.439L257.18 252.012C257.18 252.012 264.069 261.739 255.984 265.475C247.9 269.212 248.053 243.939 248.053 243.939L252.393 242.439Z" fill="#FFD6D6"/>
<path d="M232.332 159.419C232.332 159.419 237.572 161.814 240.716 171.835C243.861 181.856 248.053 198.913 248.053 198.913C248.053 198.913 250.897 218.208 250.444 222.997C250.156 225.635 250.207 228.299 250.597 230.923L254.636 244.386L246.552 247.228L234.128 199.661L232.332 159.419Z" fill="#DCE6F2"/>
<path opacity="0.05" d="M232.332 159.419C232.332 159.419 237.572 161.814 240.716 171.835C243.861 181.856 248.053 198.913 248.053 198.913C248.053 198.913 250.897 218.208 250.444 222.997C250.156 225.635 250.207 228.299 250.597 230.923L254.636 244.386L246.552 247.228L234.128 199.661L232.332 159.419Z" fill="black"/>
<path opacity="0.1" d="M197.604 377.074L198.325 378.984L197.441 380.674C193.996 382.169 185.464 380.974 185.464 380.974C185.464 380.974 183.884 378.969 181.725 375.669C182.136 374.132 182.473 373.037 182.473 373.037L197.604 377.074Z" fill="black"/>
<path opacity="0.1" d="M247.753 366.6C243.387 376.484 228.545 372.816 224.421 371.579C223.742 371.374 223.368 371.237 223.368 371.237C223.368 371.237 223.394 370.432 223.405 369.163C223.89 367.106 224.416 365.406 224.416 365.406C224.416 365.406 241.628 359.569 244.324 363.158C245.134 364.213 246.102 365.136 247.194 365.895C247.359 366.146 247.546 366.382 247.753 366.6Z" fill="black"/>
<path d="M246.999 354.037C243.408 361.511 247.753 365.706 247.753 365.706C243.387 375.584 228.545 371.921 224.421 370.679C223.742 370.479 223.368 370.342 223.368 370.342C223.368 370.342 223.668 360.016 222.62 355.079C221.572 350.143 221.72 329.353 222.32 326.811C222.92 324.269 223.215 319.327 223.215 319.327C223.215 319.327 222.768 313.496 223.516 310.654C223.741 309.886 223.756 309.072 223.559 308.296C223.363 307.521 222.962 306.812 222.399 306.243L222.32 306.164C222.32 306.164 219.028 317.385 217.828 319.322C216.627 321.259 216.184 330.99 216.032 332.785C215.879 334.58 209.743 349.543 209.743 349.543C209.743 349.543 207.352 356.422 206.905 358.364C206.457 360.306 204.656 365.848 204.656 365.848L197.441 379.763C193.996 381.258 185.464 380.063 185.464 380.063C185.464 380.063 183.821 377.958 181.572 374.527C179.323 371.095 178.281 358.974 178.281 358.974C178.281 358.974 186.512 358.822 184.416 350.895C182.32 342.969 186.212 336.832 186.065 334.138C185.917 331.443 187.861 322.622 188.909 321.275C189.957 319.927 189.804 314.243 189.504 311.101C189.204 307.959 189.356 296.891 189.356 296.891C189.356 296.891 189.656 291.954 191.152 289.712C192.648 287.47 192.053 281.033 192.053 281.033C192.053 281.033 194.891 279.538 192.948 265.028C191.005 250.518 196.108 231.671 196.108 231.671L196.282 229.039L196.556 224.776C196.556 224.776 239.368 222.081 242.813 225.371C243.713 226.284 244.452 227.342 244.998 228.502C246.177 231.034 247.009 233.712 247.473 236.465L249.269 281.791L251.065 315.148L250.465 340.28C250.465 340.28 250.597 346.553 246.999 354.037Z" fill="#565988"/>
<path opacity="0.1" d="M234.307 264.581L229.815 361.811L224.422 370.674C223.742 370.474 223.368 370.337 223.368 370.337C223.368 370.337 223.668 360.011 222.62 355.074C221.572 350.137 221.72 329.348 222.32 326.806C222.921 324.264 223.215 319.322 223.215 319.322C223.215 319.322 222.768 313.491 223.516 310.649C223.741 309.881 223.756 309.067 223.559 308.291C223.363 307.515 222.962 306.807 222.399 306.238L222.473 305.712L234.307 264.581Z" fill="black"/>
<path opacity="0.1" d="M185.928 368.995C185.928 368.995 197.604 364.358 199.4 365.837C201.196 367.316 185.633 369.574 185.633 369.574L185.928 368.995Z" fill="black"/>
<path opacity="0.1" d="M243.56 356.727C243.113 356.88 231.737 360.937 232.785 365.253C233.833 369.569 243.56 356.727 243.56 356.727Z" fill="black"/>
<path d="M208.011 135.414C208.011 135.414 211.824 144.614 209.807 149.33C207.79 154.045 231.584 162.119 231.584 162.119C231.584 162.119 224.627 144.167 231.363 134.067C238.099 123.967 208.011 135.414 208.011 135.414Z" fill="#FFD6D6"/>
<path d="M347.334 401.753C342.731 402.763 336.669 407.363 336.669 407.363C336.669 407.363 324.993 409.831 317.019 408.71C309.046 407.589 310.399 398.947 316.572 396.816C320.854 395.342 325.241 391.705 327.532 389.621C328.543 388.69 329.143 388.042 329.143 388.042L351.489 383.553C351.489 383.553 351.853 384.8 352.358 386.521C353.254 389.558 354.576 394.063 355.081 395.779C355.866 398.5 351.937 400.742 347.334 401.753Z" fill="#505484"/>
<path d="M341.609 384.474C341.609 384.474 332.177 385.484 328.248 383.242C324.319 381 318.705 384.59 318.705 384.59C318.705 384.59 302.536 384.253 297.148 382.569C291.76 380.884 297.933 372.569 306.691 373.369C309.883 373.658 312.042 372.958 313.501 371.958C315.025 370.914 316.087 369.323 316.466 367.516L335.426 368.637L338.059 375.353L341.609 384.474Z" fill="#505484"/>
<path opacity="0.1" d="M338.349 378.416C338.349 378.416 316.314 374.816 313.501 371.958C315.025 370.914 316.087 369.323 316.466 367.516L335.426 368.637L338.059 375.353L338.349 378.416Z" fill="black"/>
<path d="M305.68 252.428L305.907 285.296C305.907 285.296 306.692 309.98 306.692 313.349C306.692 316.717 306.802 324.227 306.802 324.227C306.802 324.227 308.488 333.427 309.499 336.459C310.51 339.49 311.295 353.301 311.295 353.301C311.295 353.301 313.654 357.116 312.643 358.564C311.632 360.011 316.572 363.164 316.572 363.164C316.572 363.164 313.412 367.543 313.206 370.458C313.001 373.374 338.349 377.516 338.349 377.516L328.474 276.323L320.611 250.97L305.68 252.428Z" fill="#575988"/>
<path opacity="0.1" d="M305.68 252.428L305.907 285.296C305.907 285.296 306.692 309.98 306.692 313.349C306.692 316.717 306.802 324.227 306.802 324.227C306.802 324.227 308.488 333.427 309.499 336.459C310.51 339.49 311.295 353.301 311.295 353.301C311.295 353.301 313.654 357.116 312.643 358.564C311.632 360.011 316.572 363.164 316.572 363.164C316.572 363.164 313.412 367.543 313.206 370.458C313.001 373.374 338.349 377.516 338.349 377.516L328.474 276.323L320.611 250.97L305.68 252.428Z" fill="black"/>
<path opacity="0.1" d="M352.358 386.547C345.022 404.026 327.574 390.537 327.574 390.537C327.574 390.537 327.574 390.2 327.531 389.621C328.543 388.69 329.143 388.042 329.143 388.042L351.489 383.553C351.489 383.553 351.853 384.826 352.358 386.547Z" fill="black"/>
<path d="M352.611 385.037C345.422 403.458 327.574 389.637 327.574 389.637C327.574 389.637 327.01 380.1 328.137 375.727C329.264 371.353 326.899 358.222 326.899 358.222C326.899 358.222 325.551 346.553 324.319 343.864C323.086 341.174 323.197 335.785 323.197 335.338C323.197 334.89 323.645 331.296 322.633 328.827C321.622 326.359 321.054 320.301 321.054 320.301C321.054 320.301 321.053 311.775 320.042 306.728L316.561 289.359L310.273 253.791L312.237 253.455L347.434 247.286C347.434 247.286 354.059 280.97 351.811 284.423C351.326 285.18 350.899 286.838 350.547 288.975C349.262 296.617 348.782 310.338 348.782 310.338C348.782 310.338 353.159 317.18 351.479 322.006C349.799 326.833 353.059 334.796 353.059 334.796C353.059 334.796 354.07 366.211 352.158 369.353C350.246 372.495 352.611 385.037 352.611 385.037Z" fill="#575988"/>
<path d="M349.241 155.382C349.241 155.382 317.356 177.819 324.54 166.598C328.411 160.556 327.7 152.861 326.183 147.051C325.416 144.096 324.358 141.224 323.023 138.477C323.023 138.477 350.115 126.962 346.523 137.283C345.681 139.687 345.323 142.234 345.47 144.777C345.685 148.6 346.994 152.281 349.241 155.382Z" fill="#D28690"/>
<path d="M291.834 206.766C291.834 206.766 278.362 202.876 276.119 206.692C273.875 210.508 276.793 218.881 280.859 220.229C284.925 221.576 294.257 215.666 294.257 215.666L291.834 206.766Z" fill="#D28690"/>
<path d="M307.255 200.15L301.641 205.313C301.641 205.313 291.871 206.208 289.064 205.534C289.064 205.534 291.65 222.813 287.942 224.944L310.62 220.344L307.255 200.15Z" fill="#585B8A"/>
<path opacity="0.1" d="M307.255 200.15L301.641 205.313C301.641 205.313 291.871 206.208 289.064 205.534C289.064 205.534 291.65 222.813 287.942 224.944L310.62 220.344L307.255 200.15Z" fill="black"/>
<path opacity="0.1" d="M235.176 125.988C235.176 130.454 233.4 134.738 230.24 137.897C227.079 141.055 222.792 142.83 218.323 142.83C209.675 138.677 201.469 135.298 201.469 125.988C201.38 123.722 201.749 121.461 202.555 119.341C203.361 117.221 204.587 115.286 206.159 113.651C207.732 112.016 209.619 110.715 211.707 109.827C213.794 108.938 216.04 108.48 218.31 108.48C220.579 108.48 222.825 108.938 224.913 109.827C227 110.715 228.887 112.016 230.46 113.651C232.032 115.286 233.258 117.221 234.064 119.341C234.87 121.461 235.239 123.722 235.15 125.988H235.176Z" fill="black"/>
<path d="M235.176 125.535C235.179 129.496 233.781 133.33 231.231 136.362C228.681 139.394 225.141 141.429 221.236 142.108C217.331 142.786 213.312 142.065 209.887 140.071C206.462 138.078 203.852 134.939 202.517 131.21C201.181 127.481 201.206 123.4 202.587 119.688C203.969 115.975 206.617 112.869 210.066 110.918C213.515 108.966 217.543 108.294 221.439 109.021C225.336 109.747 228.85 111.825 231.363 114.888C233.824 117.892 235.171 121.653 235.176 125.535Z" fill="#FFD6D6"/>
<path opacity="0.1" d="M244.998 228.518C243.331 229.553 241.586 230.457 239.779 231.223C239.779 231.223 231.247 229.986 230.015 231.444C228.782 232.902 217.901 233.465 217.901 233.465C217.901 233.465 201.285 232.681 198.815 230.55C198.051 229.932 197.201 229.428 196.292 229.055L196.566 224.792C196.566 224.792 239.379 222.097 242.823 225.387C243.72 226.3 244.455 227.359 244.998 228.518Z" fill="black"/>
<path d="M247.079 225.502C246.742 227.408 239.779 230.323 239.779 230.323C239.779 230.323 231.247 229.092 230.015 230.55C228.782 232.007 217.901 232.571 217.901 232.571C217.901 232.571 201.285 231.781 198.815 229.65C196.345 227.518 190.842 226.492 190.842 226.492C190.842 226.492 188.034 206.524 189.161 202.15C190.289 197.776 187.476 185.766 186.802 181.503C186.128 177.24 188.709 165.461 191.853 163.556C194.997 161.65 199.489 155.251 202.181 153.345C204.45 151.74 206.957 149.661 207.689 149.035L207.905 148.856C207.905 148.856 208.358 145.377 210.154 143.593C211.95 141.809 228.451 154.924 228.451 154.924C228.451 154.924 228.566 155.935 229.688 154.03C229.941 153.603 232.116 156.74 232.495 158.066C232.495 158.066 241.475 173.777 242.038 177.013C242.602 180.25 244.956 190.813 245.404 193.392C245.52 194.055 245.709 196.382 245.93 199.497C245.973 200.108 246.009 200.755 246.057 201.429C246.389 206.597 246.747 213.197 246.963 218.187C246.963 218.755 247.01 219.302 247.026 219.829C247.14 221.718 247.157 223.611 247.079 225.502Z" fill="#DCE6F2"/>
<path opacity="0.1" d="M190.067 184.998C190.067 184.998 196.24 192.513 198.262 192.513C200.284 192.513 190.067 184.998 190.067 184.998Z" fill="black"/>
<path opacity="0.1" d="M203.071 201.155C203.071 201.155 192.964 212.15 194.312 214.171C195.661 216.192 203.071 201.155 203.071 201.155Z" fill="black"/>
<path opacity="0.1" d="M195.66 223.034C195.66 223.034 207.247 210.355 207.774 205.981L195.66 223.034Z" fill="black"/>
<path opacity="0.1" d="M210.254 223.929C210.254 223.929 223.616 216.86 224.738 211.25C225.859 205.639 210.254 223.929 210.254 223.929Z" fill="black"/>
<path opacity="0.1" d="M227.208 155.719L225.354 160.203L228.44 161.661L231.474 170.135C231.474 170.135 239.837 186.85 239.5 195.545C239.163 204.239 241.017 217.308 241.017 217.308L245.841 216.413L243.566 190.84C243.211 186.88 242.219 183.004 240.627 179.361C236.772 170.54 229.599 154.256 229.146 154.256C228.53 154.256 228.961 154.482 228.961 154.482L227.208 155.719Z" fill="black"/>
<path d="M227.655 155.266L225.801 159.756L228.893 161.214L231.921 169.687C231.921 169.687 240.285 186.403 239.948 195.097C239.61 203.792 241.464 216.86 241.464 216.86L246.294 215.966L244.013 190.392C243.663 186.433 242.673 182.556 241.08 178.913C237.225 170.087 230.052 153.808 229.604 153.808C228.982 153.808 229.414 154.035 229.414 154.035L227.655 155.266Z" fill="#575989"/>
<path d="M282.328 221.202C279.979 221.023 274.344 218.176 272.106 216.992L271.158 216.465L271.273 207.776C271.827 207.451 272.4 207.161 272.99 206.908C275.982 205.602 282.117 203.829 285.193 209.539C289.343 217.197 285.304 221.402 282.328 221.202Z" fill="#FFD6D6"/>
<path opacity="0.1" d="M231.363 114.888C231.122 115.039 230.856 115.148 230.578 115.209C228.624 115.635 226.402 113.957 224.727 115.035C223.705 115.699 223.468 117.072 223.331 118.283C223.093 120.388 222.854 122.479 222.615 124.556C222.565 125.296 222.409 126.024 222.152 126.72C221.325 128.609 219.055 129.498 216.985 129.467C216.174 129.525 215.374 129.26 214.757 128.73C214.394 128.362 214.199 127.846 213.799 127.509C211.165 125.304 210.365 130.709 211.06 132.246C212.177 134.756 216.142 137.177 214.478 140.367C214.198 140.885 213.774 141.311 213.256 141.593C210.748 140.808 208.459 139.448 206.571 137.621C204.682 135.794 203.248 133.552 202.382 131.072C201.515 128.593 201.241 125.945 201.582 123.341C201.922 120.736 202.867 118.248 204.341 116.074C205.815 113.899 207.778 112.1 210.072 110.819C212.366 109.538 214.928 108.81 217.554 108.695C220.179 108.58 222.796 109.08 225.193 110.155C227.591 111.231 229.704 112.851 231.363 114.888Z" fill="black"/>
<path d="M213.351 127.488C213.746 127.819 213.946 128.335 214.309 128.704C214.926 129.233 215.726 129.498 216.537 129.44C218.607 129.472 220.877 128.588 221.698 126.688C221.96 125.996 222.118 125.268 222.167 124.53L222.883 118.256C223.02 117.046 223.252 115.672 224.279 115.009C225.954 113.956 228.176 115.609 230.13 115.183C230.835 115.004 231.444 114.564 231.836 113.952C232.227 113.34 232.37 112.602 232.237 111.888C232.011 110.883 231.242 110.088 230.847 109.13C230.607 108.394 230.415 107.644 230.273 106.883C229.182 102.799 224.384 100.504 220.213 101.188C217.896 101.572 215.742 102.678 213.419 103.015C211.755 103.257 210.054 103.099 208.374 103.278C206.813 103.439 205.295 103.886 203.897 104.599C203.53 104.761 203.206 105.006 202.949 105.314C202.711 105.731 202.55 106.188 202.475 106.662C201.912 108.767 200.1 110.32 198.789 112.093C197.289 114.134 196.421 116.57 196.292 119.098C196.241 119.744 196.301 120.394 196.471 121.02C196.582 121.388 196.756 121.746 196.84 122.125C197.098 123.277 196.508 124.43 196.219 125.577C195.859 127.041 195.988 128.583 196.587 129.967C198.61 134.614 205.272 136.167 206.657 141.046C207.887 141.635 209.215 141.992 210.575 142.098C211.934 142.125 213.398 141.54 214.03 140.335C215.689 137.177 211.729 134.725 210.612 132.219C209.912 130.677 210.697 125.277 213.351 127.488Z" fill="#353045"/>
<path opacity="0.1" d="M346.549 137.283C345.708 139.687 345.35 142.234 345.496 144.777C344.685 145.467 343.8 143.404 342.863 143.935C340.293 145.419 337.322 148.951 334.141 148.951C331.382 148.953 328.663 148.302 326.204 147.051C325.437 144.096 324.379 141.224 323.044 138.477C323.044 138.477 350.141 126.962 346.549 137.283Z" fill="black"/>
<path d="M351.637 130.551C351.637 134.013 350.61 137.398 348.685 140.276C346.76 143.155 344.024 145.399 340.823 146.723C337.623 148.048 334.101 148.395 330.703 147.72C327.305 147.044 324.184 145.377 321.734 142.929C319.284 140.481 317.616 137.362 316.94 133.966C316.264 130.57 316.611 127.051 317.937 123.852C319.262 120.653 321.508 117.92 324.388 115.996C327.269 114.073 330.656 113.046 334.12 113.046C336.421 113.045 338.699 113.498 340.824 114.377C342.95 115.256 344.881 116.546 346.508 118.171C348.135 119.797 349.425 121.727 350.305 123.851C351.185 125.975 351.638 128.252 351.637 130.551Z" fill="#D28690"/>
<path d="M350.889 159.272C350.889 159.272 347.592 162.861 347.145 163.156C346.697 163.451 337.138 203.682 336.969 204.15C336.801 204.618 325.588 240.944 325.588 240.944L307.624 249.77L309.125 205.339L322.291 168.698C322.291 168.698 326.636 163.761 327.979 161.966C329.322 160.172 346.091 149.398 346.091 149.398L348.956 155.298L350.889 159.272Z" fill="#F0F3F7"/>
<path opacity="0.1" d="M348.514 156.198L327.858 170.977L327.526 162.861C328.875 161.066 345.638 150.298 345.638 150.298L348.514 156.198Z" fill="black"/>
<path d="M348.961 155.298L328.306 170.077L327.984 161.966C329.333 160.166 346.096 149.398 346.096 149.398L348.961 155.298Z" fill="#F0F3F7"/>
<path d="M327.294 158.356L327.984 161.966L323.365 166.656L327.052 158.408C327.052 158.408 319.152 163.908 316.782 165.366C314.412 166.824 312.042 171.761 311.953 173.108C311.863 174.456 308.134 194.761 308.134 194.761C308.134 194.761 305.327 202.276 306.117 204.408C306.907 206.539 301.851 273.744 301.851 273.744C302.527 272.439 303.483 271.298 304.65 270.404C305.817 269.51 307.166 268.884 308.603 268.57L306.802 228.855C306.802 228.855 308.993 202.434 309.103 202.097C309.214 201.761 314.212 186.445 314.212 186.445L327.294 158.356Z" fill="#585B8A"/>
<path opacity="0.1" d="M328.437 162.414L328.079 169.782C328.079 169.782 323.081 185.545 321.401 188.124C319.721 190.703 314.607 206.076 314.607 206.076L311.726 232.781L306.786 235.029L304.353 230.55L308.398 204.761C308.398 204.761 316.029 182.998 317.156 180.75L322.786 168.898L328.437 162.414Z" fill="black"/>
<path d="M327.984 161.966L327.632 169.335C327.632 169.335 322.634 185.098 320.948 187.676C319.263 190.255 314.16 205.629 314.16 205.629L311.295 232.329L306.354 234.571L303.884 230.086L307.929 204.297C307.929 204.297 315.561 182.529 316.682 180.287L322.354 168.45L327.984 161.966Z" fill="#663D5C"/>
<path d="M269.757 218.208L279.41 224.886C279.41 224.886 286.22 221.071 282.254 218.602C278.289 216.134 274.77 215.76 273.496 215.76C272.221 215.76 269.757 218.208 269.757 218.208Z" fill="#D28690"/>
<path d="M276.967 205.86C276.751 205.994 276.574 206.181 276.451 206.403C276.328 206.625 276.265 206.875 276.266 207.129C276.266 209.176 276.498 214.597 278.215 212.15C280.321 209.155 279.937 206.466 283.155 208.408C285.155 209.652 286.905 211.259 288.316 213.144L287.421 206.713C287.421 206.713 280.806 203.45 276.967 205.86Z" fill="#D28690"/>
<path opacity="0.1" d="M351.821 284.401C351.337 285.159 350.91 286.817 350.557 288.954C330.87 294.854 316.466 282.38 316.466 282.38C314.724 276.479 313.299 270.488 312.2 264.433C311.847 262.36 311.926 258.339 312.253 253.433L347.45 247.265C347.45 247.265 354.07 280.922 351.821 284.401Z" fill="black"/>
<path d="M372.029 183.987C371.134 186.908 371.471 192.85 371.471 192.85L363.387 230.997C363.387 230.997 359.458 260.391 358.784 264.317C358.109 268.244 356.988 285.523 356.988 285.523C334.083 296.743 316.435 281.486 316.435 281.486C314.692 275.582 313.268 269.589 312.169 263.533C311.042 256.87 314.36 230.176 315.929 218.318C316.398 214.808 316.714 212.597 316.714 212.597L322.607 190.718C322.607 190.718 329.849 172.261 332.545 166.877C335.242 161.493 346.07 149.398 346.07 149.398C347.413 148.545 349.562 151.556 351.158 154.298C352.364 156.372 353.264 158.298 353.264 158.298C353.264 158.298 366.736 164.129 368.753 167.245C370.77 170.361 370.439 176.782 370.665 177.119C370.892 177.455 372.93 181.071 372.029 183.987Z" fill="#585B8A"/>
<path opacity="0.1" d="M340.261 170.414C340.261 170.414 341.272 176.361 338.681 178.156C336.179 179.892 317.557 216.487 316.398 218.771C316.867 215.255 317.183 213.045 317.183 213.045L323.076 191.171C323.076 191.171 330.323 172.714 333.014 167.324C335.705 161.935 346.544 149.845 346.544 149.845C347.887 148.993 350.031 152.003 351.626 154.745C349.22 159.74 344.2 169.182 340.261 170.414Z" fill="black"/>
<path d="M339.813 169.966C339.813 169.966 340.819 175.913 338.233 177.708C335.647 179.503 317.114 216.034 315.94 218.318C316.408 214.808 316.724 212.597 316.724 212.597L322.618 190.718C322.618 190.718 329.859 172.261 332.556 166.877C335.252 161.493 346.08 149.398 346.08 149.398C347.423 148.545 349.572 151.556 351.168 154.298C348.772 159.287 343.747 168.735 339.813 169.966Z" fill="#585B8A"/>
<path d="M366.531 223.708L360.195 256.649V256.655L359.59 259.807V259.812L358.225 266.902L352.406 265.67L349.694 265.097L312.158 257.149L309.399 256.565L303.1 255.233L304.332 247.055L304.843 243.655L309.388 213.497L366.531 223.708Z" fill="#6C63FF"/>
<path d="M331.503 250.634C331.503 250.634 316.572 256.018 319.827 262.412C323.081 268.807 343.964 257.476 343.964 257.476L331.503 250.634Z" fill="#D28690"/>
<path opacity="0.1" d="M342.167 296.517C342.167 296.964 342.731 302.691 344.974 304.706C347.218 306.722 342.167 296.517 342.167 296.517Z" fill="black"/>
<path opacity="0.1" d="M327.126 316.822C327.126 316.822 329.817 324.227 340.482 327.259C351.147 330.29 327.126 316.822 327.126 316.822Z" fill="black"/>
<path opacity="0.1" d="M351.637 130.551C351.638 133.628 350.826 136.651 349.285 139.315C347.744 141.979 345.526 144.19 342.857 145.724C341.851 145.162 340.958 144.418 340.224 143.53C339.46 142.603 338.865 141.34 339.323 140.235C339.692 139.346 340.666 138.782 340.903 137.861C341.015 137.298 340.986 136.716 340.819 136.167C340.624 135.298 340.44 134.43 340.25 133.567C340.087 132.83 339.797 131.962 339.065 131.783C338.333 131.604 337.722 132.214 337.148 132.667C335.742 133.777 333.046 134.53 331.355 133.619C329.664 132.709 330.138 129.662 329.864 128.014C329.861 127.871 329.826 127.73 329.763 127.602C329.699 127.474 329.608 127.361 329.496 127.272C329.25 127.191 328.987 127.172 328.732 127.219C327.821 127.219 327.089 126.404 326.826 125.53C326.639 124.638 326.537 123.731 326.52 122.82C326.42 121.909 326.088 120.946 325.309 120.477C324.686 120.188 323.996 120.075 323.313 120.151L320.011 120.188C322.201 117.228 325.27 115.034 328.78 113.917C332.29 112.801 336.063 112.818 339.563 113.968C343.063 115.117 346.111 117.34 348.273 120.32C350.436 123.3 351.604 126.886 351.61 130.567L351.637 130.551Z" fill="black"/>
<path d="M337.617 132.667C338.191 132.214 338.823 131.614 339.534 131.788C340.245 131.961 340.551 132.84 340.714 133.567L341.283 136.161C341.451 136.712 341.482 137.296 341.372 137.861C341.104 138.788 340.135 139.346 339.761 140.235C339.303 141.34 339.903 142.603 340.661 143.524C342.045 145.19 343.957 146.333 346.081 146.761C346.635 146.894 347.212 146.907 347.771 146.798C349.025 146.509 349.878 145.356 350.552 144.277C354.033 138.856 357.03 132.914 357.641 126.504C357.809 125.196 357.748 123.869 357.462 122.583C357.177 121.582 356.773 120.62 356.261 119.714C355.365 117.865 354.226 116.142 352.875 114.593C350.478 112.014 347.171 110.43 343.774 109.493C339.953 108.434 335.964 108.121 332.024 108.572C330.971 108.693 329.96 108.867 328.922 108.935C327.619 108.996 326.314 108.975 325.014 108.872L317.262 108.409C316.819 109.309 317.262 110.377 317.788 111.22C318.315 112.062 318.968 112.935 318.926 113.935C318.884 114.935 318.173 115.725 317.625 116.567C317.077 117.409 316.661 118.498 317.209 119.319C317.757 120.141 318.873 120.193 319.842 120.183L323.75 120.141C324.431 120.071 325.118 120.189 325.736 120.483C326.515 120.951 326.847 121.919 326.947 122.825C326.969 123.735 327.071 124.642 327.253 125.535C327.521 126.409 328.248 127.235 329.159 127.225C329.414 127.174 329.678 127.194 329.923 127.283C330.035 127.371 330.126 127.482 330.189 127.61C330.253 127.737 330.288 127.877 330.291 128.019C330.565 129.667 330.06 132.709 331.782 133.625C333.504 134.54 336.211 133.777 337.617 132.667Z" fill="#663D5C"/>
<path opacity="0.1" d="M359.879 167.24C357.943 167.034 355.994 167.493 354.353 168.54C352.712 169.587 351.475 171.161 350.847 173.003C348.74 178.998 345.228 189.813 346.107 194.087C347.345 200.145 348.804 210.245 348.804 210.245C348.804 210.245 355.203 213.929 351.964 217.645C348.725 221.36 347.808 226.623 347.808 226.623C347.808 226.623 343.653 228.418 342.757 232.234C341.862 236.05 335.795 241.318 335.795 241.318L326.705 250.407C326.705 250.407 341.746 265.67 344.78 266.449L354.097 255.565L365.099 240.981L374.642 230.981C374.642 230.981 376.885 225.718 375.763 215.718C374.642 205.718 370.26 196.198 370.26 196.198L370.597 192.829C370.597 192.829 371.629 168.698 359.879 167.24Z" fill="black"/>
<path d="M360.774 167.24C358.84 167.037 356.893 167.496 355.254 168.543C353.615 169.591 352.381 171.163 351.753 173.003C349.646 178.998 346.133 189.813 347.013 194.087C348.245 200.145 349.704 210.244 349.704 210.244C349.704 210.244 356.103 213.929 352.864 217.644C349.625 221.36 348.714 226.623 348.714 226.623C348.714 226.623 344.558 228.418 343.658 232.234C342.757 236.049 336.701 241.318 336.701 241.318L327.605 250.407C327.605 250.407 342.647 265.67 345.68 266.449L354.997 255.565L365.973 240.981L375.516 230.981C375.516 230.981 377.765 225.718 376.638 215.718C375.51 205.718 371.139 196.197 371.139 196.197L371.476 192.829C371.476 192.829 372.524 168.698 360.774 167.24Z" fill="#585B8A"/>
<path opacity="0.1" d="M351.374 201.382C351.374 201.382 360.917 213.045 364.961 210.466C369.006 207.887 351.374 201.382 351.374 201.382Z" fill="black"/>
<path opacity="0.1" d="M354.965 192.403C355.977 192.74 364.287 204.297 368.553 202.929C372.819 201.56 354.965 192.403 354.965 192.403Z" fill="black"/>
<path opacity="0.1" d="M357.325 212.255C357.325 212.255 357.888 218.876 364.735 217.976C371.582 217.076 357.325 212.255 357.325 212.255Z" fill="black"/>
<path opacity="0.1" d="M327.068 158.856L323.366 167.103L327.99 162.414L327.068 158.856Z" fill="black"/>
<path d="M327.068 158.408L323.366 166.656L327.99 161.966L327.068 158.408Z" fill="#F0F3F7"/>
<path opacity="0.3" d="M312.158 257.149L309.399 256.565L304.332 247.055L304.843 243.655L312.158 257.149Z" fill="black"/>
<path opacity="0.3" d="M360.195 256.655L359.59 259.807V259.812L352.406 265.67L349.693 265.097L360.195 256.655Z" fill="black"/>
<path opacity="0.1" d="M247.01 219.85C245.62 220.081 244.271 220.292 243.039 220.45C236.192 221.35 219.908 213.271 219.908 213.271C219.908 213.271 200.037 196.666 194.312 180.961C188.587 165.256 201.159 162.898 201.159 162.898C205.899 160.203 216.206 167.719 217.664 168.956C219.123 170.193 220.361 173.329 220.245 175.35C220.129 177.371 223.616 179.95 223.616 179.95C223.616 179.95 229.567 190.271 231.026 191.392C232.485 192.513 232.822 193.524 233.269 195.434C233.717 197.345 237.646 198.913 239.331 198.797C241.017 198.682 243.018 199.361 243.018 200.255C243.018 200.976 244.666 201.334 246.02 201.45C246.42 207.203 246.815 214.739 247.01 219.85Z" fill="black"/>
<path opacity="0.1" d="M246.947 218.208C245.893 218.376 244.882 218.529 243.934 218.655C237.088 219.555 220.808 211.476 220.808 211.476C220.808 211.476 200.937 194.871 195.213 179.166C189.488 163.461 202.059 161.103 202.059 161.103C206.799 158.409 217.101 165.924 218.56 167.161C220.018 168.398 221.256 171.535 221.146 173.556C221.035 175.577 224.511 178.156 224.511 178.156C224.511 178.156 230.462 188.477 231.921 189.598C233.38 190.719 233.717 191.729 234.17 193.64C234.623 195.55 238.546 197.113 240.232 197.003C241.917 196.892 243.918 197.566 243.918 198.461C243.918 198.987 244.856 199.34 245.899 199.513C245.941 200.124 245.978 200.771 246.025 201.445C246.373 206.618 246.731 213.218 246.947 218.208Z" fill="black"/>
<path opacity="0.1" d="M272.99 206.908L272.564 216.992H272.106L271.158 216.466L271.273 207.776C271.827 207.451 272.4 207.161 272.99 206.908Z" fill="black"/>
<path d="M201.159 161.998C201.159 161.998 188.587 164.356 194.312 180.061C200.037 195.766 219.908 212.376 219.908 212.376C219.908 212.376 236.187 220.45 243.039 219.555C249.891 218.66 260.324 216.302 261.672 216.639C263.021 216.976 272.116 216.976 272.116 216.976L272.564 206.45L262.03 205.887L256.643 204.766C256.643 204.766 254.731 203.187 253.609 203.418C252.487 203.65 250.133 202.071 250.133 202.071C250.133 202.071 248.332 200.613 246.973 200.613C245.614 200.613 243.044 200.276 243.044 199.382C243.044 198.487 241.022 197.803 239.358 197.924C237.693 198.045 233.717 196.466 233.254 194.534C232.79 192.603 232.469 191.619 231.01 190.498C229.551 189.376 223.6 179.05 223.6 179.05C223.6 179.05 220.119 176.471 220.229 174.456C220.34 172.44 219.107 169.293 217.649 168.056C216.19 166.819 205.867 159.308 201.159 161.998Z" fill="#DCE6F2"/>
<path opacity="0.1" d="M233.496 198.124C233.496 198.124 228.666 202.95 229.899 203.845L233.496 198.124Z" fill="black"/>
<path opacity="0.1" d="M238.657 201.94C238.657 201.94 232.369 206.766 234.054 207.103C235.74 207.439 238.657 201.94 238.657 201.94Z" fill="black"/>
<path opacity="0.1" d="M227.987 209.097C228.888 209.55 242.244 217.518 247.3 217.402L227.987 209.097Z" fill="black"/>
<path opacity="0.1" d="M228.893 155.829C228.893 155.829 226.533 163.571 225.633 163.571C224.927 163.571 213.077 153.982 208.132 149.951L208.348 149.772C208.348 149.772 208.795 146.293 210.591 144.508C212.387 142.724 228.893 155.829 228.893 155.829Z" fill="black"/>
<path d="M228.44 154.929C228.44 154.929 226.086 162.672 225.185 162.672C224.474 162.672 212.624 153.082 207.679 149.051L207.895 148.872C207.895 148.872 208.348 145.393 210.144 143.609C211.94 141.824 228.44 154.929 228.44 154.929Z" fill="#DCE6F2"/>
<g opacity="0.15">
<path opacity="0.15" d="M196.645 129.909C198.225 133.514 202.575 135.262 205.098 138.135C203.597 134.604 199.21 132.872 196.645 129.909Z" fill="black"/>
<path opacity="0.15" d="M212.745 138.214C212.119 139.419 210.639 140.004 209.29 139.977C208.092 139.891 206.918 139.592 205.825 139.093C206.222 139.677 206.524 140.32 206.72 140.998C207.95 141.589 209.279 141.946 210.639 142.051C212.003 142.082 213.467 141.498 214.094 140.288C215.099 138.367 214.051 136.725 212.824 135.172C213.053 135.649 213.165 136.174 213.151 136.703C213.138 137.231 212.998 137.749 212.745 138.214Z" fill="black"/>
<path opacity="0.15" d="M232.29 111.835C232.063 110.825 231.294 110.03 230.899 109.077C230.657 108.34 230.466 107.588 230.325 106.825C230.026 105.746 229.471 104.755 228.708 103.935C228.814 104.194 228.904 104.46 228.977 104.73C229.125 105.496 229.322 106.252 229.567 106.993C229.962 107.946 230.731 108.741 230.957 109.751C231.091 110.465 230.947 111.203 230.556 111.815C230.165 112.427 229.555 112.867 228.851 113.046C226.902 113.472 224.679 111.788 223.005 112.872C221.978 113.53 221.741 114.904 221.604 116.114C221.369 118.219 221.13 120.312 220.887 122.393C220.84 123.131 220.684 123.858 220.424 124.551C219.597 126.446 217.327 127.335 215.257 127.304C214.449 127.358 213.651 127.093 213.035 126.567C212.736 126.143 212.414 125.735 212.071 125.346C209.438 123.135 208.637 128.54 209.333 130.082C209.681 130.776 210.112 131.425 210.618 132.014C210.038 130.277 210.849 125.277 213.419 127.419C213.762 127.808 214.082 128.215 214.378 128.64C214.996 129.166 215.796 129.43 216.606 129.377C218.676 129.409 220.945 128.519 221.772 126.625C222.033 125.93 222.189 125.201 222.236 124.461C222.474 122.356 222.713 120.265 222.952 118.188C223.089 116.977 223.326 115.604 224.348 114.946C226.028 113.862 228.25 115.546 230.199 115.114C230.898 114.933 231.502 114.494 231.89 113.886C232.278 113.277 232.421 112.545 232.29 111.835Z" fill="black"/>
</g>
<path opacity="0.1" d="M348.893 145.456C348.333 145.56 347.757 145.546 347.202 145.414C345.082 144.986 343.171 143.845 341.788 142.182C341.025 141.256 340.424 139.993 340.888 138.888C341.256 137.998 342.225 137.44 342.468 136.514C342.577 135.949 342.547 135.365 342.378 134.814L341.809 132.219C341.646 131.482 341.362 130.614 340.63 130.44C339.898 130.267 339.287 130.867 338.713 131.319C337.306 132.43 334.605 133.188 332.919 132.272C331.234 131.356 331.703 128.314 331.429 126.667C331.424 126.525 331.389 126.385 331.325 126.258C331.262 126.131 331.171 126.019 331.06 125.93C330.813 125.844 330.548 125.824 330.291 125.872C329.38 125.872 328.653 125.056 328.385 124.183C328.202 123.29 328.102 122.383 328.085 121.472C327.979 120.567 327.653 119.598 326.868 119.13C326.249 118.839 325.563 118.721 324.882 118.788L320.975 118.83C320.011 118.83 318.868 118.767 318.341 117.967C317.815 117.167 318.204 116.03 318.757 115.214C319.31 114.399 320.011 113.588 320.058 112.583C320.106 111.577 319.453 110.709 318.921 109.867C318.616 109.406 318.391 108.897 318.257 108.362L317.135 108.293C316.698 109.188 317.135 110.256 317.662 111.104C318.189 111.951 318.847 112.82 318.799 113.814C318.752 114.809 318.052 115.609 317.499 116.446C316.946 117.283 316.54 118.377 317.088 119.198C317.636 120.019 318.747 120.077 319.721 120.067L323.629 120.019C324.31 119.954 324.996 120.074 325.614 120.367C326.399 120.835 326.731 121.804 326.831 122.709C326.848 123.62 326.95 124.527 327.137 125.419C327.4 126.288 328.132 127.119 329.043 127.104C329.298 127.058 329.561 127.078 329.807 127.162C329.918 127.251 330.009 127.364 330.073 127.492C330.136 127.62 330.171 127.761 330.175 127.904C330.449 129.546 329.944 132.593 331.666 133.509C333.388 134.425 336.074 133.667 337.459 132.556C338.033 132.104 338.67 131.504 339.381 131.672C340.092 131.84 340.398 132.725 340.556 133.451L341.13 136.051C341.297 136.602 341.326 137.186 341.214 137.751C340.951 138.672 339.977 139.235 339.608 140.119C339.15 141.224 339.745 142.493 340.509 143.414C341.901 145.084 343.825 146.225 345.959 146.645C346.514 146.778 347.09 146.792 347.65 146.688C348.555 146.412 349.332 145.822 349.841 145.024C349.553 145.224 349.232 145.37 348.893 145.456Z" fill="black"/>
<path opacity="0.1" d="M107.276 377.895C114.306 377.895 120.005 377.021 120.005 375.942C120.005 374.864 114.306 373.99 107.276 373.99C100.246 373.99 94.5465 374.864 94.5465 375.942C94.5465 377.021 100.246 377.895 107.276 377.895Z" fill="#6C63FF"/>
<path opacity="0.1" d="M551.737 327.127C558.768 327.127 564.467 326.253 564.467 325.175C564.467 324.096 558.768 323.222 551.737 323.222C544.707 323.222 539.008 324.096 539.008 325.175C539.008 326.253 544.707 327.127 551.737 327.127Z" fill="#6C63FF"/>
<path opacity="0.1" d="M421.962 409.51C442.323 409.51 458.828 406.98 458.828 403.858C458.828 400.736 442.323 398.205 421.962 398.205C401.601 398.205 385.096 400.736 385.096 403.858C385.096 406.98 401.601 409.51 421.962 409.51Z" fill="#6C63FF"/>
<path opacity="0.1" d="M526.763 384.321C542.644 384.321 555.519 382.347 555.519 379.911C555.519 377.475 542.644 375.5 526.763 375.5C510.881 375.5 498.007 377.475 498.007 379.911C498.007 382.347 510.881 384.321 526.763 384.321Z" fill="#6C63FF"/>
<path opacity="0.1" d="M522.028 431.336C548.96 431.336 570.792 427.988 570.792 423.858C570.792 419.727 548.96 416.379 522.028 416.379C495.097 416.379 473.264 419.727 473.264 423.858C473.264 427.988 495.097 431.336 522.028 431.336Z" fill="#6C63FF"/>
<path opacity="0.1" d="M52.7927 436.089C73.1534 436.089 89.6591 433.558 89.6591 430.436C89.6591 427.314 73.1534 424.784 52.7927 424.784C32.4319 424.784 15.9263 427.314 15.9263 430.436C15.9263 433.558 32.4319 436.089 52.7927 436.089Z" fill="#6C63FF"/>
<path d="M107.855 313.754C107.855 313.754 109.298 315.638 107.191 318.49C105.085 321.343 103.347 323.754 104.032 325.511C104.032 325.511 107.191 320.248 109.825 320.154C112.458 320.059 110.704 316.933 107.855 313.754Z" fill="#6C63FF"/>
<path opacity="0.1" d="M107.855 313.754C107.984 313.933 108.084 314.132 108.15 314.343C110.678 317.312 112.021 320.075 109.593 320.133C107.334 320.196 104.622 324.238 103.974 325.259C103.994 325.337 104.018 325.415 104.048 325.49C104.048 325.49 107.208 320.227 109.841 320.133C112.474 320.038 110.705 316.933 107.855 313.754Z" fill="black"/>
<path d="M110.541 316.154C110.541 316.817 110.462 317.354 110.373 317.354C110.283 317.354 110.204 316.827 110.204 316.154C110.204 315.48 110.299 315.806 110.389 315.806C110.478 315.806 110.541 315.49 110.541 316.154Z" fill="#FFD037"/>
<path d="M111.458 316.948C110.878 317.264 110.367 317.475 110.325 317.375C110.283 317.275 110.715 316.975 111.3 316.654C111.884 316.333 111.653 316.569 111.695 316.654C111.737 316.738 112.042 316.627 111.458 316.948Z" fill="#FFD037"/>
<path d="M100.24 313.754C100.24 313.754 98.7966 315.638 100.903 318.49C103.01 321.343 104.753 323.754 104.063 325.511C104.063 325.511 100.903 320.248 98.2962 320.154C95.6892 320.059 97.3746 316.933 100.24 313.754Z" fill="#6C63FF"/>
<path opacity="0.1" d="M100.24 313.754C100.114 313.935 100.015 314.134 99.9448 314.343C97.4168 317.312 96.0738 320.075 98.5017 320.133C100.761 320.196 103.473 324.238 104.126 325.259C104.105 325.338 104.078 325.415 104.047 325.49C104.047 325.49 100.887 320.227 98.2805 320.133C95.6735 320.038 97.3746 316.933 100.24 313.754Z" fill="black"/>
<path d="M97.5591 316.154C97.5591 316.817 97.6328 317.354 97.7223 317.354C97.8119 317.354 97.8909 316.827 97.8909 316.154C97.8909 315.48 97.7961 315.806 97.7065 315.806C97.617 315.806 97.5591 315.49 97.5591 316.154Z" fill="#FFD037"/>
<path d="M96.6373 316.948C97.2219 317.264 97.7275 317.475 97.7749 317.375C97.8223 317.275 97.3799 316.975 96.7953 316.654C96.2107 316.333 96.4424 316.569 96.4003 316.654C96.3581 316.738 96.0527 316.627 96.6373 316.948Z" fill="#FFD037"/>
<path opacity="0.1" d="M104.048 339.922C112.375 339.922 119.126 338.887 119.126 337.611C119.126 336.335 112.375 335.301 104.048 335.301C95.72 335.301 88.9692 336.335 88.9692 337.611C88.9692 338.887 95.72 339.922 104.048 339.922Z" fill="#6C63FF"/>
<path d="M111.81 322.964L111.737 323.554L111.637 324.385L111.595 324.733L111.494 325.564L111.447 325.911L111.347 326.743L110.194 336.217C110.094 337.059 108.714 337.717 107.034 337.717H101.061C99.397 337.717 98.0171 337.059 97.9013 336.217L96.7479 326.743L96.6478 325.911L96.6057 325.564L96.5003 324.733L96.4582 324.385L96.3581 323.554L96.2844 322.964C96.2265 322.485 96.9743 322.085 97.9171 322.085H110.183C111.121 322.085 111.868 322.485 111.81 322.964Z" fill="#65617D"/>
<path d="M111.737 323.553L111.637 324.385H96.4583L96.3583 323.553H111.737Z" fill="#9D9CB5"/>
<path d="M111.595 324.732L111.494 325.564H96.6057L96.5004 324.732H111.595Z" fill="#9D9CB5"/>
<path d="M111.452 325.911L111.347 326.743H96.7479L96.6478 325.911H111.452Z" fill="#9D9CB5"/>
<path d="M541.704 306.464C541.704 306.464 539.903 314.843 547.914 315.833L548.409 314.901C548.409 314.901 542.199 309.064 541.704 306.464Z" fill="#6C63FF"/>
<path d="M550.958 314.833L549.093 315.228L548.909 315.27C548.909 315.27 543.937 311.238 544.001 302.238C544.665 303.565 545.461 304.822 546.376 305.991C548.346 308.596 550.584 312.07 550.958 314.833Z" fill="#6C63FF"/>
<path d="M551.584 315.696C551.438 315.791 551.272 315.852 551.099 315.875C550.926 315.898 550.75 315.882 550.584 315.827C545.802 314.712 547.424 299.138 547.424 299.138C547.687 299.259 547.95 301.243 549.077 303.801C551 308.291 553.122 314.57 551.584 315.696Z" fill="#6C63FF"/>
<path d="M562.191 306.464C562.191 306.464 562.502 314.843 554.492 315.833L553.991 314.885C553.991 314.885 561.696 309.064 562.191 306.464Z" fill="#6C63FF"/>
<path d="M559.895 302.254C559.958 311.254 553.501 315.285 553.501 315.285L553.312 315.243L551.453 314.848C551.821 312.085 554.086 308.612 556.029 306.006C557.145 304.589 558.445 303.327 559.895 302.254Z" fill="#6C63FF"/>
<path d="M553.285 314.885C553.002 315.235 552.642 315.514 552.232 315.701C552.105 315.758 551.973 315.802 551.837 315.833C550.663 316.106 550.257 315.259 550.32 313.817C550.431 311.254 552.042 306.806 553.48 303.475C554.173 301.84 555.195 300.366 556.482 299.143C556.482 299.143 556.409 311.264 553.285 314.885Z" fill="#6C63FF"/>
<path d="M551.948 293.675C551.948 293.675 546.607 312.622 551.205 315.454C555.803 318.285 553.127 295.349 551.948 293.675Z" fill="#6C63FF"/>
<path opacity="0.1" d="M541.704 306.464C541.704 306.464 539.903 314.843 547.914 315.833L548.409 314.901C548.409 314.901 542.199 309.064 541.704 306.464Z" fill="black"/>
<path opacity="0.1" d="M550.958 314.833L549.093 315.228L548.909 315.27C548.909 315.27 543.937 311.238 544.001 302.238C544.665 303.565 545.461 304.822 546.376 305.991C548.346 308.596 550.584 312.07 550.958 314.833Z" fill="black"/>
<path opacity="0.1" d="M551.584 315.696C551.438 315.791 551.272 315.852 551.099 315.875C550.926 315.898 550.75 315.882 550.584 315.827C545.802 314.712 547.424 299.138 547.424 299.138C547.687 299.259 547.95 301.243 549.077 303.801C551 308.291 553.122 314.57 551.584 315.696Z" fill="black"/>
<path opacity="0.1" d="M562.191 306.464C562.191 306.464 562.502 314.843 554.492 315.833L553.991 314.885C553.991 314.885 561.696 309.064 562.191 306.464Z" fill="black"/>
<path opacity="0.1" d="M559.895 302.254C559.958 311.254 553.501 315.285 553.501 315.285L553.312 315.243L551.453 314.848C551.821 312.085 554.086 308.612 556.029 306.006C557.145 304.589 558.445 303.327 559.895 302.254Z" fill="black"/>
<path opacity="0.1" d="M553.285 314.885C553.002 315.235 552.642 315.514 552.232 315.701C552.105 315.758 551.973 315.802 551.837 315.833C550.663 316.106 550.257 315.259 550.32 313.817C550.431 311.254 552.042 306.806 553.48 303.475C554.173 301.84 555.195 300.366 556.482 299.143C556.482 299.143 556.409 311.264 553.285 314.885Z" fill="black"/>
<path opacity="0.1" d="M551.948 293.675C551.948 293.675 546.607 312.622 551.205 315.454C555.803 318.285 553.127 295.349 551.948 293.675Z" fill="black"/>
<path d="M541.704 306.464C541.704 306.464 540.651 314.843 548.656 315.833L549.151 314.901C549.151 314.901 542.199 309.064 541.704 306.464Z" fill="#6C63FF"/>
<path d="M551.7 314.833L549.836 315.227L549.652 315.269C549.652 315.269 543.937 311.238 543.985 302.254C543.985 302.254 545.449 303.833 547.103 306.006C549.088 308.596 551.326 312.069 551.7 314.833Z" fill="#6C63FF"/>
<path opacity="0.1" d="M551.7 314.833L549.836 315.227C548.071 313.68 547.371 309.638 547.118 305.991C549.088 308.596 551.326 312.07 551.7 314.833Z" fill="black"/>
<path d="M552.332 315.696C552.185 315.791 552.018 315.852 551.844 315.875C551.67 315.898 551.493 315.882 551.326 315.827C546.544 314.712 547.418 299.138 547.418 299.138C547.682 299.259 548.714 301.243 549.815 303.801C551.748 308.291 553.865 314.57 552.332 315.696Z" fill="#6C63FF"/>
<path d="M562.191 306.464C562.191 306.464 563.244 314.843 555.239 315.833L554.744 314.901C554.744 314.901 561.696 309.064 562.191 306.464Z" fill="#6C63FF"/>
<path d="M559.895 302.254C559.958 311.254 554.244 315.285 554.244 315.285L554.06 315.243L552.195 314.848C552.564 312.085 554.829 308.612 556.777 306.006C558.431 303.833 559.895 302.254 559.895 302.254Z" fill="#6C63FF"/>
<path opacity="0.1" d="M556.777 305.991C556.535 309.391 555.914 313.133 554.402 314.88C554.299 315.006 554.184 315.122 554.06 315.227L552.195 314.833C552.564 312.07 554.808 308.596 556.777 305.991Z" fill="black"/>
<path d="M554.028 314.885C553.746 315.237 553.386 315.516 552.975 315.701C552.85 315.758 552.719 315.802 552.585 315.833C551.405 316.106 551.005 315.259 551.063 313.817C551.179 311.254 552.79 306.806 554.223 303.475C555.276 301.08 556.23 299.264 556.482 299.143C556.482 299.138 557.151 311.264 554.028 314.885Z" fill="#6C63FF"/>
<path opacity="0.1" d="M552.332 315.696C552.06 315.699 551.794 315.614 551.574 315.454C549.325 314.054 549.277 308.801 549.815 303.801C551.747 308.291 553.865 314.569 552.332 315.696Z" fill="black"/>
<path opacity="0.1" d="M554.028 314.885C553.77 315.448 553.422 315.743 552.975 315.701C552.746 315.673 552.527 315.59 552.338 315.459C551.752 315.058 551.306 314.484 551.063 313.817C551.179 311.254 552.79 306.806 554.223 303.475C554.739 308.091 554.913 312.985 554.028 314.885Z" fill="black"/>
<path d="M551.948 293.675C551.948 293.675 547.355 312.622 551.948 315.454C556.54 318.285 553.128 295.349 551.948 293.675Z" fill="#6C63FF"/>
<path d="M560.764 314.527H541.641V317.69H544.559L544.633 318.064L545.802 324.206H556.92L558.089 318.064L558.157 317.69H560.764V314.527Z" fill="#4B4770"/>
<path opacity="0.1" d="M560.764 314.527H541.641V317.69H544.559L544.633 318.064L545.802 324.206H556.92L558.089 318.064L558.157 317.69H560.764V314.527Z" fill="black"/>
<path d="M559.152 316.385L558.831 318.064L557.662 324.206H546.544L545.375 318.064L545.054 316.385H559.152Z" fill="#4B4770"/>
<path opacity="0.1" d="M559.152 316.385L558.831 318.064H545.375L545.054 316.385H559.152Z" fill="black"/>
<path d="M561.506 314.527H542.383V317.69H561.506V314.527Z" fill="#4B4770"/>
<path d="M73.4116 368.653C72.9075 369.348 72.5033 370.109 72.2108 370.916C72.1371 371.111 72.0634 371.337 71.9896 371.553C71.856 371.491 71.7167 371.441 71.5736 371.406C70.9597 371.251 70.3245 371.197 69.6934 371.248C69.6934 371 69.725 370.721 69.7303 370.474C69.8093 367.7 69.4827 363.837 66.8336 365.474C64.2951 367.053 66.1068 369.685 67.7447 371.369C67.8869 371.516 68.0291 371.653 68.1661 371.785C66.6703 372.837 66.3859 375.327 66.1384 377.911C65.8909 380.495 63.6947 383.321 62.2358 384.927C62.0884 385.09 61.9567 385.237 61.825 385.374C61.2353 384.904 60.5527 384.563 59.8219 384.376C59.0912 384.188 58.329 384.157 57.5854 384.284C57.5275 384.058 57.459 383.821 57.3905 383.574C56.2108 379.316 53.7618 371.942 50.6387 370.327L51.0495 369.8C52.3767 368.069 53.8724 365.49 51.6657 364.832C49.459 364.174 49.2589 367.064 49.38 369.232C49.4011 369.506 49.4221 369.764 49.4432 370.006C49.0021 370.026 48.5697 370.136 48.173 370.33C47.7762 370.524 47.4234 370.797 47.1364 371.132L46.7941 370.727C45.0034 368.621 41.7223 365.269 40.7269 367.8C39.8 370.158 42.6914 373.221 44.7243 374.995L44.8507 375.106C43.4866 380.637 49.4432 385.148 52.6506 387.121L53.0666 387.374C48.6427 392.584 45.9093 402.353 45.9093 402.353L58.2964 404.563C58.2964 404.563 66.5123 397.479 65.459 390.826H65.5433C73.754 389.184 75.6183 380.437 74.3386 375.242L74.486 375.185C75.9819 374.573 77.2925 373.583 78.2885 372.311C80.5848 369.127 75.7816 365.527 73.4116 368.653Z" fill="#6C63FF"/>
<path opacity="0.1" d="M73.4116 368.653C72.9075 369.348 72.5033 370.109 72.2108 370.916C72.1371 371.111 72.0634 371.337 71.9896 371.553C71.856 371.491 71.7167 371.441 71.5736 371.406C70.9597 371.251 70.3245 371.197 69.6934 371.248C69.6934 371 69.725 370.721 69.7303 370.474C69.8093 367.7 69.4827 363.837 66.8336 365.474C64.2951 367.053 66.1068 369.685 67.7447 371.369C67.8869 371.516 68.0291 371.653 68.1661 371.785C66.6703 372.837 66.3859 375.327 66.1384 377.911C65.8909 380.495 63.6947 383.321 62.2358 384.927C62.0884 385.09 61.9567 385.237 61.825 385.374C61.2353 384.904 60.5527 384.563 59.8219 384.376C59.0912 384.188 58.329 384.157 57.5854 384.284C57.5275 384.058 57.459 383.821 57.3905 383.574C56.2108 379.316 53.7618 371.942 50.6387 370.327L51.0495 369.8C52.3767 368.069 53.8724 365.49 51.6657 364.832C49.459 364.174 49.2589 367.064 49.38 369.232C49.4011 369.506 49.4221 369.764 49.4432 370.006C49.0021 370.026 48.5697 370.136 48.173 370.33C47.7762 370.524 47.4234 370.797 47.1364 371.132L46.7941 370.727C45.0034 368.621 41.7223 365.269 40.7269 367.8C39.8 370.158 42.6914 373.221 44.7243 374.995L44.8507 375.106C43.4866 380.637 49.4432 385.148 52.6506 387.121L53.0666 387.374C48.6427 392.584 45.9093 402.353 45.9093 402.353L58.2964 404.563C58.2964 404.563 66.5123 397.479 65.459 390.826H65.5433C73.754 389.184 75.6183 380.437 74.3386 375.242L74.486 375.185C75.9819 374.573 77.2925 373.583 78.2885 372.311C80.5848 369.127 75.7816 365.527 73.4116 368.653Z" fill="black"/>
<path d="M48.7532 372.253L47.3048 376.464C47.3048 376.464 46.4991 375.895 45.4826 375C43.4497 373.227 40.5583 370.164 41.4852 367.806C42.4806 365.274 45.7617 368.616 47.5524 370.732C48.2739 371.574 48.7532 372.253 48.7532 372.253Z" fill="#6C63FF"/>
<path d="M51.8079 369.805C51.368 370.385 50.8968 370.94 50.3965 371.469C50.2728 370.73 50.1867 369.985 50.1384 369.237C50.0173 367.069 50.249 364.19 52.4241 364.837C54.5993 365.484 53.1351 368.074 51.8079 369.805Z" fill="#6C63FF"/>
<path d="M70.5149 370.474C70.4728 371.869 70.3358 372.984 70.3358 372.984C69.6988 372.486 69.0953 371.946 68.5294 371.369C66.8915 369.669 65.0797 367.048 67.6182 365.474C70.241 363.832 70.5676 367.7 70.5149 370.474Z" fill="#6C63FF"/>
<path d="M79.047 372.3C78.051 373.572 76.7404 374.563 75.2445 375.174C74.8292 375.354 74.4036 375.508 73.9699 375.637L72.2635 373.242C72.4427 372.451 72.6786 371.674 72.9693 370.916C73.2617 370.109 73.6659 369.348 74.1701 368.653C76.5295 365.527 81.3432 369.127 79.047 372.3Z" fill="#6C63FF"/>
<path opacity="0.1" d="M47.5523 370.732C48.2739 371.574 48.7531 372.227 48.7531 372.227L47.3048 376.437C47.3048 376.437 46.499 375.869 45.4825 374.974C45.7084 373.617 46.2696 372.338 47.1152 371.253C47.2574 371.079 47.4101 370.9 47.5523 370.732Z" fill="black"/>
<path opacity="0.1" d="M51.8078 369.806C51.3679 370.385 50.8967 370.94 50.3964 371.469C50.2727 370.73 50.1866 369.985 50.1383 369.237C50.7402 369.25 51.3235 369.448 51.8078 369.806Z" fill="black"/>
<path d="M58.9281 386.627L55.3258 388.205C55.3258 388.205 54.541 387.827 53.4087 387.121C49.622 384.795 42.0117 378.937 47.0888 372.032C52.1658 365.127 56.4476 377.511 58.1487 383.569C58.6595 385.411 58.9281 386.627 58.9281 386.627Z" fill="#6C63FF"/>
<path opacity="0.1" d="M68.5031 371.369C69.027 370.829 69.737 370.509 70.4886 370.474C70.4464 371.869 70.3095 372.985 70.3095 372.985C69.6725 372.486 69.069 371.946 68.5031 371.369Z" fill="black"/>
<path opacity="0.1" d="M75.2547 375.174C74.8395 375.353 74.4139 375.508 73.9802 375.637L72.2738 373.242C72.453 372.451 72.6888 371.674 72.9795 370.916C74.0697 371.558 74.8808 373.158 75.2547 375.174Z" fill="black"/>
<path d="M66.3015 390.816C66.1066 390.858 65.9012 390.895 65.6958 390.926C53.6194 392.758 61.7142 386.248 61.7142 386.248C61.7142 386.248 62.2409 385.721 62.994 384.927C64.4529 383.321 66.6438 380.511 66.8966 377.911C67.2758 374 67.7129 370.332 72.3318 371.406C76.8663 372.469 77.7353 388.527 66.3015 390.816Z" fill="#6C63FF"/>
<path d="M66.0752 420.863H43.0021V426.926H66.0752V420.863Z" fill="#D4DFEC"/>
<path d="M69.4825 401.158H39.3363V422.316H69.4825V401.158Z" fill="#D4DFEC"/>
<path opacity="0.1" d="M66.0752 420.863H43.0021V426.926H66.0752V420.863Z" fill="black"/>
<path opacity="0.1" d="M69.4825 401.158H39.3363V422.316H69.4825V401.158Z" fill="black"/>
<path d="M67.5919 420.863H44.5188V426.926H67.5919V420.863Z" fill="#D4DFEC"/>
<path opacity="0.1" d="M58.149 383.574C58.6757 385.384 58.9285 386.626 58.9285 386.626L55.3261 388.205C55.3261 388.205 54.5414 387.826 53.4091 387.121C54.8205 385.337 56.411 383.99 58.149 383.574Z" fill="black"/>
<path opacity="0.1" d="M66.3015 390.816C66.1066 390.858 65.9012 390.895 65.6958 390.926C53.6194 392.758 61.7142 386.247 61.7142 386.247C61.7142 386.247 62.2409 385.721 62.994 384.926C65.2482 386.732 66.1803 388.763 66.3015 390.816Z" fill="black"/>
<path d="M46.6676 402.358C46.6676 402.358 53.43 378.148 62.9151 385.616C72.4003 393.084 59.0547 404.563 59.0547 404.563L46.6676 402.358Z" fill="#6C63FF"/>
<path opacity="0.1" d="M50.0804 376.585C50.4993 376.585 50.8388 376.245 50.8388 375.827C50.8388 375.408 50.4993 375.069 50.0804 375.069C49.6616 375.069 49.322 375.408 49.322 375.827C49.322 376.245 49.6616 376.585 50.0804 376.585Z" fill="black"/>
<path opacity="0.1" d="M50.0173 380.121C50.4362 380.121 50.7757 379.782 50.7757 379.363C50.7757 378.945 50.4362 378.605 50.0173 378.605C49.5985 378.605 49.2589 378.945 49.2589 379.363C49.2589 379.782 49.5985 380.121 50.0173 380.121Z" fill="black"/>
<path opacity="0.1" d="M72.0158 377.279C72.4347 377.279 72.7742 376.94 72.7742 376.521C72.7742 376.103 72.4347 375.763 72.0158 375.763C71.597 375.763 71.2574 376.103 71.2574 376.521C71.2574 376.94 71.597 377.279 72.0158 377.279Z" fill="black"/>
<path opacity="0.1" d="M54.3199 395.411C54.7388 395.411 55.0783 395.071 55.0783 394.653C55.0783 394.234 54.7388 393.895 54.3199 393.895C53.9011 393.895 53.5615 394.234 53.5615 394.653C53.5615 395.071 53.9011 395.411 54.3199 395.411Z" fill="black"/>
<path opacity="0.1" d="M70.436 383.153C70.8549 383.153 71.1944 382.814 71.1944 382.395C71.1944 381.977 70.8549 381.637 70.436 381.637C70.0172 381.637 69.6776 381.977 69.6776 382.395C69.6776 382.814 70.0172 383.153 70.436 383.153Z" fill="black"/>
<path opacity="0.1" d="M62.599 390.989C63.0178 390.989 63.3574 390.65 63.3574 390.232C63.3574 389.813 63.0178 389.474 62.599 389.474C62.1801 389.474 61.8406 389.813 61.8406 390.232C61.8406 390.65 62.1801 390.989 62.599 390.989Z" fill="black"/>
<path opacity="0.1" d="M52.6715 378.1C53.0903 378.1 53.4299 377.761 53.4299 377.342C53.4299 376.924 53.0903 376.584 52.6715 376.584C52.2526 376.584 51.9131 376.924 51.9131 377.342C51.9131 377.761 52.2526 378.1 52.6715 378.1Z" fill="black"/>
<path opacity="0.1" d="M69.9303 379.553C70.3491 379.553 70.6887 379.213 70.6887 378.795C70.6887 378.376 70.3491 378.037 69.9303 378.037C69.5114 378.037 69.1719 378.376 69.1719 378.795C69.1719 379.213 69.5114 379.553 69.9303 379.553Z" fill="black"/>
<path opacity="0.1" d="M67.3391 385.426C67.7579 385.426 68.0975 385.087 68.0975 384.669C68.0975 384.25 67.7579 383.911 67.3391 383.911C66.9202 383.911 66.5807 384.25 66.5807 384.669C66.5807 385.087 66.9202 385.426 67.3391 385.426Z" fill="black"/>
<path opacity="0.1" d="M59.3761 394.842C59.7949 394.842 60.1345 394.503 60.1345 394.084C60.1345 393.666 59.7949 393.326 59.3761 393.326C58.9572 393.326 58.6177 393.666 58.6177 394.084C58.6177 394.503 58.9572 394.842 59.3761 394.842Z" fill="black"/>
<path opacity="0.1" d="M57.7326 391.116C58.1515 391.116 58.491 390.777 58.491 390.358C58.491 389.939 58.1515 389.6 57.7326 389.6C57.3138 389.6 56.9742 389.939 56.9742 390.358C56.9742 390.777 57.3138 391.116 57.7326 391.116Z" fill="black"/>
<path opacity="0.1" d="M53.8092 382.711C54.228 382.711 54.5676 382.371 54.5676 381.953C54.5676 381.534 54.228 381.195 53.8092 381.195C53.3903 381.195 53.0508 381.534 53.0508 381.953C53.0508 382.371 53.3903 382.711 53.8092 382.711Z" fill="black"/>
<path opacity="0.1" d="M67.5919 420.863H44.5188V423.079H67.5919V420.863Z" fill="black"/>
<path d="M70.9993 401.158H40.8531V422.316H70.9993V401.158Z" fill="#D4DFEC"/>
<path opacity="0.1" d="M60.3872 398.252C60.806 398.252 61.1456 397.913 61.1456 397.495C61.1456 397.076 60.806 396.737 60.3872 396.737C59.9683 396.737 59.6288 397.076 59.6288 397.495C59.6288 397.913 59.9683 398.252 60.3872 398.252Z" fill="black"/>
<path opacity="0.1" d="M55.8368 399.2C56.2556 399.2 56.5952 398.861 56.5952 398.442C56.5952 398.024 56.2556 397.684 55.8368 397.684C55.4179 397.684 55.0784 398.024 55.0784 398.442C55.0784 398.861 55.4179 399.2 55.8368 399.2Z" fill="black"/>
<path opacity="0.1" d="M26.333 32.8732C29.3755 32.8732 31.8419 30.4084 31.8419 27.368C31.8419 24.3276 29.3755 21.8628 26.333 21.8628C23.2905 21.8628 20.8241 24.3276 20.8241 27.368C20.8241 30.4084 23.2905 32.8732 26.333 32.8732Z" fill="#6C63FF"/>
<path opacity="0.1" d="M555.403 207.94C559.475 207.94 562.776 204.641 562.776 200.571C562.776 196.502 559.475 193.203 555.403 193.203C551.33 193.203 548.029 196.502 548.029 200.571C548.029 204.641 551.33 207.94 555.403 207.94Z" fill="#6C63FF"/>
<path opacity="0.1" d="M569.617 190.161C572.59 190.161 575 187.753 575 184.782C575 181.811 572.59 179.403 569.617 179.403C566.645 179.403 564.235 181.811 564.235 184.782C564.235 187.753 566.645 190.161 569.617 190.161Z" fill="#6C63FF"/>
<path opacity="0.1" d="M35.8131 14.7366C39.8852 14.7366 43.1864 11.4377 43.1864 7.36832C43.1864 3.29891 39.8852 0 35.8131 0C31.7409 0 28.4398 3.29891 28.4398 7.36832C28.4398 11.4377 31.7409 14.7366 35.8131 14.7366Z" fill="#6C63FF"/>
<path opacity="0.1" d="M7.37328 48.4204C11.4454 48.4204 14.7466 45.1215 14.7466 41.052C14.7466 36.9826 11.4454 33.6837 7.37328 33.6837C3.30113 33.6837 0 36.9826 0 41.052C0 45.1215 3.30113 48.4204 7.37328 48.4204Z" fill="#6C63FF"/>
<defs>
<linearGradient id="paint0_linear" x1="277.62" y1="408.337" x2="277.62" y2="100.183" gradientUnits="userSpaceOnUse">
<stop stop-color="#808080" stop-opacity="0.25"/>
<stop offset="0.54" stop-color="#808080" stop-opacity="0.12"/>
<stop offset="1" stop-color="#808080" stop-opacity="0.1"/>
</linearGradient>
</defs>
</svg>
