<svg width="102" height="30" viewBox="0 0 102 30" fill="none" xmlns="http://www.w3.org/2000/svg">
<path d="M1.35938 18.5742C1.9375 18.3164 2.46094 18.0195 2.92969 17.6836C3.40625 17.3477 3.82812 16.9961 4.19531 16.6289C4.57031 16.2539 4.88672 15.875 5.14453 15.4922C5.41016 15.1016 5.62109 14.7305 5.77734 14.3789C5.84766 14.207 5.98047 14.1211 6.17578 14.1211C6.30859 14.1211 6.41406 14.168 6.49219 14.2617C6.57812 14.3477 6.62109 14.4453 6.62109 14.5547C6.62109 14.6172 6.60938 14.6758 6.58594 14.7305C6.41406 15.1133 6.19531 15.5117 5.92969 15.9258C5.66406 16.332 5.33984 16.7344 4.95703 17.1328C4.58203 17.5234 4.14062 17.9023 3.63281 18.2695C3.125 18.6367 2.54297 18.9727 1.88672 19.2773C2.30859 19.7148 2.67578 20.1992 2.98828 20.7305C3.30078 21.2695 3.55859 21.8281 3.76172 22.4062C3.97266 22.9844 4.12891 23.5664 4.23047 24.1523C4.33984 24.7461 4.39453 25.3125 4.39453 25.8516C4.39453 26.3438 4.34766 26.8047 4.25391 27.2344C4.16797 27.6719 4.03516 28.0508 3.85547 28.3711C3.68359 28.6914 3.47266 28.9414 3.22266 29.1211C2.97266 29.3086 2.6875 29.4023 2.36719 29.4023C1.89844 29.4023 1.53516 29.2266 1.27734 28.875C1.01953 28.5312 0.828125 28.0508 0.703125 27.4336C0.585938 26.8242 0.515625 26.1016 0.492188 25.2656C0.476562 24.4375 0.46875 23.5352 0.46875 22.5586C0.46875 22.0742 0.46875 21.5078 0.46875 20.8594C0.46875 20.2188 0.46875 19.5273 0.46875 18.7852C0.476562 18.0508 0.480469 17.2812 0.480469 16.4766C0.488281 15.6641 0.496094 14.8516 0.503906 14.0391C0.511719 13.2266 0.519531 12.4297 0.527344 11.6484C0.535156 10.8594 0.546875 10.1133 0.5625 9.41016C0.585938 8.06641 0.632812 6.86719 0.703125 5.8125C0.773438 4.75781 0.886719 3.86719 1.04297 3.14062C1.19922 2.41406 1.41016 1.86328 1.67578 1.48828C1.94922 1.10547 2.29297 0.914062 2.70703 0.914062C3.03516 0.914062 3.3125 1.00781 3.53906 1.19531C3.76562 1.375 3.94922 1.62109 4.08984 1.93359C4.23047 2.23828 4.33203 2.59766 4.39453 3.01172C4.45703 3.42578 4.48828 3.85938 4.48828 4.3125C4.48828 5.26562 4.40625 6.1875 4.24219 7.07812C4.07812 7.96875 3.85547 8.83203 3.57422 9.66797C3.29297 10.5039 2.96094 11.3203 2.57812 12.1172C2.20312 12.9141 1.80078 13.6992 1.37109 14.4727C1.37109 14.793 1.37109 15.1406 1.37109 15.5156C1.37109 15.8828 1.37109 16.2539 1.37109 16.6289C1.37109 16.9961 1.36719 17.3516 1.35938 17.6953C1.35938 18.0312 1.35938 18.3242 1.35938 18.5742ZM1.39453 12.668C1.71484 12.0664 2.00781 11.4336 2.27344 10.7695C2.54688 10.0977 2.78125 9.40625 2.97656 8.69531C3.17188 7.98438 3.32422 7.25781 3.43359 6.51562C3.54297 5.77344 3.59766 5.02734 3.59766 4.27734C3.59766 3.90234 3.57812 3.5625 3.53906 3.25781C3.50781 2.95312 3.45312 2.69531 3.375 2.48438C3.30469 2.26562 3.21094 2.09766 3.09375 1.98047C2.98438 1.85547 2.85547 1.79297 2.70703 1.79297C2.55078 1.79297 2.41406 1.88672 2.29688 2.07422C2.17969 2.26172 2.07812 2.51172 1.99219 2.82422C1.90625 3.13672 1.83203 3.49609 1.76953 3.90234C1.71484 4.30859 1.66797 4.73438 1.62891 5.17969C1.58984 5.61719 1.55859 6.05859 1.53516 6.50391C1.51172 6.94141 1.49219 7.35547 1.47656 7.74609C1.46875 8.12891 1.46094 8.46875 1.45312 8.76562C1.45312 9.0625 1.45312 9.28516 1.45312 9.43359C1.44531 9.74609 1.4375 10.0234 1.42969 10.2656C1.42969 10.5078 1.42578 10.7461 1.41797 10.9805C1.41016 11.2148 1.40234 11.4648 1.39453 11.7305C1.39453 11.9961 1.39453 12.3086 1.39453 12.668ZM1.35938 20.0156C1.35938 20.5078 1.35547 20.9648 1.34766 21.3867C1.34766 21.8164 1.34766 22.207 1.34766 22.5586C1.34766 23.2852 1.35156 24.0039 1.35938 24.7148C1.36719 25.4258 1.40234 26.0625 1.46484 26.625C1.53516 27.1953 1.63672 27.6523 1.76953 27.9961C1.91016 28.3477 2.10938 28.5234 2.36719 28.5234C2.60156 28.5234 2.79297 28.418 2.94141 28.207C3.08984 27.9961 3.20312 27.7461 3.28125 27.457C3.36719 27.168 3.42578 26.8711 3.45703 26.5664C3.48828 26.2695 3.50391 26.0273 3.50391 25.8398C3.50391 25.3633 3.45703 24.8633 3.36328 24.3398C3.27734 23.8164 3.14062 23.2969 2.95312 22.7812C2.77344 22.2734 2.55078 21.7812 2.28516 21.3047C2.01953 20.8281 1.71094 20.3984 1.35938 20.0156ZM11.1914 16.7109C10.9961 16.7109 10.8242 16.6953 10.6758 16.6641C10.5586 16.8984 10.418 17.1172 10.2539 17.3203C10.0898 17.5156 9.89844 17.6875 9.67969 17.8359C9.46875 17.9844 9.23047 18.1016 8.96484 18.1875C8.69922 18.2734 8.41016 18.3164 8.09766 18.3164C7.73047 18.3164 7.39453 18.25 7.08984 18.1172C6.78516 17.9922 6.51953 17.8164 6.29297 17.5898C6.06641 17.3555 5.89062 17.0781 5.76562 16.7578C5.64062 16.4297 5.57812 16.0703 5.57812 15.6797C5.57812 15.1797 5.66797 14.7461 5.84766 14.3789C6.02734 14.0039 6.23438 13.6953 6.46875 13.4531C6.70312 13.2031 6.9375 13.0195 7.17188 12.9023C7.40625 12.7773 7.58203 12.7148 7.69922 12.7148C7.83203 12.7148 7.92969 12.75 7.99219 12.8203C8.0625 12.8906 8.09766 12.9844 8.09766 13.1016C8.09766 13.2344 8.05469 13.3359 7.96875 13.4062C7.89062 13.4688 7.78906 13.5312 7.66406 13.5938C7.53906 13.6562 7.40625 13.7461 7.26562 13.8633C7.125 13.9727 6.99219 14.1133 6.86719 14.2852C6.75 14.457 6.65234 14.6602 6.57422 14.8945C6.49609 15.1289 6.45703 15.3906 6.45703 15.6797C6.45703 15.9375 6.49609 16.1797 6.57422 16.4062C6.65234 16.625 6.76562 16.8164 6.91406 16.9805C7.0625 17.1367 7.23828 17.2617 7.44141 17.3555C7.64453 17.4414 7.87109 17.4844 8.12109 17.4844C8.56641 17.4844 8.93359 17.3828 9.22266 17.1797C9.51953 16.9688 9.74609 16.7031 9.90234 16.3828C9.44141 16.1406 9.0625 15.7969 8.76562 15.3516C8.46875 14.9062 8.32031 14.4062 8.32031 13.8516C8.32031 13.4062 8.42578 13.043 8.63672 12.7617C8.85547 12.4805 9.14062 12.3398 9.49219 12.3398C9.70312 12.3398 9.90234 12.3906 10.0898 12.4922C10.2773 12.5938 10.4414 12.7539 10.582 12.9727C10.7305 13.1914 10.8477 13.4727 10.9336 13.8164C11.0195 14.1602 11.0625 14.5703 11.0625 15.0469C11.0625 15.2969 11.0312 15.5586 10.9688 15.832C11.0156 15.8398 11.0625 15.8438 11.1094 15.8438C11.1562 15.8438 11.207 15.8438 11.2617 15.8438C11.5273 15.8438 11.7656 15.8125 11.9766 15.75C12.1875 15.6875 12.3789 15.5938 12.5508 15.4688C12.7227 15.3438 12.875 15.1836 13.0078 14.9883C13.1484 14.793 13.2812 14.5664 13.4062 14.3086C13.4297 14.2617 13.4805 14.2188 13.5586 14.1797C13.6367 14.1328 13.7148 14.1094 13.793 14.1094C13.8945 14.1094 13.9883 14.1523 14.0742 14.2383C14.168 14.3164 14.2148 14.4219 14.2148 14.5547C14.2148 14.6172 14.1992 14.6875 14.168 14.7656C14.1367 14.8359 14.1055 14.9023 14.0742 14.9648C13.9414 15.1992 13.7852 15.4258 13.6055 15.6445C13.4336 15.8555 13.2266 16.043 12.9844 16.207C12.75 16.3633 12.4844 16.4883 12.1875 16.582C11.8906 16.6758 11.5586 16.7188 11.1914 16.7109ZM9.1875 13.7578C9.1875 13.9062 9.20703 14.0625 9.24609 14.2266C9.28516 14.3906 9.34375 14.5547 9.42188 14.7188C9.50781 14.875 9.60938 15.0273 9.72656 15.1758C9.85156 15.3164 9.99609 15.4375 10.1602 15.5391C10.1836 15.375 10.1953 15.2148 10.1953 15.0586C10.1953 14.8477 10.1797 14.6328 10.1484 14.4141C10.1172 14.1953 10.0703 13.9961 10.0078 13.8164C9.95312 13.6289 9.88281 13.4805 9.79688 13.3711C9.71094 13.2539 9.60938 13.1953 9.49219 13.1953C9.44531 13.1953 9.38281 13.2305 9.30469 13.3008C9.22656 13.3711 9.1875 13.5234 9.1875 13.7578ZM20.3672 11.3672C19.1641 12.8516 18.0664 14.4141 17.0742 16.0547C17.3477 16.4609 17.6484 16.7969 17.9766 17.0625C18.3047 17.3281 18.6758 17.4609 19.0898 17.4609C19.457 17.4609 19.8047 17.3555 20.1328 17.1445C20.4609 16.9336 20.7578 16.6758 21.0234 16.3711C21.2969 16.0586 21.5312 15.7266 21.7266 15.375C21.9297 15.0156 22.0859 14.6914 22.1953 14.4023C22.2734 14.207 22.4102 14.1094 22.6055 14.1094C22.7383 14.1094 22.8438 14.1562 22.9219 14.25C23.0078 14.3359 23.0508 14.4375 23.0508 14.5547C23.0508 14.5938 23.043 14.6445 23.0273 14.707C23.0352 14.6914 23 14.7695 22.9219 14.9414C22.8438 15.1133 22.7266 15.3359 22.5703 15.6094C22.4141 15.875 22.2227 16.168 21.9961 16.4883C21.7695 16.8086 21.5078 17.1094 21.2109 17.3906C20.9219 17.6641 20.5977 17.8906 20.2383 18.0703C19.8789 18.2578 19.4922 18.3516 19.0781 18.3516C18.5625 18.3516 18.0977 18.2148 17.6836 17.9414C17.2773 17.668 16.9102 17.3203 16.582 16.8984C16.4492 17.1328 16.3203 17.3672 16.1953 17.6016C16.0703 17.8359 15.9453 18.0703 15.8203 18.3047C15.7344 18.4688 15.6016 18.5508 15.4219 18.5508C15.2891 18.5508 15.1797 18.5039 15.0938 18.4102C15.0156 18.3164 14.9766 18.2148 14.9766 18.1055C14.9766 18.043 14.9961 17.9727 15.0352 17.8945C15.1914 17.5898 15.3516 17.2852 15.5156 16.9805C15.6797 16.6758 15.8516 16.375 16.0312 16.0781C15.7656 15.6172 15.5391 15.1484 15.3516 14.6719C15.1641 14.1875 15.0156 13.7344 14.9062 13.3125L14.2148 14.7422C14.1289 14.9141 13.9961 15 13.8164 15C13.6836 15 13.5742 14.9531 13.4883 14.8594C13.4102 14.7656 13.3711 14.6641 13.3711 14.5547C13.3711 14.4844 13.3867 14.4219 13.418 14.3672L14.6953 11.6953C14.7344 11.625 14.7891 11.5664 14.8594 11.5195C14.9297 11.4727 15.0078 11.4492 15.0938 11.4492C15.2188 11.4492 15.3203 11.4922 15.3984 11.5781C15.4766 11.6562 15.5234 11.7539 15.5391 11.8711C15.5469 11.9805 15.5742 12.1523 15.6211 12.3867C15.6758 12.6211 15.7461 12.8906 15.832 13.1953C15.9258 13.4922 16.0312 13.8125 16.1484 14.1562C16.2734 14.5 16.418 14.8398 16.582 15.1758C17.5195 13.6523 18.5547 12.1953 19.6875 10.8047C19.7656 10.7031 19.8789 10.6523 20.0273 10.6523C20.1523 10.6523 20.2578 10.6953 20.3438 10.7812C20.4297 10.8672 20.4727 10.9688 20.4727 11.0859C20.4727 11.1953 20.4375 11.2891 20.3672 11.3672ZM28.2305 14.7305C28.2305 15.4492 28.1016 16.0625 27.8438 16.5703C27.5859 17.0781 27.2695 17.4648 26.8945 17.7305H26.9414C27.4023 17.7305 27.8203 17.6289 28.1953 17.4258C28.5781 17.2148 28.9219 16.9492 29.2266 16.6289C29.5312 16.3008 29.8047 15.9375 30.0469 15.5391C30.2891 15.1406 30.5039 14.7539 30.6914 14.3789C30.7305 14.293 30.7852 14.2266 30.8555 14.1797C30.9336 14.1328 31.0156 14.1094 31.1016 14.1094C31.2344 14.1094 31.3398 14.1562 31.418 14.25C31.4961 14.3438 31.5352 14.4453 31.5352 14.5547C31.5352 14.6172 31.5234 14.6758 31.5 14.7305C31.2969 15.1836 31.0547 15.6406 30.7734 16.1016C30.4922 16.5547 30.1641 16.9648 29.7891 17.332C29.4141 17.6992 28.9922 17.9961 28.5234 18.2227C28.0547 18.457 27.5352 18.5742 26.9648 18.5742C26.5508 18.5742 26.1484 18.5078 25.7578 18.375C25.3672 18.25 25.0234 18.0508 24.7266 17.7773C24.6172 17.6914 24.5234 17.6016 24.4453 17.5078C24.3672 17.4062 24.3047 17.3125 24.2578 17.2266C24.2422 17.2109 24.2344 17.1953 24.2344 17.1797C24.1875 17.1094 24.1641 17.0352 24.1641 16.957C24.1641 16.8555 24.1992 16.7617 24.2695 16.6758C24.2773 16.6602 24.2852 16.6523 24.293 16.6523C24.3008 16.6445 24.3086 16.6367 24.3164 16.6289C24.3945 16.5586 24.4805 16.5195 24.5742 16.5117H24.6094C24.6484 16.5117 24.6758 16.5156 24.6914 16.5234C24.6992 16.5234 24.7031 16.5273 24.7031 16.5352C24.7109 16.5352 24.7188 16.5352 24.7266 16.5352C24.75 16.5352 24.7773 16.543 24.8086 16.5586C24.8164 16.5664 24.8242 16.5703 24.832 16.5703C24.9023 16.6172 24.9609 16.6758 25.0078 16.7461C25.0625 16.8398 25.125 16.9258 25.1953 17.0039C25.2578 17.0664 25.332 17.125 25.418 17.1797C25.5039 17.2266 25.6016 17.25 25.7109 17.25C25.9062 17.25 26.1016 17.1914 26.2969 17.0742C26.4922 16.957 26.668 16.7891 26.8242 16.5703C26.9805 16.3516 27.1055 16.0859 27.1992 15.7734C27.3008 15.4609 27.3516 15.1133 27.3516 14.7305C27.3516 14.4492 27.3203 14.2109 27.2578 14.0156C27.2031 13.8125 27.1289 13.6484 27.0352 13.5234C26.9492 13.3984 26.8555 13.3086 26.7539 13.2539C26.6523 13.1914 26.5547 13.1602 26.4609 13.1602C26.25 13.1602 26.0352 13.2695 25.8164 13.4883C25.6055 13.707 25.3945 13.9844 25.1836 14.3203C24.9727 14.6562 24.7617 15.0273 24.5508 15.4336C24.3477 15.8398 24.1406 16.2344 23.9297 16.6172C23.9141 17.8828 23.8906 19.0898 23.8594 20.2383C23.8359 21.3867 23.7891 22.4531 23.7188 23.4375C23.6562 24.4219 23.5664 25.3125 23.4492 26.1094C23.332 26.9062 23.1719 27.5859 22.9688 28.1484C22.7656 28.7188 22.5156 29.1562 22.2188 29.4609C21.9219 29.7656 21.5586 29.918 21.1289 29.918C20.9961 29.918 20.8438 29.8906 20.6719 29.8359C20.5 29.7812 20.3398 29.668 20.1914 29.4961C20.043 29.332 19.918 29.0938 19.8164 28.7812C19.7148 28.4688 19.6641 28.0508 19.6641 27.5273C19.6641 26.8633 19.7461 26.0938 19.9102 25.2188C20.0742 24.3438 20.3086 23.4141 20.6133 22.4297C20.9102 21.4531 21.2656 20.4492 21.6797 19.418C22.0938 18.3867 22.5508 17.3828 23.0508 16.4062C23.0508 16.1328 23.0508 15.8633 23.0508 15.5977C23.0586 15.332 23.0625 15.0742 23.0625 14.8242C22.9609 14.9414 22.8398 15 22.6992 15C22.5664 15 22.4609 14.9531 22.3828 14.8594C22.3047 14.7656 22.2656 14.6641 22.2656 14.5547C22.2656 14.5 22.2773 14.4414 22.3008 14.3789C22.4883 13.9492 22.6328 13.543 22.7344 13.1602C22.8359 12.7695 22.9102 12.4297 22.957 12.1406C23.0117 11.8438 23.043 11.6094 23.0508 11.4375C23.0586 11.2656 23.0625 11.1758 23.0625 11.168C23.0625 11.0508 23.1055 10.9492 23.1914 10.8633C23.2773 10.7773 23.3828 10.7344 23.5078 10.7344C23.625 10.7344 23.7266 10.7773 23.8125 10.8633C23.8984 10.9414 23.9414 11.043 23.9414 11.168V14.7656C24.1211 14.4609 24.3008 14.1602 24.4805 13.8633C24.6602 13.5664 24.8477 13.3008 25.043 13.0664C25.2461 12.832 25.4609 12.6445 25.6875 12.5039C25.9219 12.3555 26.1797 12.2812 26.4609 12.2812C26.7266 12.2812 26.9688 12.3438 27.1875 12.4688C27.4062 12.5938 27.5938 12.7656 27.75 12.9844C27.9062 13.2031 28.0234 13.4648 28.1016 13.7695C28.1875 14.0664 28.2305 14.3867 28.2305 14.7305ZM23.0273 18.4922C22.6445 19.3516 22.2969 20.2148 21.9844 21.082C21.6797 21.9492 21.4219 22.7852 21.2109 23.5898C20.9922 24.3945 20.8242 25.1484 20.707 25.8516C20.5898 26.5547 20.5312 27.1719 20.5312 27.7031C20.5312 27.8359 20.5391 27.9805 20.5547 28.1367C20.5703 28.293 20.6016 28.4375 20.6484 28.5703C20.6953 28.7031 20.7617 28.8125 20.8477 28.8984C20.9336 28.9922 21.0469 29.0391 21.1875 29.0391C21.4453 29.0391 21.668 28.875 21.8555 28.5469C22.043 28.2266 22.1992 27.7891 22.3242 27.2344C22.457 26.6875 22.5664 26.0547 22.6523 25.3359C22.7383 24.625 22.8047 23.8789 22.8516 23.0977C22.9062 22.3164 22.9453 21.5273 22.9688 20.7305C22.9922 19.9414 23.0117 19.1953 23.0273 18.4922ZM39.7617 14.7305C39.7305 14.793 39.6641 14.9258 39.5625 15.1289C39.4688 15.3242 39.3438 15.5508 39.1875 15.8086C39.0391 16.0664 38.8633 16.3359 38.6602 16.6172C38.457 16.8984 38.2305 17.1562 37.9805 17.3906C37.7305 17.625 37.4609 17.8203 37.1719 17.9766C36.8828 18.125 36.5781 18.1992 36.2578 18.1992C35.8047 18.1992 35.4219 18.0547 35.1094 17.7656C34.8047 17.4766 34.582 17.1133 34.4414 16.6758C34.1758 17.1211 33.8594 17.4766 33.4922 17.7422C33.125 18 32.7578 18.1289 32.3906 18.1289C32.1016 18.1289 31.8398 18.0781 31.6055 17.9766C31.3711 17.8672 31.1719 17.7188 31.0078 17.5312C30.8438 17.3359 30.7148 17.1094 30.6211 16.8516C30.5352 16.5938 30.4922 16.3125 30.4922 16.0078C30.4922 15.3984 30.5938 14.8633 30.7969 14.4023C31.0078 13.9336 31.2734 13.543 31.5938 13.2305C31.9141 12.918 32.2656 12.6836 32.6484 12.5273C33.0391 12.3711 33.4141 12.293 33.7734 12.293C34.0156 12.293 34.2383 12.3281 34.4414 12.3984C34.6445 12.4609 34.8164 12.5312 34.957 12.6094C35.1055 12.6875 35.2188 12.7617 35.2969 12.832C35.375 12.8945 35.418 12.9297 35.4258 12.9375C35.5117 13.0391 35.5547 13.1445 35.5547 13.2539C35.5547 13.3711 35.5117 13.4766 35.4258 13.5703C35.3398 13.6562 35.2383 13.6992 35.1211 13.6992C34.9961 13.6992 34.8906 13.6562 34.8047 13.5703C34.7891 13.5547 34.7539 13.5273 34.6992 13.4883C34.6445 13.4414 34.5703 13.3945 34.4766 13.3477C34.3828 13.3008 34.2695 13.2617 34.1367 13.2305C34.0117 13.1914 33.8672 13.1719 33.7031 13.1719C33.4609 13.1719 33.2031 13.2266 32.9297 13.3359C32.6562 13.4453 32.4062 13.6172 32.1797 13.8516C31.9531 14.0781 31.7617 14.3672 31.6055 14.7188C31.457 15.0625 31.3828 15.4727 31.3828 15.9492C31.3828 16.0977 31.3984 16.25 31.4297 16.4062C31.4609 16.5547 31.5156 16.6914 31.5938 16.8164C31.6719 16.9414 31.7773 17.043 31.9102 17.1211C32.043 17.1992 32.207 17.2383 32.4023 17.2383C32.543 17.2383 32.7031 17.1914 32.8828 17.0977C33.0703 17.0039 33.2461 16.8594 33.4102 16.6641C33.582 16.4688 33.7344 16.2227 33.8672 15.9258C34.0078 15.6289 34.1055 15.2773 34.1602 14.8711C34.1758 14.7617 34.2266 14.6719 34.3125 14.6016C34.3984 14.5234 34.5 14.4844 34.6172 14.4844C34.7266 14.4844 34.8203 14.5273 34.8984 14.6133C34.9844 14.6992 35.0312 14.7969 35.0391 14.9062C35.0469 15.0547 35.0625 15.2656 35.0859 15.5391C35.1094 15.8047 35.1602 16.0703 35.2383 16.3359C35.3242 16.6016 35.4492 16.832 35.6133 17.0273C35.7773 17.2227 36.0039 17.3203 36.293 17.3203C36.4805 17.3203 36.6641 17.2695 36.8438 17.168C37.0312 17.0664 37.2109 16.9336 37.3828 16.7695C37.5625 16.5977 37.7305 16.4062 37.8867 16.1953C38.0508 15.9766 38.1992 15.7578 38.332 15.5391C38.4648 15.3203 38.582 15.1094 38.6836 14.9062C38.7852 14.7031 38.8711 14.5273 38.9414 14.3789C38.9805 14.293 39.0352 14.2266 39.1055 14.1797C39.1836 14.1328 39.2656 14.1094 39.3516 14.1094C39.4844 14.1094 39.5898 14.1602 39.668 14.2617C39.7539 14.3555 39.7969 14.457 39.7969 14.5664C39.7969 14.6211 39.7852 14.6758 39.7617 14.7305ZM44.9648 14.7305C44.9648 15.4492 44.8359 16.0625 44.5781 16.5703C44.3203 17.0781 44.0039 17.4648 43.6289 17.7305H43.6758C44.1367 17.7305 44.5547 17.6289 44.9297 17.4258C45.3125 17.2148 45.6562 16.9492 45.9609 16.6289C46.2656 16.3008 46.5391 15.9375 46.7812 15.5391C47.0234 15.1406 47.2383 14.7539 47.4258 14.3789C47.4648 14.293 47.5195 14.2266 47.5898 14.1797C47.668 14.1328 47.75 14.1094 47.8359 14.1094C47.9688 14.1094 48.0742 14.1562 48.1523 14.25C48.2305 14.3438 48.2695 14.4453 48.2695 14.5547C48.2695 14.6172 48.2578 14.6758 48.2344 14.7305C48.0312 15.1836 47.7891 15.6406 47.5078 16.1016C47.2266 16.5547 46.8984 16.9648 46.5234 17.332C46.1484 17.6992 45.7266 17.9961 45.2578 18.2227C44.7891 18.457 44.2695 18.5742 43.6992 18.5742C43.2852 18.5742 42.8828 18.5078 42.4922 18.375C42.1016 18.25 41.7578 18.0508 41.4609 17.7773C41.3516 17.6914 41.2578 17.6016 41.1797 17.5078C41.1016 17.4062 41.0391 17.3125 40.9922 17.2266C40.9766 17.2109 40.9688 17.1953 40.9688 17.1797C40.9219 17.1094 40.8984 17.0352 40.8984 16.957C40.8984 16.8555 40.9336 16.7617 41.0039 16.6758C41.0117 16.6602 41.0195 16.6523 41.0273 16.6523C41.0352 16.6445 41.043 16.6367 41.0508 16.6289C41.1289 16.5586 41.2148 16.5195 41.3086 16.5117H41.3438C41.3828 16.5117 41.4102 16.5156 41.4258 16.5234C41.4336 16.5234 41.4375 16.5273 41.4375 16.5352C41.4453 16.5352 41.4531 16.5352 41.4609 16.5352C41.4844 16.5352 41.5117 16.543 41.543 16.5586C41.5508 16.5664 41.5586 16.5703 41.5664 16.5703C41.6367 16.6172 41.6953 16.6758 41.7422 16.7461C41.7969 16.8398 41.8594 16.9258 41.9297 17.0039C41.9922 17.0664 42.0664 17.125 42.1523 17.1797C42.2383 17.2266 42.3359 17.25 42.4453 17.25C42.6406 17.25 42.8359 17.1914 43.0312 17.0742C43.2266 16.957 43.4023 16.7891 43.5586 16.5703C43.7148 16.3516 43.8398 16.0859 43.9336 15.7734C44.0352 15.4609 44.0859 15.1133 44.0859 14.7305C44.0859 14.4492 44.0547 14.2109 43.9922 14.0156C43.9375 13.8125 43.8633 13.6484 43.7695 13.5234C43.6836 13.3984 43.5898 13.3086 43.4883 13.2539C43.3867 13.1914 43.2891 13.1602 43.1953 13.1602C42.9844 13.1602 42.7695 13.2695 42.5508 13.4883C42.3398 13.707 42.1289 13.9844 41.918 14.3203C41.707 14.6562 41.4961 15.0273 41.2852 15.4336C41.082 15.8398 40.875 16.2344 40.6641 16.6172C40.6484 17.8828 40.625 19.0898 40.5938 20.2383C40.5703 21.3867 40.5234 22.4531 40.4531 23.4375C40.3906 24.4219 40.3008 25.3125 40.1836 26.1094C40.0664 26.9062 39.9062 27.5859 39.7031 28.1484C39.5 28.7188 39.25 29.1562 38.9531 29.4609C38.6562 29.7656 38.293 29.918 37.8633 29.918C37.7305 29.918 37.5781 29.8906 37.4062 29.8359C37.2344 29.7812 37.0742 29.668 36.9258 29.4961C36.7773 29.332 36.6523 29.0938 36.5508 28.7812C36.4492 28.4688 36.3984 28.0508 36.3984 27.5273C36.3984 26.8633 36.4805 26.0938 36.6445 25.2188C36.8086 24.3438 37.043 23.4141 37.3477 22.4297C37.6445 21.4531 38 20.4492 38.4141 19.418C38.8281 18.3867 39.2852 17.3828 39.7852 16.4062C39.7852 16.1328 39.7852 15.8633 39.7852 15.5977C39.793 15.332 39.7969 15.0742 39.7969 14.8242C39.6953 14.9414 39.5742 15 39.4336 15C39.3008 15 39.1953 14.9531 39.1172 14.8594C39.0391 14.7656 39 14.6641 39 14.5547C39 14.5 39.0117 14.4414 39.0352 14.3789C39.2227 13.9492 39.3672 13.543 39.4688 13.1602C39.5703 12.7695 39.6445 12.4297 39.6914 12.1406C39.7461 11.8438 39.7773 11.6094 39.7852 11.4375C39.793 11.2656 39.7969 11.1758 39.7969 11.168C39.7969 11.0508 39.8398 10.9492 39.9258 10.8633C40.0117 10.7773 40.1172 10.7344 40.2422 10.7344C40.3594 10.7344 40.4609 10.7773 40.5469 10.8633C40.6328 10.9414 40.6758 11.043 40.6758 11.168V14.7656C40.8555 14.4609 41.0352 14.1602 41.2148 13.8633C41.3945 13.5664 41.582 13.3008 41.7773 13.0664C41.9805 12.832 42.1953 12.6445 42.4219 12.5039C42.6562 12.3555 42.9141 12.2812 43.1953 12.2812C43.4609 12.2812 43.7031 12.3438 43.9219 12.4688C44.1406 12.5938 44.3281 12.7656 44.4844 12.9844C44.6406 13.2031 44.7578 13.4648 44.8359 13.7695C44.9219 14.0664 44.9648 14.3867 44.9648 14.7305ZM39.7617 18.4922C39.3789 19.3516 39.0312 20.2148 38.7188 21.082C38.4141 21.9492 38.1562 22.7852 37.9453 23.5898C37.7266 24.3945 37.5586 25.1484 37.4414 25.8516C37.3242 26.5547 37.2656 27.1719 37.2656 27.7031C37.2656 27.8359 37.2734 27.9805 37.2891 28.1367C37.3047 28.293 37.3359 28.4375 37.3828 28.5703C37.4297 28.7031 37.4961 28.8125 37.582 28.8984C37.668 28.9922 37.7812 29.0391 37.9219 29.0391C38.1797 29.0391 38.4023 28.875 38.5898 28.5469C38.7773 28.2266 38.9336 27.7891 39.0586 27.2344C39.1914 26.6875 39.3008 26.0547 39.3867 25.3359C39.4727 24.625 39.5391 23.8789 39.5859 23.0977C39.6406 22.3164 39.6797 21.5273 39.7031 20.7305C39.7266 19.9414 39.7461 19.1953 39.7617 18.4922ZM48.8438 16.7109C49.0078 16.9375 49.2188 17.1211 49.4766 17.2617C49.7344 17.3945 50.0508 17.4609 50.4258 17.4609C50.8086 17.4609 51.1562 17.3711 51.4688 17.1914C51.7812 17.0039 52.0664 16.7617 52.3242 16.4648C52.582 16.168 52.8125 15.8359 53.0156 15.4688C53.2188 15.1016 53.4023 14.7344 53.5664 14.3672C53.6055 14.2812 53.6602 14.2188 53.7305 14.1797C53.8008 14.1328 53.8789 14.1094 53.9648 14.1094C54.0977 14.1094 54.2031 14.1562 54.2812 14.25C54.3672 14.3438 54.4102 14.4453 54.4102 14.5547C54.4102 14.5938 54.4062 14.6289 54.3984 14.6602C54.3906 14.6836 54.3789 14.7109 54.3633 14.7422C53.8242 15.9297 53.2344 16.8242 52.5938 17.4258C51.9609 18.0273 51.2422 18.3359 50.4375 18.3516C49.9219 18.3516 49.4766 18.25 49.1016 18.0469C48.7266 17.8516 48.418 17.5977 48.1758 17.2852C47.9336 16.9648 47.7539 16.6055 47.6367 16.207C47.5195 15.8086 47.4609 15.4102 47.4609 15.0117C47.4609 14.6133 47.5078 14.2461 47.6016 13.9102C47.7031 13.5742 47.8438 13.2812 48.0234 13.0312C48.2109 12.7812 48.4297 12.5859 48.6797 12.4453C48.9375 12.3047 49.2188 12.2344 49.5234 12.2344C49.7031 12.2344 49.8789 12.2734 50.0508 12.3516C50.2305 12.4219 50.3906 12.5273 50.5312 12.668C50.6719 12.8008 50.7852 12.9648 50.8711 13.1602C50.957 13.3555 51 13.5781 51 13.8281C51 14.1484 50.9453 14.4492 50.8359 14.7305C50.7266 15.0117 50.5742 15.2734 50.3789 15.5156C50.1914 15.7578 49.9648 15.9805 49.6992 16.1836C49.4336 16.3867 49.1484 16.5625 48.8438 16.7109ZM48.4922 15.9492C48.7344 15.8477 48.9531 15.7188 49.1484 15.5625C49.3516 15.4062 49.5234 15.2344 49.6641 15.0469C49.8047 14.8594 49.9141 14.6641 49.9922 14.4609C50.0703 14.25 50.1094 14.0391 50.1094 13.8281C50.1094 13.5938 50.0508 13.418 49.9336 13.3008C49.8164 13.1758 49.6797 13.1133 49.5234 13.1133C49.3125 13.1133 49.1328 13.1719 48.9844 13.2891C48.8359 13.4062 48.7148 13.5586 48.6211 13.7461C48.5273 13.9336 48.457 14.1445 48.4102 14.3789C48.3711 14.6055 48.3516 14.832 48.3516 15.0586C48.3516 15.1992 48.3633 15.3477 48.3867 15.5039C48.418 15.6602 48.4531 15.8086 48.4922 15.9492ZM54.8086 13.1836C54.7773 13.3945 54.7383 13.5938 54.6914 13.7812C54.6445 13.9609 54.5977 14.1211 54.5508 14.2617C54.5117 14.3945 54.4766 14.5039 54.4453 14.5898C54.4141 14.6758 54.3945 14.7227 54.3867 14.7305C54.3086 14.9102 54.1719 15 53.9766 15C53.8672 15 53.7656 14.9609 53.6719 14.8828C53.5781 14.7969 53.5312 14.6914 53.5312 14.5664C53.5312 14.5195 53.5391 14.4844 53.5547 14.4609C53.5703 14.4375 53.5938 14.3906 53.625 14.3203C53.6562 14.25 53.6953 14.1328 53.7422 13.9688C53.7891 13.8047 53.8477 13.5508 53.918 13.207C53.7852 13.207 53.6484 13.2031 53.5078 13.1953C53.3672 13.1875 53.2383 13.1602 53.1211 13.1133C52.9961 13.0664 52.8945 12.9922 52.8164 12.8906C52.7383 12.7891 52.6992 12.6484 52.6992 12.4688C52.6992 12.3359 52.7383 12.1562 52.8164 11.9297C52.8867 11.7031 52.9844 11.4805 53.1094 11.2617C53.2344 11.043 53.375 10.8555 53.5312 10.6992C53.6875 10.5352 53.8438 10.4531 54 10.4531C54.1797 10.4531 54.3242 10.5195 54.4336 10.6523C54.5508 10.7852 54.6406 10.9492 54.7031 11.1445C54.7656 11.332 54.8086 11.5312 54.832 11.7422C54.8633 11.9531 54.8789 12.1367 54.8789 12.293C55.0117 12.293 55.1406 12.293 55.2656 12.293C55.3984 12.2852 55.5234 12.2812 55.6406 12.2812C56.0859 12.2812 56.4258 12.3789 56.6602 12.5742C56.8945 12.7695 57.0117 13.0898 57.0117 13.5352C57.0117 13.7148 57 13.9023 56.9766 14.0977C56.9531 14.293 56.9258 14.4961 56.8945 14.707C56.8633 14.9102 56.8359 15.1133 56.8125 15.3164C56.7891 15.5195 56.7773 15.7188 56.7773 15.9141C56.7773 16.1953 56.8164 16.4297 56.8945 16.6172C56.9727 16.7969 57.0703 16.9414 57.1875 17.0508C57.3047 17.1602 57.4297 17.2383 57.5625 17.2852C57.6953 17.3242 57.8164 17.3438 57.9258 17.3438C58.2617 17.3438 58.5781 17.2344 58.875 17.0156C59.1719 16.7969 59.4453 16.5352 59.6953 16.2305C59.9453 15.918 60.168 15.5898 60.3633 15.2461C60.5664 14.9023 60.7344 14.6016 60.8672 14.3438C60.9062 14.2734 60.9609 14.2188 61.0312 14.1797C61.1016 14.1406 61.1758 14.1211 61.2539 14.1211C61.3945 14.1211 61.5039 14.168 61.582 14.2617C61.6602 14.3477 61.6992 14.4453 61.6992 14.5547C61.6992 14.6328 61.6836 14.7031 61.6523 14.7656C61.4727 15.0859 61.2617 15.4492 61.0195 15.8555C60.7852 16.2539 60.5156 16.6289 60.2109 16.9805C59.9062 17.332 59.5625 17.6289 59.1797 17.8711C58.8047 18.1133 58.3906 18.2344 57.9375 18.2344C57.6562 18.2344 57.3906 18.1797 57.1406 18.0703C56.8906 17.9688 56.6719 17.8203 56.4844 17.625C56.3047 17.4219 56.1602 17.1758 56.0508 16.8867C55.9414 16.5898 55.8867 16.2578 55.8867 15.8906C55.8867 15.5 55.9258 15.1133 56.0039 14.7305C56.082 14.3398 56.1211 13.9688 56.1211 13.6172C56.1211 13.4688 56.0859 13.3594 56.0156 13.2891C55.9531 13.2109 55.8086 13.1719 55.582 13.1719C55.4727 13.1719 55.3516 13.1719 55.2188 13.1719C55.0938 13.1719 54.957 13.1758 54.8086 13.1836ZM54.0234 12.3164C54.0234 12.2617 54.0195 12.1914 54.0117 12.1055C54.0117 12.0117 54.0039 11.9219 53.9883 11.8359C53.9805 11.75 53.9648 11.6758 53.9414 11.6133C53.9258 11.5508 53.9062 11.5195 53.8828 11.5195C53.8594 11.5195 53.8281 11.5508 53.7891 11.6133C53.7578 11.668 53.7227 11.7383 53.6836 11.8242C53.6445 11.9023 53.6094 11.9883 53.5781 12.082C53.5469 12.1758 53.5234 12.2539 53.5078 12.3164H54.0234ZM62.168 13.6641C62.1211 13.7891 62.0625 13.9297 61.9922 14.0859C61.9297 14.2422 61.8555 14.4062 61.7695 14.5781C61.6992 14.7109 61.625 14.8164 61.5469 14.8945C61.4766 14.9648 61.3828 15 61.2656 15C61.1328 15 61.0273 14.9609 60.9492 14.8828C60.8711 14.7969 60.832 14.6992 60.832 14.5898C60.832 14.5508 60.8359 14.5195 60.8438 14.4961C60.8516 14.4648 60.8711 14.418 60.9023 14.3555C61.1055 13.9648 61.2539 13.625 61.3477 13.3359C61.4492 13.0391 61.5312 12.7305 61.5938 12.4102C61.5391 12.2305 61.5 12.0781 61.4766 11.9531C61.4531 11.8281 61.4414 11.6992 61.4414 11.5664C61.4414 11.3086 61.4961 11.1016 61.6055 10.9453C61.7148 10.7812 61.8672 10.6992 62.0625 10.6992C62.2422 10.6992 62.3828 10.7773 62.4844 10.9336C62.5938 11.0898 62.6484 11.2812 62.6484 11.5078C62.6484 11.6328 62.6367 11.7578 62.6133 11.8828C62.5898 12.0078 62.5586 12.1641 62.5195 12.3516C62.6992 12.7969 62.8789 13.1914 63.0586 13.5352C63.2383 13.8789 63.3984 14.1953 63.5391 14.4844C63.6797 14.7656 63.793 15.0312 63.8789 15.2812C63.9727 15.5312 64.0195 15.7812 64.0195 16.0312C64.0195 16.3594 63.9531 16.6719 63.8203 16.9688C63.6875 17.2656 63.4688 17.5156 63.1641 17.7188C63.2031 17.7266 63.2422 17.7305 63.2812 17.7305C63.3203 17.7305 63.3594 17.7305 63.3984 17.7305C63.8438 17.7305 64.2539 17.6289 64.6289 17.4258C65.0039 17.2227 65.3398 16.9609 65.6367 16.6406C65.9414 16.3125 66.2109 15.9531 66.4453 15.5625C66.6797 15.1641 66.8828 14.7695 67.0547 14.3789C67.1328 14.1992 67.2422 14.1094 67.3828 14.1094C67.5156 14.1094 67.6172 14.1562 67.6875 14.25C67.7656 14.3438 67.8047 14.4453 67.8047 14.5547C67.8047 14.6172 67.793 14.6758 67.7695 14.7305C67.6836 14.9414 67.5703 15.1836 67.4297 15.457C67.2969 15.7227 67.1328 16 66.9375 16.2891C66.75 16.5703 66.5312 16.8477 66.2812 17.1211C66.0312 17.3945 65.75 17.6406 65.4375 17.8594C65.1328 18.0703 64.7969 18.2383 64.4297 18.3633C64.0625 18.4961 63.6602 18.5625 63.2227 18.5625C62.6992 18.5625 62.2109 18.4688 61.7578 18.2812C61.3125 18.1016 60.9492 17.8008 60.668 17.3789C60.6211 17.3086 60.5977 17.2344 60.5977 17.1562C60.5977 17.0391 60.6406 16.9375 60.7266 16.8516C60.8203 16.7578 60.9258 16.7109 61.043 16.7109C61.168 16.7109 61.2734 16.7539 61.3594 16.8398C61.3672 16.8555 61.3945 16.8828 61.4414 16.9219C61.4883 16.9531 61.543 16.9922 61.6055 17.0391C61.6758 17.0781 61.7539 17.1133 61.8398 17.1445C61.9336 17.1758 62.0273 17.1914 62.1211 17.1914C62.3086 17.1914 62.4648 17.1523 62.5898 17.0742C62.7227 16.9961 62.8281 16.9023 62.9062 16.793C62.9844 16.6758 63.0391 16.5547 63.0703 16.4297C63.1094 16.2969 63.1289 16.1836 63.1289 16.0898C63.1289 15.8945 63.0977 15.6992 63.0352 15.5039C62.9727 15.3086 62.8906 15.1133 62.7891 14.918C62.6953 14.7227 62.5898 14.5234 62.4727 14.3203C62.3633 14.1094 62.2617 13.8906 62.168 13.6641ZM69.3047 17.6602C69.3047 17.8398 69.2422 17.9883 69.1172 18.1055C69 18.2305 68.8516 18.293 68.6719 18.293C68.4922 18.293 68.3398 18.2305 68.2148 18.1055C68.0977 17.9883 68.0391 17.8398 68.0391 17.6602C68.0391 17.4883 68.0977 17.3438 68.2148 17.2266C68.3398 17.1016 68.4922 17.0391 68.6719 17.0391C68.8516 17.0391 69 17.1016 69.1172 17.2266C69.2422 17.3438 69.3047 17.4883 69.3047 17.6602ZM78.9375 14.7539C78.8906 14.8398 78.8086 14.9961 78.6914 15.2227C78.582 15.4492 78.4297 15.707 78.2344 15.9961C78.0469 16.2773 77.8203 16.5703 77.5547 16.875C77.2891 17.1797 76.9844 17.4609 76.6406 17.7188C76.2969 17.9688 75.9102 18.1758 75.4805 18.3398C75.0586 18.5039 74.5977 18.5859 74.0977 18.5859C73.6523 18.5859 73.2578 18.5039 72.9141 18.3398C72.5703 18.1836 72.2773 17.9609 72.0352 17.6719C71.793 17.375 71.6094 17.0273 71.4844 16.6289C71.3594 16.2305 71.2969 15.7891 71.2969 15.3047C71.2969 14.8359 71.3633 14.3984 71.4961 13.9922C71.6289 13.5781 71.8086 13.2188 72.0352 12.9141C72.2695 12.6094 72.5391 12.3711 72.8438 12.1992C73.1484 12.0195 73.4727 11.9297 73.8164 11.9297C74.0742 11.9297 74.3086 11.9766 74.5195 12.0703C74.7305 12.1562 74.9062 12.2734 75.0469 12.4219C75.1953 12.5703 75.3086 12.7344 75.3867 12.9141C75.4727 13.0938 75.5156 13.2734 75.5156 13.4531C75.5156 13.625 75.4922 13.7852 75.4453 13.9336C75.4062 14.082 75.3516 14.2148 75.2812 14.332C75.2188 14.4414 75.1445 14.5312 75.0586 14.6016C74.9727 14.6641 74.8867 14.6953 74.8008 14.6953C74.668 14.6953 74.5586 14.6523 74.4727 14.5664C74.3945 14.4805 74.3555 14.375 74.3555 14.25C74.3555 14.1875 74.3672 14.1328 74.3906 14.0859C74.4219 14.0391 74.4531 13.9922 74.4844 13.9453C74.5234 13.8906 74.5547 13.8281 74.5781 13.7578C74.6094 13.6797 74.625 13.582 74.625 13.4648C74.625 13.3008 74.5469 13.1523 74.3906 13.0195C74.2422 12.8867 74.0508 12.8203 73.8164 12.8203C73.5977 12.8203 73.3867 12.8867 73.1836 13.0195C72.9883 13.1523 72.8164 13.332 72.668 13.5586C72.5195 13.7773 72.3984 14.0391 72.3047 14.3438C72.2188 14.6406 72.1758 14.957 72.1758 15.293C72.1758 15.6133 72.2148 15.918 72.293 16.207C72.3711 16.4961 72.4883 16.7539 72.6445 16.9805C72.8008 17.1992 72.9961 17.375 73.2305 17.5078C73.4727 17.6406 73.7578 17.707 74.0859 17.707C74.5078 17.707 74.8984 17.6328 75.2578 17.4844C75.6172 17.3281 75.9453 17.1328 76.2422 16.8984C76.5391 16.6641 76.8008 16.4102 77.0273 16.1367C77.2539 15.8555 77.4453 15.5938 77.6016 15.3516C77.7656 15.1016 77.8906 14.8867 77.9766 14.707C78.0703 14.5195 78.125 14.4023 78.1406 14.3555C78.1719 14.2773 78.2227 14.2188 78.293 14.1797C78.3711 14.1328 78.4531 14.1094 78.5391 14.1094C78.6719 14.1094 78.7773 14.1562 78.8555 14.25C78.9414 14.3438 78.9844 14.4492 78.9844 14.5664C78.9844 14.6133 78.9688 14.6758 78.9375 14.7539ZM83.543 16.7109C83.3477 16.7109 83.1758 16.6953 83.0273 16.6641C82.9102 16.8984 82.7695 17.1172 82.6055 17.3203C82.4414 17.5156 82.25 17.6875 82.0312 17.8359C81.8203 17.9844 81.582 18.1016 81.3164 18.1875C81.0508 18.2734 80.7617 18.3164 80.4492 18.3164C80.082 18.3164 79.7461 18.25 79.4414 18.1172C79.1367 17.9922 78.8711 17.8164 78.6445 17.5898C78.418 17.3555 78.2422 17.0781 78.1172 16.7578C77.9922 16.4297 77.9297 16.0703 77.9297 15.6797C77.9297 15.1797 78.0195 14.7461 78.1992 14.3789C78.3789 14.0039 78.5859 13.6953 78.8203 13.4531C79.0547 13.2031 79.2891 13.0195 79.5234 12.9023C79.7578 12.7773 79.9336 12.7148 80.0508 12.7148C80.1836 12.7148 80.2812 12.75 80.3438 12.8203C80.4141 12.8906 80.4492 12.9844 80.4492 13.1016C80.4492 13.2344 80.4062 13.3359 80.3203 13.4062C80.2422 13.4688 80.1406 13.5312 80.0156 13.5938C79.8906 13.6562 79.7578 13.7461 79.6172 13.8633C79.4766 13.9727 79.3438 14.1133 79.2188 14.2852C79.1016 14.457 79.0039 14.6602 78.9258 14.8945C78.8477 15.1289 78.8086 15.3906 78.8086 15.6797C78.8086 15.9375 78.8477 16.1797 78.9258 16.4062C79.0039 16.625 79.1172 16.8164 79.2656 16.9805C79.4141 17.1367 79.5898 17.2617 79.793 17.3555C79.9961 17.4414 80.2227 17.4844 80.4727 17.4844C80.918 17.4844 81.2852 17.3828 81.5742 17.1797C81.8711 16.9688 82.0977 16.7031 82.2539 16.3828C81.793 16.1406 81.4141 15.7969 81.1172 15.3516C80.8203 14.9062 80.6719 14.4062 80.6719 13.8516C80.6719 13.4062 80.7773 13.043 80.9883 12.7617C81.207 12.4805 81.4922 12.3398 81.8438 12.3398C82.0547 12.3398 82.2539 12.3906 82.4414 12.4922C82.6289 12.5938 82.793 12.7539 82.9336 12.9727C83.082 13.1914 83.1992 13.4727 83.2852 13.8164C83.3711 14.1602 83.4141 14.5703 83.4141 15.0469C83.4141 15.2969 83.3828 15.5586 83.3203 15.832C83.3672 15.8398 83.4141 15.8438 83.4609 15.8438C83.5078 15.8438 83.5586 15.8438 83.6133 15.8438C83.8789 15.8438 84.1172 15.8125 84.3281 15.75C84.5391 15.6875 84.7305 15.5938 84.9023 15.4688C85.0742 15.3438 85.2266 15.1836 85.3594 14.9883C85.5 14.793 85.6328 14.5664 85.7578 14.3086C85.7812 14.2617 85.832 14.2188 85.9102 14.1797C85.9883 14.1328 86.0664 14.1094 86.1445 14.1094C86.2461 14.1094 86.3398 14.1523 86.4258 14.2383C86.5195 14.3164 86.5664 14.4219 86.5664 14.5547C86.5664 14.6172 86.5508 14.6875 86.5195 14.7656C86.4883 14.8359 86.457 14.9023 86.4258 14.9648C86.293 15.1992 86.1367 15.4258 85.957 15.6445C85.7852 15.8555 85.5781 16.043 85.3359 16.207C85.1016 16.3633 84.8359 16.4883 84.5391 16.582C84.2422 16.6758 83.9102 16.7188 83.543 16.7109ZM81.5391 13.7578C81.5391 13.9062 81.5586 14.0625 81.5977 14.2266C81.6367 14.3906 81.6953 14.5547 81.7734 14.7188C81.8594 14.875 81.9609 15.0273 82.0781 15.1758C82.2031 15.3164 82.3477 15.4375 82.5117 15.5391C82.5352 15.375 82.5469 15.2148 82.5469 15.0586C82.5469 14.8477 82.5312 14.6328 82.5 14.4141C82.4688 14.1953 82.4219 13.9961 82.3594 13.8164C82.3047 13.6289 82.2344 13.4805 82.1484 13.3711C82.0625 13.2539 81.9609 13.1953 81.8438 13.1953C81.7969 13.1953 81.7344 13.2305 81.6562 13.3008C81.5781 13.3711 81.5391 13.5234 81.5391 13.7578ZM88.4414 16.957C88.5586 16.7227 88.707 16.4336 88.8867 16.0898C89.0742 15.7383 89.2656 15.3867 89.4609 15.0352C89.6641 14.6836 89.8594 14.3516 90.0469 14.0391C90.2422 13.7266 90.4062 13.4883 90.5391 13.3242C90.7656 13.0508 91 12.8555 91.2422 12.7383C91.4844 12.6211 91.707 12.5625 91.9102 12.5625C92.1133 12.5625 92.2852 12.6055 92.4258 12.6914C92.5742 12.7773 92.6953 12.8945 92.7891 13.043C92.8828 13.1836 92.9531 13.3516 93 13.5469C93.0469 13.7344 93.0703 13.9375 93.0703 14.1562C93.0703 14.2812 93.0625 14.4453 93.0469 14.6484C93.0391 14.8516 93.0273 15.0703 93.0117 15.3047C93.0039 15.5391 92.9922 15.7812 92.9766 16.0312C92.9688 16.2812 92.9609 16.5156 92.9531 16.7344C93.0703 16.5 93.2031 16.2422 93.3516 15.9609C93.5 15.6719 93.6484 15.3867 93.7969 15.1055C93.9531 14.8242 94.1016 14.5625 94.2422 14.3203C94.3828 14.0703 94.5117 13.8672 94.6289 13.7109C94.9648 13.25 95.2773 12.9414 95.5664 12.7852C95.8633 12.6289 96.125 12.5508 96.3516 12.5508C96.6172 12.5508 96.8359 12.6016 97.0078 12.7031C97.1797 12.7969 97.3125 12.9219 97.4062 13.0781C97.5078 13.2266 97.5781 13.3945 97.6172 13.582C97.6562 13.7695 97.6758 13.9492 97.6758 14.1211C97.6758 14.3867 97.6562 14.6641 97.6172 14.9531C97.5781 15.2422 97.5586 15.5859 97.5586 15.9844C97.5586 16.1484 97.5664 16.3125 97.582 16.4766C97.5977 16.6406 97.6289 16.7852 97.6758 16.9102C97.7305 17.0352 97.8125 17.1367 97.9219 17.2148C98.0312 17.293 98.1797 17.332 98.3672 17.332C98.5703 17.332 98.7695 17.2812 98.9648 17.1797C99.1602 17.0703 99.3477 16.9297 99.5273 16.7578C99.707 16.5859 99.875 16.3906 100.031 16.1719C100.195 15.9531 100.344 15.7344 100.477 15.5156C100.609 15.2969 100.727 15.0898 100.828 14.8945C100.93 14.6914 101.012 14.5195 101.074 14.3789C101.113 14.293 101.168 14.2266 101.238 14.1797C101.309 14.1328 101.387 14.1094 101.473 14.1094C101.605 14.1094 101.711 14.1602 101.789 14.2617C101.875 14.3555 101.918 14.457 101.918 14.5664C101.918 14.6211 101.906 14.6758 101.883 14.7305C101.852 14.793 101.789 14.9258 101.695 15.1289C101.602 15.3242 101.477 15.5508 101.32 15.8086C101.164 16.0586 100.98 16.3242 100.77 16.6055C100.566 16.8867 100.34 17.1484 100.09 17.3906C99.8398 17.625 99.5703 17.8203 99.2812 17.9766C98.9922 18.125 98.6875 18.1992 98.3672 18.1992C98.0234 18.1992 97.7422 18.1367 97.5234 18.0117C97.3125 17.8945 97.1406 17.7344 97.0078 17.5312C96.8828 17.3281 96.7969 17.0938 96.75 16.8281C96.7031 16.5625 96.6797 16.2852 96.6797 15.9961C96.6797 15.6133 96.6992 15.2617 96.7383 14.9414C96.7773 14.6133 96.7969 14.3594 96.7969 14.1797C96.7969 13.9844 96.7773 13.8359 96.7383 13.7344C96.707 13.6328 96.6641 13.5625 96.6094 13.5234C96.5625 13.4766 96.5156 13.4531 96.4688 13.4531C96.4219 13.4453 96.3867 13.4414 96.3633 13.4414C96.1758 13.4414 95.9766 13.5469 95.7656 13.7578C95.5625 13.9609 95.3516 14.2344 95.1328 14.5781C94.9141 14.9219 94.6875 15.3125 94.4531 15.75C94.2266 16.1875 93.9961 16.6328 93.7617 17.0859C93.6289 17.3359 93.5156 17.543 93.4219 17.707C93.3359 17.8711 93.25 18 93.1641 18.0938C93.0859 18.1875 93.0078 18.2539 92.9297 18.293C92.8516 18.332 92.7656 18.3516 92.6719 18.3516C92.4688 18.3516 92.3125 18.2812 92.2031 18.1406C92.1016 18 92.0508 17.8164 92.0508 17.5898C92.0508 17.4727 92.0547 17.3164 92.0625 17.1211C92.0703 16.9258 92.0781 16.7109 92.0859 16.4766C92.0938 16.2422 92.1055 16 92.1211 15.75C92.1367 15.5 92.1484 15.2617 92.1562 15.0352C92.1641 14.8008 92.1719 14.5938 92.1797 14.4141C92.1875 14.2344 92.1914 14.0977 92.1914 14.0039C92.1914 13.8008 92.1562 13.6562 92.0859 13.5703C92.0156 13.4766 91.9336 13.4297 91.8398 13.4297C91.7539 13.4297 91.6562 13.4609 91.5469 13.5234C91.4453 13.5859 91.3242 13.707 91.1836 13.8867C91.0742 14.0273 90.9336 14.2344 90.7617 14.5078C90.5977 14.7734 90.4219 15.0703 90.2344 15.3984C90.0469 15.7266 89.8594 16.0625 89.6719 16.4062C89.4922 16.75 89.3359 17.0586 89.2031 17.332C89.0391 17.6602 88.875 17.8828 88.7109 18C88.5469 18.125 88.3867 18.1875 88.2305 18.1875C88.0039 18.1875 87.8359 18.1211 87.7266 17.9883C87.6172 17.8477 87.5625 17.6641 87.5625 17.4375C87.5625 17.4141 87.5664 17.2734 87.5742 17.0156C87.5898 16.7578 87.6055 16.4453 87.6211 16.0781C87.6367 15.7031 87.6523 15.3047 87.668 14.8828C87.6914 14.4609 87.7109 14.0664 87.7266 13.6992C87.7344 13.5039 87.7266 13.3242 87.7031 13.1602C87.6797 12.9961 87.6484 12.8984 87.6094 12.8672C87.5469 12.8828 87.4219 13.0273 87.2344 13.3008C87.0547 13.5742 86.8242 14.0508 86.543 14.7305C86.5039 14.8164 86.4453 14.8828 86.3672 14.9297C86.2891 14.9766 86.207 15 86.1211 15C85.9883 15 85.8828 14.957 85.8047 14.8711C85.7266 14.7773 85.6875 14.6719 85.6875 14.5547C85.6875 14.5 85.6992 14.4414 85.7227 14.3789C86.0742 13.543 86.4102 12.9297 86.7305 12.5391C87.0508 12.1406 87.3633 11.9414 87.668 11.9414C87.8477 11.9414 87.9961 11.9844 88.1133 12.0703C88.2383 12.1484 88.3359 12.2539 88.4062 12.3867C88.4766 12.5117 88.5273 12.6562 88.5586 12.8203C88.5898 12.9844 88.6055 13.1445 88.6055 13.3008C88.6055 13.9961 88.5859 14.6328 88.5469 15.2109C88.5156 15.7891 88.4805 16.3711 88.4414 16.957Z" fill="black"/>
</svg>
