<svg width="85" height="25" viewBox="0 0 85 25" fill="none" xmlns="http://www.w3.org/2000/svg">
<path d="M1.13281 15.4785C1.61458 15.2637 2.05078 15.0163 2.44141 14.7363C2.83854 14.4564 3.1901 14.1634 3.49609 13.8574C3.80859 13.5449 4.07227 13.2292 4.28711 12.9102C4.50846 12.5846 4.68424 12.2754 4.81445 11.9824C4.87305 11.8392 4.98372 11.7676 5.14648 11.7676C5.25716 11.7676 5.34505 11.8066 5.41016 11.8848C5.48177 11.9564 5.51758 12.0378 5.51758 12.1289C5.51758 12.181 5.50781 12.2298 5.48828 12.2754C5.34505 12.5944 5.16276 12.9264 4.94141 13.2715C4.72005 13.61 4.44987 13.9453 4.13086 14.2773C3.81836 14.6029 3.45052 14.9186 3.02734 15.2246C2.60417 15.5306 2.11914 15.8105 1.57227 16.0645C1.92383 16.429 2.22982 16.8327 2.49023 17.2754C2.75065 17.7246 2.96549 18.1901 3.13477 18.6719C3.31055 19.1536 3.44076 19.6387 3.52539 20.127C3.61654 20.6217 3.66211 21.0938 3.66211 21.543C3.66211 21.9531 3.62305 22.3372 3.54492 22.6953C3.47331 23.0599 3.36263 23.3757 3.21289 23.6426C3.06966 23.9095 2.89388 24.1178 2.68555 24.2676C2.47721 24.4238 2.23958 24.502 1.97266 24.502C1.58203 24.502 1.2793 24.3555 1.06445 24.0625C0.849609 23.776 0.690104 23.3757 0.585938 22.8613C0.488281 22.3535 0.429688 21.7513 0.410156 21.0547C0.397135 20.3646 0.390625 19.6126 0.390625 18.7988C0.390625 18.3952 0.390625 17.9232 0.390625 17.3828C0.390625 16.849 0.390625 16.2728 0.390625 15.6543C0.397135 15.0423 0.400391 14.401 0.400391 13.7305C0.406901 13.0534 0.413411 12.3763 0.419922 11.6992C0.426432 11.0221 0.432943 10.3581 0.439453 9.70703C0.445964 9.04948 0.455729 8.42773 0.46875 7.8418C0.488281 6.72201 0.527344 5.72266 0.585938 4.84375C0.644531 3.96484 0.738932 3.22266 0.869141 2.61719C0.999349 2.01172 1.17513 1.55273 1.39648 1.24023C1.62435 0.921224 1.91081 0.761719 2.25586 0.761719C2.5293 0.761719 2.76042 0.839844 2.94922 0.996094C3.13802 1.14583 3.29102 1.35091 3.4082 1.61133C3.52539 1.86523 3.61003 2.16471 3.66211 2.50977C3.71419 2.85482 3.74023 3.21615 3.74023 3.59375C3.74023 4.38802 3.67188 5.15625 3.53516 5.89844C3.39844 6.64062 3.21289 7.36003 2.97852 8.05664C2.74414 8.75326 2.46745 9.43359 2.14844 10.0977C1.83594 10.7617 1.50065 11.416 1.14258 12.0605C1.14258 12.3275 1.14258 12.6172 1.14258 12.9297C1.14258 13.2357 1.14258 13.5449 1.14258 13.8574C1.14258 14.1634 1.13932 14.4596 1.13281 14.7461C1.13281 15.026 1.13281 15.2702 1.13281 15.4785ZM1.16211 10.5566C1.42904 10.0553 1.67318 9.52799 1.89453 8.97461C2.1224 8.41471 2.31771 7.83854 2.48047 7.24609C2.64323 6.65365 2.77018 6.04818 2.86133 5.42969C2.95247 4.8112 2.99805 4.18945 2.99805 3.56445C2.99805 3.25195 2.98177 2.96875 2.94922 2.71484C2.92318 2.46094 2.8776 2.24609 2.8125 2.07031C2.75391 1.88802 2.67578 1.74805 2.57812 1.65039C2.48698 1.54622 2.37956 1.49414 2.25586 1.49414C2.12565 1.49414 2.01172 1.57227 1.91406 1.72852C1.81641 1.88477 1.73177 2.0931 1.66016 2.35352C1.58854 2.61393 1.52669 2.91341 1.47461 3.25195C1.42904 3.59049 1.38997 3.94531 1.35742 4.31641C1.32487 4.68099 1.29883 5.04883 1.2793 5.41992C1.25977 5.78451 1.24349 6.12956 1.23047 6.45508C1.22396 6.77409 1.21745 7.05729 1.21094 7.30469C1.21094 7.55208 1.21094 7.73763 1.21094 7.86133C1.20443 8.12174 1.19792 8.35286 1.19141 8.55469C1.19141 8.75651 1.18815 8.95508 1.18164 9.15039C1.17513 9.3457 1.16862 9.55404 1.16211 9.77539C1.16211 9.99674 1.16211 10.2572 1.16211 10.5566ZM1.13281 16.6797C1.13281 17.0898 1.12956 17.4707 1.12305 17.8223C1.12305 18.1803 1.12305 18.5059 1.12305 18.7988C1.12305 19.4043 1.1263 20.0033 1.13281 20.5957C1.13932 21.1882 1.16862 21.7188 1.2207 22.1875C1.2793 22.6628 1.36393 23.0436 1.47461 23.3301C1.5918 23.623 1.75781 23.7695 1.97266 23.7695C2.16797 23.7695 2.32747 23.6816 2.45117 23.5059C2.57487 23.3301 2.66927 23.1217 2.73438 22.8809C2.80599 22.64 2.85482 22.3926 2.88086 22.1387C2.9069 21.8913 2.91992 21.6895 2.91992 21.5332C2.91992 21.1361 2.88086 20.7194 2.80273 20.2832C2.73112 19.847 2.61719 19.4141 2.46094 18.9844C2.3112 18.5612 2.12565 18.151 1.9043 17.7539C1.68294 17.3568 1.42578 16.9987 1.13281 16.6797ZM9.32617 13.9258C9.16341 13.9258 9.02018 13.9128 8.89648 13.8867C8.79883 14.082 8.68164 14.2643 8.54492 14.4336C8.4082 14.5964 8.2487 14.7396 8.06641 14.8633C7.89062 14.987 7.69206 15.0846 7.4707 15.1562C7.24935 15.2279 7.00846 15.2637 6.74805 15.2637C6.44206 15.2637 6.16211 15.2083 5.9082 15.0977C5.6543 14.9935 5.43294 14.847 5.24414 14.6582C5.05534 14.4629 4.90885 14.2318 4.80469 13.9648C4.70052 13.6914 4.64844 13.3919 4.64844 13.0664C4.64844 12.6497 4.72331 12.2884 4.87305 11.9824C5.02279 11.6699 5.19531 11.4128 5.39062 11.2109C5.58594 11.0026 5.78125 10.8496 5.97656 10.752C6.17188 10.6478 6.31836 10.5957 6.41602 10.5957C6.52669 10.5957 6.60807 10.625 6.66016 10.6836C6.71875 10.7422 6.74805 10.8203 6.74805 10.918C6.74805 11.0286 6.71224 11.1133 6.64062 11.1719C6.57552 11.224 6.49089 11.276 6.38672 11.3281C6.28255 11.3802 6.17188 11.4551 6.05469 11.5527C5.9375 11.6439 5.82682 11.7611 5.72266 11.9043C5.625 12.0475 5.54362 12.2168 5.47852 12.4121C5.41341 12.6074 5.38086 12.8255 5.38086 13.0664C5.38086 13.2812 5.41341 13.4831 5.47852 13.6719C5.54362 13.8542 5.63802 14.0137 5.76172 14.1504C5.88542 14.2806 6.0319 14.3848 6.20117 14.4629C6.37044 14.5345 6.55924 14.5703 6.76758 14.5703C7.13867 14.5703 7.44466 14.4857 7.68555 14.3164C7.93294 14.1406 8.12174 13.9193 8.25195 13.6523C7.86784 13.4505 7.55208 13.1641 7.30469 12.793C7.05729 12.4219 6.93359 12.0052 6.93359 11.543C6.93359 11.1719 7.02148 10.8691 7.19727 10.6348C7.37956 10.4004 7.61719 10.2832 7.91016 10.2832C8.08594 10.2832 8.25195 10.3255 8.4082 10.4102C8.56445 10.4948 8.70117 10.6283 8.81836 10.8105C8.94206 10.9928 9.03971 11.2272 9.11133 11.5137C9.18294 11.8001 9.21875 12.1419 9.21875 12.5391C9.21875 12.7474 9.19271 12.9655 9.14062 13.1934C9.17969 13.1999 9.21875 13.2031 9.25781 13.2031C9.29688 13.2031 9.33919 13.2031 9.38477 13.2031C9.60612 13.2031 9.80469 13.1771 9.98047 13.125C10.1562 13.0729 10.3158 12.9948 10.459 12.8906C10.6022 12.7865 10.7292 12.653 10.8398 12.4902C10.957 12.3275 11.0677 12.1387 11.1719 11.9238C11.1914 11.8848 11.2337 11.849 11.2988 11.8164C11.3639 11.7773 11.429 11.7578 11.4941 11.7578C11.5788 11.7578 11.6569 11.7936 11.7285 11.8652C11.8066 11.9303 11.8457 12.0182 11.8457 12.1289C11.8457 12.181 11.8327 12.2396 11.8066 12.3047C11.7806 12.3633 11.7546 12.4186 11.7285 12.4707C11.6178 12.666 11.4876 12.8548 11.3379 13.0371C11.1947 13.2129 11.0221 13.3691 10.8203 13.5059C10.625 13.6361 10.4036 13.7402 10.1562 13.8184C9.90885 13.8965 9.63216 13.9323 9.32617 13.9258ZM7.65625 11.4648C7.65625 11.5885 7.67253 11.7188 7.70508 11.8555C7.73763 11.9922 7.78646 12.1289 7.85156 12.2656C7.92318 12.3958 8.00781 12.5228 8.10547 12.6465C8.20964 12.7637 8.33008 12.8646 8.4668 12.9492C8.48633 12.8125 8.49609 12.679 8.49609 12.5488C8.49609 12.373 8.48307 12.194 8.45703 12.0117C8.43099 11.8294 8.39193 11.6634 8.33984 11.5137C8.29427 11.3574 8.23568 11.2337 8.16406 11.1426C8.09245 11.0449 8.00781 10.9961 7.91016 10.9961C7.87109 10.9961 7.81901 11.0254 7.75391 11.084C7.6888 11.1426 7.65625 11.2695 7.65625 11.4648ZM16.9727 9.47266C15.9701 10.7096 15.0553 12.0117 14.2285 13.3789C14.4564 13.7174 14.707 13.9974 14.9805 14.2188C15.2539 14.4401 15.5632 14.5508 15.9082 14.5508C16.2142 14.5508 16.5039 14.4629 16.7773 14.2871C17.0508 14.1113 17.2982 13.8965 17.5195 13.6426C17.7474 13.3822 17.9427 13.1055 18.1055 12.8125C18.2747 12.513 18.4049 12.2428 18.4961 12.002C18.5612 11.8392 18.6751 11.7578 18.8379 11.7578C18.9486 11.7578 19.0365 11.7969 19.1016 11.875C19.1732 11.9466 19.209 12.0312 19.209 12.1289C19.209 12.1615 19.2025 12.2038 19.1895 12.2559C19.196 12.2428 19.1667 12.3079 19.1016 12.4512C19.0365 12.5944 18.9388 12.7799 18.8086 13.0078C18.6784 13.2292 18.5189 13.4733 18.3301 13.7402C18.1413 14.0072 17.9232 14.2578 17.6758 14.4922C17.4349 14.7201 17.1647 14.9089 16.8652 15.0586C16.5658 15.2148 16.2435 15.293 15.8984 15.293C15.4688 15.293 15.0814 15.179 14.7363 14.9512C14.3978 14.7233 14.0918 14.4336 13.8184 14.082C13.7077 14.2773 13.6003 14.4727 13.4961 14.668C13.3919 14.8633 13.2878 15.0586 13.1836 15.2539C13.112 15.3906 13.0013 15.459 12.8516 15.459C12.7409 15.459 12.6497 15.4199 12.5781 15.3418C12.513 15.2637 12.4805 15.179 12.4805 15.0879C12.4805 15.0358 12.4967 14.9772 12.5293 14.9121C12.6595 14.6582 12.793 14.4043 12.9297 14.1504C13.0664 13.8965 13.2096 13.6458 13.3594 13.3984C13.138 13.0143 12.9492 12.6237 12.793 12.2266C12.6367 11.8229 12.513 11.4453 12.4219 11.0938L11.8457 12.2852C11.7741 12.4284 11.6634 12.5 11.5137 12.5C11.403 12.5 11.3118 12.4609 11.2402 12.3828C11.1751 12.3047 11.1426 12.2201 11.1426 12.1289C11.1426 12.0703 11.1556 12.0182 11.1816 11.9727L12.2461 9.74609C12.2786 9.6875 12.3242 9.63867 12.3828 9.59961C12.4414 9.56055 12.5065 9.54102 12.5781 9.54102C12.6823 9.54102 12.7669 9.57682 12.832 9.64844C12.8971 9.71354 12.9362 9.79492 12.9492 9.89258C12.9557 9.98372 12.9785 10.127 13.0176 10.3223C13.0632 10.5176 13.1217 10.7422 13.1934 10.9961C13.2715 11.2435 13.3594 11.5104 13.457 11.7969C13.5612 12.0833 13.6816 12.3665 13.8184 12.6465C14.5996 11.377 15.4622 10.1628 16.4062 9.00391C16.4714 8.91927 16.5658 8.87695 16.6895 8.87695C16.7936 8.87695 16.8815 8.91276 16.9531 8.98438C17.0247 9.05599 17.0605 9.14062 17.0605 9.23828C17.0605 9.32943 17.0312 9.40755 16.9727 9.47266ZM23.5254 12.2754C23.5254 12.8743 23.418 13.3854 23.2031 13.8086C22.9883 14.2318 22.7246 14.554 22.4121 14.7754H22.4512C22.8353 14.7754 23.1836 14.6908 23.4961 14.5215C23.8151 14.3457 24.1016 14.1243 24.3555 13.8574C24.6094 13.584 24.8372 13.2812 25.0391 12.9492C25.2409 12.6172 25.4199 12.2949 25.5762 11.9824C25.6087 11.9108 25.6543 11.8555 25.7129 11.8164C25.778 11.7773 25.8464 11.7578 25.918 11.7578C26.0286 11.7578 26.1165 11.7969 26.1816 11.875C26.2467 11.9531 26.2793 12.0378 26.2793 12.1289C26.2793 12.181 26.2695 12.2298 26.25 12.2754C26.0807 12.653 25.8789 13.0339 25.6445 13.418C25.4102 13.7956 25.1367 14.1374 24.8242 14.4434C24.5117 14.7493 24.1602 14.9967 23.7695 15.1855C23.3789 15.3809 22.946 15.4785 22.4707 15.4785C22.1257 15.4785 21.7904 15.4232 21.4648 15.3125C21.1393 15.2083 20.8529 15.0423 20.6055 14.8145C20.5143 14.7428 20.4362 14.668 20.3711 14.5898C20.306 14.5052 20.2539 14.4271 20.2148 14.3555C20.2018 14.3424 20.1953 14.3294 20.1953 14.3164C20.1562 14.2578 20.1367 14.196 20.1367 14.1309C20.1367 14.0462 20.166 13.9681 20.2246 13.8965C20.2311 13.8835 20.2376 13.877 20.2441 13.877C20.2507 13.8704 20.2572 13.8639 20.2637 13.8574C20.3288 13.7988 20.4004 13.7663 20.4785 13.7598H20.5078C20.5404 13.7598 20.5632 13.763 20.5762 13.7695C20.5827 13.7695 20.5859 13.7728 20.5859 13.7793C20.5924 13.7793 20.599 13.7793 20.6055 13.7793C20.625 13.7793 20.6478 13.7858 20.6738 13.7988C20.6803 13.8053 20.6868 13.8086 20.6934 13.8086C20.752 13.8477 20.8008 13.8965 20.8398 13.9551C20.8854 14.0332 20.9375 14.1048 20.9961 14.1699C21.0482 14.222 21.11 14.2708 21.1816 14.3164C21.2533 14.3555 21.3346 14.375 21.4258 14.375C21.5885 14.375 21.7513 14.3262 21.9141 14.2285C22.0768 14.1309 22.2233 13.9909 22.3535 13.8086C22.4837 13.6263 22.5879 13.4049 22.666 13.1445C22.7507 12.8841 22.793 12.5944 22.793 12.2754C22.793 12.041 22.7669 11.8424 22.7148 11.6797C22.6693 11.5104 22.6074 11.3737 22.5293 11.2695C22.4577 11.1654 22.3796 11.0905 22.2949 11.0449C22.2103 10.9928 22.1289 10.9668 22.0508 10.9668C21.875 10.9668 21.696 11.0579 21.5137 11.2402C21.3379 11.4225 21.1621 11.6536 20.9863 11.9336C20.8105 12.2135 20.6348 12.5228 20.459 12.8613C20.2897 13.1999 20.1172 13.5286 19.9414 13.8477C19.9284 14.9023 19.9089 15.9082 19.8828 16.8652C19.8633 17.8223 19.8242 18.7109 19.7656 19.5312C19.7135 20.3516 19.6387 21.0938 19.541 21.7578C19.4434 22.4219 19.3099 22.9883 19.1406 23.457C18.9714 23.9323 18.763 24.2969 18.5156 24.5508C18.2682 24.8047 17.9655 24.9316 17.6074 24.9316C17.4967 24.9316 17.3698 24.9089 17.2266 24.8633C17.0833 24.8177 16.9499 24.7233 16.8262 24.5801C16.7025 24.4434 16.5983 24.2448 16.5137 23.9844C16.429 23.724 16.3867 23.3757 16.3867 22.9395C16.3867 22.3861 16.4551 21.7448 16.5918 21.0156C16.7285 20.2865 16.9238 19.5117 17.1777 18.6914C17.4251 17.8776 17.7214 17.041 18.0664 16.1816C18.4115 15.3223 18.7923 14.4857 19.209 13.6719C19.209 13.444 19.209 13.2194 19.209 12.998C19.2155 12.7767 19.2188 12.5618 19.2188 12.3535C19.1341 12.4512 19.0332 12.5 18.916 12.5C18.8053 12.5 18.7174 12.4609 18.6523 12.3828C18.5872 12.3047 18.5547 12.2201 18.5547 12.1289C18.5547 12.0833 18.5645 12.0345 18.584 11.9824C18.7402 11.6243 18.8607 11.2858 18.9453 10.9668C19.0299 10.6413 19.0918 10.3581 19.1309 10.1172C19.1764 9.86979 19.2025 9.67448 19.209 9.53125C19.2155 9.38802 19.2188 9.31315 19.2188 9.30664C19.2188 9.20898 19.2546 9.12435 19.3262 9.05273C19.3978 8.98112 19.4857 8.94531 19.5898 8.94531C19.6875 8.94531 19.7721 8.98112 19.8438 9.05273C19.9154 9.11784 19.9512 9.20247 19.9512 9.30664V12.3047C20.1009 12.0508 20.2507 11.8001 20.4004 11.5527C20.5501 11.3053 20.7064 11.084 20.8691 10.8887C21.0384 10.6934 21.2174 10.5371 21.4062 10.4199C21.6016 10.2962 21.8164 10.2344 22.0508 10.2344C22.2721 10.2344 22.474 10.2865 22.6562 10.3906C22.8385 10.4948 22.9948 10.638 23.125 10.8203C23.2552 11.0026 23.3529 11.2207 23.418 11.4746C23.4896 11.722 23.5254 11.9889 23.5254 12.2754ZM19.1895 15.4102C18.8704 16.1263 18.5807 16.8457 18.3203 17.5684C18.0664 18.291 17.8516 18.9876 17.6758 19.6582C17.4935 20.3288 17.3535 20.957 17.2559 21.543C17.1582 22.1289 17.1094 22.6432 17.1094 23.0859C17.1094 23.1966 17.1159 23.3171 17.1289 23.4473C17.1419 23.5775 17.168 23.6979 17.207 23.8086C17.2461 23.9193 17.3014 24.0104 17.373 24.082C17.4447 24.1602 17.5391 24.1992 17.6562 24.1992C17.8711 24.1992 18.0566 24.0625 18.2129 23.7891C18.3691 23.5221 18.4993 23.1576 18.6035 22.6953C18.7142 22.2396 18.8053 21.7122 18.877 21.1133C18.9486 20.5208 19.0039 19.8991 19.043 19.248C19.0885 18.597 19.1211 17.9395 19.1406 17.2754C19.1602 16.6178 19.1764 15.9961 19.1895 15.4102ZM33.1348 12.2754C33.1087 12.3275 33.0534 12.4382 32.9688 12.6074C32.8906 12.7702 32.7865 12.959 32.6562 13.1738C32.5326 13.3887 32.3861 13.6133 32.2168 13.8477C32.0475 14.082 31.8587 14.2969 31.6504 14.4922C31.4421 14.6875 31.2174 14.8503 30.9766 14.9805C30.7357 15.1042 30.4818 15.166 30.2148 15.166C29.8372 15.166 29.5182 15.0456 29.2578 14.8047C29.0039 14.5638 28.8184 14.2611 28.7012 13.8965C28.4798 14.2676 28.2161 14.5638 27.9102 14.7852C27.6042 15 27.2982 15.1074 26.9922 15.1074C26.7513 15.1074 26.5332 15.0651 26.3379 14.9805C26.1426 14.8893 25.9766 14.7656 25.8398 14.6094C25.7031 14.4466 25.5957 14.2578 25.5176 14.043C25.446 13.8281 25.4102 13.5938 25.4102 13.3398C25.4102 12.832 25.4948 12.3861 25.6641 12.002C25.8398 11.6113 26.0612 11.2858 26.3281 11.0254C26.5951 10.765 26.888 10.5697 27.207 10.4395C27.5326 10.3092 27.8451 10.2441 28.1445 10.2441C28.3464 10.2441 28.5319 10.2734 28.7012 10.332C28.8704 10.3841 29.0137 10.4427 29.1309 10.5078C29.2546 10.5729 29.349 10.6348 29.4141 10.6934C29.4792 10.7454 29.515 10.7747 29.5215 10.7812C29.5931 10.8659 29.6289 10.9538 29.6289 11.0449C29.6289 11.1426 29.5931 11.2305 29.5215 11.3086C29.4499 11.3802 29.3652 11.416 29.2676 11.416C29.1634 11.416 29.0755 11.3802 29.0039 11.3086C28.9909 11.2956 28.9616 11.2728 28.916 11.2402C28.8704 11.2012 28.8086 11.1621 28.7305 11.123C28.6523 11.084 28.5579 11.0514 28.4473 11.0254C28.3431 10.9928 28.2227 10.9766 28.0859 10.9766C27.8841 10.9766 27.6693 11.0221 27.4414 11.1133C27.2135 11.2044 27.0052 11.3477 26.8164 11.543C26.6276 11.7318 26.4681 11.9727 26.3379 12.2656C26.2142 12.5521 26.1523 12.8939 26.1523 13.291C26.1523 13.4147 26.1654 13.5417 26.1914 13.6719C26.2174 13.7956 26.263 13.9095 26.3281 14.0137C26.3932 14.1178 26.4811 14.2025 26.5918 14.2676C26.7025 14.3327 26.8392 14.3652 27.002 14.3652C27.1191 14.3652 27.2526 14.3262 27.4023 14.248C27.5586 14.1699 27.7051 14.0495 27.8418 13.8867C27.985 13.724 28.112 13.5189 28.2227 13.2715C28.3398 13.0241 28.4212 12.7311 28.4668 12.3926C28.4798 12.3014 28.5221 12.2266 28.5938 12.168C28.6654 12.1029 28.75 12.0703 28.8477 12.0703C28.9388 12.0703 29.0169 12.1061 29.082 12.1777C29.1536 12.2493 29.1927 12.3307 29.1992 12.4219C29.2057 12.5456 29.2188 12.7214 29.2383 12.9492C29.2578 13.1706 29.3001 13.3919 29.3652 13.6133C29.4368 13.8346 29.541 14.0267 29.6777 14.1895C29.8145 14.3522 30.0033 14.4336 30.2441 14.4336C30.4004 14.4336 30.5534 14.3913 30.7031 14.3066C30.8594 14.222 31.0091 14.1113 31.1523 13.9746C31.3021 13.8314 31.4421 13.6719 31.5723 13.4961C31.709 13.3138 31.8327 13.1315 31.9434 12.9492C32.054 12.7669 32.1517 12.5911 32.2363 12.4219C32.321 12.2526 32.3926 12.1061 32.4512 11.9824C32.4837 11.9108 32.5293 11.8555 32.5879 11.8164C32.653 11.7773 32.7214 11.7578 32.793 11.7578C32.9036 11.7578 32.9915 11.8001 33.0566 11.8848C33.1283 11.9629 33.1641 12.0475 33.1641 12.1387C33.1641 12.1842 33.1543 12.2298 33.1348 12.2754ZM37.4707 12.2754C37.4707 12.8743 37.3633 13.3854 37.1484 13.8086C36.9336 14.2318 36.6699 14.554 36.3574 14.7754H36.3965C36.7806 14.7754 37.1289 14.6908 37.4414 14.5215C37.7604 14.3457 38.0469 14.1243 38.3008 13.8574C38.5547 13.584 38.7826 13.2812 38.9844 12.9492C39.1862 12.6172 39.3652 12.2949 39.5215 11.9824C39.554 11.9108 39.5996 11.8555 39.6582 11.8164C39.7233 11.7773 39.7917 11.7578 39.8633 11.7578C39.974 11.7578 40.0618 11.7969 40.127 11.875C40.1921 11.9531 40.2246 12.0378 40.2246 12.1289C40.2246 12.181 40.2148 12.2298 40.1953 12.2754C40.026 12.653 39.8242 13.0339 39.5898 13.418C39.3555 13.7956 39.082 14.1374 38.7695 14.4434C38.457 14.7493 38.1055 14.9967 37.7148 15.1855C37.3242 15.3809 36.8913 15.4785 36.416 15.4785C36.071 15.4785 35.7357 15.4232 35.4102 15.3125C35.0846 15.2083 34.7982 15.0423 34.5508 14.8145C34.4596 14.7428 34.3815 14.668 34.3164 14.5898C34.2513 14.5052 34.1992 14.4271 34.1602 14.3555C34.1471 14.3424 34.1406 14.3294 34.1406 14.3164C34.1016 14.2578 34.082 14.196 34.082 14.1309C34.082 14.0462 34.1113 13.9681 34.1699 13.8965C34.1764 13.8835 34.1829 13.877 34.1895 13.877C34.196 13.8704 34.2025 13.8639 34.209 13.8574C34.2741 13.7988 34.3457 13.7663 34.4238 13.7598H34.4531C34.4857 13.7598 34.5085 13.763 34.5215 13.7695C34.528 13.7695 34.5312 13.7728 34.5312 13.7793C34.5378 13.7793 34.5443 13.7793 34.5508 13.7793C34.5703 13.7793 34.5931 13.7858 34.6191 13.7988C34.6257 13.8053 34.6322 13.8086 34.6387 13.8086C34.6973 13.8477 34.7461 13.8965 34.7852 13.9551C34.8307 14.0332 34.8828 14.1048 34.9414 14.1699C34.9935 14.222 35.0553 14.2708 35.127 14.3164C35.1986 14.3555 35.2799 14.375 35.3711 14.375C35.5339 14.375 35.6966 14.3262 35.8594 14.2285C36.0221 14.1309 36.1686 13.9909 36.2988 13.8086C36.429 13.6263 36.5332 13.4049 36.6113 13.1445C36.696 12.8841 36.7383 12.5944 36.7383 12.2754C36.7383 12.041 36.7122 11.8424 36.6602 11.6797C36.6146 11.5104 36.5527 11.3737 36.4746 11.2695C36.403 11.1654 36.3249 11.0905 36.2402 11.0449C36.1556 10.9928 36.0742 10.9668 35.9961 10.9668C35.8203 10.9668 35.6413 11.0579 35.459 11.2402C35.2832 11.4225 35.1074 11.6536 34.9316 11.9336C34.7559 12.2135 34.5801 12.5228 34.4043 12.8613C34.235 13.1999 34.0625 13.5286 33.8867 13.8477C33.8737 14.9023 33.8542 15.9082 33.8281 16.8652C33.8086 17.8223 33.7695 18.7109 33.7109 19.5312C33.6589 20.3516 33.584 21.0938 33.4863 21.7578C33.3887 22.4219 33.2552 22.9883 33.0859 23.457C32.9167 23.9323 32.7083 24.2969 32.4609 24.5508C32.2135 24.8047 31.9108 24.9316 31.5527 24.9316C31.4421 24.9316 31.3151 24.9089 31.1719 24.8633C31.0286 24.8177 30.8952 24.7233 30.7715 24.5801C30.6478 24.4434 30.5436 24.2448 30.459 23.9844C30.3743 23.724 30.332 23.3757 30.332 22.9395C30.332 22.3861 30.4004 21.7448 30.5371 21.0156C30.6738 20.2865 30.8691 19.5117 31.123 18.6914C31.3704 17.8776 31.6667 17.041 32.0117 16.1816C32.3568 15.3223 32.7376 14.4857 33.1543 13.6719C33.1543 13.444 33.1543 13.2194 33.1543 12.998C33.1608 12.7767 33.1641 12.5618 33.1641 12.3535C33.0794 12.4512 32.9785 12.5 32.8613 12.5C32.7507 12.5 32.6628 12.4609 32.5977 12.3828C32.5326 12.3047 32.5 12.2201 32.5 12.1289C32.5 12.0833 32.5098 12.0345 32.5293 11.9824C32.6855 11.6243 32.806 11.2858 32.8906 10.9668C32.9753 10.6413 33.0371 10.3581 33.0762 10.1172C33.1217 9.86979 33.1478 9.67448 33.1543 9.53125C33.1608 9.38802 33.1641 9.31315 33.1641 9.30664C33.1641 9.20898 33.1999 9.12435 33.2715 9.05273C33.3431 8.98112 33.431 8.94531 33.5352 8.94531C33.6328 8.94531 33.7174 8.98112 33.7891 9.05273C33.8607 9.11784 33.8965 9.20247 33.8965 9.30664V12.3047C34.0462 12.0508 34.196 11.8001 34.3457 11.5527C34.4954 11.3053 34.6517 11.084 34.8145 10.8887C34.9837 10.6934 35.1628 10.5371 35.3516 10.4199C35.5469 10.2962 35.7617 10.2344 35.9961 10.2344C36.2174 10.2344 36.4193 10.2865 36.6016 10.3906C36.7839 10.4948 36.9401 10.638 37.0703 10.8203C37.2005 11.0026 37.2982 11.2207 37.3633 11.4746C37.4349 11.722 37.4707 11.9889 37.4707 12.2754ZM33.1348 15.4102C32.8158 16.1263 32.526 16.8457 32.2656 17.5684C32.0117 18.291 31.7969 18.9876 31.6211 19.6582C31.4388 20.3288 31.2988 20.957 31.2012 21.543C31.1035 22.1289 31.0547 22.6432 31.0547 23.0859C31.0547 23.1966 31.0612 23.3171 31.0742 23.4473C31.0872 23.5775 31.1133 23.6979 31.1523 23.8086C31.1914 23.9193 31.2467 24.0104 31.3184 24.082C31.39 24.1602 31.4844 24.1992 31.6016 24.1992C31.8164 24.1992 32.002 24.0625 32.1582 23.7891C32.3145 23.5221 32.4447 23.1576 32.5488 22.6953C32.6595 22.2396 32.7507 21.7122 32.8223 21.1133C32.8939 20.5208 32.9492 19.8991 32.9883 19.248C33.0339 18.597 33.0664 17.9395 33.0859 17.2754C33.1055 16.6178 33.1217 15.9961 33.1348 15.4102ZM40.7031 13.9258C40.8398 14.1146 41.0156 14.2676 41.2305 14.3848C41.4453 14.4954 41.709 14.5508 42.0215 14.5508C42.3405 14.5508 42.6302 14.4759 42.8906 14.3262C43.151 14.1699 43.3887 13.9681 43.6035 13.7207C43.8184 13.4733 44.0104 13.1966 44.1797 12.8906C44.349 12.5846 44.502 12.2786 44.6387 11.9727C44.6712 11.901 44.7168 11.849 44.7754 11.8164C44.834 11.7773 44.8991 11.7578 44.9707 11.7578C45.0814 11.7578 45.1693 11.7969 45.2344 11.875C45.306 11.9531 45.3418 12.0378 45.3418 12.1289C45.3418 12.1615 45.3385 12.1908 45.332 12.2168C45.3255 12.2363 45.3158 12.2591 45.3027 12.2852C44.8535 13.2747 44.362 14.0202 43.8281 14.5215C43.3008 15.0228 42.7018 15.2799 42.0312 15.293C41.6016 15.293 41.2305 15.2083 40.918 15.0391C40.6055 14.8763 40.3483 14.6647 40.1465 14.4043C39.9447 14.1374 39.7949 13.8379 39.6973 13.5059C39.5996 13.1738 39.5508 12.8418 39.5508 12.5098C39.5508 12.1777 39.5898 11.8717 39.668 11.5918C39.7526 11.3118 39.8698 11.0677 40.0195 10.8594C40.1758 10.651 40.3581 10.4883 40.5664 10.3711C40.7812 10.2539 41.0156 10.1953 41.2695 10.1953C41.4193 10.1953 41.5658 10.2279 41.709 10.293C41.8587 10.3516 41.9922 10.4395 42.1094 10.5566C42.2266 10.6673 42.321 10.804 42.3926 10.9668C42.4642 11.1296 42.5 11.3151 42.5 11.5234C42.5 11.7904 42.4544 12.041 42.3633 12.2754C42.2721 12.5098 42.1452 12.7279 41.9824 12.9297C41.8262 13.1315 41.6374 13.3171 41.416 13.4863C41.1947 13.6556 40.957 13.8021 40.7031 13.9258ZM40.4102 13.291C40.612 13.2064 40.7943 13.099 40.957 12.9688C41.1263 12.8385 41.2695 12.6953 41.3867 12.5391C41.5039 12.3828 41.5951 12.2201 41.6602 12.0508C41.7253 11.875 41.7578 11.6992 41.7578 11.5234C41.7578 11.3281 41.709 11.1816 41.6113 11.084C41.5137 10.9798 41.3997 10.9277 41.2695 10.9277C41.0938 10.9277 40.944 10.9766 40.8203 11.0742C40.6966 11.1719 40.5957 11.2988 40.5176 11.4551C40.4395 11.6113 40.3809 11.7871 40.3418 11.9824C40.3092 12.1712 40.293 12.36 40.293 12.5488C40.293 12.666 40.3027 12.7897 40.3223 12.9199C40.3483 13.0501 40.3776 13.1738 40.4102 13.291ZM45.6738 10.9863C45.6478 11.1621 45.6152 11.3281 45.5762 11.4844C45.5371 11.6341 45.498 11.7676 45.459 11.8848C45.4264 11.9954 45.3971 12.0866 45.3711 12.1582C45.3451 12.2298 45.3288 12.2689 45.3223 12.2754C45.2572 12.4251 45.1432 12.5 44.9805 12.5C44.8893 12.5 44.8047 12.4674 44.7266 12.4023C44.6484 12.3307 44.6094 12.2428 44.6094 12.1387C44.6094 12.0996 44.6159 12.0703 44.6289 12.0508C44.6419 12.0312 44.6615 11.9922 44.6875 11.9336C44.7135 11.875 44.7461 11.7773 44.7852 11.6406C44.8242 11.5039 44.873 11.2923 44.9316 11.0059C44.821 11.0059 44.707 11.0026 44.5898 10.9961C44.4727 10.9896 44.3652 10.9668 44.2676 10.9277C44.1634 10.8887 44.0788 10.8268 44.0137 10.7422C43.9486 10.6576 43.916 10.5404 43.916 10.3906C43.916 10.2799 43.9486 10.1302 44.0137 9.94141C44.0723 9.7526 44.1536 9.56706 44.2578 9.38477C44.362 9.20247 44.4792 9.04622 44.6094 8.91602C44.7396 8.7793 44.8698 8.71094 45 8.71094C45.1497 8.71094 45.2702 8.76628 45.3613 8.87695C45.459 8.98763 45.5339 9.12435 45.5859 9.28711C45.638 9.44336 45.6738 9.60938 45.6934 9.78516C45.7194 9.96094 45.7324 10.1139 45.7324 10.2441C45.8431 10.2441 45.9505 10.2441 46.0547 10.2441C46.1654 10.2376 46.2695 10.2344 46.3672 10.2344C46.7383 10.2344 47.0215 10.3158 47.2168 10.4785C47.4121 10.6413 47.5098 10.9082 47.5098 11.2793C47.5098 11.429 47.5 11.5853 47.4805 11.748C47.4609 11.9108 47.4382 12.0801 47.4121 12.2559C47.3861 12.4251 47.3633 12.5944 47.3438 12.7637C47.3242 12.9329 47.3145 13.099 47.3145 13.2617C47.3145 13.4961 47.347 13.6914 47.4121 13.8477C47.4772 13.9974 47.5586 14.1178 47.6562 14.209C47.7539 14.3001 47.8581 14.3652 47.9688 14.4043C48.0794 14.4368 48.1803 14.4531 48.2715 14.4531C48.5514 14.4531 48.8151 14.362 49.0625 14.1797C49.3099 13.9974 49.5378 13.7793 49.7461 13.5254C49.9544 13.265 50.14 12.9915 50.3027 12.7051C50.472 12.4186 50.612 12.168 50.7227 11.9531C50.7552 11.8945 50.8008 11.849 50.8594 11.8164C50.918 11.7839 50.9798 11.7676 51.0449 11.7676C51.1621 11.7676 51.2533 11.8066 51.3184 11.8848C51.3835 11.9564 51.416 12.0378 51.416 12.1289C51.416 12.194 51.403 12.2526 51.377 12.3047C51.2272 12.5716 51.0514 12.8743 50.8496 13.2129C50.6543 13.5449 50.4297 13.8574 50.1758 14.1504C49.9219 14.4434 49.6354 14.6908 49.3164 14.8926C49.0039 15.0944 48.6589 15.1953 48.2812 15.1953C48.0469 15.1953 47.8255 15.1497 47.6172 15.0586C47.4089 14.974 47.2266 14.8503 47.0703 14.6875C46.9206 14.5182 46.8001 14.3132 46.709 14.0723C46.6178 13.8249 46.5723 13.5482 46.5723 13.2422C46.5723 12.9167 46.6048 12.5944 46.6699 12.2754C46.735 11.9499 46.7676 11.6406 46.7676 11.3477C46.7676 11.224 46.7383 11.1328 46.6797 11.0742C46.6276 11.0091 46.5072 10.9766 46.3184 10.9766C46.2272 10.9766 46.1263 10.9766 46.0156 10.9766C45.9115 10.9766 45.7975 10.9798 45.6738 10.9863ZM45.0195 10.2637C45.0195 10.2181 45.0163 10.1595 45.0098 10.0879C45.0098 10.0098 45.0033 9.9349 44.9902 9.86328C44.9837 9.79167 44.9707 9.72982 44.9512 9.67773C44.9382 9.62565 44.9219 9.59961 44.9023 9.59961C44.8828 9.59961 44.8568 9.62565 44.8242 9.67773C44.7982 9.72331 44.7689 9.7819 44.7363 9.85352C44.7038 9.91862 44.6745 9.99023 44.6484 10.0684C44.6224 10.1465 44.6029 10.2116 44.5898 10.2637H45.0195ZM51.8066 11.3867C51.7676 11.4909 51.7188 11.6081 51.6602 11.7383C51.6081 11.8685 51.5462 12.0052 51.4746 12.1484C51.416 12.2591 51.3542 12.347 51.2891 12.4121C51.2305 12.4707 51.1523 12.5 51.0547 12.5C50.944 12.5 50.8561 12.4674 50.791 12.4023C50.7259 12.3307 50.6934 12.2493 50.6934 12.1582C50.6934 12.1257 50.6966 12.0996 50.7031 12.0801C50.7096 12.054 50.7259 12.015 50.752 11.9629C50.9212 11.6374 51.0449 11.3542 51.123 11.1133C51.2077 10.8659 51.276 10.6087 51.3281 10.3418C51.2826 10.1921 51.25 10.0651 51.2305 9.96094C51.2109 9.85677 51.2012 9.74935 51.2012 9.63867C51.2012 9.42383 51.2467 9.2513 51.3379 9.12109C51.429 8.98438 51.556 8.91602 51.7188 8.91602C51.8685 8.91602 51.9857 8.98112 52.0703 9.11133C52.1615 9.24154 52.207 9.40104 52.207 9.58984C52.207 9.69401 52.1973 9.79818 52.1777 9.90234C52.1582 10.0065 52.1322 10.1367 52.0996 10.293C52.2493 10.6641 52.3991 10.9928 52.5488 11.2793C52.6986 11.5658 52.832 11.8294 52.9492 12.0703C53.0664 12.3047 53.1608 12.526 53.2324 12.7344C53.3105 12.9427 53.3496 13.151 53.3496 13.3594C53.3496 13.6328 53.2943 13.8932 53.1836 14.1406C53.0729 14.388 52.8906 14.5964 52.6367 14.7656C52.6693 14.7721 52.7018 14.7754 52.7344 14.7754C52.7669 14.7754 52.7995 14.7754 52.832 14.7754C53.2031 14.7754 53.5449 14.6908 53.8574 14.5215C54.1699 14.3522 54.4499 14.1341 54.6973 13.8672C54.9512 13.5938 55.1758 13.2943 55.3711 12.9688C55.5664 12.6367 55.7357 12.3079 55.8789 11.9824C55.944 11.8327 56.0352 11.7578 56.1523 11.7578C56.263 11.7578 56.3477 11.7969 56.4062 11.875C56.4714 11.9531 56.5039 12.0378 56.5039 12.1289C56.5039 12.181 56.4941 12.2298 56.4746 12.2754C56.403 12.4512 56.3086 12.653 56.1914 12.8809C56.0807 13.1022 55.944 13.3333 55.7812 13.5742C55.625 13.8086 55.4427 14.0397 55.2344 14.2676C55.026 14.4954 54.7917 14.7005 54.5312 14.8828C54.2773 15.0586 53.9974 15.1986 53.6914 15.3027C53.3854 15.4134 53.0501 15.4688 52.6855 15.4688C52.2493 15.4688 51.8424 15.3906 51.4648 15.2344C51.0938 15.0846 50.791 14.834 50.5566 14.4824C50.5176 14.4238 50.498 14.362 50.498 14.2969C50.498 14.1992 50.5339 14.1146 50.6055 14.043C50.6836 13.9648 50.7715 13.9258 50.8691 13.9258C50.9733 13.9258 51.0612 13.9616 51.1328 14.0332C51.1393 14.0462 51.1621 14.069 51.2012 14.1016C51.2402 14.1276 51.2858 14.1602 51.3379 14.1992C51.3965 14.2318 51.4616 14.2611 51.5332 14.2871C51.6113 14.3132 51.6895 14.3262 51.7676 14.3262C51.9238 14.3262 52.054 14.2936 52.1582 14.2285C52.2689 14.1634 52.3568 14.0853 52.4219 13.9941C52.487 13.8965 52.5326 13.7956 52.5586 13.6914C52.5911 13.5807 52.6074 13.4863 52.6074 13.4082C52.6074 13.2454 52.5814 13.0827 52.5293 12.9199C52.4772 12.7572 52.4089 12.5944 52.3242 12.4316C52.2461 12.2689 52.1582 12.1029 52.0605 11.9336C51.9694 11.7578 51.8848 11.5755 51.8066 11.3867ZM57.7539 14.7168C57.7539 14.8665 57.7018 14.9902 57.5977 15.0879C57.5 15.1921 57.3763 15.2441 57.2266 15.2441C57.0768 15.2441 56.9499 15.1921 56.8457 15.0879C56.748 14.9902 56.6992 14.8665 56.6992 14.7168C56.6992 14.5736 56.748 14.4531 56.8457 14.3555C56.9499 14.2513 57.0768 14.1992 57.2266 14.1992C57.3763 14.1992 57.5 14.2513 57.5977 14.3555C57.7018 14.4531 57.7539 14.5736 57.7539 14.7168ZM65.7812 12.2949C65.7422 12.3665 65.6738 12.4967 65.5762 12.6855C65.485 12.8743 65.3581 13.0892 65.1953 13.3301C65.0391 13.5645 64.8503 13.8086 64.6289 14.0625C64.4076 14.3164 64.1536 14.5508 63.8672 14.7656C63.5807 14.974 63.2585 15.1465 62.9004 15.2832C62.5488 15.4199 62.1647 15.4883 61.748 15.4883C61.377 15.4883 61.0482 15.4199 60.7617 15.2832C60.4753 15.153 60.2311 14.9674 60.0293 14.7266C59.8275 14.4792 59.6745 14.1895 59.5703 13.8574C59.4661 13.5254 59.4141 13.1576 59.4141 12.7539C59.4141 12.3633 59.4694 11.9987 59.5801 11.6602C59.6908 11.3151 59.8405 11.0156 60.0293 10.7617C60.2246 10.5078 60.4492 10.3092 60.7031 10.166C60.957 10.0163 61.2272 9.94141 61.5137 9.94141C61.7285 9.94141 61.9238 9.98047 62.0996 10.0586C62.2754 10.1302 62.4219 10.2279 62.5391 10.3516C62.6628 10.4753 62.7572 10.612 62.8223 10.7617C62.8939 10.9115 62.9297 11.0612 62.9297 11.2109C62.9297 11.3542 62.9102 11.4876 62.8711 11.6113C62.8385 11.735 62.793 11.8457 62.7344 11.9434C62.6823 12.0345 62.6204 12.1094 62.5488 12.168C62.4772 12.2201 62.4056 12.2461 62.334 12.2461C62.2233 12.2461 62.1322 12.2103 62.0605 12.1387C61.9954 12.0671 61.9629 11.9792 61.9629 11.875C61.9629 11.8229 61.9727 11.7773 61.9922 11.7383C62.0182 11.6992 62.0443 11.6602 62.0703 11.6211C62.1029 11.5755 62.1289 11.5234 62.1484 11.4648C62.1745 11.3997 62.1875 11.3184 62.1875 11.2207C62.1875 11.084 62.1224 10.9603 61.9922 10.8496C61.8685 10.7389 61.709 10.6836 61.5137 10.6836C61.3314 10.6836 61.1556 10.7389 60.9863 10.8496C60.8236 10.9603 60.6803 11.11 60.5566 11.2988C60.4329 11.4811 60.332 11.6992 60.2539 11.9531C60.1823 12.2005 60.1465 12.4642 60.1465 12.7441C60.1465 13.0111 60.179 13.265 60.2441 13.5059C60.3092 13.7467 60.4069 13.9616 60.5371 14.1504C60.6673 14.3327 60.8301 14.4792 61.0254 14.5898C61.2272 14.7005 61.4648 14.7559 61.7383 14.7559C62.0898 14.7559 62.4154 14.694 62.7148 14.5703C63.0143 14.4401 63.2878 14.2773 63.5352 14.082C63.7826 13.8867 64.0007 13.6751 64.1895 13.4473C64.3783 13.2129 64.5378 12.9948 64.668 12.793C64.8047 12.5846 64.9089 12.4056 64.9805 12.2559C65.0586 12.0996 65.1042 12.002 65.1172 11.9629C65.1432 11.8978 65.1855 11.849 65.2441 11.8164C65.3092 11.7773 65.3776 11.7578 65.4492 11.7578C65.5599 11.7578 65.6478 11.7969 65.7129 11.875C65.7845 11.9531 65.8203 12.041 65.8203 12.1387C65.8203 12.1777 65.8073 12.2298 65.7812 12.2949ZM69.6191 13.9258C69.4564 13.9258 69.3132 13.9128 69.1895 13.8867C69.0918 14.082 68.9746 14.2643 68.8379 14.4336C68.7012 14.5964 68.5417 14.7396 68.3594 14.8633C68.1836 14.987 67.985 15.0846 67.7637 15.1562C67.5423 15.2279 67.3014 15.2637 67.041 15.2637C66.735 15.2637 66.4551 15.2083 66.2012 15.0977C65.9473 14.9935 65.7259 14.847 65.5371 14.6582C65.3483 14.4629 65.2018 14.2318 65.0977 13.9648C64.9935 13.6914 64.9414 13.3919 64.9414 13.0664C64.9414 12.6497 65.0163 12.2884 65.166 11.9824C65.3158 11.6699 65.4883 11.4128 65.6836 11.2109C65.8789 11.0026 66.0742 10.8496 66.2695 10.752C66.4648 10.6478 66.6113 10.5957 66.709 10.5957C66.8197 10.5957 66.901 10.625 66.9531 10.6836C67.0117 10.7422 67.041 10.8203 67.041 10.918C67.041 11.0286 67.0052 11.1133 66.9336 11.1719C66.8685 11.224 66.7839 11.276 66.6797 11.3281C66.5755 11.3802 66.4648 11.4551 66.3477 11.5527C66.2305 11.6439 66.1198 11.7611 66.0156 11.9043C65.918 12.0475 65.8366 12.2168 65.7715 12.4121C65.7064 12.6074 65.6738 12.8255 65.6738 13.0664C65.6738 13.2812 65.7064 13.4831 65.7715 13.6719C65.8366 13.8542 65.931 14.0137 66.0547 14.1504C66.1784 14.2806 66.3249 14.3848 66.4941 14.4629C66.6634 14.5345 66.8522 14.5703 67.0605 14.5703C67.4316 14.5703 67.7376 14.4857 67.9785 14.3164C68.2259 14.1406 68.4147 13.9193 68.5449 13.6523C68.1608 13.4505 67.8451 13.1641 67.5977 12.793C67.3503 12.4219 67.2266 12.0052 67.2266 11.543C67.2266 11.1719 67.3145 10.8691 67.4902 10.6348C67.6725 10.4004 67.9102 10.2832 68.2031 10.2832C68.3789 10.2832 68.5449 10.3255 68.7012 10.4102C68.8574 10.4948 68.9941 10.6283 69.1113 10.8105C69.235 10.9928 69.3327 11.2272 69.4043 11.5137C69.4759 11.8001 69.5117 12.1419 69.5117 12.5391C69.5117 12.7474 69.4857 12.9655 69.4336 13.1934C69.4727 13.1999 69.5117 13.2031 69.5508 13.2031C69.5898 13.2031 69.6322 13.2031 69.6777 13.2031C69.8991 13.2031 70.0977 13.1771 70.2734 13.125C70.4492 13.0729 70.6087 12.9948 70.752 12.8906C70.8952 12.7865 71.0221 12.653 71.1328 12.4902C71.25 12.3275 71.3607 12.1387 71.4648 11.9238C71.4844 11.8848 71.5267 11.849 71.5918 11.8164C71.6569 11.7773 71.722 11.7578 71.7871 11.7578C71.8717 11.7578 71.9499 11.7936 72.0215 11.8652C72.0996 11.9303 72.1387 12.0182 72.1387 12.1289C72.1387 12.181 72.1257 12.2396 72.0996 12.3047C72.0736 12.3633 72.0475 12.4186 72.0215 12.4707C71.9108 12.666 71.7806 12.8548 71.6309 13.0371C71.4876 13.2129 71.3151 13.3691 71.1133 13.5059C70.918 13.6361 70.6966 13.7402 70.4492 13.8184C70.2018 13.8965 69.9251 13.9323 69.6191 13.9258ZM67.9492 11.4648C67.9492 11.5885 67.9655 11.7188 67.998 11.8555C68.0306 11.9922 68.0794 12.1289 68.1445 12.2656C68.2161 12.3958 68.3008 12.5228 68.3984 12.6465C68.5026 12.7637 68.623 12.8646 68.7598 12.9492C68.7793 12.8125 68.7891 12.679 68.7891 12.5488C68.7891 12.373 68.776 12.194 68.75 12.0117C68.724 11.8294 68.6849 11.6634 68.6328 11.5137C68.5872 11.3574 68.5286 11.2337 68.457 11.1426C68.3854 11.0449 68.3008 10.9961 68.2031 10.9961C68.1641 10.9961 68.112 11.0254 68.0469 11.084C67.9818 11.1426 67.9492 11.2695 67.9492 11.4648ZM73.7012 14.1309C73.7988 13.9355 73.9225 13.6947 74.0723 13.4082C74.2285 13.1152 74.388 12.8223 74.5508 12.5293C74.7201 12.2363 74.8828 11.9596 75.0391 11.6992C75.2018 11.4388 75.3385 11.2402 75.4492 11.1035C75.638 10.8757 75.8333 10.7129 76.0352 10.6152C76.237 10.5176 76.4225 10.4688 76.5918 10.4688C76.7611 10.4688 76.9043 10.5046 77.0215 10.5762C77.1452 10.6478 77.2461 10.7454 77.3242 10.8691C77.4023 10.9863 77.4609 11.1263 77.5 11.2891C77.5391 11.4453 77.5586 11.6146 77.5586 11.7969C77.5586 11.901 77.5521 12.0378 77.5391 12.207C77.5326 12.3763 77.5228 12.5586 77.5098 12.7539C77.5033 12.9492 77.4935 13.151 77.4805 13.3594C77.474 13.5677 77.4674 13.763 77.4609 13.9453C77.5586 13.75 77.6693 13.5352 77.793 13.3008C77.9167 13.0599 78.0404 12.8223 78.1641 12.5879C78.2943 12.3535 78.418 12.1354 78.5352 11.9336C78.6523 11.7253 78.7598 11.556 78.8574 11.4258C79.1374 11.0417 79.3978 10.7845 79.6387 10.6543C79.8861 10.5241 80.1042 10.459 80.293 10.459C80.5143 10.459 80.6966 10.5013 80.8398 10.5859C80.9831 10.6641 81.0938 10.7682 81.1719 10.8984C81.2565 11.0221 81.3151 11.1621 81.3477 11.3184C81.3802 11.4746 81.3965 11.6243 81.3965 11.7676C81.3965 11.9889 81.3802 12.2201 81.3477 12.4609C81.3151 12.7018 81.2988 12.9883 81.2988 13.3203C81.2988 13.457 81.3053 13.5938 81.3184 13.7305C81.3314 13.8672 81.3574 13.9876 81.3965 14.0918C81.4421 14.196 81.5104 14.2806 81.6016 14.3457C81.6927 14.4108 81.8164 14.4434 81.9727 14.4434C82.1419 14.4434 82.3079 14.401 82.4707 14.3164C82.6335 14.2253 82.7897 14.1081 82.9395 13.9648C83.0892 13.8216 83.2292 13.6589 83.3594 13.4766C83.4961 13.2943 83.6198 13.112 83.7305 12.9297C83.8411 12.7474 83.9388 12.5749 84.0234 12.4121C84.1081 12.2428 84.1764 12.0996 84.2285 11.9824C84.2611 11.9108 84.3066 11.8555 84.3652 11.8164C84.4238 11.7773 84.4889 11.7578 84.5605 11.7578C84.6712 11.7578 84.7591 11.8001 84.8242 11.8848C84.8958 11.9629 84.9316 12.0475 84.9316 12.1387C84.9316 12.1842 84.9219 12.2298 84.9023 12.2754C84.8763 12.3275 84.8242 12.4382 84.7461 12.6074C84.668 12.7702 84.5638 12.959 84.4336 13.1738C84.3034 13.3822 84.1504 13.6035 83.9746 13.8379C83.8053 14.0723 83.6165 14.2904 83.4082 14.4922C83.1999 14.6875 82.9753 14.8503 82.7344 14.9805C82.4935 15.1042 82.2396 15.166 81.9727 15.166C81.6862 15.166 81.4518 15.1139 81.2695 15.0098C81.0938 14.9121 80.9505 14.7786 80.8398 14.6094C80.7357 14.4401 80.6641 14.2448 80.625 14.0234C80.5859 13.8021 80.5664 13.571 80.5664 13.3301C80.5664 13.0111 80.5827 12.7181 80.6152 12.4512C80.6478 12.1777 80.6641 11.9661 80.6641 11.8164C80.6641 11.6536 80.6478 11.5299 80.6152 11.4453C80.5892 11.3607 80.5534 11.3021 80.5078 11.2695C80.4688 11.2305 80.4297 11.2109 80.3906 11.2109C80.3516 11.2044 80.3223 11.2012 80.3027 11.2012C80.1465 11.2012 79.9805 11.2891 79.8047 11.4648C79.6354 11.6341 79.4596 11.862 79.2773 12.1484C79.0951 12.4349 78.9062 12.7604 78.7109 13.125C78.5221 13.4896 78.3301 13.8607 78.1348 14.2383C78.0241 14.4466 77.9297 14.6191 77.8516 14.7559C77.7799 14.8926 77.7083 15 77.6367 15.0781C77.5716 15.1562 77.5065 15.2116 77.4414 15.2441C77.3763 15.2767 77.3047 15.293 77.2266 15.293C77.0573 15.293 76.9271 15.2344 76.8359 15.1172C76.7513 15 76.709 14.847 76.709 14.6582C76.709 14.5605 76.7122 14.4303 76.7188 14.2676C76.7253 14.1048 76.7318 13.9258 76.7383 13.7305C76.7448 13.5352 76.7546 13.3333 76.7676 13.125C76.7806 12.9167 76.7904 12.7181 76.7969 12.5293C76.8034 12.334 76.8099 12.1615 76.8164 12.0117C76.8229 11.862 76.8262 11.748 76.8262 11.6699C76.8262 11.5007 76.7969 11.3802 76.7383 11.3086C76.6797 11.2305 76.6113 11.1914 76.5332 11.1914C76.4616 11.1914 76.3802 11.2174 76.2891 11.2695C76.2044 11.3216 76.1035 11.4225 75.9863 11.5723C75.8952 11.6895 75.778 11.862 75.6348 12.0898C75.498 12.3112 75.3516 12.5586 75.1953 12.832C75.0391 13.1055 74.8828 13.3854 74.7266 13.6719C74.5768 13.9583 74.4466 14.2155 74.3359 14.4434C74.1992 14.7168 74.0625 14.9023 73.9258 15C73.7891 15.1042 73.6556 15.1562 73.5254 15.1562C73.3366 15.1562 73.1966 15.1009 73.1055 14.9902C73.0143 14.873 72.9688 14.7201 72.9688 14.5312C72.9688 14.5117 72.972 14.3945 72.9785 14.1797C72.9915 13.9648 73.0046 13.7044 73.0176 13.3984C73.0306 13.0859 73.0436 12.7539 73.0566 12.4023C73.0762 12.0508 73.0924 11.722 73.1055 11.416C73.112 11.2533 73.1055 11.1035 73.0859 10.9668C73.0664 10.8301 73.0404 10.7487 73.0078 10.7227C72.9557 10.7357 72.8516 10.8561 72.6953 11.084C72.5456 11.3118 72.3535 11.709 72.1191 12.2754C72.0866 12.347 72.0378 12.4023 71.9727 12.4414C71.9076 12.4805 71.8392 12.5 71.7676 12.5C71.6569 12.5 71.569 12.4642 71.5039 12.3926C71.4388 12.3145 71.4062 12.2266 71.4062 12.1289C71.4062 12.0833 71.416 12.0345 71.4355 11.9824C71.7285 11.2858 72.0085 10.7747 72.2754 10.4492C72.5423 10.1172 72.8027 9.95117 73.0566 9.95117C73.2064 9.95117 73.3301 9.98698 73.4277 10.0586C73.5319 10.1237 73.6133 10.2116 73.6719 10.3223C73.7305 10.4264 73.7728 10.5469 73.7988 10.6836C73.8249 10.8203 73.8379 10.9538 73.8379 11.084C73.8379 11.6634 73.8216 12.194 73.7891 12.6758C73.763 13.1576 73.7337 13.6426 73.7012 14.1309Z" fill="white"/>
</svg>
