<svg width="41" height="56" viewBox="0 0 41 56" fill="none" xmlns="http://www.w3.org/2000/svg">
<path d="M0.711914 17.6467L15.5464 46.0939L20.7164 55.9986L25.8436 46.1678L28.7263 40.6379C29.0581 40.0014 28.8103 39.2164 28.1731 38.8858C27.5376 38.5561 26.7551 38.8032 26.4243 39.4381L25.0512 42.073L23.5392 44.9721L20.7164 50.3843L18.5731 46.274L17.8586 44.8995L4.9986 20.2375H36.4343L31.3213 30.0297C30.9888 30.6665 31.2367 31.4524 31.8745 31.7831C32.51 32.1127 33.2923 31.8656 33.6233 31.2308L40.7067 17.6467H0.711914Z" fill="#FFA539"/>
<path d="M10.6504 23.616L20.7111 42.9176L23.3519 37.851C23.6834 37.2152 23.4364 36.431 22.8005 36.0998C22.1636 35.7681 21.3783 36.0166 21.0482 36.6544L20.7163 37.2955L14.9345 26.2068H26.4955L25.9539 27.2453C25.6219 27.8819 25.8697 28.667 26.507 28.9977C27.1424 29.3274 27.9248 29.0804 28.2558 28.4457L30.7744 23.616H10.6504Z" fill="#FFA539"/>
<path d="M7.59701 0.602927L0.712341 17.6466H16.2691L9.38053 0.602927C9.30943 0.424996 9.18644 0.272426 9.02747 0.164941C8.86849 0.0574564 8.68084 0 8.48877 0C8.29671 0 8.10905 0.0574564 7.95008 0.164941C7.7911 0.272426 7.66811 0.424996 7.59701 0.602927Z" fill="#FFA539"/>
<path d="M32.0448 0.603043L25.1602 17.6467H40.7117L33.8231 0.603043C33.7517 0.42622 33.6288 0.274742 33.4704 0.168067C33.312 0.0613929 33.1252 0.00439453 32.934 0.00439453C32.7428 0.00439453 32.556 0.0613929 32.3976 0.168067C32.2391 0.274742 32.1163 0.42622 32.0448 0.603043Z" fill="#FFA539"/>
<path d="M15.5488 46.0954L16.0022 43.708L18.3027 47.0151L19.4224 43.9282L20.7136 46.4426L22.3698 43.4877L22.8128 45.4723L25.0237 41.9436L25.8408 46.1679L20.7136 56.0001L15.5488 46.0954Z" fill="black"/>
</svg>
