<svg width="78" height="100" viewBox="0 0 78 100" fill="none" xmlns="http://www.w3.org/2000/svg">
<path d="M75.7679 85.3372C75.0504 81.1278 73.4787 77.1106 71.15 73.534C68.8213 69.9575 65.7851 66.8976 62.2292 64.5436C61.9734 63.1019 61.2201 61.796 60.1009 60.8544C58.9817 59.9127 57.5678 59.3951 56.1064 59.3921C51.043 59.3921 50.934 59.2516 50.3264 59.8604C49.1458 59.6602 47.9545 59.5298 46.7586 59.4701V56.2699C49.9547 54.9305 52.7544 52.792 54.8901 50.0588C57.0259 47.3257 58.4263 44.0893 58.9575 40.6591C67.1835 40.6591 67.6665 29.1071 59.9078 28.1705C60.6736 23.5815 60.966 18.9258 60.7803 14.2769C60.7671 11.758 59.9156 9.31546 58.3607 7.33615C56.8058 5.35683 54.6364 3.95383 52.1959 3.34932C47.7869 -0.771931 43.3311 0.0710527 35.666 0.0710527C30.7584 0.0751867 26.0531 2.03042 22.583 5.50751C19.1128 8.98459 17.1615 13.6993 17.1574 18.6167C17.1634 21.821 17.4554 25.0183 18.0298 28.1705C10.24 29.0447 10.7386 40.6591 18.9802 40.6591C19.5027 44.0925 20.8999 47.3328 23.0367 50.0673C25.1736 52.8018 27.9779 54.9381 31.179 56.2699V59.3921C29.9832 59.4518 28.7919 59.5821 27.6113 59.7823C27.0037 59.1579 26.8167 59.314 21.8313 59.314C20.3698 59.3171 18.9559 59.8346 17.8367 60.7763C16.7175 61.718 15.9642 63.0238 15.7085 64.4656C12.1439 66.8282 9.10253 69.9003 6.77343 73.4909C4.44432 77.0816 2.8773 81.1139 2.16981 85.3372L0.0198225 98.1693C-0.0462889 98.5833 0.0544491 99.0067 0.299876 99.3463C0.545302 99.6859 0.915313 99.9139 1.32851 99.9801C1.74171 100.046 2.16424 99.9454 2.50316 99.6995C2.84209 99.4536 3.06963 99.0829 3.13574 98.6688C5.23899 85.9773 5.37921 76.4547 15.5994 68.4307V98.4191C15.5994 98.8331 15.7636 99.2302 16.0557 99.5229C16.3479 99.8157 16.7442 99.9801 17.1574 99.9801C17.5706 99.9801 17.9669 99.8157 18.259 99.5229C18.5512 99.2302 18.7153 98.8331 18.7153 98.4191V65.6364C18.7153 64.8083 19.0436 64.0142 19.628 63.4287C20.2123 62.8432 21.0049 62.5142 21.8313 62.5142H24.9472V98.4191C24.9472 98.8331 25.1113 99.2302 25.4035 99.5229C25.6957 99.8157 26.092 99.9801 26.5052 99.9801C26.9184 99.9801 27.3146 99.8157 27.6068 99.5229C27.899 99.2302 28.0631 98.8331 28.0631 98.4191V74.6282C28.92 74.9092 28.7798 74.8312 32.8616 72.4895C33.1636 74.1123 33.9773 75.5952 35.183 76.7201C33.7185 78.2811 34.1236 77.7972 31.5841 98.2317C31.5596 98.4367 31.5755 98.6446 31.6312 98.8434C31.6868 99.0422 31.7809 99.2281 31.9082 99.3904C32.0355 99.5528 32.1935 99.6884 32.3731 99.7896C32.5528 99.8908 32.7505 99.9555 32.9551 99.9801C33.1597 100.005 33.3671 99.9887 33.5655 99.933C33.764 99.8773 33.9495 99.7829 34.1115 99.6554C34.2735 99.5278 34.4089 99.3695 34.5099 99.1895C34.6109 99.0096 34.6755 98.8114 34.7 98.6064L37.037 79.8734C37.0973 79.3944 37.33 78.954 37.6915 78.6347C38.0529 78.3154 38.5182 78.1392 39 78.1392C39.4818 78.1392 39.9471 78.3154 40.3085 78.6347C40.67 78.954 40.9027 79.3944 40.963 79.8734L43.3 98.6064C43.3496 99.0204 43.5612 99.3977 43.8885 99.6554C44.2157 99.913 44.6317 100.03 45.0449 99.9801C45.4581 99.9305 45.8347 99.7183 46.0918 99.3904C46.3489 99.0626 46.4655 98.6458 46.4159 98.2317C43.8764 77.8284 44.2659 78.328 42.817 76.7201C44.0236 75.5959 44.8374 74.1127 45.1384 72.4895C49.08 74.7531 48.9242 74.7375 49.4695 74.7375C50.0148 74.7375 49.9369 71.6153 49.9369 98.4191C49.9369 98.8331 50.101 99.2302 50.3932 99.5229C50.6854 99.8157 51.0816 99.9801 51.4948 99.9801C51.908 99.9801 52.3043 99.8157 52.5965 99.5229C52.8887 99.2302 53.0528 98.8331 53.0528 98.4191V62.5142H56.1687C56.9951 62.5142 57.7877 62.8432 58.372 63.4287C58.9564 64.0142 59.2846 64.8083 59.2846 65.6364V98.4191C59.2846 98.8331 59.4488 99.2302 59.741 99.5229C60.0331 99.8157 60.4294 99.9801 60.8426 99.9801C61.2558 99.9801 61.6521 99.8157 61.9443 99.5229C62.2364 99.2302 62.4006 98.8331 62.4006 98.4191V68.4307C72.6364 76.4547 72.7766 85.9773 74.8643 98.6688C74.9304 99.0829 75.1579 99.4536 75.4968 99.6995C75.8357 99.9454 76.2583 100.046 76.6715 99.9801C77.0847 99.9139 77.4547 99.6859 77.7001 99.3463C77.9455 99.0067 78.0463 98.5833 77.9802 98.1693L75.7679 85.3372ZM62.3382 34.4148C62.3382 35.2429 62.01 36.037 61.4256 36.6225C60.8413 37.208 60.0487 37.537 59.2223 37.537C59.2223 31.2146 59.2223 31.5268 59.2223 31.2926C60.0487 31.2926 60.8413 31.6216 61.4256 32.2071C62.01 32.7926 62.3382 33.5868 62.3382 34.4148ZM35.666 3.19321C43.0819 3.19321 46.9144 2.44389 50.3264 5.86266C50.5401 6.08977 50.8169 6.24746 51.1209 6.31537C52.9593 6.68537 54.6141 7.67939 55.8061 9.12974C56.9982 10.5801 57.6545 12.398 57.6644 14.2769C57.751 17.349 57.673 20.4235 57.4307 23.4872C56.3138 20.7159 54.6498 18.1991 52.5387 16.0877C52.2832 15.8344 51.9483 15.6774 51.5905 15.6433C51.2327 15.6091 50.8742 15.7 50.5756 15.9004C45.0137 19.6626 41.1344 18.804 24.9472 18.804C23.4827 18.804 23.4671 19.8499 20.8186 26.0474C20.4581 23.5869 20.2758 21.1035 20.2733 18.6167C20.2774 14.5274 21.9005 10.6068 24.7863 7.7152C27.6721 4.82364 31.5848 3.19734 35.666 3.19321ZM15.5994 34.4148C15.5994 33.5868 15.9277 32.7926 16.5121 32.2071C17.0964 31.6216 17.889 31.2926 18.7153 31.2926C18.7153 31.4956 18.7153 30.918 18.7153 37.537C17.889 37.537 17.0964 37.208 16.5121 36.6225C15.9277 36.037 15.5994 35.2429 15.5994 34.4148ZM21.8313 37.537V31.6049L25.9754 21.9262C41.1188 21.9262 45.1851 22.6911 51.1677 19.2411C54.9847 23.5965 55.4676 27.6085 56.1064 31.4175V37.537C56.1064 42.0912 54.3008 46.459 51.0869 49.6793C47.873 52.8997 43.514 54.7088 38.9688 54.7088C34.4237 54.7088 30.0647 52.8997 26.8507 49.6793C23.6368 46.459 21.8313 42.0912 21.8313 37.537ZM43.6427 57.2846V60.3131L38.9688 64.9964L34.295 60.3131V57.2846C37.3705 57.9959 40.5672 57.9959 43.6427 57.2846ZM28.4059 62.8889C29.6379 62.6854 30.8816 62.5603 32.1294 62.5142L36.4294 66.8228L29.699 70.6787L28.4059 62.8889ZM41.5862 73.114C41.4038 73.6651 41.0527 74.1446 40.5829 74.4844C40.1131 74.8243 39.5483 75.0072 38.9688 75.0072C38.3894 75.0072 37.8246 74.8243 37.3548 74.4844C36.8849 74.1446 36.5339 73.6651 36.3515 73.114L35.6192 70.9128L38.9688 68.9927L42.3185 70.9128L41.5862 73.114ZM48.3166 70.7099L41.5862 66.854L45.8083 62.5142C47.0554 62.55 48.2991 62.6647 49.5318 62.8577L48.3166 70.7099Z" fill="black"/>
<path d="M43.3776 45.9824C43.2327 45.8361 43.0604 45.7199 42.8706 45.6407C42.6807 45.5614 42.4771 45.5206 42.2714 45.5206C42.0657 45.5206 41.8621 45.5614 41.6723 45.6407C41.4824 45.7199 41.3101 45.8361 41.1653 45.9824C40.5814 46.5639 39.7917 46.8903 38.9685 46.8903C38.1453 46.8903 37.3556 46.5639 36.7718 45.9824C36.4784 45.6884 36.0805 45.5233 35.6657 45.5233C35.2508 45.5233 34.8529 45.6884 34.5595 45.9824C34.2661 46.2764 34.1013 46.675 34.1013 47.0908C34.1013 47.5065 34.2661 47.9052 34.5595 48.1991C38.7504 52.3828 45.6989 48.324 43.3776 45.9824Z" fill="black"/>
<path d="M28.063 31.2925V32.8536C28.063 33.2676 28.2271 33.6647 28.5193 33.9575C28.8115 34.2502 29.2078 34.4147 29.6209 34.4147C30.0341 34.4147 30.4304 34.2502 30.7226 33.9575C31.0148 33.6647 31.1789 33.2676 31.1789 32.8536V31.2925C31.1789 30.8785 31.0148 30.4814 30.7226 30.1887C30.4304 29.8959 30.0341 29.7314 29.6209 29.7314C29.2078 29.7314 28.8115 29.8959 28.5193 30.1887C28.2271 30.4814 28.063 30.8785 28.063 31.2925Z" fill="black"/>
<path d="M49.8747 32.8536V31.2925C49.8747 30.8785 49.7106 30.4814 49.4184 30.1887C49.1262 29.8959 48.7299 29.7314 48.3167 29.7314C47.9036 29.7314 47.5073 29.8959 47.2151 30.1887C46.9229 30.4814 46.7588 30.8785 46.7588 31.2925V32.8536C46.7588 33.2676 46.9229 33.6647 47.2151 33.9575C47.5073 34.2502 47.9036 34.4147 48.3167 34.4147C48.7299 34.4147 49.1262 34.2502 49.4184 33.9575C49.7106 33.6647 49.8747 33.2676 49.8747 32.8536Z" fill="black"/>
</svg>
