<svg width="118" height="100" viewBox="0 0 118 100" fill="none" xmlns="http://www.w3.org/2000/svg">
<path d="M116.156 0H1.84375C1.35476 0 0.885792 0.195124 0.540022 0.542447C0.194252 0.88977 0 1.36084 0 1.85203L0 90.7494C0 91.2406 0.194252 91.7117 0.540022 92.059C0.885792 92.4063 1.35476 92.6014 1.84375 92.6014H51.625V98.1575C51.6267 98.491 51.7181 98.8179 51.8894 99.1036C52.0607 99.3893 52.3057 99.6232 52.5984 99.7806C52.8911 99.9381 53.2207 100.013 53.5524 99.9981C53.884 99.983 54.2055 99.8781 54.4828 99.6947L59 96.6759C63.6094 99.7688 64.1441 100.38 65.3978 99.7873C66.6516 99.1947 66.375 97.9538 66.375 92.6014H116.156C116.645 92.6014 117.114 92.4063 117.46 92.059C117.806 91.7117 118 91.2406 118 90.7494V1.85203C118 1.36084 117.806 0.88977 117.46 0.542447C117.114 0.195124 116.645 0 116.156 0ZM49.7812 72.2291C49.7812 70.3976 50.3219 68.6073 51.3349 67.0845C52.3479 65.5616 53.7876 64.3747 55.4721 63.6739C57.1566 62.973 59.0102 62.7896 60.7985 63.1469C62.5868 63.5042 64.2294 64.3862 65.5186 65.6812C66.8079 66.9763 67.6859 68.6263 68.0416 70.4225C68.3973 72.2188 68.2148 74.0807 67.517 75.7728C66.8193 77.4649 65.6377 78.9111 64.1217 79.9286C62.6056 80.9462 60.8233 81.4893 59 81.4893C56.555 81.4893 54.2102 80.5136 52.4814 78.777C50.7525 77.0404 49.7812 74.6851 49.7812 72.2291ZM59 59.2649C56.4376 59.2682 53.9341 60.0376 51.8086 61.4751C49.683 62.9126 48.0315 64.9532 47.0646 67.3368C46.0976 69.7204 45.8588 72.3392 46.3788 74.8596C46.8987 77.38 48.1538 79.6879 49.9841 81.4893H18.2531C17.8918 79.7097 17.0175 78.0761 15.739 76.7918C14.4604 75.5075 12.8341 74.6293 11.0625 74.2663V18.3351C12.8341 17.9721 14.4604 17.0939 15.739 15.8096C17.0175 14.5254 17.8918 12.8918 18.2531 11.1122H99.7469C100.108 12.8918 100.983 14.5254 102.261 15.8096C103.54 17.0939 105.166 17.9721 106.938 18.3351V74.2663C105.166 74.6293 103.54 75.5075 102.261 76.7918C100.983 78.0761 100.108 79.7097 99.7469 81.4893H68.0159C69.8462 79.6879 71.1013 77.38 71.6212 74.8596C72.1412 72.3392 71.9024 69.7204 70.9354 67.3368C69.9685 64.9532 68.317 62.9126 66.1914 61.4751C64.0659 60.0376 61.5624 59.2682 59 59.2649ZM62.6875 94.6942C58.4653 91.8606 59.4978 91.8977 55.3125 94.6942V84.6562C57.7185 85.3768 60.2815 85.3768 62.6875 84.6562V94.6942ZM114.312 88.8974H66.375V85.1933H101.406C101.895 85.1933 102.364 84.9982 102.71 84.6509C103.056 84.3036 103.25 83.8325 103.25 83.3413C103.25 81.8677 103.833 80.4545 104.87 79.4125C105.907 78.3706 107.314 77.7852 108.781 77.7852C109.27 77.7852 109.739 77.5901 110.085 77.2428C110.431 76.8954 110.625 76.4244 110.625 75.9332V16.6683C110.625 16.1771 110.431 15.706 110.085 15.3587C109.739 15.0114 109.27 14.8162 108.781 14.8162C107.314 14.8162 105.907 14.2309 104.87 13.1889C103.833 12.1469 103.25 10.7337 103.25 9.26014C103.25 8.76895 103.056 8.29788 102.71 7.95056C102.364 7.60324 101.895 7.40811 101.406 7.40811H16.5938C16.1048 7.40811 15.6358 7.60324 15.29 7.95056C14.9443 8.29788 14.75 8.76895 14.75 9.26014C14.75 10.7337 14.1672 12.1469 13.1299 13.1889C12.0926 14.2309 10.6857 14.8162 9.21875 14.8162C8.72976 14.8162 8.26079 15.0114 7.91502 15.3587C7.56925 15.706 7.375 16.1771 7.375 16.6683V75.9332C7.375 76.4244 7.56925 76.8954 7.91502 77.2428C8.26079 77.5901 8.72976 77.7852 9.21875 77.7852C10.6857 77.7852 12.0926 78.3706 13.1299 79.4125C14.1672 80.4545 14.75 81.8677 14.75 83.3413C14.75 83.8325 14.9443 84.3036 15.29 84.6509C15.6358 84.9982 16.1048 85.1933 16.5938 85.1933H51.625V88.8974H3.6875V3.70406H114.312V88.8974Z" fill="black"/>
<path d="M90.3438 18.5186H27.6562C27.1673 18.5186 26.6983 18.7137 26.3525 19.0609C26.0068 19.4082 25.8125 19.8793 25.8125 20.3704V31.4815C25.8125 31.9727 26.0068 32.4437 26.3525 32.791C26.6983 33.1383 27.1673 33.3334 27.6562 33.3334H90.3438C90.8327 33.3334 91.3017 33.1383 91.6475 32.791C91.9932 32.4437 92.1875 31.9727 92.1875 31.4815V20.3704C92.1875 19.8793 91.9932 19.4082 91.6475 19.0609C91.3017 18.7137 90.8327 18.5186 90.3438 18.5186ZM88.5 29.6297H29.5V22.2223H88.5V29.6297Z" fill="black"/>
<path d="M90.3438 40.7445H27.6562C27.1673 40.7445 26.6983 40.9396 26.3525 41.2869C26.0068 41.6342 25.8125 42.1052 25.8125 42.5964C25.8125 43.0875 26.0068 43.5585 26.3525 43.9058C26.6983 44.2531 27.1673 44.4482 27.6562 44.4482H90.3438C90.8327 44.4482 91.3017 44.2531 91.6475 43.9058C91.9932 43.5585 92.1875 43.0875 92.1875 42.5964C92.1875 42.1052 91.9932 41.6342 91.6475 41.2869C91.3017 40.9396 90.8327 40.7445 90.3438 40.7445Z" fill="black"/>
<path d="M90.3438 50.0048H27.6562C27.1673 50.0048 26.6983 50.1999 26.3525 50.5472C26.0068 50.8944 25.8125 51.3655 25.8125 51.8566C25.8125 52.3478 26.0068 52.8188 26.3525 53.1661C26.6983 53.5134 27.1673 53.7085 27.6562 53.7085H90.3438C90.8327 53.7085 91.3017 53.5134 91.6475 53.1661C91.9932 52.8188 92.1875 52.3478 92.1875 51.8566C92.1875 51.3655 91.9932 50.8944 91.6475 50.5472C91.3017 50.1999 90.8327 50.0048 90.3438 50.0048Z" fill="black"/>
<path d="M38.7188 68.525H27.6562C27.1673 68.525 26.6983 68.7201 26.3525 69.0674C26.0068 69.4147 25.8125 69.8857 25.8125 70.3769C25.8125 70.868 26.0068 71.339 26.3525 71.6863C26.6983 72.0336 27.1673 72.2287 27.6562 72.2287H38.7188C39.2077 72.2287 39.6767 72.0336 40.0225 71.6863C40.3682 71.339 40.5625 70.868 40.5625 70.3769C40.5625 69.8857 40.3682 69.4147 40.0225 69.0674C39.6767 68.7201 39.2077 68.525 38.7188 68.525Z" fill="black"/>
<path d="M90.3438 68.525H79.2812C78.7923 68.525 78.3233 68.7201 77.9775 69.0674C77.6318 69.4147 77.4375 69.8857 77.4375 70.3769C77.4375 70.868 77.6318 71.339 77.9775 71.6863C78.3233 72.0336 78.7923 72.2287 79.2812 72.2287H90.3438C90.8327 72.2287 91.3017 72.0336 91.6475 71.6863C91.9932 71.339 92.1875 70.868 92.1875 70.3769C92.1875 69.8857 91.9932 69.4147 91.6475 69.0674C91.3017 68.7201 90.8327 68.525 90.3438 68.525Z" fill="black"/>
</svg>
