<svg width="80" height="100" viewBox="0 0 80 100" fill="none" xmlns="http://www.w3.org/2000/svg">
<path d="M39.9999 99.2055C17.0195 92.8008 0.78418 71.009 0.78418 45.8352V11.726C14.6124 11.7079 28.1728 7.92667 39.9999 0.791016C51.8266 7.92741 65.3872 11.7087 79.2155 11.726V45.8352C79.2155 71.0871 62.941 92.8086 39.9999 99.2055Z" fill="url(#paint0_linear)"/>
<path d="M79.2155 43.4919V45.8351C79.2155 70.8293 63.1214 92.7539 39.9999 99.2055C16.8783 92.7539 0.78418 70.8606 0.78418 45.8351V43.4919C0.78418 68.4861 16.8783 90.4107 39.9999 96.8623C63.1214 90.4107 79.2155 68.5174 79.2155 43.4919Z" fill="#5B8DC9"/>
<path d="M40 92.6836C20.5177 86.4351 7.05884 67.4082 7.05884 45.8195V17.7011C18.6025 16.807 29.8271 13.4988 40 7.99243C50.1712 13.5079 61.3956 16.8267 72.9412 17.7323V45.8508C72.9412 67.4082 59.4824 86.4116 40 92.6836Z" fill="url(#paint1_linear)"/>
<path d="M61.1764 39.8444H18.8235V72.6492H61.1764V39.8444Z" fill="#C7CDD8"/>
<path d="M54.9021 34.3769V39.8444H50.1962C50.1962 34.4628 50.8079 30.784 47.2079 27.1989C40.8315 20.8488 29.804 25.3243 29.804 34.3769V39.8444H25.0981V34.3769C25.0981 30.441 26.6682 26.6663 29.4628 23.8832C32.2575 21.1001 36.0479 19.5366 40.0001 19.5366C43.9524 19.5366 47.7427 21.1001 50.5374 23.8832C53.332 26.6663 54.9021 30.441 54.9021 34.3769Z" fill="#C7CDD8"/>
<path d="M72.9412 43.4919V45.8351C72.9412 67.4082 59.4824 86.4507 40 92.6992C20.5177 86.4507 7.05884 67.4239 7.05884 45.8351V43.4919C7.05884 65.065 20.5177 84.1075 40 90.356C59.4824 84.0684 72.9412 65.065 72.9412 43.4919Z" fill="#C7CDD8"/>
<path d="M72.9412 17.7323V20.0756C61.3956 19.1699 50.1712 15.8511 40 10.3356C29.8295 15.8529 18.6048 19.1718 7.05884 20.0756V17.7323C18.6048 16.8286 29.8295 13.5097 40 7.99243C50.1712 13.5079 61.3956 16.8267 72.9412 17.7323Z" fill="#C7CDD8"/>
<path d="M61.1764 36.7201H18.8235V69.5249H61.1764V36.7201Z" fill="url(#paint2_linear)"/>
<path d="M61.1764 66.4006H18.8235V69.5249H61.1764V66.4006Z" fill="#8288A1"/>
<path d="M54.9021 31.2526V36.7201H50.1962C50.1962 31.3386 50.8079 27.6597 47.2079 24.0746C40.8315 17.7245 29.804 22.2001 29.804 31.2526V36.7201H25.0981V31.2526C25.0981 27.3168 26.6682 23.5421 29.4628 20.759C32.2575 17.9759 36.0479 16.4124 40.0001 16.4124C43.9524 16.4124 47.7427 17.9759 50.5374 20.759C53.332 23.5421 54.9021 27.3168 54.9021 31.2526Z" fill="url(#paint3_linear)"/>
<path d="M47.561 62.0892C46.1127 63.3021 44.392 64.1492 42.5449 64.5587C40.6978 64.9681 38.7787 64.9278 36.9506 64.4411C35.1224 63.9544 33.4391 63.0358 32.0436 61.7631C30.648 60.4904 29.5812 58.9012 28.9339 57.1304C28.2866 55.3596 28.0777 53.4594 28.3251 51.5911C28.5724 49.7227 29.2687 47.9414 30.3548 46.3982C31.4409 44.855 32.8847 43.5954 34.5639 42.7264C36.243 41.8575 38.1079 41.4047 40.0002 41.4065C50.9806 41.4065 55.9218 55.1221 47.561 62.0892Z" fill="url(#paint4_linear)"/>
<path d="M47.5608 62.0892C39.451 68.9235 26.902 62.1986 28.3608 51.5448C28.7483 54.349 30.1421 56.9187 32.2846 58.7789C34.427 60.639 37.1733 61.6638 40.0157 61.6638C42.8581 61.6638 45.6044 60.639 47.7469 58.7789C49.8894 56.9187 51.2832 54.349 51.6706 51.5448C51.9417 53.5053 51.7066 55.5023 50.9875 57.3473C50.2684 59.1922 49.0891 60.8242 47.5608 62.0892Z" fill="#F6B756"/>
<path d="M47.545 62.0969C45.4335 63.8687 42.7611 64.8404 39.9999 64.8404C37.2388 64.8404 34.5664 63.8687 32.4548 62.0969C33.3333 58.3712 36.1725 54.6846 39.9999 54.6846C43.8274 54.6846 46.6666 58.3712 47.545 62.0969Z" fill="url(#paint5_linear)"/>
<path d="M40.0002 54.6847C42.166 54.6847 43.9218 52.9362 43.9218 50.7794C43.9218 48.6225 42.166 46.874 40.0002 46.874C37.8344 46.874 36.0786 48.6225 36.0786 50.7794C36.0786 52.9362 37.8344 54.6847 40.0002 54.6847Z" fill="url(#paint6_linear)"/>
<path d="M29.804 33.5958H25.0981V36.7201H29.804V33.5958Z" fill="#8288A1"/>
<path d="M54.9019 33.5958H50.196V36.7201H54.9019V33.5958Z" fill="#8288A1"/>
<path d="M47.545 62.0971C45.4335 63.8689 42.7611 64.8406 39.9999 64.8406C37.2388 64.8406 34.5664 63.8689 32.4548 62.0971C32.654 61.2467 32.9487 60.4214 33.3333 59.6367C35.2906 60.9906 37.6168 61.7162 39.9999 61.7162C42.3831 61.7162 44.7093 60.9906 46.6666 59.6367C47.0512 60.4214 47.3458 61.2467 47.545 62.0971Z" fill="#5B8DC9"/>
<path d="M79.2157 10.9449C65.5298 10.9179 52.1111 7.16933 40.4078 0.103665C40.3216 0.0568004 40 -0.146277 39.4431 0.189582C27.775 7.20024 14.4116 10.9181 0.784314 10.9449C0.576301 10.9449 0.376808 11.0272 0.22972 11.1737C0.082633 11.3201 0 11.5188 0 11.726V45.8352C0 71.173 16.3686 93.4803 39.8039 99.971C39.9424 100.01 40.0889 100.01 40.2275 99.971C63.6471 93.4413 80 71.173 80 45.8352V11.726C80 11.5188 79.9174 11.3201 79.7703 11.1737C79.6232 11.0272 79.4237 10.9449 79.2157 10.9449ZM78.4314 45.8508C78.4314 70.3998 62.6431 91.9729 40 98.3932C17.3725 91.9572 1.56863 70.3841 1.56863 45.8352V12.507C15.1091 12.3428 28.3662 8.62193 40 1.72047C51.6338 8.62193 64.8909 12.3428 78.4314 12.507V45.8508Z" fill="#47566A"/>
<path d="M6.99605 16.9357C6.7963 16.9477 6.60869 17.0352 6.47163 17.1804C6.33457 17.3256 6.25843 17.5175 6.25879 17.7168V45.8352C6.25879 67.5177 20.0313 87.099 39.7568 93.4804C39.9155 93.5272 40.0844 93.5272 40.2431 93.4804C59.9686 87.099 73.7255 67.5177 73.7255 45.8352V17.7168C73.7258 17.5175 73.6497 17.3256 73.5126 17.1804C73.3756 17.0352 73.188 16.9477 72.9882 16.9357C61.557 16.0553 50.4439 12.7674 40.3843 7.28954C40.2636 7.22528 40.1289 7.19165 39.9921 7.19165C39.8553 7.19165 39.7206 7.22528 39.6 7.28954C29.5403 12.7674 18.4272 16.0553 6.99605 16.9357ZM72.1411 18.4979V45.8352C72.1411 66.7444 58.9333 85.6228 39.9843 91.8401C21.0509 85.5916 7.82742 66.7444 7.82742 45.8352V18.4979C19.0988 17.5272 30.0495 14.2598 40 8.89854C49.948 14.2469 60.8931 17.5035 72.1568 18.4666L72.1411 18.4979Z" fill="#47566A"/>
<path d="M18.8236 70.3061H61.1766C61.3846 70.3061 61.5841 70.2238 61.7312 70.0773C61.8782 69.9308 61.9609 69.7322 61.9609 69.525V36.7202C61.9609 36.513 61.8782 36.3144 61.7312 36.1679C61.5841 36.0214 61.3846 35.9391 61.1766 35.9391H55.6864V31.2527C55.6864 27.1097 54.0337 23.1363 51.092 20.2067C48.1502 17.2772 44.1604 15.6313 40.0001 15.6313C35.8398 15.6313 31.85 17.2772 28.9082 20.2067C25.9665 23.1363 24.3138 27.1097 24.3138 31.2527V35.9391H18.8236C18.6156 35.9391 18.4161 36.0214 18.269 36.1679C18.1219 36.3144 18.0393 36.513 18.0393 36.7202V69.525C18.0393 69.7322 18.1219 69.9308 18.269 70.0773C18.4161 70.2238 18.6156 70.3061 18.8236 70.3061ZM25.8824 31.2527C25.8824 27.524 27.3698 23.9479 30.0174 21.3113C32.665 18.6747 36.2559 17.1935 40.0001 17.1935C43.7443 17.1935 47.3352 18.6747 49.9828 21.3113C52.6303 23.9479 54.1177 27.524 54.1177 31.2527V35.9391H50.9805V31.2527C50.9805 28.3526 49.8236 25.5712 47.7644 23.5205C45.7052 21.4698 42.9123 20.3178 40.0001 20.3178C37.0879 20.3178 34.295 21.4698 32.2358 23.5205C30.1766 25.5712 29.0197 28.3526 29.0197 31.2527V35.9391H25.8824V31.2527ZM49.4119 35.9391H30.5883V31.2527C30.5883 28.7669 31.5799 26.3829 33.345 24.6251C35.11 22.8674 37.5039 21.8799 40.0001 21.8799C42.4962 21.8799 44.8902 22.8674 46.6552 24.6251C48.4203 26.3829 49.4119 28.7669 49.4119 31.2527V35.9391ZM19.6079 37.5012H60.3923V68.744H19.6079V37.5012Z" fill="#47566A"/>
<path d="M40 40.6255C28.3451 40.6255 22.9804 55.2471 31.8745 62.6594C33.4154 63.9589 35.2483 64.8689 37.2178 65.3122C39.1872 65.7555 41.235 65.719 43.1873 65.2057C45.1395 64.6925 46.9386 63.7177 48.4317 62.3642C49.9249 61.0106 51.068 59.3182 51.7641 57.4307C52.4601 55.5432 52.6886 53.5163 52.43 51.5221C52.1714 49.5279 51.4334 47.6252 50.2787 45.9757C49.124 44.3262 47.5867 42.9785 45.7973 42.0471C44.0078 41.1157 42.0191 40.628 40 40.6255ZM36.8627 50.7794C36.8627 50.1614 37.0467 49.5574 37.3915 49.0436C37.7362 48.5298 38.2262 48.1294 38.7994 47.8929C39.3727 47.6564 40.0035 47.5946 40.6121 47.7151C41.2206 47.8357 41.7796 48.1332 42.2184 48.5702C42.6571 49.0071 42.9559 49.5638 43.077 50.1699C43.198 50.7759 43.1359 51.4041 42.8984 51.975C42.661 52.5459 42.2589 53.0338 41.743 53.3771C41.227 53.7204 40.6205 53.9036 40 53.9036C39.168 53.9036 38.37 53.5745 37.7816 52.9886C37.1933 52.4026 36.8627 51.608 36.8627 50.7794ZM33.3569 61.7924C34.4078 58.1058 37.1373 55.4658 40 55.4658C42.8627 55.4658 45.5922 58.0902 46.6431 61.7768C44.7376 63.2321 42.404 64.0221 40.0027 64.0249C37.6013 64.0278 35.2658 63.2432 33.3569 61.7924ZM47.9451 60.6364C47.5502 59.3287 46.8945 58.1138 46.0172 57.0643C45.1398 56.0148 44.059 55.1524 42.8392 54.5285C43.6255 53.9361 44.2052 53.1126 44.4962 52.1745C44.7872 51.2363 44.775 50.2308 44.4613 49.2999C44.1475 48.369 43.5481 47.5598 42.7476 46.9865C41.9471 46.4132 40.986 46.1047 40 46.1047C39.014 46.1047 38.0529 46.4132 37.2524 46.9865C36.4519 47.5598 35.8525 48.369 35.5387 49.2999C35.225 50.2308 35.2128 51.2363 35.5038 52.1745C35.7949 53.1126 36.3745 53.9361 37.1608 54.5285C35.941 55.1524 34.8602 56.0148 33.9829 57.0643C33.1055 58.1138 32.4498 59.3287 32.0549 60.6364C25.4745 53.7552 30.3529 42.1876 40 42.1876C49.6471 42.1876 54.5255 53.763 47.9451 60.6364Z" fill="#47566A"/>
<defs>
<linearGradient id="paint0_linear" x1="39.9999" y1="99.2055" x2="39.9999" y2="0.791016" gradientUnits="userSpaceOnUse">
<stop stop-color="#7AA8D7"/>
<stop offset="1" stop-color="#96C8EA"/>
</linearGradient>
<linearGradient id="paint1_linear" x1="40" y1="92.6836" x2="40" y2="7.99243" gradientUnits="userSpaceOnUse">
<stop stop-color="#DDE1E8"/>
<stop offset="1" stop-color="#F3F4F5"/>
</linearGradient>
<linearGradient id="paint2_linear" x1="40" y1="69.5249" x2="40" y2="36.7201" gradientUnits="userSpaceOnUse">
<stop stop-color="#949AAF"/>
<stop offset="1" stop-color="#C6CCDA"/>
</linearGradient>
<linearGradient id="paint3_linear" x1="25.0982" y1="970.877" x2="38.9464" y2="442.457" gradientUnits="userSpaceOnUse">
<stop stop-color="#949AAF"/>
<stop offset="1" stop-color="#C6CCDA"/>
</linearGradient>
<linearGradient id="paint4_linear" x1="40.0002" y1="64.8542" x2="40.0002" y2="41.4065" gradientUnits="userSpaceOnUse">
<stop stop-color="#FBCC88"/>
<stop offset="1" stop-color="#FFE5C3"/>
</linearGradient>
<linearGradient id="paint5_linear" x1="998.227" y1="897.615" x2="998.227" y2="765.59" gradientUnits="userSpaceOnUse">
<stop stop-color="#7AA8D7"/>
<stop offset="1" stop-color="#96C8EA"/>
</linearGradient>
<linearGradient id="paint6_linear" x1="538.039" y1="593.621" x2="538.039" y2="515.515" gradientUnits="userSpaceOnUse">
<stop stop-color="#7AA8D7"/>
<stop offset="1" stop-color="#96C8EA"/>
</linearGradient>
</defs>
</svg>
