<svg width="100" height="100" viewBox="0 0 100 100" fill="none" xmlns="http://www.w3.org/2000/svg">
<path d="M52.3438 61.3723H47.6562V74.2378H52.3438V61.3723Z" fill="url(#paint0_linear)"/>
<path d="M52.3438 71.8943H47.6562V74.238H52.3438V71.8943Z" fill="#F6B756"/>
<path d="M69.6875 99.2344H30.3125L32.7734 79.0027H67.2266L69.6875 99.2344Z" fill="url(#paint1_linear)"/>
<path d="M69.6875 99.2349H30.3125L30.6953 96.1099H69.3047L69.6875 99.2349Z" fill="#CBA07A"/>
<path d="M50 61.7397C35.3359 60.1071 24.6172 46.7182 23.9531 31.1656L22.6562 0.810303H77.3438L76.0469 31.1656C75.375 46.8198 64.5703 60.1149 50 61.7397Z" fill="url(#paint2_linear)"/>
<path d="M50 61.7397C35.3359 60.1071 24.6172 46.7182 23.9531 31.1656L22.6562 0.810303H77.3438L76.0469 31.1656C75.375 46.8198 64.5703 60.1149 50 61.7397Z" fill="#FFB152" fill-opacity="0.5"/>
<path d="M76.047 31.1655C75.3673 47.1399 64.2813 60.1772 50.0001 61.7395C35.7188 60.1772 24.6329 47.1399 23.9532 31.1655C22.3907 -5.79833 22.2501 -11.86 23.9532 28.0409C24.6329 44.0153 35.7188 57.0526 50.0001 58.6149C64.2813 57.0526 75.3673 44.0153 76.047 28.0409C77.7501 -11.8288 77.6251 -5.82957 76.047 31.1655Z" fill="#FFA539"/>
<path d="M55.4688 77.3628V78.9253H44.5312V77.3628C44.5312 76.534 44.8605 75.7391 45.4465 75.1531C46.0326 74.567 46.8274 74.2378 47.6562 74.2378H52.3438C53.1726 74.2378 53.9674 74.567 54.5535 75.1531C55.1395 75.7391 55.4688 76.534 55.4688 77.3628Z" fill="url(#paint3_linear)"/>
<path d="M55.4688 77.6438V78.925H44.5312V77.6438C44.8241 77.3104 45.1846 77.0433 45.5887 76.8601C45.9928 76.6769 46.4313 76.5818 46.875 76.5813C53.2344 76.5813 54.25 76.2375 55.4688 77.6438Z" fill="#F6B756"/>
<path d="M60.1562 83.6116H39.8438V94.5476H60.1562V83.6116Z" fill="url(#paint4_linear)"/>
<path d="M60.1562 92.2041H39.8438V94.5479H60.1562V92.2041Z" fill="#C7CDD8"/>
<path d="M50 45.3354C59.9239 45.3354 67.9688 37.2916 67.9688 27.3691C67.9688 17.4465 59.9239 9.40271 50 9.40271C40.0761 9.40271 32.0312 17.4465 32.0312 27.3691C32.0312 37.2916 40.0761 45.3354 50 45.3354Z" fill="url(#paint5_linear)"/>
<path d="M50 45.3355C47.5087 45.3352 45.0448 44.817 42.7646 43.8137C40.4844 42.8104 38.4378 41.344 36.7547 39.5076C35.0716 37.6712 33.7888 35.5049 32.9877 33.1463C32.1867 30.7877 31.8849 28.2883 32.1015 25.8069C32.4984 30.2794 34.5558 34.4412 37.8686 37.4727C41.1813 40.5041 45.5093 42.1854 50 42.1854C54.4906 42.1854 58.8186 40.5041 62.1313 37.4727C65.4441 34.4412 67.5015 30.2794 67.8984 25.8069C68.115 28.2883 67.8132 30.7877 67.0122 33.1463C66.2111 35.5049 64.9283 37.6712 63.2452 39.5076C61.5621 41.344 59.5155 42.8104 57.2353 43.8137C54.9551 44.817 52.4912 45.3352 50 45.3355Z" fill="#7ECE67"/>
<path d="M50 48.46C47.5087 48.4597 45.0448 47.9415 42.7646 46.9382C40.4844 45.9349 38.4378 44.4685 36.7547 42.6321C35.0716 40.7957 33.7888 38.6294 32.9877 36.2708C32.1867 33.9122 31.8849 31.4128 32.1015 28.9314C32.4984 33.4039 34.5558 37.5658 37.8686 40.5972C41.1813 43.6286 45.5093 45.3099 50 45.3099C54.4906 45.3099 58.8186 43.6286 62.1313 40.5972C65.4441 37.5658 67.5015 33.4039 67.8984 28.9314C68.115 31.4128 67.8132 33.9122 67.0122 36.2708C66.2111 38.6294 64.9283 40.7957 63.2452 42.6321C61.5621 44.4685 59.5155 45.9349 57.2353 46.9382C54.9551 47.9415 52.4912 48.4597 50 48.46Z" fill="#F6B756"/>
<path d="M39.8438 95.3287H60.1562C60.3635 95.3287 60.5622 95.2464 60.7087 95.0999C60.8552 94.9534 60.9375 94.7547 60.9375 94.5475V83.6115C60.9375 83.4043 60.8552 83.2056 60.7087 83.0591C60.5622 82.9126 60.3635 82.8303 60.1562 82.8303H39.8438C39.6365 82.8303 39.4378 82.9126 39.2913 83.0591C39.1448 83.2056 39.0625 83.4043 39.0625 83.6115V94.5475C39.0625 94.7547 39.1448 94.9534 39.2913 95.0999C39.4378 95.2464 39.6365 95.3287 39.8438 95.3287ZM40.625 84.3926H59.375V93.7664H40.625V84.3926Z" fill="#47566A"/>
<path d="M87.5 1.59127C82.9922 1.59127 79.6328 3.46602 77.8906 6.71558L78.125 0.810123C78.125 0.60295 78.0427 0.404263 77.8962 0.257769C77.7497 0.111276 77.5509 0.0289772 77.3438 0.0289772C18.9375 0.0289772 22.4453 -0.119441 22.0781 0.255509C21.7109 0.630459 21.8438 0.403927 22.0781 6.69996C20.3672 3.4504 17.0078 1.59127 12.5 1.59127C4.6875 1.59127 0 6.27814 0 14.0896C0 27.08 23.7031 31.2748 23.7031 37.5943C23.7031 39.6096 22.8203 40.6485 21.0938 40.6485C20.2422 40.6485 19.0703 39.305 18.6328 38.6566C18.5147 38.4805 18.3315 38.3586 18.1234 38.3175C17.9154 38.2765 17.6996 38.3198 17.5234 38.4379C17.3473 38.556 17.2253 38.7392 17.1843 38.9472C17.1433 39.1552 17.1866 39.371 17.3047 39.5471C17.4922 39.8049 19.1641 42.2108 21.0938 42.2108C21.8214 42.2364 22.5425 42.0647 23.1806 41.7141C23.8187 41.3634 24.3502 40.8468 24.7188 40.2189C28.125 51.1471 36.4922 59.6069 46.875 62.0051V73.5192C45.9901 73.6998 45.195 74.1814 44.6253 74.8821C44.0555 75.5828 43.7462 76.4593 43.75 77.3624V78.206H32.8125C32.6182 78.2051 32.4304 78.2766 32.286 78.4065C32.1415 78.5365 32.0507 78.7157 32.0312 78.9091L29.6875 98.4377H27.3438C27.1365 98.4377 26.9378 98.52 26.7913 98.6665C26.6448 98.813 26.5625 99.0117 26.5625 99.2188C26.5625 99.426 26.6448 99.6247 26.7913 99.7712C26.9378 99.9177 27.1365 100 27.3438 100H72.6562C72.8634 100 73.0622 99.9177 73.2087 99.7712C73.3552 99.6247 73.4375 99.426 73.4375 99.2188C73.4375 99.0117 73.3552 98.813 73.2087 98.6665C73.0622 98.52 72.8634 98.4377 72.6562 98.4377H70.3906L68.0469 78.9091C68.0274 78.7157 67.9366 78.5365 67.7922 78.4065C67.6477 78.2766 67.46 78.2051 67.2656 78.206H56.25V77.3624C56.2538 76.4593 55.9445 75.5828 55.3747 74.8821C54.805 74.1814 54.0099 73.6998 53.125 73.5192V62.0051C63.4922 59.6069 71.875 51.1471 75.2656 40.2345C75.6375 40.8619 76.1723 41.3769 76.8132 41.7249C77.4542 42.0729 78.1775 42.2408 78.9062 42.2108C80.8359 42.2108 82.5078 39.7893 82.6953 39.5159C82.8134 39.3398 82.8567 39.124 82.8157 38.916C82.7747 38.708 82.6527 38.5247 82.4766 38.4067C82.3004 38.2886 82.0846 38.2453 81.8766 38.2863C81.6685 38.3273 81.4853 38.4493 81.3672 38.6254C80.9297 39.2737 79.7578 40.6173 78.9062 40.6173C77.1797 40.6173 76.2969 39.594 76.2969 37.5786C76.2969 31.2748 100 27.0566 100 14.0896C100 6.27814 95.3125 1.59127 87.5 1.59127ZM68.75 98.4533H31.25L33.5156 79.8152H66.5625L68.75 98.4533ZM1.5625 14.0896C1.5625 7.15303 5.5625 3.15356 12.5 3.15356C18.4453 3.15356 21.875 6.56717 21.875 12.5273C21.9019 13.985 21.5204 15.4211 20.7734 16.6732C20.0265 17.9253 18.944 18.9434 17.6484 19.6123C17.4557 19.7014 17.3063 19.8634 17.2331 20.0626C17.1598 20.2618 17.1687 20.482 17.2578 20.6747C17.3469 20.8673 17.5089 21.0167 17.7082 21.09C17.9074 21.1632 18.1276 21.1543 18.3203 21.0652C20.1649 20.1068 21.6501 18.5778 22.5547 16.7064C23.2188 32.3293 23.1641 31.9075 23.3828 33.7588C17.8281 28.3143 1.5625 23.9633 1.5625 14.0896ZM54.6875 77.3624V78.1435H45.3125V77.3624C45.3125 76.7409 45.5594 76.1448 45.999 75.7053C46.4385 75.2659 47.0346 75.019 47.6562 75.019H52.3438C52.9654 75.019 53.5615 75.2659 54.001 75.7053C54.4406 76.1448 54.6875 76.7409 54.6875 77.3624ZM51.5625 73.4567H48.4375V62.3253C49.4621 62.5923 50.5379 62.5923 51.5625 62.3253V73.4567ZM50 60.9583C36.2578 59.396 25.4062 46.5853 24.75 31.1576L23.4844 1.59127H76.5156L75.25 31.1186C74.5938 46.5618 63.7422 59.396 50 60.9583ZM76.6328 33.7588C76.8828 31.6263 76.8516 31.0405 77.4609 16.7064C78.3655 18.5778 79.8508 20.1068 81.6953 21.0652C81.888 21.1543 82.1082 21.1632 82.3075 21.09C82.5067 21.0167 82.6687 20.8673 82.7578 20.6747C82.8469 20.482 82.8558 20.2618 82.7825 20.0626C82.7093 19.8634 82.5599 19.7014 82.3672 19.6123C81.0687 18.9455 79.983 17.9284 79.2332 16.6761C78.4834 15.4238 78.0995 13.9866 78.125 12.5273C78.125 6.58279 81.5391 3.15356 87.5 3.15356C94.4375 3.15356 98.4375 7.1374 98.4375 14.0896C98.4375 23.9789 82.1875 28.2986 76.6328 33.7588Z" fill="#47566A"/>
<path d="M50 8.62158C46.2916 8.62158 42.6665 9.7211 39.5831 11.7811C36.4996 13.8411 34.0964 16.7691 32.6773 20.1947C31.2581 23.6204 30.8868 27.3899 31.6103 31.0265C32.3338 34.6632 34.1195 38.0037 36.7418 40.6256C39.364 43.2474 42.7049 45.033 46.3421 45.7563C49.9792 46.4797 53.7492 46.1085 57.1753 44.6895C60.6014 43.2705 63.5298 40.8676 65.5901 37.7846C67.6503 34.7016 68.75 31.077 68.75 27.3691C68.75 22.3969 66.7746 17.6284 63.2583 14.1126C59.742 10.5968 54.9728 8.62158 50 8.62158ZM50 44.5543C46.6006 44.5543 43.2776 43.5464 40.4511 41.6581C37.6247 39.7697 35.4217 37.0858 34.1208 33.9456C32.8199 30.8054 32.4796 27.35 33.1428 24.0164C33.8059 20.6828 35.4429 17.6207 37.8466 15.2173C40.2503 12.8139 43.3128 11.1772 46.6469 10.5141C49.9809 9.85099 53.4368 10.1913 56.5774 11.492C59.718 12.7927 62.4023 14.9954 64.2909 17.8215C66.1795 20.6476 67.1875 23.9702 67.1875 27.3691C67.1875 31.9269 65.3767 36.298 62.1534 39.5209C58.9301 42.7437 54.5584 44.5543 50 44.5543Z" fill="#47566A"/>
<path d="M58.8123 20.5575L46.8748 32.4934L41.1873 26.8067C41.0382 26.6575 40.8358 26.5737 40.6248 26.5737C40.4139 26.5737 40.2115 26.6575 40.0623 26.8067C39.9132 26.9559 39.8293 27.1582 39.8293 27.3691C39.8293 27.5801 39.9132 27.7824 40.0623 27.9316C46.8045 34.6728 46.4061 34.3994 46.8748 34.3994C47.3436 34.3994 46.2498 35.3524 59.9373 21.6668C60.0845 21.5176 60.1663 21.3161 60.1648 21.1066C60.1633 20.8971 60.0787 20.6968 59.9295 20.5497C59.7803 20.4026 59.5788 20.3208 59.3693 20.3223C59.1598 20.3237 58.9595 20.4084 58.8123 20.5575Z" fill="#47566A"/>
<defs>
<linearGradient id="paint0_linear" x1="50" y1="74.2378" x2="50" y2="61.3723" gradientUnits="userSpaceOnUse">
<stop stop-color="#FBCC88"/>
<stop offset="1" stop-color="#FFE5C3"/>
</linearGradient>
<linearGradient id="paint1_linear" x1="50" y1="99.2344" x2="50" y2="79.0027" gradientUnits="userSpaceOnUse">
<stop stop-color="#D1A788"/>
<stop offset="1" stop-color="#F2D3B8"/>
</linearGradient>
<linearGradient id="paint2_linear" x1="22.6563" y1="4814.23" x2="90.5372" y2="61.9281" gradientUnits="userSpaceOnUse">
<stop stop-color="#FBCC88"/>
<stop offset="1" stop-color="#FFE5C3"/>
</linearGradient>
<linearGradient id="paint3_linear" x1="44.5312" y1="547.675" x2="46.5855" y2="518.916" gradientUnits="userSpaceOnUse">
<stop stop-color="#FBCC88"/>
<stop offset="1" stop-color="#FFE5C3"/>
</linearGradient>
<linearGradient id="paint4_linear" x1="50" y1="94.5476" x2="50" y2="83.6116" gradientUnits="userSpaceOnUse">
<stop stop-color="#DDE1E8"/>
<stop offset="1" stop-color="#F3F4F5"/>
</linearGradient>
<linearGradient id="paint5_linear" x1="50" y1="45.3354" x2="50" y2="9.40271" gradientUnits="userSpaceOnUse">
<stop stop-color="#8CDD79"/>
<stop offset="1" stop-color="#D4E6B6"/>
</linearGradient>
</defs>
</svg>
