<svg width="97" height="100" viewBox="0 0 97 100" fill="none" xmlns="http://www.w3.org/2000/svg">
<path d="M43.5324 45.9268C43.3871 45.7805 43.2142 45.6644 43.0236 45.5852C42.8331 45.506 42.6288 45.4652 42.4224 45.4652C42.216 45.4652 42.0116 45.506 41.8211 45.5852C41.6305 45.6644 41.4576 45.7805 41.3123 45.9268C40.7264 46.5081 39.9338 46.8344 39.1077 46.8344C38.2816 46.8344 37.489 46.5081 36.9032 45.9268C36.6087 45.633 36.2094 45.4679 35.7931 45.4679C35.3767 45.4679 34.9774 45.633 34.683 45.9268C34.3885 46.2206 34.2231 46.6192 34.2231 47.0348C34.2231 47.4503 34.3885 47.8489 34.683 48.1427C38.8888 52.3404 45.8621 48.2675 43.5324 45.9268Z" fill="black"/>
<path d="M96.9577 54.65C96.9577 48.486 90.2815 45.724 84.4496 47.3157V1.59318C84.4496 1.17932 84.2849 0.782397 83.9917 0.489748C83.6984 0.197098 83.3008 0.0326894 82.8861 0.0326894C82.4714 0.0326894 82.0737 0.197098 81.7805 0.489748C81.4873 0.782397 81.3226 1.17932 81.3226 1.59318V46.8475C77.7578 46.8475 73.505 48.408 73.505 56.2105C73.505 62.1248 72.7233 64.9025 76.632 69.303V73.3759C76.2174 73.3759 75.8197 73.5404 75.5265 73.833C75.2332 74.1256 75.0685 74.5226 75.0685 74.9364C75.0685 79.6179 75.178 80.1485 74.9747 78.8845C73.9669 72.8517 70.6334 67.4522 65.6874 63.8413V20.3191C65.6874 14.9388 63.546 9.77889 59.7342 5.97445C55.9224 2.17 50.7525 0.0326894 45.3618 0.0326894C38.2634 0.0326894 33.5885 -0.544693 27.6941 3.15368C23.6292 3.27544 19.7718 4.97313 16.9404 7.88653C14.1089 10.7999 12.5262 14.6998 12.528 18.7586V63.8413C7.58203 67.4522 4.2485 72.8517 3.24073 78.8845L0.0198932 98.0942C-0.0464539 98.508 0.0546432 98.9313 0.300944 99.2707C0.547245 99.6102 0.918575 99.8381 1.33324 99.9044C1.74791 99.9706 2.17196 99.8697 2.51209 99.6238C2.85222 99.378 3.08057 99.0074 3.14692 98.5935L6.27395 79.3995C6.98269 75.111 9.05894 71.1652 12.1941 68.1485C15.3293 65.1319 19.356 63.2054 23.6758 62.6553C18.6257 69.9897 18.5632 69.74 18.8446 70.6919C19.126 71.6438 18.9697 71.3629 29.1481 75.7167L26.7716 80.3982C26.6136 80.7095 26.5647 81.0646 26.6328 81.4069C26.7008 81.7492 26.8818 82.0588 27.1468 82.2864L37.5442 91.2592V98.3439C37.5442 98.7577 37.7089 99.1546 38.0022 99.4473C38.2954 99.7399 38.6931 99.9044 39.1077 99.9044C39.5224 99.9044 39.9201 99.7399 40.2133 99.4473C40.5065 99.1546 40.6712 98.7577 40.6712 98.3439V91.2592L51.0686 82.3644C51.3337 82.1368 51.5147 81.8272 51.5827 81.4849C51.6507 81.1426 51.6018 80.7875 51.4438 80.4762L49.0673 75.7947C59.4334 71.2849 59.0894 71.6438 59.4334 70.6919C59.7774 69.74 59.6054 69.9272 54.6021 62.6553C58.9107 63.2178 62.9233 65.1499 66.0462 68.1655C69.169 71.1811 71.2361 75.1201 71.9415 79.3995C75.3343 99.6859 74.9591 99.327 76.1161 99.7951C79.0242 100.965 78.1955 97.626 78.1955 76.4969H90.7037V98.3439C90.7037 98.7577 90.8684 99.1546 91.1616 99.4473C91.4548 99.7399 91.8525 99.9044 92.2672 99.9044C92.6818 99.9044 93.0795 99.7399 93.3727 99.4473C93.666 99.1546 93.8307 98.7577 93.8307 98.3439V74.9364C93.8307 74.5226 93.666 74.1256 93.3727 73.833C93.0795 73.5404 92.6818 73.3759 92.2672 73.3759V69.4747C97.7707 65.0429 96.9577 61.1261 96.9577 54.65ZM46.9253 59.3315V56.2105C50.1327 54.8715 52.9424 52.7338 55.0858 50.0017C57.2291 47.2696 58.6345 44.0345 59.1676 40.6056C60.3589 40.6429 61.536 40.3397 62.5604 39.7317V61.9219C56.7754 58.957 52.4132 59.3315 46.9253 59.3315ZM39.1077 72.2992C33.5885 58.52 34.4172 61.7034 34.4172 57.2248C37.5036 57.9358 40.7118 57.9358 43.7983 57.2248C43.7983 61.7034 44.5644 58.6605 39.1077 72.2992ZM59.4334 37.4846V31.2426C60.2627 31.2426 61.0581 31.5714 61.6445 32.1567C62.231 32.742 62.5604 33.5358 62.5604 34.3636C62.5604 35.1913 62.231 35.9851 61.6445 36.5704C61.0581 37.1557 60.2627 37.4846 59.4334 37.4846ZM41.6093 28.5741C39.9974 27.9652 38.2181 27.9652 36.6061 28.5741C36.0197 27.5293 35.1742 26.6522 34.1506 26.0272C33.127 25.4021 31.9597 25.05 30.7606 25.0046C29.5615 24.9592 28.3709 25.222 27.3028 25.7678C26.2347 26.3136 25.3249 27.1241 24.6609 28.1216H22.4094C23.2476 23.8106 25.1985 19.7926 28.0693 16.4647C32.4472 21.1462 37.4504 20.3191 44.5175 20.3191C46.8739 20.33 49.1649 21.0933 51.0554 22.4972C52.946 23.9012 54.3367 25.8721 55.0243 28.1216H53.5546C52.8905 27.1241 51.9808 26.3136 50.9127 25.7678C49.8446 25.222 48.6539 24.9592 47.4548 25.0046C46.2557 25.05 45.0884 25.4021 44.0649 26.0272C43.0413 26.6522 42.1958 27.5293 41.6093 28.5741ZM47.707 28.1216C48.4801 28.1216 49.2359 28.3504 49.8787 28.7791C50.5214 29.2077 51.0224 29.817 51.3183 30.5299C51.6141 31.2428 51.6915 32.0272 51.5407 32.7839C51.3899 33.5407 51.0176 34.2358 50.471 34.7814C49.9243 35.327 49.2278 35.6986 48.4696 35.8491C47.7114 35.9996 46.9255 35.9224 46.2112 35.6271C45.497 35.3318 44.8865 34.8318 44.457 34.1902C44.0275 33.5487 43.7983 32.7944 43.7983 32.0228C43.7983 30.9882 44.2101 29.9959 44.9431 29.2642C45.6762 28.5326 46.6704 28.1216 47.707 28.1216ZM30.5084 28.1216C31.2815 28.1216 32.0372 28.3504 32.68 28.7791C33.3228 29.2077 33.8238 29.817 34.1196 30.5299C34.4155 31.2428 34.4929 32.0272 34.3421 32.7839C34.1913 33.5407 33.819 34.2358 33.2723 34.7814C32.7257 35.327 32.0292 35.6986 31.271 35.8491C30.5127 35.9996 29.7268 35.9224 29.0126 35.6271C28.2983 35.3318 27.6879 34.8318 27.2584 34.1902C26.8289 33.5487 26.5996 32.7944 26.5996 32.0228C26.5996 30.9882 27.0114 29.9959 27.7445 29.2642C28.4775 28.5326 29.4717 28.1216 30.5084 28.1216ZM18.7821 37.4846C17.9527 37.4846 17.1573 37.1557 16.5709 36.5704C15.9845 35.9851 15.655 35.1913 15.655 34.3636C15.655 33.5358 15.9845 32.742 16.5709 32.1567C17.1573 31.5714 17.9527 31.2426 18.7821 31.2426V37.4846ZM21.9091 31.3518C21.9091 31.1958 21.6902 31.2426 23.5508 31.2426C23.4374 32.2076 23.5268 33.1856 23.8133 34.1141C24.0997 35.0427 24.577 35.9015 25.2146 36.6357C25.8522 37.3699 26.6362 37.9634 27.5164 38.3783C28.3967 38.7932 29.3539 39.0205 30.3271 39.0455C31.3002 39.0705 32.268 38.8929 33.1685 38.5238C34.069 38.1547 34.8825 37.6023 35.5572 36.9019C36.2319 36.2015 36.7528 35.3684 37.0869 34.4557C37.4209 33.5431 37.5607 32.571 37.4973 31.6015C37.4973 31.4298 38.5605 31.2426 39.0608 31.2426C39.3423 31.2426 40.6243 31.383 40.6243 31.6015C40.672 33.4701 41.4615 35.2433 42.8191 36.531C44.1767 37.8186 45.9912 38.5153 47.8634 38.4677C49.7356 38.4201 51.5122 37.6321 52.8024 36.2772C54.0925 34.9222 54.7905 33.1112 54.7429 31.2426C56.5253 31.2426 56.3064 31.149 56.3064 31.5235V37.4846C56.3075 40.8804 55.2994 44.2003 53.4097 47.0242C51.52 49.848 48.8335 52.0491 45.6901 53.3487C42.5468 54.6484 39.0878 54.9884 35.7509 54.3256C32.4139 53.6628 29.3489 52.027 26.9436 49.6252C21.0804 43.7265 21.9091 37.4846 21.9091 31.3518ZM28.1631 6.27467C29.1325 6.27467 32.3377 3.15368 38.498 3.15368H45.3618C49.9231 3.15368 54.2977 4.96218 57.5231 8.18132C60.7484 11.4005 62.5604 15.7666 62.5604 20.3191V28.9955C61.2882 28.2779 59.8239 27.9725 58.3702 28.1216L57.6823 26.3114C56.6772 23.6362 54.8785 21.3306 52.5262 19.7023C50.174 18.0739 47.3801 17.2004 44.5175 17.1981H36.9344C35.457 17.1988 34.0022 16.8361 32.6987 16.142C31.3951 15.448 30.2831 14.444 29.4608 13.2189C29.3335 13.0257 29.1648 12.8632 28.9668 12.7431C28.7689 12.623 28.5467 12.5483 28.3162 12.5244C28.0858 12.5005 27.853 12.528 27.6345 12.6049C27.416 12.6819 27.2174 12.8063 27.053 12.9692C22.9511 17.0997 20.2218 22.3898 19.2355 28.1216C17.9811 28.0473 16.7334 28.3518 15.655 28.9955V18.7586C15.655 15.4477 16.9728 12.2723 19.3186 9.93114C21.6643 7.58994 24.8458 6.27467 28.1631 6.27467ZM15.655 39.7317C16.6767 40.3463 17.8558 40.65 19.0478 40.6056C19.5722 44.0376 20.9744 47.2767 23.1188 50.0102C25.2633 52.7437 28.0776 54.8792 31.2902 56.2105V59.3315C25.5364 59.3315 21.4244 58.9726 15.655 61.9219V39.7317ZM30.1019 80.7883C32.8693 75.2641 33.0726 75.2485 32.7599 74.4059C32.4472 73.5632 32.4159 73.7193 22.7065 69.5683L27.6003 62.4525H31.7905L37.5442 76.7934V87.1551L30.1019 80.7883ZM46.3155 73.5008C46.119 73.5846 45.9418 73.7076 45.7948 73.8624C45.6479 74.0173 45.5342 74.2005 45.461 74.4008C45.3877 74.6012 45.3564 74.8144 45.3689 75.0273C45.3814 75.2402 45.4375 75.4482 45.5338 75.6387L48.1136 80.7883L40.6712 87.1551V76.7934L46.425 62.4525H50.6152L55.509 69.5683L46.3155 73.5008ZM89.8437 67.3992C88.9212 68.0078 89.1401 68.4916 89.1401 73.3759H79.7591C79.7591 68.2887 79.8998 68.1951 79.3056 67.5865C77.8747 66.2139 76.9353 64.4101 76.632 62.4525C76.632 55.836 75.7252 50.265 80.791 49.9685C79.4464 52.5433 79.7591 55.321 79.7591 59.3315C79.7591 64.2002 86.0131 65.355 86.0131 62.4525C86.0131 62.0386 85.8484 61.6417 85.5552 61.349C85.262 61.0564 84.8643 60.892 84.4496 60.892C84.2388 60.9141 84.0258 60.8889 83.8261 60.8182C83.6263 60.7476 83.4449 60.6334 83.295 60.4838C83.1452 60.3343 83.0307 60.1532 82.96 59.9538C82.8892 59.7545 82.864 59.5418 82.8861 59.3315C82.8861 55.4771 82.6516 53.0895 83.6522 51.3105C83.9073 51.16 84.1177 50.9446 84.262 50.6863C87.6861 49.0478 93.8307 50.187 93.8307 54.65V60.892C93.8307 64.6684 89.875 67.368 89.8437 67.3992Z" fill="black"/>
</svg>
