<svg width="100" height="100" viewBox="0 0 100 100" fill="none" xmlns="http://www.w3.org/2000/svg">
<path d="M99.2188 8.59375V14.8438H83.5938V8.59375C83.5938 6.52175 84.4169 4.53461 85.882 3.06948C87.3471 1.60435 89.3342 0.78125 91.4062 0.78125C93.4783 0.78125 95.4654 1.60435 96.9305 3.06948C98.3956 4.53461 99.2188 6.52175 99.2188 8.59375Z" fill="url(#paint0_linear)"/>
<path d="M99.2188 11.7188H83.5938V14.8438H99.2188V11.7188Z" fill="#8288A1"/>
<path d="M75.7812 99.2188H8.59375C6.52175 99.2188 4.53461 98.3956 3.06948 96.9305C1.60435 95.4654 0.78125 93.4783 0.78125 91.4062V85.1562H67.9688V91.4062C67.9688 93.4783 68.7918 95.4654 70.257 96.9305C71.7221 98.3956 73.7092 99.2188 75.7812 99.2188Z" fill="url(#paint1_linear)"/>
<path d="M75.7812 99.2188H8.59375C6.52175 99.2188 4.53461 98.3956 3.06948 96.9305C1.60435 95.4654 0.78125 93.4783 0.78125 91.4062V88.2812C0.78125 90.3533 1.60435 92.3404 3.06948 93.8055C4.53461 95.2706 6.52175 96.0938 8.59375 96.0938H69.5312C70.259 97.064 71.2026 97.8516 72.2874 98.394C73.3722 98.9364 74.5684 99.2188 75.7812 99.2188Z" fill="#8288A1"/>
<path d="M91.4062 0.78125C89.3342 0.78125 87.3471 1.60435 85.882 3.06948C84.4168 4.53461 83.5938 6.52175 83.5938 8.59375V91.4062C83.5938 93.4783 82.7707 95.4654 81.3055 96.9305C79.8404 98.3957 77.8533 99.2188 75.7812 99.2188C73.7092 99.2188 71.7221 98.3957 70.257 96.9305C68.7919 95.4654 67.9688 93.4783 67.9688 91.4062V85.1562H16.4062V8.59375C16.4063 6.52175 17.2294 4.53461 18.6945 3.06948C20.1596 1.60435 22.1467 0.78125 24.2188 0.78125H91.4062Z" fill="url(#paint2_linear)"/>
<path d="M67.9688 85.1562H16.4062V82.0312H64.8438C65.6726 82.0312 66.4674 82.3605 67.0535 82.9465C67.6395 83.5326 67.9688 84.3274 67.9688 85.1562Z" fill="#C7CDD8"/>
<path d="M83.5938 88.2812V91.4062C83.5938 93.4783 82.7706 95.4654 81.3055 96.9305C79.8404 98.3956 77.8533 99.2188 75.7812 99.2188C73.7092 99.2188 71.7221 98.3956 70.257 96.9305C68.7919 95.4654 67.9688 93.4783 67.9688 91.4062V88.2812C67.9688 90.3533 68.7919 92.3404 70.257 93.8055C71.7221 95.2706 73.7092 96.0938 75.7812 96.0938C77.8533 96.0938 79.8404 95.2706 81.3055 93.8055C82.7706 92.3404 83.5938 90.3533 83.5938 88.2812Z" fill="#C7CDD8"/>
<path d="M50 42.9688C59.9239 42.9688 67.9688 34.9239 67.9688 25C67.9688 15.0761 59.9239 7.03125 50 7.03125C40.0761 7.03125 32.0312 15.0761 32.0312 25C32.0312 34.9239 40.0761 42.9688 50 42.9688Z" fill="url(#paint3_linear)"/>
<path d="M50 42.9688C47.5087 42.9684 45.0448 42.4501 42.7646 41.4467C40.4844 40.4433 38.4378 38.9767 36.7547 37.14C35.0716 35.3034 33.7888 33.1368 32.9877 30.7779C32.1867 28.419 31.8849 25.9193 32.1015 23.4375C32.4984 27.9106 34.5558 32.073 37.8686 35.1048C41.1813 38.1367 45.5093 39.8182 50 39.8182C54.4906 39.8182 58.8186 38.1367 62.1313 35.1048C65.4441 32.073 67.5015 27.9106 67.8984 23.4375C68.115 25.9193 67.8132 28.419 67.0122 30.7779C66.2111 33.1368 64.9283 35.3034 63.2452 37.14C61.5621 38.9767 59.5155 40.4433 57.2353 41.4467C54.9551 42.4501 52.4912 42.9684 50 42.9688Z" fill="#7ECE67"/>
<path d="M28.9062 49.2188H24.2188V53.9062H28.9062V49.2188Z" fill="url(#paint4_linear)"/>
<path d="M28.9062 61.7188H24.2188V66.4062H28.9062V61.7188Z" fill="url(#paint5_linear)"/>
<path d="M28.9062 74.2188H24.2188V78.9062H28.9062V74.2188Z" fill="url(#paint6_linear)"/>
<path d="M91.4062 0H24.2188C21.9395 0 19.7537 0.90541 18.142 2.51705C16.5304 4.12869 15.625 6.31455 15.625 8.59375V84.375H0.78125C0.57405 84.375 0.375336 84.4573 0.228823 84.6038C0.08231 84.7503 0 84.9491 0 85.1562L0 91.4062C0 93.6855 0.90541 95.8713 2.51705 97.4829C4.12869 99.0946 6.31455 100 8.59375 100H75.7812C78.0605 100 80.2463 99.0946 81.8579 97.4829C83.4696 95.8713 84.375 93.6855 84.375 91.4062V15.625H99.2188C99.4259 15.625 99.6247 15.5427 99.7712 15.3962C99.9177 15.2497 100 15.051 100 14.8438V8.59375C100 6.31455 99.0946 4.12869 97.4829 2.51705C95.8713 0.90541 93.6855 0 91.4062 0V0ZM70.7969 98.4375H8.59375C6.72895 98.4375 4.94052 97.6967 3.62191 96.3781C2.30329 95.0595 1.5625 93.2711 1.5625 91.4062V85.9375H67.1875C67.1875 90.8516 66.4062 95.3125 70.7969 98.4375ZM82.8125 91.4062C82.8125 93.2711 82.0717 95.0595 80.7531 96.3781C79.4345 97.6967 77.6461 98.4375 75.7812 98.4375C73.9164 98.4375 72.128 97.6967 70.8094 96.3781C69.4908 95.0595 68.75 93.2711 68.75 91.4062V85.1562C68.75 84.9491 68.6677 84.7503 68.5212 84.6038C68.3747 84.4573 68.1759 84.375 67.9688 84.375H17.1875V8.59375C17.1875 6.72895 17.9283 4.94052 19.2469 3.62191C20.5655 2.30329 22.3539 1.5625 24.2188 1.5625H86.4219C85.3062 2.3647 84.3971 3.42055 83.7696 4.64303C83.1421 5.8655 82.814 7.21961 82.8125 8.59375V91.4062ZM98.4375 14.0625H84.375V8.59375C84.375 6.72895 85.1158 4.94052 86.4344 3.62191C87.753 2.30329 89.5414 1.5625 91.4062 1.5625C93.2711 1.5625 95.0595 2.30329 96.3781 3.62191C97.6967 4.94052 98.4375 6.72895 98.4375 8.59375V14.0625Z" fill="#47566A"/>
<path d="M28.9062 48.4375H24.2188C24.0115 48.4375 23.8128 48.5198 23.6663 48.6663C23.5198 48.8128 23.4375 49.0115 23.4375 49.2188V53.9062C23.4375 54.1135 23.5198 54.3122 23.6663 54.4587C23.8128 54.6052 24.0115 54.6875 24.2188 54.6875H28.9062C29.1135 54.6875 29.3122 54.6052 29.4587 54.4587C29.6052 54.3122 29.6875 54.1135 29.6875 53.9062V49.2188C29.6875 49.0115 29.6052 48.8128 29.4587 48.6663C29.3122 48.5198 29.1135 48.4375 28.9062 48.4375ZM28.125 53.125H25V50H28.125V53.125Z" fill="#47566A"/>
<path d="M75.7812 48.4375H34.375C34.1678 48.4375 33.9691 48.5198 33.8226 48.6663C33.6761 48.8128 33.5938 49.0115 33.5938 49.2188C33.5938 49.426 33.6761 49.6247 33.8226 49.7712C33.9691 49.9177 34.1678 50 34.375 50H75.7812C75.9884 50 76.1872 49.9177 76.3337 49.7712C76.4802 49.6247 76.5625 49.426 76.5625 49.2188C76.5625 49.0115 76.4802 48.8128 76.3337 48.6663C76.1872 48.5198 75.9884 48.4375 75.7812 48.4375Z" fill="#47566A"/>
<path d="M34.375 54.6875H62.5C62.7072 54.6875 62.9059 54.6052 63.0524 54.4587C63.1989 54.3122 63.2812 54.1135 63.2812 53.9062C63.2812 53.699 63.1989 53.5003 63.0524 53.3538C62.9059 53.2073 62.7072 53.125 62.5 53.125H34.375C34.1678 53.125 33.9691 53.2073 33.8226 53.3538C33.6761 53.5003 33.5938 53.699 33.5938 53.9062C33.5938 54.1135 33.6761 54.3122 33.8226 54.4587C33.9691 54.6052 34.1678 54.6875 34.375 54.6875Z" fill="#47566A"/>
<path d="M28.9062 60.9375H24.2188C24.0115 60.9375 23.8128 61.0198 23.6663 61.1663C23.5198 61.3128 23.4375 61.5115 23.4375 61.7188V66.4062C23.4375 66.6135 23.5198 66.8122 23.6663 66.9587C23.8128 67.1052 24.0115 67.1875 24.2188 67.1875H28.9062C29.1135 67.1875 29.3122 67.1052 29.4587 66.9587C29.6052 66.8122 29.6875 66.6135 29.6875 66.4062V61.7188C29.6875 61.5115 29.6052 61.3128 29.4587 61.1663C29.3122 61.0198 29.1135 60.9375 28.9062 60.9375ZM28.125 65.625H25V62.5H28.125V65.625Z" fill="#47566A"/>
<path d="M75.7812 60.9375H34.375C34.1678 60.9375 33.9691 61.0198 33.8226 61.1663C33.6761 61.3128 33.5938 61.5115 33.5938 61.7188C33.5938 61.926 33.6761 62.1247 33.8226 62.2712C33.9691 62.4177 34.1678 62.5 34.375 62.5H75.7812C75.9884 62.5 76.1872 62.4177 76.3337 62.2712C76.4802 62.1247 76.5625 61.926 76.5625 61.7188C76.5625 61.5115 76.4802 61.3128 76.3337 61.1663C76.1872 61.0198 75.9884 60.9375 75.7812 60.9375Z" fill="#47566A"/>
<path d="M34.375 67.1875H62.5C62.7072 67.1875 62.9059 67.1052 63.0524 66.9587C63.1989 66.8122 63.2812 66.6135 63.2812 66.4062C63.2812 66.199 63.1989 66.0003 63.0524 65.8538C62.9059 65.7073 62.7072 65.625 62.5 65.625H34.375C34.1678 65.625 33.9691 65.7073 33.8226 65.8538C33.6761 66.0003 33.5938 66.199 33.5938 66.4062C33.5938 66.6135 33.6761 66.8122 33.8226 66.9587C33.9691 67.1052 34.1678 67.1875 34.375 67.1875Z" fill="#47566A"/>
<path d="M28.9062 73.4375H24.2188C24.0115 73.4375 23.8128 73.5198 23.6663 73.6663C23.5198 73.8128 23.4375 74.0115 23.4375 74.2188V78.9062C23.4375 79.1135 23.5198 79.3122 23.6663 79.4587C23.8128 79.6052 24.0115 79.6875 24.2188 79.6875H28.9062C29.1135 79.6875 29.3122 79.6052 29.4587 79.4587C29.6052 79.3122 29.6875 79.1135 29.6875 78.9062V74.2188C29.6875 74.0115 29.6052 73.8128 29.4587 73.6663C29.3122 73.5198 29.1135 73.4375 28.9062 73.4375ZM28.125 78.125H25V75H28.125V78.125Z" fill="#47566A"/>
<path d="M75.7812 73.4375H34.375C34.1678 73.4375 33.9691 73.5198 33.8226 73.6663C33.6761 73.8128 33.5938 74.0115 33.5938 74.2188C33.5938 74.426 33.6761 74.6247 33.8226 74.7712C33.9691 74.9177 34.1678 75 34.375 75H75.7812C75.9884 75 76.1872 74.9177 76.3337 74.7712C76.4802 74.6247 76.5625 74.426 76.5625 74.2188C76.5625 74.0115 76.4802 73.8128 76.3337 73.6663C76.1872 73.5198 75.9884 73.4375 75.7812 73.4375Z" fill="#47566A"/>
<path d="M62.5 78.125H34.375C34.1678 78.125 33.9691 78.2073 33.8226 78.3538C33.6761 78.5003 33.5938 78.699 33.5938 78.9062C33.5938 79.1135 33.6761 79.3122 33.8226 79.4587C33.9691 79.6052 34.1678 79.6875 34.375 79.6875H62.5C62.7072 79.6875 62.9059 79.6052 63.0524 79.4587C63.1989 79.3122 63.2812 79.1135 63.2812 78.9062C63.2812 78.699 63.1989 78.5003 63.0524 78.3538C62.9059 78.2073 62.7072 78.125 62.5 78.125Z" fill="#47566A"/>
<path d="M50 43.75C53.7084 43.75 57.3335 42.6503 60.4169 40.5901C63.5004 38.5298 65.9036 35.6014 67.3227 32.1753C68.7419 28.7492 69.1132 24.9792 68.3897 21.3421C67.6663 17.7049 65.8805 14.364 63.2583 11.7418C60.636 9.11952 57.2951 7.33376 53.6579 6.61028C50.0208 5.88681 46.2508 6.25812 42.8247 7.67727C39.3986 9.09641 36.4702 11.4996 34.4099 14.5831C32.3497 17.6665 31.25 21.2916 31.25 25C31.25 29.9728 33.2254 34.742 36.7417 38.2583C40.2581 41.7746 45.0272 43.75 50 43.75ZM50 7.81251C53.3994 7.81251 56.7224 8.82054 59.5489 10.7091C62.3753 12.5977 64.5783 15.282 65.8792 18.4226C67.1801 21.5632 67.5204 25.0191 66.8573 28.3531C66.1941 31.6872 64.5571 34.7497 62.1534 37.1534C59.7497 39.5571 56.6872 41.1941 53.3531 41.8573C50.0191 42.5204 46.5632 42.1801 43.4226 40.8792C40.282 39.5783 37.5977 37.3753 35.7091 34.5489C33.8205 31.7224 32.8125 28.3994 32.8125 25C32.8125 20.4416 34.6233 16.0699 37.8466 12.8466C41.0699 9.62333 45.4416 7.81251 50 7.81251Z" fill="#47566A"/>
<path d="M46.3126 31.8125C46.3855 31.8881 46.4728 31.9482 46.5695 31.9893C46.6661 32.0304 46.7701 32.0515 46.8751 32.0515C46.9801 32.0515 47.084 32.0304 47.1807 31.9893C47.2773 31.9482 47.3647 31.8881 47.4376 31.8125L59.9376 19.3125C60.0115 19.2386 60.0701 19.1509 60.11 19.0544C60.15 18.9579 60.1706 18.8544 60.1706 18.75C60.1706 18.6455 60.15 18.5421 60.11 18.4455C60.0701 18.349 60.0115 18.2613 59.9376 18.1875C59.8637 18.1136 59.776 18.055 59.6795 18.015C59.583 17.975 59.4796 17.9545 59.3751 17.9545C59.2706 17.9545 59.1672 17.975 59.0707 18.015C58.9741 18.055 58.8865 18.1136 58.8126 18.1875L46.8751 30.125L41.1876 24.4375C41.0384 24.2883 40.8361 24.2045 40.6251 24.2045C40.4141 24.2045 40.2118 24.2883 40.0626 24.4375C39.9134 24.5866 39.8296 24.789 39.8296 25C39.8296 25.2109 39.9134 25.4133 40.0626 25.5625L46.3126 31.8125Z" fill="#47566A"/>
<defs>
<linearGradient id="paint0_linear" x1="91.4062" y1="14.8438" x2="91.4062" y2="0.78125" gradientUnits="userSpaceOnUse">
<stop stop-color="#949AAF"/>
<stop offset="1" stop-color="#C6CCDA"/>
</linearGradient>
<linearGradient id="paint1_linear" x1="3675.78" y1="1871.09" x2="3675.78" y2="1617.97" gradientUnits="userSpaceOnUse">
<stop stop-color="#949AAF"/>
<stop offset="1" stop-color="#C6CCDA"/>
</linearGradient>
<linearGradient id="paint2_linear" x1="53.9062" y1="99.2188" x2="53.9062" y2="0.78125" gradientUnits="userSpaceOnUse">
<stop stop-color="#DDE1E8"/>
<stop offset="1" stop-color="#F3F4F5"/>
</linearGradient>
<linearGradient id="paint3_linear" x1="50" y1="42.9688" x2="50" y2="7.03125" gradientUnits="userSpaceOnUse">
<stop stop-color="#8CDD79"/>
<stop offset="1" stop-color="#D4E6B6"/>
</linearGradient>
<linearGradient id="paint4_linear" x1="26.5625" y1="53.9062" x2="26.5625" y2="49.2188" gradientUnits="userSpaceOnUse">
<stop stop-color="#9DD5DF"/>
<stop offset="1" stop-color="#C3E1F5"/>
</linearGradient>
<linearGradient id="paint5_linear" x1="24.2187" y1="460.156" x2="28.9062" y2="432.031" gradientUnits="userSpaceOnUse">
<stop stop-color="#9DD5DF"/>
<stop offset="1" stop-color="#C3E1F5"/>
</linearGradient>
<linearGradient id="paint6_linear" x1="24.2187" y1="547.656" x2="28.9062" y2="519.531" gradientUnits="userSpaceOnUse">
<stop stop-color="#9DD5DF"/>
<stop offset="1" stop-color="#C3E1F5"/>
</linearGradient>
</defs>
</svg>
