<svg width="60" height="100" viewBox="0 0 60 100" fill="none" xmlns="http://www.w3.org/2000/svg">
<path d="M47.4716 0.778198H0.77832V81.7132H47.4716V0.778198Z" fill="url(#paint0_linear)"/>
<path d="M47.4716 81.5107V79.3784H0.77832V81.7131C51.0358 81.7131 47.4716 81.822 47.4716 81.5107Z" fill="#4DA67F"/>
<path d="M42.8021 11.6734C41.1509 11.6734 39.5674 11.0175 38.3998 9.84991C37.2323 8.68236 36.5763 7.09881 36.5763 5.44763H11.6733C11.6733 7.09881 11.0173 8.68236 9.84979 9.84991C8.68223 11.0175 7.09869 11.6734 5.44751 11.6734V70.8182C7.09869 70.8182 8.68223 71.4741 9.84979 72.6417C11.0173 73.8092 11.6733 75.3928 11.6733 77.044H42.8021V11.6734Z" fill="url(#paint1_linear)"/>
<path d="M42.8021 73.9311V77.044H11.6733C11.6733 75.3928 11.0173 73.8092 9.84979 72.6417C8.68223 71.4741 7.09869 70.8182 5.44751 70.8182V67.7053C7.09869 67.7053 8.68223 68.3613 9.84979 69.5288C11.0173 70.6964 11.6733 72.2799 11.6733 73.9311H42.8021Z" fill="#7ECE67"/>
<path d="M24.1248 51.3626C31.4314 51.3626 37.3545 46.8332 37.3545 41.2458C37.3545 35.6584 31.4314 31.1289 24.1248 31.1289C16.8182 31.1289 10.895 35.6584 10.895 41.2458C10.895 46.8332 16.8182 51.3626 24.1248 51.3626Z" fill="url(#paint2_linear)"/>
<path d="M24.1249 51.3626C15.6889 51.3626 10.1169 45.6426 10.9885 40.0784C11.7356 45.1368 17.331 49.0279 24.1249 49.0279C30.9187 49.0279 36.5141 45.1368 37.2612 40.0784C38.1328 45.5882 32.623 51.3626 24.1249 51.3626Z" fill="#4DA67F"/>
<path d="M58.3665 62.0942V98.834L22.1792 99.2231C20.3282 97.3725 18.86 95.1753 17.8585 92.7571C16.857 90.3388 16.3419 87.7469 16.3425 85.1295V81.7131H32.5451C33.4634 79.4174 35.798 76.5068 35.798 70.6935C35.798 68.3122 35.549 67.5806 33.3233 54.9812C33.1817 54.2931 33.1795 53.5836 33.3169 52.8947C33.4543 52.2057 33.7285 51.5513 34.1233 50.9702C34.5181 50.3891 35.0255 49.8931 35.6153 49.5115C36.2052 49.1299 36.8656 48.8706 37.5575 48.7487C38.2494 48.6269 38.9587 48.6451 39.6434 48.8023C40.3282 48.9594 40.9744 49.2523 41.544 49.6636C42.1135 50.0749 42.5947 50.5963 42.9592 51.1969C43.3237 51.7975 43.564 52.4651 43.6659 53.1602L47.4714 74.8103V35.7981C54.442 42.7749 58.3602 52.2319 58.3665 62.0942Z" fill="url(#paint3_linear)"/>
<path d="M58.3665 96.4994V98.834L22.1792 99.2232C20.3282 97.3726 18.86 95.1754 17.8585 92.7571C16.857 90.3389 16.3419 87.747 16.3425 85.1296V82.7949C16.3536 85.4148 16.8826 88.0067 17.899 90.4215C18.9963 93.7056 22.9885 96.8807 27.7668 96.8262L58.3665 96.4994Z" fill="#EAB39B"/>
<path d="M32.5218 81.7131C32.5218 82.04 32.4284 82.0867 32.156 82.9194C30.9965 86.2579 31.1288 88.5381 31.1288 91.83C31.1288 92.0364 31.0468 92.2343 30.9008 92.3803C30.7549 92.5262 30.557 92.6082 30.3506 92.6082C30.1442 92.6082 29.9462 92.5262 29.8003 92.3803C29.6543 92.2343 29.5723 92.0364 29.5723 91.83C29.5723 88.7171 29.37 85.4642 30.9264 81.7131H32.5218Z" fill="#EAB39B"/>
<path d="M24.1249 30.3506C16.3894 30.3506 10.1169 35.2456 10.1169 41.2457C10.1169 47.2458 16.405 52.1408 24.1249 52.1408C31.8449 52.1408 38.1329 47.2458 38.1329 41.2457C38.1329 35.2456 31.8527 30.3506 24.1249 30.3506ZM24.1249 50.5843C17.2688 50.5843 11.6734 46.4053 11.6734 41.2457C11.6734 36.0861 17.2532 31.907 24.1249 31.907C30.9966 31.907 36.5765 36.0861 36.5765 41.2457C36.5765 46.4053 30.981 50.5843 24.1249 50.5843Z" fill="#47566A"/>
<path d="M23.3467 64.5922V69.2615C23.3467 69.4679 23.4287 69.6659 23.5746 69.8118C23.7206 69.9577 23.9185 70.0397 24.1249 70.0397C24.3313 70.0397 24.5292 69.9577 24.6752 69.8118C24.8211 69.6659 24.9031 69.4679 24.9031 69.2615V64.5922C24.9031 64.3858 24.8211 64.1878 24.6752 64.0419C24.5292 63.896 24.3313 63.814 24.1249 63.814C23.9185 63.814 23.7206 63.896 23.5746 64.0419C23.4287 64.1878 23.3467 64.3858 23.3467 64.5922Z" fill="#47566A"/>
<path d="M24.9031 17.8991V13.2298C24.9031 13.0234 24.8211 12.8254 24.6752 12.6795C24.5292 12.5335 24.3313 12.4515 24.1249 12.4515C23.9185 12.4515 23.7206 12.5335 23.5746 12.6795C23.4287 12.8254 23.3467 13.0234 23.3467 13.2298V17.8991C23.3467 18.1055 23.4287 18.3034 23.5746 18.4494C23.7206 18.5953 23.9185 18.6773 24.1249 18.6773C24.3313 18.6773 24.5292 18.5953 24.6752 18.4494C24.8211 18.3034 24.9031 18.1055 24.9031 17.8991Z" fill="#47566A"/>
<path d="M48.2497 35.4713V0.778221C48.2497 0.571824 48.1677 0.37388 48.0218 0.227936C47.8758 0.0819909 47.6779 0 47.4715 0L0.778221 0C0.571824 0 0.37388 0.0819909 0.227935 0.227936C0.0819903 0.37388 0 0.571824 0 0.778221V81.7132C0 81.9196 0.0819903 82.1175 0.227935 82.2635C0.37388 82.4094 0.571824 82.4914 0.778221 82.4914H15.5644V85.114C15.5564 87.8367 16.0887 90.5339 17.1307 93.0494C18.1727 95.5648 19.7035 97.8484 21.6345 99.7679C21.7831 99.9165 21.9847 100 22.1949 100C22.405 100 22.6066 99.9165 22.7552 99.7679C22.9038 99.6193 22.9873 99.4178 22.9873 99.2076C22.9873 98.9974 22.9038 98.7959 22.7552 98.6473C20.9693 96.8782 19.5519 94.7727 18.5848 92.4525C17.6177 90.1322 17.1201 87.6433 17.1209 85.1296V82.4914H31.4012C30.1794 86.079 30.3351 88.4604 30.3351 91.8301C30.3351 92.0365 30.417 92.2344 30.563 92.3803C30.7089 92.5263 30.9069 92.6083 31.1133 92.6083C31.3197 92.6083 31.5176 92.5263 31.6636 92.3803C31.8095 92.2344 31.8915 92.0365 31.8915 91.8301V88.8962C31.8915 83.1607 34.2262 80.6159 35.3624 77.3785C36.2651 75.4796 36.9188 71.0983 36.2417 67.2616L34.0549 54.8101C33.8485 53.645 34.1134 52.4456 34.7914 51.4758C35.4693 50.506 36.5047 49.8452 37.6698 49.6388C38.8349 49.4324 40.0343 49.6973 41.0041 50.3752C41.9739 51.0531 42.6347 52.0885 42.8411 53.2537C46.9267 76.4446 46.6076 74.9894 46.8333 75.2617C46.9142 75.3616 47.0186 75.4399 47.1372 75.4896C47.2557 75.5393 47.3847 75.5588 47.5127 75.5465C47.6407 75.5342 47.7636 75.4903 47.8704 75.4189C47.9773 75.3475 48.0648 75.2507 48.1252 75.1372C48.2886 74.8337 48.2341 77.1762 48.2341 37.7359C54.2596 44.398 57.5887 53.0649 57.5728 62.0476V98.834C57.5728 99.0404 57.6548 99.2384 57.8007 99.3843C57.9467 99.5303 58.1446 99.6123 58.351 99.6123C58.5574 99.6123 58.7553 99.5303 58.9013 99.3843C59.0472 99.2384 59.1292 99.0404 59.1292 98.834V62.0942C59.1601 52.1316 55.2491 42.5611 48.2497 35.4713ZM32.5219 55.1214C34.8565 68.2266 35.8449 70.8025 34.0783 76.2501H12.4515C12.2791 74.6596 11.5674 73.176 10.4347 72.0462C9.30204 70.9163 7.81671 70.2083 6.22577 70.0399V12.4515C7.81908 12.2825 9.30625 11.5722 10.4392 10.4392C11.5722 9.30625 12.2825 7.81908 12.4515 6.22577H35.7982C35.9672 7.81908 36.6775 9.30625 37.8105 10.4392C38.9434 11.5722 40.4306 12.2825 42.0239 12.4515V49.168C41.0474 48.465 39.8836 48.0689 38.681 48.0302C37.4784 47.9916 36.2915 48.3121 35.2719 48.9509C34.2523 49.5898 33.4461 50.5179 32.9563 51.617C32.4665 52.716 32.3152 53.936 32.5219 55.1214ZM43.5804 50.8412V11.6733C43.5804 11.4669 43.4984 11.269 43.3524 11.123C43.2065 10.9771 43.0085 10.8951 42.8021 10.8951C41.3574 10.8951 39.9718 10.3212 38.9501 9.29954C37.9285 8.27793 37.3546 6.89232 37.3546 5.44755C37.3546 5.24115 37.2726 5.04321 37.1267 4.89726C36.9807 4.75132 36.7828 4.66932 36.5764 4.66932H11.6733C11.4669 4.66932 11.269 4.75132 11.123 4.89726C10.9771 5.04321 10.8951 5.24115 10.8951 5.44755C10.8951 6.89232 10.3212 8.27793 9.29954 9.29954C8.27793 10.3212 6.89232 10.8951 5.44755 10.8951C5.24115 10.8951 5.0432 10.9771 4.89726 11.123C4.75132 11.269 4.66932 11.4669 4.66932 11.6733V70.8181C4.66932 71.0245 4.75132 71.2224 4.89726 71.3684C5.0432 71.5143 5.24115 71.5963 5.44755 71.5963C6.89232 71.5963 8.27793 72.1703 9.29954 73.1919C10.3212 74.2135 10.8951 75.5991 10.8951 77.0439C10.8951 77.2503 10.9771 77.4482 11.123 77.5941C11.269 77.7401 11.4669 77.8221 11.6733 77.8221H33.5102C32.8487 79.3785 32.732 79.3007 32.0238 80.935H1.55644V1.55644H46.6932V65.7363C44.273 52.1408 44.4442 52.1953 43.5804 50.8412Z" fill="#47566A"/>
<defs>
<linearGradient id="paint0_linear" x1="24.1249" y1="81.7132" x2="24.1249" y2="0.778198" gradientUnits="userSpaceOnUse">
<stop stop-color="#6AB891"/>
<stop offset="1" stop-color="#85CBA9"/>
</linearGradient>
<linearGradient id="paint1_linear" x1="24.1248" y1="77.044" x2="24.1248" y2="5.44763" gradientUnits="userSpaceOnUse">
<stop stop-color="#8CDD79"/>
<stop offset="1" stop-color="#D4E6B6"/>
</linearGradient>
<linearGradient id="paint2_linear" x1="1519.09" y1="1366.56" x2="1519.09" y2="840.478" gradientUnits="userSpaceOnUse">
<stop stop-color="#6AB891"/>
<stop offset="1" stop-color="#85CBA9"/>
</linearGradient>
<linearGradient id="paint3_linear" x1="37.3545" y1="99.2231" x2="37.3545" y2="35.7903" gradientUnits="userSpaceOnUse">
<stop stop-color="#F2C4B0"/>
<stop offset="1" stop-color="#FFE3D7"/>
</linearGradient>
</defs>
</svg>
