<svg width="100" height="100" viewBox="0 0 100 100" fill="none" xmlns="http://www.w3.org/2000/svg">
<path d="M99.2022 49.9988C99.2022 54.2476 95.1877 57.9106 94.1412 61.8313C93.0555 65.8848 94.6722 71.0552 92.5791 74.6088C90.486 78.1625 85.1907 79.3887 82.2696 82.3097C79.3486 85.2307 78.1693 90.5338 74.5688 92.6192C70.9682 94.7045 65.8447 93.0565 61.7912 94.1812C57.8861 95.2278 54.2075 99.2422 49.9588 99.2422C45.71 99.2422 42.047 95.2278 38.1263 94.1812C34.0728 93.0956 28.9024 94.7123 25.3488 92.6192C21.7951 90.526 20.5689 85.2307 17.6479 82.3097C14.7269 79.3887 9.42375 78.2093 7.33842 74.6088C5.25309 71.0083 6.9401 65.8848 5.85448 61.8313C4.80791 57.9106 0.793457 54.2476 0.793457 49.9988C0.793457 45.75 4.80791 42.0871 5.85448 38.1663C6.9401 34.1128 5.32338 28.9112 7.37747 25.3888C9.43156 21.8664 14.7659 20.609 17.687 17.6879C20.608 14.7669 21.7873 9.46378 25.3878 7.37845C28.9883 5.29312 34.1118 6.94107 38.1653 5.85545C42.0861 4.80889 45.7491 0.794434 49.9978 0.794434C54.2466 0.794434 57.9096 4.80889 61.8303 5.85545C65.8838 6.94107 71.0854 5.32436 74.6078 7.37845C78.1302 9.43254 79.3877 14.7669 82.3087 17.6879C85.2297 20.609 90.5328 21.7883 92.6182 25.3888C94.7035 28.9893 93.0555 34.1128 94.1802 38.1663C95.1877 42.0871 99.2022 45.75 99.2022 49.9988Z" fill="url(#paint0_linear)"/>
<g style="mix-blend-mode:multiply">
<path d="M2.35773 44.9617C2.39323 49.6187 3.1143 54.2451 4.49772 58.692C1.33459 53.0218 -0.83665 50.8271 2.35773 44.9617Z" fill="#9CACF3" fill-opacity="0.5"/>
</g>
<g style="mix-blend-mode:multiply">
<path d="M93.8982 63.0494C93.3358 66.8764 94.4683 71.3986 92.6173 74.6086C90.532 78.2091 85.2288 79.3884 82.3078 82.3094C79.3868 85.2304 78.2075 90.5336 74.6069 92.6189C71.0064 94.7042 65.8829 93.0563 61.8294 94.1809C57.9243 95.2275 54.2457 99.242 49.9969 99.242C45.7482 99.242 42.0852 95.2275 38.1645 94.1809C34.111 93.0953 28.9406 94.712 25.3869 92.6189C21.8333 90.5258 20.6071 85.2304 17.6861 82.3094C14.765 79.3884 9.46191 78.2091 7.37658 74.6086C5.52556 71.3986 6.65804 66.8764 6.0957 63.0494C9.7362 71.6857 15.843 79.0563 23.6519 84.2389C31.4608 89.4214 40.6248 92.1857 49.9969 92.1857C59.3691 92.1857 68.5331 89.4214 76.342 84.2389C84.1508 79.0563 90.2577 71.6857 93.8982 63.0494Z" fill="#9CACF3" fill-opacity="0.5"/>
</g>
<g style="mix-blend-mode:multiply">
<path d="M95.499 58.692C96.8825 54.2451 97.6035 49.6187 97.639 44.9617C100.818 50.7803 98.6778 52.9828 95.499 58.692Z" fill="#9CACF3" fill-opacity="0.5"/>
</g>
<path d="M6.09573 63.0499C5.5023 61.6269 4.98096 60.175 4.53369 58.6996C5.33641 60.0324 5.8673 61.5109 6.09573 63.0499Z" fill="#4DA67F"/>
<path d="M95.502 58.6996C95.0419 60.1757 94.5075 61.6277 93.9009 63.0499C94.1413 61.5081 94.6855 60.0294 95.502 58.6996Z" fill="#4DA67F"/>
<path d="M50.0012 85.9257C69.8432 85.9257 85.9282 69.8406 85.9282 49.9987C85.9282 30.1567 69.8432 14.0717 50.0012 14.0717C30.1593 14.0717 14.0742 30.1567 14.0742 49.9987C14.0742 69.8406 30.1593 85.9257 50.0012 85.9257Z" fill="url(#paint1_linear)"/>
<path d="M50.0001 14.0717C54.9153 14.0719 59.7782 15.0807 64.288 17.0356C68.7977 18.9906 72.8583 21.8502 76.2186 25.4374C79.5788 29.0246 82.1673 33.2631 83.8238 37.8908C85.4803 42.5185 86.1695 47.4369 85.849 52.3417C85.248 43.2429 81.2098 34.7131 74.553 28.4814C67.8961 22.2497 59.1187 18.7824 50.0001 18.7824C40.8815 18.7824 32.1041 22.2497 25.4472 28.4814C18.7904 34.7131 14.7521 43.2429 14.1512 52.3417C13.8306 47.4369 14.5199 42.5185 16.1764 37.8908C17.8329 33.2631 20.4213 29.0246 23.7816 25.4374C27.1419 21.8502 31.2025 18.9906 35.7122 17.0356C40.2219 15.0807 45.0849 14.0719 50.0001 14.0717Z" fill="#C7CDD8"/>
<path d="M43.7481 66.9159L29.0415 52.2093L33.4621 47.7887L43.7481 58.0748L66.5305 35.2924L70.9511 39.7129L43.7481 66.9159Z" fill="#6C81E7"/>
<path d="M50.001 13.2904C42.7408 13.2904 35.6437 15.4433 29.6071 19.4768C23.5705 23.5103 18.8656 29.2433 16.0872 35.9509C13.3089 42.6584 12.5819 50.0391 13.9983 57.1598C15.4147 64.2804 18.9108 70.8211 24.0445 75.9549C29.1782 81.0886 35.7189 84.5847 42.8396 86.001C49.9602 87.4174 57.341 86.6905 64.0485 83.9121C70.756 81.1338 76.489 76.4288 80.5225 70.3923C84.5561 64.3557 86.709 57.2585 86.709 49.9984C86.6945 40.2673 82.8224 30.9388 75.9415 24.0579C69.0605 17.1769 59.7321 13.3049 50.001 13.2904ZM50.001 85.1443C43.0498 85.1443 36.2547 83.0831 30.4749 79.2212C24.6952 75.3593 20.1905 69.8702 17.5304 63.4482C14.8702 57.0261 14.1742 49.9594 15.5303 43.1418C16.8865 36.3241 20.2338 30.0617 25.149 25.1465C30.0643 20.2312 36.3267 16.8839 43.1443 15.5278C49.962 14.1717 57.0287 14.8677 63.4507 17.5278C69.8728 20.1879 75.3619 24.6926 79.2238 30.4724C83.0856 36.2521 85.1469 43.0472 85.1469 49.9984C85.1469 54.6138 84.2378 59.1841 82.4716 63.4482C80.7053 67.7123 78.1165 71.5867 74.8529 74.8503C71.5893 78.1139 67.7148 80.7028 63.4507 82.469C59.1866 84.2353 54.6164 85.1443 50.001 85.1443Z" fill="#47566A"/>
<path d="M97.1639 42.594C94.7193 38.517 94.446 37.6579 94.5163 32.6281C94.61 25.4427 93.6103 23.6386 87.2293 20.0849C82.9493 17.7028 82.3089 17.0624 79.9112 12.7668C76.3263 6.33115 74.444 5.38612 67.368 5.47984C62.346 5.54232 61.4947 5.28458 57.4021 2.83218C51.0993 -0.940153 48.9046 -0.947964 42.5627 2.83218C38.5092 5.28458 37.6501 5.55013 32.6281 5.47984C25.5208 5.38612 23.6698 6.33115 20.0849 12.7668C17.7028 17.0468 17.0624 17.6872 12.7668 20.0849C6.3702 23.6464 5.39393 25.4505 5.47984 32.6281C5.55013 37.6345 5.2924 38.4936 2.83218 42.594C-0.940153 48.8968 -0.947964 51.0915 2.83218 57.4334C5.27678 61.479 5.55013 62.3382 5.47984 67.3679C5.38612 74.5533 6.38582 76.3575 12.7668 79.9111C17.0468 82.2542 17.6872 82.9337 20.0849 87.2293C23.6776 93.6805 25.5521 94.61 32.6281 94.5162C37.6501 94.4538 38.5014 94.7115 42.594 97.1639C48.8968 100.936 51.0915 100.944 57.4334 97.1639C61.5181 94.7193 62.3694 94.4538 67.3992 94.5162C74.5612 94.6021 76.3731 93.6415 79.9424 87.2293C82.2855 82.9493 82.965 82.3089 87.2606 79.9111C93.6571 76.3497 94.6334 74.5455 94.5475 67.3679C94.4772 62.3616 94.7349 61.5025 97.1952 57.4021C100.936 51.0993 100.944 48.9046 97.1639 42.594ZM95.8206 56.5977C93.2276 60.9245 92.8839 62.0648 92.9542 67.3914C93.0401 73.991 92.3372 75.2797 86.4717 78.5444C81.9262 81.0749 81.0827 81.9184 78.5444 86.4717C75.2719 92.3528 73.9832 93.0323 67.3914 92.9542C62.0726 92.8839 60.9402 93.2276 56.5977 95.8205C50.8337 99.2805 49.2092 99.3039 43.3984 95.8205C39.6573 93.579 38.2827 92.9542 33.909 92.9542C31.1286 92.9542 27.9889 93.2354 25.7786 91.9545C22.428 90.0176 21.2565 84.7847 18.2417 81.8012C15.227 78.8177 9.99414 77.5603 8.05721 74.2097C6.12028 70.8591 7.72137 65.7903 6.61232 61.6274C5.54232 57.6442 1.57473 53.9031 1.57473 49.998C1.57473 46.0929 5.55794 42.2894 6.61232 38.3686C7.72137 34.2136 6.15152 29.0745 8.05721 25.7864C9.9629 22.4983 15.227 21.2643 18.2105 18.2495C21.194 15.2348 22.4046 10.002 25.7473 8.09626C29.0901 6.19057 34.1824 7.76042 38.3374 6.65137C42.3518 5.54232 46.0929 1.57473 49.998 1.57473C53.9032 1.57473 57.7067 5.55794 61.6275 6.61232C65.7903 7.72137 70.9216 6.15152 74.2097 8.05721C77.4978 9.9629 78.7318 15.227 81.7466 18.2105C84.7613 21.194 89.9941 22.4046 91.8998 25.7473C93.8055 29.0901 92.2357 34.1746 93.3447 38.3374C94.4538 42.3518 98.4214 46.0929 98.4214 49.998C98.4214 52.263 97.1014 54.4655 95.8206 56.5977Z" fill="#47566A"/>
<path d="M67.0972 34.7291C66.9451 34.5858 66.7439 34.506 66.5349 34.506C66.3258 34.506 66.1247 34.5858 65.9725 34.7291L43.7525 56.9492L34.0288 47.2255C33.8766 47.0822 33.6755 47.0023 33.4664 47.0023C33.2574 47.0023 33.0562 47.0822 32.9041 47.2255C28.1711 51.9585 28.218 51.7476 28.218 52.2084C28.218 52.6692 27.2964 51.5602 43.1901 67.4774C43.263 67.553 43.3503 67.6131 43.447 67.6542C43.5436 67.6952 43.6475 67.7164 43.7525 67.7164C43.8575 67.7164 43.9614 67.6952 44.058 67.6542C44.1546 67.6131 44.242 67.553 44.3148 67.4774C73.3766 38.4156 71.7521 40.2041 71.7521 39.7121C71.7521 39.22 71.8224 39.4543 67.0972 34.7291ZM43.7525 65.7826L30.1705 52.2084L33.4664 48.9125L43.1901 58.6362C43.263 58.7118 43.3503 58.7719 43.447 58.813C43.5436 58.8541 43.6475 58.8752 43.7525 58.8752C43.8575 58.8752 43.9614 58.8541 44.058 58.813C44.1546 58.7719 44.242 58.7118 44.3148 58.6362L66.5349 36.4162L69.8308 39.7121L43.7525 65.7826Z" fill="#47566A"/>
<defs>
<linearGradient id="paint0_linear" x1="49.9978" y1="99.2032" x2="49.9978" y2="0.794434" gradientUnits="userSpaceOnUse">
<stop stop-color="#8095ED"/>
<stop offset="1" stop-color="#B7C3F9"/>
</linearGradient>
<linearGradient id="paint1_linear" x1="50.0012" y1="85.9257" x2="50.0012" y2="14.0717" gradientUnits="userSpaceOnUse">
<stop stop-color="#DDE1E8"/>
<stop offset="1" stop-color="#F3F4F5"/>
</linearGradient>
</defs>
</svg>
