<svg width="100" height="100" viewBox="0 0 100 100" fill="none" xmlns="http://www.w3.org/2000/svg">
<path d="M60.9375 56.25H42.1875V50H46.875C48.947 50 50.9341 49.1769 52.3993 47.7118C53.8644 46.2466 54.6875 44.2595 54.6875 42.1875V23.4375C54.6875 22.1943 54.1936 21.002 53.3146 20.1229C52.4355 19.2439 51.2432 18.75 50 18.75C48.7568 18.75 47.5645 19.2439 46.6854 20.1229C45.8064 21.002 45.3125 22.1943 45.3125 23.4375V39.0625H37.8125C41.0469 35.6875 40.625 32.1875 40.625 28.8437C40.625 26.1501 39.555 23.5669 37.6503 21.6622C35.7456 19.7575 33.1624 18.6875 30.4688 18.6875C27.7751 18.6875 25.1919 19.7575 23.2872 21.6622C21.3825 23.5669 20.3125 26.1501 20.3125 28.8437C20.3125 32.5312 19.9375 35.9531 23.3438 39.2969C20.2867 39.7585 17.3868 40.9532 14.8917 42.7789C12.3967 44.6046 10.3806 47.0072 9.01562 49.7813C8.5321 50.785 8.31142 51.895 8.37428 53.0073C8.43714 54.1197 8.78148 55.1978 9.375 56.1406C9.48438 56.2969 10.3438 56.25 1.5625 56.25C1.1481 56.25 0.750671 56.4146 0.457646 56.7076C0.16462 57.0007 0 57.3981 0 57.8125C0 58.2269 0.16462 58.6243 0.457646 58.9174C0.750671 59.2104 1.1481 59.375 1.5625 59.375H3.125V98.4375C3.125 98.8519 3.28962 99.2493 3.58265 99.5424C3.87567 99.8354 4.2731 100 4.6875 100C5.1019 100 5.49933 99.8354 5.79235 99.5424C6.08538 99.2493 6.25 98.8519 6.25 98.4375V82.8125H18.75V95.3125C18.75 96.5557 19.2439 97.748 20.1229 98.6271C21.002 99.5061 22.1943 100 23.4375 100C24.6807 100 25.873 99.5061 26.7521 98.6271C27.6311 97.748 28.125 96.5557 28.125 95.3125V82.8125H32.8125V95.3125C32.8125 96.5557 33.3064 97.748 34.1854 98.6271C35.0645 99.5061 36.2568 100 37.5 100C38.7432 100 39.9355 99.5061 40.8146 98.6271C41.6936 97.748 42.1875 96.5557 42.1875 95.3125V82.8125H56.25V98.4375C56.25 98.8519 56.4146 99.2493 56.7076 99.5424C57.0007 99.8354 57.3981 100 57.8125 100C58.2269 100 58.6243 99.8354 58.9174 99.5424C59.2104 99.2493 59.375 98.8519 59.375 98.4375V59.375H60.9375C61.3519 59.375 61.7493 59.2104 62.0424 58.9174C62.3354 58.6243 62.5 58.2269 62.5 57.8125C62.5 57.3981 62.3354 57.0007 62.0424 56.7076C61.7493 56.4146 61.3519 56.25 60.9375 56.25ZM23.4375 28.8437C23.4375 26.9789 24.1783 25.1905 25.4969 23.8719C26.8155 22.5533 28.6039 21.8125 30.4688 21.8125C32.3336 21.8125 34.122 22.5533 35.4406 23.8719C36.7592 25.1905 37.5 26.9789 37.5 28.8437V32.0938C37.5 33.9586 36.7592 35.747 35.4406 37.0656C34.122 38.3842 32.3336 39.125 30.4688 39.125C28.6039 39.125 26.8155 38.3842 25.4969 37.0656C24.1783 35.747 23.4375 33.9586 23.4375 32.0938V28.8437ZM21.0156 49.3281H17.1875C16.7731 49.3281 16.3757 49.4927 16.0826 49.7858C15.7896 50.0788 15.625 50.4762 15.625 50.8906C15.625 51.305 15.7896 51.7025 16.0826 51.9955C16.3757 52.2885 16.7731 52.4531 17.1875 52.4531H21.0156C22.179 52.4448 23.3146 52.8089 24.2563 53.492C25.1981 54.1751 25.8967 55.1415 26.25 56.25C24.6875 56.25 21.4688 56.25 15.1562 56.25C14.549 56.2636 13.9484 56.1224 13.4108 55.8397C12.8733 55.557 12.4165 55.1421 12.0836 54.6341C11.7507 54.1261 11.5525 53.5418 11.5078 52.9361C11.4631 52.3303 11.5734 51.7232 11.8281 51.1719C13.1554 48.4721 15.2136 46.1989 17.7686 44.6107C20.3235 43.0225 23.2729 42.1829 26.2812 42.1875H46.875C47.2894 42.1875 47.6868 42.0229 47.9799 41.7299C48.2729 41.4368 48.4375 41.0394 48.4375 40.625V23.4375C48.4375 23.0231 48.6021 22.6257 48.8951 22.3326C49.1882 22.0396 49.5856 21.875 50 21.875C50.4144 21.875 50.8118 22.0396 51.1049 22.3326C51.3979 22.6257 51.5625 23.0231 51.5625 23.4375V42.1875C51.5625 43.4307 51.0686 44.623 50.1896 45.5021C49.3105 46.3811 48.1182 46.875 46.875 46.875C40.0938 46.875 40.125 46.7188 39.5156 47.3281C38.9062 47.9375 39.0625 47.6875 39.0625 56.25H29.4531C29.0743 54.2936 28.0237 52.531 26.483 51.2671C24.9423 50.0031 23.0084 49.3173 21.0156 49.3281ZM25 95.3125C25 95.7269 24.8354 96.1243 24.5424 96.4174C24.2493 96.7104 23.8519 96.875 23.4375 96.875C23.0231 96.875 22.6257 96.7104 22.3326 96.4174C22.0396 96.1243 21.875 95.7269 21.875 95.3125V82.8125H25V95.3125ZM39.0625 95.3125C39.0625 95.7269 38.8979 96.1243 38.6049 96.4174C38.3118 96.7104 37.9144 96.875 37.5 96.875C37.0856 96.875 36.6882 96.7104 36.3951 96.4174C36.1021 96.1243 35.9375 95.7269 35.9375 95.3125V82.8125H39.0625V95.3125ZM56.25 79.6875H6.25V59.375H56.25V79.6875Z" fill="black"/>
<path d="M79.6875 0C75.8029 0.000174073 71.9998 1.11423 68.7291 3.21009C65.4584 5.30595 62.8573 8.29572 61.2342 11.8249C59.611 15.3541 59.0338 19.2748 59.5711 23.122C60.1084 26.9693 61.7376 30.5818 64.2656 33.5312C59.5781 38.2188 58.9687 38.3906 59.5 39.6562C60.0312 40.9219 59.8594 40.625 79.6875 40.625C85.0747 40.625 90.2413 38.4849 94.0506 34.6756C97.8599 30.8663 100 25.6997 100 20.3125C100 14.9253 97.8599 9.75873 94.0506 5.94939C90.2413 2.14006 85.0747 0 79.6875 0ZM79.6875 37.5H64.7031L67.5312 34.6719C67.8223 34.3791 67.9856 33.9831 67.9856 33.5703C67.9856 33.1575 67.8223 32.7615 67.5312 32.4688C64.7189 29.6577 62.9682 25.9585 62.5775 22.0014C62.1867 18.0443 63.1801 14.0741 65.3884 10.7673C67.5967 7.46055 70.8832 5.02175 74.6881 3.86644C78.4929 2.71114 82.5806 2.91082 86.2547 4.43146C89.9287 5.9521 92.9619 8.69962 94.8374 12.2059C96.7129 15.7122 97.3146 19.7603 96.5401 23.6604C95.7655 27.5606 93.6626 31.0716 90.5897 33.5951C87.5167 36.1187 83.6638 37.4987 79.6875 37.5Z" fill="black"/>
<path d="M81.5156 6.45311C80.3658 6.17638 79.1682 6.16428 78.0131 6.41774C76.858 6.6712 75.7755 7.1836 74.8472 7.9163C73.9189 8.649 73.169 9.58289 72.6542 10.6476C72.1394 11.7122 71.8729 12.8799 71.875 14.0625C71.875 14.4769 72.0396 14.8743 72.3327 15.1673C72.6257 15.4604 73.0231 15.625 73.4375 15.625C73.8519 15.625 74.2493 15.4604 74.5424 15.1673C74.8354 14.8743 75 14.4769 75 14.0625C75.0016 13.247 75.216 12.4461 75.6219 11.7388C76.0278 11.0315 76.6111 10.4423 77.3144 10.0295C78.0176 9.61663 78.8164 9.39439 79.6318 9.38471C80.4473 9.37502 81.2511 9.57824 81.9639 9.97427C82.6768 10.3703 83.274 10.9454 83.6966 11.6429C84.1191 12.3403 84.3524 13.136 84.3734 13.9512C84.3944 14.7664 84.2024 15.573 83.8163 16.2912C83.4302 17.0095 82.8634 17.6147 82.1719 18.0469C78.125 20.5625 76.7344 26.5625 79.6875 26.5625C80.1019 26.5625 80.4993 26.3979 80.7924 26.1048C81.0854 25.8118 81.25 25.4144 81.25 25C81.2793 24.1216 81.5312 23.2651 81.9821 22.5108C82.4331 21.7565 83.0683 21.1291 83.8281 20.6875C85.1376 19.8734 86.177 18.6901 86.8152 17.2864C87.4535 15.8828 87.6621 14.3217 87.4149 12.7998C87.1676 11.2778 86.4755 9.86302 85.4258 8.73363C84.376 7.60425 83.0155 6.81076 81.5156 6.45311Z" fill="black"/>
<path d="M79.6875 28.125C79.2731 28.125 78.8757 28.2896 78.5826 28.5826C78.2896 28.8757 78.125 29.2731 78.125 29.6875C78.125 30.1019 78.2896 30.4993 78.5826 30.7924C78.8757 31.0854 79.2731 31.25 79.6875 31.25C80.1019 31.25 80.4993 31.0854 80.7924 30.7924C81.0854 30.4993 81.25 30.1019 81.25 29.6875C81.25 29.2731 81.0854 28.8757 80.7924 28.5826C80.4993 28.2896 80.1019 28.125 79.6875 28.125Z" fill="black"/>
</svg>
