<svg width="100" height="100" viewBox="0 0 100 100" fill="none" xmlns="http://www.w3.org/2000/svg">
<path d="M72.5724 0H7.70081C-1.70558 0 -2.81766 19.1607 6.15624 21.6436V98.3799C6.15624 98.7941 6.31897 99.1913 6.60864 99.4841C6.8983 99.777 7.29116 99.9415 7.70081 99.9415H72.5724C72.9821 99.9415 73.3749 99.777 73.6646 99.4841C73.9543 99.1913 74.117 98.7941 74.117 98.3799V81.2025H78.7507C79.1603 81.2025 79.5532 81.038 79.8429 80.7451C80.1325 80.4522 80.2952 80.0551 80.2952 79.6409V10.9311C80.2952 4.79407 76.8972 0 72.5724 0ZM3.06712 10.9311C3.06712 6.6992 5.18317 3.12317 7.70081 3.12317H67.1201C65.6381 5.45169 64.8501 8.16216 64.8501 10.9311C64.8501 13.7 65.6381 16.4105 67.1201 18.739H7.70081C5.18317 18.739 3.06712 15.163 3.06712 10.9311ZM71.0279 18.2393C70.1497 17.5551 69.4275 16.6876 68.9104 15.696C68.3934 14.7044 68.0936 13.6119 68.0314 12.4927H71.0279V18.2393ZM71.0279 96.8183H9.24537V21.8622H71.0279V96.8183ZM77.2061 78.0793H74.117V10.9311C74.117 10.5169 73.9543 10.1197 73.6646 9.82689C73.3749 9.53404 72.9821 9.36952 72.5724 9.36952H68.0314C68.4793 5.85595 70.3792 3.12317 72.5724 3.12317C75.0901 3.12317 77.2061 6.6992 77.2061 10.9311V78.0793Z" fill="black"/>
<path d="M63.305 34.3551H16.9681C16.5585 34.3551 16.1656 34.5196 15.876 34.8125C15.5863 35.1053 15.4236 35.5025 15.4236 35.9167C15.4236 36.3308 15.5863 36.728 15.876 37.0209C16.1656 37.3138 16.5585 37.4783 16.9681 37.4783H63.305C63.7147 37.4783 64.1075 37.3138 64.3972 37.0209C64.6869 36.728 64.8496 36.3308 64.8496 35.9167C64.8496 35.5025 64.6869 35.1053 64.3972 34.8125C64.1075 34.5196 63.7147 34.3551 63.305 34.3551Z" fill="black"/>
<path d="M63.3053 43.7244H37.0477C36.6381 43.7244 36.2452 43.8889 35.9556 44.1817C35.6659 44.4746 35.5032 44.8718 35.5032 45.286C35.5032 45.7001 35.6659 46.0973 35.9556 46.3902C36.2452 46.683 36.6381 46.8475 37.0477 46.8475H63.3053C63.7149 46.8475 64.1078 46.683 64.3975 46.3902C64.6871 46.0973 64.8499 45.7001 64.8499 45.286C64.8499 44.8718 64.6871 44.4746 64.3975 44.1817C64.1078 43.8889 63.7149 43.7244 63.3053 43.7244Z" fill="black"/>
<path d="M16.9681 46.8475H30.8692C31.2789 46.8475 31.6717 46.683 31.9614 46.3902C32.251 46.0973 32.4138 45.7001 32.4138 45.286C32.4138 44.8718 32.251 44.4746 31.9614 44.1817C31.6717 43.8889 31.2789 43.7244 30.8692 43.7244H16.9681C16.5585 43.7244 16.1656 43.8889 15.876 44.1817C15.5863 44.4746 15.4236 44.8718 15.4236 45.286C15.4236 45.7001 15.5863 46.0973 15.876 46.3902C16.1656 46.683 16.5585 46.8475 16.9681 46.8475Z" fill="black"/>
<path d="M63.3051 53.094H54.0377C53.6281 53.094 53.2352 53.2585 52.9456 53.5514C52.6559 53.8442 52.4932 54.2414 52.4932 54.6556C52.4932 55.0697 52.6559 55.4669 52.9456 55.7598C53.2352 56.0526 53.6281 56.2172 54.0377 56.2172H63.3051C63.7147 56.2172 64.1076 56.0526 64.3973 55.7598C64.6869 55.4669 64.8497 55.0697 64.8497 54.6556C64.8497 54.2414 64.6869 53.8442 64.3973 53.5514C64.1076 53.2585 63.7147 53.094 63.3051 53.094Z" fill="black"/>
<path d="M16.9681 56.2172H47.8594C48.269 56.2172 48.6619 56.0526 48.9516 55.7598C49.2412 55.4669 49.404 55.0697 49.404 54.6556C49.404 54.2414 49.2412 53.8442 48.9516 53.5514C48.6619 53.2585 48.269 53.094 47.8594 53.094H16.9681C16.5585 53.094 16.1656 53.2585 15.876 53.5514C15.5863 53.8442 15.4236 54.2414 15.4236 54.6556C15.4236 55.0697 15.5863 55.4669 15.876 55.7598C16.1656 56.0526 16.5585 56.2172 16.9681 56.2172Z" fill="black"/>
<path d="M63.3056 62.4635H30.8698C30.4601 62.4635 30.0672 62.628 29.7776 62.9209C29.4879 63.2137 29.3252 63.6109 29.3252 64.0251C29.3252 64.4392 29.4879 64.8364 29.7776 65.1293C30.0672 65.4222 30.4601 65.5867 30.8698 65.5867H63.3056C63.7152 65.5867 64.1081 65.4222 64.3977 65.1293C64.6874 64.8364 64.8501 64.4392 64.8501 64.0251C64.8501 63.6109 64.6874 63.2137 64.3977 62.9209C64.1081 62.628 63.7152 62.4635 63.3056 62.4635Z" fill="black"/>
<path d="M16.9681 65.5867H24.691C25.1006 65.5867 25.4935 65.4222 25.7831 65.1293C26.0728 64.8364 26.2355 64.4392 26.2355 64.0251C26.2355 63.6109 26.0728 63.2137 25.7831 62.9209C25.4935 62.628 25.1006 62.4635 24.691 62.4635H16.9681C16.5585 62.4635 16.1656 62.628 15.876 62.9209C15.5863 63.2137 15.4236 63.6109 15.4236 64.0251C15.4236 64.4392 15.5863 64.8364 15.876 65.1293C16.1656 65.4222 16.5585 65.5867 16.9681 65.5867Z" fill="black"/>
<path d="M63.3049 71.8328H61.7604C61.3507 71.8328 60.9579 71.9973 60.6682 72.2901C60.3785 72.583 60.2158 72.9802 60.2158 73.3943C60.2158 73.8085 60.3785 74.2057 60.6682 74.4986C60.9579 74.7914 61.3507 74.9559 61.7604 74.9559H63.3049C63.7146 74.9559 64.1075 74.7914 64.3971 74.4986C64.6868 74.2057 64.8495 73.8085 64.8495 73.3943C64.8495 72.9802 64.6868 72.583 64.3971 72.2901C64.1075 71.9973 63.7146 71.8328 63.3049 71.8328Z" fill="black"/>
<path d="M16.9681 74.9559H55.5822C55.9919 74.9559 56.3847 74.7914 56.6744 74.4986C56.964 74.2057 57.1268 73.8085 57.1268 73.3943C57.1268 72.9802 56.964 72.583 56.6744 72.2901C56.3847 71.9973 55.9919 71.8328 55.5822 71.8328H16.9681C16.5585 71.8328 16.1656 71.9973 15.876 72.2901C15.5863 72.583 15.4236 72.9802 15.4236 73.3943C15.4236 73.8085 15.5863 74.2057 15.876 74.4986C16.1656 74.7914 16.5585 74.9559 16.9681 74.9559Z" fill="black"/>
<path d="M63.3053 81.2026H43.226C42.8163 81.2026 42.4234 81.3672 42.1338 81.66C41.8441 81.9529 41.6814 82.3501 41.6814 82.7642C41.6814 83.1784 41.8441 83.5756 42.1338 83.8684C42.4234 84.1613 42.8163 84.3258 43.226 84.3258H63.3053C63.7149 84.3258 64.1078 84.1613 64.3974 83.8684C64.6871 83.5756 64.8498 83.1784 64.8498 82.7642C64.8498 82.3501 64.6871 81.9529 64.3974 81.66C64.1078 81.3672 63.7149 81.2026 63.3053 81.2026Z" fill="black"/>
<path d="M37.0475 81.2026H16.9681C16.5585 81.2026 16.1656 81.3672 15.876 81.66C15.5863 81.9529 15.4236 82.3501 15.4236 82.7642C15.4236 83.1784 15.5863 83.5756 15.876 83.8684C16.1656 84.1613 16.5585 84.3258 16.9681 84.3258H37.0475C37.4571 84.3258 37.85 84.1613 38.1396 83.8684C38.4293 83.5756 38.592 83.1784 38.592 82.7642C38.592 82.3501 38.4293 81.9529 38.1396 81.66C37.85 81.3672 37.4571 81.2026 37.0475 81.2026Z" fill="black"/>
<path d="M95.8414 64.1981C95.7778 64.2625 95.7145 64.3266 95.6518 64.3903C95.4895 64.5413 95.2783 64.6273 95.0578 64.6324C94.8373 64.6375 94.6225 64.5612 94.4536 64.4178C96.5321 69.4751 96.9583 75.0714 95.6699 80.3907C94.3815 85.71 91.446 90.474 87.2914 93.9881L90.7318 98.5126C90.8351 98.6483 90.8988 98.8105 90.9157 98.9809C90.9326 99.1513 90.902 99.323 90.8274 99.4768C90.7528 99.6305 90.6371 99.76 90.4935 99.8508C90.3499 99.9415 90.184 99.9898 90.0146 99.9902C85.6934 99.9902 85.2952 100.048 85.0344 99.8829C85.0005 99.8615 84.9688 99.8363 84.9312 99.8067L81.8993 97.4847C78.4804 99.1344 74.74 99.9905 70.9518 99.9905C67.1635 99.9905 63.4231 99.1344 60.0042 97.4847L56.9723 99.8067C56.9345 99.8356 56.9022 99.8604 56.8677 99.8815C56.5961 100.048 56.19 99.9902 51.8889 99.9902C51.7164 99.9969 51.5457 99.9537 51.3967 99.8658C51.2476 99.7778 51.1265 99.6488 51.0474 99.4937C50.9683 99.3386 50.9346 99.164 50.9502 98.9902C50.9658 98.8165 51.0301 98.6508 51.1354 98.5126L54.6122 93.9881C50.4638 90.4694 47.5353 85.7033 46.2535 80.3843C44.9717 75.0652 45.4036 69.4713 47.4863 64.4178C47.3244 64.5666 47.1149 64.6514 46.8962 64.6564C46.5041 64.6564 46.4033 64.5537 45.4877 63.6204C45.3435 63.4734 45.179 63.3057 44.9899 63.1146C43.2425 61.3745 42.1501 59.0727 41.901 56.6057C41.6518 54.1388 42.2615 51.6613 43.625 49.6C44.9885 47.5387 47.0204 46.0228 49.3707 45.3134C51.7209 44.6041 54.2422 44.7457 56.5003 45.7139C58.4796 46.5456 59.4942 47.5769 60.7442 48.8475C60.8872 48.9929 61.0333 49.1414 61.1843 49.2931C61.34 49.4628 61.4265 49.6857 61.4265 49.9172C61.4265 50.1487 61.34 50.3716 61.1843 50.5413C63.9975 49.3585 66.999 48.6993 70.044 48.5956V46.7601H68.2285C67.9877 46.7601 67.7568 46.6634 67.5866 46.4913C67.4164 46.3192 67.3207 46.0857 67.3207 45.8423V42.1713C67.3207 41.9279 67.4164 41.6945 67.5866 41.5223C67.7568 41.3502 67.9877 41.2535 68.2285 41.2535H73.675C73.9158 41.2535 74.1467 41.3502 74.3169 41.5223C74.4871 41.6945 74.5828 41.9279 74.5828 42.1713V45.8423C74.5828 46.0857 74.4871 46.3192 74.3169 46.4913C74.1467 46.6634 73.9158 46.7601 73.675 46.7601H71.8595V48.5956C74.9155 48.7048 77.9265 49.3733 80.7464 50.5688C80.5908 50.3991 80.5043 50.1762 80.5043 49.9447C80.5043 49.7133 80.5908 49.4904 80.7464 49.3207C82.8343 47.219 85.1218 44.9246 89.4609 44.9246C90.8449 44.9246 92.2154 45.2002 93.494 45.7357C94.7727 46.2711 95.9345 47.056 96.9131 48.0454C97.8918 49.0348 98.6681 50.2095 99.1977 51.5022C99.7274 52.795 100 54.1805 100 55.5798C100 59.9849 97.7473 62.2671 95.8414 64.1981Z" fill="#FFB152"/>
<path d="M70.9514 53.1843C66.822 53.1843 62.7854 54.4223 59.352 56.7418C55.9186 59.0612 53.2425 62.3579 51.6623 66.215C50.082 70.072 49.6686 74.3162 50.4742 78.4109C51.2798 82.5055 53.2683 86.2667 56.1881 89.2188C59.108 92.1709 62.8282 94.1813 66.8782 94.9957C70.9282 95.8102 75.1262 95.3922 78.9412 93.7945C82.7562 92.1969 86.017 89.4914 88.3111 86.0201C90.6053 82.5488 91.8298 78.4677 91.8298 74.2928C91.8298 68.6945 89.6301 63.3255 85.7146 59.3669C81.7992 55.4083 76.4887 53.1843 70.9514 53.1843ZM70.9514 93.5658C67.1811 93.5658 63.4955 92.4355 60.3606 90.3177C57.2258 88.2 54.7824 85.19 53.3396 81.6683C51.8968 78.1466 51.5193 74.2714 52.2548 70.5329C52.9904 66.7943 54.8059 63.3601 57.4719 60.6648C60.1379 57.9694 63.5346 56.1338 67.2324 55.3902C70.9303 54.6465 74.7632 55.0282 78.2464 56.4869C81.7297 57.9456 84.7069 60.4159 86.8016 63.5853C88.8963 66.7548 90.0143 70.481 90.0143 74.2928C90.0143 79.4043 88.0059 84.3065 84.4309 87.9209C80.8559 91.5353 76.0072 93.5658 70.9514 93.5658Z" fill="black"/>
<path d="M95.6518 64.3903C97.5944 62.4171 100 60.1319 100 55.5798C100 54.1805 99.7274 52.795 99.1977 51.5022C98.6681 50.2095 97.8918 49.0348 96.9131 48.0454C95.9345 47.056 94.7727 46.2711 93.494 45.7357C92.2154 45.2002 90.8449 44.9246 89.4609 44.9246C85.1218 44.9246 82.8343 47.219 80.7464 49.3207C80.5908 49.4904 80.5043 49.7133 80.5043 49.9447C80.5043 50.1762 80.5908 50.3991 80.7464 50.5688C77.9265 49.3733 74.9155 48.7048 71.8595 48.5956V46.7601H73.675C73.9158 46.7601 74.1467 46.6634 74.3169 46.4913C74.4871 46.3192 74.5828 46.0858 74.5828 45.8423V42.1713C74.5828 41.9279 74.4871 41.6945 74.3169 41.5223C74.1467 41.3502 73.9158 41.2535 73.675 41.2535H68.2285C67.9877 41.2535 67.7568 41.3502 67.5866 41.5223C67.4164 41.6945 67.3207 41.9279 67.3207 42.1713V45.8423C67.3207 46.0858 67.4164 46.3192 67.5866 46.4913C67.7568 46.6634 67.9877 46.7601 68.2285 46.7601H70.044V48.5956C66.999 48.6993 63.9975 49.3585 61.1843 50.5413C61.34 50.3716 61.4265 50.1487 61.4265 49.9172C61.4265 49.6857 61.34 49.4628 61.1843 49.2931C59.7137 47.8155 58.7061 46.6408 56.5003 45.7139C54.2422 44.7457 51.7209 44.6041 49.3707 45.3134C47.0204 46.0228 44.9885 47.5387 43.625 49.6C42.2615 51.6613 41.6518 54.1388 41.901 56.6057C42.1501 59.0727 43.2425 61.3745 44.9899 63.1146C46.3788 64.5188 46.4423 64.6564 46.8962 64.6564C47.1149 64.6514 47.3244 64.5666 47.4863 64.4178C45.4036 69.4713 44.9717 75.0652 46.2535 80.3843C47.5353 85.7033 50.4638 90.4694 54.6122 93.9881L51.1354 98.5126C51.0301 98.6508 50.9658 98.8165 50.9502 98.9902C50.9346 99.164 50.9683 99.3386 51.0474 99.4937C51.1265 99.6488 51.2476 99.7778 51.3967 99.8658C51.5457 99.9537 51.7164 99.9969 51.8889 99.9902C56.7363 99.9902 56.6364 100.064 56.9723 99.8067L60.0042 97.4848C63.4231 99.1344 67.1635 99.9905 70.9518 99.9905C74.74 99.9905 78.4804 99.1344 81.8993 97.4848L84.9312 99.8067C85.258 100.064 85.1309 99.9902 90.0146 99.9902C90.184 99.9898 90.3499 99.9415 90.4935 99.8508C90.6371 99.76 90.7528 99.6305 90.8274 99.4768C90.902 99.323 90.9326 99.1513 90.9157 98.9809C90.8988 98.8105 90.8351 98.6483 90.7318 98.5126L87.2914 93.9881C91.446 90.474 94.3815 85.71 95.6699 80.3907C96.9583 75.0714 96.5321 69.4751 94.4536 64.4178C94.6225 64.5612 94.8373 64.6375 95.0578 64.6324C95.2783 64.6273 95.4895 64.5413 95.6518 64.3903ZM69.1362 43.0891H72.7673V44.9246H69.1362V43.0891ZM46.8962 62.4446C37.8641 53.3037 50.146 40.7947 59.2326 49.9723L54.6938 54.5611C53.5217 55.5626 52.4347 56.6616 51.4441 57.8467L46.8962 62.4446ZM56.119 98.1547H53.7498L56.0827 95.1169C56.7817 95.6217 57.4988 96.0989 58.2432 96.5303L56.119 98.1547ZM88.1991 98.1547H85.7845L83.6603 96.5303C84.4047 96.0989 85.1218 95.6125 85.8208 95.1169L88.1991 98.1547ZM70.9518 98.1547C50.9811 98.1547 40.0881 74.5683 52.7966 59.1132L55.9738 55.901C60.1958 52.3656 65.506 50.431 70.9881 50.431C76.4702 50.431 81.7804 52.3656 86.0024 55.901L89.1886 59.1223C101.815 74.5774 90.8679 98.1547 70.9518 98.1547ZM87.2187 54.5611L82.68 49.9723L83.3063 49.3482C84.5284 48.1243 86.0808 47.2925 87.7688 46.9573C89.4567 46.6221 91.205 46.7984 92.7942 47.464C94.3834 48.1296 95.7428 49.255 96.7017 50.6988C97.6607 52.1426 98.1765 53.8407 98.1844 55.5798C98.1844 58.5992 96.8954 60.5357 95.0073 62.4446L90.4685 57.8558C89.4807 56.6654 88.3934 55.5631 87.2187 54.5611Z" fill="black"/>
<path d="M71.8592 59.609V56.8557C71.8592 56.6123 71.7636 56.3789 71.5933 56.2068C71.4231 56.0347 71.1922 55.938 70.9515 55.938C70.7107 55.938 70.4798 56.0347 70.3096 56.2068C70.1393 56.3789 70.0437 56.6123 70.0437 56.8557V59.609C70.0437 59.8524 70.1393 60.0859 70.3096 60.258C70.4798 60.4301 70.7107 60.5268 70.9515 60.5268C71.1922 60.5268 71.4231 60.4301 71.5933 60.258C71.7636 60.0859 71.8592 59.8524 71.8592 59.609Z" fill="black"/>
<path d="M70.0437 88.9773V91.7306C70.0437 91.974 70.1393 92.2075 70.3096 92.3796C70.4798 92.5517 70.7107 92.6484 70.9515 92.6484C71.1922 92.6484 71.4231 92.5517 71.5933 92.3796C71.7636 92.2075 71.8592 91.974 71.8592 91.7306V88.9773C71.8592 88.7339 71.7636 88.5005 71.5933 88.3284C71.4231 88.1563 71.1922 88.0596 70.9515 88.0596C70.7107 88.0596 70.4798 88.1563 70.3096 88.3284C70.1393 88.5005 70.0437 88.7339 70.0437 88.9773Z" fill="black"/>
<path d="M56.4281 73.3752H53.7049C53.4641 73.3752 53.2332 73.4719 53.063 73.644C52.8928 73.8162 52.7971 74.0496 52.7971 74.293C52.7971 74.5364 52.8928 74.7698 53.063 74.942C53.2332 75.1141 53.4641 75.2108 53.7049 75.2108H56.4281C56.6689 75.2108 56.8998 75.1141 57.07 74.942C57.2403 74.7698 57.3359 74.5364 57.3359 74.293C57.3359 74.0496 57.2403 73.8162 57.07 73.644C56.8998 73.4719 56.6689 73.3752 56.4281 73.3752Z" fill="black"/>
<path d="M85.4761 75.2108H88.1994C88.4401 75.2108 88.671 75.1141 88.8413 74.942C89.0115 74.7698 89.1071 74.5364 89.1071 74.293C89.1071 74.0496 89.0115 73.8162 88.8413 73.644C88.671 73.4719 88.4401 73.3752 88.1994 73.3752H85.4761C85.2354 73.3752 85.0045 73.4719 84.8342 73.644C84.664 73.8162 84.5684 74.0496 84.5684 74.293C84.5684 74.5364 84.664 74.7698 84.8342 74.942C85.0045 75.1141 85.2354 75.2108 85.4761 75.2108Z" fill="black"/>
<path d="M62.7819 59.9852C62.9795 59.8583 63.1209 59.659 63.1766 59.4291C63.2323 59.1992 63.198 58.9564 63.0808 58.7514C62.9636 58.5465 62.7727 58.3953 62.5478 58.3293C62.323 58.2634 62.0816 58.2878 61.8741 58.3975C61.6766 58.5245 61.5351 58.7238 61.4794 58.9537C61.4237 59.1836 61.4581 59.4264 61.5752 59.6313C61.6924 59.8363 61.8833 59.9875 62.1082 60.0535C62.3331 60.1194 62.5744 60.095 62.7819 59.9852Z" fill="black"/>
<path d="M79.1217 88.6009C78.9241 88.7279 78.7827 88.9271 78.727 89.1571C78.6713 89.387 78.7056 89.6298 78.8228 89.8347C78.9399 90.0396 79.1309 90.1909 79.3558 90.2568C79.5806 90.3228 79.822 90.2983 80.0295 90.1886C80.227 90.0616 80.3685 89.8624 80.4242 89.6324C80.4799 89.4025 80.4455 89.1597 80.3284 88.9548C80.2112 88.7499 80.0202 88.5986 79.7954 88.5327C79.5705 88.4667 79.3292 88.4912 79.1217 88.6009Z" fill="black"/>
<path d="M80.0295 58.3975C79.822 58.2878 79.5806 58.2634 79.3558 58.3293C79.1309 58.3953 78.9399 58.5465 78.8228 58.7514C78.7056 58.9564 78.6713 59.1992 78.727 59.4291C78.7827 59.659 78.9241 59.8583 79.1217 59.9852C79.3292 60.095 79.5705 60.1194 79.7954 60.0535C80.0202 59.9875 80.2112 59.8363 80.3284 59.6313C80.4455 59.4264 80.4799 59.1836 80.4242 58.9537C80.3685 58.7238 80.227 58.5245 80.0295 58.3975Z" fill="black"/>
<path d="M62.7819 88.6009C62.5744 88.4912 62.3331 88.4667 62.1082 88.5327C61.8833 88.5986 61.6924 88.7499 61.5752 88.9548C61.4581 89.1597 61.4237 89.4025 61.4794 89.6324C61.5351 89.8624 61.6766 90.0616 61.8741 90.1886C62.0816 90.2983 62.323 90.3228 62.5478 90.2568C62.7727 90.1909 62.9636 90.0396 63.0808 89.8347C63.198 89.6298 63.2323 89.387 63.1766 89.1571C63.1209 88.9271 62.9795 88.7279 62.7819 88.6009Z" fill="black"/>
<path d="M86.3838 82.213C86.1744 82.0913 85.9257 82.0587 85.6924 82.1224C85.4592 82.1861 85.2606 82.3409 85.1402 82.5526C85.0198 82.7644 84.9876 83.0158 85.0506 83.2516C85.1135 83.4874 85.2666 83.6882 85.476 83.8099C85.6855 83.9317 85.9342 83.9642 86.1674 83.9006C86.4006 83.8369 86.5993 83.6821 86.7197 83.4704C86.84 83.2586 86.8723 83.0072 86.8093 82.7714C86.7463 82.5356 86.5933 82.3348 86.3838 82.213Z" fill="black"/>
<path d="M55.5649 66.3731C55.6686 66.4333 55.7831 66.4723 55.9017 66.4879C56.0203 66.5034 56.1408 66.4952 56.2563 66.4637C56.3718 66.4321 56.48 66.3779 56.5747 66.3041C56.6695 66.2303 56.7489 66.1383 56.8085 66.0335C56.8681 65.9286 56.9067 65.8129 56.9221 65.693C56.9375 65.5731 56.9294 65.4513 56.8982 65.3345C56.867 65.2177 56.8134 65.1083 56.7403 65.0125C56.6673 64.9167 56.5764 64.8364 56.4727 64.7762C56.2632 64.6545 56.0145 64.6219 55.7813 64.6855C55.5481 64.7492 55.3494 64.904 55.229 65.1157C55.1087 65.3275 55.0764 65.5789 55.1394 65.8147C55.2024 66.0505 55.3555 66.2514 55.5649 66.3731Z" fill="black"/>
<path d="M86.3838 66.3731C86.5933 66.2514 86.7463 66.0505 86.8093 65.8147C86.8723 65.5789 86.84 65.3275 86.7197 65.1157C86.5993 64.904 86.4006 64.7492 86.1674 64.6855C85.9342 64.6219 85.6855 64.6545 85.476 64.7762C85.2666 64.8979 85.1135 65.0987 85.0506 65.3345C84.9876 65.5703 85.0198 65.8217 85.1402 66.0335C85.2606 66.2453 85.4592 66.4 85.6924 66.4637C85.9257 66.5274 86.1744 66.4948 86.3838 66.3731Z" fill="black"/>
<path d="M55.5649 82.213C55.3555 82.3348 55.2024 82.5356 55.1394 82.7714C55.0764 83.0072 55.1087 83.2586 55.229 83.4704C55.3494 83.6821 55.5481 83.8369 55.7813 83.9006C56.0145 83.9642 56.2632 83.9317 56.4727 83.8099C56.6821 83.6882 56.8352 83.4874 56.8982 83.2516C56.9612 83.0158 56.9289 82.7644 56.8085 82.5526C56.6882 82.3409 56.4895 82.1861 56.2563 82.1224C56.0231 82.0587 55.7744 82.0913 55.5649 82.213Z" fill="black"/>
<path d="M73.6756 73.3752H72.5137C71.6059 71.8609 71.8601 75.3759 71.8601 63.2798C71.8601 63.0364 71.7644 62.803 71.5942 62.6309C71.424 62.4588 71.1931 62.3621 70.9523 62.3621C70.7116 62.3621 70.4807 62.4588 70.3104 62.6309C70.1402 62.803 70.0446 63.0364 70.0446 63.2798V72.7144C68.5922 73.5679 71.6059 73.3752 62.7825 73.3752C62.5418 73.3752 62.3109 73.4719 62.1406 73.644C61.9704 73.8161 61.8748 74.0495 61.8748 74.293C61.8748 74.5364 61.9704 74.7698 62.1406 74.9419C62.3109 75.114 62.5418 75.2107 62.7825 75.2107C71.6059 75.2107 68.5922 75.018 70.0446 75.8715V77.0462C70.0446 77.2896 70.1402 77.5231 70.3104 77.6952C70.4807 77.8673 70.7116 77.964 70.9523 77.964C71.1931 77.964 71.424 77.8673 71.5942 77.6952C71.7644 77.5231 71.8601 77.2896 71.8601 77.0462V75.8715C72.1331 75.7151 72.359 75.4867 72.5137 75.2107H73.6756C73.9163 75.2107 74.1472 75.114 74.3175 74.9419C74.4877 74.7698 74.5833 74.5364 74.5833 74.293C74.5833 74.0495 74.4877 73.8161 74.3175 73.644C74.1472 73.4719 73.9163 73.3752 73.6756 73.3752Z" fill="black"/>
</svg>
