<svg width="100" height="100" viewBox="0 0 100 100" fill="none" xmlns="http://www.w3.org/2000/svg">
<path d="M0.78125 7.13393V24.9023C0.78125 26.5871 1.45043 28.2029 2.64158 29.3943C3.83273 30.5856 5.44827 31.2549 7.13281 31.2549H43.625L50 39.85L56.375 31.2549H92.8672C94.5517 31.2549 96.1673 30.5856 97.3584 29.3943C98.5496 28.2029 99.2188 26.5871 99.2188 24.9023V7.13393C99.2188 5.44913 98.5496 3.83333 97.3584 2.64199C96.1673 1.45066 94.5517 0.781372 92.8672 0.781372H7.13281C5.44827 0.781372 3.83273 1.45066 2.64158 2.64199C1.45043 3.83333 0.78125 5.44913 0.78125 7.13393Z" fill="url(#paint0_linear)"/>
<path d="M99.2188 20.9955V24.9023C99.2188 26.5871 98.5496 28.2029 97.3584 29.3943C96.1673 30.5856 94.5517 31.2549 92.8672 31.2549H56.375L50 39.85L43.625 31.2549H7.13281C5.44827 31.2549 3.83273 30.5856 2.64158 29.3943C1.45043 28.2029 0.78125 26.5871 0.78125 24.9023V20.9955C0.78125 22.6803 1.45043 24.2961 2.64158 25.4874C3.83273 26.6788 5.44827 27.348 7.13281 27.348H92.8672C94.5517 27.348 96.1673 26.6788 97.3584 25.4874C98.5496 24.2961 99.2188 22.6803 99.2188 20.9955Z" fill="#C7CDD8"/>
<path d="M39.8438 68.7607H21.0938V99.2343H39.8438V68.7607Z" fill="url(#paint1_linear)"/>
<path d="M39.8438 95.3274H21.0938V99.2343H39.8438V95.3274Z" fill="#5B8DC9"/>
<path d="M39.8438 71.2846C49.4297 53.0787 48.4375 56.7668 48.4375 46.3979C48.4375 45.5814 48.7618 44.7984 49.3391 44.221C49.9163 43.6437 50.6993 43.3193 51.5156 43.3193C55.4219 43.3193 58.4687 47.2262 58.4687 51.2268C58.4687 57.2356 56.8281 60.9471 55.3906 64.854H74.6562C75.7089 64.8327 76.7319 65.2029 77.5272 65.8929C78.3225 66.5829 78.8334 67.5437 78.9609 68.5889C79.0119 69.1564 78.9442 69.7282 78.762 70.268C78.5798 70.8079 78.2872 71.3038 77.9028 71.7243C77.5184 72.1448 77.0507 72.4805 76.5294 72.7102C76.0081 72.9399 75.4446 73.0585 74.875 73.0584C75.4446 73.0582 76.0081 73.1768 76.5294 73.4065C77.0507 73.6362 77.5184 73.972 77.9028 74.3924C78.2872 74.8129 78.5798 75.3089 78.762 75.8487C78.9442 76.3885 79.0119 76.9604 78.9609 77.5278C78.8334 78.5731 78.3225 79.5338 77.5272 80.2238C76.7319 80.9138 75.7089 81.2841 74.6562 81.2628H72.1562C73.2959 81.2628 74.3888 81.7155 75.1946 82.5215C76.0004 83.3274 76.4531 84.4205 76.4531 85.5603C76.4531 86.7001 76.0004 87.7932 75.1946 88.5991C74.3888 89.4051 73.2959 89.8579 72.1562 89.8579H70.875C72.0146 89.8579 73.1075 90.3106 73.9133 91.1166C74.7192 91.9225 75.1719 93.0156 75.1719 94.1554C75.1719 95.2952 74.7192 96.3883 73.9133 97.1942C73.1075 98.0002 72.0146 98.453 70.875 98.453H46.9766C45.6403 98.4501 44.3205 98.1589 43.107 97.5992C41.8936 97.0396 40.8152 96.2248 39.9453 95.2103C39.8125 95.054 39.8594 96.6089 39.8594 73.449" fill="url(#paint2_linear)"/>
<path d="M74.8827 92.6161C75.1395 93.2696 75.2314 93.9763 75.1502 94.6738C75.069 95.3712 74.8172 96.0379 74.4171 96.6149C74.0171 97.1919 73.481 97.6615 72.8564 97.9821C72.2318 98.3026 71.5378 98.4643 70.8359 98.4529H46.9765C45.6403 98.45 44.3204 98.1588 43.1069 97.5992C41.8935 97.0396 40.8151 96.2247 39.9452 95.2102C39.8202 95.0618 39.8593 95.4681 39.8593 91.9832C40.7292 93.0268 41.8173 93.8672 43.047 94.4449C44.2766 95.0227 45.6179 95.324 46.9765 95.3274H70.8359C71.7057 95.3393 72.5587 95.0863 73.2815 94.6021C74.0043 94.1178 74.5627 93.4252 74.8827 92.6161Z" fill="#EAB39B"/>
<path d="M50 8.59509L52.3672 13.3927L57.6641 14.1663L53.8359 17.9012L54.7344 23.1755L50 20.6907L45.2656 23.1755L46.1641 17.9012L42.3359 14.1663L47.6328 13.3927L50 8.59509Z" fill="url(#paint3_linear)"/>
<path d="M68.75 8.59509L71.1172 13.3927L76.4141 14.1663L72.5859 17.9012L73.4844 23.1755L68.75 20.6907L64.0156 23.1755L64.9141 17.9012L61.0859 14.1663L66.3828 13.3927L68.75 8.59509Z" fill="url(#paint4_linear)"/>
<path d="M87.5 8.59509L89.8672 13.3927L95.1641 14.1663L91.3359 17.9012L92.2344 23.1755L87.5 20.6907L82.7656 23.1755L83.6641 17.9012L79.8359 14.1663L85.1328 13.3927L87.5 8.59509Z" fill="url(#paint5_linear)"/>
<path d="M31.25 8.59509L33.6172 13.3927L38.9141 14.1663L35.0859 17.9012L35.9844 23.1755L31.25 20.6907L26.5156 23.1755L27.4141 17.9012L23.5859 14.1663L28.8828 13.3927L31.25 8.59509Z" fill="url(#paint6_linear)"/>
<path d="M12.5007 8.59509L14.8679 13.3927L20.1648 14.1663L16.3367 17.9012L17.2351 23.1755L12.5007 20.6907L7.76636 23.1755L8.66479 17.9012L4.83667 14.1663L10.1335 13.3927L12.5007 8.59509Z" fill="url(#paint7_linear)"/>
<path d="M16.4063 18.4639L17.1875 23.1521L12.5 20.6908L7.76562 23.1755L8.54688 18.4873C9.73948 19.1861 11.0975 19.5526 12.4798 19.5484C13.862 19.5443 15.2178 19.1698 16.4063 18.4639Z" fill="#F6B756"/>
<path d="M35.1563 18.4639L35.9375 23.1521L31.25 20.6908L26.5156 23.1755L27.2969 18.4873C28.4895 19.1861 29.8475 19.5526 31.2298 19.5484C32.612 19.5443 33.9678 19.1698 35.1563 18.4639Z" fill="#F6B756"/>
<path d="M53.9063 18.4639L54.6875 23.1521L50 20.6908L45.2656 23.1755L46.0469 18.4873C47.2395 19.1861 48.5975 19.5526 49.9798 19.5484C51.362 19.5443 52.7178 19.1698 53.9063 18.4639Z" fill="#F6B756"/>
<path d="M72.6562 18.4639L73.4375 23.1521L68.75 20.6908L64.0156 23.1755L64.7969 18.4873C65.9895 19.1861 67.3475 19.5526 68.7298 19.5484C70.112 19.5443 71.4678 19.1698 72.6562 18.4639Z" fill="#F6B756"/>
<path d="M91.4062 18.4639L92.1875 23.1521L87.5 20.6908L82.7656 23.1755L83.5469 18.4873C84.7395 19.1861 86.0975 19.5526 87.4798 19.5484C88.862 19.5443 90.2178 19.1698 91.4062 18.4639Z" fill="#F6B756"/>
<path d="M74.6562 64.0725H56.5312C59.1406 57.0402 61.5703 48.2419 55.4922 43.8272C51.8359 41.1471 47.6562 42.8583 47.6562 46.3979C47.6562 56.5167 48.4375 53.3365 40.5312 68.3545C40.1953 67.7997 41.5391 67.9638 21.1094 67.9638C20.9022 67.9638 20.7035 68.0461 20.5569 68.1926C20.4104 68.3392 20.3281 68.5379 20.3281 68.7451V99.2186C20.3281 99.4259 20.4104 99.6246 20.5569 99.7712C20.7035 99.9177 20.9022 100 21.1094 100H39.8438C40.0509 100 40.2497 99.9177 40.3962 99.7712C40.5427 99.6246 40.625 99.4259 40.625 99.2186V96.9761C42.419 98.4379 44.6625 99.2356 46.9766 99.2343H70.8359C71.8833 99.2422 72.9075 98.9266 73.7687 98.3304C74.63 97.7343 75.2862 96.8868 75.6477 95.9037C76.0093 94.9206 76.0586 93.8498 75.7888 92.8376C75.5191 91.8254 74.9435 90.9212 74.1406 90.2485C74.9085 89.9209 75.5837 89.409 76.1066 88.7581C76.6295 88.1072 76.9839 87.3374 77.1384 86.5169C77.2929 85.6964 77.2427 84.8504 76.9924 84.0539C76.7421 83.2574 76.2992 82.5349 75.7031 81.9503C76.6698 81.7859 77.5645 81.3337 78.2703 80.6528C78.976 79.9719 79.4601 79.094 79.6592 78.1337C79.8583 77.1733 79.7633 76.1753 79.3864 75.2698C79.0096 74.3644 78.3685 73.5937 77.5469 73.0583C81.625 70.4095 79.7578 64.0725 74.6562 64.0725ZM39.0625 98.4529H21.875V69.5421H39.0625V98.4529ZM77.3437 71.1908C77.0333 71.5278 76.6565 71.7969 76.237 71.9811C75.8175 72.1653 75.3644 72.2607 74.9062 72.2613C74.6991 72.2613 74.5003 72.3436 74.3538 72.4902C74.2073 72.6367 74.125 72.8355 74.125 73.0427C74.125 73.2499 74.2073 73.4487 74.3538 73.5952C74.5003 73.7417 74.6991 73.8241 74.9062 73.8241C75.3402 73.8384 75.7671 73.9381 76.1626 74.1175C76.558 74.2969 76.9143 74.5524 77.211 74.8695C77.5077 75.1866 77.7391 75.559 77.8919 75.9655C78.0447 76.372 78.1159 76.8046 78.1016 77.2386C78.0872 77.6727 77.9875 78.0997 77.8082 78.4952C77.6288 78.8907 77.3733 79.247 77.0563 79.5437C76.7393 79.8405 76.3669 80.0719 75.9605 80.2247C75.554 80.3776 75.1215 80.4488 74.6875 80.4345H72.1875C71.9803 80.4345 71.7816 80.5168 71.6351 80.6633C71.4886 80.8099 71.4063 81.0086 71.4063 81.2158C71.4063 81.4231 71.4886 81.6218 71.6351 81.7683C71.7816 81.9149 71.9803 81.9972 72.1875 81.9972C73.1199 81.9972 74.0141 82.3677 74.6734 83.0271C75.3327 83.6865 75.7031 84.5808 75.7031 85.5134C75.7031 86.4459 75.3327 87.3403 74.6734 87.9997C74.0141 88.6591 73.1199 89.0296 72.1875 89.0296H70.875C70.6678 89.0296 70.4691 89.1119 70.3226 89.2584C70.1761 89.4049 70.0938 89.6037 70.0938 89.8109C70.0938 90.0182 70.1761 90.2169 70.3226 90.3634C70.4691 90.51 70.6678 90.5923 70.875 90.5923C71.8074 90.5923 72.7016 90.9627 73.3609 91.6222C74.0202 92.2816 74.3906 93.1759 74.3906 94.1085C74.3906 95.041 74.0202 95.9354 73.3609 96.5948C72.7016 97.2542 71.8074 97.6246 70.875 97.6246H46.9766C45.7792 97.6315 44.594 97.3843 43.4991 96.8995C42.4043 96.4146 41.4247 95.703 40.625 94.8117V71.5346C50 53.6725 49.2188 57.1105 49.2188 46.3979C49.2188 43.1474 54.5234 43.2255 56.8281 47.7965C57.3755 48.8569 57.6596 50.0334 57.6563 51.2268C57.6563 60.1344 53.9297 64.1741 54.7188 65.2915C55.0625 65.7837 53.6406 65.6353 74.6406 65.6353C75.3035 65.5879 75.9653 65.7401 76.5409 66.0723C77.1165 66.4044 77.5796 66.9013 77.8704 67.4989C78.1611 68.0966 78.2664 68.7676 78.1725 69.4256C78.0787 70.0835 77.79 70.6984 77.3437 71.1908Z" fill="#47566A"/>
<path d="M57.8125 13.3771L52.9297 12.6661L50.75 8.24351C50.6759 8.11883 50.5707 8.01554 50.4447 7.94381C50.3187 7.87207 50.1762 7.83435 50.0312 7.83435C49.8862 7.83435 49.7437 7.87207 49.6177 7.94381C49.4917 8.01554 49.3865 8.11883 49.3125 8.24351L47.1328 12.6661C41.8984 13.4475 41.8125 13.2834 41.6093 13.9163C41.4062 14.5492 41.5469 14.4789 45.3437 18.1826C44.4453 23.3943 44.289 23.4334 44.8281 23.8241C45.3672 24.2148 45.3515 24.0507 50.0312 21.5893C54.7812 24.0897 54.4922 23.9725 54.7656 23.9725C54.882 23.9747 54.9973 23.9508 55.1033 23.9026C55.2092 23.8544 55.3031 23.7831 55.378 23.694C55.4528 23.6049 55.5069 23.5001 55.5361 23.3875C55.5653 23.2748 55.569 23.157 55.5468 23.0427L54.6875 18.1826L58.2187 14.7367C58.3307 14.638 58.412 14.5092 58.4531 14.3657C58.4942 14.2222 58.4933 14.0699 58.4506 13.9269C58.4078 13.7839 58.325 13.6561 58.2119 13.5587C58.0988 13.4612 57.9602 13.3982 57.8125 13.3771ZM53.3047 17.3309C52.9062 17.7294 53.0312 17.7841 53.7109 21.7222C50 19.7844 50.2656 19.886 50 19.886C49.7343 19.886 49.8906 19.8391 46.3203 21.7222C47.0156 17.6669 47.1015 17.7137 46.7265 17.3309L44.0469 14.7211L47.7422 14.1819C48.3047 14.1038 48.2343 13.9788 50 10.4001C51.8203 14.0882 51.7109 14.1038 52.2578 14.1819L55.9531 14.7211L53.3047 17.3309Z" fill="#47566A"/>
<path d="M76.5625 13.3771L71.6797 12.6661L69.5 8.24351C69.4259 8.11883 69.3207 8.01554 69.1947 7.94381C69.0687 7.87207 68.9262 7.83435 68.7812 7.83435C68.6362 7.83435 68.4937 7.87207 68.3677 7.94381C68.2417 8.01554 68.1365 8.11883 68.0625 8.24351L65.8828 12.6661C60.6484 13.4475 60.5625 13.2834 60.3593 13.9163C60.1562 14.5492 60.2968 14.4789 64.0937 18.1826C63.1953 23.3943 63.039 23.4334 63.5781 23.8241C64.1172 24.2148 64.1015 24.0507 68.7812 21.5893C73.5312 24.0897 73.2422 23.9725 73.5156 23.9725C73.632 23.9747 73.7473 23.9508 73.8533 23.9026C73.9592 23.8544 74.0531 23.7831 74.128 23.694C74.2028 23.6049 74.2569 23.5001 74.2861 23.3875C74.3153 23.2748 74.319 23.157 74.2968 23.0427L73.4375 18.1826L76.9687 14.7367C77.0807 14.638 77.162 14.5092 77.2031 14.3657C77.2442 14.2222 77.2433 14.0699 77.2006 13.9269C77.1578 13.7839 77.075 13.6561 76.9619 13.5587C76.8488 13.4612 76.7102 13.3982 76.5625 13.3771ZM72.0547 17.3309C71.6562 17.7294 71.7812 17.7841 72.4609 21.7222C68.75 19.7844 69.0156 19.886 68.75 19.886C68.4843 19.886 68.6406 19.8391 65.0703 21.7222C65.7656 17.6669 65.8515 17.7137 65.4765 17.3309L62.7968 14.7211L66.4922 14.1819C67.0547 14.1038 66.9843 13.9788 68.75 10.4001C70.5703 14.0882 70.4609 14.1038 71.0078 14.1819L74.7031 14.7211L72.0547 17.3309Z" fill="#47566A"/>
<path d="M95.3125 13.3771L90.4297 12.6661L88.25 8.24351C88.1759 8.11883 88.0707 8.01554 87.9447 7.94381C87.8187 7.87207 87.6762 7.83435 87.5312 7.83435C87.3862 7.83435 87.2437 7.87207 87.1177 7.94381C86.9917 8.01554 86.8865 8.11883 86.8125 8.24351L84.6328 12.6661C79.3984 13.4475 79.3125 13.2834 79.1093 13.9163C78.9062 14.5492 79.0468 14.4789 82.8437 18.1826C81.9453 23.3943 81.789 23.4334 82.3281 23.8241C82.8672 24.2148 82.8515 24.0507 87.5312 21.5893C92.2812 24.0897 91.9922 23.9725 92.2656 23.9725C92.382 23.9747 92.4973 23.9508 92.6033 23.9026C92.7092 23.8544 92.8031 23.7831 92.878 23.694C92.9528 23.6049 93.0069 23.5001 93.0361 23.3875C93.0653 23.2748 93.069 23.157 93.0468 23.0427L92.1875 18.1826L95.7187 14.7367C95.8307 14.638 95.912 14.5092 95.9531 14.3657C95.9942 14.2222 95.9933 14.0699 95.9506 13.9269C95.9078 13.7839 95.825 13.6561 95.7119 13.5587C95.5988 13.4612 95.4602 13.3982 95.3125 13.3771ZM90.8047 17.3309C90.4062 17.7294 90.5312 17.7841 91.2109 21.7222C87.5312 19.7844 87.7968 19.886 87.5312 19.886C87.2656 19.886 87.4218 19.8391 83.8515 21.7222C84.5468 17.6669 84.6328 17.7137 84.2578 17.3309L81.5781 14.7211L85.2734 14.1819C85.8359 14.1038 85.7656 13.9788 87.5312 10.4001C89.3515 14.0882 89.2422 14.1038 89.789 14.1819L93.4843 14.7211L90.8047 17.3309Z" fill="#47566A"/>
<path d="M39.0625 13.3771L34.1797 12.6661L32 8.24351C31.9259 8.11883 31.8207 8.01554 31.6947 7.94381C31.5687 7.87207 31.4262 7.83435 31.2812 7.83435C31.1362 7.83435 30.9937 7.87207 30.8677 7.94381C30.7417 8.01554 30.6365 8.11883 30.5625 8.24351L28.3828 12.6661C23.1484 13.4475 23.0625 13.2834 22.8593 13.9163C22.6562 14.5492 22.7968 14.4789 26.5937 18.1826C25.6953 23.3943 25.539 23.4334 26.0781 23.8241C26.6172 24.2148 26.5937 24.0507 31.2812 21.5893C36.0312 24.0897 35.7422 23.9725 36.0156 23.9725C36.132 23.9747 36.2473 23.9508 36.3533 23.9026C36.4592 23.8544 36.5531 23.7831 36.628 23.694C36.7028 23.6049 36.7569 23.5001 36.7861 23.3875C36.8153 23.2748 36.819 23.157 36.7968 23.0427L35.9375 18.1826L39.4687 14.7367C39.5807 14.638 39.662 14.5092 39.7031 14.3657C39.7442 14.2222 39.7433 14.0699 39.7006 13.9269C39.6578 13.7839 39.575 13.6561 39.4619 13.5587C39.3488 13.4612 39.2102 13.3982 39.0625 13.3771ZM34.5547 17.3309C34.1562 17.7294 34.2812 17.7841 34.9609 21.7222C31.25 19.7844 31.5156 19.886 31.25 19.886C30.9843 19.886 31.1406 19.8391 27.5703 21.7222C28.2656 17.6669 28.3515 17.7137 27.9765 17.3309L25.2968 14.7211L28.9922 14.1819C29.5547 14.1038 29.4843 13.9788 31.25 10.4001C33.0703 14.0882 32.9609 14.1038 33.5078 14.1819L37.2031 14.7211L34.5547 17.3309Z" fill="#47566A"/>
<path d="M20.3132 13.3771L15.4304 12.6661L13.2507 8.24351C13.1767 8.11883 13.0715 8.01554 12.9455 7.94381C12.8195 7.87207 12.677 7.83435 12.532 7.83435C12.387 7.83435 12.2445 7.87207 12.1184 7.94381C11.9924 8.01554 11.8872 8.11883 11.8132 8.24351L9.63352 12.6661C4.39914 13.4475 4.31321 13.2834 4.11008 13.9163C3.90696 14.5492 4.04758 14.4789 7.84446 18.1826C6.91477 23.3943 6.75852 23.4412 7.29758 23.8241C7.83664 24.2069 7.82102 24.0507 12.5007 21.5893C17.2507 24.0897 16.9616 23.9725 17.2351 23.9725C17.3515 23.9747 17.4668 23.9508 17.5728 23.9026C17.6787 23.8544 17.7726 23.7831 17.8474 23.694C17.9223 23.6049 17.9763 23.5001 18.0056 23.3875C18.0348 23.2748 18.0385 23.157 18.0163 23.0427L17.1882 18.1826L20.7195 14.7367C20.8314 14.638 20.9127 14.5092 20.9538 14.3657C20.9949 14.2222 20.994 14.0699 20.9513 13.9269C20.9085 13.7839 20.8257 13.6561 20.7127 13.5587C20.5996 13.4612 20.461 13.3982 20.3132 13.3771ZM15.8054 17.3309C15.407 17.7294 15.532 17.7841 16.2116 21.7222C12.5007 19.7844 12.7663 19.886 12.5007 19.886C12.2351 19.886 12.3913 19.8391 8.82102 21.7222C9.51633 17.6669 9.60227 17.7137 9.22727 17.3309L6.54758 14.7211L10.2429 14.1819C10.8054 14.1038 10.7351 13.9788 12.5007 10.4001C14.321 14.0882 14.2116 14.1038 14.7585 14.1819L18.4538 14.7211L15.8054 17.3309Z" fill="#47566A"/>
<path d="M92.8672 0H7.13281C5.24234 0.00412833 3.43048 0.757062 2.09371 2.09404C0.756944 3.43102 0.00412768 5.24316 0 7.13393L0 24.9023C0.00412768 26.7931 0.756944 28.6052 2.09371 29.9422C3.43048 31.2792 5.24234 32.0321 7.13281 32.0363H43.2188L49.3594 40.311C49.4314 40.4142 49.5272 40.4984 49.6387 40.5566C49.7503 40.6148 49.8742 40.6451 50 40.6451C50.1258 40.6451 50.2497 40.6148 50.3613 40.5566C50.4728 40.4984 50.5686 40.4142 50.6406 40.311L56.7812 32.0363H92.8672C94.7577 32.0321 96.5695 31.2792 97.9063 29.9422C99.2431 28.6052 99.9959 26.7931 100 24.9023V7.13393C99.9959 5.24316 99.2431 3.43102 97.9063 2.09404C96.5695 0.757062 94.7577 0.00412833 92.8672 0V0ZM98.4375 24.9023C98.4385 25.6342 98.2952 26.3592 98.0156 27.0355C97.736 27.7119 97.3257 28.3265 96.8083 28.844C96.2908 29.3616 95.6764 29.7719 95.0001 30.0515C94.3238 30.3311 93.599 30.4745 92.8672 30.4735H56.375C55.7969 30.4735 56.125 30.2704 50 38.5295C43.8516 30.2235 44.1953 30.4735 43.625 30.4735H7.13281C6.40102 30.4745 5.67622 30.3311 4.99993 30.0515C4.32364 29.7719 3.70917 29.3616 3.19171 28.844C2.67426 28.3265 2.26399 27.7119 1.98442 27.0355C1.70485 26.3592 1.56147 25.6342 1.5625 24.9023V7.13393C1.56147 6.40202 1.70485 5.6771 1.98442 5.00071C2.26399 4.32432 2.67426 3.70975 3.19171 3.19221C3.70917 2.67467 4.32364 2.26434 4.99993 1.98473C5.67622 1.70512 6.40102 1.56172 7.13281 1.56274H92.8672C93.599 1.56172 94.3238 1.70512 95.0001 1.98473C95.6764 2.26434 96.2908 2.67467 96.8083 3.19221C97.3257 3.70975 97.736 4.32432 98.0156 5.00071C98.2952 5.6771 98.4385 6.40202 98.4375 7.13393V24.9023Z" fill="#47566A"/>
<defs>
<linearGradient id="paint0_linear" x1="50" y1="39.85" x2="50" y2="0.781372" gradientUnits="userSpaceOnUse">
<stop stop-color="#DDE1E8"/>
<stop offset="1" stop-color="#F3F4F5"/>
</linearGradient>
<linearGradient id="paint1_linear" x1="30.4687" y1="99.2343" x2="30.4687" y2="68.7607" gradientUnits="userSpaceOnUse">
<stop stop-color="#7AA8D7"/>
<stop offset="1" stop-color="#96C8EA"/>
</linearGradient>
<linearGradient id="paint2_linear" x1="59.4062" y1="98.4529" x2="59.4062" y2="43.3193" gradientUnits="userSpaceOnUse">
<stop stop-color="#F2C4B0"/>
<stop offset="1" stop-color="#FFE3D7"/>
</linearGradient>
<linearGradient id="paint3_linear" x1="50" y1="23.1755" x2="50" y2="8.59509" gradientUnits="userSpaceOnUse">
<stop stop-color="#FBCC88"/>
<stop offset="1" stop-color="#FFE5C3"/>
</linearGradient>
<linearGradient id="paint4_linear" x1="1409.96" y1="441.05" x2="1409.96" y2="8.59509" gradientUnits="userSpaceOnUse">
<stop stop-color="#FBCC88"/>
<stop offset="1" stop-color="#FFE5C3"/>
</linearGradient>
<linearGradient id="paint5_linear" x1="1796.59" y1="441.05" x2="1796.59" y2="8.59509" gradientUnits="userSpaceOnUse">
<stop stop-color="#FBCC88"/>
<stop offset="1" stop-color="#FFE5C3"/>
</linearGradient>
<linearGradient id="paint6_linear" x1="636.711" y1="441.05" x2="636.711" y2="8.59509" gradientUnits="userSpaceOnUse">
<stop stop-color="#FBCC88"/>
<stop offset="1" stop-color="#FFE5C3"/>
</linearGradient>
<linearGradient id="paint7_linear" x1="250.087" y1="441.05" x2="250.087" y2="8.59509" gradientUnits="userSpaceOnUse">
<stop stop-color="#FBCC88"/>
<stop offset="1" stop-color="#FFE5C3"/>
</linearGradient>
</defs>
</svg>
