<svg width="449" height="532" viewBox="0 0 449 532" fill="none" xmlns="http://www.w3.org/2000/svg">
<rect y="20" width="449" height="512" rx="8" fill="#FFFAF3"/>
<path fill-rule="evenodd" clip-rule="evenodd" d="M8 20H441C445.418 20 449 23.5817 449 28V70C449 71.3923 448.644 72.7015 448.019 73.8417C437.371 48.6881 341.363 29 224.5 29C107.637 29 11.629 48.6881 0.981068 73.8417C0.355655 72.7015 0 71.3923 0 70V28C0 23.5817 3.58172 20 8 20Z" fill="#FFB152"/>
<path fill-rule="evenodd" clip-rule="evenodd" d="M8 29H441C445.418 29 449 32.5817 449 37V89.7723C449 91.0416 448.704 92.2419 448.178 93.308C438.37 63.26 341.971 39.6716 224.5 39.6716C107.028 39.6716 10.63 63.26 0.821726 93.308C0.295604 92.2419 0 91.0416 0 89.7723V37C0 32.5817 3.58172 29 8 29Z" fill="#FFB152" fill-opacity="0.5"/>
<g filter="url(#filter0_d)">
<circle cx="225" cy="47" r="46" fill="#FFFAF3"/>
</g>
<path d="M246.752 48.0796C246.752 48.0796 242.627 48.0796 235.502 40.807C236.649 38.0626 236.979 37.6415 236.649 36.9296C236.319 36.2176 235.498 36.0071 234.774 35.9038C233.822 35.7736 216.024 35.8387 215.758 35.8502C215.184 35.8502 214.025 36.0722 213.564 36.6157C213.391 36.8212 213.281 37.0741 213.248 37.3429C213.214 37.6117 213.259 37.8846 213.377 38.1276C213.902 39.3831 213.455 38.2999 214.502 40.807C207.377 48.0796 203.252 48.0796 203.252 48.0796C199.074 41.274 202.434 33.7373 208.535 31.5938C218.634 28.0532 231.358 28.0493 241.468 31.5938C247.502 33.7143 250.974 41.1898 246.752 48.0796Z" fill="url(#paint0_linear)"/>
<path d="M214.502 40.807C207.377 48.0796 203.252 48.0796 203.252 48.0796C201.939 45.9399 201.185 43.674 201.407 41.1094C201.845 44.5314 205.637 46.3304 208.569 44.5543C210.601 43.2635 212.479 41.7348 214.164 39.9994L214.502 40.807Z" fill="#5B8DC9"/>
<path d="M233.626 35.831H216.376C214.374 35.831 213.609 36.3707 213.354 36.9296C213.219 36.5966 212.626 34.6827 216.376 34.6827H233.626C237.376 34.6827 236.784 36.5966 236.649 36.9296C236.394 36.3707 235.629 35.831 233.626 35.831Z" fill="#5B8DC9"/>
<path d="M247.31 47.1303C247.07 47.5705 247.089 47.5131 246.752 48.0796C246.752 48.0796 242.627 48.0796 235.502 40.807L235.839 39.9994C237.611 41.8255 239.6 43.4175 241.76 44.738C244.648 46.4222 248.293 44.5428 248.604 41.2319C248.726 43.2832 248.277 45.3278 247.31 47.1303Z" fill="#5B8DC9"/>
<path d="M247.502 63.3904H202.502V67.9836H247.502V63.3904Z" fill="url(#paint1_linear)"/>
<path d="M247.502 66.4525H202.502V67.9836H247.502V66.4525Z" fill="#8288A1"/>
<path d="M236.03 48.872C235.331 48.6419 234.722 48.1914 234.29 47.5854C233.858 46.9794 233.626 46.2492 233.626 45.4998C233.626 44.6612 233.3 43.8571 232.719 43.2641C232.138 42.6712 231.35 42.3381 230.529 42.3381H219.474C218.652 42.3381 217.865 42.6712 217.284 43.2641C216.703 43.8571 216.376 44.6612 216.376 45.4998C216.377 46.2492 216.145 46.9794 215.713 47.5854C215.281 48.1914 214.671 48.6419 213.973 48.872C210.966 49.8649 208.345 51.8049 206.486 54.4135C204.627 57.022 203.626 60.1648 203.626 63.3904C203.626 63.4286 202.91 63.3904 246.376 63.3904C246.377 60.1648 245.376 57.022 243.517 54.4135C241.658 51.8049 239.037 49.8649 236.03 48.872Z" fill="url(#paint2_linear)"/>
<path d="M246.377 63.3904H203.627C203.626 62.8789 203.653 62.3679 203.705 61.8593H246.298C246.351 62.3679 246.377 62.8789 246.377 63.3904Z" fill="#5B8DC9"/>
<path d="M225.002 60.711C229.144 60.711 232.502 57.2836 232.502 53.0556C232.502 48.8277 229.144 45.4003 225.002 45.4003C220.859 45.4003 217.502 48.8277 217.502 53.0556C217.502 57.2836 220.859 60.711 225.002 60.711Z" fill="url(#paint3_linear)"/>
<path d="M225.002 60.711C223.953 60.711 222.917 60.4868 221.959 60.0527C221.001 59.6187 220.142 58.9845 219.439 58.191C218.736 57.3976 218.204 56.4625 217.877 55.4461C217.549 54.4297 217.434 53.3546 217.539 52.2901C217.725 54.1786 218.591 55.9293 219.97 57.2026C221.349 58.4758 223.142 59.1809 225.002 59.1809C226.861 59.1809 228.654 58.4758 230.033 57.2026C231.412 55.9293 232.278 54.1786 232.464 52.2901C232.569 53.3546 232.454 54.4297 232.127 55.4461C231.799 56.4625 231.267 57.3976 230.564 58.191C229.861 58.9845 229.002 59.6187 228.044 60.0527C227.086 60.4868 226.05 60.711 225.002 60.711Z" fill="#C7CDD8"/>
<path d="M225.002 62.2421C223.953 62.2421 222.917 62.0178 221.959 61.5838C221.001 61.1497 220.142 60.5155 219.439 59.7221C218.736 58.9287 218.204 57.9936 217.877 56.9772C217.549 55.9608 217.434 54.8857 217.539 53.8212C217.725 55.7096 218.591 57.4603 219.97 58.7336C221.349 60.0069 223.142 60.7119 225.002 60.7119C226.861 60.7119 228.654 60.0069 230.033 58.7336C231.412 57.4603 232.278 55.7096 232.464 53.8212C232.569 54.8857 232.454 55.9608 232.127 56.9772C231.799 57.9936 231.267 58.9287 230.564 59.7221C229.861 60.5155 229.002 61.1497 228.044 61.5838C227.086 62.0178 226.05 62.2421 225.002 62.2421Z" fill="#5B8DC9"/>
<path d="M225.002 57.2661C227.28 57.2661 229.127 55.381 229.127 53.0556C229.127 50.7303 227.28 48.8452 225.002 48.8452C222.723 48.8452 220.877 50.7303 220.877 53.0556C220.877 55.381 222.723 57.2661 225.002 57.2661Z" fill="url(#paint4_linear)"/>
<path d="M229.059 53.8211C228.885 52.8522 228.384 51.9761 227.643 51.3454C226.901 50.7147 225.967 50.3693 225.002 50.3693C224.036 50.3693 223.102 50.7147 222.361 51.3454C221.619 51.9761 221.118 52.8522 220.944 53.8211C220.835 53.2141 220.858 52.59 221.012 51.993C221.165 51.3961 221.446 50.8409 221.833 50.3668C222.22 49.8927 222.705 49.5113 223.252 49.2495C223.8 48.9878 224.397 48.8521 225.002 48.8521C225.606 48.8521 226.203 48.9878 226.751 49.2495C227.299 49.5113 227.783 49.8927 228.17 50.3668C228.557 50.8409 228.838 51.3961 228.991 51.993C229.145 52.59 229.168 53.2141 229.059 53.8211Z" fill="#5B8DC9"/>
<path d="M229.877 42.3381V39.2759C230.934 39.06 231.886 38.4767 232.569 37.6253C233.253 36.7739 233.627 35.707 233.627 34.6062V33.9172C233.627 33.7142 233.548 33.5194 233.407 33.3759C233.266 33.2323 233.075 33.1517 232.877 33.1517H231.752C231.553 33.1517 231.362 33.2323 231.221 33.3759C231.081 33.5194 231.002 33.7142 231.002 33.9172C231.002 34.4248 230.804 34.9116 230.452 35.2705C230.101 35.6294 229.624 35.831 229.127 35.831H220.877C220.379 35.831 219.902 35.6294 219.551 35.2705C219.199 34.9116 219.002 34.4248 219.002 33.9172C219.002 33.7142 218.923 33.5194 218.782 33.3759C218.641 33.2323 218.45 33.1517 218.252 33.1517H217.127C216.928 33.1517 216.737 33.2323 216.596 33.3759C216.456 33.5194 216.377 33.7142 216.377 33.9172V34.6062C216.376 35.707 216.75 36.7739 217.434 37.6253C218.117 38.4767 219.069 39.06 220.127 39.2759C220.164 39.2759 220.127 39.0195 220.127 42.3381H229.877Z" fill="url(#paint5_linear)"/>
<path d="M229.877 40.807H220.127V42.3381H229.877V40.807Z" fill="#8288A1"/>
<path d="M247.502 63.0076H246.752C246.68 59.7644 245.621 56.6244 243.72 54.0244C241.819 51.4244 239.172 49.4937 236.147 48.5007C235.523 48.2981 234.979 47.898 234.593 47.3583C234.207 46.8187 234 46.1677 234.002 45.4998C234.002 43.7275 232.719 41.9553 230.252 41.9553V39.586C231.063 39.364 231.807 38.9396 232.418 38.351C233.029 37.7623 233.487 37.0279 233.75 36.2138C235.063 36.2138 235.955 36.5047 236.259 36.9793C236.332 37.1292 236.37 37.2943 236.37 37.4616C236.37 37.629 236.332 37.7941 236.259 37.9439C235.04 40.8453 234.973 40.8032 235.217 41.052C242.387 48.3858 246.575 48.4624 246.752 48.4624C247.007 48.4624 247.067 48.2978 247.329 47.8691C248.204 46.4317 248.752 44.812 248.932 43.1296C249.112 41.4472 248.919 39.745 248.369 38.1487C247.818 36.5524 246.923 35.1026 245.75 33.9065C244.577 32.7104 243.156 31.7984 241.592 31.2378C231.5 27.701 218.717 27.6321 208.412 31.2378C206.846 31.7975 205.423 32.7094 204.249 33.906C203.074 35.1026 202.179 36.5533 201.628 38.1508C201.077 39.7484 200.885 41.4519 201.066 43.1354C201.247 44.8188 201.797 46.4393 202.674 47.8767C202.933 48.2978 202.993 48.4624 203.252 48.4624C203.428 48.4624 207.617 48.3782 214.772 41.075C214.826 41.0206 214.864 40.9504 214.879 40.8738C214.893 40.7972 214.885 40.7178 214.854 40.6463C213.759 38.0358 213.399 37.5611 213.729 37.0023C214.033 36.5085 214.925 36.2368 216.238 36.2368C216.506 37.0484 216.967 37.7793 217.581 38.3639C218.194 38.9485 218.94 39.3684 219.752 39.586V41.9553C217.355 41.9553 216.002 43.674 216.002 45.5074C216.003 46.1744 215.797 46.8247 215.413 47.3642C215.029 47.9037 214.486 48.3044 213.864 48.5083C210.838 49.4996 208.19 51.4286 206.288 54.0272C204.386 56.6258 203.325 59.7647 203.252 63.0076H202.502C202.402 63.0076 202.307 63.0479 202.236 63.1197C202.166 63.1915 202.127 63.2888 202.127 63.3904V67.9836C202.127 68.0851 202.166 68.1824 202.236 68.2542C202.307 68.326 202.402 68.3663 202.502 68.3663H247.502C247.601 68.3663 247.696 68.326 247.767 68.2542C247.837 68.1824 247.877 68.0851 247.877 67.9836V63.3904C247.877 63.2888 247.837 63.1915 247.767 63.1197C247.696 63.0479 247.601 63.0076 247.502 63.0076ZM246.553 47.6777C245.66 47.5552 241.873 46.7055 235.955 40.7228L236.443 39.5745C238.385 41.3046 243.283 45.3466 247.397 46.0816C247.158 46.6336 246.876 47.1649 246.553 47.6701V47.6777ZM203.45 47.6777C203.126 47.1653 202.844 46.6263 202.607 46.0663C206.732 45.339 211.607 41.297 213.56 39.5592L214.048 40.7075C208.127 46.6978 204.339 47.5514 203.45 47.6701V47.6777ZM213.092 36.5966C212.6 37.408 212.972 38.1276 213.245 38.7937C211.468 40.4243 206.405 44.6845 202.325 45.316C201.433 42.6876 201.599 39.8054 202.787 37.3018C203.974 34.7981 206.086 32.8775 208.659 31.9612C218.608 28.4742 231.234 28.4206 241.344 31.9612C243.918 32.8766 246.03 34.7972 247.218 37.3011C248.405 39.805 248.571 42.6877 247.678 45.316C243.598 44.6845 238.532 40.4051 236.758 38.809C237.032 38.1621 237.41 37.4348 236.912 36.6119C236.477 35.8884 235.472 35.5057 233.942 35.4636C234.009 34.9512 234.029 34.4334 234.002 33.9172C234.002 33.6126 233.883 33.3206 233.672 33.1052C233.461 32.8899 233.175 32.7689 232.877 32.7689H231.752C231.453 32.7689 231.167 32.8899 230.956 33.1052C230.745 33.3206 230.627 33.6126 230.627 33.9172C230.627 34.3233 230.468 34.7127 230.187 34.9998C229.906 35.287 229.524 35.4483 229.127 35.4483H220.877C220.479 35.4483 220.097 35.287 219.816 34.9998C219.535 34.7127 219.377 34.3233 219.377 33.9172C219.377 33.6126 219.258 33.3206 219.047 33.1052C218.836 32.8899 218.55 32.7689 218.252 32.7689H217.127C216.828 32.7689 216.542 32.8899 216.331 33.1052C216.12 33.3206 216.002 33.6126 216.002 33.9172C215.978 34.4286 216.001 34.9411 216.069 35.4483C214.532 35.498 213.527 35.8808 213.092 36.5966ZM220.217 38.8932C219.242 38.6983 218.364 38.1644 217.732 37.3827C217.1 36.6009 216.754 35.6196 216.752 34.6062V33.9172C216.752 33.8157 216.791 33.7183 216.861 33.6465C216.932 33.5747 217.027 33.5344 217.127 33.5344H218.252C218.351 33.5344 218.446 33.5747 218.517 33.6465C218.587 33.7183 218.627 33.8157 218.627 33.9172C218.627 34.5263 218.864 35.1104 219.286 35.5411C219.707 35.9718 220.28 36.2138 220.877 36.2138H229.127C229.723 36.2138 230.296 35.9718 230.718 35.5411C231.139 35.1104 231.377 34.5263 231.377 33.9172C231.377 33.8157 231.416 33.7183 231.486 33.6465C231.557 33.5747 231.652 33.5344 231.752 33.5344H232.877C232.976 33.5344 233.071 33.5747 233.142 33.6465C233.212 33.7183 233.252 33.8157 233.252 33.9172V34.6062C233.25 35.6175 232.905 36.597 232.277 37.3785C231.648 38.16 230.773 38.6952 229.802 38.8932C229.716 38.9111 229.638 38.9592 229.584 39.0291C229.529 39.0991 229.5 39.1864 229.502 39.2759V41.9553H220.502V39.2759C220.503 39.1864 220.474 39.0991 220.419 39.0291C220.365 38.9592 220.288 38.9111 220.202 38.8932H220.217ZM214.093 49.2279C214.865 48.9731 215.538 48.475 216.016 47.8052C216.494 47.1353 216.751 46.3282 216.752 45.4998C216.751 45.1347 216.821 44.7731 216.958 44.4357C217.094 44.0983 217.295 43.7918 217.548 43.5337C217.801 43.2755 218.101 43.0708 218.432 42.9314C218.762 42.7919 219.116 42.7204 219.474 42.7209H230.529C230.887 42.7204 231.241 42.7919 231.571 42.9314C231.902 43.0708 232.202 43.2755 232.455 43.5337C232.708 43.7918 232.909 44.0983 233.045 44.4357C233.182 44.7731 233.252 45.1347 233.252 45.4998C233.252 46.3282 233.509 47.1353 233.987 47.8052C234.465 48.475 235.138 48.9731 235.91 49.2279C238.787 50.1692 241.305 52.0021 243.113 54.4718C244.922 56.9415 245.931 59.925 246.002 63.0076H204.002C204.072 59.925 205.081 56.9415 206.89 54.4718C208.699 52.0021 211.216 50.1692 214.093 49.2279ZM247.127 67.6008H202.877V63.7731H247.127V67.6008Z" fill="#47566A"/>
<path d="M225.002 45.0175C223.444 45.0175 221.922 45.4889 220.626 46.3722C219.331 47.2554 218.322 48.5108 217.726 49.9796C217.13 51.4483 216.974 53.0645 217.278 54.6238C217.582 56.183 218.332 57.6153 219.433 58.7394C220.534 59.8636 221.938 60.6292 223.465 60.9393C224.993 61.2495 226.576 61.0903 228.015 60.4819C229.454 59.8735 230.684 58.8432 231.549 57.5214C232.415 56.1995 232.877 54.6454 232.877 53.0556C232.877 50.9238 232.047 48.8792 230.57 47.3718C229.093 45.8644 227.09 45.0175 225.002 45.0175ZM225.002 60.3282C223.592 60.3282 222.215 59.9017 221.043 59.1026C219.871 58.3034 218.958 57.1676 218.419 55.8387C217.88 54.5098 217.739 53.0476 218.013 51.6368C218.288 50.2261 218.967 48.9302 219.963 47.9131C220.96 46.896 222.229 46.2034 223.612 45.9228C224.994 45.6421 226.426 45.7862 227.728 46.3366C229.03 46.8871 230.143 47.8192 230.926 49.0152C231.709 50.2112 232.127 51.6172 232.127 53.0556C232.127 54.9844 231.376 56.8342 230.04 58.1981C228.704 59.562 226.891 60.3282 225.002 60.3282Z" fill="#47566A"/>
<path d="M225.002 48.4624C224.112 48.4624 223.242 48.7318 222.502 49.2365C221.762 49.7412 221.185 50.4586 220.844 51.2979C220.504 52.1372 220.414 53.0607 220.588 53.9517C220.762 54.8427 221.19 55.6611 221.82 56.3035C222.449 56.9459 223.251 57.3834 224.124 57.5606C224.997 57.7378 225.901 57.6469 226.724 57.2992C227.546 56.9516 228.249 56.3628 228.743 55.6075C229.238 54.8521 229.502 53.9641 229.502 53.0556C229.502 51.8374 229.027 50.6691 228.184 49.8077C227.34 48.9463 226.195 48.4624 225.002 48.4624ZM225.002 56.8833C224.26 56.8833 223.535 56.6588 222.918 56.2382C222.302 55.8176 221.821 55.2198 221.537 54.5204C221.253 53.821 221.179 53.0514 221.324 52.3089C221.468 51.5664 221.825 50.8844 222.35 50.349C222.874 49.8137 223.543 49.4492 224.27 49.3015C224.997 49.1538 225.751 49.2296 226.437 49.5193C227.122 49.809 227.708 50.2996 228.12 50.9291C228.532 51.5585 228.752 52.2986 228.752 53.0556C228.752 54.0708 228.356 55.0444 227.653 55.7622C226.95 56.48 225.996 56.8833 225.002 56.8833Z" fill="#47566A"/>
<defs>
<filter id="filter0_d" x="175" y="-2" width="100" height="100" filterUnits="userSpaceOnUse" color-interpolation-filters="sRGB">
<feFlood flood-opacity="0" result="BackgroundImageFix"/>
<feColorMatrix in="SourceAlpha" type="matrix" values="0 0 0 0 0 0 0 0 0 0 0 0 0 0 0 0 0 0 127 0" result="hardAlpha"/>
<feOffset dy="1"/>
<feGaussianBlur stdDeviation="2"/>
<feColorMatrix type="matrix" values="0 0 0 0 0 0 0 0 0 0 0 0 0 0 0 0 0 0 0.25 0"/>
<feBlend mode="normal" in2="BackgroundImageFix" result="effect1_dropShadow"/>
<feBlend mode="normal" in="SourceGraphic" in2="effect1_dropShadow" result="shape"/>
</filter>
<linearGradient id="paint0_linear" x1="225.005" y1="48.0796" x2="225.005" y2="28.9374" gradientUnits="userSpaceOnUse">
<stop stop-color="#7AA8D7"/>
<stop offset="1" stop-color="#96C8EA"/>
</linearGradient>
<linearGradient id="paint1_linear" x1="225.002" y1="67.9836" x2="225.002" y2="63.3904" gradientUnits="userSpaceOnUse">
<stop stop-color="#949AAF"/>
<stop offset="1" stop-color="#C6CCDA"/>
</linearGradient>
<linearGradient id="paint2_linear" x1="2939.67" y1="2213.32" x2="2939.67" y2="1053.66" gradientUnits="userSpaceOnUse">
<stop stop-color="#7AA8D7"/>
<stop offset="1" stop-color="#96C8EA"/>
</linearGradient>
<linearGradient id="paint3_linear" x1="225.002" y1="60.711" x2="225.002" y2="45.4003" gradientUnits="userSpaceOnUse">
<stop stop-color="#DDE1E8"/>
<stop offset="1" stop-color="#F3F4F5"/>
</linearGradient>
<linearGradient id="paint4_linear" x1="748.877" y1="781.464" x2="748.877" y2="596.204" gradientUnits="userSpaceOnUse">
<stop stop-color="#7AA8D7"/>
<stop offset="1" stop-color="#96C8EA"/>
</linearGradient>
<linearGradient id="paint5_linear" x1="216.377" y1="474.101" x2="221.275" y2="253.352" gradientUnits="userSpaceOnUse">
<stop stop-color="#949AAF"/>
<stop offset="1" stop-color="#C6CCDA"/>
</linearGradient>
</defs>
</svg>
