<svg width="98" height="2250" viewBox="0 0 98 2250" fill="none" xmlns="http://www.w3.org/2000/svg">
<path d="M16.2602 1107.44C15.6994 1106.88 15.6061 1102.83 15.6498 1099.46C15.6745 1097.56 16.0714 1094.95 17.9517 1095.22C18.4899 1095.3 23.6413 1097.29 21.4885 1102.37C19.3357 1107.44 17.1828 1108.37 16.2602 1107.44Z" fill="#FF9636"/>
<path d="M24.8715 1102.68C25.3773 1101.7 25.5681 1100.65 25.6332 1099.84C25.7056 1098.94 26.1516 1097.45 27.0193 1097.71C27.6355 1097.89 27.6336 1098.48 27.5469 1099.12C27.2875 1101.02 25.732 1102.26 24.8715 1102.68Z" fill="#FF9636"/>
<path d="M15.9526 1113.59C16.3552 1112.81 16.5064 1111.97 16.5576 1111.32C16.6142 1110.6 16.9672 1109.42 17.6572 1109.62C18.1473 1109.77 18.1444 1110.24 18.0765 1110.74C17.8722 1112.27 16.6361 1113.26 15.9526 1113.59Z" fill="#FF9636"/>
<path d="M23.7947 1095.53C23.129 1095.1 21.9914 1092.16 21.1779 1089.78C20.76 1088.56 20.6702 1086.85 21.9494 1086.68C23.8178 1086.44 24.6755 1084.35 26.108 1083.13C26.3459 1082.92 26.5817 1082.8 26.7933 1082.84C27.7159 1082.99 29.7918 1086.68 28.6385 1090.84C27.4853 1094.99 24.8711 1096.22 23.7947 1095.53Z" fill="#FF9636"/>
<path d="M12.7183 1107.44C13.2791 1106.88 13.3724 1102.83 13.3287 1099.46C13.304 1097.56 12.9071 1094.95 11.0268 1095.22C10.4886 1095.3 5.33722 1097.29 7.49004 1102.37C9.64286 1107.44 11.7957 1108.37 12.7183 1107.44Z" fill="#FF9636"/>
<path d="M4.10697 1102.68C3.60122 1101.7 3.41043 1100.65 3.34535 1099.84C3.27294 1098.94 2.82687 1097.45 1.95923 1097.71C1.34306 1097.89 1.3449 1098.48 1.43166 1099.12C1.69103 1101.02 3.24655 1102.26 4.10697 1102.68Z" fill="#FF9636"/>
<path d="M13.0259 1113.59C12.6233 1112.81 12.4722 1111.97 12.4209 1111.32C12.3643 1110.6 12.0114 1109.42 11.3213 1109.62C10.8312 1109.77 10.8341 1110.24 10.902 1110.74C11.1063 1112.27 12.3424 1113.26 13.0259 1113.59Z" fill="#FF9636"/>
<path d="M5.18284 1095.53C5.84858 1095.1 6.98611 1092.16 7.79964 1089.78C8.21758 1088.56 8.30733 1086.85 7.02813 1086.68C5.15974 1086.43 4.30203 1084.35 2.86953 1083.13C2.63168 1082.92 2.39584 1082.8 2.18427 1082.84C1.26163 1082.99 -0.814308 1086.68 0.33899 1090.84C1.49229 1094.99 4.10643 1096.22 5.18284 1095.53Z" fill="#FF9636"/>
<path d="M16.8763 1071.08C16.7738 1070.72 16.1074 1070 14.2621 1070C12.4169 1070 11.7505 1070.72 11.648 1071.08C11.1559 1072.55 9.8027 1072.1 9.18761 1071.69C5.68158 1069.97 4.19002 1072.26 3.88249 1073.61C2.57542 1079.84 6.95795 1081.46 8.57256 1081.84C10.1872 1082.22 10.5716 1082.46 11.2636 1084.53C11.8172 1086.19 13.4933 1086.5 14.2621 1086.45C15.031 1086.5 16.7071 1086.19 17.2607 1084.53C17.9527 1082.46 18.3371 1082.22 19.9517 1081.84C21.5664 1081.46 25.9489 1079.84 24.6418 1073.61C24.3343 1072.26 22.8427 1069.97 19.3367 1071.69C18.7216 1072.1 17.3684 1072.55 16.8763 1071.08Z" fill="#FF9636"/>
<path d="M19.2602 37.4438C18.6994 36.883 18.6061 32.8251 18.6498 29.4577C18.6745 27.5585 19.0714 24.9502 20.9517 25.2188C21.4899 25.2957 26.6413 27.2948 24.4885 32.3693C22.3357 37.4438 20.1828 38.3664 19.2602 37.4438Z" fill="#FF9636"/>
<path d="M27.8715 32.6767C28.3773 31.7041 28.5681 30.6528 28.6332 29.8415C28.7056 28.9387 29.1516 27.4506 30.0193 27.7104C30.6355 27.8949 30.6336 28.4791 30.5469 29.1164C30.2875 31.0217 28.732 32.2575 27.8715 32.6767Z" fill="#FF9636"/>
<path d="M18.9526 43.5945C19.3552 42.8145 19.5064 41.9712 19.5576 41.3217C19.6142 40.6031 19.9672 39.4151 20.6572 39.6233C21.1473 39.7711 21.1444 40.2364 21.0765 40.7438C20.8722 42.2695 19.6361 43.259 18.9526 43.5945Z" fill="#FF9636"/>
<path d="M26.7947 25.5261C26.129 25.0981 24.9914 22.1611 24.1779 19.7845C23.76 18.5635 23.6702 16.8547 24.9494 16.6842C26.8178 16.435 27.6755 14.3515 29.108 13.1264C29.3459 12.923 29.5817 12.8046 29.7933 12.8398C30.7159 12.9936 32.7918 16.6842 31.6385 20.836C30.4853 24.9879 27.8711 26.2181 26.7947 25.5261Z" fill="#FF9636"/>
<path d="M15.7183 37.4438C16.2791 36.8831 16.3724 32.8251 16.3287 29.4578C16.304 27.5586 15.9071 24.9503 14.0268 25.2189C13.4886 25.2958 8.33722 27.2948 10.49 32.3693C12.6429 37.4438 14.7957 38.3665 15.7183 37.4438Z" fill="#FF9636"/>
<path d="M7.10697 32.6765C6.60122 31.704 6.41043 30.6526 6.34535 29.8413C6.27294 28.9385 5.82687 27.4504 4.95923 27.7102C4.34306 27.8947 4.3449 28.4789 4.43166 29.1162C4.69103 31.0216 6.24655 32.2574 7.10697 32.6765Z" fill="#FF9636"/>
<path d="M16.0259 43.5945C15.6233 42.8145 15.4722 41.9713 15.4209 41.3217C15.3643 40.6032 15.0114 39.4152 14.3213 39.6233C13.8312 39.7711 13.8341 40.2365 13.902 40.7438C14.1063 42.2695 15.3424 43.259 16.0259 43.5945Z" fill="#FF9636"/>
<path d="M8.18284 25.526C8.84858 25.098 9.98611 22.1609 10.7996 19.7843C11.2176 18.5634 11.3073 16.8546 10.0281 16.684C8.15974 16.4349 7.30203 14.3513 5.86953 13.1262C5.63168 12.9228 5.39584 12.8044 5.18427 12.8397C4.26163 12.9935 2.18569 16.684 3.33899 20.8359C4.49229 24.9878 7.10643 26.218 8.18284 25.526Z" fill="#FF9636"/>
<path d="M19.8763 1.07643C19.7738 0.717623 19.1074 1.22112e-05 17.2621 1.23725e-05C15.4169 1.25338e-05 14.7505 0.717624 14.648 1.07643C14.1559 2.55265 12.8027 2.10158 12.1876 1.69152C8.68158 -0.0307333 7.19002 2.25536 6.88249 3.61369C5.57542 9.84149 9.95795 11.4561 11.5726 11.8405C13.1872 12.225 13.5716 12.4556 14.2636 14.5316C14.8172 16.1923 16.4933 16.505 17.2621 16.4537C18.031 16.505 19.7071 16.1923 20.2607 14.5316C20.9527 12.4556 21.3371 12.225 22.9517 11.8405C24.5664 11.4561 28.9489 9.84149 27.6418 3.61368C27.3343 2.25535 25.8427 -0.0307348 22.3367 1.69152C21.7216 2.10158 20.3684 2.55265 19.8763 1.07643Z" fill="#FF9636"/>
<path d="M19.2602 556.444C18.6994 555.883 18.6061 551.825 18.6498 548.458C18.6745 546.558 19.0714 543.95 20.9517 544.219C21.4899 544.296 26.6413 546.295 24.4885 551.369C22.3357 556.444 20.1828 557.366 19.2602 556.444Z" fill="#FF9636"/>
<path d="M27.8715 551.677C28.3773 550.704 28.5681 549.653 28.6332 548.841C28.7056 547.939 29.1516 546.451 30.0193 546.71C30.6355 546.895 30.6336 547.479 30.5469 548.116C30.2875 550.022 28.732 551.258 27.8715 551.677Z" fill="#FF9636"/>
<path d="M18.9526 562.594C19.3552 561.814 19.5064 560.971 19.5576 560.322C19.6142 559.603 19.9672 558.415 20.6572 558.623C21.1473 558.771 21.1444 559.236 21.0765 559.744C20.8722 561.269 19.6361 562.259 18.9526 562.594Z" fill="#FF9636"/>
<path d="M26.7947 544.526C26.129 544.098 24.9914 541.161 24.1779 538.784C23.76 537.563 23.6702 535.855 24.9494 535.684C26.8178 535.435 27.6755 533.351 29.108 532.126C29.3459 531.923 29.5817 531.805 29.7933 531.84C30.7159 531.994 32.7918 535.684 31.6385 539.836C30.4853 543.988 27.8711 545.218 26.7947 544.526Z" fill="#FF9636"/>
<path d="M15.7183 556.444C16.2791 555.883 16.3724 551.825 16.3287 548.458C16.304 546.559 15.9071 543.95 14.0268 544.219C13.4886 544.296 8.33722 546.295 10.49 551.369C12.6429 556.444 14.7957 557.366 15.7183 556.444Z" fill="#FF9636"/>
<path d="M7.10697 551.677C6.60122 550.704 6.41043 549.653 6.34535 548.841C6.27294 547.938 5.82687 546.45 4.95923 546.71C4.34306 546.895 4.3449 547.479 4.43166 548.116C4.69103 550.022 6.24655 551.257 7.10697 551.677Z" fill="#FF9636"/>
<path d="M16.0259 562.594C15.6233 561.815 15.4722 560.971 15.4209 560.322C15.3643 559.603 15.0114 558.415 14.3213 558.623C13.8312 558.771 13.8341 559.236 13.902 559.744C14.1063 561.269 15.3424 562.259 16.0259 562.594Z" fill="#FF9636"/>
<path d="M8.18284 544.526C8.84858 544.098 9.98611 541.161 10.7996 538.784C11.2176 537.563 11.3073 535.855 10.0281 535.684C8.15974 535.435 7.30203 533.351 5.86953 532.126C5.63168 531.923 5.39584 531.804 5.18427 531.84C4.26163 531.993 2.18569 535.684 3.33899 539.836C4.49229 543.988 7.10643 545.218 8.18284 544.526Z" fill="#FF9636"/>
<path d="M19.8763 520.076C19.7738 519.718 19.1074 519 17.2621 519C15.4169 519 14.7505 519.718 14.648 520.076C14.1559 521.553 12.8027 521.102 12.1876 520.691C8.68158 518.969 7.19002 521.255 6.88249 522.614C5.57542 528.841 9.95795 530.456 11.5726 530.841C13.1872 531.225 13.5716 531.456 14.2636 533.532C14.8172 535.192 16.4933 535.505 17.2621 535.454C18.031 535.505 19.7071 535.192 20.2607 533.532C20.9527 531.456 21.3371 531.225 22.9517 530.841C24.5664 530.456 28.9489 528.841 27.6418 522.614C27.3343 521.255 25.8427 518.969 22.3367 520.691C21.7216 521.102 20.3684 521.553 19.8763 520.076Z" fill="#FF9636"/>
<path d="M24.2602 195.444C23.6994 194.883 23.6061 190.825 23.6498 187.458C23.6745 185.559 24.0714 182.95 25.9517 183.219C26.4899 183.296 31.6413 185.295 29.4885 190.369C27.3357 195.444 25.1828 196.366 24.2602 195.444Z" fill="#FF9636"/>
<path d="M32.8715 190.677C33.3773 189.704 33.5681 188.653 33.6332 187.841C33.7056 186.939 34.1516 185.451 35.0193 185.71C35.6355 185.895 35.6336 186.479 35.5469 187.116C35.2875 189.022 33.732 190.258 32.8715 190.677Z" fill="#FF9636"/>
<path d="M23.9526 201.594C24.3552 200.815 24.5064 199.971 24.5576 199.322C24.6142 198.603 24.9672 197.415 25.6572 197.623C26.1473 197.771 26.1444 198.236 26.0765 198.744C25.8722 200.269 24.6361 201.259 23.9526 201.594Z" fill="#FF9636"/>
<path d="M31.7947 183.526C31.129 183.098 29.9914 180.161 29.1779 177.784C28.76 176.563 28.6702 174.855 29.9494 174.684C31.8178 174.435 32.6755 172.351 34.108 171.126C34.3459 170.923 34.5817 170.805 34.7933 170.84C35.7159 170.994 37.7918 174.684 36.6385 178.836C35.4853 182.988 32.8711 184.218 31.7947 183.526Z" fill="#FF9636"/>
<path d="M20.7183 195.444C21.2791 194.883 21.3724 190.825 21.3287 187.458C21.304 185.559 20.9071 182.95 19.0268 183.219C18.4886 183.296 13.3372 185.295 15.49 190.369C17.6429 195.444 19.7957 196.366 20.7183 195.444Z" fill="#FF9636"/>
<path d="M12.107 190.677C11.6012 189.704 11.4104 188.653 11.3454 187.841C11.2729 186.938 10.8269 185.45 9.95923 185.71C9.34306 185.895 9.3449 186.479 9.43166 187.116C9.69103 189.022 11.2465 190.257 12.107 190.677Z" fill="#FF9636"/>
<path d="M21.0259 201.595C20.6233 200.815 20.4722 199.971 20.4209 199.322C20.3643 198.603 20.0114 197.415 19.3213 197.623C18.8312 197.771 18.8341 198.236 18.902 198.744C19.1063 200.269 20.3424 201.259 21.0259 201.595Z" fill="#FF9636"/>
<path d="M13.1828 183.526C13.8486 183.098 14.9861 180.161 15.7996 177.784C16.2176 176.563 16.3073 174.855 15.0281 174.684C13.1597 174.435 12.302 172.351 10.8695 171.126C10.6317 170.923 10.3958 170.804 10.1843 170.84C9.26163 170.994 7.18569 174.684 8.33899 178.836C9.49229 182.988 12.1064 184.218 13.1828 183.526Z" fill="#FF9636"/>
<path d="M24.8763 159.076C24.7738 158.718 24.1074 158 22.2621 158C20.4169 158 19.7505 158.718 19.648 159.076C19.1559 160.553 17.8027 160.102 17.1876 159.692C13.6816 157.969 12.19 160.255 11.8825 161.614C10.5754 167.841 14.9579 169.456 16.5726 169.841C18.1872 170.225 18.5716 170.456 19.2636 172.532C19.8172 174.192 21.4933 174.505 22.2621 174.454C23.031 174.505 24.7071 174.192 25.2607 172.532C25.9527 170.456 26.3371 170.225 27.9517 169.841C29.5664 169.456 33.9489 167.841 32.6418 161.614C32.3343 160.255 30.8427 157.969 27.3367 159.692C26.7216 160.102 25.3684 160.553 24.8763 159.076Z" fill="#FF9636"/>
<path d="M24.2602 772.444C23.6994 771.883 23.6061 767.825 23.6498 764.458C23.6745 762.558 24.0714 759.95 25.9517 760.219C26.4899 760.296 31.6413 762.295 29.4885 767.369C27.3357 772.444 25.1828 773.366 24.2602 772.444Z" fill="#FF9636"/>
<path d="M32.8715 767.677C33.3773 766.704 33.5681 765.653 33.6332 764.841C33.7056 763.939 34.1516 762.451 35.0193 762.71C35.6355 762.895 35.6336 763.479 35.5469 764.116C35.2875 766.022 33.732 767.258 32.8715 767.677Z" fill="#FF9636"/>
<path d="M23.9526 778.594C24.3552 777.814 24.5064 776.971 24.5576 776.322C24.6142 775.603 24.9672 774.415 25.6572 774.623C26.1473 774.771 26.1444 775.236 26.0765 775.744C25.8722 777.269 24.6361 778.259 23.9526 778.594Z" fill="#FF9636"/>
<path d="M31.7947 760.526C31.129 760.098 29.9914 757.161 29.1779 754.784C28.76 753.563 28.6702 751.855 29.9494 751.684C31.8178 751.435 32.6755 749.351 34.108 748.126C34.3459 747.923 34.5817 747.805 34.7933 747.84C35.7159 747.994 37.7918 751.684 36.6385 755.836C35.4853 759.988 32.8711 761.218 31.7947 760.526Z" fill="#FF9636"/>
<path d="M20.7183 772.444C21.2791 771.883 21.3724 767.825 21.3287 764.458C21.304 762.559 20.9071 759.95 19.0268 760.219C18.4886 760.296 13.3372 762.295 15.49 767.369C17.6429 772.444 19.7957 773.366 20.7183 772.444Z" fill="#FF9636"/>
<path d="M12.107 767.677C11.6012 766.704 11.4104 765.653 11.3454 764.841C11.2729 763.938 10.8269 762.45 9.95923 762.71C9.34306 762.895 9.3449 763.479 9.43166 764.116C9.69103 766.022 11.2465 767.257 12.107 767.677Z" fill="#FF9636"/>
<path d="M21.0259 778.594C20.6233 777.815 20.4722 776.971 20.4209 776.322C20.3643 775.603 20.0114 774.415 19.3213 774.623C18.8312 774.771 18.8341 775.236 18.902 775.744C19.1063 777.269 20.3424 778.259 21.0259 778.594Z" fill="#FF9636"/>
<path d="M13.1828 760.526C13.8486 760.098 14.9861 757.161 15.7996 754.784C16.2176 753.563 16.3073 751.855 15.0281 751.684C13.1597 751.435 12.302 749.351 10.8695 748.126C10.6317 747.923 10.3958 747.804 10.1843 747.84C9.26163 747.993 7.18569 751.684 8.33899 755.836C9.49229 759.988 12.1064 761.218 13.1828 760.526Z" fill="#FF9636"/>
<path d="M24.8763 736.076C24.7738 735.718 24.1074 735 22.2621 735C20.4169 735 19.7505 735.718 19.648 736.076C19.1559 737.553 17.8027 737.102 17.1876 736.691C13.6816 734.969 12.19 737.255 11.8825 738.614C10.5754 744.841 14.9579 746.456 16.5726 746.841C18.1872 747.225 18.5716 747.456 19.2636 749.532C19.8172 751.192 21.4933 751.505 22.2621 751.454C23.031 751.505 24.7071 751.192 25.2607 749.532C25.9527 747.456 26.3371 747.225 27.9517 746.841C29.5664 746.456 33.9489 744.841 32.6418 738.614C32.3343 737.255 30.8427 734.969 27.3367 736.691C26.7216 737.102 25.3684 737.553 24.8763 736.076Z" fill="#FF9636"/>
<path d="M31.2602 1892.44C30.6994 1891.88 30.6061 1887.83 30.6498 1884.46C30.6745 1882.56 31.0714 1879.95 32.9517 1880.22C33.4899 1880.3 38.6413 1882.29 36.4885 1887.37C34.3357 1892.44 32.1828 1893.37 31.2602 1892.44Z" fill="#FF9636"/>
<path d="M39.8715 1887.68C40.3773 1886.7 40.5681 1885.65 40.6332 1884.84C40.7056 1883.94 41.1516 1882.45 42.0193 1882.71C42.6355 1882.89 42.6336 1883.48 42.5469 1884.12C42.2875 1886.02 40.732 1887.26 39.8715 1887.68Z" fill="#FF9636"/>
<path d="M30.9526 1898.59C31.3552 1897.81 31.5064 1896.97 31.5576 1896.32C31.6142 1895.6 31.9672 1894.42 32.6572 1894.62C33.1473 1894.77 33.1444 1895.24 33.0765 1895.74C32.8722 1897.27 31.6361 1898.26 30.9526 1898.59Z" fill="#FF9636"/>
<path d="M38.7947 1880.53C38.129 1880.1 36.9914 1877.16 36.1779 1874.78C35.76 1873.56 35.6702 1871.85 36.9494 1871.68C38.8178 1871.44 39.6755 1869.35 41.108 1868.13C41.3459 1867.92 41.5817 1867.8 41.7933 1867.84C42.7159 1867.99 44.7918 1871.68 43.6385 1875.84C42.4853 1879.99 39.8711 1881.22 38.7947 1880.53Z" fill="#FF9636"/>
<path d="M27.7183 1892.44C28.2791 1891.88 28.3724 1887.83 28.3287 1884.46C28.304 1882.56 27.9071 1879.95 26.0268 1880.22C25.4886 1880.3 20.3372 1882.29 22.49 1887.37C24.6429 1892.44 26.7957 1893.37 27.7183 1892.44Z" fill="#FF9636"/>
<path d="M19.107 1887.68C18.6012 1886.7 18.4104 1885.65 18.3454 1884.84C18.2729 1883.94 17.8269 1882.45 16.9592 1882.71C16.3431 1882.89 16.3449 1883.48 16.4317 1884.12C16.691 1886.02 18.2465 1887.26 19.107 1887.68Z" fill="#FF9636"/>
<path d="M28.0259 1898.59C27.6233 1897.81 27.4722 1896.97 27.4209 1896.32C27.3643 1895.6 27.0114 1894.42 26.3213 1894.62C25.8312 1894.77 25.8341 1895.24 25.902 1895.74C26.1063 1897.27 27.3424 1898.26 28.0259 1898.59Z" fill="#FF9636"/>
<path d="M20.1828 1880.53C20.8486 1880.1 21.9861 1877.16 22.7996 1874.78C23.2176 1873.56 23.3073 1871.85 22.0281 1871.68C20.1597 1871.43 19.302 1869.35 17.8695 1868.13C17.6317 1867.92 17.3958 1867.8 17.1843 1867.84C16.2616 1867.99 14.1857 1871.68 15.339 1875.84C16.4923 1879.99 19.1064 1881.22 20.1828 1880.53Z" fill="#FF9636"/>
<path d="M31.8763 1856.08C31.7738 1855.72 31.1074 1855 29.2621 1855C27.4169 1855 26.7505 1855.72 26.648 1856.08C26.1559 1857.55 24.8027 1857.1 24.1876 1856.69C20.6816 1854.97 19.19 1857.26 18.8825 1858.61C17.5754 1864.84 21.9579 1866.46 23.5726 1866.84C25.1872 1867.22 25.5716 1867.46 26.2636 1869.53C26.8172 1871.19 28.4933 1871.5 29.2621 1871.45C30.031 1871.5 31.7071 1871.19 32.2607 1869.53C32.9527 1867.46 33.3371 1867.22 34.9517 1866.84C36.5664 1866.46 40.9489 1864.84 39.6418 1858.61C39.3343 1857.26 37.8427 1854.97 34.3367 1856.69C33.7216 1857.1 32.3684 1857.55 31.8763 1856.08Z" fill="#FF9636"/>
<path d="M16.2602 1334.44C15.6994 1333.88 15.6061 1329.83 15.6498 1326.46C15.6745 1324.56 16.0714 1321.95 17.9517 1322.22C18.4899 1322.3 23.6413 1324.29 21.4885 1329.37C19.3357 1334.44 17.1828 1335.37 16.2602 1334.44Z" fill="#FF9636"/>
<path d="M24.8715 1329.68C25.3773 1328.7 25.5681 1327.65 25.6332 1326.84C25.7056 1325.94 26.1516 1324.45 27.0193 1324.71C27.6355 1324.89 27.6336 1325.48 27.5469 1326.12C27.2875 1328.02 25.732 1329.26 24.8715 1329.68Z" fill="#FF9636"/>
<path d="M15.9526 1340.59C16.3552 1339.81 16.5064 1338.97 16.5576 1338.32C16.6142 1337.6 16.9672 1336.42 17.6572 1336.62C18.1473 1336.77 18.1444 1337.24 18.0765 1337.74C17.8722 1339.27 16.6361 1340.26 15.9526 1340.59Z" fill="#FF9636"/>
<path d="M23.7947 1322.53C23.129 1322.1 21.9914 1319.16 21.1779 1316.78C20.76 1315.56 20.6702 1313.85 21.9494 1313.68C23.8178 1313.44 24.6755 1311.35 26.108 1310.13C26.3459 1309.92 26.5817 1309.8 26.7933 1309.84C27.7159 1309.99 29.7918 1313.68 28.6385 1317.84C27.4853 1321.99 24.8711 1323.22 23.7947 1322.53Z" fill="#FF9636"/>
<path d="M12.7183 1334.44C13.2791 1333.88 13.3724 1329.83 13.3287 1326.46C13.304 1324.56 12.9071 1321.95 11.0268 1322.22C10.4886 1322.3 5.33722 1324.29 7.49004 1329.37C9.64286 1334.44 11.7957 1335.37 12.7183 1334.44Z" fill="#FF9636"/>
<path d="M4.10697 1329.68C3.60122 1328.7 3.41043 1327.65 3.34535 1326.84C3.27294 1325.94 2.82687 1324.45 1.95923 1324.71C1.34306 1324.89 1.3449 1325.48 1.43166 1326.12C1.69103 1328.02 3.24655 1329.26 4.10697 1329.68Z" fill="#FF9636"/>
<path d="M13.0259 1340.59C12.6233 1339.81 12.4722 1338.97 12.4209 1338.32C12.3643 1337.6 12.0114 1336.42 11.3213 1336.62C10.8312 1336.77 10.8341 1337.24 10.902 1337.74C11.1063 1339.27 12.3424 1340.26 13.0259 1340.59Z" fill="#FF9636"/>
<path d="M5.18284 1322.53C5.84858 1322.1 6.98611 1319.16 7.79964 1316.78C8.21758 1315.56 8.30733 1313.85 7.02813 1313.68C5.15974 1313.43 4.30203 1311.35 2.86953 1310.13C2.63168 1309.92 2.39584 1309.8 2.18427 1309.84C1.26163 1309.99 -0.814308 1313.68 0.33899 1317.84C1.49229 1321.99 4.10643 1323.22 5.18284 1322.53Z" fill="#FF9636"/>
<path d="M16.8763 1298.08C16.7738 1297.72 16.1074 1297 14.2621 1297C12.4169 1297 11.7505 1297.72 11.648 1298.08C11.1559 1299.55 9.8027 1299.1 9.18761 1298.69C5.68158 1296.97 4.19002 1299.26 3.88249 1300.61C2.57542 1306.84 6.95795 1308.46 8.57256 1308.84C10.1872 1309.22 10.5716 1309.46 11.2636 1311.53C11.8172 1313.19 13.4933 1313.5 14.2621 1313.45C15.031 1313.5 16.7071 1313.19 17.2607 1311.53C17.9527 1309.46 18.3371 1309.22 19.9517 1308.84C21.5664 1308.46 25.9489 1306.84 24.6418 1300.61C24.3343 1299.26 22.8427 1296.97 19.3367 1298.69C18.7216 1299.1 17.3684 1299.55 16.8763 1298.08Z" fill="#FF9636"/>
<path d="M85.2602 1809.44C84.6994 1808.88 84.6061 1804.83 84.6498 1801.46C84.6745 1799.56 85.0714 1796.95 86.9517 1797.22C87.4899 1797.3 92.6413 1799.29 90.4885 1804.37C88.3357 1809.44 86.1828 1810.37 85.2602 1809.44Z" fill="#FF9636"/>
<path d="M93.8715 1804.68C94.3773 1803.7 94.5681 1802.65 94.6332 1801.84C94.7056 1800.94 95.1516 1799.45 96.0193 1799.71C96.6355 1799.89 96.6336 1800.48 96.5469 1801.12C96.2875 1803.02 94.732 1804.26 93.8715 1804.68Z" fill="#FF9636"/>
<path d="M84.9526 1815.59C85.3552 1814.81 85.5064 1813.97 85.5576 1813.32C85.6142 1812.6 85.9672 1811.42 86.6572 1811.62C87.1473 1811.77 87.1444 1812.24 87.0765 1812.74C86.8722 1814.27 85.6361 1815.26 84.9526 1815.59Z" fill="#FF9636"/>
<path d="M92.7947 1797.53C92.129 1797.1 90.9914 1794.16 90.1779 1791.78C89.76 1790.56 89.6702 1788.85 90.9494 1788.68C92.8178 1788.44 93.6755 1786.35 95.108 1785.13C95.3459 1784.92 95.5817 1784.8 95.7933 1784.84C96.7159 1784.99 98.7918 1788.68 97.6385 1792.84C96.4853 1796.99 93.8711 1798.22 92.7947 1797.53Z" fill="#FF9636"/>
<path d="M81.7183 1809.44C82.2791 1808.88 82.3724 1804.83 82.3287 1801.46C82.304 1799.56 81.9071 1796.95 80.0268 1797.22C79.4886 1797.3 74.3372 1799.29 76.49 1804.37C78.6429 1809.44 80.7957 1810.37 81.7183 1809.44Z" fill="#FF9636"/>
<path d="M73.107 1804.68C72.6012 1803.7 72.4104 1802.65 72.3454 1801.84C72.2729 1800.94 71.8269 1799.45 70.9592 1799.71C70.3431 1799.89 70.3449 1800.48 70.4317 1801.12C70.691 1803.02 72.2465 1804.26 73.107 1804.68Z" fill="#FF9636"/>
<path d="M82.0259 1815.59C81.6233 1814.81 81.4722 1813.97 81.4209 1813.32C81.3643 1812.6 81.0114 1811.42 80.3213 1811.62C79.8312 1811.77 79.8341 1812.24 79.902 1812.74C80.1063 1814.27 81.3424 1815.26 82.0259 1815.59Z" fill="#FF9636"/>
<path d="M74.1828 1797.53C74.8486 1797.1 75.9861 1794.16 76.7996 1791.78C77.2176 1790.56 77.3073 1788.85 76.0281 1788.68C74.1597 1788.43 73.302 1786.35 71.8695 1785.13C71.6317 1784.92 71.3958 1784.8 71.1843 1784.84C70.2616 1784.99 68.1857 1788.68 69.339 1792.84C70.4923 1796.99 73.1064 1798.22 74.1828 1797.53Z" fill="#FF9636"/>
<path d="M85.8763 1773.08C85.7738 1772.72 85.1074 1772 83.2621 1772C81.4169 1772 80.7505 1772.72 80.648 1773.08C80.1559 1774.55 78.8027 1774.1 78.1876 1773.69C74.6816 1771.97 73.19 1774.26 72.8825 1775.61C71.5754 1781.84 75.9579 1783.46 77.5726 1783.84C79.1872 1784.22 79.5716 1784.46 80.2636 1786.53C80.8172 1788.19 82.4933 1788.5 83.2621 1788.45C84.031 1788.5 85.7071 1788.19 86.2607 1786.53C86.9527 1784.46 87.3371 1784.22 88.9517 1783.84C90.5664 1783.46 94.9489 1781.84 93.6418 1775.61C93.3343 1774.26 91.8427 1771.97 88.3367 1773.69C87.7216 1774.1 86.3684 1774.55 85.8763 1773.08Z" fill="#FF9636"/>
<path d="M70.2602 1258.44C69.6994 1257.88 69.6061 1253.83 69.6498 1250.46C69.6745 1248.56 70.0714 1245.95 71.9517 1246.22C72.4899 1246.3 77.6413 1248.29 75.4885 1253.37C73.3357 1258.44 71.1828 1259.37 70.2602 1258.44Z" fill="#FF9636"/>
<path d="M78.8715 1253.68C79.3773 1252.7 79.5681 1251.65 79.6332 1250.84C79.7056 1249.94 80.1516 1248.45 81.0193 1248.71C81.6355 1248.89 81.6336 1249.48 81.5469 1250.12C81.2875 1252.02 79.732 1253.26 78.8715 1253.68Z" fill="#FF9636"/>
<path d="M69.9526 1264.59C70.3552 1263.81 70.5064 1262.97 70.5576 1262.32C70.6142 1261.6 70.9672 1260.42 71.6572 1260.62C72.1473 1260.77 72.1444 1261.24 72.0765 1261.74C71.8722 1263.27 70.6361 1264.26 69.9526 1264.59Z" fill="#FF9636"/>
<path d="M77.7947 1246.53C77.129 1246.1 75.9914 1243.16 75.1779 1240.78C74.76 1239.56 74.6702 1237.85 75.9494 1237.68C77.8178 1237.44 78.6755 1235.35 80.108 1234.13C80.3459 1233.92 80.5817 1233.8 80.7933 1233.84C81.7159 1233.99 83.7918 1237.68 82.6385 1241.84C81.4853 1245.99 78.8711 1247.22 77.7947 1246.53Z" fill="#FF9636"/>
<path d="M66.7183 1258.44C67.2791 1257.88 67.3724 1253.83 67.3287 1250.46C67.304 1248.56 66.9071 1245.95 65.0268 1246.22C64.4886 1246.3 59.3372 1248.29 61.49 1253.37C63.6429 1258.44 65.7957 1259.37 66.7183 1258.44Z" fill="#FF9636"/>
<path d="M58.107 1253.68C57.6012 1252.7 57.4104 1251.65 57.3454 1250.84C57.2729 1249.94 56.8269 1248.45 55.9592 1248.71C55.3431 1248.89 55.3449 1249.48 55.4317 1250.12C55.691 1252.02 57.2465 1253.26 58.107 1253.68Z" fill="#FF9636"/>
<path d="M67.0259 1264.59C66.6233 1263.81 66.4722 1262.97 66.4209 1262.32C66.3643 1261.6 66.0114 1260.42 65.3213 1260.62C64.8312 1260.77 64.8341 1261.24 64.902 1261.74C65.1063 1263.27 66.3424 1264.26 67.0259 1264.59Z" fill="#FF9636"/>
<path d="M59.1828 1246.53C59.8486 1246.1 60.9861 1243.16 61.7996 1240.78C62.2176 1239.56 62.3073 1237.85 61.0281 1237.68C59.1597 1237.43 58.302 1235.35 56.8695 1234.13C56.6317 1233.92 56.3958 1233.8 56.1843 1233.84C55.2616 1233.99 53.1857 1237.68 54.339 1241.84C55.4923 1245.99 58.1064 1247.22 59.1828 1246.53Z" fill="#FF9636"/>
<path d="M70.8763 1222.08C70.7738 1221.72 70.1074 1221 68.2621 1221C66.4169 1221 65.7505 1221.72 65.648 1222.08C65.1559 1223.55 63.8027 1223.1 63.1876 1222.69C59.6816 1220.97 58.19 1223.26 57.8825 1224.61C56.5754 1230.84 60.9579 1232.46 62.5726 1232.84C64.1872 1233.22 64.5716 1233.46 65.2636 1235.53C65.8172 1237.19 67.4933 1237.5 68.2621 1237.45C69.031 1237.5 70.7071 1237.19 71.2607 1235.53C71.9527 1233.46 72.3371 1233.22 73.9517 1232.84C75.5664 1232.46 79.9489 1230.84 78.6418 1224.61C78.3343 1223.26 76.8427 1220.97 73.3367 1222.69C72.7216 1223.1 71.3684 1223.55 70.8763 1222.08Z" fill="#FF9636"/>
<path d="M85.2602 2243.44C84.6994 2242.88 84.6061 2238.83 84.6498 2235.46C84.6745 2233.56 85.0714 2230.95 86.9517 2231.22C87.4899 2231.3 92.6413 2233.29 90.4885 2238.37C88.3357 2243.44 86.1828 2244.37 85.2602 2243.44Z" fill="#FF9636"/>
<path d="M93.8715 2238.68C94.3773 2237.7 94.5681 2236.65 94.6332 2235.84C94.7056 2234.94 95.1516 2233.45 96.0193 2233.71C96.6355 2233.89 96.6336 2234.48 96.5469 2235.12C96.2875 2237.02 94.732 2238.26 93.8715 2238.68Z" fill="#FF9636"/>
<path d="M84.9526 2249.59C85.3552 2248.81 85.5064 2247.97 85.5576 2247.32C85.6142 2246.6 85.9672 2245.42 86.6572 2245.62C87.1473 2245.77 87.1444 2246.24 87.0765 2246.74C86.8722 2248.27 85.6361 2249.26 84.9526 2249.59Z" fill="#FF9636"/>
<path d="M92.7947 2231.53C92.129 2231.1 90.9914 2228.16 90.1779 2225.78C89.76 2224.56 89.6702 2222.85 90.9494 2222.68C92.8178 2222.44 93.6755 2220.35 95.108 2219.13C95.3459 2218.92 95.5817 2218.8 95.7933 2218.84C96.7159 2218.99 98.7918 2222.68 97.6385 2226.84C96.4853 2230.99 93.8711 2232.22 92.7947 2231.53Z" fill="#FF9636"/>
<path d="M81.7183 2243.44C82.2791 2242.88 82.3724 2238.83 82.3287 2235.46C82.304 2233.56 81.9071 2230.95 80.0268 2231.22C79.4886 2231.3 74.3372 2233.29 76.49 2238.37C78.6429 2243.44 80.7957 2244.37 81.7183 2243.44Z" fill="#FF9636"/>
<path d="M73.107 2238.68C72.6012 2237.7 72.4104 2236.65 72.3454 2235.84C72.2729 2234.94 71.8269 2233.45 70.9592 2233.71C70.3431 2233.89 70.3449 2234.48 70.4317 2235.12C70.691 2237.02 72.2465 2238.26 73.107 2238.68Z" fill="#FF9636"/>
<path d="M82.0259 2249.59C81.6233 2248.81 81.4722 2247.97 81.4209 2247.32C81.3643 2246.6 81.0114 2245.42 80.3213 2245.62C79.8312 2245.77 79.8341 2246.24 79.902 2246.74C80.1063 2248.27 81.3424 2249.26 82.0259 2249.59Z" fill="#FF9636"/>
<path d="M74.1828 2231.53C74.8486 2231.1 75.9861 2228.16 76.7996 2225.78C77.2176 2224.56 77.3073 2222.85 76.0281 2222.68C74.1597 2222.43 73.302 2220.35 71.8695 2219.13C71.6317 2218.92 71.3958 2218.8 71.1843 2218.84C70.2616 2218.99 68.1857 2222.68 69.339 2226.84C70.4923 2230.99 73.1064 2232.22 74.1828 2231.53Z" fill="#FF9636"/>
<path d="M85.8763 2207.08C85.7738 2206.72 85.1074 2206 83.2621 2206C81.4169 2206 80.7505 2206.72 80.648 2207.08C80.1559 2208.55 78.8027 2208.1 78.1876 2207.69C74.6816 2205.97 73.19 2208.26 72.8825 2209.61C71.5754 2215.84 75.9579 2217.46 77.5726 2217.84C79.1872 2218.22 79.5716 2218.46 80.2636 2220.53C80.8172 2222.19 82.4933 2222.5 83.2621 2222.45C84.031 2222.5 85.7071 2222.19 86.2607 2220.53C86.9527 2218.46 87.3371 2218.22 88.9517 2217.84C90.5664 2217.46 94.9489 2215.84 93.6418 2209.61C93.3343 2208.26 91.8427 2205.97 88.3367 2207.69C87.7216 2208.1 86.3684 2208.55 85.8763 2207.08Z" fill="#FF9636"/>
<path d="M70.2602 1449.44C69.6994 1448.88 69.6061 1444.83 69.6498 1441.46C69.6745 1439.56 70.0714 1436.95 71.9517 1437.22C72.4899 1437.3 77.6413 1439.29 75.4885 1444.37C73.3357 1449.44 71.1828 1450.37 70.2602 1449.44Z" fill="#FF9636"/>
<path d="M78.8715 1444.68C79.3773 1443.7 79.5681 1442.65 79.6332 1441.84C79.7056 1440.94 80.1516 1439.45 81.0193 1439.71C81.6355 1439.89 81.6336 1440.48 81.5469 1441.12C81.2875 1443.02 79.732 1444.26 78.8715 1444.68Z" fill="#FF9636"/>
<path d="M69.9526 1455.59C70.3552 1454.81 70.5064 1453.97 70.5576 1453.32C70.6142 1452.6 70.9672 1451.42 71.6572 1451.62C72.1473 1451.77 72.1444 1452.24 72.0765 1452.74C71.8722 1454.27 70.6361 1455.26 69.9526 1455.59Z" fill="#FF9636"/>
<path d="M77.7947 1437.53C77.129 1437.1 75.9914 1434.16 75.1779 1431.78C74.76 1430.56 74.6702 1428.85 75.9494 1428.68C77.8178 1428.44 78.6755 1426.35 80.108 1425.13C80.3459 1424.92 80.5817 1424.8 80.7933 1424.84C81.7159 1424.99 83.7918 1428.68 82.6385 1432.84C81.4853 1436.99 78.8711 1438.22 77.7947 1437.53Z" fill="#FF9636"/>
<path d="M66.7183 1449.44C67.2791 1448.88 67.3724 1444.83 67.3287 1441.46C67.304 1439.56 66.9071 1436.95 65.0268 1437.22C64.4886 1437.3 59.3372 1439.29 61.49 1444.37C63.6429 1449.44 65.7957 1450.37 66.7183 1449.44Z" fill="#FF9636"/>
<path d="M58.107 1444.68C57.6012 1443.7 57.4104 1442.65 57.3454 1441.84C57.2729 1440.94 56.8269 1439.45 55.9592 1439.71C55.3431 1439.89 55.3449 1440.48 55.4317 1441.12C55.691 1443.02 57.2465 1444.26 58.107 1444.68Z" fill="#FF9636"/>
<path d="M67.0259 1455.59C66.6233 1454.81 66.4722 1453.97 66.4209 1453.32C66.3643 1452.6 66.0114 1451.42 65.3213 1451.62C64.8312 1451.77 64.8341 1452.24 64.902 1452.74C65.1063 1454.27 66.3424 1455.26 67.0259 1455.59Z" fill="#FF9636"/>
<path d="M59.1828 1437.53C59.8486 1437.1 60.9861 1434.16 61.7996 1431.78C62.2176 1430.56 62.3073 1428.85 61.0281 1428.68C59.1597 1428.43 58.302 1426.35 56.8695 1425.13C56.6317 1424.92 56.3958 1424.8 56.1843 1424.84C55.2616 1424.99 53.1857 1428.68 54.339 1432.84C55.4923 1436.99 58.1064 1438.22 59.1828 1437.53Z" fill="#FF9636"/>
<path d="M70.8763 1413.08C70.7738 1412.72 70.1074 1412 68.2621 1412C66.4169 1412 65.7505 1412.72 65.648 1413.08C65.1559 1414.55 63.8027 1414.1 63.1876 1413.69C59.6816 1411.97 58.19 1414.26 57.8825 1415.61C56.5754 1421.84 60.9579 1423.46 62.5726 1423.84C64.1872 1424.22 64.5716 1424.46 65.2636 1426.53C65.8172 1428.19 67.4933 1428.5 68.2621 1428.45C69.031 1428.5 70.7071 1428.19 71.2607 1426.53C71.9527 1424.46 72.3371 1424.22 73.9517 1423.84C75.5664 1423.46 79.9489 1421.84 78.6418 1415.61C78.3343 1414.26 76.8427 1411.97 73.3367 1413.69C72.7216 1414.1 71.3684 1414.55 70.8763 1413.08Z" fill="#FF9636"/>
<path d="M73.2602 308.444C72.6994 307.883 72.6061 303.825 72.6498 300.458C72.6745 298.559 73.0714 295.95 74.9517 296.219C75.4899 296.296 80.6413 298.295 78.4885 303.369C76.3357 308.444 74.1828 309.366 73.2602 308.444Z" fill="#FF9636"/>
<path d="M81.8715 303.677C82.3773 302.704 82.5681 301.653 82.6332 300.841C82.7056 299.939 83.1516 298.451 84.0193 298.71C84.6355 298.895 84.6336 299.479 84.5469 300.116C84.2875 302.022 82.732 303.258 81.8715 303.677Z" fill="#FF9636"/>
<path d="M72.9526 314.594C73.3552 313.815 73.5064 312.971 73.5576 312.322C73.6142 311.603 73.9672 310.415 74.6572 310.623C75.1473 310.771 75.1444 311.236 75.0765 311.744C74.8722 313.269 73.6361 314.259 72.9526 314.594Z" fill="#FF9636"/>
<path d="M80.7947 296.526C80.129 296.098 78.9914 293.161 78.1779 290.784C77.76 289.563 77.6702 287.855 78.9494 287.684C80.8178 287.435 81.6755 285.351 83.108 284.126C83.3459 283.923 83.5817 283.805 83.7933 283.84C84.7159 283.994 86.7918 287.684 85.6385 291.836C84.4853 295.988 81.8711 297.218 80.7947 296.526Z" fill="#FF9636"/>
<path d="M69.7183 308.444C70.2791 307.883 70.3724 303.825 70.3287 300.458C70.304 298.559 69.9071 295.95 68.0268 296.219C67.4886 296.296 62.3372 298.295 64.49 303.369C66.6429 308.444 68.7957 309.366 69.7183 308.444Z" fill="#FF9636"/>
<path d="M61.107 303.677C60.6012 302.704 60.4104 301.653 60.3454 300.841C60.2729 299.938 59.8269 298.45 58.9592 298.71C58.3431 298.895 58.3449 299.479 58.4317 300.116C58.691 302.022 60.2465 303.257 61.107 303.677Z" fill="#FF9636"/>
<path d="M70.0259 314.595C69.6233 313.815 69.4722 312.971 69.4209 312.322C69.3643 311.603 69.0114 310.415 68.3213 310.623C67.8312 310.771 67.8341 311.236 67.902 311.744C68.1063 313.269 69.3424 314.259 70.0259 314.595Z" fill="#FF9636"/>
<path d="M62.1828 296.526C62.8486 296.098 63.9861 293.161 64.7996 290.784C65.2176 289.563 65.3073 287.855 64.0281 287.684C62.1597 287.435 61.302 285.351 59.8695 284.126C59.6317 283.923 59.3958 283.804 59.1843 283.84C58.2616 283.994 56.1857 287.684 57.339 291.836C58.4923 295.988 61.1064 297.218 62.1828 296.526Z" fill="#FF9636"/>
<path d="M73.8763 272.076C73.7738 271.718 73.1074 271 71.2621 271C69.4169 271 68.7505 271.718 68.648 272.076C68.1559 273.553 66.8027 273.102 66.1876 272.692C62.6816 270.969 61.19 273.255 60.8825 274.614C59.5754 280.841 63.9579 282.456 65.5726 282.841C67.1872 283.225 67.5716 283.456 68.2636 285.532C68.8172 287.192 70.4933 287.505 71.2621 287.454C72.031 287.505 73.7071 287.192 74.2607 285.532C74.9527 283.456 75.3371 283.225 76.9517 282.841C78.5664 282.456 82.9489 280.841 81.6418 274.614C81.3343 273.255 79.8427 270.969 76.3367 272.692C75.7216 273.102 74.3684 273.553 73.8763 272.076Z" fill="#FF9636"/>
<path d="M73.2602 860.444C72.6994 859.883 72.6061 855.825 72.6498 852.458C72.6745 850.558 73.0714 847.95 74.9517 848.219C75.4899 848.296 80.6413 850.295 78.4885 855.369C76.3357 860.444 74.1828 861.366 73.2602 860.444Z" fill="#FF9636"/>
<path d="M81.8715 855.677C82.3773 854.704 82.5681 853.653 82.6332 852.841C82.7056 851.939 83.1516 850.451 84.0193 850.71C84.6355 850.895 84.6336 851.479 84.5469 852.116C84.2875 854.022 82.732 855.258 81.8715 855.677Z" fill="#FF9636"/>
<path d="M72.9526 866.594C73.3552 865.814 73.5064 864.971 73.5576 864.322C73.6142 863.603 73.9672 862.415 74.6572 862.623C75.1473 862.771 75.1444 863.236 75.0765 863.744C74.8722 865.269 73.6361 866.259 72.9526 866.594Z" fill="#FF9636"/>
<path d="M80.7947 848.526C80.129 848.098 78.9914 845.161 78.1779 842.784C77.76 841.563 77.6702 839.855 78.9494 839.684C80.8178 839.435 81.6755 837.351 83.108 836.126C83.3459 835.923 83.5817 835.805 83.7933 835.84C84.7159 835.994 86.7918 839.684 85.6385 843.836C84.4853 847.988 81.8711 849.218 80.7947 848.526Z" fill="#FF9636"/>
<path d="M69.7183 860.444C70.2791 859.883 70.3724 855.825 70.3287 852.458C70.304 850.559 69.9071 847.95 68.0268 848.219C67.4886 848.296 62.3372 850.295 64.49 855.369C66.6429 860.444 68.7957 861.366 69.7183 860.444Z" fill="#FF9636"/>
<path d="M61.107 855.677C60.6012 854.704 60.4104 853.653 60.3454 852.841C60.2729 851.938 59.8269 850.45 58.9592 850.71C58.3431 850.895 58.3449 851.479 58.4317 852.116C58.691 854.022 60.2465 855.257 61.107 855.677Z" fill="#FF9636"/>
<path d="M70.0259 866.594C69.6233 865.815 69.4722 864.971 69.4209 864.322C69.3643 863.603 69.0114 862.415 68.3213 862.623C67.8312 862.771 67.8341 863.236 67.902 863.744C68.1063 865.269 69.3424 866.259 70.0259 866.594Z" fill="#FF9636"/>
<path d="M62.1828 848.526C62.8486 848.098 63.9861 845.161 64.7996 842.784C65.2176 841.563 65.3073 839.855 64.0281 839.684C62.1597 839.435 61.302 837.351 59.8695 836.126C59.6317 835.923 59.3958 835.804 59.1843 835.84C58.2616 835.993 56.1857 839.684 57.339 843.836C58.4923 847.988 61.1064 849.218 62.1828 848.526Z" fill="#FF9636"/>
<path d="M73.8763 824.076C73.7738 823.718 73.1074 823 71.2621 823C69.4169 823 68.7505 823.718 68.648 824.076C68.1559 825.553 66.8027 825.102 66.1876 824.691C62.6816 822.969 61.19 825.255 60.8825 826.614C59.5754 832.841 63.9579 834.456 65.5726 834.841C67.1872 835.225 67.5716 835.456 68.2636 837.532C68.8172 839.192 70.4933 839.505 71.2621 839.454C72.031 839.505 73.7071 839.192 74.2607 837.532C74.9527 835.456 75.3371 835.225 76.9517 834.841C78.5664 834.456 82.9489 832.841 81.6418 826.614C81.3343 825.255 79.8427 822.969 76.3367 824.691C75.7216 825.102 74.3684 825.553 73.8763 824.076Z" fill="#FF9636"/>
<path d="M73.2602 119.444C72.6994 118.883 72.6061 114.825 72.6498 111.458C72.6745 109.558 73.0714 106.95 74.9517 107.219C75.4899 107.296 80.6413 109.295 78.4885 114.369C76.3357 119.444 74.1828 120.366 73.2602 119.444Z" fill="#FF9636"/>
<path d="M81.8715 114.677C82.3773 113.704 82.5681 112.653 82.6332 111.841C82.7056 110.939 83.1516 109.451 84.0193 109.71C84.6355 109.895 84.6336 110.479 84.5469 111.116C84.2875 113.022 82.732 114.258 81.8715 114.677Z" fill="#FF9636"/>
<path d="M72.9526 125.594C73.3552 124.815 73.5064 123.971 73.5576 123.322C73.6142 122.603 73.9672 121.415 74.6572 121.623C75.1473 121.771 75.1444 122.236 75.0765 122.744C74.8722 124.269 73.6361 125.259 72.9526 125.594Z" fill="#FF9636"/>
<path d="M80.7947 107.526C80.129 107.098 78.9914 104.161 78.1779 101.784C77.76 100.563 77.6702 98.8547 78.9494 98.6842C80.8178 98.435 81.6755 96.3515 83.108 95.1264C83.3459 94.923 83.5817 94.8046 83.7933 94.8398C84.7159 94.9936 86.7918 98.6842 85.6385 102.836C84.4853 106.988 81.8711 108.218 80.7947 107.526Z" fill="#FF9636"/>
<path d="M69.7183 119.444C70.2791 118.883 70.3724 114.825 70.3287 111.458C70.304 109.559 69.9071 106.95 68.0268 107.219C67.4886 107.296 62.3372 109.295 64.49 114.369C66.6429 119.444 68.7957 120.366 69.7183 119.444Z" fill="#FF9636"/>
<path d="M61.107 114.677C60.6012 113.704 60.4104 112.653 60.3454 111.841C60.2729 110.938 59.8269 109.45 58.9592 109.71C58.3431 109.895 58.3449 110.479 58.4317 111.116C58.691 113.022 60.2465 114.257 61.107 114.677Z" fill="#FF9636"/>
<path d="M70.0259 125.595C69.6233 124.815 69.4722 123.971 69.4209 123.322C69.3643 122.603 69.0114 121.415 68.3213 121.623C67.8312 121.771 67.8341 122.236 67.902 122.744C68.1063 124.269 69.3424 125.259 70.0259 125.595Z" fill="#FF9636"/>
<path d="M62.1828 107.526C62.8486 107.098 63.9861 104.161 64.7996 101.784C65.2176 100.563 65.3073 98.8546 64.0281 98.684C62.1597 98.4349 61.302 96.3513 59.8695 95.1262C59.6317 94.9228 59.3958 94.8044 59.1843 94.8397C58.2616 94.9935 56.1857 98.684 57.339 102.836C58.4923 106.988 61.1064 108.218 62.1828 107.526Z" fill="#FF9636"/>
<path d="M73.8763 83.0764C73.7738 82.7176 73.1074 82 71.2621 82C69.4169 82 68.7505 82.7176 68.648 83.0764C68.1559 84.5527 66.8027 84.1016 66.1876 83.6915C62.6816 81.9693 61.19 84.2554 60.8825 85.6137C59.5754 91.8415 63.9579 93.4561 65.5726 93.8405C67.1872 94.225 67.5716 94.4556 68.2636 96.5316C68.8172 98.1923 70.4933 98.505 71.2621 98.4537C72.031 98.505 73.7071 98.1923 74.2607 96.5316C74.9527 94.4556 75.3371 94.225 76.9517 93.8405C78.5664 93.4561 82.9489 91.8415 81.6418 85.6137C81.3343 84.2554 79.8427 81.9693 76.3367 83.6915C75.7216 84.1016 74.3684 84.5527 73.8763 83.0764Z" fill="#FF9636"/>
<path d="M73.2602 692.444C72.6994 691.883 72.6061 687.825 72.6498 684.458C72.6745 682.558 73.0714 679.95 74.9517 680.219C75.4899 680.296 80.6413 682.295 78.4885 687.369C76.3357 692.444 74.1828 693.366 73.2602 692.444Z" fill="#FF9636"/>
<path d="M81.8715 687.677C82.3773 686.704 82.5681 685.653 82.6332 684.841C82.7056 683.939 83.1516 682.451 84.0193 682.71C84.6355 682.895 84.6336 683.479 84.5469 684.116C84.2875 686.022 82.732 687.258 81.8715 687.677Z" fill="#FF9636"/>
<path d="M72.9526 698.594C73.3552 697.814 73.5064 696.971 73.5576 696.322C73.6142 695.603 73.9672 694.415 74.6572 694.623C75.1473 694.771 75.1444 695.236 75.0765 695.744C74.8722 697.269 73.6361 698.259 72.9526 698.594Z" fill="#FF9636"/>
<path d="M80.7947 680.526C80.129 680.098 78.9914 677.161 78.1779 674.784C77.76 673.563 77.6702 671.855 78.9494 671.684C80.8178 671.435 81.6755 669.351 83.108 668.126C83.3459 667.923 83.5817 667.805 83.7933 667.84C84.7159 667.994 86.7918 671.684 85.6385 675.836C84.4853 679.988 81.8711 681.218 80.7947 680.526Z" fill="#FF9636"/>
<path d="M69.7183 692.444C70.2791 691.883 70.3724 687.825 70.3287 684.458C70.304 682.559 69.9071 679.95 68.0268 680.219C67.4886 680.296 62.3372 682.295 64.49 687.369C66.6429 692.444 68.7957 693.366 69.7183 692.444Z" fill="#FF9636"/>
<path d="M61.107 687.677C60.6012 686.704 60.4104 685.653 60.3454 684.841C60.2729 683.938 59.8269 682.45 58.9592 682.71C58.3431 682.895 58.3449 683.479 58.4317 684.116C58.691 686.022 60.2465 687.257 61.107 687.677Z" fill="#FF9636"/>
<path d="M70.0259 698.594C69.6233 697.815 69.4722 696.971 69.4209 696.322C69.3643 695.603 69.0114 694.415 68.3213 694.623C67.8312 694.771 67.8341 695.236 67.902 695.744C68.1063 697.269 69.3424 698.259 70.0259 698.594Z" fill="#FF9636"/>
<path d="M62.1828 680.526C62.8486 680.098 63.9861 677.161 64.7996 674.784C65.2176 673.563 65.3073 671.855 64.0281 671.684C62.1597 671.435 61.302 669.351 59.8695 668.126C59.6317 667.923 59.3958 667.804 59.1843 667.84C58.2616 667.993 56.1857 671.684 57.339 675.836C58.4923 679.988 61.1064 681.218 62.1828 680.526Z" fill="#FF9636"/>
<path d="M73.8763 656.076C73.7738 655.718 73.1074 655 71.2621 655C69.4169 655 68.7505 655.718 68.648 656.076C68.1559 657.553 66.8027 657.102 66.1876 656.691C62.6816 654.969 61.19 657.255 60.8825 658.614C59.5754 664.841 63.9579 666.456 65.5726 666.841C67.1872 667.225 67.5716 667.456 68.2636 669.532C68.8172 671.192 70.4933 671.505 71.2621 671.454C72.031 671.505 73.7071 671.192 74.2607 669.532C74.9527 667.456 75.3371 667.225 76.9517 666.841C78.5664 666.456 82.9489 664.841 81.6418 658.614C81.3343 657.255 79.8427 654.969 76.3367 656.691C75.7216 657.102 74.3684 657.553 73.8763 656.076Z" fill="#FF9636"/>
<path d="M31.2602 1668.44C30.6994 1667.88 30.6061 1663.83 30.6498 1660.46C30.6745 1658.56 31.0714 1655.95 32.9517 1656.22C33.4899 1656.3 38.6413 1658.29 36.4885 1663.37C34.3357 1668.44 32.1828 1669.37 31.2602 1668.44Z" fill="#FF9636"/>
<path d="M39.8715 1663.68C40.3773 1662.7 40.5681 1661.65 40.6332 1660.84C40.7056 1659.94 41.1516 1658.45 42.0193 1658.71C42.6355 1658.9 42.6336 1659.48 42.5469 1660.12C42.2875 1662.02 40.732 1663.26 39.8715 1663.68Z" fill="#FF9636"/>
<path d="M30.9526 1674.59C31.3552 1673.81 31.5064 1672.97 31.5576 1672.32C31.6142 1671.6 31.9672 1670.42 32.6572 1670.62C33.1473 1670.77 33.1444 1671.24 33.0765 1671.74C32.8722 1673.27 31.6361 1674.26 30.9526 1674.59Z" fill="#FF9636"/>
<path d="M38.7947 1656.53C38.129 1656.1 36.9914 1653.16 36.1779 1650.78C35.76 1649.56 35.6702 1647.85 36.9494 1647.68C38.8178 1647.44 39.6755 1645.35 41.108 1644.13C41.3459 1643.92 41.5817 1643.8 41.7933 1643.84C42.7159 1643.99 44.7918 1647.68 43.6385 1651.84C42.4853 1655.99 39.8711 1657.22 38.7947 1656.53Z" fill="#FF9636"/>
<path d="M27.7183 1668.44C28.2791 1667.88 28.3724 1663.83 28.3287 1660.46C28.304 1658.56 27.9071 1655.95 26.0268 1656.22C25.4886 1656.3 20.3372 1658.29 22.49 1663.37C24.6429 1668.44 26.7957 1669.37 27.7183 1668.44Z" fill="#FF9636"/>
<path d="M19.107 1663.68C18.6012 1662.7 18.4104 1661.65 18.3454 1660.84C18.2729 1659.94 17.8269 1658.45 16.9592 1658.71C16.3431 1658.89 16.3449 1659.48 16.4317 1660.12C16.691 1662.02 18.2465 1663.26 19.107 1663.68Z" fill="#FF9636"/>
<path d="M28.0259 1674.59C27.6233 1673.81 27.4722 1672.97 27.4209 1672.32C27.3643 1671.6 27.0114 1670.42 26.3213 1670.62C25.8312 1670.77 25.8341 1671.24 25.902 1671.74C26.1063 1673.27 27.3424 1674.26 28.0259 1674.59Z" fill="#FF9636"/>
<path d="M20.1828 1656.53C20.8486 1656.1 21.9861 1653.16 22.7996 1650.78C23.2176 1649.56 23.3073 1647.85 22.0281 1647.68C20.1597 1647.44 19.302 1645.35 17.8695 1644.13C17.6317 1643.92 17.3958 1643.8 17.1843 1643.84C16.2616 1643.99 14.1857 1647.68 15.339 1651.84C16.4923 1655.99 19.1064 1657.22 20.1828 1656.53Z" fill="#FF9636"/>
<path d="M31.8763 1632.08C31.7738 1631.72 31.1074 1631 29.2621 1631C27.4169 1631 26.7505 1631.72 26.648 1632.08C26.1559 1633.55 24.8027 1633.1 24.1876 1632.69C20.6816 1630.97 19.19 1633.26 18.8825 1634.61C17.5754 1640.84 21.9579 1642.46 23.5726 1642.84C25.1872 1643.23 25.5716 1643.46 26.2636 1645.53C26.8172 1647.19 28.4933 1647.51 29.2621 1647.45C30.031 1647.51 31.7071 1647.19 32.2607 1645.53C32.9527 1643.46 33.3371 1643.23 34.9517 1642.84C36.5664 1642.46 40.9489 1640.84 39.6418 1634.61C39.3343 1633.26 37.8427 1630.97 34.3367 1632.69C33.7216 1633.1 32.3684 1633.55 31.8763 1632.08Z" fill="#FF9636"/>
</svg>
